<?xml version="1.0" encoding="UTF-8"?>
<svg id="Layer_1" xmlns="http://www.w3.org/2000/svg" version="1.1" viewBox="0 0 1000 1000">
  <!-- Generator: Adobe Illustrator 30.2.1, SVG Export Plug-In . SVG Version: 2.1.1 Build 1)  -->
  <defs>
    <style>
      .st0 {
        fill: #fff;
      }
    </style>
  </defs>
  <path class="st0" d="M267.7,390.7v218.8c0,8.6,7,15.6,15.6,15.6h125c8.6,0,15.6-7,15.6-15.6v-218.8c0-8.6-7-15.6-15.6-15.6h-125c-8.6,0-15.6,7-15.6,15.6h0ZM334.1,601.6c0-6.4,5.2-11.7,11.7-11.7s11.7,5.2,11.7,11.7-5.2,11.7-11.7,11.7-11.7-5.2-11.7-11.7ZM283.3,492.2h125v78.1c0,4.7-3.2,7.8-7.8,7.8h-109.4c-4.7,0-7.8-3.2-7.8-7.8v-78.1h0ZM283.3,398.4c0-4.7,3.2-7.8,7.8-7.8h109.4c4.7,0,7.8,3.2,7.8,7.8v78.1h-125v-78.1h0Z"/>
  <path class="st0" d="M456.8,512l74.1,43.5,13.5,7.9,101,59.4c7.4,4.3,17,1.8,21.4-5.6l63.4-107.7c4.3-7.4,1.8-17-5.6-21.4l-101-59.4-13.5-7.9-74.1-43.5c-7.4-4.3-17-1.8-21.4,5.6l-63.4,107.7c-4.3,7.4-1.8,17,5.6,21.4h0ZM672.3,561.7c-5.5-3.2-7.4-10.4-4.1-15.9,3.2-5.5,10.4-7.4,15.9-4.1s7.4,10.4,4.1,15.9-10.4,7.4-15.9,4.1ZM597,458.5l-15.8,27c-2.3,4-6.7,5.1-10.7,2.8l-53.9-31.7c-4-2.3-5.1-6.7-2.8-10.7l15.8-27c2.3-4,6.7-5.1,10.7-2.8l53.9,31.7c4,2.3,5.1,6.7,2.8,10.7ZM471.5,502.4c-4-2.3-5.1-6.7-2.8-10.7l55.5-94.3c2.3-4,6.7-5.1,10.7-2.8l148.1,87.1c4,2.3,5.1,6.7,2.8,10.7l-55.5,94.3c-2.3,4-6.7,5.1-10.7,2.8l-67.4-39.6-80.8-47.5h.1Z"/>
</svg>