<?xml version="1.0" encoding="UTF-8"?><svg id="a" xmlns="http://www.w3.org/2000/svg" xmlns:xlink="http://www.w3.org/1999/xlink" viewBox="0 0 1012 812.98"><defs><style>.p{fill:url(#g);}.q,.r,.s{fill:none;}.t{fill:#fac827;}.u{fill:#00cf00;}.v{fill:#00a100;}.w{fill:#005f0f;}.x{fill:#0068a1;}.y{fill:#0073b0;}.a`{fill:#fe0009;}.aa,.ab{fill:#fff;}.ac{fill:#f39639;}.ad{fill:#ee904c;}.ae{fill:#6c2f1d;}.af{fill:#6d0000;}.ag{fill:#9936f6;}.ah{fill:#9f0005;}.ai{fill:#b83088;}.aj{fill:#3198cc;}.ak{fill:#8cbf43;}.al{fill:#be8227;}.am{fill:#dd0002;}.an{fill:#e1e2e2;}.ao{fill:#09cb00;}.ap{fill:#34fa0f;}.aq,.ar{fill:#19171c;}.as{fill:#2b30d8;}.at{fill:#2d353f;}.au{fill:#62caff;}.av{fill:#3696ff;}.aw{fill:#2670fa;}.ab,.ar,.ax{isolation:isolate;}.ab,.ar,.ax,.ay{opacity:.3;}.ax{fill:#221e20;}.b`{opacity:.39;}.ba{clip-path:url(#c);}.bb{clip-path:url(#b);}.bc{clip-path:url(#f);}.bd{clip-path:url(#e);}.be{clip-path:url(#d);}.bf{clip-path:url(#n);}.bg{clip-path:url(#m);}.bh{clip-path:url(#l);}.bi{clip-path:url(#k);}.bj{clip-path:url(#j);}.bk{clip-path:url(#i);}.bl{clip-path:url(#h);}.bm{clip-path:url(#o);}.r{stroke-dasharray:0 0 0 12.743;}.r,.s{stroke:#fff;stroke-linecap:round;stroke-linejoin:round;stroke-width:3px;}</style><clipPath id="b"><path class="q" d="M147.8,192.48c-7,4.8-30.9,18.5-37.6,20.6-20.6,6.5-20.1-16.9-13.6-19.5,6.6-2.7,29.9-15.9,36.7-19.8,7.8-4.4,24.4,11.9,14.5,18.7Z"/></clipPath><clipPath id="c"><path class="q" d="M147.8,192.48c-7,4.8-30.9,18.5-37.6,20.6-20.6,6.5-20.1-16.9-13.6-19.5,6.6-2.7,29.9-15.9,36.7-19.8,7.8-4.4,24.4,11.9,14.5,18.7Z"/></clipPath><clipPath id="d"><path class="q" d="M182.8,187.98c-1.1,10.8-1.2,8.8,6.7,12,25.1,10,40.2-11,41-34,.1-2.8-.2-3.4-3.8-4.6-23.9-8-41.6,3.4-43.9,26.6Z"/></clipPath><clipPath id="e"><path class="q" d="M182.8,187.98c-1.1,10.8-1.2,8.8,6.7,12,25.1,10,40.2-11,41-34,.1-2.8-.2-3.4-3.8-4.6-23.9-8-41.6,3.4-43.9,26.6Z"/></clipPath><clipPath id="f"><path class="q" d="M139.1,84.98l-4.1,19.9c-6.7,3.4-9,5.7-14.3,9.2l-11.7-12.7c-6.2,27.1-3.7,53.7,18,85.2,15.4,22.4,37.2,36.8,57.3,47.8,10.6,5.8,10.3,5.8,8.3-3.3-1.9-8.8-8.3-20.7-4.6-24.5,6.7-7,22.9,5.3,31.2,7.2,8.1,1.9,10.6,1.4,6.9-6.2-7.3-15.1-9.7-29.1-18.2-50.2-13.5-33.5-35.5-60-68.8-72.4Z"/></clipPath><linearGradient id="g" x1="-3484.285" y1="-1689.661" x2="-3484.285" y2="-1526.297" gradientTransform="translate(3969.324 -349.977) rotate(-32.441)" gradientUnits="userSpaceOnUse"><stop offset="0" stop-color="#ee904c"/><stop offset="1" stop-color="#f37c47"/></linearGradient><clipPath id="h"><path class="q" d="M139.1,84.98l-4.1,19.9c-6.7,3.4-9,5.7-14.3,9.2l-11.7-12.7c-6.2,27.1-3.7,53.7,18,85.2,15.4,22.4,37.2,36.8,57.3,47.8,10.6,5.8,10.3,5.8,8.3-3.3-1.9-8.8-8.3-20.7-4.6-24.5,6.7-7,22.9,5.3,31.2,7.2,8.1,1.9,10.6,1.4,6.9-6.2-7.3-15.1-9.7-29.1-18.2-50.2-13.5-33.5-35.5-60-68.8-72.4Z"/></clipPath><clipPath id="i"><path class="q" d="M139.1,84.98l-4.1,19.9c-6.7,3.4-9,5.7-14.3,9.2l-11.7-12.7c-6.2,27.1-3.7,53.7,18,85.2,15.4,22.4,37.2,36.8,57.3,47.8,10.6,5.8,10.3,5.8,8.3-3.3-1.9-8.8-8.3-20.7-4.6-24.5,6.7-7,22.9,5.3,31.2,7.2,8.1,1.9,10.6,1.4,6.9-6.2-7.3-15.1-9.7-29.1-18.2-50.2-13.5-33.5-35.5-60-68.8-72.4Z"/></clipPath><clipPath id="j"><path class="q" d="M155.6,174.18c-19.6,11.2-36-1.2-38.2-11.7-.5-2.3,6-11.2,5.9-14.4,1.2,2.1,1.5,5.6,1.3,7.8,6-3.4,7.8-12.4,7.7-14.6,1.4,2,3.3,6.4,2.3,8.4,3.6-3.8,7.9-9.3,7.9-13.8,1.9,1.8,3.3,6.8,1.6,8.7,4.3-4.5,8-8.3,11-13.5,1.1,2.7,1.3,5.9-.1,9,4.5-2.6,6.7-5.4,8.1-10.6,16.4,8.1,16.3,31.1-7.5,44.7Z"/></clipPath><clipPath id="k"><path class="q" d="M155.6,174.18c-19.6,11.2-36-1.2-38.2-11.7-.5-2.3,6-11.2,5.9-14.4,1.2,2.1,1.5,5.6,1.3,7.8,6-3.4,7.8-12.4,7.7-14.6,1.4,2,3.3,6.4,2.3,8.4,3.6-3.8,7.9-9.3,7.9-13.8,1.9,1.8,3.3,6.8,1.6,8.7,4.3-4.5,8-8.3,11-13.5,1.1,2.7,1.3,5.9-.1,9,4.5-2.6,6.7-5.4,8.1-10.6,16.4,8.1,16.3,31.1-7.5,44.7Z"/></clipPath><clipPath id="l"><path class="q" d="M204.3,141.08c2.6,9.4-.5,16.2-6.1,17.9s-12-3.7-14.3-11.9c-2.2-8.2,.5-16.2,6.1-17.9,5.7-1.7,11.7,2.5,14.3,11.9Z"/></clipPath><clipPath id="m"><path class="q" d="M204.3,141.08c2.6,9.4-.5,16.2-6.1,17.9s-12-3.7-14.3-11.9c-2.2-8.2,.5-16.2,6.1-17.9,5.7-1.7,11.7,2.5,14.3,11.9Z"/></clipPath><clipPath id="n"><path class="q" d="M199.4,155.28c7-4.8,28.5-22.1,32.9-27.6,13.5-16.8-8.4-24.9-13.3-19.8-4.9,5.2-25.7,22.2-31.8,27.1-7,5.7,2.2,27.1,12.2,20.3Z"/></clipPath><clipPath id="o"><path class="q" d="M199.4,155.28c7-4.8,28.5-22.1,32.9-27.6,13.5-16.8-8.4-24.9-13.3-19.8-4.9,5.2-25.7,22.2-31.8,27.1-7,5.7,2.2,27.1,12.2,20.3Z"/></clipPath></defs><rect class="y" y="144.98" width="1012" height="277.1"/><rect class="y" x="27.8" y="449.88" width="956.4" height="363.1"/><path class="ar" d="M218.6,316.98c-2.5,9.6-12.1,15.2-21.8,13.5-47.4-8.2-93.9-8.2-141.3,0-9.6,1.7-19.2-3.9-21.8-13.5-2.7-11.1-5.3-22.1-8-33.2-2.3-10.9,6.5-19.9,16.7-21.8,56.1-9.8,111.3-9.8,167.4,0,10.2,1.9,19,10.9,16.7,21.8-2.6,11-5.3,22.1-7.9,33.2Zm261.4-33.3c2.3-10.9-6.5-19.9-16.7-21.8-56.1-9.8-111.3-9.8-167.4,0-10.2,1.9-19,10.9-16.7,21.8,2.7,11.1,5.3,22.1,8,33.2,2.5,9.6,12.1,15.2,21.8,13.5,47.4-8.2,93.9-8.2,141.3,0,9.6,1.7,19.2-3.9,21.8-13.5,2.6-11,5.3-22.1,7.9-33.2Zm253.5,0c2.3-10.9-6.5-19.9-16.7-21.8-56.1-9.8-111.3-9.8-167.4,0-10.2,1.9-19,10.9-16.7,21.8,2.7,11.1,5.3,22.1,8,33.2,2.5,9.6,12.1,15.2,21.8,13.5,47.4-8.2,93.9-8.2,141.3,0,9.6,1.7,19.2-3.9,21.8-13.5,2.6-11,5.2-22.1,7.9-33.2Zm252.7,0c2.3-10.9-6.5-19.9-16.7-21.8-56.1-9.8-111.3-9.8-167.4,0-10.2,1.9-19,10.9-16.7,21.8,2.7,11.1,5.3,22.1,8,33.2,2.5,9.6,12.1,15.2,21.8,13.5,47.4-8.2,93.9-8.2,141.3,0,9.6,1.7,19.2-3.9,21.8-13.5,2.6-11,5.3-22.1,7.9-33.2Zm-265.2,437.4l10.9-98.5c.9-8.5-1.6-16.9-7-23.5-5.5-6.6-13.2-10.6-21.7-11.2-45.3-3.4-91.3-3.4-136.7,0-8.5,.6-16.2,4.6-21.7,11.2-5.5,6.6-8,15-7,23.5l10.9,98.5c1.9,16.8,16.5,29,33.3,27.8,35.1-2.5,70.7-2.5,105.7,0h0c.8,.1,1.5,.1,2.3,.1,15.8,.1,29.2-11.8,31-27.9Zm220.6,0l10.9-98.5c.9-8.5-1.6-16.9-7-23.5-5.5-6.6-13.2-10.6-21.7-11.2-45.3-3.4-91.3-3.4-136.7,0-8.5,.6-16.2,4.6-21.7,11.2-5.5,6.6-8,15-7,23.5l10.9,98.5c1.9,16.8,16.5,29,33.3,27.8,35.1-2.5,70.7-2.5,105.7,0h0c.8,.1,1.5,.1,2.3,.1,15.8,.1,29.2-11.8,31-27.9Z"/><g><path class="ac" d="M363.9,668.08c.3-22-17.3-39.6-39.2-39.5-21.8,.1-40.1,17.9-40.8,39.8-.7,22.1,16.7,40.2,38.9,40.2,22.4,0,40.8-18.2,41.1-40.5Z"/><path class="ak" d="M135,668.18c.5-21.9-16.9-39.6-38.7-39.6s-40.3,17.6-41.2,39.6c-.9,22.2,16.4,40.4,38.7,40.4s40.8-18.2,41.2-40.4Z"/><path class="aj" d="M250.1,666.78c-.6-21.6-18.3-38.5-39.9-38.2-21.8,.3-39.8,18.1-40.1,40.2-.3,22.5,18,40.6,40.7,39.8,22.4-.8,39.9-19.7,39.3-41.8Z"/><path class="ai" d="M478.7,671.18c-.2-22-18.1-39.6-39.9-39.6s-39.8,17.6-40,39.6c-.3,22.2,17.6,40.4,39.9,40.4,22.3,.1,40.3-18.2,40-40.4Z"/></g><g><g><path class="at" d="M271.3,55.98c0,2.3-.4,4.3-1.2,5.9-.9,1.6-2,2.8-3.4,3.9s-3,1.6-4.6,2-3.2,.7-5,.7c-2.3,0-4.6-.4-6.7-1.1-2.1-.7-4.1-2.1-5.5-4.1-1.6-2-2.1-4.3-2.1-7.3v-14.9h8.2v12.8c0,1.8,.2,3.2,.7,4.4,.5,1.1,1.2,2,2.1,2.5,.9,.5,2,.7,3.2,.7,1.1,0,2.3-.2,3.2-.7,.9-.5,1.6-1.4,2.1-2.5s.7-2.7,.7-4.4v-12.8h8.2l.1,14.9h0Z"/><path class="at" d="M299.2,49.38c0,1.1-.2,2-.5,2.8-.4,1.1-.9,2-1.6,2.7-.7,.9-1.8,1.6-3.2,2-1.2,.5-2.8,.7-4.6,.7h-5.3v10.3h-8.2v-27h13.5c1.8,0,3.2,.2,4.6,.7,1.2,.5,2.3,1.2,3.2,2,.7,.9,1.2,1.8,1.6,2.8,.3,1.1,.5,2.1,.5,3Zm-8.4,0c0-1.2-.4-2.1-1.1-2.7-.7-.5-2.1-.7-4.1-.7h-1.8v6.6h1.8c1.4,0,2.3-.2,3.2-.2s1.2-.5,1.6-.9c.2-.3,.4-1.2,.4-2.1Z"/><path class="at" d="M327.2,49.38c0,1.1-.2,2-.5,2.8-.4,1.1-.9,2-1.6,2.7-.7,.9-1.8,1.6-3.2,2-1.2,.5-2.8,.7-4.6,.7h-5.5v10.3h-8.2v-27h13.5c1.8,0,3.2,.2,4.6,.7,1.2,.5,2.3,1.2,3.2,2,.7,.9,1.2,1.8,1.6,2.8,.4,1.1,.7,2.1,.7,3Zm-8.3,0c0-1.2-.4-2.1-1.1-2.7-.7-.5-2.1-.7-4.1-.7h-2v6.6h1.8c1.4,0,2.3-.2,3.2-.2s1.2-.5,1.6-.9c.2-.3,.6-1.2,.6-2.1Z"/><path class="at" d="M356.7,47.58h-9.9v20.6h-8.2v-20.6h-10.1v-6.6h28.1l.1,6.6h0Z"/><path class="at" d="M386.9,68.08h-8.3l-2.3-5.5h-11.7l-2.3,5.5h-8.3l11.8-27.2h9.1l12,27.2Zm-18.8-31.7c0,.7-.2,1.4-.7,2-.5,.5-1.1,.7-2,.7s-1.4-.2-2-.7c-.5-.5-.7-1.1-.7-2s.2-1.4,.7-2c.5-.5,1.1-.7,2-.7s1.4,.2,2,.7c.5,.6,.7,1.3,.7,2Zm6.2,21.4l-3.9-9.8-4.1,9.8h8Zm3.7-21.4c0,.7-.2,1.4-.7,2-.5,.5-1.1,.7-2,.7s-1.4-.2-2-.7c-.5-.5-.7-1.1-.7-2s.2-1.4,.7-2c.5-.5,1.1-.7,2-.7s1.4,.2,2,.7c.4,.6,.7,1.3,.7,2Z"/><path class="at" d="M412.8,65.88c-1.1,.7-2.3,1.1-3.4,1.4-1.1,.4-2.3,.7-3.6,.7s-2.3,.2-3.7,.2c-2.3,0-4.4-.4-6.4-1.1s-3.6-1.6-5-2.8c-1.4-1.2-2.3-2.8-3-4.4s-1.1-3.6-1.1-5.5c0-2.3,.4-4.4,1.2-6.2,.7-1.8,2-3.2,3.4-4.4,1.6-1.1,3.2-2,5-2.5,2-.5,3.7-.9,5.9-.9,3,0,6.6,.7,10.5,2v7.1c-1.4-.9-2.7-1.6-4.1-2.1-1.2-.5-2.8-.9-4.6-.9-1.6,0-3,.2-4.4,.9s-2.5,1.6-3.2,2.7c-.9,1.1-1.2,2.5-1.2,4.1,0,1.4,.4,2.7,1.1,3.7,.7,1.1,1.8,2,3,2.8,1.2,.7,2.8,1.1,4.4,1.1,1.2,0,2.5-.2,3.7-.5,1.1-.4,2.1-.7,2.8-1.1,.7-.4,1.6-.9,2.5-1.4v7.1h.2Z"/><path class="at" d="M445.9,68.08h-9.9l-10.3-12.8v12.8h-8.3v-27h8.2v12.1l9.8-12.1h8.9l-10.3,12.8,11.9,14.2Z"/><path class="at" d="M367.4,103.18h-8.2v-15.6l-7.3,9.1h-.7l-7.5-9.1v15.6h-8v-27.1h7.5l8.3,10.3,8.3-10.3h7.5v27.1h.1Z"/><path class="at" d="M392.2,103.18h-20.4v-27.1h20.1v5.5h-11.9v5h11.4v5.5h-11.4v5.9h12.3l-.1,5.2h0Z"/><path class="at" d="M423,103.18h-8.9l-2.1-4.8c-.7-1.8-1.6-3-2.1-3.9-.7-.7-1.2-1.4-1.8-1.6-.7-.2-1.4-.4-2.3-.4h-.9v10.7h-8.2v-27.1h13.9c2.3,0,4.1,.5,5.5,1.4s2.5,2,3.2,3.2,1.1,2.5,1.1,3.7c0,1.4-.2,2.5-.7,3.4s-1.1,1.6-1.6,2c-.7,.4-1.2,.9-2,1.2,.9,.5,1.6,1.1,2.1,1.8,.7,.7,1.4,2.1,2.3,4.3l2.5,6.1Zm-11-18.6c0-1.2-.4-2.1-1.2-2.7-.9-.5-2.1-.7-4.1-.7h-1.8v6.6h1.8c2,0,3.4-.2,4.1-.7,.8-.2,1.2-1.1,1.2-2.5Z"/><path class="at" d="M456.5,103.18h-8.3l-2.3-5.5h-11.7l-2.3,5.5h-8.3l11.9-27.2h9.1l11.9,27.2Zm-12.4-10.3l-3.9-9.8-4.1,9.8h8Z"/></g><g><path class="at" d="M552.3,29.28l6.4,71.6-21.5,2-3.7-41.6-17.5,25.9-1.8,.2-21.6-22.5,3.7,41.6-21.1,2-6.4-71.6,19.5-1.8,24.5,24.8,19.7-28.8,19.8-1.8Z"/><path class="at" d="M612.7,86.88c1.1,.2,2.8,0,5-.7l-2,9.6c-3.4,.7-6.4,1.1-8.5,1.1s-5-.2-7.6-.7c-2.8-.5-4.6-1.4-5.9-2.7-1.1-1.1-1.8-2.8-2-4.6-2.5,1.4-5.2,2.3-7.6,2.8-2.7,.5-5.7,.4-9.4-.4-3.7-.7-6.4-2-8.5-3.7-2.1-1.8-3.6-3.7-4.1-6-.7-2.1-.7-4.3-.2-6.4,1.1-5.9,5-9.6,11.5-11.4,2.8-.7,6.7-1.6,11.5-2,3.4-.4,5.5-.7,6.2-.7,2.3-.2,4.1-.7,5.3-.9,.4-2,.4-3.4,.2-4.6s-.9-2.3-2-3.2-2.7-1.6-5-2c-7.1-1.4-14.7,.5-22.4,5.5l2.7-14.2c5-2.3,10.7-3.4,16.9-3.2,3,0,6,.4,8.9,.9,7.5,1.4,12.8,3.9,16,7.6,3.2,3.7,4.4,8,3.4,13.1l-3.7,20.1c-.4,2-.5,3.2-.2,4.3-.1,1.7,.4,2.4,1.5,2.4Zm-28.8-3.6c1.1,.2,2.3,.2,3.7-.2,1.2-.4,2.8-1.1,4.6-2l2.3-12.3c-3.4,.7-6.2,1.4-8,2-2,.7-3.4,1.4-4.4,2.3-1.1,.9-1.8,2.3-2,3.7-.4,1.6-.2,3,.7,4.1,.6,1.5,1.7,2.1,3.1,2.4Z"/><path class="at" d="M653.3,86.48c3-.2,6.7-1.6,11.5-4.3l.7,14.6c-2.1,1.1-4.8,2.1-8.2,3.2s-6.6,1.6-9.4,1.6c-13.3,.7-20.4-5.7-21-18.8l-.9-21.1-8.5,.4-.2-3.2,23.8-26.6,2.1-.2,.7,15.8,17.8-.7,.7,13-17.8,.7,.7,16.9c.2,2.3,.2,3.9,.7,5s1.1,2,2.1,2.7c1.3,.9,2.9,1.2,5.2,1Z"/><path class="at" d="M700.9,73.88c3-.5,6.6-2.3,10.8-5.7l2.5,14.4c-2,1.4-4.6,2.8-7.6,4.1-3.2,1.4-6.4,2.3-9.1,2.8-13.3,2.3-21-3-23.3-15.8l-3.7-20.8-8.3,1.6-.7-3.2,20.3-29.4,2.1-.4,2.8,15.6,17.6-3.2,2.3,12.8-17.6,3.2,2.8,16.7c.4,2.3,.9,3.7,1.2,5,.5,1.1,1.2,1.8,2.5,2.3,1.4,.4,3.1,.4,5.4,0Z"/><path class="at" d="M768.4,51.18c1.4,4.8,1.1,10.3-.7,16.7l-1.1,3.7-35.9-9.9c-.2,2.1,.4,4.3,1.2,6.2,1.1,2,2.3,3.7,4.1,5.2,1.8,1.6,3.7,2.5,6.2,3.2,6,1.6,13.3,2,21.5,.5l-3.2,11c-3.6,.7-7.5,1.1-11.5,1.1-4.1-.2-8.7-.9-14-2.3-6.2-1.8-11-4.3-14.9-7.8-3.7-3.6-6.2-7.6-7.3-12.4-1.1-4.6-.9-9.4,.5-14.6,1.4-5,3.7-9.4,7.1-12.6,3.2-3.2,7.5-5.5,12.4-6.4,5-1.1,10.7-.7,16.9,1.1,4.4,1.2,8.2,3.2,11.5,6.2,3.7,2.7,6,6.5,7.2,11.1Zm-22.3-6.8c-3-.9-5.7-.5-8,1.1s-4.1,3.7-5,7.1l19.4,5.5c.9-3.2,.9-6.2-.2-8.5-1.3-2.7-3.4-4.3-6.2-5.2Z"/></g></g><g><g><g><path class="an" d="M302.1,262.18c3.4-.6,6.8-.7,10.3-1,2.1-.1,4.3-.3,6.4-.4-.1,0-.3-.1-.4-.1-.9-.3-1.8-.6-2.7-.8l-2.7-.8-1.4-.4c-.5-.1-.9-.2-1.4-.3l-2.7-.7c-7.3-1.7-14.5-3.1-21.7-4.2-.9-.1-1.8-.3-2.7-.4-.9-.1-1.8-.2-2.7-.4-1.8-.3-3.6-.5-5.4-.7-.9-.1-1.8-.2-2.7-.3-.9-.1-1.8-.2-2.6-.3-1.7-.2-3.5-.4-5.2-.6-.8-.1-1.6-.2-2.5-.3-.8-.1-1.6-.2-2.4-.4-1.6-.2-3.2-.5-4.8-.8-3.2-.6-6.3-1.3-9.3-2.2l-1.1-.3-1.1-.3c-.7-.2-1.5-.4-2.2-.7s-1.5-.5-2.2-.7c-.7-.3-1.4-.5-2.1-.8-2.8-1.1-5.6-2.3-8.1-3.7-2.6-1.4-5-2.8-7.3-4.4-2.3-1.6-4.4-3.3-6.4-5.1-1.9-1.8-3.7-3.7-5.3-5.6-1.6-2-3-4-4.2-6.1-2.4-4.2-4-8.5-4.9-12.8-.4-2.2-.7-4.3-.9-6.4-.1-2.1-.1-4.2,0-6.2s.4-3.9,.8-5.8c.4-1.9,.9-3.7,1.4-5.4,1.1-3.4,2.5-6.5,4.1-9.2,1.5-2.7,3.2-5,4.8-7,3.3-4,6.4-6.6,8.6-8.3,.1-.1,.3-.2,.4-.3,.1-.1,.2-.2,.3-.2,.2-.2,.4-.3,.6-.4,.1-.1,.2-.1,.3-.2,.1-.1,.2-.2,.3-.2,.2-.2,.4-.3,.6-.4,.7-.5,1.1-.8,1.1-.8l-14.3-19.7s-.4,.3-1.1,.8c-.2,.1-.4,.3-.6,.5l-.3,.3c-.2,.1-.3,.2-.5,.4-.3,.3-.7,.5-1,.8-.2,.2-.4,.3-.6,.5-.2,.2-.4,.3-.6,.5-1.5,1.3-3.4,3-5.4,5.1s-4.2,4.6-6.4,7.7c-2.2,3-4.4,6.6-6.4,10.6s-3.8,8.6-5.2,13.7c-.7,2.5-1.2,5.2-1.6,7.9-.4,2.7-.6,5.6-.7,8.5-.1,5.9,.6,12.1,2.2,18.3,1.7,6.2,4.4,12.5,8.1,18.3,1.9,2.9,4,5.7,6.3,8.3s4.9,5.1,7.6,7.4c2.7,2.3,5.6,4.4,8.7,6.3,3.1,1.9,6.2,3.6,9.5,5.1s6.7,2.8,10.1,4c.9,.3,1.7,.6,2.6,.8,.9,.3,1.7,.5,2.6,.8,.9,.3,1.8,.5,2.6,.7l1.3,.3,1.3,.3c3.6,.8,7.2,1.4,10.8,2,1.8,.2,3.6,.5,5.5,.6,.9,.1,1.8,.2,2.7,.3,.9,.1,1.8,.1,2.7,.2,1.7,.1,3.5,.2,5.2,.3,.9,.1,1.7,.1,2.6,.2s1.7,.1,2.6,.2c1.7,.1,3.4,.2,5.2,.4,.9,.1,1.7,.2,2.6,.2,.9,.1,1.7,.2,2.6,.3,1.1,.1,2.2,.2,3.3,.4,4.6-3.5,9.6-5.8,15.1-6.9Z"/><g class="ay"><g><polygon class="aq" points="222.9 155.78 222.3 156.18 208.4 136.28 208.9 135.88 222.9 155.78"/><polygon class="aq" points="217.5 159.78 216.6 160.58 200.4 143.08 201.3 142.18 217.5 159.78"/><polygon class="aq" points="212.3 164.78 211.5 165.78 193.4 150.98 194.2 149.98 212.3 164.78"/><polygon class="aq" points="207.9 170.58 207.2 171.58 187.6 159.78 188.2 158.68 207.9 170.58"/><polygon class="aq" points="204.3 176.88 203.8 177.98 183.1 169.28 183.6 168.08 204.3 176.88"/><polygon class="aq" points="201.7 183.58 201.3 184.88 180 179.38 180.3 178.18 201.7 183.58"/><polygon class="aq" points="200.1 190.68 200 191.98 178.5 189.78 178.6 188.58 200.1 190.68"/><polygon class="aq" points="199.6 197.88 199.7 199.18 178.6 200.38 178.5 199.08 199.6 197.88"/><polygon class="aq" points="200.3 205.08 200.6 206.28 180.4 210.78 180.1 209.58 200.3 205.08"/><polygon class="aq" points="202.2 212.08 202.6 213.18 183.8 220.78 183.3 219.58 202.2 212.08"/><polygon class="aq" points="205.1 218.68 205.8 219.78 188.8 230.08 188.1 228.98 205.1 218.68"/><polygon class="aq" points="209.2 224.88 210 225.78 195.2 238.28 194.3 237.38 209.2 224.88"/><polygon class="aq" points="214.2 230.38 215.1 231.28 202.5 245.48 201.6 244.58 214.2 230.38"/><polygon class="aq" points="220.1 235.28 221.1 236.08 210.7 251.38 209.7 250.68 220.1 235.28"/><polygon class="aq" points="226.6 239.58 227.8 240.18 219.4 256.28 218.3 255.68 226.6 239.58"/><polygon class="aq" points="233.8 243.08 235 243.58 228.5 260.08 227.3 259.58 233.8 243.08"/><polygon class="aq" points="241.4 245.98 242.6 246.28 237.8 262.88 236.5 262.58 241.4 245.98"/><polygon class="aq" points="249.3 248.18 250.5 248.48 247.1 264.98 245.9 264.68 249.3 248.18"/><polygon class="aq" points="257.5 249.78 258.7 249.98 256.5 266.28 255.2 266.18 257.5 249.78"/><polygon class="aq" points="265.9 250.98 267.1 251.08 265.8 267.08 264.5 266.98 265.9 250.98"/><polygon class="aq" points="274.8 251.98 276.1 252.18 274.5 267.68 273.2 267.58 274.8 251.98"/><polygon class="aq" points="283.8 253.18 285.1 253.38 283.2 268.48 281.9 268.28 283.8 253.18"/><path class="aq" d="M292.4,265.58l1.7-10.7-1.3-.2-1.8,11.7c.5-.3,.9-.5,1.4-.8Z"/><path class="aq" d="M302,262.18l1.1-5.6-1.2-.3-1.2,6.1c.4,0,.8-.1,1.3-.2Z"/></g><path class="aq" d="M296.2,263.88c-15.8-2.1-32.5-2.8-50.6-5-34.8-4.4-49.2-31.2-44.8-51.5-.1-.3-.1-.5-.2-.8-.4-2.2-.7-4.3-.9-6.4-.1-2.1-.1-4.2,0-6.2s.4-3.9,.8-5.8c.4-1.9,.9-3.7,1.4-5.4,1.1-3.4,2.5-6.5,4.1-9.2,1.5-2.7,3.2-5,4.8-7,3.3-4,6.4-6.6,8.6-8.3,.1-.1,.3-.2,.4-.3,.1-.1,.2-.2,.3-.2,.2-.2,.4-.3,.6-.4,.1-.1,.2-.1,.3-.2,.1-.1,.2-.2,.3-.2,.2-.2,.4-.3,.6-.4,.7-.5,1.1-.8,1.1-.8l-14.3-19.7s-.4,.3-1.1,.8c-.2,.1-.4,.3-.6,.4l-.3,.3c-.2,.1-.3,.2-.5,.4-.3,.3-.7,.5-1,.8-.2,.2-.4,.3-.6,.5-.2,.2-.4,.3-.6,.5-1.5,1.3-3.4,3-5.4,5.1s-4.2,4.6-6.4,7.7c-2.2,3-4.4,6.6-6.4,10.6s-3.8,8.6-5.2,13.7c-.7,2.5-1.2,5.2-1.6,7.9-.4,2.7-.6,5.6-.7,8.5-.1,5.9,.6,12.1,2.2,18.3,1.7,6.2,4.4,12.5,8.1,18.3,1.9,2.9,4,5.7,6.3,8.3s4.9,5.1,7.6,7.4c2.7,2.3,5.6,4.4,8.7,6.3,3.1,1.9,6.2,3.6,9.5,5.1s6.7,2.8,10.1,4c.9,.3,1.7,.6,2.6,.8,.9,.3,1.7,.5,2.6,.8,.9,.3,1.8,.5,2.6,.7l1.3,.3,1.3,.3c3.6,.8,7.2,1.4,10.8,2,1.8,.2,3.6,.5,5.5,.6,.9,.1,1.8,.2,2.7,.3,.9,.1,1.8,.1,2.7,.2,1.7,.1,3.5,.2,5.2,.3,.9,.1,1.7,.1,2.6,.2s1.7,.1,2.6,.2c1.7,.1,3.4,.2,5.2,.4,.9,.1,1.7,.2,2.6,.2,.9,.1,1.7,.2,2.6,.3,1.1,.1,2.2,.2,3.3,.4,3-2.2,6-3.9,9.2-5.1Z"/></g></g><g><g><g class="bb"><path class="t" d="M188.1,189.68c-68.6,46.4-112.6,39.6-155.4,16.6-22.3-11.9-2.5-51.4,25.8-39,52.7,23.1,63.1-.3,102.7-21.8,21.2-11.3,53.5,26.2,26.9,44.2Z"/></g><g class="ba"><path class="ar" d="M152.4,177.48c-5.2-.8-1.2,1.5-6.7,5.6-5,3.7-32.5,22.1-50,25-9.2,1.5-11.4-4.9-8.2-2.3,3.2,2.6-22.5-5.1-22.8-5.4-.2-.3,24.8,30.7,24.8,30.7,0,0,65.2-15.6,66.6-15.7,1.4-.1,7.8-25.2,8.3-24.8,.4,.4-12-13.1-12-13.1Z"/></g></g><g><g class="be"><path class="t" d="M182.8,187.98c-1.1,10.8-1.2,8.8,6.7,12,25.1,10,40.2-11,41-34,.1-2.8-.2-3.4-3.8-4.6-23.9-8-41.6,3.4-43.9,26.6Z"/></g><g class="bd"><path class="ar" d="M184.8,177.08c8.8,4.6,41.2,7.2,45.7-12.8,.3,2.9-.2,23.6-15.4,34.5-17,11.9-30.3-21.7-30.3-21.7Z"/></g></g><g><g class="bc"><polygon class="p" points="253.3 202.78 165.6 258.48 78.4 119.48 166.1 63.78 253.3 202.78"/></g><g class="bl"><path class="ar" d="M191.3,237.68c-6-10.4-12-19.5-12.5-25.3-.9-10.3,13.5-20.1,22.9-13.1,6,4.5,16,11.7,25.4,15,5.7,1.9-29.7,33.9-35.8,23.4Z"/></g><g class="bk"><path class="ar" d="M186.4,154.98c5.4,8,6.4,11.4,7.9,10.8,1.5-.6,5.6,11,15.5,24.3,2.9,3.9,12.4,1.1,5.6-8.6-5.6-7.9-16.6-26.8-18.9-29.2-2.1-2.4-10.1,2.7-10.1,2.7Z"/></g></g><g><g class="bj"><path class="ar" d="M177.5,141.78c5.2,12.8-1.5,29-18.3,38.6s-35.7,8.1-42.5-3.9-.8-37.1,16-46.6c16.8-9.6,38.4-3.8,44.8,11.9Z"/></g><g class="bi"><path class="an" d="M170,136.88c7.7,13.5,1,27-14.1,35.7-15.4,8.8-28.4,3.6-34.9-7.9-13.1-23.1,36.7-49.7,49-27.8Z"/></g></g><path class="ad" d="M145.3,164.98c0,.1,10.9-4.7,10.9-4.7,.3,.8-.5,4.7-3.7,6.3-4.5,2.3-6.9-.8-7.2-1.6Z"/><g><path class="ad" d="M152.6,139.58c2.6-1.6,6.9,.4,9.5,4.4,1,1.6-.9,4-3.2,5.4-2.3,1.5-5.3,2.2-6.3,.6-2.6-3.9-2.5-8.7,0-10.4m-.7-1.1c-3.2,2.1-3.5,7.5-.5,12.2,1.5,2.3,5.2,1.7,8.1-.2,2.9-1.9,5.1-4.9,3.6-7.2-2.9-4.7-7.9-6.8-11.2-4.8h0Z"/><path class="ad" d="M157.2,140.48c1.1,1.7,.6,4.1-1.2,5.2-1.7,1.1-4.1,.6-5.2-1.1-1.1-1.7-.6-4.1,1.1-5.2,1.9-1.1,4.2-.6,5.3,1.1Z"/><path class="ad" d="M127.9,164.28l11.3-7s1.8,3.2-1.7,6c-2,1.6-4,2.8-5.8,2.7-2.2-.1-3.8-1.7-3.8-1.7Z"/><path class="ad" d="M150.9,149.78l11.3-7s2,4.2-3,7.4c-4.8,2.9-8.3-.4-8.3-.4Z"/><path class="ad" d="M129.6,154.28c2.6-1.6,6.9,.4,9.5,4.4,1,1.6-.9,4-3.2,5.4-2.3,1.5-5.3,2.2-6.3,.6-2.6-4-2.6-8.8,0-10.4m-.7-1.1c-3.2,2.1-3.4,7.5-.5,12.2,1.5,2.3,5.2,1.6,8.1-.2,2.9-1.9,5.1-4.9,3.6-7.2-2.9-4.8-7.9-6.9-11.2-4.8h0Z"/><path class="ad" d="M134.5,154.98c1.1,1.7,.6,4.1-1.1,5.2-1.7,1.1-4.1,.6-5.2-1.1-1.1-1.7-.6-4.1,1.1-5.2,1.7-1.2,4.1-.7,5.2,1.1Z"/></g><g class="ay"><path class="aq" d="M120.9,173.68c-12.4-4.4-14.5-19.9-7.9-36.1s25.2-24,41.4-17.4c9.4,3.8,16.2,5.8,18.8,14.8-16-5.7-53.2,15.8-52.3,38.7Z"/></g><g><path class="t" d="M185.6,237.88c14.6,8.7,12.1-.7,10.8-5.3-1.3-4.7-6-22.1-3.2-24.2,2.8-2.1,13.9,3.5,24.9,8.9s15.9,4.2,13.5-6c-1.7-7.4-5.5-25.2-14.9-47.6-2,7.5-6.3,16.8-12.6,24.2-14.9,17.5-39.7,29.8-56.8,24.1,14.5,11.4,30.2,21,38.3,25.9Z"/><path class="ae" d="M147.3,211.78c17.1,5.8,41.8-6.5,56.8-24.1,6.3-7.4,10.6-16.7,12.6-24.2-1.9-4.5-4-9.1-6.3-13.9-.6,7.8-5.5,20.8-13.7,30.5-15.7,18.5-42.5,31.1-59.5,22.9h0c3.2,3.1,6.6,6,10.1,8.8Z"/><path class="t" d="M137.2,203.08c17,8.2,43.7-4.4,59.5-22.9,8.2-9.6,13.1-22.7,13.7-30.5-2-4-4.1-8.1-6.4-12.3-22-39.5-43.3-52.4-70.1-59.8,.5,14.6,.4,16.9-5.8,21.6-6.3,4.7-9.4,5.5-20.4-2.6-9.8,41.6,2,67.5,11.8,85.4,3.9,7,10.3,14.3,17.7,21.1h0Zm.7-20.3c-16.7-3.7-27.2-20.2-23.5-36.9s20.2-27.2,36.9-23.5,27.2,20.2,23.5,36.9c-3.7,16.7-20.2,27.2-36.9,23.5Z"/></g><path class="ar" d="M185.6,237.88c-7.8-4.6-22.5-13.6-36.4-24.5-5.9-4.6-11.6-9.5-16.6-14.6-5.4-5.5-10-11.2-13.1-16.8,33.6,29.2,88.7-15.2,47.7-60.5,5-7.1,8.4-14.4,8.5-21.7,9.6,8.8,18.9,20.8,28.3,37.7,19,34.2,25.3,63.7,27.6,73.8,2.3,10.2-2.5,11.4-13.5,6s-22.1-11-24.9-8.9c-2.8,2.1,2,19.5,3.2,24.2,1.3,4.6,3.8,14-10.8,5.3Z"/><path class="al" d="M138.5,184.48c-18.6-4.1-30.4-22.6-26.3-41.3,4.1-18.6,22.6-30.4,41.3-26.3,18.6,4.1,30.4,22.6,26.3,41.3-4.2,18.7-22.7,30.5-41.3,26.3Zm1.6-7.2c14.7,3.3,29.2-6,32.5-20.7s-6-29.2-20.7-32.5-29.2,6-32.5,20.7c-3.3,14.7,6,29.3,20.7,32.5Z"/><path class="ae" d="M137.4,185.18c-18.6-4.1-30.4-22.6-26.3-41.3,4.1-18.6,22.6-30.4,41.3-26.3,18.6,4.1,30.4,22.6,26.3,41.3-4.2,18.7-22.7,30.4-41.3,26.3Zm1.6-7.2c14.6,3.3,29.2-6,32.5-20.7s-6-29.2-20.7-32.5c-14.6-3.3-29.2,6-32.5,20.7s6,29.3,20.7,32.5Z"/><g><g class="bh"><path class="ar" d="M204.3,141.08c3.6,13.1-.5,16.2-6.1,17.9s-12-3.7-14.3-11.9c-2.2-8.2,.5-16.2,6.1-17.9,5.7-1.7,10.7-1.2,14.3,11.9Z"/></g><g class="bg"><path class="ae" d="M201.7,143.68c2.8,10-.8,15.1-6.4,16.7-5.6,1.6-11.9-3.2-13.9-10.8-2.1-7.6,.8-15.1,6.4-16.7,5.6-1.6,11.5,2.1,13.9,10.8Z"/></g></g><g><g class="bf"><path class="t" d="M182.1,191.88c68.1-47.1,77.6-90.6,71.8-138.9-3-25.1-47-21-45.7,10,2.5,57.5-23.1,58.7-57.5,87.9-18.3,15.5,5,59.2,31.4,41Z"/></g><g class="bm"><path class="ar" d="M183.7,154.18c1.1-5.1,1.8-.6,7.6-4.2,5.3-3.3,32.4-22.3,41.4-37.5,4.8-8-.5-12.4,.8-8.5,1.3,4,3.4-22.9,3.2-23.2-.2-.3,19.6,34.3,19.6,34.3,0,0-38.1,55.2-38.7,56.4-.6,1.2-26.3-1.8-26.1-1.3,.3,.4-7.8-16-7.8-16Z"/></g></g></g></g><g><path class="x" d="M175.1,105.88c-1.3,1.5-3.6,1.6-5,.3-1.5-1.3-1.6-3.6-.3-5,1.3-1.5,3.6-1.6,5-.3,1.5,1.2,1.6,3.5,.3,5Zm-4.6-4.2c-.9,1.1-.9,2.7,.2,3.7,1.1,1,2.7,.9,3.6-.2,.9-1.1,.9-2.7-.2-3.6-1-1-2.7-.9-3.6,.1Z"/><path class="x" d="M176.4,69.68c-1.3-1.1-3.2-1-4.3,.2-1.1,1.3-1,3.2,.2,4.3,1.3,1.1,3.2,1,4.3-.2,1.2-1.2,1-3.2-.2-4.3Z"/><path class="x" d="M165.1,84.28c-2.6-2.3-6.6-2.1-8.9,.5-2.3,2.6-2.1,6.6,.5,8.9s6.6,2.1,8.9-.5c2.3-2.6,2.1-6.6-.5-8.9Z"/><path class="x" d="M152.1,54.38c-1.3-1.1-3.2-1-4.3,.2-1.1,1.3-1,3.2,.2,4.3,1.3,1.1,3.2,1,4.3-.2,1.2-1.3,1.1-3.2-.2-4.3Z"/><path class="x" d="M175.5,113.88c-1.8,2-4.9,2.2-6.9,.4-2-1.8-2.2-4.9-.4-6.9s4.9-2.2,6.9-.4c2,1.8,2.2,4.9,.4,6.9Zm-6.5-5.9c-1.4,1.6-1.3,4,.3,5.5,1.6,1.4,4.1,1.3,5.5-.3,1.4-1.6,1.3-4.1-.3-5.5-1.6-1.4-4.1-1.3-5.5,.3Z"/><path class="x" d="M161.2,89.28c-1.8,2-4.9,2.2-6.9,.4-2-1.8-2.2-4.9-.4-6.9s4.9-2.2,6.9-.4c2,1.9,2.2,4.9,.4,6.9Zm-6.5-5.8c-1.4,1.6-1.3,4.1,.3,5.5s4.1,1.3,5.5-.3c1.4-1.6,1.3-4-.3-5.5-1.6-1.4-4.1-1.3-5.5,.3Z"/><path class="x" d="M182.2,68.58c-2.7,3-7.4,3.3-10.4,.6-3-2.7-3.3-7.4-.6-10.4s7.4-3.3,10.4-.6c3,2.7,3.3,7.3,.6,10.4Zm-10.3-9.2c-2.3,2.6-2.1,6.7,.5,9,2.6,2.4,6.7,2.1,9-.5s2.1-6.7-.5-9c-2.6-2.4-6.7-2.1-9,.5Z"/><path class="x" d="M158.5,65.88c-3.5,3.9-9.6,4.3-13.5,.8s-4.3-9.6-.8-13.5,9.6-4.3,13.5-.8c4,3.5,4.3,9.6,.8,13.5Zm-13.5-12.1c-3.2,3.5-2.8,9,.7,12.1,3.5,3.2,9,2.9,12.1-.7,3.2-3.5,2.8-9-.7-12.1-3.5-3.1-9-2.8-12.1,.7Z"/><path class="x" d="M174.1,34.28c-.5-.4-1.2-.4-1.6,.1-.4,.5-.4,1.2,.1,1.6,.5,.4,1.2,.4,1.6-.1,.4-.5,.4-1.2-.1-1.6Z"/><path class="x" d="M176.5,38.48c-1.3,1.4-3.5,1.6-4.9,.3s-1.6-3.5-.3-4.9,3.5-1.6,4.9-.3c1.4,1.2,1.6,3.5,.3,4.9Zm-5-4.4c-1.2,1.3-1,3.3,.3,4.4,1.3,1.2,3.3,1,4.4-.2,1.2-1.3,1-3.3-.3-4.4-1.2-1.2-3.2-1.1-4.4,.2Z"/><path class="x" d="M174.3,12.78c-2.1,2.4-5.7,2.6-8.1,.5-2.4-2.1-2.6-5.7-.5-8.1s5.7-2.6,8.1-.5c2.4,2.1,2.6,5.7,.5,8.1Zm-8.1-7.3c-1.9,2.1-1.7,5.4,.4,7.3,2.1,1.9,5.4,1.7,7.3-.4,1.9-2.1,1.7-5.4-.4-7.3-2.2-1.9-5.5-1.7-7.3,.4Z"/><path class="x" d="M168.3,6.38c-1.4,1.6-3.8,1.7-5.4,.3-1.6-1.4-1.7-3.8-.3-5.4s3.8-1.7,5.4-.3c1.6,1.4,1.7,3.8,.3,5.4Z"/><path class="x" d="M152.8,30.28c-2.2-2.3-2-6,.3-8.2s6-2,8.2,.3,2,6-.3,8.2-6,2.1-8.2-.3Zm8.2-7.6c-2-2.2-5.4-2.3-7.5-.3-2.2,2-2.3,5.4-.3,7.5,2,2.2,5.4,2.3,7.5,.3,2.2-1.9,2.3-5.3,.3-7.5Z"/><path class="x" d="M160.4,26.08c.8-.8,.9-2.1,.1-2.9-.8-.8-2.1-.9-2.9-.1-.8,.8-.9,2.1-.1,2.9,.8,.8,2.1,.9,2.9,.1Z"/></g></g><g><g><path class="ag" d="M622.2,650.78c-.1-12.1-10-21.8-22-21.8s-21.9,9.7-22,21.8c-.1,12.2,9.7,22.2,22,22.2,12.3,0,22.1-10,22-22.2Z"/><path class="ag" d="M691.4,650.78c-.1-12.1-10-21.8-22-21.8s-21.9,9.7-22,21.8c-.1,12.2,9.7,22.2,22,22.2,12.2,0,22.1-10,22-22.2Z"/><path class="ag" d="M622.2,706.98c-.1-12.1-10-21.8-22-21.8s-21.9,9.7-22,21.8c-.1,12.2,9.7,22.2,22,22.2s22.1-10,22-22.2Z"/><path class="ag" d="M691.4,706.98c-.1-12.1-10-21.8-22-21.8s-21.9,9.7-22,21.8c-.1,12.2,9.7,22.2,22,22.2,12.2,0,22.1-10,22-22.2Z"/></g><g><g><path class="t" d="M842.8,650.78c-.1-12.1-10-21.8-22-21.8s-21.9,9.7-22,21.8c-.1,12.2,9.7,22.2,22,22.2,12.3,0,22.2-10,22-22.2Z"/><g><polygon class="av" points="820.9 641.58 816 649.58 811.1 641.58 820.9 641.58"/><polygon class="av" points="830.6 641.58 825.7 649.58 820.9 641.58 830.6 641.58"/><polygon class="aw" points="825.7 649.58 820.9 664.38 816 649.58 825.7 649.58"/><polygon class="av" points="816 649.58 820.9 664.38 806.2 649.58 816 649.58"/><polygon class="as" points="835.5 649.58 820.9 664.38 825.7 649.58 835.5 649.58"/><polygon class="au" points="816 649.58 820.9 641.58 825.7 649.58 816 649.58"/><polygon class="aw" points="825.7 649.58 830.6 641.58 835.5 649.58 825.7 649.58"/><polygon class="au" points="806.2 649.58 811.1 641.58 816 649.58 806.2 649.58"/></g></g><g><path class="t" d="M911.9,650.78c-.1-12.1-10-21.8-22-21.8s-21.9,9.7-22,21.8c-.1,12.2,9.7,22.2,22,22.2,12.2,0,22.1-10,22-22.2Z"/><g><polygon class="ao" points="889.9 641.58 885 649.58 880.1 641.58 889.9 641.58"/><polygon class="ao" points="899.6 641.58 894.8 649.58 889.9 641.58 899.6 641.58"/><polygon class="v" points="894.8 649.58 889.9 664.38 885 649.58 894.8 649.58"/><polygon class="u" points="885 649.58 889.9 664.38 875.3 649.58 885 649.58"/><polygon class="w" points="904.5 649.58 889.9 664.38 894.8 649.58 904.5 649.58"/><polygon class="ap" points="885 649.58 889.9 641.58 894.8 649.58 885 649.58"/><polygon class="v" points="894.8 649.58 899.6 641.58 904.5 649.58 894.8 649.58"/><polygon class="ap" points="875.3 649.58 880.1 641.58 885 649.58 875.3 649.58"/></g></g><g><path class="t" d="M877.4,706.28c-.1-12.1-10-21.8-22-21.8s-21.9,9.7-22,21.8c-.1,12.2,9.7,22.2,22,22.2,12.3,.1,22.1-10,22-22.2Z"/><g><polygon class="am" points="855.4 697.18 850.5 705.18 845.7 697.18 855.4 697.18"/><polygon class="am" points="865.2 697.18 860.3 705.18 855.4 697.18 865.2 697.18"/><polygon class="ah" points="860.3 705.18 855.4 719.98 850.5 705.18 860.3 705.18"/><polygon class="am" points="850.5 705.18 855.4 719.98 840.8 705.18 850.5 705.18"/><polygon class="af" points="870 705.18 855.4 719.98 860.3 705.18 870 705.18"/><polygon class="a`" points="850.5 705.18 855.4 697.18 860.3 705.18 850.5 705.18"/><polygon class="ah" points="860.3 705.18 865.2 697.18 870 705.18 860.3 705.18"/><polygon class="a`" points="840.8 705.18 845.7 697.18 850.5 705.18 840.8 705.18"/></g></g></g></g><g class="b`"><line class="s" x1="506" y1="513.98" x2="506" y2="513.98"/><line class="r" x1="506" y1="526.78" x2="506" y2="787.98"/><line class="s" x1="506" y1="794.38" x2="506" y2="794.38"/></g><path class="ab" d="M600.3,628.98c-12,0-21.9,9.7-22,21.8-.1,9.5,5.9,17.7,14.4,20.9h0l15.1-41.3h0c-2.4-.9-4.9-1.4-7.5-1.4Zm69.1,0c-12,0-21.9,9.7-22,21.8-.1,9.5,5.9,17.7,14.4,20.9h0l15.1-41.3h0c-2.4-.9-4.9-1.4-7.5-1.4Zm-69.1,56.2c-12,0-21.9,9.7-22,21.8-.1,9.5,5.9,17.7,14.4,20.9h0l15.1-41.3h0c-2.4-.9-4.9-1.4-7.5-1.4Zm69.1,0c-12,0-21.9,9.7-22,21.8-.1,9.5,5.9,17.7,14.4,20.9h0l15.1-41.3h0c-2.4-.9-4.9-1.4-7.5-1.4Zm151.5-56.2c-12,0-21.9,9.7-22,21.8-.1,9.5,5.9,17.7,14.4,20.9h0l15.1-41.3h0c-2.4-.9-4.9-1.4-7.5-1.4Zm69,0c-12,0-21.9,9.7-22,21.8-.1,9.5,5.9,17.7,14.4,20.9h0l15.1-41.3h0c-2.4-.9-4.9-1.4-7.5-1.4Zm-34.4,55.6c-12,0-21.9,9.7-22,21.8-.1,9.5,5.9,17.7,14.4,20.9h0l15.1-41.3h0c-2.4-1-4.9-1.4-7.5-1.4Zm-517.2-53.7h0l-29.1,75.2h0c-15.2-5.7-25.8-20.5-25.2-37.8,.7-21.9,18.9-39.6,40.8-39.8,4.7,.1,9.3,.9,13.5,2.4Zm-242-2.3c-21.8,0-40.3,17.6-41.2,39.6-.7,17.3,9.7,32.3,25,38h0l29.7-75.1h0c-4.2-1.7-8.7-2.5-13.5-2.5Zm113.9,0c-21.8,.3-39.8,18.1-40.1,40.2-.2,17.6,10.9,32.5,26.6,37.8h0l26.8-75.8h0c-4.1-1.5-8.6-2.3-13.3-2.2Zm228.6,3.1c-21.8,0-39.8,17.6-40,39.6-.2,17.4,10.7,32.3,26.1,38v-.1l27.4-75.1h0c-4.2-1.6-8.7-2.4-13.5-2.4Z"/><path class="aa" d="M341.161,667.557c.238,.927,2.285,5.015,2.646,9.425,1.216,1.255,3.579,3.807,4.519,4.976,.497,.635,.417,1.074-.395,.954-1.278-.177-3.455-.765-4.569-1.14-.211,.711-.518,1.403-.914,2.06-.165,.29-.451,.661-.451,.661v.006c-.193,.255-.399,.51-.629,.759-.152,.171-.312,.318-.493,.473-.359,.334-.999,.699-.999,.699-.118,.098-.288,.185-.49,.266-2.374,1.179-5.643,1.423-8.189,.221-.152-.06-.286-.12-.406-.201,0,0-.072-.037-.191-.113-.012-.002-.04-.018-.061-.029-.105-.061-.233-.143-.355-.234-.008,0-.016-.013-.016-.013-.08-.05-.156-.111-.237-.164h.016c-.436-.33-.837-.72-1.185-1.178h-.009s-.268-.353-.399-.588c-.048-.081-.1-.158-.145-.247-.452-.817-.768-1.662-.964-2.517-1.273,.457-3.036,1.063-4.055,1.19-.273,.028-.624-.396-.318-.779,.703-.902,2.451-2.644,3.828-4.058,.11-.499,.287-.975,.532-1.43,.853-4.401,3.558-8.26,4.524-9.398l.93,1.897,3.318-3.679,3.443,3.848,1.715-1.668Zm-6.776,28.508c.011,.22,.728,.343,1.609,.277,.873-.056,1.578-.287,1.568-.503-.006-.22-.733-.342-1.61-.283-.877,.065-1.583,.29-1.567,.509Zm3.828-.184c.02,.342-.968,.694-2.21,.784-1.226,.09-2.244-.12-2.264-.461-.016-.358,.964-.703,2.206-.797,1.239-.087,2.249,.117,2.268,.473Zm-2.322-1.579c1.375-.105,2.481-.457,2.46-.802-.01-.339-1.144-.53-2.524-.432-1.376,.1-2.476,.459-2.459,.799,.009,.336,1.147,.531,2.522,.436Zm.024,.507c-1.94,.139-3.534-.194-3.565-.739-.02-.546,1.526-1.103,3.467-1.247,1.932-.135,3.535,.192,3.561,.746,.026,.547-1.525,1.1-3.463,1.24Zm-3.502-4.077c.024,.443,1.509,.707,3.322,.576,1.817-.132,3.272-.608,3.245-1.051-.02-.448-1.509-.707-3.322-.579-1.813,.135-3.267,.601-3.245,1.053Zm3.231-1.365c2.548-.188,4.652,.245,4.686,.968,.037,.716-2.005,1.453-4.56,1.63-2.553,.189-4.65-.25-4.684-.963-.036-.722,2.001-1.458,4.558-1.635Zm-15.968-5.774c-.066-2.022-.564-4.077-1.564-5.723-2.422-3.991-4.194-3.602-3.829-6.073-3.766,1.106-7.575,3.391-9.589,7.513-.634,1.291-1.132,3.067-1.231,4.923-3.419,.81-4.841,3.19-5.177,5.338-.198,1.264,2.154,1.631,2.447,.715,.477-1.465,1.022-3.179,2.82-3.854,.144,1.054,.44,2.084,.949,3.022,.548,1.005,1.31,1.785,2.189,2.35,.692,.38,2.221,.582,3.861,.636l-.004,.136c-.223,.015-.423,.025-.597,.041-.476,.046-.787,.092-.792,.362-.007,.274,.3,.325,.773,.361,.17,.011,.372,.026,.595,.033l-.005,.244c-.223,.006-.423,.021-.598,.032-.476,.05-.785,.095-.793,.368-.007,.268,.301,.315,.774,.356,.169,.018,.374,.026,.595,.034l-.006,.241c-.222,.016-.422,.02-.597,.041-.476,.042-.787,.09-.793,.36-.007,.273,.301,.325,.774,.362,.17,.014,.374,.019,.596,.032l-.007,.237c-.223,.012-.422,.028-.596,.039-.476,.044-.786,.097-.795,.358-.006,.275,.302,.327,.776,.364,.169,.014,.351,.029,.569,.034-.215,.149-.378,.359-.472,.61-1.607,.273-2.783,.996-2.791,1.282,0,0-.007,.305-.012,.482-.01,.35,1.794,.638,4.031,.635,2.241-.001,4.058-.293,4.068-.641,.009-.369,.012-.484,.012-.484,.006-.255-.921-.87-2.292-1.191,.289-.15,.47-.347,.477-.577,.005-.198-.131-.369-.346-.508,.222-.144,.367-.319,.371-.527,.005-.195-.13-.37-.345-.512,.223-.144,.367-.31,.371-.521,.006-.203-.13-.37-.345-.511,.222-.141,.366-.32,.371-.519,.005-.205-.13-.373-.345-.512,.222-.141,.366-.317,.371-.521,0-.031-.006-.065-.008-.092,1.024-.088,1.887-.239,2.32-.451,.685-.361,1.283-.809,1.767-1.322,.925-.987,1.559-2.503,1.856-4.209,1.982,1.418,1.956,2.483,1.827,4.985-.067,1.376,2.568,1.778,2.679,.229,.353-4.978-1.723-6.357-4.311-8.003Zm-7.509,8.844c.29-.009,.58-.024,.856-.04,.025,.022,.041,.043,.046,.061-.024,.071-.192,.171-.475,.269-.138-.038-.282-.065-.433-.095l.006-.196Zm.126,4.485c-.055-.122-.136-.23-.233-.323l.004-.18c.154-.027,.299-.056,.434-.104,.274,.102,.441,.209,.468,.275-.031,.089-.276,.229-.673,.331Zm.223-1.091c-.138-.044-.282-.068-.433-.095l.009-.358c.153-.019,.299-.053,.432-.095,.276,.092,.442,.211,.475,.272-.032,.073-.2,.178-.483,.275Zm.026-1.032c-.138-.044-.282-.074-.433-.104l.009-.351c.151-.024,.298-.053,.433-.092,.274,.092,.442,.201,.474,.275-.033,.066-.201,.172-.483,.272Zm.025-1.033c-.137-.039-.281-.072-.432-.1l.009-.349c.153-.028,.298-.052,.433-.094,.274,.095,.441,.199,.474,.27-.03,.065-.201,.179-.484,.273Zm.209-49.08l-.107,4.192c.012,0,.029,.007,.042,.007l1.61-2.648c.049,.053,.09,.114,.139,.172,.004,.014,.015,.031,.02,.038,.051,.063,.094,.121,.137,.185,.005,.007,.011,.024,.026,.029,.04,.056,.077,.118,.115,.177,.012,.012,.019,.018,.032,.032,.043,.064,.085,.14,.125,.203,.015,.016,.022,.032,.028,.046,.045,.066,.092,.13,.127,.204,.005,.006,.006,.013,.013,.013,.047,.076,.092,.153,.133,.232,.005,.013,.019,.034,.036,.052,.035,.079,.081,.151,.122,.23,.006,.014,.014,.026,.021,.031,.039,.075,.075,.152,.113,.227,.004,.011,.018,.034,.024,.051,.049,.08,.092,.161,.127,.25,.013,.019,.018,.034,.026,.055,.041,.08,.073,.157,.116,.236,.005,.01,.009,.025,.015,.039,.044,.084,.082,.176,.124,.27,.004,.018,.015,.037,.025,.065,.045,.087,.078,.176,.125,.276,0,.007,.004,.021,.004,.027,.035,.088,.074,.176,.11,.261,.009,.03,.015,.047,.028,.072,.034,.096,.076,.193,.109,.296,.007,.012,.012,.031,.022,.057,.029,.086,.066,.18,.098,.271,.006,.012,.011,.025,.016,.044,.034,.099,.072,.205,.102,.306,.007,.009,.014,.023,.013,.036,.524,1.604,.896,3.435,.972,5.35,1.829-.859,4.467-2.114,5.031-2.406,.271-.145,.529-.167,.733-.106,10.607-6.576,11.261-6.92,11.419-6.745,.155,.178-.412,.392-10.847,7.271,.127,.351,.056,.762-.344,1.039-.546,.379-4.123,2.446-6.07,3.561-.074,.689-.194,1.374-.364,2.053-.081,.313-.156,.616-.237,.902,.556,.156,1.147,.242,1.751,.239l20.059-.079c3.488-.013,6.387-2.852,6.45-6.329l.2-10.956c.062-3.451-2.718-6.242-6.188-6.222l-19.953,.114c-3.459,.019-6.338,2.836-6.425,6.279Zm-6.576,2.437q0-.007,.008-.014c.027-.047,.063-.091,.09-.135,.011-.023,.018-.036,.032-.049,.024-.035,.042-.066,.063-.1,.008-.014,.02-.031,.028-.044,.029-.036,.042-.063,.062-.085,.016-.022,.02-.033,.034-.048,.018-.034,.04-.061,.061-.091,.007-.015,.022-.03,.028-.044,.033-.035,.062-.079,.089-.125l1.657,2.553c.042-.01,.074-.014,.114-.028,.015-.002,.027-.001,.038-.008,.037-.009,.061-.009,.088-.014,.02-.003,.035-.003,.051-.004,.029-.01,.056-.014,.077-.022,.017,0,.04,0,.06-.009,.026,0,.051-.005,.068-.011,.024-.002,.048-.008,.072-.008,.019-.001,.043-.006,.069-.012,.021,0,.047,0,.066-.012,.023,0,.055-.005,.08-.005,.023-.004,.041-.004,.061-.013,.027,0,.057-.004,.08-.004,.026,0,.046-.008,.067-.008,.024,0,.059-.006,.084-.007,.021-.009,.043-.008,.062-.008,.03-.008,.059-.008,.086-.008,.024-.007,.047-.007,.066-.007,.031-.008,.062-.007,.093-.008,.018-.007,.04-.007,.061-.008,.031,0,.066-.006,.104-.006,.012,0,.034-.001,.054-.006,.044,0,.098-.001,.154-.006,.018,0,.037-.002,.059-.002h.094c.023-.006,.045-.006,.071-.006,.025-.001,.059,0,.089-.003h.072c.021,0,.05-.005,.08-.005,.024-.002,.051-.002,.078-.002,.025,0,.051,0,.081,0h.027c.023-.002,.047-.002,.058-.001h.054c.03,0,.065,0,.099,0,.01,.006,.023,.007,.044,.005,.033,0,.065,.001,.1-.001h.044c.044,0,.08,.009,.122,.01,.007-.003,.013,0,.02-.002,.046,0,.089,0,.138,.007h.011c.049,0,.085,.005,.129,.004,.014,0,.023,.007,.034,.007,.016,0,.025,0,.039-.002l.106-4.039c.103-4,3.457-7.269,7.468-7.292l19.949-.115c4.034-.023,7.257,3.216,7.186,7.226l-.197,10.952c-.072,4.04-3.433,7.347-7.491,7.362l-20.063,.075c-.7,.004-1.368-.089-2-.271-.817,2.799-1.505,4.168-2.235,6.495-.211,.677-.405,1.014-.613,1.022h-.053s-.016-.005-.021-.005c0-.011-.016-.011-.022-.011-.008-.006-.015-.006-.022-.015-.007,0-.013-.008-.018-.008-.004-.008-.012-.016-.017-.016-.008-.008-.015-.007-.02-.013-.016,0-.022-.013-.031-.02-.005,0-.008-.006-.013-.016-.008-.008-.013-.027-.02-.033-.006-.005-.017-.005-.025-.009-.013-.007-.018-.025-.023-.032-.005-.007-.009-.022-.019-.03-.006-.01-.018-.012-.028-.018-.006-.017-.015-.025-.019-.039-.006-.009-.017-.024-.024-.033-.006-.006-.012-.014-.019-.03-.014-.016-.023-.031-.03-.046-.006-.005-.012-.011-.02-.035-.007-.007-.012-.03-.022-.045-.004-.005-.02-.019-.026-.033-.007-.019-.013-.042-.023-.047-.006-.011-.012-.029-.019-.051-.013-.017-.022-.027-.028-.041-.015-.022-.02-.039-.024-.064-.01,0-.017-.021-.022-.048-.015-.026-.024-.029-.029-.049-.014-.025-.026-.048-.029-.065-.005-.014-.013-.028-.02-.056-.022-.023-.041-.079-.057-.113-.306-.726-1.072-2.335-1.693-2.839-.013-.016-.024-.021-.031-.034-.01,0-.017-.008-.025-.009-.005-.002-.022-.01-.033-.016-.005-.007-.014-.006-.018-.016,0,0-.018-.007-.033-.015-.009-.009-.015-.01-.028-.01-.007-.004-.016-.007-.031-.015-.013,0-.022,0-.031-.007-.013-.003-.023-.003-.035-.01-.007,0-.019-.007-.028-.008-.015-.009-.027-.009-.042-.014-.01,0-.022-.01-.031-.01-.022-.008-.034-.008-.046-.013-.011,0-.025,0-.033-.005-.016,.003-.033-.002-.046-.003-.01,0-.02-.011-.034-.011-.014,.002-.033-.002-.051-.003-.004,0-.021-.002-.035-.002-.014,0-.031-.009-.052-.007-.006,0-.021-.007-.035-.007-.014,0-.031,0-.05-.009h-.037c-.016-.007-.038-.008-.058-.008-.008,0-.024,.002-.035,.001-.014-.011-.037-.009-.054-.009-.013,0-.022,0-.029-.008-.02,0-.05,0-.069,0h-.025c-.027,0-.048,0-.064,0-.015,0-.019-.008-.029-.009-.028,0-.052,0-.08,0h-.015c-.02,0-.031,0-.042,0-.013,0-.03,0-.046,0-.01,0-.027,.011-.042,.01-.013-.001-.03-.001-.039-.002h-.08c-.015,.002-.032,.008-.048,.01h-.038c-.014,.007-.026,.007-.043,.007-.014,0-.024,.001-.038,.001-.007,.006-.018,.006-.032,.009-.017,0-.031,0-.043,.008h-.032c-.016,.007-.03,.006-.042,.006-.005,0-.019,.008-.031,.008-.013,0-.021,.003-.037,.003-.012,0-.017,.004-.03,.004-.013,0-.02,0-.037,.01-.007,0-.02,.005-.024,.005-.012,0-.02,.004-.034,.004-.006,0-.02,.006-.03,.007-.006,.007-.017,.007-.025,.016-.012,0-.018,0-.025,.007-.007,0-.017,.009-.032,.009-.006,.009-.012,.009-.016,.015-.007,0-.013,.003-.02,.002-.009,.007-.014,.007-.022,.015-.007,0-.023,.003-.022,.006,0,0-.013,0-.013,.01-.012,.01-.018,.017-.025,.026-.499,.479-1.352,2.039-1.813,2.916-.022,.032-.043,.081-.063,.112-.008,.016-.014,.027-.021,.041-.015,.019-.027,.049-.04,.07-.008,.016-.017,.029-.022,.033-.014,.031-.028,.059-.042,.072-.008,.01-.014,.025-.019,.032-.016,.041-.036,.058-.052,.082q-.006,.008-.006,.014c-.021,.03-.043,.049-.056,.083-.006,.014-.014,.022-.022,.027-.013,.013-.027,.031-.039,.045,0,.017-.016,.022-.017,.031-.01,.004-.027,.026-.039,.043-.006,.008-.006,.015-.012,.023-.02,.014-.036,.023-.055,.039v.008c-.337,.323-.604,.099-.854-.751-.015-.063-.096-.366-.214-.809-.969,.447-2.055,.752-3.162,.892-.014,0-.026,0-.034,.009h-.019c-.1,.014-.202,.015-.309,.026-.019,0-.032,.001-.052,.007h-.009s-.009,0-.018,0c-.084,.008-.177,.016-.272,.028h-.026c-.141,.016-.266,.023-.425,.024h-.005q-.01,0-.014,0h-.019c-.082,.006-.155,.007-.233,.006h-.032c-.074,0-.15,0-.223-.006-.01,0-.025,0-.039,.001-.059,0-.113,0-.174,0-.018-.006-.044-.007-.072-.007-.046,.001-.092-.008-.13-.008-.034,0-.059,0-.086-.005-.047,.001-.087,.001-.127-.01-.032,0-.061,0-.092-.008-.04,.001-.078-.007-.117-.015-.025,0-.06,0-.088-.009-.047,0-.085-.001-.126,0-.034,0-.056-.005-.087-.006-.043-.008-.09-.018-.129-.026-.03,0-.047-.004-.074-.005-.067-.016-.133-.023-.204-.041-.014,0-.024,0-.049,0-.097-.015-.176-.037-.237-.063-.109-.03-.162-.091-.158-.198,.002-.112,.061-.272,.168-.504,.311-.716,.703-1.376,1.149-1.963,.08-.161,.23-.305,.387-.471,.039-.042,.08-.097,.129-.139,0-.015,.016-.015,.016-.022,1.033-1.12,2.31-1.929,3.681-2.391-.217-.832-.398-1.487-.46-1.749-1.257,1.508-2.831,3.41-3.186,3.876-.747,.973-2.075,.071-1.502-.896,.336-.578,2.73-3.981,4.022-5.813,.002-.045-.008-.096-.007-.138h-.007v-.035c-.005-.028-.004-.065-.009-.092-.008-.061-.012-.11-.02-.16,.001-.038,.002-.073-.004-.103-.003-.047-.002-.109-.008-.148,.002-.044-.002-.067-.009-.113,.001-.05-.003-.107-.002-.17-.004-.024-.003-.053-.003-.081-.005-.081-.002-.16-.007-.239,0-.03,0-.061,.002-.074,.002-.07-.005-.131-.002-.189,0-.033-.004-.062-.002-.102,0-.041,.003-.096,.004-.15l.003-.105c.002-.053,.003-.097,.005-.15,0-.041,.002-.068,.003-.1,.001-.056,.003-.125,.01-.178,0-.031,.002-.053,.002-.082,.01-.082,.013-.168,.014-.247,.008-.023,.008-.051,.01-.079,.001-.059,.009-.118,.011-.171,.007-.032,.007-.068,.008-.097,.007-.054,.009-.108,.019-.16,.005-.035,.005-.064,.006-.1,.009-.052,.011-.108,.019-.159,.006-.031,.008-.068,.018-.1,.006-.053,.019-.11,.02-.169,.006-.024,.006-.056,.015-.072,.009-.089,.022-.167,.029-.252,0-.023,.01-.05,.01-.074,.017-.059,.024-.117,.031-.171,.009-.034,.01-.064,.016-.103,.009-.049,.017-.097,.025-.153l.022-.098c.006-.053,.016-.101,.022-.151,.01-.032,.018-.066,.027-.098,.006-.054,.02-.115,.027-.17,.007-.031,.016-.047,.016-.074,.022-.08,.039-.158,.054-.237,.006-.031,.015-.055,.019-.08,.011-.052,.024-.107,.039-.16,.01-.033,.016-.064,.023-.1,.012-.052,.023-.099,.038-.147,.006-.03,.016-.063,.022-.097,.006-.056,.024-.101,.039-.146,.008-.035,.012-.066,.02-.097,.015-.053,.04-.115,.053-.173,.007-.019,.008-.043,.016-.06,.02-.079,.044-.158,.065-.23,.006-.027,.015-.054,.023-.081,.013-.052,.026-.099,.043-.153,.015-.033,.02-.058,.029-.092,.013-.048,.026-.094,.042-.145,.015-.029,.02-.061,.029-.084,.014-.053,.034-.101,.051-.149,.007-.024,.016-.059,.031-.084,.014-.061,.035-.116,.056-.173,0-.022,.007-.032,.017-.055,.026-.068,.048-.144,.077-.217,.01-.024,.013-.048,.023-.071,.021-.053,.04-.1,.054-.151,.011-.027,.023-.056,.032-.08,.02-.046,.033-.094,.049-.14,.016-.027,.027-.06,.035-.086,.015-.048,.037-.096,.051-.132,.014-.023,.029-.057,.036-.077,.021-.06,.04-.113,.066-.172,.004-.013,.013-.027,.017-.039,.029-.074,.055-.141,.088-.208,.006-.024,.014-.044,.024-.064,.017-.046,.04-.094,.058-.14,.009-.026,.02-.052,.036-.077,.013-.042,.033-.089,.058-.125,.008-.031,.018-.056,.034-.079,.013-.042,.036-.088,.058-.125,.004-.03,.022-.052,.026-.077,.03-.054,.051-.104,.078-.157,.005-.014,.012-.021,.012-.036,.029-.064,.064-.124,.092-.185,.016-.018,.021-.038,.029-.058,.02-.045,.04-.087,.063-.131,.013-.02,.022-.04,.036-.068,.019-.037,.04-.079,.059-.121,.01-.017,.022-.035,.04-.065,.011-.038,.032-.079,.056-.113,.011-.025,.019-.046,.031-.064,.031-.053,.055-.099,.084-.155,0-.007,.009-.01,.009-.014,.034-.057,.064-.116,.097-.168,.008-.018,.013-.039,.026-.051,.022-.042,.044-.08,.064-.111,.015-.022,.019-.043,.034-.062,.022-.04,.042-.074,.062-.105,.012-.021,.021-.04,.034-.059,.023-.036,.043-.068,.06-.099,.018-.023,.024-.04,.033-.053,.034-.048,.061-.093,.087-.141Zm-190.702,8.557c-.1,2.6-1.1,5-3,6.9-1.9,1.8-4.4,2.9-7,2.9-1.8,0-3.6-.5-5.1-1.5l-13.2,12.9,5.5,5.7-3.3,3.2-.4-.4h0l-2.7-2.8-1.7,1.7,3.1,3.2-3.3,3.2-5.5-5.7-.8,.8c-.4,.4-1,.6-1.6,.6s-1.1-.2-1.5-.6c-.4-.4-.6-1-.6-1.6s.3-1.1,.7-1.6l22.4-21.7c-1.1-1.8-1.5-3.9-1.3-6,.3-2.3,1.3-4.4,3-6,1.9-1.8,4.4-2.8,6.9-2.8,2.6,0,5,1,6.8,2.8,1.8,1.8,2.7,4.2,2.6,6.8Zm-6,3.8c1-1,1.6-2.4,1.7-3.8,0-1.4-.5-2.8-1.5-3.8s-2.3-1.6-3.7-1.6-2.8,.6-3.8,1.6-1.6,2.3-1.7,3.8c0,1.4,.5,2.8,1.5,3.8s2.3,1.6,3.7,1.6c1.4-.1,2.8-.6,3.8-1.6Zm94,5.4l16-.4c1.2,0,2.2-1,2.2-2.2l-.2-12.6c0-1.2-1-2.1-2.2-2.1l-33.1,.7c-1.2,0-2.2,1-2.2,2.2l-.1,12.7c0,1.2,1,2.2,2.2,2.1l9.6-.2,7.8,7.7v-7.9Zm15.8-16.3c.6,0,1.2,.5,1.2,1.1l.2,12.6c0,.6-.5,1.2-1.2,1.2l-17,.4v6.4l-6.4-6.3-10,.2c-.7,0-1.2-.5-1.2-1.1l.1-12.7c0-.6,.5-1.2,1.2-1.2l33.1-.6Zm4,23.6l-2.4,4c-1.7-.3-4.7-.4-6.3,.1l-2.3-4c-2.4,3.1-5.2,10-5.1,16.9,0,9.6,19.7,9.6,20.6,.2,.6-7.6-2.1-13.8-4.5-17.2Zm-76.9-414.1h0c-34.2-1.5-69,.8-103.4,6.9-5,.9-9.5,3.8-12.1,7.8-2.1,3.1-2.8,6.7-2.1,10.3l.8,3.3,7.2,29.8c1.7,6.5,7.6,11.1,14.6,11.4,1.2,.1,2.4,0,3.6-.2,30-5.2,59.1-7.1,88.7-5.8,17.7,.8,35.8,2.7,53.7,5.8,.7,.1,1.5,.2,2.2,.2,7.6,.3,14.1-4.4,16-11.5,2.6-11,5.3-22,7.9-33.1,.7-3.6,0-7.1-2.1-10.3-2.6-3.9-7.2-6.8-12.2-7.8-20.8-3.6-42-5.9-62.8-6.8m.2-3.1c21,.9,42.1,3.2,63.3,6.9,10.2,1.9,19,10.9,16.7,21.8-2.7,11.1-5.3,22.1-8,33.2-2.3,8.7-10.5,14.2-19.2,13.8-.9,0-1.7-.1-2.6-.3-17.9-3.1-35.6-5-53.3-5.8-29.3-1.3-58.5,.7-88,5.8-1.4,.3-2.9,.3-4.3,.3-8-.3-15.3-5.7-17.5-13.8-2.7-11.1-5.3-22.1-8-33.2-2.3-10.9,6.5-19.9,16.7-21.8,34.9-6.1,69.5-8.4,104.2-6.9h0Zm-72,29h-3.9l-4.4,5.3-4.3-5.3h-3.9v14.2h4.1v-8.2l3.9,4.7h.3l3.8-4.7v8.2h4.3l.1-14.2h0Zm18.2,4.3c-.3-.9-.8-1.7-1.5-2.3s-1.5-1.2-2.5-1.6-2.2-.6-3.5-.6c-1.7,0-3.2,.3-4.4,1s-2.1,1.6-2.7,2.7-.9,2.3-.9,3.6,.3,2.5,.9,3.6,1.5,2,2.7,2.7,2.7,1,4.4,1,3.2-.3,4.4-1c1.2-.7,2.1-1.5,2.7-2.6s.9-2.3,.9-3.6c.1-1.1-.1-2-.5-2.9Zm-4.2,4.7c-.3,.5-.7,1-1.3,1.3-.6,.3-1.2,.5-2,.5-1.1,0-2-.3-2.7-1s-1-1.5-1-2.6,.3-2,1-2.6,1.6-1,2.7-1c.6,0,1.1,.1,1.6,.3s.8,.4,1.2,.8c.3,.3,.6,.7,.7,1.1s.2,.9,.2,1.5c0,.5-.1,1.1-.4,1.7Zm21.6-3.9c-.2-.7-.5-1.3-.9-1.9s-.8-1-1.3-1.4c-.3-.2-.6-.5-.9-.7s-.8-.4-1.3-.6-1.1-.3-1.7-.4-1.4-.1-2.3-.1h-5.8v14.2h7.6c1.8,0,3.2-.4,4.3-1.2,.7-.5,1.3-1.3,1.9-2.1s.8-2,.8-3.5c0-.9-.2-1.6-.4-2.3Zm-5.2,5.4c-.8,.5-1.8,.8-2.9,.8h-1.8v-8.4h1.8c.6,0,1.3,.1,1.9,.3,.6,.2,1.1,.6,1.6,1.3,.4,.6,.7,1.5,.7,2.7-.1,1.6-.5,2.7-1.3,3.3Zm22.9-10.5h-4.3v6.7c0,.9-.1,1.7-.4,2.3-.3,.6-.6,1-1.1,1.3s-1,.4-1.7,.4-1.2-.1-1.7-.4-.9-.7-1.1-1.3c-.3-.6-.4-1.4-.4-2.3v-6.7h-4.2v7.8c0,1.6,.4,2.8,1.1,3.8s1.7,1.7,2.8,2.1c1.1,.4,2.3,.6,3.5,.6,.9,0,1.7-.1,2.6-.3s1.7-.6,2.4-1.1c.7-.5,1.3-1.2,1.8-2,.5-.9,.7-1.9,.7-3.1v-7.8Zm14.1,10.8h-6.5v-10.8h-4.3v14.2h10.8v-3.4Zm13.2,.5h-6.4v-3h5.9v-2.8h-5.9v-2.6h6.2v-2.8h-10.5v14.2h10.7v-3Zm14.1,5.4c-.5-.7-1-1.7-1.5-3-.4-1.2-.7-2.7-.7-4.3s.2-3,.7-4.3c.4-1.2,.9-2.3,1.5-3,.6-.8,1.2-1.5,2-2.4h-2.7c-.9,.7-1.6,1.5-2.4,2.2-.7,.8-1.4,1.8-2,3.1-.6,1.3-.9,2.7-.9,4.3,0,1.2,.2,2.4,.6,3.4s.9,2,1.5,2.8,1.1,1.5,1.7,2c.5,.5,1.1,1,1.6,1.4h2.7c-.9-.7-1.6-1.4-2.1-2.2Zm12.3-16.7h-4.7l-6.3,14.2h4.4l1.2-2.9h6.1l1.2,2.9h4.4l-6.3-14.2Zm-4.4,8.9l2.1-5.2,2.1,5.2h-4.2Zm17.1-3.8c-.6-1.3-1.3-2.4-2.1-3.2-.8-.8-1.5-1.5-2.2-2.1h-2.7c.8,.9,1.5,1.7,2,2.4,.5,.7,1,1.7,1.5,3,.4,1.2,.7,2.7,.7,4.3s-.2,3-.7,4.3c-.4,1.2-.9,2.3-1.5,3-.6,.8-1.2,1.6-2,2.4h2.7c.5-.4,1-.9,1.6-1.4,.5-.5,1.1-1.2,1.7-2,.6-.8,1.1-1.8,1.5-2.8,.4-1.1,.6-2.2,.6-3.4-.2-1.8-.5-3.2-1.1-4.5Zm-22,68.6c0-2.9-2.4-5.3-5.3-5.3H84.6c-2.9,0-5.3,2.4-5.3,5.3h0c0,2.9,2.4,5.3,5.3,5.3h82.4c2.9,0,5.3-2.3,5.3-5.3h0Zm-10.6,5.3H89.9v76.9h71.7l.1-76.9h0Zm238.2-104.9h0c-34.2-1.5-69,.8-103.4,6.9-5,.9-9.5,3.8-12.1,7.8-2.1,3.1-2.8,6.7-2.1,10.3l.8,3.3,7.2,29.8c1.7,6.5,7.6,11.1,14.6,11.4,1.2,.1,2.4,0,3.6-.2,30-5.2,59.1-7.1,88.7-5.8,17.7,.8,35.8,2.7,53.7,5.8,.7,.1,1.5,.2,2.2,.2,7.6,.3,14.1-4.4,16-11.5,2.6-11,5.3-22,7.9-33.1,.7-3.6,0-7.1-2.1-10.3-2.6-3.9-7.2-6.8-12.2-7.8-20.9-3.6-42-5.9-62.8-6.8m.1-3.1c21,.9,42.1,3.2,63.3,6.9,10.2,1.9,19,10.9,16.7,21.8-2.7,11.1-5.3,22.1-8,33.2-2.3,8.7-10.5,14.2-19.2,13.8-.9,0-1.7-.1-2.6-.3-17.9-3.1-35.6-5-53.3-5.8-29.3-1.3-58.5,.7-88,5.8-1.4,.3-2.9,.3-4.3,.3-8-.3-15.3-5.7-17.5-13.8-2.7-11.1-5.3-22.1-8-33.2-2.3-10.9,6.5-19.9,16.7-21.8,35-6.1,69.6-8.4,104.2-6.9h0Zm-71,29h-3.9l-4.4,5.3-4.3-5.3h-3.9v14.2h4.1v-8.2l3.9,4.7h.3l3.8-4.7v8.2h4.3v-14.2h.1Zm18.2,4.3c-.3-.9-.8-1.7-1.5-2.3s-1.5-1.2-2.5-1.6-2.2-.6-3.5-.6c-1.7,0-3.2,.3-4.4,1s-2.1,1.6-2.7,2.7-.9,2.3-.9,3.6,.3,2.5,.9,3.6,1.5,2,2.7,2.7,2.7,1,4.4,1,3.2-.3,4.4-1c1.2-.7,2.1-1.5,2.7-2.6s.9-2.3,.9-3.6c0-1.1-.2-2-.5-2.9Zm-4.3,4.7c-.3,.5-.7,1-1.3,1.3-.6,.3-1.2,.5-2,.5-1.1,0-2-.3-2.7-1s-1-1.5-1-2.6,.3-2,1-2.6,1.6-1,2.7-1c.6,0,1.1,.1,1.6,.3s.8,.4,1.2,.8c.3,.3,.6,.7,.7,1.1s.2,.9,.2,1.5c0,.5-.1,1.1-.4,1.7Zm21.7-3.9c-.2-.7-.5-1.3-.9-1.9s-.8-1-1.3-1.4c-.3-.2-.6-.5-.9-.7s-.8-.4-1.3-.6-1.1-.3-1.7-.4-1.4-.1-2.3-.1h-5.9v14.2h7.6c1.8,0,3.2-.4,4.3-1.2,.7-.5,1.3-1.3,1.9-2.1s.8-2,.8-3.5c0-.9-.1-1.6-.3-2.3Zm-5.3,5.4c-.8,.5-1.8,.8-2.9,.8h-1.8v-8.4h1.8c.6,0,1.3,.1,1.9,.3,.6,.2,1.1,.6,1.6,1.3,.4,.6,.7,1.5,.7,2.7,0,1.6-.4,2.7-1.3,3.3Zm23-10.5h-4.3v6.7c0,.9-.1,1.7-.4,2.3-.3,.6-.6,1-1.1,1.3s-1,.4-1.7,.4-1.2-.1-1.7-.4-.9-.7-1.1-1.3c-.3-.6-.4-1.4-.4-2.3v-6.7h-4.3v7.8c0,1.6,.4,2.8,1.1,3.8s1.7,1.7,2.8,2.1c1.1,.4,2.3,.6,3.5,.6,.9,0,1.7-.1,2.6-.3s1.7-.6,2.4-1.1c.7-.5,1.3-1.2,1.8-2,.5-.9,.7-1.9,.7-3.1v-7.8h.1Zm14.1,10.8h-6.5v-10.8h-4.3v14.2h10.8v-3.4Zm13.1,.5h-6.4v-3h5.9v-2.8h-5.9v-2.6h6.2v-2.8h-10.5v14.2h10.7v-3h0Zm14.1,5.4c-.5-.7-1-1.7-1.5-3-.4-1.2-.7-2.7-.7-4.3s.2-3,.7-4.3c.4-1.2,.9-2.3,1.5-3,.6-.8,1.2-1.5,2-2.4h-2.7c-.9,.7-1.6,1.5-2.4,2.2-.7,.8-1.4,1.8-2,3.1-.6,1.3-.9,2.7-.9,4.3,0,1.2,.2,2.4,.6,3.4s.9,2,1.5,2.8,1.1,1.5,1.7,2c.5,.5,1.1,1,1.6,1.4h2.7c-.9-.7-1.6-1.4-2.1-2.2Zm15.2-8.8c-.5-.6-1.2-1.1-2.2-1.4,.3-.1,.6-.3,.9-.6,.3-.3,.6-.6,.8-1.1,.2-.4,.3-.9,.3-1.4s-.1-.9-.3-1.3c-.2-.4-.5-.8-.9-1-.4-.3-.9-.5-1.6-.7s-1.4-.3-2.3-.3h-6.8v14.2h8.2c1.5,0,2.7-.4,3.5-1.1s1.3-1.7,1.3-2.9c-.1-1-.4-1.8-.9-2.4Zm-4.9-2.4c-.4,.2-1.1,.3-2.1,.3h-.9v-3.4h.9c1,0,1.7,.1,2.1,.3,.5,.2,.7,.7,.7,1.4s-.2,1.2-.7,1.4Zm-1.3,6.3h-1.7v-3.6h1.7c1.8,0,2.6,.6,2.6,1.8,.1,1.2-.8,1.8-2.6,1.8Zm14.3-6.7c-.6-1.3-1.3-2.4-2.1-3.2s-1.5-1.5-2.2-2.1h-2.7c.8,.9,1.5,1.7,2,2.4,.5,.7,1,1.7,1.5,3,.4,1.2,.7,2.7,.7,4.3s-.2,3-.7,4.3c-.4,1.2-.9,2.3-1.5,3-.6,.8-1.2,1.6-2,2.4h2.7c.5-.4,1-.9,1.6-1.4,.5-.5,1.1-1.2,1.7-2s1.1-1.8,1.5-2.8c.4-1.1,.6-2.2,.6-3.4-.2-1.8-.5-3.2-1.1-4.5Zm-21.1,68.6c0-2.9-2.4-5.3-5.3-5.3h-82.4c-2.9,0-5.3,2.4-5.3,5.3h0c0,2.9,2.4,5.3,5.3,5.3h82.4c2.9,0,5.3-2.3,5.3-5.3h0Zm-10.7,5.3h-71.7v76.9h71.7v-76.9h0Zm238.3-104.9h0c-34.2-1.5-69,.8-103.4,6.9-5,.9-9.5,3.8-12.1,7.8-2.1,3.1-2.8,6.7-2.1,10.3l.8,3.3,7.2,29.8c1.7,6.5,7.6,11.1,14.6,11.4,1.2,.1,2.4,0,3.6-.2,30-5.2,59.1-7.1,88.7-5.8,17.7,.8,35.8,2.7,53.7,5.8,.7,.1,1.5,.2,2.2,.2,7.6,.3,14.1-4.4,16-11.5,2.6-11,5.3-22,7.9-33.1,.7-3.6,0-7.1-2.1-10.3-2.6-3.9-7.2-6.8-12.2-7.8-20.9-3.6-42.1-5.9-62.8-6.8m.1-3.1c21,.9,42.1,3.2,63.3,6.9,10.2,1.9,19,10.9,16.7,21.8-2.7,11.1-5.3,22.1-8,33.2-2.3,8.7-10.5,14.2-19.2,13.8-.9,0-1.7-.1-2.6-.3-17.9-3.1-35.6-5-53.3-5.8-29.3-1.3-58.5,.7-88,5.8-1.4,.3-2.9,.3-4.3,.3-8-.3-15.3-5.7-17.5-13.8-2.7-11.1-5.3-22.1-8-33.2-2.3-10.9,6.5-19.9,16.7-21.8,35-6.1,69.5-8.4,104.2-6.9h0Zm-71,29h-3.9l-4.4,5.3-4.3-5.3h-3.9v14.2h4.1v-8.2l3.9,4.7h.3l3.8-4.7v8.2h4.3v-14.2h.1Zm18.2,4.3c-.3-.9-.8-1.7-1.5-2.3s-1.5-1.2-2.5-1.6-2.2-.6-3.5-.6c-1.7,0-3.2,.3-4.4,1s-2.1,1.6-2.7,2.7c-.6,1.1-.9,2.3-.9,3.6s.3,2.5,.9,3.6c.6,1.1,1.5,2,2.7,2.7s2.7,1,4.4,1,3.2-.3,4.4-1,2.1-1.5,2.7-2.6,.9-2.3,.9-3.6c0-1.1-.1-2-.5-2.9Zm-4.3,4.7c-.3,.5-.7,1-1.3,1.3s-1.2,.5-2,.5c-1.1,0-2-.3-2.7-1s-1-1.5-1-2.6,.3-2,1-2.6c.7-.7,1.6-1,2.7-1,.6,0,1.1,.1,1.6,.3,.5,.2,.8,.4,1.2,.8s.6,.7,.7,1.1,.2,.9,.2,1.5c.1,.5-.1,1.1-.4,1.7Zm21.7-3.9c-.2-.7-.5-1.3-.9-1.9-.4-.5-.8-1-1.3-1.4-.3-.2-.6-.5-.9-.7s-.8-.4-1.3-.6-1.1-.3-1.7-.4c-.6-.1-1.4-.1-2.3-.1h-5.9v14.2h7.6c1.8,0,3.2-.4,4.3-1.2,.7-.5,1.3-1.3,1.9-2.1s.8-2,.8-3.5c0-.9-.1-1.6-.3-2.3Zm-5.2,5.4c-.8,.5-1.8,.8-2.9,.8h-1.8v-8.4h1.8c.6,0,1.3,.1,1.9,.3s1.1,.6,1.6,1.3c.4,.6,.7,1.5,.7,2.7-.1,1.6-.5,2.7-1.3,3.3Zm22.9-10.5h-4.3v6.7c0,.9-.1,1.7-.4,2.3-.3,.6-.6,1-1.1,1.3s-1,.4-1.7,.4-1.2-.1-1.7-.4-.9-.7-1.1-1.3c-.3-.6-.4-1.4-.4-2.3v-6.7h-4.3v7.8c0,1.6,.4,2.8,1.1,3.8,.8,1,1.7,1.7,2.8,2.1s2.3,.6,3.5,.6c.9,0,1.7-.1,2.6-.3s1.7-.6,2.4-1.1,1.3-1.2,1.8-2c.5-.9,.7-1.9,.7-3.1v-7.8h.1Zm14.1,10.8h-6.5v-10.8h-4.3v14.2h10.8v-3.4Zm13.2,.5h-6.4v-3h5.9v-2.8h-5.9v-2.6h6.2v-2.8h-10.5v14.2h10.7v-3Zm14,5.4c-.5-.7-1-1.7-1.5-3s-.7-2.7-.7-4.3,.2-3,.7-4.3,.9-2.3,1.5-3c.6-.8,1.2-1.5,2-2.4h-2.7c-.9,.7-1.6,1.5-2.4,2.2-.7,.8-1.4,1.8-2,3.1-.6,1.3-.9,2.7-.9,4.3,0,1.2,.2,2.4,.6,3.4,.4,1.1,.9,2,1.5,2.8s1.1,1.5,1.7,2c.5,.5,1.1,1,1.6,1.4h2.7c-.9-.7-1.5-1.4-2.1-2.2Zm15.7-7.2c-.4,.3-.9,.5-1.3,.7-.4,.2-.9,.4-1.5,.6s-1.3,.2-2,.2c-.9,0-1.6-.2-2.3-.5-.7-.4-1.2-.8-1.6-1.4-.4-.6-.6-1.3-.6-2,0-.8,.2-1.5,.7-2.1s1-1.1,1.7-1.4,1.5-.5,2.3-.5c.9,0,1.7,.1,2.4,.4s1.4,.7,2.1,1.1v-3.7c-2-.7-3.9-1.1-5.5-1.1-1.1,0-2.1,.1-3.1,.4s-1.8,.7-2.6,1.3-1.3,1.4-1.8,2.3c-.4,.9-.6,2-.6,3.2,0,1.1,.2,2,.5,2.9s.9,1.7,1.6,2.3c.7,.7,1.6,1.2,2.5,1.5s2.1,.5,3.3,.5c.7,0,1.3,0,1.9-.1s1.2-.2,1.9-.4c.6-.2,1.2-.4,1.8-.7v-3.5h.2Zm7.5-4.4c-.6-1.3-1.3-2.4-2.1-3.2-.8-.8-1.5-1.5-2.2-2.1h-2.7c.8,.9,1.5,1.7,2,2.4,.5,.7,1,1.7,1.5,3,.4,1.2,.7,2.7,.7,4.3s-.2,3-.7,4.3-.9,2.3-1.5,3c-.6,.8-1.2,1.6-2,2.4h2.7c.5-.4,1-.9,1.6-1.4,.5-.5,1.1-1.2,1.7-2s1.1-1.8,1.5-2.8c.4-1.1,.6-2.2,.6-3.4-.2-1.8-.5-3.2-1.1-4.5Zm-21.1,68.6c0-2.9-2.4-5.3-5.3-5.3h-82.4c-2.9,0-5.3,2.4-5.3,5.3h0c0,2.9,2.4,5.3,5.3,5.3h82.4c3,0,5.3-2.3,5.3-5.3h0Zm-10.6,5.3h-71.7v76.9h71.7v-76.9Zm238.2-104.9h0c-34.2-1.5-69,.8-103.4,6.9-5,.9-9.5,3.8-12.1,7.8-2.1,3.1-2.8,6.7-2.1,10.3l.8,3.3,7.2,29.8c1.7,6.5,7.6,11.1,14.6,11.4,1.2,.1,2.4,0,3.6-.2,30-5.2,59.1-7.1,88.7-5.8,17.7,.8,35.8,2.7,53.7,5.8,.7,.1,1.5,.2,2.2,.2,7.6,.3,14.1-4.4,16-11.5,2.6-11,5.3-22,7.9-33.1,.7-3.6,0-7.1-2.1-10.3-2.6-3.9-7.2-6.8-12.2-7.8-20.8-3.6-42-5.9-62.8-6.8m.2-3.1c21,.9,42.1,3.2,63.3,6.9,10.2,1.9,19,10.9,16.7,21.8-2.7,11.1-5.3,22.1-8,33.2-2.3,8.7-10.5,14.2-19.2,13.8-.9,0-1.7-.1-2.6-.3-17.9-3.1-35.6-5-53.3-5.8-29.3-1.3-58.5,.7-88,5.8-1.4,.3-2.9,.3-4.3,.3-8-.3-15.3-5.7-17.5-13.8-2.7-11.1-5.3-22.1-8-33.2-2.3-10.9,6.5-19.9,16.7-21.8,34.9-6.1,69.5-8.4,104.2-6.9h0Zm-71.8,29h-3.9l-4.4,5.3-4.3-5.3h-3.9v14.2h4.1v-8.2l3.9,4.7h.3l3.8-4.7v8.2h4.3v-14.2h.1Zm18.2,4.3c-.3-.9-.8-1.7-1.5-2.3s-1.5-1.2-2.5-1.6-2.2-.6-3.5-.6c-1.7,0-3.2,.3-4.4,1s-2.1,1.6-2.7,2.7c-.6,1.1-.9,2.3-.9,3.6s.3,2.5,.9,3.6c.6,1.1,1.5,2,2.7,2.7s2.7,1,4.4,1,3.2-.3,4.4-1,2.1-1.5,2.7-2.6,.9-2.3,.9-3.6c0-1.1-.2-2-.5-2.9Zm-4.3,4.7c-.3,.5-.7,1-1.3,1.3s-1.2,.5-2,.5c-1.1,0-2-.3-2.7-1s-1-1.5-1-2.6,.3-2,1-2.6,1.6-1,2.7-1c.6,0,1.1,.1,1.6,.3s.8,.4,1.2,.8c.3,.3,.6,.7,.7,1.1s.2,.9,.2,1.5c0,.5-.1,1.1-.4,1.7Zm21.7-3.9c-.2-.7-.5-1.3-.9-1.9s-.8-1-1.3-1.4c-.3-.2-.6-.5-.9-.7s-.8-.4-1.3-.6-1.1-.3-1.7-.4-1.4-.1-2.3-.1h-5.9v14.2h7.6c1.8,0,3.2-.4,4.3-1.2,.7-.5,1.3-1.3,1.9-2.1s.8-2,.8-3.5c0-.9-.1-1.6-.3-2.3Zm-5.3,5.4c-.8,.5-1.8,.8-2.9,.8h-1.8v-8.4h1.8c.6,0,1.3,.1,1.9,.3,.6,.2,1.1,.6,1.6,1.3,.4,.6,.7,1.5,.7,2.7-.1,1.6-.5,2.7-1.3,3.3Zm23-10.5h-4.3v6.7c0,.9-.1,1.7-.4,2.3-.3,.6-.6,1-1.1,1.3s-1,.4-1.7,.4-1.2-.1-1.7-.4-.9-.7-1.1-1.3c-.3-.6-.4-1.4-.4-2.3v-6.7h-4.3v7.8c0,1.6,.4,2.8,1.1,3.8s1.7,1.7,2.8,2.1,2.3,.6,3.5,.6c.9,0,1.7-.1,2.6-.3s1.7-.6,2.4-1.1,1.3-1.2,1.8-2c.5-.9,.7-1.9,.7-3.1v-7.8h.1Zm14.1,10.8h-6.5v-10.8h-4.3v14.2h10.8v-3.4Zm13.1,.5h-6.4v-3h5.9v-2.8h-5.9v-2.6h6.2v-2.8h-10.5v14.2h10.7v-3Zm14.1,5.4c-.5-.7-1-1.7-1.5-3-.4-1.2-.7-2.7-.7-4.3s.2-3,.7-4.3c.4-1.2,.9-2.3,1.5-3,.6-.8,1.2-1.5,2-2.4h-2.7c-.9,.7-1.6,1.5-2.4,2.2-.7,.8-1.4,1.8-2,3.1-.6,1.3-.9,2.7-.9,4.3,0,1.2,.2,2.4,.6,3.4s.9,2,1.5,2.8,1.1,1.5,1.7,2c.5,.5,1.1,1,1.6,1.4h2.7c-.9-.7-1.6-1.4-2.1-2.2Zm17.2-11.6c-.2-.7-.5-1.3-.9-1.9s-.8-1-1.3-1.4c-.3-.2-.6-.5-.9-.7s-.8-.4-1.3-.6-1.1-.3-1.7-.4-1.4-.1-2.3-.1h-5.9v14.2h7.6c1.8,0,3.2-.4,4.3-1.2,.7-.5,1.3-1.3,1.9-2.1s.8-2,.8-3.5c.1-.9,0-1.6-.3-2.3Zm-5.2,5.4c-.8,.5-1.8,.8-2.9,.8h-1.8v-8.4h1.8c.6,0,1.3,.1,1.9,.3,.6,.2,1.1,.6,1.6,1.3,.4,.6,.7,1.5,.7,2.7-.1,1.6-.5,2.7-1.3,3.3Zm12.7-5.4c-.6-1.3-1.3-2.4-2.1-3.2-.8-.8-1.5-1.5-2.2-2.1h-2.7c.8,.9,1.5,1.7,2,2.4,.5,.7,1,1.7,1.5,3,.4,1.2,.7,2.7,.7,4.3s-.2,3-.7,4.3c-.4,1.2-.9,2.3-1.5,3-.6,.8-1.2,1.6-2,2.4h2.7c.5-.4,1-.9,1.6-1.4,.5-.5,1.1-1.2,1.7-2,.6-.8,1.1-1.8,1.5-2.8,.4-1.1,.6-2.2,.6-3.4-.1-1.8-.4-3.2-1.1-4.5Zm-21.8,68.6c0-2.9-2.4-5.3-5.3-5.3h-82.4c-2.9,0-5.3,2.4-5.3,5.3h0c0,2.9,2.4,5.3,5.3,5.3h82.4c2.9,0,5.3-2.3,5.3-5.3h0Zm-10.6,5.3h-71.7v76.9h71.7v-76.9ZM473.8,195.38c-.7-.8-1.6-1.4-2.9-1.9,.4-.1,.8-.4,1.2-.8,.4-.4,.7-.8,1-1.4,.3-.6,.4-1.2,.4-1.9,0-.6-.1-1.2-.4-1.7s-.6-1-1.2-1.4c-.5-.4-1.2-.7-2-.9s-1.8-.3-3-.3h-8.8v18.3h10.6c1.9,0,3.4-.5,4.5-1.4s1.6-2.2,1.6-3.8c0-1-.4-2-1-2.8Zm-6.3-3.1c-.6,.3-1.5,.4-2.7,.4h-1.2v-4.4h1.2c1.2,0,2.1,.1,2.7,.4s.9,.9,.9,1.8-.3,1.5-.9,1.8Zm-1.7,8.2h-2.2v-4.7h2.2c2.3,0,3.4,.8,3.4,2.3,0,1.6-1.1,2.4-3.4,2.4Zm26.4-1.3h-8.4v-13.9h-5.5v18.3h13.9v-4.4Zm20.5-8.4c-.4-1.1-1.1-2.1-1.9-3-.9-.9-1.9-1.5-3.3-2-1.3-.5-2.8-.8-4.5-.8-2.3,0-4.2,.4-5.7,1.3-1.6,.9-2.7,2-3.5,3.5s-1.1,3-1.1,4.6,.4,3.2,1.1,4.6c.8,1.4,1.9,2.6,3.5,3.5s3.5,1.3,5.7,1.3,4.1-.4,5.7-1.3c1.6-.8,2.7-2,3.5-3.4,.8-1.4,1.2-3,1.2-4.7,0-1.3-.2-2.5-.7-3.6Zm-5.5,6c-.4,.7-.9,1.3-1.6,1.7s-1.6,.6-2.6,.6c-1.5,0-2.6-.4-3.5-1.3-.8-.9-1.3-2-1.3-3.4s.4-2.5,1.3-3.4,2-1.3,3.5-1.3c.8,0,1.5,.1,2,.3,.6,.2,1.1,.6,1.5,1s.7,.9,.9,1.5c.2,.6,.3,1.2,.3,1.9,.1,.9-.1,1.7-.5,2.4Zm26,.8c-.6,.4-1.1,.7-1.7,.9-.5,.3-1.2,.5-2,.7s-1.6,.3-2.5,.3c-1.1,0-2.1-.2-3-.7s-1.6-1.1-2-1.8-.7-1.6-.7-2.5c0-1,.3-2,.8-2.7s1.3-1.4,2.2-1.8c.9-.4,1.9-.6,3-.6,1.2,0,2.2,.2,3.1,.6,.9,.4,1.8,.8,2.7,1.4v-4.9c-2.6-.9-5-1.4-7.1-1.4-1.4,0-2.7,.2-4,.6-1.3,.4-2.4,1-3.3,1.7-1,.8-1.7,1.8-2.3,2.9s-.8,2.6-.8,4.1c0,1.4,.2,2.6,.7,3.8,.5,1.1,1.2,2.1,2.1,3,.9,.9,2,1.5,3.3,1.9s2.7,.7,4.3,.7c.9,0,1.7-.1,2.5-.2,.8-.1,1.6-.3,2.4-.5s1.6-.6,2.3-.9v-4.6Zm15-3.8l6.8-8.6h-6l-6.6,8.2v-8.2h-5.5v18.3h5.5v-8.6l7,8.6h6.7l-7.9-9.7ZM233.5,536.88h-14.6v3.4h5.2v10.7h4.3v-10.7h5.2l-.1-3.4h0Zm10.9,6.8c-.3-.6-.6-1.2-1.1-1.7s-1.1-.9-1.9-1.1c-.8-.3-1.6-.4-2.6-.4s-1.8,.1-2.6,.4c-.7,.3-1.4,.6-1.9,1.1s-.9,1.1-1.1,1.7c-.2,.6-.4,1.4-.4,2.1,0,1,.2,2,.7,2.8,.4,.8,1.1,1.5,2,1.9,.9,.5,2,.7,3.3,.7s2.4-.2,3.3-.7c.9-.5,1.6-1.1,2-1.9,.4-.8,.7-1.7,.7-2.8,0-.7-.2-1.4-.4-2.1Zm-4,4.1c-.4,.5-.9,.7-1.6,.7s-1.2-.2-1.5-.7c-.4-.5-.5-1.1-.5-1.9s.2-1.5,.5-1.9,.9-.7,1.5-.7c.7,0,1.2,.2,1.6,.7s.5,1.1,.5,1.9-.2,1.4-.5,1.9Zm16.7-7.1h-5.7c-.7,0-1.4,.1-2,.2-.6,.2-1.2,.4-1.6,.7s-.8,.7-1.1,1.2-.4,1.1-.4,1.8c0,.9,.3,1.6,.8,2.2,.6,.6,1.2,.9,2,1.2-.6,.1-1,.3-1.2,.7s-.4,.7-.4,1.1c0,.3,.1,.5,.3,.8s.4,.4,.6,.5c-.7,.1-1.2,.3-1.6,.6-.4,.3-.6,.6-.7,.8-.1,.3-.2,.6-.2,.8,0,.8,.4,1.5,1.3,2,.9,.5,2.2,.7,4.1,.7,1.3,0,2.3-.1,3.1-.4,.8-.3,1.3-.7,1.7-1.2s.5-1.1,.5-1.7c0-.8-.2-1.4-.7-1.9-.5-.4-1-.7-1.5-.9-.5-.1-1.1-.2-1.8-.3-.6,0-1-.1-1.2-.1s-.4-.1-.5-.2c-.1-.1-.2-.2-.2-.4,0-.4,.4-.6,1.3-.7,.7,0,1.2-.2,1.8-.4,.5-.2,.9-.4,1.3-.8,.4-.3,.6-.7,.8-1.1,.2-.4,.3-.8,.3-1.2,0-.8-.3-1.5-1-2.1h1.8l.1-1.9h0Zm-3.9,13.2c-.4,.2-1,.3-1.7,.3-1.6,0-2.3-.4-2.3-1.2,0-.4,.2-.7,.6-.9,.4-.2,1-.3,1.8-.3,.5,0,1,.1,1.5,.2,.5,.1,.7,.4,.7,.9s-.2,.8-.6,1Zm-.7-8.1c-.3,.3-.8,.5-1.3,.5-.4,0-.7-.1-.9-.2-.3-.2-.5-.4-.6-.6s-.2-.5-.2-.8c0-.4,.2-.8,.5-1.2s.8-.6,1.3-.6c.4,0,.8,.2,1.2,.5s.5,.7,.5,1.3c.1,.4-.1,.8-.5,1.1Zm16.6,.2c0-1.3-.3-2.4-.8-3.2s-1.2-1.4-1.9-1.8c-.8-.4-1.6-.5-2.4-.5-1.3,0-2.4,.2-3.3,.7s-1.6,1.1-2,1.9c-.4,.8-.7,1.7-.7,2.7s.2,2,.7,2.8c.4,.8,1.1,1.5,2,1.9,.9,.5,2,.7,3.3,.7,1.2,0,2.2-.1,2.9-.3s1.4-.5,2-.8v-2.2c-1.5,.7-2.9,1-4.1,1-.7,0-1.3-.2-1.9-.6-.6-.4-.9-.9-1.1-1.6h7.3v-.7Zm-7.4-1.1c0-.7,.2-1.2,.6-1.6s.9-.6,1.5-.6,1.1,.2,1.4,.6,.5,.9,.5,1.6h-4Zm17.4,2.7c-1,.5-1.7,.7-2.3,.7-.4,0-.8-.1-1-.2-.2-.2-.4-.4-.4-.6s-.1-.6-.1-.9v-3.3h3.5v-2.6h-3.5v-3.1h-.4l-4.9,5v.6h1.7v4.1c0,2.6,1.3,3.9,4,3.9,.6,0,1.3-.1,1.9-.3,.7-.2,1.2-.3,1.6-.5v-2.8h-.1Zm12.7-2.9c0-2.8-1.2-4.2-3.7-4.2-.7,0-1.3,.1-1.9,.4-.6,.2-1.2,.7-1.8,1.3v-5.3h-3.7v14.2h3.7v-6.1c.3-.5,.7-.9,1-1.2,.4-.3,.8-.5,1.2-.5,.6,0,1,.2,1.2,.6,.2,.4,.3,.9,.3,1.4v5.7h3.7v-6.3h0Zm12.9,1.3c0-1.3-.3-2.4-.8-3.2s-1.2-1.4-1.9-1.8c-.8-.4-1.6-.5-2.4-.5-1.3,0-2.4,.2-3.3,.7s-1.6,1.1-2,1.9c-.4,.8-.7,1.7-.7,2.7s.2,2,.7,2.8c.4,.8,1.1,1.5,2,1.9,.9,.5,2,.7,3.3,.7,1.2,0,2.2-.1,2.9-.3s1.4-.5,2-.8v-2.2c-1.5,.7-2.9,1-4.1,1-.7,0-1.3-.2-1.9-.6-.6-.4-.9-.9-1.1-1.6h7.3v-.7Zm-7.4-1.1c0-.7,.2-1.2,.6-1.6s.9-.6,1.5-.6,1.1,.2,1.4,.6,.5,.9,.5,1.6h-4Zm17.2-4.2c-.3-.1-.7-.2-1.1-.2-.8,0-1.5,.3-2.1,.9-.6,.6-1,1.2-1.2,1.8v-2.5h-3.7v10.4h3.7v-4.5c.3-.9,.7-1.6,1.1-1.9s.8-.5,1.3-.5c.6,0,1.1,.3,1.7,.8l1.4-3.7c-.4-.3-.8-.5-1.1-.6Zm381.2,4.1c-.5-.6-1.2-1.1-2.2-1.4,.3-.1,.6-.3,.9-.6,.3-.3,.6-.6,.8-1.1,.2-.4,.3-.9,.3-1.4s-.1-.9-.3-1.3c-.2-.4-.5-.8-.9-1-.4-.3-.9-.5-1.6-.7-.7-.2-1.4-.3-2.3-.3h-6.8v14.2h8.2c1.5,0,2.7-.4,3.5-1.1,.8-.7,1.3-1.7,1.3-2.9-.2-1.1-.4-1.8-.9-2.4Zm-4.9-2.5c-.4,.2-1.1,.3-2.1,.3h-.9v-3.4h.9c1,0,1.7,.1,2.1,.3,.5,.2,.7,.7,.7,1.4s-.3,1.2-.7,1.4Zm-1.3,6.4h-1.7v-3.6h1.7c1.8,0,2.6,.6,2.6,1.8s-.8,1.8-2.6,1.8Zm16.6-8l-2.4,5.2-2.1-5.2h-4l4.1,9-2.9,6.1h3.7l7.1-15.1h-3.5Zm18.4,0l-2.4,5.2-2.1-5.2h-4l4.1,9-2.9,6.1h3.7l7.1-15.1h-3.5Zm15.7,3c-.3-.6-.6-1.2-1.1-1.7s-1.1-.9-1.9-1.1c-.8-.3-1.6-.4-2.6-.4s-1.8,.1-2.6,.4-1.4,.6-1.9,1.1-.9,1.1-1.1,1.7c-.2,.6-.4,1.4-.4,2.1,0,1,.2,2,.7,2.8,.4,.8,1.1,1.5,2,1.9,.9,.5,2,.7,3.3,.7s2.4-.2,3.3-.7c.9-.5,1.6-1.1,2-1.9,.4-.8,.7-1.7,.7-2.8,0-.7-.1-1.4-.4-2.1Zm-4,4.1c-.4,.5-.9,.7-1.6,.7s-1.2-.2-1.5-.7c-.4-.5-.5-1.1-.5-1.9s.2-1.5,.5-1.9,.9-.7,1.5-.7c.7,0,1.2,.2,1.6,.7s.5,1.1,.5,1.9c.1,.8-.1,1.4-.5,1.9Zm17.3-7.1h-3.7v6.1c-.3,.5-.6,.9-1,1.2-.3,.3-.7,.5-1.3,.5s-1-.2-1.2-.6c-.2-.4-.3-.9-.3-1.5v-5.6h-3.7v6.1c0,1.2,.2,2.2,.7,3.1s1.5,1.4,3,1.4c.8,0,1.5-.1,2.1-.4,.6-.3,1.1-.7,1.6-1.3v1.5h3.7v-10.5h.1Zm10.4,0c-.3-.1-.7-.2-1.1-.2-.8,0-1.5,.3-2.1,.9-.6,.6-1,1.2-1.2,1.8v-2.5h-3.7v10.4h3.7v-4.5c.3-.9,.7-1.6,1.1-1.9,.4-.4,.8-.5,1.3-.5,.6,0,1.1,.3,1.7,.8l1.4-3.7c-.5-.3-.8-.5-1.1-.6Zm16.3,5.9c-.2-.4-.6-.8-1-1.1s-1.1-.7-2-1c-.6-.2-.9-.4-1.1-.5-.2-.1-.2-.3-.2-.5s.1-.3,.2-.5c.2-.2,.4-.2,.9-.2,.3,0,.7,0,1,.1s.6,.2,.9,.3l.6,.3c.2,.1,.3,.2,.5,.3v-2.5c-.5-.2-1-.4-1.5-.6s-.9-.2-1.3-.2h-.8c-.9,0-1.7,.2-2.3,.5s-1.1,.7-1.4,1.2c-.3,.5-.5,1-.5,1.5,0,.7,.2,1.3,.7,1.8s1.1,.9,1.7,1.2c.6,.2,1,.4,1.3,.6s.6,.3,.7,.4,.2,.3,.2,.5c0,.5-.5,.8-1.4,.8-.5,0-1-.1-1.5-.3s-1-.5-1.6-.8v2.6c.7,.3,1.4,.5,2,.6s1.3,.2,2.1,.2c1.4,0,2.4-.3,3.1-.9,.7-.6,1-1.4,1-2.3,0-.6-.1-1.1-.3-1.5Zm12.9-.6c0-1.3-.3-2.4-.8-3.2s-1.2-1.4-1.9-1.8c-.8-.4-1.6-.5-2.4-.5-1.3,0-2.4,.2-3.3,.7-.9,.5-1.6,1.1-2,1.9s-.7,1.7-.7,2.7,.2,2,.7,2.8c.4,.8,1.1,1.5,2,1.9,.9,.5,2,.7,3.3,.7,1.2,0,2.2-.1,2.9-.3s1.4-.5,2-.8v-2.2c-1.5,.7-2.9,1-4.1,1-.7,0-1.3-.2-1.9-.6-.6-.4-.9-.9-1.1-1.6h7.3v-.7Zm-7.4-1.1c0-.7,.2-1.2,.6-1.6s.9-.6,1.5-.6,1.1,.2,1.4,.6,.5,.9,.5,1.6h-4Zm13.1-8h-3.7v14.2h3.7v-14.2Zm9.5,0c-.6-.1-1.2-.2-1.8-.2-1.1,0-2,.2-2.6,.6s-1.1,1-1.4,1.6c-.3,.7-.4,1.3-.4,2.1v.2h-1.7v2.5h1.7v7.4h3.7v-7.4h1.9v-2.5h-1.9v-.4c0-.5,.1-.8,.3-1.1s.5-.4,.9-.4c.3,0,.8,.1,1.4,.2v-2.6h-.1Zm-353.9-52.4h-3.9l-4.4,5.3-4.3-5.3h-3.8v14.2h4.1v-8.2l3.9,4.7h.3l3.8-4.7v8.2h4.3v-14.2h0Zm18.2,4.3c-.3-.9-.8-1.7-1.5-2.3s-1.5-1.2-2.5-1.6-2.2-.6-3.5-.6c-1.7,0-3.2,.3-4.4,1s-2.1,1.6-2.7,2.7-.9,2.3-.9,3.6,.3,2.5,.9,3.6,1.5,2,2.7,2.7,2.7,1,4.4,1,3.2-.3,4.4-1c1.2-.7,2.1-1.5,2.7-2.6s.9-2.3,.9-3.6c.1-1.1-.1-2-.5-2.9Zm-4.2,4.6c-.3,.5-.7,1-1.3,1.3-.6,.3-1.2,.5-2,.5-1.1,0-2-.3-2.7-1s-1-1.5-1-2.6,.3-2,1-2.6,1.6-1,2.7-1c.6,0,1.1,.1,1.6,.3s.8,.4,1.2,.8c.3,.3,.6,.7,.7,1.1s.2,.9,.2,1.5c0,.6-.1,1.2-.4,1.7Zm21.6-3.9c-.2-.7-.5-1.3-.9-1.9s-.8-1-1.3-1.4c-.3-.2-.6-.5-.9-.7s-.8-.4-1.3-.6-1.1-.3-1.7-.4-1.4-.1-2.3-.1h-5.9v14.2h7.6c1.8,0,3.2-.4,4.3-1.2,.7-.5,1.3-1.3,1.9-2.1s.8-2,.8-3.5c.1-.8,0-1.6-.3-2.3Zm-5.2,5.4c-.8,.5-1.8,.8-2.9,.8h-1.8v-8.4h1.8c.6,0,1.3,.1,1.9,.3,.6,.2,1.1,.6,1.6,1.3,.4,.6,.7,1.5,.7,2.7-.1,1.7-.5,2.8-1.3,3.3Zm22.9-10.4h-4.3v6.7c0,.9-.1,1.7-.4,2.3-.3,.6-.6,1-1.1,1.3s-1,.4-1.7,.4-1.2-.1-1.7-.4-.9-.7-1.1-1.3c-.3-.6-.4-1.4-.4-2.3v-6.7h-4.3v7.8c0,1.6,.4,2.8,1.1,3.8s1.7,1.7,2.8,2.1c1.1,.4,2.3,.6,3.5,.6,.9,0,1.7-.1,2.6-.3s1.7-.6,2.4-1.1c.7-.5,1.3-1.2,1.8-2,.5-.9,.7-1.9,.7-3.1v-7.8h.1Zm14.1,10.8h-6.5v-10.8h-4.3v14.2h10.8v-3.4Zm13.2,.5h-6.4v-3h5.9v-2.9h-5.9v-2.6h6.2v-2.8h-10.5v14.2h10.7v-2.9Zm14.1,5.4c-.5-.7-1-1.7-1.5-3-.4-1.2-.7-2.7-.7-4.3s.2-3,.7-4.3c.4-1.2,.9-2.3,1.5-3,.6-.8,1.2-1.5,2-2.4h-2.7c-.9,.7-1.6,1.5-2.4,2.2-.7,.8-1.4,1.8-2,3.1-.6,1.3-.9,2.7-.9,4.3,0,1.2,.2,2.4,.6,3.4s.9,2,1.5,2.8,1.1,1.5,1.7,2c.5,.5,1.1,1,1.6,1.4h2.7c-.9-.7-1.6-1.5-2.1-2.2Zm12.3-16.7h-4.7l-6.3,14.2h4.4l1.2-2.9h6.1l1.2,2.9h4.4l-6.3-14.2Zm-4.4,8.8l2.1-5.2,2.1,5.2h-4.2Zm17.1-3.8c-.6-1.3-1.3-2.4-2.1-3.2-.8-.8-1.5-1.5-2.2-2.1h-2.8c.8,.9,1.5,1.7,2,2.4,.5,.7,1,1.7,1.5,3,.4,1.2,.7,2.7,.7,4.3s-.2,3-.7,4.3c-.4,1.2-.9,2.3-1.5,3-.6,.8-1.2,1.6-2,2.4h2.7c.5-.4,1-.9,1.6-1.4,.5-.5,1.1-1.2,1.7-2,.6-.8,1.1-1.8,1.5-2.8,.4-1.1,.6-2.2,.6-3.4-.1-1.7-.4-3.2-1-4.5Zm60.7,98.2c-22.7,0-45.7,.9-68.2,2.6-7.9,.6-15,4.3-20.1,10.4-5.1,6.1-7.4,13.9-6.5,21.8l10.9,98.5c1.6,14.8,14,25.9,28.8,25.9,.7,0,1.4,0,2.1-.1,17.5-1.3,35.4-1.9,53-1.9s35.5,.6,53,1.9c.7,.1,1.4,.1,2.1,.1,14.8,0,27.1-11.1,28.8-25.9l10.9-98.5c.9-7.9-1.4-15.6-6.5-21.8-5.1-6.1-12.2-9.8-20.1-10.4-22.6-1.8-45.5-2.6-68.2-2.6m0-2.3c22.8,0,45.7,.9,68.3,2.6,8.5,.6,16.2,4.6,21.7,11.2,5.5,6.6,8,15,7,23.5l-10.8,98.4c-1.8,16-15.2,27.9-31,27.9-.8,0-1.5,0-2.3-.1-17.5-1.3-35.2-1.9-52.9-1.9s-35.3,.6-52.9,1.9c-.8,.1-1.5,.1-2.3,.1-15.9,0-29.3-11.9-31-27.9l-10.9-98.5c-.9-8.5,1.6-16.9,7-23.5,5.5-6.6,13.2-10.6,21.7-11.2,22.7-1.7,45.6-2.5,68.4-2.5h0Zm-27.4,21.7c-.2-.5-.5-.9-.9-1.3s-.9-.7-1.5-.9-1.3-.3-2-.3c-1,0-1.9,.2-2.6,.6s-1.2,.9-1.5,1.5-.5,1.3-.5,2,.2,1.4,.5,2,.9,1.2,1.5,1.5,1.5,.6,2.5,.6,1.8-.2,2.5-.6,1.2-.9,1.6-1.5,.5-1.3,.5-2.1c.2-.5,.1-1-.1-1.5Zm-5.3-4.4c-.2-.2-.3-.2-.6-.2s-.4,.1-.6,.2-.2,.3-.2,.6,.1,.4,.2,.6,.3,.2,.6,.2c.2,0,.4-.1,.6-.2s.2-.3,.2-.6c.1-.3,0-.4-.2-.6Zm2.8,7c-.2,.3-.4,.6-.7,.7s-.7,.3-1.1,.3c-.7,0-1.2-.2-1.5-.6s-.6-.9-.6-1.5,.2-1.1,.6-1.5,.9-.6,1.5-.6c.3,0,.6,.1,.9,.2s.5,.2,.7,.4,.3,.4,.4,.7,.1,.5,.1,.8c0,.5-.1,.8-.3,1.1Zm.2-7c-.2-.2-.3-.2-.6-.2-.2,0-.4,.1-.6,.2s-.2,.3-.2,.6,.1,.4,.2,.6,.3,.2,.6,.2,.4-.1,.6-.2,.2-.3,.2-.6,0-.4-.2-.6Zm9.3,1.9l-1.9,4.7-1.9-4.7h-2.5l3.6,8.2h1.6l3.7-8.2h-2.6Zm12.5,0h-2.4v4.5l-4.2-4.5h-2.2v8.1h2.4v-4.5l4.2,4.5h2.2v-8.1Zm4.5,0h-2.4v8.1h2.4v-8.1Zm10.8,0h-2.4v4.5l-4.2-4.5h-2.2v8.1h2.4v-4.5l4.2,4.5h2.2v-8.1Zm9.7,3.7h-3.2v1.6h1.1v1c-.4,.1-.7,.1-1,.1-.5,0-1-.1-1.4-.3s-.7-.5-.9-.8-.3-.7-.3-1.1c0-.3,.1-.7,.2-1.1s.5-.7,.9-1,1-.4,1.7-.4c.6,0,1.1,.1,1.5,.2s.8,.3,1.2,.5v-1.9c-.6-.2-1.1-.3-1.5-.4s-1.1-.2-1.8-.2c-.4,0-.8,0-1.2,.1s-.7,.2-1.1,.3-.7,.4-1.1,.7c-.4,.3-.8,.8-1,1.4s-.3,1.2-.3,1.7c0,.9,.2,1.7,.6,2.3s1,1.1,1.7,1.4,1.5,.5,2.3,.5c.4,0,.8,0,1.2-.1s.7-.1,1.1-.2c.2-.1,.4-.1,.5-.1s.2-.1,.4-.1,.3-.1,.5-.2v-3.9h-.1Zm7.1-3.7h-2.7l-3.6,8.1h2.5l.7-1.6h3.5l.7,1.6h2.5l-3.6-8.1Zm-2.5,5.1l1.2-3,1.2,3h-2.4Zm14.2,1.3c-.3-.6-.5-1.1-.7-1.3s-.4-.4-.6-.5c.2-.1,.4-.2,.6-.4s.3-.3,.5-.6,.2-.6,.2-1-.1-.7-.3-1.1-.5-.7-.9-1-1-.4-1.7-.4h-4.2v8.1h2.4v-3.2h.3c.3,0,.5,0,.7,.1s.4,.2,.5,.5,.4,.6,.6,1.2l.6,1.4h2.6l-.6-1.8Zm-2.8-3.1c-.2,.1-.6,.2-1.2,.2h-.5v-2h.5c.6,0,1,.1,1.2,.2s.4,.4,.4,.8c-.1,.4-.2,.7-.4,.8Zm-65.7,35.1h-4.1l-5.9,4.7,2.4,2.9,1.9-1.6c.4-.4,.8-.7,1.1-1.1-.1,.9-.1,1.9-.1,3v8.2h4.7v-16.1Zm73.7,12.9h-5.6c.8-1,1.6-2,2.3-3,.4-.6,.7-1.1,1-1.5,.2-.4,.5-.9,.7-1.6,.2-.7,.3-1.4,.3-2.1,0-1.1-.2-2-.7-2.8s-1.2-1.4-2-1.8c-.9-.4-1.8-.6-2.9-.6-.7,0-1.3,.1-1.8,.2-.6,.1-1,.3-1.5,.5-.4,.2-.8,.4-1.1,.6-.3,.2-.7,.4-1.2,.8v4c1.4-1.5,2.8-2.2,4.2-2.2,.7,0,1.3,.2,1.8,.7s.7,1.1,.7,1.9c0,.6-.1,1.1-.3,1.7-.2,.6-.4,1.1-.7,1.5-.3,.5-.6,.9-1,1.4s-.8,1-1.2,1.5c-.9,1.1-1.7,2-2.3,2.7s-1.2,1.3-1.7,1.7v.3h13v-3.9Zm-70.9,52.5c-.5-.6-1.1-1.1-1.8-1.5,.4-.2,.8-.5,1.1-.9s.6-.8,.9-1.4c.2-.5,.3-1,.3-1.5,0-.6-.2-1.3-.6-2-.4-.7-1-1.3-1.9-1.8s-2-.8-3.2-.8c-.9,0-1.7,.1-2.4,.3s-1.5,.5-2.3,.8v3.3c.5-.4,1.1-.7,1.7-.9,.6-.2,1.2-.3,1.8-.3s1.2,.2,1.6,.6,.6,.9,.6,1.4c0,.3-.1,.6-.2,.9s-.4,.6-.8,.8c-.4,.2-.9,.3-1.4,.3h-.7v2.8h.6c.6,0,1.1,.1,1.5,.3s.8,.5,1,.8,.3,.7,.3,1.2c0,.3-.1,.7-.3,1s-.5,.6-.8,.7-.8,.3-1.4,.3c-.7,0-1.4-.2-2.1-.5-.7-.3-1.3-.7-1.9-1.2v3.8c.7,.3,1.6,.6,2.6,.9,1,.2,2,.4,2.9,.4,.6,0,1.2-.1,1.9-.3s1.3-.5,1.9-.9c.6-.4,1.1-.9,1.4-1.6,.4-.6,.5-1.4,.5-2.3,0-1.2-.2-2.1-.8-2.7Zm74.9-4.5v16.4h-21v-16.4h2.8v-9.7h15.2v9.7h3Zm-15.2,0h9.2v-6.7h-9.2v6.7Zm190.7-116.2c-22.7,0-45.7,.9-68.2,2.6-7.9,.6-15,4.3-20.1,10.4-5.1,6.1-7.4,13.9-6.5,21.8l10.9,98.5c1.6,14.8,14,25.9,28.8,25.9,.7,0,1.4,0,2.1-.1,17.5-1.3,35.4-1.9,53-1.9s35.5,.6,53,1.9c.7,.1,1.4,.1,2.1,.1,14.8,0,27.1-11.1,28.8-25.9l10.9-98.5c.9-7.9-1.4-15.6-6.5-21.8-5.1-6.1-12.2-9.8-20.1-10.4-22.5-1.8-45.5-2.6-68.2-2.6m0-2.3c22.8,0,45.7,.9,68.3,2.6,8.5,.6,16.2,4.6,21.7,11.2,5.5,6.6,8,15,7,23.5l-10.9,98.5c-1.8,16-15.2,27.9-31,27.9-.8,0-1.5,0-2.3-.1-17.5-1.3-35.2-1.9-52.9-1.9s-35.3,.6-52.9,1.9c-.8,.1-1.5,.1-2.3,.1-15.9,0-29.3-11.9-31-27.9l-10.9-98.5c-.9-8.5,1.6-16.9,7-23.5,5.5-6.6,13.2-10.6,21.7-11.2,22.9-1.8,45.7-2.6,68.5-2.6h0Zm-38.3,19.2h-2.4v3.9c0,.5-.1,1-.2,1.3s-.4,.6-.6,.8-.6,.2-1,.2-.7-.1-1-.2-.5-.4-.6-.8-.2-.8-.2-1.3v-3.8h-2.4v4.5c0,.9,.2,1.6,.7,2.2s1,1,1.6,1.2,1.3,.4,2,.4c.5,0,1-.1,1.5-.2s1-.3,1.4-.6,.8-.7,1-1.2,.4-1.1,.4-1.8v-4.6h-.2Zm9.7,0h-8.4v2h3v6.1h2.4v-6.1h3v-2Zm10.9,0h-2.2l-2.5,3-2.5-3h-2.2v8.1h2.4v-4.7l2.2,2.7h.2l2.2-2.7v4.7h2.4v-8.1h0Zm7.4,0h-2.7l-3.6,8.1h2.5l.7-1.6h3.5l.7,1.6h2.5l-3.6-8.1Zm-2.5,5.1l1.2-3,1.2,3h-2.4Zm16-5.1h-2.4v4.5l-4.2-4.5h-2.2v8.1h2.4v-4.5l4.2,4.5h2.2v-8.1Zm4.5,0h-2.4v8.1h2.4v-8.1Zm10.9,0h-2.4v4.5l-4.2-4.5h-2.2v8.1h2.4v-4.5l4.2,4.5h2.2v-8.1Zm9.6,3.7h-3.2v1.6h1.1v1c-.4,.1-.7,.1-1,.1-.5,0-1-.1-1.4-.3s-.7-.5-.9-.8-.3-.7-.3-1.1c0-.3,.1-.7,.2-1.1s.5-.7,.9-1,1-.4,1.7-.4c.6,0,1.1,.1,1.5,.2s.8,.3,1.2,.5v-1.9c-.6-.2-1.1-.3-1.5-.4s-1.1-.2-1.8-.2c-.4,0-.8,0-1.2,.1s-.7,.2-1.1,.3-.7,.4-1.1,.7c-.4,.3-.8,.8-1,1.4s-.3,1.2-.3,1.7c0,.9,.2,1.7,.6,2.3s1,1.1,1.7,1.4,1.5,.5,2.3,.5c.4,0,.8,0,1.2-.1s.7-.1,1.1-.2c.2-.1,.4-.1,.5-.1s.2-.1,.4-.1,.3-.1,.5-.2v-3.9h-.1Zm8.1,2.8h-3.7v-1.7h3.4v-1.6h-3.4v-1.5h3.6v-1.6h-6v8.1h6.1v-1.7h0Zm10.5-6.5h-2.4v4.5l-4.2-4.5h-2.2v8.1h2.4v-4.5l4.2,4.5h2.2v-8.1Zm-627.7,64.5c.2,.2,.3,.5,.5,.7,.1,.2,.3,.5,.4,.9,.1,.3,.2,.7,.2,1.1,0,.5,0,.9-.2,1.3-.2,.4-.4,.7-.7,1-.3,.2-.7,.4-1.1,.4-.5,0-.9-.1-1.2-.3-.4-.2-.7-.5-.9-.9-.2-.4-.3-.8-.4-1.3,0-.5,0-1,.1-1.4s.3-.8,.5-1.2l-2.2,.2c-.3,1.2-.5,2.3-.4,3.2,0,.6,.2,1.2,.4,1.7s.5,1,.9,1.4,.8,.7,1.4,.9c.5,.2,1.2,.3,1.9,.2,.6,0,1.2-.2,1.7-.4s.9-.6,1.3-1,.6-.9,.8-1.5c.2-.6,.2-1.2,.2-1.9,0-.4-.1-.7-.1-1.1-.1-.4-.2-.7-.3-1-.1-.3-.3-.7-.5-1h-2.3Zm-1.9-10.3c-.5,.1-1,.4-1.4,.7s-.8,.8-1.1,1.3c-.3,.6-.5,1.2-.6,2-.1,1,0,1.9,.3,2.6,.3,.7,.7,1.3,1.3,1.7,.6,.4,1.2,.7,2,.7,.7,.1,1.4,0,2.1-.3s1.2-.7,1.7-1.4c.5-.6,.8-1.5,.9-2.5s0-1.8-.3-2.6c-.3-.7-.7-1.3-1.3-1.7-.6-.4-1.3-.7-2-.8-.6,.2-1.1,.2-1.6,.3Zm2.3,2.8c.3,.2,.5,.5,.6,.8s.2,.7,.1,1.2c-.1,.6-.3,1.1-.8,1.5-.4,.3-1,.5-1.6,.4s-1.1-.3-1.4-.7-.5-1-.4-1.6c0-.3,.1-.6,.3-.9,.1-.2,.3-.5,.5-.6,.2-.2,.4-.3,.7-.3,.3-.1,.5-.1,.8,0,.6-.1,.9,0,1.2,.2Zm-.9-15.1l-.7,2.1,2,3.4-3.7,1.3-.7,2.1,7.6,2.7,.8-2.2-4.4-1.6,3.3-1.2,.1-.2-1.8-3,4.4,1.6,.8-2.3-7.7-2.7Zm2.7-4.8l-1.2,2.1,7.1,4,1.2-2.1-7.1-4Zm10.2-5c0,.3-.1,.6-.1,.8-.1,.3-.1,.6-.3,.9-.1,.3-.3,.7-.6,1-.3,.4-.6,.7-1,.9s-.8,.3-1.2,.2c-.4,0-.8-.2-1.1-.4-.4-.3-.6-.6-.7-1s-.1-.8,0-1.3c.1-.4,.3-.8,.6-1.2,.3-.4,.7-.7,1-1,.4-.2,.8-.4,1.2-.6l-1.7-1.3c-1,.7-1.8,1.4-2.4,2.1-.4,.5-.7,1-.9,1.6-.2,.5-.3,1.1-.3,1.7s.2,1.1,.4,1.6c.3,.5,.7,1,1.2,1.4s1,.6,1.5,.8c.5,.1,1.1,.2,1.6,.1,.6-.1,1.1-.3,1.6-.6s1-.8,1.4-1.3c.2-.3,.4-.6,.6-.9,.2-.3,.3-.6,.5-1,.1-.3,.2-.7,.3-1.1l-1.6-1.4Zm-243.5,23.6c-.5,.1-1,.4-1.4,.7s-.8,.8-1,1.4c-.3,.6-.4,1.2-.5,2-.1,1,0,1.9,.3,2.6,.3,.7,.8,1.3,1.4,1.7,.6,.4,1.3,.6,2,.7,.7,.1,1.4,0,2.1-.3,.7-.3,1.2-.7,1.7-1.4s.7-1.5,.8-2.5,0-1.8-.3-2.6c-.3-.7-.8-1.3-1.4-1.7-.6-.4-1.3-.6-2-.7-.7-.1-1.2,0-1.7,.1Zm2.4,2.7c.3,.2,.5,.5,.7,.8,.1,.3,.2,.7,.2,1.2-.1,.6-.3,1.1-.7,1.5-.4,.3-.9,.5-1.6,.4-.6-.1-1.1-.3-1.4-.7-.3-.4-.5-.9-.4-1.6,0-.3,.1-.6,.2-.9,.1-.3,.3-.5,.5-.6s.4-.3,.7-.3c.3-.1,.5-.1,.8-.1,.4,0,.7,.1,1,.3Zm2.1-11.3c-.4,.2-.8,.5-1.2,1,0-.2-.1-.4-.2-.6-.1-.2-.3-.4-.5-.6s-.5-.3-.7-.4c-.3-.1-.5-.1-.8-.1s-.5,.2-.7,.3c-.2,.2-.4,.4-.6,.8-.2,.3-.4,.7-.5,1.2l-1.1,3.8,7.8,2.3,1.3-4.5c.2-.8,.2-1.5,0-2.1-.3-.6-.7-1-1.4-1.2-.6-.1-1-.1-1.4,.1Zm-2.2,2.3c.1,.3,0,.7-.2,1.2l-.2,.5-1.9-.6,.1-.5c.2-.5,.3-.9,.5-1.1,.2-.2,.5-.3,.9-.1,.6,.1,.8,.3,.8,.6Zm3.3,1.7l-.3,1-2-.6,.3-1c.3-1,.8-1.3,1.4-1.2,.7,.3,.9,.9,.6,1.8Zm-3.2-10.4l-1,2.2,6.1,2.8c.7,.3,1.1,.5,1.2,.6,.2,.1,.3,.3,.3,.4v.5c-.1,.2-.1,.4-.3,.7l1.9,.5c.2-.2,.3-.5,.4-.8,.3-.7,.4-1.3,.3-1.8-.1-.5-.4-.9-.8-1.2-.4-.3-.9-.6-1.6-.9l-6.5-3Zm10.1-4.3l-2,3.1-1.5-.9,1.8-2.9-1.4-.9-1.8,2.9-1.3-.8,1.9-3-1.4-.9-3.2,5.1,6.9,4.3,3.3-5.2-1.3-.8Zm5-7.3c-.1,.3-.1,.6-.2,.8s-.2,.5-.4,.9c-.2,.3-.4,.6-.6,.9-.3,.4-.7,.6-1.1,.8-.4,.2-.8,.2-1.2,.1-.4-.1-.8-.2-1.1-.5s-.6-.7-.7-1.1c-.1-.4-.1-.8,.1-1.3,.1-.4,.4-.8,.7-1.2,.4-.4,.7-.7,1.1-.9,.4-.2,.8-.3,1.3-.5l-1.6-1.4c-1.1,.6-1.9,1.2-2.6,1.9-.4,.5-.7,1-1,1.5-.2,.5-.4,1.1-.4,1.6,0,.6,.1,1.1,.3,1.6s.6,1,1.1,1.5c.5,.4,.9,.7,1.5,.9,.5,.2,1.1,.3,1.6,.2,.6-.1,1.1-.2,1.6-.5s1-.7,1.5-1.2c.3-.3,.5-.6,.7-.9,.2-.3,.4-.6,.5-.9,.2-.3,.3-.7,.4-1.1l-1.5-1.2Zm4.2-10.3l-6.7,5.1,1.2,1.6,2.4-1.8,3.7,4.9,1.9-1.5-3.7-4.9,2.4-1.8-1.2-1.6Zm4.2-2.3l-2.1,1.2,4,7.1,2.1-1.2-4-7.1Zm7.6-3.4l-.1,5.1-3.4-3.7-2.4,.9,6.3,6.4,1.5-.6,.4-9-2.3,.9Zm11.8,3.8l-3.6,.7-.3-1.7,3.3-.7-.3-1.6-3.3,.7-.3-1.5,3.5-.7-.3-1.6-5.9,1.2,1.6,8,6-1.2-.4-1.6Zm68.9,63.5l.8,2.6,8.8,.9-.8-2.4-1.8-.1-1.1-3.4,1.4-1.1-.8-2.4-6.5,5.9Zm5.6,.9l-3.2-.2,2.5-2,.7,2.2Zm-8-16.7l4.6,1.4-4.3,2.2,.1,1.7,4.6,1.6-4.4,2,.2,2.5,7.9-4.1-.1-1.4-4.9-1.8,4.6-2.5-.1-1.4-8.5-2.9,.3,2.7Zm7.3-10.3l-.5,3.7-6.1-.9-.4,2.4,8,1.2,.9-6.1-1.9-.3Zm-.3-6.9l-2.6-4.1-.8,2.5,2.5,3.9-3.4-1.2-.8,2.3,7.7,2.6,.8-2.3-3.6-1.2,4.6-1.7,1-2.8-5.4,2Zm2.4-13.3l-4.2,7.3,1.7,1,1.5-2.6,5.3,3,1.2-2.1-5.3-3,1.5-2.6-1.7-1Zm7.2-8.7l-1.6,1.8,2.2,2-2.4,2.8-2.2-2-1.6,1.8,6.1,5.4,1.6-1.8-2.4-2.1,2.4-2.8,2.4,2.1,1.6-1.8-6.1-5.4Zm11.9-1.3c-.6-.3-1.1-.5-1.3-.6-.3-.1-.5-.1-.8,0,.1-.2,.2-.4,.2-.7,.1-.2,.1-.5,0-.8,0-.3-.2-.6-.4-1-.2-.3-.5-.5-.9-.7s-.8-.3-1.3-.2c-.5,0-1,.3-1.6,.7l-3.3,2.5,4.9,6.5,2-1.5-1.9-2.5,.2-.2c.2-.2,.4-.3,.6-.3,.2-.1,.4,0,.7,0,.3,.1,.7,.3,1.2,.5l1.4,.8,2.1-1.6-1.8-.9Zm-4.1-.7c-.1,.2-.4,.5-.9,.9l-.4,.3-1.2-1.6,.4-.3c.4-.3,.8-.5,1.1-.5s.5,.1,.8,.4c.2,.3,.3,.5,.2,.8Zm11.6-7.5c-.4-.4-.8-.6-1.4-.8-.5-.2-1.1-.2-1.7-.2s-1.3,.2-2,.6c-.9,.4-1.6,1-2,1.6-.5,.7-.7,1.3-.7,2.1,0,.7,.1,1.4,.4,2.1,.3,.7,.8,1.2,1.3,1.6,.6,.4,1.3,.7,2.1,.7s1.6-.1,2.5-.6c.9-.4,1.6-1,2-1.6,.5-.6,.7-1.3,.7-2s-.1-1.4-.4-2.1c-.1-.6-.4-1.1-.8-1.4Zm-1,3.4c0,.4-.1,.7-.3,1s-.5,.5-.9,.7c-.6,.3-1.1,.3-1.6,.2-.5-.2-.9-.6-1.2-1.1-.3-.6-.3-1.1-.1-1.6s.6-.9,1.1-1.2c.3-.2,.6-.2,.9-.3s.5,0,.8,.1c.2,.1,.5,.2,.7,.4s.4,.4,.5,.7c0,.4,.1,.8,.1,1.1Zm11.1-8.7l-2.4,.6,.9,3.8c.1,.5,.2,1,.1,1.3-.1,.4-.2,.7-.5,.9-.2,.2-.5,.4-.9,.5s-.7,.1-1,0-.6-.3-.8-.6-.4-.7-.5-1.2l-.9-3.7-2.4,.6,1.1,4.4c.2,.9,.6,1.5,1.2,2,.6,.4,1.2,.7,1.9,.8s1.4,0,2-.1c.5-.1,.9-.3,1.4-.5s.9-.5,1.2-.9,.6-.8,.7-1.4c.1-.5,.1-1.1,0-1.8l-1.1-4.7Zm10.9,3l-3.2,.1,.1,1.6h1.1v1c-.3,.1-.7,.1-1,.2-.5,0-1-.1-1.4-.3s-.7-.5-.9-.8-.3-.7-.3-1.1c0-.3,.1-.7,.2-1.1,.2-.4,.4-.7,.9-1,.4-.3,1-.4,1.7-.5,.6,0,1.1,0,1.5,.2,.4,.1,.8,.3,1.2,.5l-.1-1.9c-.6-.2-1.1-.3-1.5-.4-.5-.1-1.1-.1-1.8-.1-.4,0-.8,.1-1.2,.1-.4,.1-.7,.2-1.1,.3-.4,.2-.7,.4-1.1,.7-.4,.4-.7,.8-.9,1.4-.2,.6-.3,1.2-.3,1.8,0,.9,.3,1.7,.7,2.3s1,1.1,1.7,1.3c.7,.3,1.5,.4,2.3,.4,.4,0,.8,0,1.2-.1s.7-.1,1.1-.2c.2-.1,.4-.1,.5-.2,.1,0,.2-.1,.4-.1,.1,0,.3-.1,.4-.2l-.2-3.9Zm11.6-2l-2.4-.4-.5,2.9-3.6-.6,.5-2.9-2.4-.4-1.4,8,2.4,.4,.5-3.1,3.6,.6-.5,3.1,2.4,.4,1.4-8Zm163,64.6c-.3,.2-.5,.4-.6,.7-.2,.3-.3,.6-.3,1.1,0,.4,0,.9,.2,1.4l1.1,3.9,7.8-2.3-.7-2.3-2.9,.9-.5-1.5c-.2-.5-.4-.9-.6-1.3-.3-.3-.5-.6-.8-.7-.3-.2-.6-.2-.9-.3-.3,0-.6,0-.9,.1-.4,0-.7,.1-.9,.3Zm2.1,2c.2,.1,.3,.2,.4,.4s.2,.5,.3,.9l.1,.5-1.9,.5-.1-.5c-.2-.6-.2-1-.1-1.2s.3-.4,.7-.6c.2-.1,.4-.1,.6,0Zm-4.7-8.3l.3,2.7,8.5,2.6-.3-2.5-1.7-.5-.4-3.5,1.6-.8-.3-2.5-7.7,4.5Zm5.3,1.9l-3.1-.8,2.8-1.5,.3,2.3Zm-5.4-9.9l-.1,2.4,8.1,.3,.1-2.4-8.1-.3Zm7.5-8.8c-.7,.2-1.1,.3-1.4,.5-.2,.1-.4,.3-.6,.5-.1-.2-.2-.5-.3-.6-.1-.2-.3-.4-.5-.6-.3-.2-.6-.3-1-.4-.3-.1-.7,0-1.1,.1s-.8,.4-1.1,.7c-.3,.4-.6,.9-.7,1.6l-.7,4.1,8,1.4,.4-2.4-3.1-.5v-.3c0-.3,.1-.5,.2-.7s.3-.3,.6-.5,.7-.3,1.2-.4l1.5-.4,.4-2.6-1.8,.5Zm-3.4,2.3c.1,.2,.1,.7,0,1.2l-.1,.5-1.9-.3,.1-.5c.1-.5,.2-.9,.4-1.1,.2-.2,.5-.3,.8-.2,.4,0,.6,.1,.7,.4Zm7.7-13.1l-1.5,3.4-1.6-.7,1.4-3.1-1.5-.7-1.4,3.1-1.4-.6,1.4-3.3-1.5-.7-2.4,5.5,7.4,3.3,2.5-5.6-1.4-.6Zm1.7-7.5l-1.4-4.8-1.7,2.5,.3,1c.1,.4,.3,.9,.6,1.6-.7,0-1.4,.1-1.9,.1l-.9,.1-1.8,2.6,5.1-.5,1.5,5.2,1.8-2.6-.3-1.1c-.1-.5-.3-1.1-.6-1.8,.2,0,.5,0,1-.1,.5,0,.8-.1,.8-.1l1.3-.1,1.8-2.6-5.6,.6Zm9.1-7.6c-.1,.3-.2,.6-.2,.8-.1,.3-.2,.5-.4,.8-.2,.3-.4,.6-.7,.9-.4,.3-.7,.6-1.2,.7s-.8,.1-1.2,0c-.4-.1-.7-.3-1-.6s-.5-.7-.6-1.1c-.1-.4,0-.8,.2-1.3,.2-.4,.4-.8,.8-1.1,.4-.4,.8-.6,1.2-.8,.4-.2,.8-.3,1.3-.4l-1.5-1.5c-1.1,.5-2,1.1-2.7,1.7-.4,.4-.8,.9-1.1,1.4s-.5,1-.5,1.6c-.1,.6,0,1.1,.2,1.6s.5,1.1,1,1.6c.4,.4,.9,.8,1.4,1s1,.3,1.6,.3,1.1-.1,1.6-.4c.5-.2,1.1-.6,1.6-1.1l.8-.8c.2-.3,.4-.6,.6-.9,.2-.3,.3-.7,.4-1l-1.6-1.4Zm7-3.8l-3,2.1-1-1.4,2.8-2-.9-1.3-2.8,2-.9-1.2,2.9-2.1-.9-1.3-4.9,3.5,4.7,6.6,5-3.5-1-1.4Zm7.7-3.9c-.5-.5-.9-.7-1.2-.9-.2-.1-.5-.2-.8-.2,.1-.2,.3-.4,.4-.6,.1-.2,.2-.4,.2-.8,0-.3-.1-.7-.2-1-.2-.3-.4-.6-.7-.9-.3-.3-.8-.4-1.3-.5s-1.1,0-1.7,.3l-3.8,1.8,3.5,7.3,2.2-1-1.3-2.9,.2-.1c.3-.1,.5-.2,.7-.2s.4,.1,.7,.2c.3,.1,.6,.4,1.1,.8l1.2,1,2.4-1.1-1.6-1.2Zm-3.9-1.5c-.1,.2-.5,.4-1,.7l-.5,.2-.8-1.8,.5-.2c.5-.2,.9-.3,1.2-.3s.5,.2,.7,.6c0,.3,0,.5-.1,.8Zm12.5-1.8c-.2,.2-.4,.4-.6,.6-.2,.2-.5,.4-.8,.5-.3,.2-.7,.3-1,.4-.5,.1-.9,.1-1.3,0s-.8-.3-1.1-.6c-.3-.3-.5-.6-.6-1-.1-.5-.1-.9,.1-1.3,.2-.4,.4-.7,.8-1,.3-.3,.8-.5,1.2-.6,.5-.1,1-.2,1.4-.1,.4,.1,.9,.2,1.3,.3l-.5-2.1c-1.2-.1-2.3,0-3.2,.2-.6,.2-1.1,.4-1.6,.7s-.9,.7-1.2,1.1c-.3,.4-.6,1-.7,1.5-.1,.6-.1,1.2,.1,1.9,.2,.6,.4,1.1,.7,1.5,.3,.4,.7,.8,1.2,1.1s1,.4,1.6,.5c.6,0,1.2,0,1.9-.2,.4-.1,.7-.2,1.1-.3,.3-.1,.7-.3,1-.5s.6-.4,.9-.7l-.7-1.9Zm3.5-5.9l-2.4,.3,1,8.1,2.4-.3-1-8.1Zm8.1,4.4c-.2-.3-.5-.6-.9-.8s-.9-.5-1.5-.8c-.4-.2-.6-.3-.7-.4-.1-.1-.2-.3-.2-.4,0-.2,.1-.3,.2-.4,.1-.1,.4-.2,.7-.2,.5,0,.9,.1,1.3,.3s.8,.4,1.1,.6v-1.9c-.1-.1-.3-.2-.5-.3s-.6-.2-1-.3-.8-.1-1.3-.1c-.6,0-1.2,.1-1.6,.3s-.8,.5-1,.8c-.2,.4-.3,.7-.3,1.2s.1,.8,.3,1.2,.5,.6,.8,.8,.7,.4,1.2,.6c.4,.2,.7,.3,.9,.5,.2,.2,.3,.3,.3,.6,0,.1-.1,.3-.2,.4-.1,.1-.4,.2-.8,.2-.5,0-.9-.1-1.3-.3s-.8-.4-1.2-.6v2c.4,.2,.9,.3,1.3,.4,.4,.1,.7,.2,1,.2h.6c.6,0,1.1-.1,1.6-.3s.8-.5,1.1-.8c.3-.4,.4-.8,.4-1.3,.1-.5,0-.9-.3-1.2Zm8,3l-3.6-.6,.3-1.7,3.4,.5,.3-1.6-3.4-.5,.2-1.5,3.5,.6,.3-1.6-5.9-.9-1.3,8,6,1,.2-1.7Zm23,66.6c-1.1,.2-2.2,.2-3.3,.2h0c-.4,0-.7,0-1-.1h-.3c-2-.2-4-.7-5.8-1.5-.2,.7-.4,1.2-.4,1.3-.6,2-1.3,1.9-2.2,0-.7-1.4-2-3.9-2.8-4.7-.4-.4-3-.4-3.6,.1-1,.8-2.3,3.4-2.8,4.6-1,2.2-1.5,2.3-2.2,0-1.2-4.3-2.4-6.6-3.9-12.5-1,1-1.7,2.5-2.1,4.1v.5c0,.4-.1,.8-.3,1-.4,1.1-2.1,1.1-2.1-.3v-.5c.1-3.5-.8-6.4-3.7-8.6-.4,2.4-1.2,4.5-2.5,5.9-.7,.7-1.5,1.3-2.4,1.8-.6,.3-1.8,.5-3.3,.6v.1c0,.3-.2,.5-.5,.7,.3,.2,.5,.4,.5,.7s-.2,.5-.5,.7c.3,.2,.5,.4,.5,.7s-.2,.5-.5,.7c.3,.2,.5,.4,.5,.7s-.2,.5-.5,.7c.3,.2,.5,.4,.5,.7s-.3,.6-.7,.8c1.9,.4,3.2,1.3,3.2,1.7v.7c0,.5-2.5,.9-5.7,.9-3.1,0-5.7-.4-5.7-.9v-.7c0-.4,1.6-1.4,3.9-1.8,.1-.3,.4-.6,.6-.8h-.8c-.7-.1-1.1-.1-1.1-.5s.4-.4,1.1-.5c.2,0,.5,0,.8-.1v-.3h-.8c-.7-.1-1.1-.1-1.1-.5s.4-.4,1.1-.5h.8v-.3h-.8c-.7-.1-1.1-.1-1.1-.5s.4-.4,1.1-.5h.8v-.3h-.8c-.7-.1-1.1-.1-1.1-.5s.4-.4,1.1-.5c.2,0,.5,0,.8-.1v-.2c-2.3-.1-4.4-.4-5.4-.9-1.3-.8-2.3-1.9-3.1-3.3-1-1.7-1.4-3.7-1.6-5.6-6.5-.5-8.9-4.3-9.3-7.7-.2-1.8,2.3-2.3,2.6-1.1,.7,2.5,2.4,5.6,6.7,5.8,.2-2.1,.8-4,1.5-5.5,2.7-5.7,8-8.9,13.2-10.4-.4,3.4,2,2.9,5.5,8.4,1.5,2.3,2.2,5.2,2.4,8,2.4,1.6,4.3,3.4,5.3,6.4,.6-.9,1.2-1.7,2-2.4-.9-8.5,2.5-17,5.5-20.6l2.5,4.2c1.8-.5,5.1-.4,7,0l2.8-4.1c2.7,3.8,6.2,12.4,5.1,20.3,2.7,2,4,5.7,4,9.2,0,.7-.4,1-.8,1.1l.7,.7h0l.1,.1,.2,.2c.3,.3,.5,.5,.6,.8,.7,.9,1.3,2,1.8,3.2,.7,.7,.6,.9-.2,1Zm-45.3-2.2c0-.1-.3-.2-.7-.4-.2,.1-.4,.1-.6,.1v.3c.1,.1,.2,.3,.3,.5,.6-.2,1-.4,1-.5Zm0-1.4c0-.1-.3-.2-.7-.4-.2,.1-.4,.1-.6,.1v.5c.2,0,.4,.1,.6,.1,.5-.1,.7-.2,.7-.3Zm0-1.5c0-.1-.3-.2-.7-.4-.2,.1-.4,.1-.6,.1v.5c.2,0,.4,.1,.6,.1,.5,0,.7-.2,.7-.3Zm0-1.4c0-.1-.3-.2-.7-.4-.2,.1-.4,.1-.6,.1v.5c.2,0,.4,.1,.6,.1,.5-.1,.7-.2,.7-.3Zm0-1.5h0c-.5-.1-.9,0-1.3,0v.3c.2,0,.4,.1,.6,.1,.5-.1,.7-.3,.7-.4Zm41,.7c-.4-2.2-1.3-4.3-2.7-5.6-.1,.2-.1,.4-.2,.6h0s-.4,1.3-.9,3c1.4,.4,2.7,1.1,3.8,2Z"/><path class="ax" d="M161.6,395.58l-71.7-24.5v-8.1h71.7v32.6Zm253.5-32.6h-71.7v8.1l71.7,24.5v-32.6h0Zm253.5,0h-71.7v8.1l71.7,24.5v-32.6Zm253.4,0h-71.7v8.1l71.7,24.5v-32.6Z"/></svg>