<svg version="1.1" id="Layer_1" xmlns="http://www.w3.org/2000/svg" xmlns:xlink="http://www.w3.org/1999/xlink" x="0" y="0" viewBox="0 0 500 200" style="enable-background:new 0 0 500 200" xml:space="preserve"><style>.st0{fill:#e22484}.st9{fill:#973087}.st10{opacity:.5;fill:#fff}.st16{fill:#53a5dc}.st42{fill:#ee9144}.st45{fill:#0087cb}</style><path class="st0" d="M442.2 122.4c.1.7-.2 1.3-.8 1.9-.5.5-1.2.9-2.1 1.3-1.7.8-4.1 1.5-6.7 1.9-.8.1-1.6.2-2.3.3-2.1.2-4 .2-5.4-.1-.8-.1-1.4-.3-1.9-.6-.6-.4-1-.8-1.1-1.4-.1-.7.2-1.3.8-1.9.5-.5 1.2-.9 2.1-1.3 1.7-.8 4.1-1.5 6.7-1.9.8-.1 1.6-.2 2.3-.3 2.1-.2 4-.2 5.4.1.8.1 1.4.3 1.9.6.7.4 1 .9 1.1 1.4zm-3.4.9.5-.7-.7-.5c-.3-.2-.9-.4-1.7-.5-.5-.1-1-.1-1.5-.1-.6 0-1.2 0-1.8.1-.6.1-1.2.1-1.9.2-1.6.3-3.2.7-4.4 1.2-1 .4-1.7.9-2 1.3l-.5.7.7.5c.3.2.9.4 1.7.5.9.1 2.1.1 3.3 0 .6-.1 1.2-.1 1.8-.2 1.6-.3 3.2-.7 4.4-1.2 1.1-.5 1.8-.9 2.1-1.3zM440.7 110.8c.2 1.1-.5 2-1.1 2.6-.7.7-1.8 1.3-3.1 2-2.7 1.3-6.4 2.3-10.3 3-1.2.2-2.4.4-3.6.5-3.3.3-6.2.3-8.4-.1-1.2-.2-2.1-.5-2.8-.9-1.1-.6-1.4-1.3-1.5-1.9-.2-1.1.5-2 1.1-2.6.7-.7 1.8-1.3 3.1-2 2.7-1.3 6.4-2.3 10.3-3 1.2-.2 2.4-.4 3.6-.5 3.3-.3 6.2-.3 8.4.1 1.2.2 2.1.5 2.8.9 1.1.6 1.5 1.4 1.5 1.9zm-7.7 2.9c2.1-.9 3.1-1.8 2.9-2.7-.1-.7-1-1.2-2.7-1.5-1.4-.2-3.4-.2-5.6 0-.9.1-1.9.2-2.9.4-2.8.5-5.4 1.2-7.3 2-2.1.9-3.1 1.8-2.9 2.7.1.7 1 1.2 2.7 1.5 1.4.2 3.4.2 5.6 0 .9-.1 1.9-.2 2.9-.4 2.8-.5 5.4-1.2 7.3-2zM438.2 96.9c.2 1-.3 2.1-1.4 3.1-.9.9-2.3 1.7-4.1 2.6-3.5 1.7-8.3 3.1-13.6 3.9-1.6.3-3.2.5-4.8.6-4.2.4-8.1.4-11-.2-1.5-.3-2.7-.6-3.6-1.1-1.1-.6-1.7-1.3-1.8-2.2-.2-1 .3-2.1 1.4-3.1.9-.9 2.3-1.7 4.1-2.6 3.5-1.7 8.3-3.1 13.6-3.9 1.6-.3 3.2-.5 4.8-.6 4.2-.4 8.1-.4 11 .2 1.5.3 2.7.6 3.6 1.1 1 .6 1.6 1.3 1.8 2.2zm-10.1 3.7c2.7-1.1 4-2.3 3.8-3.4-.2-.9-1.3-1.5-3.4-1.8-1.9-.3-4.5-.3-7.4 0-1.2.1-2.5.3-3.8.5-3.7.6-7.1 1.6-9.6 2.6-2.7 1.1-4 2.3-3.8 3.4.2.9 1.3 1.5 3.4 1.8 1.9.3 4.5.3 7.4 0 1.2-.1 2.5-.3 3.8-.5 3.8-.5 7.1-1.5 9.6-2.6z"/><defs><path id="SVGID_1_" d="M378 49.3c-3.6 4.3-15 18.9-19.1 25-1.9 2.8-1.4 4.7 2 3.8 6.5-1.6 18.5-6.3 21.1-7.8 3.3-1.9-.7-25-4-21z"/></defs><clipPath id="SVGID_00000119108799299395207410000016470241588389450936_"><use xlink:href="#SVGID_1_" style="overflow:visible"/></clipPath><linearGradient id="SVGID_00000054960513894195763890000015627152615610358411_" gradientUnits="userSpaceOnUse" x1="-1276.947" y1="5.701" x2="-1276.947" y2="174.754" gradientTransform="scale(-1 1) rotate(5.538 -651.334 9449.683)"><stop offset="0" style="stop-color:#e22284"/><stop offset="1" style="stop-color:#5d3188"/></linearGradient><path style="clip-path:url(#SVGID_00000119108799299395207410000016470241588389450936_);fill:url(#SVGID_00000054960513894195763890000015627152615610358411_)" d="M380 45.8c-4.5 5.3-18.7 23.5-23.8 31.1-2.3 3.5-1.7 5.8 2.5 4.8 8.1-2 23-7.8 26.3-9.7 4.1-2.4-.9-31.1-5-26.2z"/><path style="opacity:.3;clip-path:url(#SVGID_00000119108799299395207410000016470241588389450936_);fill:#221e21" d="M384.6 58.7c-2.8 5.3-18.7 16.6-29.9 20.1s15.7 2.1 16.1 2.2c.4.1 23.4-8.8 23.4-8.8l-9.6-13.5z"/><defs><path id="SVGID_00000115473513637632368970000003299696253564529325_" d="M381.6 81.9c13.7 19.3 45.2 13.6 55.8-.6 20.4-27.3-7.1-67.9-9.5-74.2l-6.4 7.7L405.1 0l-12.2 16.8-4.9-7.6c-5.4 8-25.6 45.8-6.4 72.7z"/></defs><clipPath id="SVGID_00000104688110291162184770000000115958123077222800_"><use xlink:href="#SVGID_00000115473513637632368970000003299696253564529325_" style="overflow:visible"/></clipPath><linearGradient id="SVGID_00000107553552240424142780000005983195252218523285_" gradientUnits="userSpaceOnUse" x1="947.898" y1="12.714" x2="947.898" y2="153.702" gradientTransform="rotate(-5.538 462.14 5619.268)"><stop offset="0" style="stop-color:#e22284"/><stop offset="1" style="stop-color:#5d3188"/></linearGradient><path style="clip-path:url(#SVGID_00000104688110291162184770000000115958123077222800_);fill:url(#SVGID_00000107553552240424142780000005983195252218523285_)" d="m462.6 107.3-92.9 9-11.9-123 92.9-9z"/><path style="opacity:.3;clip-path:url(#SVGID_00000104688110291162184770000000115958123077222800_);fill:#221e21" d="M379.2 78.2c8 8.3 14.6 12.3 33.5 10.5 18.9-1.8 26-11.8 30.2-18.6 4.2-6.7-.3 19.2-.3 19.2l-22 6.6-31.4.4-10-18.1z"/><path style="opacity:.3;clip-path:url(#SVGID_00000104688110291162184770000000115958123077222800_);fill:#fff;mix-blend-mode:overlay" d="M355.5-17.4c-34 67.5 67.8 92.8 75.4 37.8 3-21.8-21.3-59.2-45.1-41.9-23.8 17.3-23.2-10-30.3 4.1z"/><path class="st0" d="M382.3 82.9c17.7 3.4 46.7-1.5 59-8-.5 1.3-1.5 2.9-1.5 2.9-7.3 5.7-43.8 12-55.4 7.3-.1.1-1.5-1.3-2.1-2.2z"/><g><defs><path id="SVGID_00000114752223577758836090000002530478948626944166_" d="M434.7 54.1c-1.4-14.5-18.7-21.7-30.3-11.8-12.4-6-29.3.4-27.5 18.4 2.5 25 60.3 17.8 57.8-6.6z"/></defs><clipPath id="SVGID_00000084523406305086100200000015023969527457021338_"><use xlink:href="#SVGID_00000114752223577758836090000002530478948626944166_" style="overflow:visible"/></clipPath><path style="opacity:.3;clip-path:url(#SVGID_00000084523406305086100200000015023969527457021338_);fill:#221e21" d="M439.6 54.1C438.2 39.6 422 29.2 403.3 31c-18.6 1.8-32.6 15.1-31.2 29.6 1.4 14.5 17.7 24.9 36.3 23.1 18.7-1.8 32.6-15.1 31.2-29.6z"/><linearGradient id="SVGID_00000035492861891688220610000012436404734187670923_" gradientUnits="userSpaceOnUse" x1="960.852" y1="43.216" x2="927.508" y2="106.822" gradientTransform="rotate(-5.538 462.14 5619.268)"><stop offset="0" style="stop-color:#d9d9d9"/><stop offset=".101" style="stop-color:#d4d4d4"/><stop offset=".661" style="stop-color:#bababa"/><stop offset="1" style="stop-color:#b1b1b1"/></linearGradient><path style="clip-path:url(#SVGID_00000084523406305086100200000015023969527457021338_);fill:url(#SVGID_00000035492861891688220610000012436404734187670923_)" d="M432.4 54.6c-1.2-12.4-13.4-20.3-27.6-11.4-18.7-7-26.8 6.7-24.7 16.6 4.8 22.3 54.6 17.5 52.3-5.2z"/><path style="clip-path:url(#SVGID_00000084523406305086100200000015023969527457021338_);fill:#e7e7e8" d="M431.2 53.3c-1.6-10.4-14.7-17.8-27.7-8.8-14.7-4.8-21.7 5.1-20.9 13.5 2.3 22.4 52.3 18.4 48.6-4.7z"/></g><g><path class="st9" d="M394.8 53.2c-.2-2-2-3.4-3.9-3.2-2 .2-3.4 2-3.2 3.9.2 2 2 3.4 3.9 3.2 1.9-.1 3.4-1.9 3.2-3.9z"/><path class="st9" d="M393.6 47.4c-5.2.5-9.1 5.2-8.6 10.4s5.2 9.1 10.4 8.6 9.1-5.2 8.6-10.4c-.5-5.3-5.2-9.1-10.4-8.6zm.1 1.3c4.5-.4 8.5 2.9 8.9 7.4.1 1 0 2-.2 2.9l-15.3 1.5c-.4-.9-.7-1.8-.8-2.8-.4-4.5 2.9-8.5 7.4-9z"/><path class="st10" d="M388.1 53c-.2-1 .6-2 1.8-2.1 1.1-.1 2.2.6 2.4 1.6.2 1-.6 2-1.8 2.1-1.2.1-2.3-.6-2.4-1.6z"/><g><path class="st9" d="M418.7 50.9c-.2-2-2-3.4-3.9-3.2-2 .2-3.4 2-3.2 3.9.2 2 2 3.4 3.9 3.2 1.9-.1 3.4-1.9 3.2-3.9z"/><path class="st9" d="M417.4 45.1c-5.2.5-9.1 5.2-8.6 10.4s5.2 9.1 10.4 8.6 9.1-5.2 8.6-10.4c-.5-5.3-5.1-9.1-10.4-8.6zm.2 1.3c4.5-.4 8.5 2.9 8.9 7.4.1 1 0 2-.2 2.9L411 58.2c-.4-.9-.7-1.8-.8-2.8-.4-4.5 2.9-8.5 7.4-9z"/><path class="st10" d="M411.9 50.7c-.2-1 .6-2 1.8-2.1 1.1-.1 2.2.6 2.4 1.6.2 1-.6 2-1.8 2.1-1.1.1-2.2-.6-2.4-1.6z"/></g></g><path d="M444.4 54.2c.5 7.9-.6 12.6-2.3 12.7-1.7.1-3.4-5.4-3.8-12.4-.4-6.9.6-12.6 2.3-12.7 1.7-.1 3.4 4.5 3.8 12.4z" style="fill:#e7e7e8"/><g><defs><path id="SVGID_00000052798847414994089060000000127323607951945888_" d="M441.4 43.9c4.3 3.5 18.4 15.6 23.6 20.9 2.4 2.4 2.3 4.3-1.2 4.2-6.7-.3-19.3-2.6-22.2-3.6-3.7-1.4-4.2-24.8-.2-21.5z"/></defs><clipPath id="SVGID_00000173144801776695519030000016389279261226565299_"><use xlink:href="#SVGID_00000052798847414994089060000000127323607951945888_" style="overflow:visible"/></clipPath><linearGradient id="SVGID_00000059299028203915946720000016469144381485290372_" gradientUnits="userSpaceOnUse" x1="989.08" y1="6.782" x2="989.08" y2="175.84" gradientTransform="rotate(-5.538 462.14 5619.268)"><stop offset="0" style="stop-color:#e22284"/><stop offset="1" style="stop-color:#5d3188"/></linearGradient><path style="clip-path:url(#SVGID_00000173144801776695519030000016389279261226565299_);fill:url(#SVGID_00000059299028203915946720000016469144381485290372_)" d="M438.8 40.8c5.4 4.4 22.9 19.4 29.3 26 3 3 2.8 5.4-1.5 5.2-8.3-.4-24-3.2-27.6-4.5-4.6-1.6-5.2-30.7-.2-26.7z"/><path style="opacity:.3;clip-path:url(#SVGID_00000173144801776695519030000016389279261226565299_);fill:#221e21" d="M436.8 54.4c3.8 4.7 21.5 12.7 33.2 14 11.6 1.3-15 5.1-15.4 5.3-.4.2-24.6-4.1-24.6-4.1l6.8-15.2z"/></g><path class="st0" d="M389.8 89.6c13.8 3.7 36.4.1 45.7-6.2-1.3 1.6-3.9 3.3-3.9 3.3-4.4 4.4-30.4 8.7-38 4.8.1.1-2-.8-3.8-1.9z"/><path class="st0" d="M389.8 89.6c13.8 3.7 36.4.1 45.7-6.2-1.3 1.6-3.9 3.3-3.9 3.3-4.4 4.4-30.4 8.7-38 4.8.1.1-2-.8-3.8-1.9z"/><g><defs><path id="SVGID_00000037662712512987795700000014558784755531921587_" d="M140.9 62c1.1-5.2 8.2-3.9 7.7.8-1.1 11.1-16.3 20.4-20.5 23.3-1.4 1-7.3-7.2-5.4-7.9 6.9-2.4 16.4-7.9 18.2-16.2z"/></defs><clipPath id="SVGID_00000029751926638848273150000015076193805458366372_"><use xlink:href="#SVGID_00000037662712512987795700000014558784755531921587_" style="overflow:visible"/></clipPath><linearGradient id="SVGID_00000034811767587180917330000005449090536358557627_" gradientUnits="userSpaceOnUse" x1="358.265" y1="165.279" x2="358.265" y2="251.772" gradientTransform="rotate(-9.355 -535.275 1498.157)"><stop offset="0" style="stop-color:#3698ce"/><stop offset="1" style="stop-color:#3161aa"/></linearGradient><path style="clip-path:url(#SVGID_00000029751926638848273150000015076193805458366372_);fill:url(#SVGID_00000034811767587180917330000005449090536358557627_)" d="M142.7 57.7c1.6-7.5 11.4-7.6 11 1.1-.8 16-23.3 29.1-29.3 33.2-2 1.4-10.4-10.3-7.7-11.2 9.9-3.4 23.5-11.2 26-23.1z"/><path style="opacity:.3;clip-path:url(#SVGID_00000029751926638848273150000015076193805458366372_);fill:#2b2523" d="M148.6 61.8s-1.9 6.9-8.5 13.1c-8.6 8-17.8 10.4-17.8 10.4l4.6 4.8s14-1.9 14.7-2.2c.7-.3 5.2-8.3 5.3-8.8.1-.5 3.9-17.1 3.9-17.1l-2.2-.2z"/><path class="st16" d="M130.3 146.3c-.5-1.5-.6-2-.6-2l-34.2 10.9s.4 1.3.6 2c.5 1.5 8.5.3 18-2.8 9.4-2.9 16.7-6.6 16.2-8.1z"/><path d="M118.3 142.4c.6-.8.9-1.5.8-2.3-.1-.5-1.1-.9-2.3-1 .7-.8.9-1.6.6-2.3-.3-.7-1.2-1-2.4-1.2.7-.9.9-1.7.5-2.4s-1.3-1.1-2.4-1.3c.7-.9.9-1.7.5-2.5s-1.3-1.2-2.4-1.5c.7-.9.9-1.7.5-2.6-.4-.8-1.2-1.3-2.4-1.6.7-.9.9-1.8.6-2.6-.3-.8-1.2-1.4-2.3-1.8.7-.9 1-1.8.7-2.7-.3-.9-1.1-1.5-2.2-1.9.7-.9 1.1-1.8.8-2.7-.2-.9-1-1.5-2.1-2 .8-.9 1.1-1.8.9-2.8-.2-.9-.9-1.6-2-2 .8-.9 1.2-1.9 1-2.8-.2-.9-.9-1.6-1.9-2.1.8-.9 1.3-2 1.1-2.9-.8-3.3-6.2-3.2-9-2.5.1.9.1 1.4.2 2.3 3.7-.9 6.5 0 6.9.6-.1.4-.6 1-1.7 1.8-1.5-.2-3.3 0-5 .4-2 .5-3.9 1-5.2 1.6-1.7.7-2.8 1.2-2.7 2.5.1 1.3 1.2 1.3 3 1 1.4-.2 3.3-.6 5.4-1.1 1.7-.4 3.4-1.1 4.8-1.9 1.2.2 1.9.5 2.1.8-.1.4-.6 1-1.7 1.8-1.6-.2-3.4 0-5.1.4-2.1.5-4 1.1-5.4 1.6-1.8.7-2.9 1.2-2.8 2.5.1 1.3 1.4 1.2 3.3 1 1.4-.2 3.4-.6 5.6-1.1 1.7-.4 3.5-1.1 4.9-2 1.2.2 2 .5 2.2.8-.1.4-.6 1-1.6 1.8-1.6-.1-3.5 0-5.2.5-2.1.5-4.1 1.1-5.6 1.6-1.8.7-3 1.2-2.8 2.5.2 1.3 1.5 1.2 3.5.9.7-.1 1.6-.2 2.5-.4.1.4.2.7.3 1.1-.9.3-1.7.5-2.5.8-1.9.7-3.1 1.2-2.8 2.5.3 1.3 1.7 1.2 3.7.9.8-.1 1.7-.3 2.7-.5.1.4.2.7.4 1.1-1 .3-1.9.6-2.6.9-1.9.7-3.2 1.2-2.8 2.5.4 1.3 1.8 1.1 3.9.8.8-.1 1.8-.3 2.9-.6.1.3.3.7.4 1-1 .3-2 .6-2.8.9-1.9.7-3.2 1.3-2.8 2.5.5 1.2 1.9 1.1 4 .7.9-.2 1.9-.4 3-.6.1.3.3.7.4 1-1.1.3-2.1.7-2.9 1-2 .7-3.2 1.3-2.7 2.5s2 1 4.1.6c.9-.2 1.9-.4 3-.7.1.3.3.6.4 1-1.1.4-2 .7-2.9 1.1-1.9.8-3.2 1.4-2.7 2.5.5 1.2 2 .9 4.1.4.8-.2 1.8-.5 2.9-.8.1.3.3.6.4.9-1 .4-2 .8-2.8 1.1-1.9.8-3.2 1.5-2.6 2.6.5 1.1 2 .8 4.1.3.8-.2 1.7-.5 2.8-.8.1.3.3.6.4.9-1 .4-1.8.8-2.6 1.1-1.9.9-3.1 1.6-2.6 2.6.5 1.1 1.9.7 4 .1.4-.1.7-.2 1.2-.4 0 .2-.1.4-.1.6-6.4 3.3-10.3 7.9-9.9 9.1.5 1.5 8.5.3 18-2.8 9.5-3 16.7-6.7 16.3-8.2-.5-1.3-5.3-2.6-11.5-2.1zm-1.1-1.4c-.4.6-.9 1.2-1.5 1.7h-.2c-.4-.5-.9-.9-1.4-1.2.3-.2.5-.4.8-.5 1.2-.2 2-.1 2.3 0zm-1.7-3.3c0 .3-.5.9-1.4 1.7l-1.8.3c-.2-.4-.4-.9-.6-1.3.5-.3 1-.6 1.4-.9 1.3-.1 2.1 0 2.4.2zm-1.9-3.7c0 .3-.5.9-1.4 1.7-.5.1-1.1.1-1.6.2-.2-.5-.4-1-.7-1.4.4-.3.9-.5 1.3-.8 1.3 0 2.1.1 2.4.3zm-1.9-3.9c0 .3-.5 1-1.4 1.7-.5 0-1 .1-1.5.2-.2-.5-.5-1-.7-1.5.4-.2.8-.5 1.2-.7 1.2 0 2.1.1 2.4.3zm-1.9-4.1c0 .3-.5 1-1.5 1.7-.5 0-1 0-1.5.1-.2-.5-.5-1.1-.7-1.6.4-.2.8-.5 1.2-.7 1.3.1 2.2.3 2.5.5zm-1.8-4.3c0 .3-.5 1-1.5 1.7-.5 0-1 0-1.6.1-.2-.5-.4-1.1-.7-1.6.5-.2.9-.5 1.3-.8 1.4.1 2.2.4 2.5.6zm-1.6-4.4c0 .3-.5 1-1.5 1.7h-1.7c-.2-.5-.4-1.1-.6-1.6.5-.3 1-.5 1.5-.8 1.2.1 2.1.4 2.3.7zm-3.6-5.4c1.2.2 2 .5 2.3.7 0 .4-.6 1-1.6 1.7h-1.8c-.2-.5-.3-1.1-.5-1.6.5-.2 1.1-.5 1.6-.8z" style="fill:#3161aa"/><defs><path id="SVGID_00000108299513680704437370000014059504527780569003_" d="M66.2 114.4c3.2 4 7.1 6.9 11.5 8.8 7.8 2.7 34.5-1.7 40.4-5.6 2.7-2 5-4.4 6.7-6.9 8.7-13 5.7-40.3-7.7-55.9-13.9-15.8-21.4-12.9-21.7-24C79.6 38.1 64.6 50.7 59 70c-3.5 11.9-3.2 31.4 7.2 44.4z"/></defs><clipPath id="SVGID_00000159429282772697525690000008905106938021104810_"><use xlink:href="#SVGID_00000108299513680704437370000014059504527780569003_" style="overflow:visible"/></clipPath><linearGradient id="SVGID_00000030471098728202512690000001564404435267655592_" gradientUnits="userSpaceOnUse" x1="371.875" y1="-454.47" x2="358.274" y2="-351.114" gradientTransform="rotate(-16.046 1933.768 806.89)"><stop offset="0" style="stop-color:#3698ce"/><stop offset="1" style="stop-color:#3161aa"/></linearGradient><path style="clip-path:url(#SVGID_00000159429282772697525690000008905106938021104810_);fill:url(#SVGID_00000030471098728202512690000001564404435267655592_)" d="m143.9 113.4-77.6 22.3L39.9 44l77.7-22.3z"/><path style="opacity:.3;clip-path:url(#SVGID_00000159429282772697525690000008905106938021104810_);fill:#2b2523" d="M64.2 111.7c10.5 10.9 57.3 7.8 63.4-6.9 1.7-4 1.6 10.3 1.6 10.3l-13.7 10.5-37.9 7.9-20.8-8.4 7.4-13.4z"/><path style="opacity:.3;clip-path:url(#SVGID_00000159429282772697525690000008905106938021104810_);fill:#fff;mix-blend-mode:overlay" d="M104.4 41.4C145.5 71 44.2 98.5 61.9 60.1 68.2 46.3 78 10.5 93.3 20.2c15.4 9.7 3.1 15.5 11.1 21.2z"/><g><defs><path id="SVGID_00000119833135184683422160000015036979575244167350_" d="M69.5 95.4c-.8-3.2-1.3-6.4-1.2-9.7 0-2.7.7-5.3.9-8 .2-2.7 3.6-13.6 3.6-13.6l5.5 1.3 4.1-6.4 5.8 2.3 3.7-5.3 6.6 3.5 3.5-3.7s13.6 9.3 16.8 13c3.2 3.6 5.3 8.1 6.4 12.8 3.1 12.6-53 24.9-55.7 13.8z"/></defs><clipPath id="SVGID_00000119818947368053479870000015152382314713710485_"><use xlink:href="#SVGID_00000119833135184683422160000015036979575244167350_" style="overflow:visible"/></clipPath><path style="opacity:.3;clip-path:url(#SVGID_00000119818947368053479870000015152382314713710485_);fill:#2b2523" d="M61 88.2C57.5 74 69.8 58.6 88.7 53.8c18.8-4.8 37 2.9 40.5 17.1 3.5 14.2-8.8 29.6-27.7 34.4-18.8 4.8-36.9-2.9-40.5-17.1z"/><linearGradient id="SVGID_00000119095957081112522950000004603185952681566875_" gradientUnits="userSpaceOnUse" x1="104.27" y1="59.353" x2="72.628" y2="137.979"><stop offset="0" style="stop-color:#d9d9d9"/><stop offset=".101" style="stop-color:#d4d4d4"/><stop offset=".661" style="stop-color:#bababa"/><stop offset="1" style="stop-color:#b1b1b1"/></linearGradient><path style="clip-path:url(#SVGID_00000119818947368053479870000015152382314713710485_);fill:url(#SVGID_00000119095957081112522950000004603185952681566875_)" d="M69.5 95c-4-16.1 2.7-27 19.7-31.3 17.2-4.4 28.6 4.8 31.9 18.4C124 93.9 72 105.3 69.5 95z"/><path style="clip-path:url(#SVGID_00000119818947368053479870000015152382314713710485_);fill:#eeeef0" d="M71.1 93.1C66.5 81.6 72.6 68.8 88 64.9c15.6-4 27.6 4.1 29 16.7 1.3 11.5-41.7 22.2-45.9 11.5z"/></g><g><path class="st16" d="M95.2 91.3c-6.1 1-7.8-2.3-7.8-2.3l14.7-2.9s-.5 4.1-6.9 5.2z"/></g><g><defs><path id="SVGID_00000094608342135162057430000000228768061173086853_" d="M58.2 96.2c-.9-5.5-.4-8.8 1-9.1 1.4-.2 3.2 3.4 4 8.2.8 4.8.4 8.8-1 9.1-1.4.3-3.1-2.7-4-8.2z"/></defs><clipPath id="SVGID_00000056424647440492552100000011889558432812966032_"><use xlink:href="#SVGID_00000094608342135162057430000000228768061173086853_" style="overflow:visible"/></clipPath><path style="clip-path:url(#SVGID_00000056424647440492552100000011889558432812966032_);fill:#b0afb2" d="M58.2 96.2c-1.3-7.6-.4-8.8 1-9.1 1.4-.2 3.2 3.4 4 8.2.8 4.8.4 8.8-1 9.1-1.4.3-2.7-.6-4-8.2z"/><path style="clip-path:url(#SVGID_00000056424647440492552100000011889558432812966032_);fill:#eeeef0" d="M58.8 96.2c-1-5.8-.2-8.2 1.1-8.4 1.4-.2 3.1 3.1 3.9 7.6.8 4.4.2 8.2-1.1 8.4-1.4.2-3-2.5-3.9-7.6z"/></g><g><defs><path id="SVGID_00000013915642815082527180000013162788292550360200_" d="M60.7 90.7c-.5-.1-1.3-.2-1.8-.3-6.9-1.3-16.8-4.9-22.4-14.2-2.3-3.9-10.1 0-7.7 4.2 5.9 10.5 15.4 16.3 30.1 19.9.3.1 1.1.2 1.4.3 3.4.9 3.2-8.9.4-9.9z"/></defs><clipPath id="SVGID_00000110433317716832344470000008730432470202454927_"><use xlink:href="#SVGID_00000013915642815082527180000013162788292550360200_" style="overflow:visible"/></clipPath><linearGradient id="SVGID_00000178202455802199113230000017964195155003300539_" gradientUnits="userSpaceOnUse" x1="267.901" y1="171.695" x2="267.901" y2="248.35" gradientTransform="rotate(-9.355 -535.275 1498.157)"><stop offset="0" style="stop-color:#3698ce"/><stop offset="1" style="stop-color:#3161aa"/></linearGradient><path style="clip-path:url(#SVGID_00000110433317716832344470000008730432470202454927_);fill:url(#SVGID_00000178202455802199113230000017964195155003300539_)" d="M67.8 89.8c-10.3-1.6-26.5-6.6-35.5-21.5-3.5-5.8-15.1 0-11.5 6.3 8.9 16 23.6 24.6 46.1 30 5.8 1.4 6.2-11.8.9-14.8z"/><path style="opacity:.3;clip-path:url(#SVGID_00000110433317716832344470000008730432470202454927_);fill:#2b2523" d="M28.7 80.5s10.5 11.3 20.1 14.4c4.7 1.6 7.9 1.9 9.9 1.6 3.4-.4 2.9-5.7.8-6-.2-2.2 8.3-2.9 8.3-2.9l3.5 17.3s-35.8-8.6-36.1-9c-.3-.4-8.2-14.2-8.2-14.2l1.7-1.2z"/></g><g><path class="st16" d="M82.3 75.5c1.2-.2 2.3.1 3.2.8.9.7 1.5 1.7 1.7 2.8.4 3-2.7 3.7-3.7 3.9h-.1c-1 .1-4.2.4-4.7-2.7-.3-2.3 1.3-4.4 3.6-4.8m-.2-.9c-2.8.4-4.8 3.1-4.4 5.9.4 2.8 2.9 3.9 5.8 3.5h.1c2.8-.4 4.9-2.1 4.5-5-.4-2.8-3.1-4.8-6-4.4.1 0 0 0 0 0z"/><path class="st16" d="M84.8 78.6c-.2-1.2-1.3-2.1-2.6-1.9-1.2.2-2.1 1.3-1.9 2.6.2 1.2 1.3 2.1 2.6 1.9 1.3-.2 2.1-1.4 1.9-2.6z"/><path class="st16" d="m78.3 81.1 9.4-1.4s-.2 3.1-4.2 3.7c-4.1.6-5.2-1.7-5.2-2.3z"/><path class="st10" d="M81.3 79.4c-.5-.2-.7-.9-.4-1.5.3-.6 1-.8 1.5-.6.5.2.7.9.4 1.5-.4.6-1 .9-1.5.6z"/></g><g><path class="st16" d="M103.1 72.3c1.2-.2 2.3.1 3.2.8.9.7 1.5 1.7 1.7 2.8.4 3-2.7 3.7-3.7 3.9h-.1c-1 .1-4.2.4-4.7-2.7-.3-2.2 1.3-4.4 3.6-4.8m-.1-.9c-2.8.4-4.8 3.1-4.4 5.9.4 2.8 2.9 3.9 5.8 3.5h.1c2.8-.4 4.9-2.1 4.5-5-.5-2.8-3.1-4.8-6-4.4z"/><path class="st16" d="M105.7 75.4c-.2-1.2-1.3-2.1-2.6-1.9-1.2.2-2.1 1.3-1.9 2.6.2 1.2 1.3 2.1 2.6 1.9 1.2-.2 2.1-1.4 1.9-2.6z"/><path class="st16" d="m99.1 78 9.4-1.4s-.2 3.1-4.2 3.7c-4 .5-5.1-1.8-5.2-2.3z"/><path class="st10" d="M102.2 76.2c-.5-.2-.8-.9-.5-1.4.3-.6.9-.9 1.4-.7.5.2.8.9.5 1.4-.2.6-.9 1-1.4.7z"/></g></g><g><defs><path id="SVGID_00000111901816279900165100000007186180398473707403_" d="M253.8 164.1c-8.3 2.3-7 1.7-5.1 7.2 6.6 18.8 33.4 23.3 53.3 16.9 2.5-.8 2.7-1.2.9-4.1-10.8-18.1-30.8-25.1-49.1-20z"/></defs><clipPath id="SVGID_00000165226201296698189380000000837004706151147692_"><use xlink:href="#SVGID_00000111901816279900165100000007186180398473707403_" style="overflow:visible"/></clipPath><linearGradient id="SVGID_00000151512171064567063270000005837586667791294094_" gradientUnits="userSpaceOnUse" x1="258.392" y1="118.605" x2="279.918" y2="191.154"><stop offset="0" style="stop-color:#f3ad48"/><stop offset="1" style="stop-color:#ee773e"/></linearGradient><path style="clip-path:url(#SVGID_00000165226201296698189380000000837004706151147692_);fill:url(#SVGID_00000151512171064567063270000005837586667791294094_)" d="M253.8 164.1c-8.3 2.3-7 1.7-5.1 7.2 6.6 18.8 33.4 23.3 53.3 16.9 2.5-.8 2.7-1.2.9-4.1-10.8-18.1-30.8-25.1-49.1-20z"/><path style="clip-path:url(#SVGID_00000165226201296698189380000000837004706151147692_);fill:#fde92b" d="M292.8 172.2c2.4 3.8 2.8 14.7-4.9 18.5 1.5-.1 2.5-.2 3.9-.4 3.7-1.7 6.8-10 4.2-15.4-.7-.9-1.9-1.6-3.2-2.7z"/><path style="opacity:.3;clip-path:url(#SVGID_00000165226201296698189380000000837004706151147692_);fill:#231f20" d="M265.8 166.1c1.7 6.9 9.3 24.4 37.7 21.4-2.2 1.1-21.8 10.9-40.8 3.3-19.1-7.5 3.1-24.7 3.1-24.7z"/><defs><path id="SVGID_00000127728066490758397010000008733204515026408624_" d="M211.2 145.2c-16.4-.5-25-8.1-29-18.4-2.2-5.6 5-9.9 9-3.7 6.2 9.9 13.2 9.8 20 11 4.7.7 4.6 11.2 0 11.1z"/></defs><clipPath id="SVGID_00000110429412374937105560000002748571541461033660_"><use xlink:href="#SVGID_00000127728066490758397010000008733204515026408624_" style="overflow:visible"/></clipPath><linearGradient id="SVGID_00000120555061028536582480000006569894817090591872_" gradientUnits="userSpaceOnUse" x1="209.858" y1="73.609" x2="189.7" y2="182.556"><stop offset="0" style="stop-color:#f3ad48"/><stop offset="1" style="stop-color:#ee773e"/></linearGradient><path style="clip-path:url(#SVGID_00000110429412374937105560000002748571541461033660_);fill:url(#SVGID_00000120555061028536582480000006569894817090591872_)" d="M172.3 112.3h51.9v47.9h-51.9z"/><path style="opacity:.3;clip-path:url(#SVGID_00000110429412374937105560000002748571541461033660_);fill:#231f20" d="M184 130.6c2.1 2.2 7 9.8 30 10.7 23.1.9 9.4 10.5 9.4 10.5s-40.3-3-40.5-3.5c-.2-.4-4.3-26.3-4.2-26.8.1-.5 2.7 6.4 5.3 9.1z"/><g><defs><path id="SVGID_00000075880345869383410730000006740265056173834917_" d="m272.6 82.5-13.1 9.2c-5.6-1.6-7.9-2.2-12.8-3l-.2-12.9c-18.1 12.2-30.8 28.7-35.4 58.3-3.2 21.1 1.1 49.5 9.3 62.5 2.8 4.5 6.3 4.8 6-2-.2-5.7 1.6-14.1 4.5-17.1 2.6-2.8 7.5-.9 8.9.3 3.3 2.8 5.5 12.1 8.8 17.9 3.2 5.6 6 5.9 6.7-.7 1.5-13.8 8.9-18.9 16.7-35.1 11.6-23.7 10.5-56.6.6-77.4z"/></defs><clipPath id="SVGID_00000116951431918767618720000008452237640086763928_"><use xlink:href="#SVGID_00000075880345869383410730000006740265056173834917_" style="overflow:visible"/></clipPath><linearGradient id="SVGID_00000008138059824079190850000006536742743143105941_" gradientUnits="userSpaceOnUse" x1="248.018" y1="74.286" x2="246.158" y2="204.238"><stop offset="0" style="stop-color:#f3ad48"/><stop offset="1" style="stop-color:#ee773e"/></linearGradient><path style="clip-path:url(#SVGID_00000116951431918767618720000008452237640086763928_);fill:url(#SVGID_00000008138059824079190850000006536742743143105941_)" d="m274.8 211-80-15.2 24.6-126.1 80 15.1z"/><path style="opacity:.3;clip-path:url(#SVGID_00000116951431918767618720000008452237640086763928_);fill:#231f20" d="M265.3 157.8c-1.5.9.5 8.4-6.6 11.3-12.3 5-30.1 4.6-37.9 1.3-4.8-2.1-7.4-1.4-7.5 1.7-.2 10.1 4.7 25.2 6.9 27.2 6.1 5.7 17.1 5.2 32.8 5 4.6-.1 20.7-36.3 23.5-48.3.6-2.7-4.5-3.8-5.7-4.7-1.4-1-4.2 5.7-5.5 6.5z"/><path style="opacity:.3;clip-path:url(#SVGID_00000116951431918767618720000008452237640086763928_);fill:#fff;mix-blend-mode:overlay" d="M284.5 93.9c-1.3 5-6 1.5-5.5 6.1.7 6.2-1 14-4.2 17.2-19.1 19.3-51.2 21.5-67.3 6.8-2.4-2.2-16-39.7 3.3-64.3 28.6-36.3 84.9-10.7 73.7 34.2z"/></g><g><defs><path id="SVGID_00000155126702064517089370000016441535164074810004_" d="M271.6 152.1c-3 5.8-7.6 7.8-11.2 6-3.5-1.8-4.2-7.4-1.6-12.5s7.6-7.8 11.2-6c3.5 1.8 4.6 6.7 1.6 12.5z"/></defs><clipPath id="SVGID_00000114039993469692659380000003833091711120677518_"><use xlink:href="#SVGID_00000155126702064517089370000016441535164074810004_" style="overflow:visible"/></clipPath><path style="clip-path:url(#SVGID_00000114039993469692659380000003833091711120677518_);fill:#a7a9ac" d="M271.6 152.1c-4.2 8.1-7.6 7.8-11.2 6-3.5-1.8-4.2-7.4-1.6-12.5s7.6-7.8 11.2-6c3.5 1.8 5.8 4.4 1.6 12.5z"/><path style="clip-path:url(#SVGID_00000114039993469692659380000003833091711120677518_);fill:#e9e9ea" d="M269.1 152.2c-3.2 6.2-7.3 7.1-10.8 5.2-3.5-1.8-4.4-7.1-2-11.8 2.4-4.7 7.3-7.1 10.8-5.2 3.6 1.8 4.8 6.4 2 11.8z"/><path style="clip-path:url(#SVGID_00000114039993469692659380000003833091711120677518_);fill:#a7a9ac" d="m268.7 148 10.4.3-11.7 15.1-7.3-10.4z"/></g><linearGradient id="SVGID_00000018237125572964492230000000573590911183872144_" gradientUnits="userSpaceOnUse" x1="375.714" y1="247.112" x2="375.714" y2="365.89" gradientTransform="rotate(10.704 1143.576 -217.851)"><stop offset="0" style="stop-color:#ed8943"/><stop offset="1" style="stop-color:#f4783b"/></linearGradient><g><defs><path id="SVGID_00000003086346319009540950000007090287185396638347_" d="M238.6 144c17.7 2.3 26.1-9.4 25.4-17.9-.1-1.9-5.9-6.5-6.6-8.9-.5 1.9.1 4.6.7 6.2-5.3-1.2-9.2-7.9-9.6-9.6-.6 1.8-.5 5.8.7 7.1-3.6-1.2-9.5-5.7-10.5-9.1-1.1 1.8-.3 6.1 1.5 7.2-4.5-1.1-8.3-4.4-10.6-7.7-.2 2.3.3 4.7 2 6.8-4-1-7.3-3-9.4-6.6-10.7 9.6-5.5 29.7 16.4 32.5z"/></defs><clipPath id="SVGID_00000081623747093669365480000016950716185142343863_"><use xlink:href="#SVGID_00000003086346319009540950000007090287185396638347_" style="overflow:visible"/></clipPath><path style="opacity:.3;clip-path:url(#SVGID_00000081623747093669365480000016950716185142343863_);fill:#221e20" d="M214.9 124.2c-1.1 10.8 7.5 21.7 22.3 25.3 14.8 3.6 28.9-1.6 31.5-12.2 2.6-10.6-7.5-28.3-22.3-31.9-15-3.7-30.1 5.4-31.5 18.8z"/><linearGradient id="SVGID_00000109005297253457745280000004359356216398726531_" gradientUnits="userSpaceOnUse" x1="892.315" y1="97.156" x2="841.3" y2="47.148" gradientTransform="scale(-1 1) rotate(-7.348 756.344 8688.981)"><stop offset="0" style="stop-color:#d9d9d9"/><stop offset=".101" style="stop-color:#d4d4d4"/><stop offset=".661" style="stop-color:#bababa"/><stop offset="1" style="stop-color:#b1b1b1"/></linearGradient><path style="clip-path:url(#SVGID_00000081623747093669365480000016950716185142343863_);fill:url(#SVGID_00000109005297253457745280000004359356216398726531_)" d="M219.5 118.8c-2.9 12 4.9 22.3 18.5 24 13.9 1.8 22.6-3.5 25.1-13.6 4.9-20.4-38.9-29.7-43.6-10.4z"/><path style="clip-path:url(#SVGID_00000081623747093669365480000016950716185142343863_);fill:#e8e8e9" d="M239.7 141.6c17.7 2.3 22.6-8.1 23.3-16 .2-1.9-5.9-5-6.6-7.4-.5 1.9-.3 3.8.3 5.4-5.3-1.2-8.4-4.9-8.8-6.6-.6 1.8-.8 2.6-.5 4-3.6-1.2-8.2-3.3-9.1-6.7-1.1 1.8-1.1 3.9.6 5-4.5-1.1-6.5-2.2-8.9-5.6-.5 2.3-.4 2.6.4 4.5-2.5-.5-3.8-1.2-4.9-1.9-1.1-.7-2.2-.2-2.8 1.3-3.2 8.6.8 21.9 17 24z"/><g><path class="st42" d="M236.5 136.8c-.8 0-1.9-.8-1.2-2 .4-.7 1.1-.5 1.6-.3.3.1.6.5.7.9.1.3.1.6-.1.9-.2.4-.6.5-1 .5z"/></g><g><path class="st42" d="M254.4 125c-.2 1.6-1.8 2.7-3.4 2.5-1.6-.2-2.7-1.8-2.5-3.4.2-1.6 1.8-2.7 3.4-2.5 1.6.3 2.8 1.8 2.5 3.4z"/><path class="st42" d="M249.9 132.5c2.7.4 5.6-.3 5.9-2.4.7-4.3-1.2-8.2-4.2-8.7-2.8-.4-5.6 2.3-6.5 6.1-.1.3-.1.6-.2.8-.3 2.3 2.3 3.8 5 4.2zm5-3.4-8.7-1.4c.8-3.3 3.1-5.6 5.3-5.3 2.1.3 3.6 3.3 3.4 6.7z"/><path class="st10" d="M252.1 122.8c-.2-.7-1-1.1-1.7-.9-.8.2-1.2 1-1.1 1.7.2.7 1 1.1 1.7.9.8-.2 1.3-1 1.1-1.7z"/></g><g><path class="st42" d="M233.2 121.8c-.2 1.6-1.8 2.7-3.4 2.5-1.6-.2-2.7-1.8-2.5-3.4.2-1.6 1.8-2.7 3.4-2.5 1.7.2 2.8 1.8 2.5 3.4z"/><path class="st42" d="M228.7 129.3c2.7.4 5.6-.3 5.9-2.4.7-4.3-1.2-8.2-4.2-8.7-2.8-.4-5.6 2.3-6.5 6.1-.1.3-.1.6-.2.8-.3 2.2 2.3 3.7 5 4.2zm5-3.4-8.7-1.4c.8-3.3 3.1-5.6 5.3-5.3 2.2.3 3.7 3.3 3.4 6.7z"/><path class="st10" d="M230.9 119.6c-.2-.7-1-1.1-1.7-.9-.8.2-1.2 1-1.1 1.7.2.7 1 1.1 1.7.9.8-.2 1.3-1 1.1-1.7z"/></g></g><g><defs><path id="SVGID_00000088828164343217073420000006878394175817907630_" d="M261.7 154.4c17.1 6.4 29.3 3 38.2-5.6 4.9-4.7-.4-12.4-7.3-7.9-11 7.1-17.6 3.2-25 1.1-5.3-1.5-10.8 10.6-5.9 12.4z"/></defs><clipPath id="SVGID_00000103966582489322081600000001310900365745249711_"><use xlink:href="#SVGID_00000088828164343217073420000006878394175817907630_" style="overflow:visible"/></clipPath><linearGradient id="SVGID_00000127044407020411107430000007031696021851064708_" gradientUnits="userSpaceOnUse" x1="290.709" y1="88.568" x2="270.552" y2="197.515"><stop offset="0" style="stop-color:#f3ad48"/><stop offset="1" style="stop-color:#ee773e"/></linearGradient><path style="clip-path:url(#SVGID_00000103966582489322081600000001310900365745249711_);fill:url(#SVGID_00000127044407020411107430000007031696021851064708_)" d="M253.4 125.7h51.9v47.9h-51.9z"/><path style="opacity:.3;clip-path:url(#SVGID_00000103966582489322081600000001310900365745249711_);fill:#231f20" d="M296.4 149.8c-3.1 1.6-11 7.8-35.7.3-24.7-7.5-13.8 7.7-13.8 7.7s43.7 11.6 44.1 11.2c.4-.4 14.2-26.3 14.2-26.8.2-.6-5 5.6-8.8 7.6z"/></g><path class="st45" d="M187.6 121.9c-1.6-4.8-1.1-7.7-.8-11.8.7-9.3-8.9-8.1-5.8.4 1.6 4.4 3.2 4.5 3 12.8 0 1.1 4-.1 3.6-1.4zM298.8 144.4c2.5-4.4 5.8-6.3 9.1-8.8 7.4-5.7 0-12-4.2-4.1-2.2 4.1-1.3 5.4-7.5 10.8-.8.7 1.9 3.2 2.6 2.1z"/><g><path d="M181.8 104.8c-1.3-5.5-4.1-10.7-5.6-16.3-1.7-5.6-2.6-11.7-1.6-17.7 2.4-15.4 17.3-24.3 30.7-29.4 13.6-5 25.3-14.6 39.8-17.4 17.7-3.7 34.8 5.4 48.6 15.7 25.6 18.7 42.3 43.7 26 75-2.7 5.2-5.9 10.1-9.4 14.8-.9 1.2-2.7-.2-1.8-1.4 3.6-4.5 6.8-9.3 9.5-14.3 12.7-23.1 6.4-44.3-11.8-62-15.6-14.8-38.3-31.2-60.8-26.4-14.3 3-25.8 12.8-39.4 17.8-20.5 7.8-35.1 21-27.6 44.5 1.2 4.1 2.9 8.1 4.4 12.2.5 1.4 1 2.8 1.3 4.4.1.6-.3 1.2-.9 1.3-.7.2-1.3-.2-1.4-.8z" style="fill:#005eaa"/></g></g></svg>