<svg version="1.1" id="Layer_1" xmlns="http://www.w3.org/2000/svg" x="0" y="0" viewBox="0 0 500 500" style="enable-background:new 0 0 500 500" xml:space="preserve"><style>.st6{fill:#fff}</style><path d="M424.4 124.7H75.7c-5.4 0-9.8 4.4-9.8 9.8v235.8h368.2V134.5c.1-5.4-4.3-9.8-9.7-9.8zM421 359.1H79.8V139.7H421v219.4z"/><linearGradient id="SVGID_1_" gradientUnits="userSpaceOnUse" x1="153.385" y1="289.757" x2="249.106" y2="251.338" gradientTransform="matrix(1 0 0 -1 0 500)"><stop offset="0" style="stop-color:#000"/><stop offset=".017" style="stop-color:#0a0a0a"/><stop offset=".119" style="stop-color:#434343"/><stop offset=".224" style="stop-color:#757575"/><stop offset=".329" style="stop-color:#9f9f9f"/><stop offset=".435" style="stop-color:#c2c2c2"/><stop offset=".543" style="stop-color:#ddd"/><stop offset=".652" style="stop-color:#f0f0f0"/><stop offset=".764" style="stop-color:#fbfbfb"/><stop offset=".883" style="stop-color:#fff"/><stop offset=".883" style="stop-color:#f6f6f6"/><stop offset=".888" style="stop-color:#c8c8c8"/><stop offset=".894" style="stop-color:#9d9d9d"/><stop offset=".899" style="stop-color:#777"/><stop offset=".906" style="stop-color:#575757"/><stop offset=".912" style="stop-color:#3b3b3b"/><stop offset=".92" style="stop-color:#252525"/><stop offset=".929" style="stop-color:#141414"/><stop offset=".941" style="stop-color:#090909"/><stop offset=".956" style="stop-color:#020202"/><stop offset="1" style="stop-color:#000"/></linearGradient><path d="M424.4 124.7H75.7c-5.4 0-9.8 4.4-9.8 9.8v235.8h368.2V134.5c.1-5.4-4.3-9.8-9.7-9.8zM421 359.1H79.8V139.7H421v219.4z" style="opacity:.16;fill:url(#SVGID_1_);enable-background:new"/><linearGradient id="SVGID_00000114070204662062927450000001139922204446005668_" gradientUnits="userSpaceOnUse" x1="18.538" y1="122.608" x2="483.747" y2="122.608" gradientTransform="matrix(1 0 0 -1 0 500)"><stop offset=".002" style="stop-color:#545454"/><stop offset=".005" style="stop-color:#6e6e6e"/><stop offset=".011" style="stop-color:#b1b1b1"/><stop offset=".017" style="stop-color:#f0f0f0"/><stop offset=".022" style="stop-color:#c8c8c8"/><stop offset=".029" style="stop-color:#9f9f9f"/><stop offset=".035" style="stop-color:#7e7e7e"/><stop offset=".042" style="stop-color:#676767"/><stop offset=".047" style="stop-color:#595959"/><stop offset=".052" style="stop-color:#545454"/><stop offset=".084" style="stop-color:#6f6f6f"/><stop offset=".141" style="stop-color:#989898"/><stop offset=".196" style="stop-color:#b9b9b9"/><stop offset=".249" style="stop-color:#d0d0d0"/><stop offset=".299" style="stop-color:#dedede"/><stop offset=".341" style="stop-color:#e3e3e3"/><stop offset=".52" style="stop-color:#e6e6e6"/><stop offset=".703" style="stop-color:#e3e3e3"/><stop offset=".947" style="stop-color:#545454"/><stop offset=".953" style="stop-color:#595959"/><stop offset=".96" style="stop-color:#666"/><stop offset=".967" style="stop-color:#7d7d7d"/><stop offset=".974" style="stop-color:#9d9d9d"/><stop offset=".982" style="stop-color:#c5c5c5"/><stop offset=".988" style="stop-color:#f0f0f0"/><stop offset=".99" style="stop-color:#e7e7e7"/><stop offset=".992" style="stop-color:#cfcfcf"/><stop offset=".995" style="stop-color:#a8a8a8"/><stop offset=".998" style="stop-color:#727272"/><stop offset="1" style="stop-color:#545454"/></linearGradient><path style="fill:url(#SVGID_00000114070204662062927450000001139922204446005668_)" d="M483.5 385.3h-467c-3.6 0-6.6-3-6.6-6.6v-9.2H490v9.2c.1 3.6-2.9 6.6-6.5 6.6z"/><radialGradient id="SVGID_00000009579947260342989760000009340179018186352267_" cx="-2355.228" cy="577.739" r="75.024" gradientTransform="matrix(.5 0 0 -.5 1427.614 660.612)" gradientUnits="userSpaceOnUse"><stop offset=".502" style="stop-color:#f2f2f2"/><stop offset=".875" style="stop-color:#919191"/><stop offset=".949" style="stop-color:#383838"/></radialGradient><path style="fill:url(#SVGID_00000009579947260342989760000009340179018186352267_)" d="M280.8 374h-61.5c-2.5 0-4.5-2-4.5-4.5h70.6c-.1 2.5-2.1 4.5-4.6 4.5z"/><linearGradient id="SVGID_00000144330661954440271230000007517924491500126650_" gradientUnits="userSpaceOnUse" x1="250" y1="114.817" x2="250" y2="121.202" gradientTransform="matrix(1 0 0 -1 0 500)"><stop offset="0" style="stop-color:#6b6b6b"/><stop offset=".141" style="stop-color:#4e4e4e"/><stop offset=".288" style="stop-color:#373737"/><stop offset=".426" style="stop-color:#292929"/><stop offset=".546" style="stop-color:#242424"/><stop offset="1" style="stop-color:#242424"/></linearGradient><path style="fill:url(#SVGID_00000144330661954440271230000007517924491500126650_)" d="M483.5 385.3h-467c-3.6 0-6.6-3-6.6-6.6H490c.1 3.6-2.9 6.6-6.5 6.6z"/><path d="M249.1 132.8c0-.5.4-1 1-1 .5 0 1 .4 1 1 0 .5-.4 1-1 1s-1-.5-1-1z" style="fill:#595667"/><radialGradient id="SVGID_00000030481933366143426610000018431654072206214313_" cx="-2355.092" cy="1055.598" r=".837" gradientTransform="matrix(.5 0 0 -.5 1427.614 660.612)" gradientUnits="userSpaceOnUse"><stop offset="0" style="stop-color:#fff"/><stop offset=".028" style="stop-color:#fff"/><stop offset=".883" style="stop-color:#fff"/><stop offset=".899" style="stop-color:#fff"/><stop offset="1" style="stop-color:#fff"/></radialGradient><path style="fill:url(#SVGID_00000030481933366143426610000018431654072206214313_)" d="M249.7 132.8c0-.2.2-.4.4-.4s.4.2.4.4-.2.4-.4.4c-.3 0-.4-.1-.4-.4z"/><g><path class="st6" d="M117.8 245c0 1.3-.2 2.4-.7 3.3-.5.9-1.1 1.6-1.9 2.2s-1.7.9-2.6 1.1c-.9.2-1.8.4-2.8.4-1.3 0-2.6-.2-3.8-.6-1.2-.4-2.3-1.2-3.1-2.3-.9-1.1-1.2-2.4-1.2-4.1v-8.4h4.6v7.2c0 1 .1 1.8.4 2.5.3.6.7 1.1 1.2 1.4s1.1.4 1.8.4c.6 0 1.3-.1 1.8-.4s.9-.8 1.2-1.4c.3-.6.4-1.5.4-2.5v-7.2h4.6l.1 8.4zM133.5 241.3c0 .6-.1 1.1-.3 1.6-.2.6-.5 1.1-.9 1.5-.4.5-1 .9-1.8 1.1-.7.3-1.6.4-2.6.4h-3v5.8h-4.6v-15.2h7.6c1 0 1.8.1 2.6.4.7.3 1.3.7 1.8 1.1.4.5.7 1 .9 1.6.2.6.3 1.2.3 1.7zm-4.7 0c0-.7-.2-1.2-.6-1.5-.4-.3-1.2-.4-2.3-.4h-1v3.7h1c.8 0 1.3-.1 1.8-.1s.7-.3.9-.5c.1-.2.2-.7.2-1.2zM149.3 241.3c0 .6-.1 1.1-.3 1.6-.2.6-.5 1.1-.9 1.5-.4.5-1 .9-1.8 1.1-.7.3-1.6.4-2.6.4h-3.1v5.8H136v-15.2h7.6c1 0 1.8.1 2.6.4.7.3 1.3.7 1.8 1.1.4.5.7 1 .9 1.6.2.6.4 1.2.4 1.7zm-4.7 0c0-.7-.2-1.2-.6-1.5-.4-.3-1.2-.4-2.3-.4h-1.1v3.7h1c.8 0 1.3-.1 1.8-.1s.7-.3.9-.5c.1-.2.3-.7.3-1.2zM165.9 240.3h-5.6v11.6h-4.6v-11.6H150v-3.7h15.8l.1 3.7zM182.9 251.8h-4.7l-1.3-3.1h-6.6l-1.3 3.1h-4.7l6.7-15.3h5.1l6.8 15.3zM172.3 234c0 .4-.1.8-.4 1.1-.3.3-.6.4-1.1.4s-.8-.1-1.1-.4c-.3-.3-.4-.6-.4-1.1s.1-.8.4-1.1c.3-.3.6-.4 1.1-.4s.8.1 1.1.4.4.7.4 1.1zm3.5 12-2.2-5.5-2.3 5.5h4.5zm2.1-12c0 .4-.1.8-.4 1.1-.3.3-.6.4-1.1.4s-.8-.1-1.1-.4c-.3-.3-.4-.6-.4-1.1s.1-.8.4-1.1c.3-.3.6-.4 1.1-.4s.8.1 1.1.4c.2.3.4.7.4 1.1zM197.5 250.6c-.6.4-1.3.6-1.9.8-.6.2-1.3.4-2 .4s-1.3.1-2.1.1c-1.3 0-2.5-.2-3.6-.6-1.1-.4-2-.9-2.8-1.6-.8-.7-1.3-1.6-1.7-2.5s-.6-2-.6-3.1c0-1.3.2-2.5.7-3.5.4-1 1.1-1.8 1.9-2.5.9-.6 1.8-1.1 2.8-1.4 1.1-.3 2.1-.5 3.3-.5 1.7 0 3.7.4 5.9 1.1v4c-.8-.5-1.5-.9-2.3-1.2-.7-.3-1.6-.5-2.6-.5-.9 0-1.7.1-2.5.5s-1.4.9-1.8 1.5c-.5.6-.7 1.4-.7 2.3 0 .8.2 1.5.6 2.1.4.6 1 1.1 1.7 1.6.7.4 1.6.6 2.5.6.7 0 1.4-.1 2.1-.3.6-.2 1.2-.4 1.6-.6.4-.2.9-.5 1.4-.8v4h.1zM216.1 251.8h-5.6l-5.8-7.2v7.2H200v-15.2h4.6v6.8l5.5-6.8h5l-5.7 7.2 6.7 8zM171.9 271.6h-4.6v-8.8l-4.1 5.1h-.4l-4.2-5.1v8.8h-4.5v-15.3h4.2l4.7 5.8 4.7-5.8h4.2v15.3zM185.9 271.6h-11.5v-15.3h11.3v3.1H179v2.8h6.4v3.1H179v3.3h6.9v3zM203.2 271.6h-5l-1.2-2.7c-.4-1-.9-1.7-1.2-2.2-.4-.4-.7-.8-1-.9-.4-.1-.8-.2-1.3-.2h-.5v6h-4.6v-15.3h7.8c1.3 0 2.3.3 3.1.8.8.5 1.4 1.1 1.8 1.8.4.7.6 1.4.6 2.1 0 .8-.1 1.4-.4 1.9-.3.5-.6.9-.9 1.1-.4.2-.7.5-1.1.7.5.3.9.6 1.2 1 .4.4.8 1.2 1.3 2.4l1.4 3.5zm-6.2-10.5c0-.7-.2-1.2-.7-1.5-.5-.3-1.2-.4-2.3-.4h-1v3.7h1c1.1 0 1.9-.1 2.3-.4.5-.1.7-.6.7-1.4zM222.1 271.6h-4.7l-1.3-3.1h-6.6l-1.3 3.1h-4.7l6.7-15.3h5.1l6.8 15.3zm-7-5.8-2.2-5.5-2.3 5.5h4.5z"/><g><path class="st6" d="m276 230 3.6 40.3-12.1 1.1-2.1-23.4-9.8 14.6-1 .1-12.2-12.7 2.1 23.4-11.9 1.1-3.6-40.3 11-1 13.8 14 11.1-16.2 11.1-1zM310 262.4c.6.1 1.6 0 2.8-.4l-1.1 5.4c-1.9.4-3.6.6-4.8.6s-2.8-.1-4.3-.4c-1.6-.3-2.6-.8-3.3-1.5-.6-.6-1-1.6-1.1-2.6-1.4.8-2.9 1.3-4.3 1.6-1.5.3-3.2.2-5.3-.2-2.1-.4-3.6-1.1-4.8-2.1-1.2-1-2-2.1-2.3-3.4-.4-1.2-.4-2.4-.1-3.6.6-3.3 2.8-5.4 6.5-6.4 1.6-.4 3.8-.9 6.5-1.1 1.9-.2 3.1-.4 3.5-.4 1.3-.1 2.3-.4 3-.5.2-1.1.2-1.9.1-2.6-.1-.7-.5-1.3-1.1-1.8-.6-.5-1.5-.9-2.8-1.1-4-.8-8.3.3-12.6 3.1l1.5-8c2.8-1.3 6-1.9 9.5-1.8 1.7 0 3.4.2 5 .5 4.2.8 7.2 2.2 9 4.3 1.8 2.1 2.5 4.5 1.9 7.4l-2.1 11.3c-.2 1.1-.3 1.8-.1 2.4-.1.9.2 1.3.8 1.3zm-16.2-2c.6.1 1.3.1 2.1-.1.7-.2 1.6-.6 2.6-1.1l1.3-6.9c-1.9.4-3.5.8-4.5 1.1-1.1.4-1.9.8-2.5 1.3-.6.5-1 1.3-1.1 2.1-.2.9-.1 1.7.4 2.3.3.8.9 1.1 1.7 1.3zM332.9 262.2c1.7-.1 3.8-.9 6.5-2.4l.4 8.2c-1.2.6-2.7 1.2-4.6 1.8s-3.7.9-5.3.9c-7.5.4-11.5-3.2-11.8-10.6l-.5-11.9-4.8.2-.1-1.8 13.4-15 1.2-.1.4 8.9 10-.4.4 7.3-10 .4.4 9.5c.1 1.3.1 2.2.4 2.8s.6 1.1 1.2 1.5c.6.6 1.5.8 2.8.7z"/><path class="st6" d="M359.7 255.1c1.7-.3 3.7-1.3 6.1-3.2l1.4 8.1c-1.1.8-2.6 1.6-4.3 2.3-1.8.8-3.6 1.3-5.1 1.6-7.5 1.3-11.8-1.7-13.1-8.9l-2.1-11.7-4.7.9-.4-1.8 11.4-16.6 1.2-.2 1.6 8.8 9.9-1.8 1.3 7.2-9.9 1.8 1.6 9.4c.2 1.3.5 2.1.7 2.8.3.6.7 1 1.4 1.3.7.2 1.7.2 3 0zM397.7 242.3c.8 2.7.6 5.8-.4 9.4l-.6 2.1-20.2-5.6c-.1 1.2.2 2.4.7 3.5.6 1.1 1.3 2.1 2.3 2.9 1 .9 2.1 1.4 3.5 1.8 3.4.9 7.5 1.1 12.1.3l-1.8 6.2c-2 .4-4.2.6-6.5.6-2.3-.1-4.9-.5-7.9-1.3-3.5-1-6.2-2.4-8.4-4.4-2.1-2-3.5-4.3-4.1-7-.6-2.6-.5-5.3.3-8.2.8-2.8 2.1-5.3 4-7.1 1.8-1.8 4.2-3.1 7-3.6 2.8-.6 6-.4 9.5.6 2.5.7 4.6 1.8 6.5 3.5 2 1.6 3.3 3.7 4 6.3zm-12.6-3.8c-1.7-.5-3.2-.3-4.5.6-1.3.9-2.3 2.1-2.8 4l10.9 3.1c.5-1.8.5-3.5-.1-4.8-.7-1.5-1.9-2.4-3.5-2.9z"/></g></g></svg>