<?xml version="1.0" encoding="UTF-8"?>
<svg id="Layer_1" xmlns="http://www.w3.org/2000/svg" version="1.1" viewBox="0 0 500 500">
  <!-- Generator: Adobe Illustrator 29.5.0, SVG Export Plug-In . SVG Version: 2.1.0 Build 137)  -->
  <defs>
    <style>
      .st0 {
        fill: #fff;
      }
    </style>
  </defs>
  <path class="st0" d="M400,262.3v24.5c0,2.3-1.8,4.1-4.1,4.1-1.1,0-2.1-.4-2.9-1.2-.8-.8-1.2-1.8-1.2-2.9v-4.5c-5.3,5.6-12.7,8.7-20.4,8.6-15.8,0-28.6-12.8-28.6-28.6h0c0-15.8,12.8-28.6,28.6-28.7,15.8,0,28.6,12.8,28.7,28.6h0ZM391.8,262.3c0-11.3-9.2-20.4-20.5-20.4s-20.4,9.2-20.4,20.5c0,11.3,9.2,20.4,20.5,20.4,5.4,0,10.6-2.2,14.4-6,3.9-3.8,6.1-9,6-14.5h0ZM335.9,237.7v49.1c0,2.3-1.8,4.1-4.1,4.1-2.2,0-4.1-1.8-4.1-4.1v-49.1c0-2.3,1.8-4.1,4.1-4.1,2.2,0,4.1,1.8,4.1,4.1ZM335.4,217.8c2,2,1.9,5.2,0,7.2s-5.2,1.9-7.2,0c-2-2-1.9-5.2,0-7.2.9-.9,2.2-1.4,3.5-1.4,1.4,0,2.7.5,3.6,1.5ZM314.3,240.2c-8.8-8.8-23-8.8-31.8,0,0,0,0,0,0,0-.9.9-1.7,1.9-2.5,2.9-.8-1-1.6-2-2.5-2.9-8.2-8.2-21.3-8.8-30.2-1.4v-1.1c0-2.3-1.9-4.1-4.2-4-2.2,0-4,1.8-4,4v49.1c0,.4,0,.8.2,1.1.2.7.5,1.3,1,1.8,1.6,1.6,4.2,1.6,5.8,0,.8-.8,1.2-1.8,1.2-2.9v-30.7c0-7.9,6.4-14.3,14.3-14.3,7.9,0,14.3,6.4,14.3,14.3h0v30.7c0,2.3,1.8,4.1,4.1,4.1,2.2,0,4.1-1.8,4.1-4.1v-30.7c0-7.9,6.3-14.4,14.2-14.5,7.9,0,14.4,6.3,14.5,14.2,0,0,0,.2,0,.3v30.7c0,2.3,1.9,4.1,4.2,4,2.2,0,4-1.8,4-4v-30.7c0-6-2.3-11.7-6.6-15.9ZM232.3,237.7v44.5c-3.2-.2-8.2-4.1-8.2-11.2v-33.3c0-2.3,1.9-4.1,4.2-4,2.2,0,4,1.8,4,4ZM231.8,217.8c2,2,2,5.2,0,7.2s-5.2,2-7.2,0h0c-2-2-2-5.2,0-7.2s5.2-2,7.2,0ZM224.1,284.8c-4.3-3.3-6.8-7.7-6.8-24.7v-47c0-2.3-1.9-4.1-4.2-4-2.2,0-4,1.8-4,4v29.1l-.2-.2c-11.2-11.2-29.3-11.2-40.5,0-5.4,5.4-8.4,12.6-8.4,20.2,0,15.8,12.8,28.6,28.6,28.6,7.6,0,14.9-3,20.3-8.4,0,0,.1-.1.2-.2,2.7,5.3,8.1,8.6,14.1,8.6,1.1,0,2.3-.1,3.4-.4,2.1-.5,4.1-1.6,5.7-3.1-2.9,0-5.8-.9-8.1-2.6ZM209,263.8c-.9,11.3-10.7,19.7-21.9,18.8-11.3-.9-19.7-10.7-18.8-21.9.9-11.3,10.7-19.7,21.9-18.8,10.1.8,18.1,8.8,18.8,18.8,0,.5,0,1,0,1.6s0,1,0,1.5h0ZM155.9,253.4c-4.9-15.1-21.1-23.3-36.1-18.4s-23.3,21.1-18.4,36.1c1.4,4.3,3.8,8.2,7,11.4,10.6,10.6,27.5,11.2,38.9,1.5.8-.8,1.2-1.8,1.2-2.9,0-2.3-1.8-4.1-4.1-4.1-.9,0-1.8.3-2.6.9-3.6,3.2-8.3,4.9-13.2,4.9-9.7,0-18.1-6.8-20.1-16.4h44.6c.6,0,1.3-.1,1.8-.4.4-.2.7-.5,1.1-.8.8-.8,1.2-1.8,1.2-2.9,0-3-.4-6-1.3-8.9ZM108.5,258.2c2.3-11.1,13.2-18.2,24.3-15.9,8,1.7,14.2,7.9,15.9,15.9h-40.2Z"/>
</svg>