<svg id="Layer_1" data-name="Layer 1" xmlns="http://www.w3.org/2000/svg" viewBox="0 0 1540 180"><defs><style>.cls-1{fill:#d71920;}.cls-2{fill:#414042;}.cls-3{fill:#231f20;}.cls-4{fill:#95c13c;}.cls-5{fill:#b2b2b2;}</style></defs><path class="cls-1" d="M675.2,108.619a3.262,3.262,0,0,1,3.253,3.252,3.238,3.238,0,0,1-.935,2.318,22.772,22.772,0,0,1-37.6-17.278,22.766,22.766,0,1,1,45.531,0,3.261,3.261,0,0,1-3.252,3.252H646.7a16.336,16.336,0,0,0,15.976,13.009,15.349,15.349,0,0,0,10.489-3.861A3.235,3.235,0,0,1,675.2,108.619Zm3.456-14.961a16.318,16.318,0,0,0-31.953,0Z"/><path class="cls-1" d="M730.973,63.575a3.252,3.252,0,0,1,6.5,0V96.911a22.766,22.766,0,1,1-38.864-16.1,22.77,22.77,0,0,1,32.2,0l.163.162Zm0,33.336a16.24,16.24,0,1,0-4.757,11.5A15.673,15.673,0,0,0,730.973,96.911Z"/><path class="cls-2" d="M754.551,64.389a4.094,4.094,0,1,1-1.2-2.867A3.91,3.91,0,0,1,754.551,64.389ZM747.233,77.4a3.253,3.253,0,0,1,6.505,0v39.027a3.253,3.253,0,0,1-6.505,0Z"/><path class="cls-2" d="M770,116.424a3.252,3.252,0,0,1-6.5,0V77.4a3.252,3.252,0,0,1,6.5,0v.855a17.035,17.035,0,0,1,11.383-4.106,17.232,17.232,0,0,1,12.643,5.244,19.9,19.9,0,0,1,1.992,2.317,20,20,0,0,1,1.992-2.317A17.888,17.888,0,0,1,828.54,92.033v24.391a3.253,3.253,0,0,1-6.5,0V92.033a11.383,11.383,0,1,0-22.766,0v24.391a3.252,3.252,0,0,1-6.5,0V92.033a11.383,11.383,0,1,0-22.766,0Z"/><path class="cls-2" d="M845.615,64.389a4.1,4.1,0,1,1-1.2-2.867A3.908,3.908,0,0,1,845.615,64.389ZM838.3,77.4a3.252,3.252,0,0,1,6.5,0v39.027a3.252,3.252,0,0,1-6.5,0Z"/><path class="cls-2" d="M893.584,112.848a22.2,22.2,0,0,1-16.261,6.829,22.763,22.763,0,0,1-22.765-22.766,22.766,22.766,0,1,1,45.532,0v19.513a3.253,3.253,0,0,1-6.506,0Zm-16.261-32.2a16.27,16.27,0,0,0-11.5,27.766,16.271,16.271,0,0,0,23.01-23.01A15.674,15.674,0,0,0,877.323,80.65Z"/><path d="M1398.618,98.9v17.777a2.957,2.957,0,0,1-5.053,2.087,2.851,2.851,0,0,1-.871-2.087v-3.259a20.219,20.219,0,0,1-14.8,6.217A20.736,20.736,0,0,1,1357.154,98.9a20.732,20.732,0,1,1,41.464,0Zm-5.924,0a14.789,14.789,0,1,0-4.331,10.48A14.265,14.265,0,0,0,1392.694,98.9Z"/><path d="M1352.207,81.127v35.547a2.962,2.962,0,0,1-5.924,0V81.127a2.962,2.962,0,0,1,5.924,0Z"/><path d="M1351.862,66.675a3.663,3.663,0,1,1-2.613-1.1A3.572,3.572,0,0,1,1351.862,66.675Z"/><path d="M1336.569,82.943a16.275,16.275,0,0,0-23.033,0,18.514,18.514,0,0,0-1.81,2.109,18.471,18.471,0,0,0-1.816-2.109,16.262,16.262,0,0,0-21.885-1.036v-.78a2.962,2.962,0,0,0-5.923,0v35.547a2.925,2.925,0,0,0,.113.819,2.8,2.8,0,0,0,.758,1.268,2.958,2.958,0,0,0,5.052-2.087V94.46a10.368,10.368,0,1,1,20.736,0v22.214a2.962,2.962,0,0,0,5.924,0V94.46a10.368,10.368,0,1,1,20.735,0v22.214a2.962,2.962,0,0,0,5.923,0V94.46A15.69,15.69,0,0,0,1336.569,82.943Z"/><path d="M1277.162,81.127v32.259c-2.286-.144-5.923-3-5.923-8.125V81.127a2.962,2.962,0,0,1,5.923,0Z"/><path d="M1276.809,66.675a3.689,3.689,0,1,1-5.217,5.218,3.689,3.689,0,1,1,5.217-5.218Z"/><path d="M1271.239,115.225c-3.123-2.41-4.94-5.569-4.94-17.9V63.281a2.966,2.966,0,0,0-5.931,0v21.1l-.142-.142a20.736,20.736,0,0,0-35.4,14.655,20.735,20.735,0,0,0,35.4,14.661c.045-.044.1-.1.142-.143a11.574,11.574,0,0,0,10.2,6.262,10.3,10.3,0,0,0,2.44-.292,9.084,9.084,0,0,0,4.122-2.246A10.22,10.22,0,0,1,1271.239,115.225Zm-10.908-15.2a14.809,14.809,0,1,1,0-2.252c-.023.376-.03.751-.03,1.127S1260.308,99.647,1260.331,100.022Z"/><path d="M1221.885,92.478a20.758,20.758,0,1,0-34.429,21.08,20.746,20.746,0,0,0,28.175,1.074,2.951,2.951,0,0,0,.849-2.109,2.976,2.976,0,0,0-2.966-2.958,2.93,2.93,0,0,0-1.847.63,13.981,13.981,0,0,1-9.549,3.514,14.89,14.89,0,0,1-14.557-11.847h32.327a2.872,2.872,0,0,0,1.321-.308,3.01,3.01,0,0,0,.766-.563,2.828,2.828,0,0,0,.871-2.094A20.869,20.869,0,0,0,1221.885,92.478Zm-34.324,3.46a14.866,14.866,0,0,1,29.106,0Z"/><path class="cls-3" d="M155.2,108.619a3.262,3.262,0,0,1,3.253,3.253,3.233,3.233,0,0,1-.935,2.316,22.771,22.771,0,0,1-37.6-17.277,22.767,22.767,0,0,1,38.864-16.1,21.941,21.941,0,0,1,6.667,16.1,3.262,3.262,0,0,1-3.253,3.252H126.7a16.338,16.338,0,0,0,15.976,13.01,15.341,15.341,0,0,0,10.489-3.863A3.24,3.24,0,0,1,155.2,108.619Zm3.456-14.96a16.317,16.317,0,0,0-31.953,0Z"/><path class="cls-3" d="M210.973,57.8a3.252,3.252,0,0,1,6.5,0V96.911a22.766,22.766,0,1,1-38.864-16.1,22.77,22.77,0,0,1,32.2,0l.163.164Zm0,39.108a16.241,16.241,0,1,0-4.757,11.5A15.675,15.675,0,0,0,210.973,96.911Z"/><path class="cls-3" d="M234.551,64.389a4.094,4.094,0,1,1-1.2-2.867A3.912,3.912,0,0,1,234.551,64.389Z"/><path class="cls-3" d="M227.233,77.4a3.253,3.253,0,0,1,6.5,0v39.028a3.253,3.253,0,0,1-6.5,0Z"/><path class="cls-3" d="M250,116.425a3.253,3.253,0,0,1-6.5,0V77.4a3.253,3.253,0,0,1,6.5,0v.854a17.04,17.04,0,0,1,11.382-4.106,17.229,17.229,0,0,1,12.643,5.245,20,20,0,0,1,1.993,2.316,19.885,19.885,0,0,1,1.991-2.316A17.888,17.888,0,0,1,308.54,92.032v24.393a3.253,3.253,0,0,1-6.5,0V92.032a11.383,11.383,0,1,0-22.765,0v24.393a3.253,3.253,0,0,1-6.5,0V92.032a11.383,11.383,0,1,0-22.765,0Z"/><path class="cls-3" d="M318.3,77.4a3.253,3.253,0,0,1,6.5,0v39.028a3.253,3.253,0,0,1-6.5,0Z"/><path class="cls-3" d="M373.584,112.847a22.2,22.2,0,0,1-16.261,6.83,22.763,22.763,0,0,1-22.765-22.766,22.766,22.766,0,1,1,45.532,0v19.514a3.253,3.253,0,0,1-6.506,0Zm-16.261-32.2a16.271,16.271,0,0,0-11.5,27.767,16.271,16.271,0,0,0,23.01-23.01A15.675,15.675,0,0,0,357.323,80.649Z"/><path class="cls-4" d="M324.47,59.027V50.384a11.061,11.061,0,0,1,11.053-11.053h11.045V50.376a11.045,11.045,0,0,1-11.053,11.053h-7.75c-.333,0-.625,0-.889,0l-2.406,0,0-2.212C324.47,59.156,324.47,59.092,324.47,59.027Z"/><path class="cls-4" d="M325.408,62.885a4.094,4.094,0,1,1-2.39-2.39.848.848,0,0,1,.1.033,4.109,4.109,0,0,1,2.293,2.357Z"/><path class="cls-4" d="M324.47,61.429l2.406,0c-1.521.028-1.866.211-1.468,1.452A4.083,4.083,0,0,0,324.47,61.429Z"/><path class="cls-4" d="M324.466,59.217l0,2.212a4.114,4.114,0,0,0-1.355-.9C324.223,60.865,324.43,60.544,324.466,59.217Z"/><circle class="cls-5" cx="500.176" cy="90" r="2.456"/><circle class="cls-5" cx="510" cy="90" r="2.456"/><circle class="cls-5" cx="519.824" cy="90" r="2.456"/><circle class="cls-5" cx="1020.176" cy="90" r="2.456"/><circle class="cls-5" cx="1030" cy="90" r="2.456"/><circle class="cls-5" cx="1039.824" cy="90" r="2.456"/></svg>