<svg width="712" height="945" xmlns="http://www.w3.org/2000/svg" xmlns:xlink="http://www.w3.org/1999/xlink"><defs><rect id="a" x="0" y="0" width="218" height="289" rx="12"/><rect id="c" x="0" y="0" width="712" height="332" rx="12"/></defs><g fill="none" fill-rule="evenodd"><g transform="translate(40 778)"><rect fill="#45A3F8" width="373.5" height="166" rx="16"/><path d="M0 134h374v17c0 8.837-7.163 16-16 16H16c-8.837 0-16-7.163-16-16v-17Z" fill-opacity=".7" fill="#000"/><g fill-rule="nonzero"><path d="M121.047 144.625h1.508v8.055c0 1.088-.327 1.94-.98 2.554-.654.615-1.526.922-2.614.922-1.13 0-2.01-.289-2.64-.867-.63-.578-.946-1.388-.946-2.43h1.5c0 .651.178 1.16.535 1.524.357.364.874.547 1.55.547.62 0 1.122-.196 1.505-.586.383-.39.577-.938.582-1.64v-8.079ZM131.39 153.031h-4.765l-1.07 2.969h-1.547l4.344-11.375h1.312L134.016 156h-1.54l-1.085-2.969Zm-4.312-1.234h3.867l-1.937-5.32-1.93 5.32ZM143.914 152.39c-.14 1.204-.585 2.132-1.332 2.786-.747.653-1.74.98-2.98.98-1.344 0-2.421-.482-3.23-1.445-.81-.964-1.216-2.253-1.216-3.867v-1.094c0-1.057.19-1.987.567-2.79.377-.801.912-1.417 1.605-1.847.693-.43 1.495-.644 2.406-.644 1.209 0 2.177.337 2.907 1.011.729.675 1.153 1.609 1.273 2.801h-1.508c-.13-.906-.413-1.562-.847-1.969-.435-.406-1.043-.609-1.825-.609-.958 0-1.71.354-2.254 1.063-.544.708-.816 1.716-.816 3.023v1.102c0 1.234.258 2.216.774 2.945.515.73 1.236 1.094 2.164 1.094.833 0 1.472-.19 1.918-.567.445-.377.74-1.035.886-1.972h1.508ZM148.852 150.71l-1.391 1.447V156h-1.5v-11.375h1.5v5.625l5.055-5.625h1.812l-4.476 5.024 4.828 6.35h-1.797zM157.492 151.547V156h-1.5v-11.375h4.196c1.244 0 2.22.318 2.925.953.706.636 1.059 1.477 1.059 2.524 0 1.104-.345 1.954-1.035 2.55-.69.597-1.679.895-2.965.895h-2.68Zm0-1.227h2.696c.802 0 1.416-.188 1.843-.566.427-.378.64-.923.64-1.637 0-.677-.213-1.219-.64-1.625-.427-.406-1.013-.617-1.758-.633h-2.78v4.461ZM174.836 150.68c0 1.114-.188 2.087-.563 2.918-.375.83-.906 1.464-1.593 1.902-.688.438-1.49.656-2.407.656-.895 0-1.69-.22-2.382-.66-.693-.44-1.23-1.068-1.614-1.883-.382-.815-.58-1.759-.59-2.832v-.82c0-1.094.19-2.06.57-2.899.381-.838.919-1.48 1.614-1.925.695-.446 1.491-.668 2.387-.668.911 0 1.715.22 2.41.66.695.44 1.23 1.078 1.605 1.914.375.836.563 1.809.563 2.918v.719Zm-1.492-.735c0-1.349-.271-2.384-.813-3.105-.541-.722-1.3-1.082-2.273-1.082-.948 0-1.694.36-2.238 1.082-.545.721-.825 1.722-.84 3.004v.836c0 1.307.274 2.334.824 3.082.55.747 1.306 1.12 2.27 1.12.968 0 1.718-.352 2.25-1.058.53-.706.804-1.717.82-3.035v-.844ZM184.945 145.86h-3.656V156h-1.492v-10.14h-3.649v-1.235h8.797z" fill="#FFF"/><path d="M200.242 151.969h-2.617c.026.765.23 1.34.613 1.726.383.386.978.578 1.785.578.547 0 1.042-.08 1.485-.242l.281 1.89a8.754 8.754 0 0 1-2 .227c-1.37 0-2.454-.368-3.254-1.105-.8-.737-1.22-1.762-1.262-3.074h-1.32v-1.188h1.32v-.969h-1.32v-1.187h1.336c.089-1.313.546-2.332 1.371-3.059.826-.726 1.92-1.09 3.285-1.09.547 0 1.162.081 1.844.243l-.281 1.898a4.467 4.467 0 0 0-1.446-.25c-1.473 0-2.28.753-2.421 2.258h2.601v1.188h-2.617v.968h2.617v1.188ZM208.695 156h-2.257v-8.703l-2.696.836v-1.836l4.711-1.687h.242zM220.047 151.297c0 1.573-.326 2.776-.977 3.61-.65.833-1.604 1.25-2.86 1.25-1.239 0-2.187-.41-2.843-1.227-.656-.818-.992-1.99-1.008-3.516v-2.094c0-1.588.33-2.794.989-3.617s1.608-1.234 2.847-1.234c1.24 0 2.188.407 2.844 1.222.656.816.992 1.986 1.008 3.512v2.094ZM217.789 149c0-.943-.129-1.629-.387-2.059-.257-.43-.66-.644-1.207-.644-.53 0-.923.204-1.175.613-.253.409-.387 1.048-.403 1.918v2.766c0 .927.126 1.616.38 2.066.252.45.657.676 1.214.676.552 0 .95-.216 1.195-.649.245-.432.373-1.093.383-1.984V149ZM222.25 158.852l-1.18-.618.282-.507c.349-.636.528-1.269.539-1.899v-1.75h1.906l-.008 1.563c-.005.578-.151 1.161-.437 1.75a4.486 4.486 0 0 1-1.102 1.46ZM233.133 151.297c0 1.573-.326 2.776-.977 3.61-.65.833-1.604 1.25-2.86 1.25-1.239 0-2.187-.41-2.843-1.227-.656-.818-.992-1.99-1.008-3.516v-2.094c0-1.588.33-2.794.989-3.617.658-.823 1.608-1.234 2.847-1.234 1.24 0 2.188.407 2.844 1.222.656.816.992 1.986 1.008 3.512v2.094ZM230.875 149c0-.943-.129-1.629-.387-2.059-.258-.43-.66-.644-1.207-.644-.531 0-.923.204-1.176.613-.252.409-.386 1.048-.402 1.918v2.766c0 .927.126 1.616.379 2.066.253.45.658.676 1.215.676.552 0 .95-.216 1.195-.649.245-.432.373-1.093.383-1.984V149ZM242.313 151.297c0 1.573-.326 2.776-.977 3.61-.651.833-1.604 1.25-2.86 1.25-1.239 0-2.187-.41-2.843-1.227-.656-.818-.992-1.99-1.008-3.516v-2.094c0-1.588.33-2.794.988-3.617.66-.823 1.608-1.234 2.848-1.234 1.24 0 2.187.407 2.844 1.222.656.816.992 1.986 1.007 3.512v2.094ZM240.054 149c0-.943-.13-1.629-.387-2.059-.258-.43-.66-.644-1.207-.644-.531 0-.923.204-1.176.613-.252.409-.387 1.048-.402 1.918v2.766c0 .927.126 1.616.379 2.066.252.45.657.676 1.215.676.552 0 .95-.216 1.195-.649.245-.432.372-1.093.383-1.984V149ZM251.492 151.297c0 1.573-.325 2.776-.976 3.61-.651.833-1.605 1.25-2.86 1.25-1.24 0-2.187-.41-2.844-1.227-.656-.818-.992-1.99-1.007-3.516v-2.094c0-1.588.33-2.794.988-3.617.659-.823 1.608-1.234 2.848-1.234 1.24 0 2.187.407 2.843 1.222.657.816.993 1.986 1.008 3.512v2.094ZM249.234 149c0-.943-.129-1.629-.386-2.059-.258-.43-.66-.644-1.207-.644-.532 0-.924.204-1.176.613-.253.409-.387 1.048-.403 1.918v2.766c0 .927.127 1.616.38 2.066.252.45.657.676 1.214.676.552 0 .95-.216 1.196-.649.244-.432.372-1.093.382-1.984V149ZM253.695 158.852l-1.18-.618.282-.507c.349-.636.529-1.269.539-1.899v-1.75h1.906l-.008 1.563c-.005.578-.15 1.161-.437 1.75a4.486 4.486 0 0 1-1.102 1.46ZM264.578 151.297c0 1.573-.325 2.776-.976 3.61-.651.833-1.605 1.25-2.86 1.25-1.24 0-2.187-.41-2.844-1.227-.656-.818-.992-1.99-1.007-3.516v-2.094c0-1.588.33-2.794.988-3.617.659-.823 1.608-1.234 2.848-1.234 1.24 0 2.187.407 2.843 1.222.657.816.993 1.986 1.008 3.512v2.094ZM262.32 149c0-.943-.129-1.629-.386-2.059-.258-.43-.66-.644-1.207-.644-.532 0-.924.204-1.176.613-.253.409-.387 1.048-.403 1.918v2.766c0 .927.127 1.616.38 2.066.252.45.657.676 1.214.676.552 0 .95-.216 1.195-.649.245-.432.373-1.093.383-1.984V149ZM273.758 151.297c0 1.573-.326 2.776-.977 3.61-.65.833-1.604 1.25-2.86 1.25-1.239 0-2.187-.41-2.843-1.227-.656-.818-.992-1.99-1.008-3.516v-2.094c0-1.588.33-2.794.989-3.617.658-.823 1.608-1.234 2.847-1.234 1.24 0 2.188.407 2.844 1.222.656.816.992 1.986 1.008 3.512v2.094ZM271.5 149c0-.943-.129-1.629-.387-2.059-.258-.43-.66-.644-1.207-.644-.531 0-.923.204-1.176.613-.252.409-.386 1.048-.402 1.918v2.766c0 .927.126 1.616.379 2.066.253.45.658.676 1.215.676.552 0 .95-.216 1.195-.649.245-.432.373-1.093.383-1.984V149ZM282.938 151.297c0 1.573-.326 2.776-.977 3.61-.651.833-1.604 1.25-2.86 1.25-1.239 0-2.187-.41-2.843-1.227-.656-.818-.992-1.99-1.008-3.516v-2.094c0-1.588.33-2.794.988-3.617.66-.823 1.608-1.234 2.848-1.234 1.24 0 2.187.407 2.844 1.222.656.816.992 1.986 1.007 3.512v2.094ZM280.68 149c0-.943-.13-1.629-.387-2.059-.258-.43-.66-.644-1.207-.644-.531 0-.923.204-1.176.613-.252.409-.387 1.048-.402 1.918v2.766c0 .927.126 1.616.379 2.066.252.45.657.676 1.215.676.552 0 .95-.216 1.195-.649.245-.432.372-1.093.383-1.984V149Z" fill="#1DAA63"/></g><g fill="#FFF"><path d="M109.68 155.97c.31-.545.581-1.169.813-1.754.232-.74.426-1.481.464-2.3.542-5.926-4.138-10.916-9.98-10.916-.309 0-.58 0-.889.039-4.758.429-8.626 4.288-9.051 9.045-.116 1.442.039 2.846.503 4.132.193.624.464 1.209.812 1.755.658 1.17 1.586 2.183 2.63 3.002 1.664 1.286 3.752 2.027 6.034 2.027.31 0 .62 0 .89-.039 1.895-.156 3.675-.897 5.106-1.988 1.122-.78 2.011-1.833 2.669-3.002Zm-2.243-10.954-1.199 1.17v-.079c0-.429-.232-.702-.619-1.013l-.038-.04 1.005-.857c.349.273.62.546.851.819Zm-8.122 4.171c-.117-.078-.155-.234-.31-.312-.387-.234-.619-.156-.735-.195-.116-.039-.232-.195-.232-.195s-.193.078-.27 0c-.078-.078-.078-.117-.04-.156.233-.156.58-.428.968-.428.348 0 .967.117 1.005.35.039.156.116.585.155.858 0 .117.077.234-.039.273-.116.04-.154-.078-.232-.156-.038-.039-.154.04-.27-.039Zm.58-1.793c.696.312.31.624-.194.585-.31-.04-.425-.351-.735-.702-.464-.468-1.005-.078-1.315 0-.154.039-.27-.156-.193-.429l.116-.234c.31-.35 1.122-.35 1.431-.117 0 0 .039 0 .039.04.193.155.58.779.85.857Zm2.437-.39c.425-.39.58-.429 1.005-.468.271-.039.542.039.735.078.155.039.31.234.426.468.077.117.193.468.154.74 0 .079-.077.118-.116.079.039-.04-.193-1.053-1.121-.858-.697.117-1.083.468-1.277.585-.155.117-.232-.156-.193-.312v-.04c0-.038.038-.077.077-.077.039-.04.155-.078.31-.195Zm.193 2.105s-.116.195-.232.156c-.193-.078 0-.975.077-1.208.078-.234.697-.351 1.083-.39.387 0 .774.273 1.006.429.039.077.077.116-.039.194-.077.078-.27 0-.27 0s-.31.39-.426.468c-.077.117-1.199.351-1.199.351Zm-6.112-5.614.62-.35c.077-.04.115-.079.193-.079l1.238 1.638-.233-2.067a8.805 8.805 0 0 1 1.084-.272l.85 2.456.233-2.573c.193-.04.348-.04.58-.04.193 0 .348 0 .541.04l.232 2.495.851-2.34c.387.04.735.156 1.083.273l-.232 2.106 1.238-1.716c.348.156.696.351 1.006.546l-.58 1.17c-.349-.156-.697-.234-.851 0-.232.39-.465.662-.58.623-.271-.039-.736-.311-1.277-.311-.193 0-.387.039-.503.078-.619.194-.812.662-.812.662s-.542-.701-1.47-.701c-.928 0-1.276.311-1.276.311s-.233-.584-.426-.74c-.155-.117-.58-.04-1.006.195l-.038-.078-.62-1.17.155-.156Zm-1.044.78.967.897.077.078c-.309.272-.541.623-.618.896l-1.2-1.091.774-.78Zm8.355 15.127-1.083-2.145-.116-.234v.195l.155 2.495a5.211 5.211 0 0 1-1.122.117l-.503-1.52-.541 1.52c-.387-.039-.735-.078-1.122-.117l.077-2.456v-.078l-.038.078-1.083 2.145c-.349-.117-.697-.234-1.045-.43l.387-1.052.774-2.183-2.09 2.69c-.309-.195-.618-.39-.889-.624l2.553-3.587-3.404 2.846c-.232-.273-.503-.545-.696-.857l2.011-1.677 1.393-1.13-3.984 1.91a4.802 4.802 0 0 1-.464-1.014l4.022-1.871-1.624.312-2.747.546c-.077-.351-.154-.702-.193-1.092l.967-.195 1.431-.273 1.934-.39-1.47-.078-2.978-.195v-.429l.039-.194c0-.156.038-.312.038-.468l3.21.195.93.039-.968-.312-3.017-.975a5.59 5.59 0 0 1 .348-1.052l3.288.74-2.785-1.754.58-.936 1.664.78 1.276.585c-.039.117-.155.429-.116.974.039.78-.077 1.287.232 1.599.31.312.774.585 1.006.897.038.078.077.117.154.195.078.077.078.116.155.194.039.04.039.078.078.117.193-.311.541-.467.618-.428.04.039-.154.194-.348.623a2.472 2.472 0 0 1-.154.351c-.078.156-.194.39-.233.585-.077.312-.154.585-.116.975 0 .117.04.234.078.35.038.156.116.351.193.507.155.351.348.663.426.78.154.156.503.078.812 0 .31-.078.812-.35.967-.585.193-.273.348-.429.31-.78-.04-.233-.271-.623-.503-.74l-.04-.04c-.231-.116-.58-.389-.695-.545-.039-.078-.155-.195-.194-.312-.038-.078-.116-.195-.077-.195.077-.039.077-.039.193.04.078.077.116.155.155.116.039-.039 0-.039 0-.078.039-.078.077-.117.193-.195.271-.117.697.195 1.2.195.464 0 1.083-.429 1.315-.273.154.117.154.195.154.273 0 0 0 .04.039.04.077 0 .155-.079.193-.157.04-.039.078-.078.155-.039.078.04.039.117 0 .195s-.077.195-.116.195c-.193.078-.503.078-.928.468-.078.078-.194.156-.232.234-.271.273-.387.546-.426.74-.038.157.078.507.232.741.155.195.387.351.813.43h.077c.387.038 1.006-.118 1.199-.274.193-.156.348-.39.426-.662.038-.078.038-.195.077-.273.077-.43.039-1.092-.077-1.365-.078-.195-.155-.39-.233-.546-.154-.35-.309-.546-.232-.585.078-.077.31.117.426.234.039-.117.039-.35.077-.506.078-.312.232-.468.542-.663.348-.234.928-.546.967-.897.038-.156.038-.429.038-.663 0-.273 0-.506-.038-.662-.039-.156-.116-.39-.155-.585l1.044-.585 1.625-.858c.232.312.425.624.58.936l-2.746 1.715 3.21-.74c.155.35.232.701.348 1.052l-2.94.975-1.198.39 1.16-.078 3.21-.234c.04.35.078.74.078 1.092v.039l-2.978.194-1.432.078 1.818.351 1.586.273.929.156c-.04.351-.117.74-.194 1.092l-2.862-.546-1.47-.273 3.984 1.832c-.155.351-.31.702-.464 1.014l-3.984-1.871 1.43 1.17 1.974 1.598c-.232.312-.465.585-.697.857l-3.133-2.378 2.321 3.236c-.27.234-.58.468-.89.663l-2.282-3.002.929 2.495.386 1.053c-.309.195-.657.312-1.044.429Z"/><path d="M102.992 155.16a4.74 4.74 0 0 1-.755-.082 2.608 2.608 0 0 1-1.073-.45c-.16-.081-.318-.081-.437.041-.477.409-1.113.818-1.749.94-.12.041-.159.205-.08.368.12.245.438.654.716.899.08.082.198.163.278.204.159.123.278.164.397.286.2.164.477.573.636.736 0 .04.04.04.04.04.04 0 .04 0 .04-.04.08-.163.318-.572.596-.776a2.21 2.21 0 0 1 .318-.246c.318-.204.715-.53.834-.858.08-.204.199-.49.318-.654.04-.04.04-.081.04-.122.08-.164 0-.286-.12-.286"/></g></g><g transform="translate(454 364)"><mask id="b" fill="#fff"><use xlink:href="#a"/></mask><use fill="#45A3F8" xlink:href="#a"/><g mask="url(#b)"><path d="M0 259.143h217.892v18c0 6.627-5.373 12-12 12H12c-6.627 0-12-5.373-12-12v-18Z" fill-opacity=".7" fill="#000"/><g fill="#FFF"><g fill-rule="nonzero"><path d="M43.495 268.768h1.508v8.055c0 1.088-.327 1.94-.98 2.554-.654.615-1.526.922-2.614.922-1.13 0-2.01-.289-2.64-.867-.63-.578-.946-1.388-.946-2.43h1.5c0 .651.178 1.16.535 1.524.357.364.874.547 1.55.547.62 0 1.122-.196 1.505-.586.383-.391.577-.938.582-1.641v-8.078ZM53.839 277.174h-4.766l-1.07 2.969h-1.547l4.344-11.375h1.312l4.352 11.375h-1.54l-1.085-2.969Zm-4.313-1.234h3.867l-1.937-5.32-1.93 5.32ZM66.362 276.533c-.14 1.204-.585 2.132-1.332 2.786-.747.653-1.74.98-2.98.98-1.344 0-2.421-.482-3.23-1.445-.81-.964-1.216-2.253-1.216-3.867v-1.094c0-1.057.189-1.987.567-2.79.377-.801.912-1.417 1.605-1.847.693-.43 1.495-.644 2.406-.644 1.209 0 2.177.337 2.907 1.011.729.675 1.153 1.608 1.273 2.801h-1.508c-.13-.906-.413-1.562-.847-1.969-.435-.406-1.043-.609-1.825-.609-.958 0-1.71.354-2.254 1.062-.544.709-.816 1.717-.816 3.024v1.101c0 1.235.258 2.217.773 2.946.516.729 1.237 1.094 2.165 1.094.833 0 1.472-.19 1.918-.567.445-.377.74-1.035.886-1.973h1.508ZM71.3 274.854l-1.391 1.446v3.843h-1.5v-11.375h1.5v5.625l5.055-5.625h1.812l-4.476 5.024 4.828 6.35h-1.797zM79.94 275.69v4.453h-1.5v-11.375h4.195c1.245 0 2.22.318 2.926.953s1.059 1.477 1.059 2.523c0 1.105-.345 1.955-1.035 2.551-.69.597-1.679.895-2.965.895h-2.68Zm0-1.227h2.695c.803 0 1.417-.189 1.844-.566.427-.378.64-.923.64-1.637 0-.677-.213-1.219-.64-1.625-.427-.406-1.013-.617-1.758-.633h-2.78v4.461ZM97.284 274.823c0 1.114-.188 2.087-.563 2.918-.375.83-.906 1.464-1.593 1.902-.688.437-1.49.656-2.407.656-.895 0-1.69-.22-2.382-.66-.693-.44-1.23-1.068-1.614-1.883-.382-.815-.58-1.759-.59-2.832v-.82c0-1.094.19-2.06.57-2.899.381-.838.919-1.48 1.614-1.925.695-.446 1.491-.668 2.387-.668.911 0 1.715.22 2.41.66.695.44 1.23 1.078 1.605 1.914.375.836.563 1.808.563 2.918v.719Zm-1.492-.735c0-1.349-.271-2.384-.813-3.105-.541-.722-1.3-1.082-2.273-1.082-.948 0-1.694.36-2.238 1.082-.545.721-.825 1.722-.84 3.004v.836c0 1.307.274 2.334.824 3.082.55.747 1.306 1.12 2.27 1.12.968 0 1.718-.352 2.25-1.058.53-.706.804-1.717.82-3.035v-.844ZM107.393 270.003h-3.656v10.14h-1.492v-10.14h-3.649v-1.235h8.797z"/></g><path d="M32.26 278.617c.28-.492.523-1.053.732-1.58.209-.666.383-1.333.418-2.07.487-5.333-3.725-9.824-8.982-9.824-.279 0-.522 0-.8.035-4.283.386-7.764 3.86-8.147 8.14-.104 1.299.035 2.562.453 3.72.174.561.418 1.087.73 1.579.593 1.052 1.428 1.964 2.368 2.701 1.497 1.158 3.377 1.825 5.43 1.825.28 0 .558 0 .801-.035 1.706-.14 3.308-.807 4.596-1.79 1.01-.701 1.81-1.649 2.402-2.701Zm-2.018-9.86-1.08 1.053v-.07c0-.387-.208-.632-.557-.913l-.034-.035.905-.772c.313.246.557.491.766.737Zm-7.31 3.754c-.105-.07-.14-.21-.28-.28-.348-.211-.556-.14-.66-.176-.105-.035-.21-.175-.21-.175s-.174.07-.243 0c-.07-.07-.07-.106-.035-.14.209-.141.522-.387.87-.387.313 0 .87.106.905.316.035.14.105.526.14.772 0 .105.07.21-.035.246-.105.035-.14-.07-.21-.14-.034-.036-.139.034-.243-.036Zm.521-1.614c.627.28.279.562-.174.527-.278-.036-.383-.316-.661-.632-.418-.421-.905-.07-1.184 0-.14.035-.244-.14-.174-.386l.105-.21c.278-.316 1.01-.316 1.288-.106 0 0 .034 0 .034.035.174.14.523.702.766.772Zm2.193-.35c.383-.352.523-.387.906-.422.243-.035.487.035.661.07.14.036.278.211.383.422.07.105.174.42.14.666 0 .07-.07.105-.105.07.035-.035-.174-.947-1.01-.772-.626.106-.975.422-1.149.527-.139.105-.209-.14-.174-.28v-.036c0-.035.035-.07.07-.07.035-.035.14-.07.278-.176Zm.174 1.894s-.104.176-.208.14c-.174-.07 0-.877.07-1.087.069-.21.626-.316.974-.351.348 0 .696.245.905.386.035.07.07.105-.035.175-.07.07-.243 0-.243 0s-.279.351-.383.421c-.07.106-1.08.316-1.08.316Zm-5.5-5.053.557-.315c.07-.035.105-.07.174-.07l1.114 1.473-.209-1.86c.314-.105.627-.175.975-.245l.766 2.21.209-2.315c.174-.035.313-.035.522-.035.174 0 .313 0 .487.035l.21 2.245.765-2.105c.348.035.662.14.975.246l-.209 1.894 1.114-1.543c.313.14.627.315.905.49l-.522 1.053c-.313-.14-.627-.21-.766 0-.209.351-.418.597-.522.562-.244-.035-.662-.28-1.149-.28-.174 0-.348.034-.453.07-.557.175-.73.596-.73.596s-.488-.632-1.323-.632c-.836 0-1.15.28-1.15.28s-.208-.525-.382-.666c-.14-.105-.522-.035-.905.176l-.035-.07-.557-1.053.14-.14Zm-.94.702.87.807.07.07c-.278.246-.487.562-.557.807l-1.079-.982.696-.702Zm7.52 13.614-.975-1.93-.105-.21v.175l.14 2.246a4.69 4.69 0 0 1-1.01.105l-.452-1.368-.488 1.368c-.348-.035-.661-.07-1.01-.105l.07-2.21v-.07l-.035.07-.974 1.93c-.314-.106-.627-.211-.94-.387l.348-.947.696-1.965-1.88 2.421c-.278-.175-.557-.35-.8-.561l2.297-3.228-3.063 2.561c-.21-.246-.453-.491-.627-.772l1.81-1.509 1.254-1.017-3.586 1.719a4.322 4.322 0 0 1-.418-.912l3.62-1.684-1.461.28-2.472.491a8.218 8.218 0 0 1-.174-.982l.87-.175 1.288-.246 1.74-.35-1.322-.071-2.68-.176v-.385l.034-.176c0-.14.035-.28.035-.421l2.89.175.835.036-.87-.281-2.716-.877c.07-.316.174-.632.314-.948l2.959.667-2.507-1.579.522-.842 1.497.702 1.15.526c-.036.105-.14.386-.105.877.034.702-.07 1.158.209 1.439.278.28.696.526.905.807.034.07.07.105.139.175.07.07.07.105.14.176.034.035.034.07.069.105.174-.28.487-.421.557-.386.035.035-.14.175-.314.561-.034.106-.07.176-.139.316-.07.14-.174.351-.209.526-.07.281-.139.527-.104.878 0 .105.035.21.07.315.034.14.104.316.174.457.139.315.313.596.382.701.14.14.453.07.732 0 .278-.07.73-.315.87-.526.174-.246.313-.386.278-.702-.034-.21-.243-.561-.452-.666l-.035-.035c-.209-.106-.522-.351-.627-.492-.034-.07-.139-.175-.174-.28-.035-.07-.104-.176-.07-.176.07-.035.07-.035.175.035.07.07.104.14.139.106.035-.036 0-.036 0-.07.035-.07.07-.106.174-.176.244-.105.627.175 1.08.175.417 0 .974-.386 1.183-.245.14.105.14.175.14.245 0 0 0 .035.034.035.07 0 .14-.07.174-.14.035-.035.07-.07.14-.035.069.035.034.105 0 .175-.036.07-.07.176-.105.176-.174.07-.453.07-.836.42-.07.071-.174.141-.209.211-.243.246-.348.492-.383.667-.034.14.07.456.21.667.139.175.347.316.73.386h.07c.348.035.905-.106 1.08-.246.173-.14.313-.35.382-.596.035-.07.035-.176.07-.246.07-.386.035-.982-.07-1.228-.07-.175-.14-.35-.209-.491-.139-.316-.278-.492-.209-.527.07-.07.279.106.383.21.035-.104.035-.315.07-.455.07-.28.209-.421.487-.597.314-.21.836-.49.87-.807.035-.14.035-.386.035-.596 0-.246 0-.456-.034-.597-.035-.14-.105-.35-.14-.526l.94-.526 1.462-.772c.21.28.383.561.523.842l-2.472 1.544 2.89-.667c.139.316.208.632.313.947l-2.646.878-1.08.35 1.045-.07 2.89-.21c.034.316.07.666.07.982v.035l-2.681.176-1.288.07 1.636.316 1.427.245.836.14a9.687 9.687 0 0 1-.174.983l-2.577-.491-1.322-.246 3.585 1.65c-.14.315-.278.631-.418.912l-3.585-1.685 1.288 1.053 1.775 1.439c-.209.28-.417.526-.626.772l-2.82-2.14 2.089 2.912a6.8 6.8 0 0 1-.801.596l-2.054-2.702.835 2.246.349.947c-.279.176-.592.281-.94.386Z"/><path d="M26.24 277.887c-.214 0-.464-.037-.68-.074a2.347 2.347 0 0 1-.965-.405c-.143-.073-.286-.073-.393.037-.43.368-1.002.736-1.574.846-.107.037-.143.184-.071.331.107.22.393.589.643.81.072.073.18.146.25.183.144.11.251.147.358.258.18.147.43.515.573.662 0 .036.035.036.035.036.036 0 .036 0 .036-.036.072-.147.286-.515.537-.7a1.99 1.99 0 0 1 .286-.22c.286-.184.644-.478.75-.772.072-.184.18-.442.287-.589.036-.036.036-.073.036-.11.071-.147 0-.257-.108-.257"/></g><g fill="#1DAA63" fill-rule="nonzero"><path d="M119.71 276.112h-2.617c.026.765.23 1.34.613 1.726.383.386.978.578 1.785.578.547 0 1.042-.08 1.484-.242l.282 1.89a8.754 8.754 0 0 1-2 .227c-1.37 0-2.455-.368-3.254-1.105-.8-.737-1.22-1.762-1.262-3.074h-1.32v-1.188h1.32v-.969h-1.32v-1.187h1.336c.088-1.313.545-2.332 1.37-3.059.826-.726 1.921-1.09 3.286-1.09.547 0 1.161.081 1.844.243l-.282 1.898a4.467 4.467 0 0 0-1.445-.25c-1.474 0-2.281.753-2.422 2.258h2.602v1.187h-2.617v.97h2.617v1.187ZM128.163 280.143h-2.258v-8.703l-2.695.836v-1.836l4.71-1.687h.243zM139.514 275.44c0 1.573-.325 2.776-.976 3.61-.651.832-1.604 1.25-2.86 1.25-1.24 0-2.187-.41-2.843-1.227-.657-.818-.992-1.99-1.008-3.516v-2.094c0-1.588.33-2.794.988-3.617.659-.823 1.608-1.234 2.848-1.234 1.24 0 2.187.407 2.844 1.222.656.815.992 1.986 1.007 3.512v2.094Zm-2.257-2.297c0-.943-.13-1.629-.387-2.059-.258-.43-.66-.644-1.207-.644-.531 0-.923.204-1.176.613-.253.409-.387 1.048-.402 1.918v2.766c0 .927.126 1.615.379 2.066.252.45.657.676 1.214.676.553 0 .951-.216 1.196-.649.245-.432.372-1.093.383-1.984v-2.703ZM141.718 282.994l-1.18-.617.281-.508c.349-.635.529-1.268.54-1.898v-1.75h1.905l-.007 1.562c-.006.579-.151 1.162-.438 1.75a4.486 4.486 0 0 1-1.101 1.461ZM152.6 275.44c0 1.573-.325 2.776-.976 3.61-.651.832-1.604 1.25-2.86 1.25-1.24 0-2.187-.41-2.843-1.227-.657-.818-.993-1.99-1.008-3.516v-2.094c0-1.588.33-2.794.988-3.617.659-.823 1.608-1.234 2.848-1.234 1.24 0 2.187.407 2.844 1.222.656.815.992 1.986 1.007 3.512v2.094Zm-2.257-2.297c0-.943-.13-1.629-.387-2.059-.258-.43-.66-.644-1.207-.644-.531 0-.923.204-1.176.613-.253.409-.387 1.048-.402 1.918v2.766c0 .927.126 1.615.379 2.066.252.45.657.676 1.214.676.552 0 .95-.216 1.196-.649.244-.432.372-1.093.383-1.984v-2.703ZM161.78 275.44c0 1.573-.326 2.776-.977 3.61-.65.832-1.604 1.25-2.859 1.25-1.24 0-2.187-.41-2.844-1.227-.656-.818-.992-1.99-1.007-3.516v-2.094c0-1.588.329-2.794.988-3.617s1.608-1.234 2.847-1.234c1.24 0 2.188.407 2.844 1.222.656.815.992 1.986 1.008 3.512v2.094Zm-2.258-2.297c0-.943-.129-1.629-.387-2.059-.257-.43-.66-.644-1.207-.644-.53 0-.923.204-1.175.613-.253.409-.387 1.048-.403 1.918v2.766c0 .927.127 1.615.38 2.066.252.45.657.676 1.214.676.552 0 .95-.216 1.195-.649.245-.432.373-1.093.383-1.984v-2.703ZM170.96 275.44c0 1.573-.326 2.776-.977 3.61-.65.832-1.604 1.25-2.86 1.25-1.239 0-2.187-.41-2.843-1.227-.656-.818-.992-1.99-1.008-3.516v-2.094c0-1.588.33-2.794.988-3.617.66-.823 1.609-1.234 2.848-1.234 1.24 0 2.188.407 2.844 1.222.656.815.992 1.986 1.008 3.512v2.094Zm-2.258-2.297c0-.943-.129-1.629-.387-2.059-.258-.43-.66-.644-1.207-.644-.531 0-.923.204-1.176.613-.252.409-.386 1.048-.402 1.918v2.766c0 .927.126 1.615.379 2.066.253.45.657.676 1.215.676.552 0 .95-.216 1.195-.649.245-.432.372-1.093.383-1.984v-2.703ZM173.163 282.994l-1.18-.617.281-.508c.35-.635.529-1.268.54-1.898v-1.75h1.906l-.008 1.562c-.005.579-.151 1.162-.438 1.75a4.486 4.486 0 0 1-1.101 1.461ZM184.046 275.44c0 1.573-.326 2.776-.977 3.61-.651.832-1.604 1.25-2.86 1.25-1.239 0-2.187-.41-2.843-1.227-.656-.818-.992-1.99-1.008-3.516v-2.094c0-1.588.33-2.794.988-3.617.66-.823 1.608-1.234 2.848-1.234 1.24 0 2.188.407 2.844 1.222.656.815.992 1.986 1.008 3.512v2.094Zm-2.258-2.297c0-.943-.13-1.629-.387-2.059-.258-.43-.66-.644-1.207-.644-.531 0-.923.204-1.176.613-.252.409-.386 1.048-.402 1.918v2.766c0 .927.126 1.615.379 2.066.252.45.657.676 1.215.676.552 0 .95-.216 1.195-.649.245-.432.372-1.093.383-1.984v-2.703ZM193.225 275.44c0 1.573-.325 2.776-.976 3.61-.651.832-1.604 1.25-2.86 1.25-1.24 0-2.187-.41-2.843-1.227-.657-.818-.993-1.99-1.008-3.516v-2.094c0-1.588.33-2.794.988-3.617.659-.823 1.608-1.234 2.848-1.234 1.24 0 2.187.407 2.844 1.222.656.815.992 1.986 1.007 3.512v2.094Zm-2.257-2.297c0-.943-.13-1.629-.387-2.059-.258-.43-.66-.644-1.207-.644-.531 0-.923.204-1.176.613-.253.409-.387 1.048-.402 1.918v2.766c0 .927.126 1.615.379 2.066.252.45.657.676 1.214.676.552 0 .95-.216 1.196-.649.244-.432.372-1.093.383-1.984v-2.703ZM202.405 275.44c0 1.573-.326 2.776-.977 3.61-.65.832-1.604 1.25-2.859 1.25-1.24 0-2.187-.41-2.844-1.227-.656-.818-.992-1.99-1.007-3.516v-2.094c0-1.588.329-2.794.988-3.617s1.608-1.234 2.847-1.234c1.24 0 2.188.407 2.844 1.222.656.815.992 1.986 1.008 3.512v2.094Zm-2.258-2.297c0-.943-.129-1.629-.387-2.059-.257-.43-.66-.644-1.207-.644-.53 0-.923.204-1.175.613-.253.409-.387 1.048-.403 1.918v2.766c0 .927.127 1.615.38 2.066.252.45.657.676 1.214.676.552 0 .95-.216 1.195-.649.245-.432.373-1.093.383-1.984v-2.703Z"/></g></g></g><g transform="translate(454 727)"><rect fill="#45A3F8" width="218" height="218" rx="12"/><path d="M0 196.436h218v10c0 6.628-5.373 12-12 12H12c-6.627 0-12-5.372-12-12v-10Z" fill-opacity=".7" fill="#000"/><g fill="#FFF" fill-rule="nonzero"><path d="M59.064 202.469h1.131v6.04c0 .817-.245 1.456-.735 1.917-.49.46-1.144.691-1.96.691-.848 0-1.508-.217-1.98-.65-.473-.434-.71-1.041-.71-1.822h1.126c0 .488.133.869.4 1.142.268.274.656.41 1.164.41.465 0 .84-.146 1.128-.44.287-.292.433-.702.436-1.23v-6.058ZM66.822 208.773h-3.574L62.445 211h-1.16l3.258-8.531h.984L68.791 211h-1.154l-.815-2.227Zm-3.234-.925h2.9l-1.453-3.99-1.447 3.99ZM76.215 208.293c-.106.902-.439 1.599-1 2.089-.56.49-1.305.735-2.235.735-1.007 0-1.815-.361-2.422-1.084-.608-.722-.912-1.69-.912-2.9v-.82c0-.793.142-1.49.425-2.092.283-.602.685-1.064 1.204-1.386.52-.322 1.121-.483 1.805-.483.906 0 1.633.252 2.18.758.547.506.865 1.206.955 2.1h-1.131c-.098-.679-.31-1.17-.636-1.476-.326-.304-.782-.457-1.368-.457-.719 0-1.282.266-1.69.797-.409.531-.613 1.287-.613 2.268v.826c0 .926.194 1.662.58 2.209.387.547.928.82 1.623.82.625 0 1.105-.141 1.439-.425.334-.283.556-.776.665-1.479h1.13ZM79.918 207.034l-1.043 1.084V211H77.75v-8.531h1.125v4.219l3.79-4.22h1.36l-3.357 3.769L84.29 211h-1.348zM86.398 207.66V211h-1.125v-8.531h3.147c.934 0 1.665.238 2.194.715.53.476.794 1.107.794 1.892 0 .828-.259 1.466-.776 1.913-.518.448-1.259.671-2.224.671h-2.01Zm0-.92h2.022c.601 0 1.062-.141 1.383-.425.32-.283.48-.692.48-1.227 0-.508-.16-.914-.48-1.219-.32-.305-.76-.463-1.319-.474h-2.086v3.345ZM99.406 207.01c0 .836-.14 1.565-.422 2.188-.28.623-.68 1.099-1.195 1.427-.516.328-1.117.492-1.805.492-.671 0-1.267-.165-1.787-.495-.52-.33-.923-.8-1.21-1.412-.287-.611-.434-1.32-.442-2.124v-.615c0-.82.143-1.545.428-2.174.285-.629.688-1.11 1.21-1.444.521-.334 1.118-.501 1.79-.501.683 0 1.286.165 1.807.495.522.33.923.808 1.204 1.435.282.627.422 1.357.422 2.189v.539Zm-1.119-.551c0-1.012-.203-1.788-.61-2.33-.406-.54-.974-.81-1.704-.81-.711 0-1.27.27-1.68.81-.407.542-.617 1.293-.629 2.254v.627c0 .98.206 1.75.618 2.311.412.56.98.841 1.702.841.727 0 1.29-.265 1.688-.794.398-.53.603-1.288.615-2.276v-.633ZM106.989 203.395h-2.742V211h-1.12v-7.605h-2.736v-.926h6.598z"/></g><g fill="#FFF"><path d="M51.577 210.48c.216-.383.406-.82.568-1.229.163-.518.298-1.037.325-1.61.38-4.148-2.897-7.641-6.986-7.641-.216 0-.406 0-.622.027-3.33.3-6.038 3.002-6.336 6.332-.081 1.01.027 1.992.352 2.892.135.437.325.846.568 1.229.46.818 1.11 1.528 1.842 2.1 1.164.901 2.626 1.42 4.224 1.42.216 0 .433 0 .622-.027a6.87 6.87 0 0 0 3.574-1.392c.786-.546 1.408-1.283 1.869-2.101Zm-1.57-7.67-.84.82v-.055c0-.3-.163-.491-.433-.71l-.027-.027.703-.6c.244.19.434.382.596.573Zm-5.687 2.921c-.081-.055-.108-.164-.216-.218-.271-.164-.434-.11-.515-.137-.081-.027-.162-.136-.162-.136s-.136.054-.19 0c-.054-.055-.054-.082-.027-.11.162-.109.406-.3.677-.3.244 0 .677.082.704.246.027.11.081.41.108.6 0 .082.054.164-.027.191-.081.028-.108-.054-.162-.109-.027-.027-.109.028-.19-.027Zm.406-1.255c.488.218.217.436-.135.409-.217-.027-.298-.246-.515-.491-.324-.328-.704-.055-.92 0-.108.027-.19-.11-.135-.3l.08-.164c.217-.246.786-.246 1.003-.082 0 0 .027 0 .027.027.135.11.406.546.595.6Zm1.706-.273c.298-.273.406-.3.704-.328.19-.027.38.028.515.055.108.027.216.164.297.327a.923.923 0 0 1 .109.519c0 .054-.054.082-.082.054.028-.027-.135-.736-.785-.6-.487.082-.758.328-.893.41-.109.081-.163-.11-.136-.219v-.027c0-.028.027-.055.054-.055.028-.027.109-.054.217-.136Zm.135 1.473s-.08.137-.162.11c-.135-.055 0-.683.054-.846.054-.164.488-.246.758-.273.271 0 .542.19.704.3.027.054.054.082-.027.136-.054.055-.19 0-.19 0s-.216.273-.297.328c-.054.082-.84.245-.84.245Zm-4.278-3.93.434-.245c.054-.027.08-.055.135-.055l.866 1.147-.162-1.447c.244-.082.487-.136.758-.19l.596 1.718.162-1.8c.136-.028.244-.028.406-.028.136 0 .244 0 .38.027l.162 1.747.596-1.638c.27.028.514.11.758.191l-.163 1.474.867-1.2c.243.109.487.245.704.381l-.406.82c-.244-.11-.488-.165-.596 0-.163.272-.325.463-.406.436-.19-.027-.515-.219-.894-.219-.135 0-.27.028-.352.055-.433.137-.568.464-.568.464s-.38-.491-1.03-.491-.893.218-.893.218-.162-.41-.298-.518c-.108-.082-.406-.028-.704.136l-.027-.055-.433-.818.108-.11Zm-.73.546.676.628.054.055c-.216.19-.379.436-.433.627l-.84-.764.542-.546Zm5.848 10.59-.758-1.502-.082-.164v.137l.109 1.746a3.648 3.648 0 0 1-.785.082l-.352-1.064-.38 1.064c-.27-.027-.514-.054-.785-.082l.054-1.719v-.054l-.027.054-.758 1.501a4.131 4.131 0 0 1-.73-.3l.27-.737.541-1.528-1.462 1.883a5.096 5.096 0 0 1-.622-.437l1.787-2.51-2.383 1.992c-.163-.191-.352-.382-.487-.6l1.408-1.174.974-.792-2.789 1.338a3.361 3.361 0 0 1-.324-.71l2.815-1.31-1.137.218-1.922.382c-.054-.245-.108-.49-.136-.764l.677-.136 1.002-.191 1.354-.273-1.029-.055-2.085-.136V206.74l.027-.137c0-.109.027-.218.027-.327l2.248.136.65.028-.677-.219-2.112-.682c.054-.246.135-.491.243-.737l2.302.519-1.95-1.228.406-.655 1.165.545.893.41c-.027.082-.108.3-.08.682.026.546-.055.9.162 1.119.216.218.541.41.703.628a.479.479 0 0 0 .109.136c.054.055.054.082.108.137.027.027.027.054.054.081.136-.218.38-.327.433-.3.028.027-.108.137-.243.437a1.73 1.73 0 0 1-.109.245c-.054.11-.135.273-.162.41-.054.218-.108.41-.081.682 0 .082.027.164.054.246.027.109.081.245.135.354.109.246.244.464.298.546.108.11.352.055.569 0 .216-.054.568-.245.677-.41.135-.19.243-.3.216-.545-.027-.164-.19-.437-.352-.518l-.027-.028c-.162-.082-.406-.273-.487-.382-.027-.054-.108-.136-.136-.218-.027-.055-.08-.137-.054-.137.054-.027.054-.027.136.028.054.054.08.109.108.082.027-.028 0-.028 0-.055.027-.055.054-.082.135-.136.19-.082.488.136.84.136.325 0 .758-.3.92-.191.109.082.109.136.109.191 0 0 0 .027.027.027.054 0 .108-.054.135-.109.027-.027.054-.054.108-.027.055.027.027.082 0 .136-.027.055-.054.137-.08.137-.136.054-.353.054-.65.327-.055.055-.136.11-.163.164-.19.191-.27.382-.298.519-.027.109.054.354.163.518.108.136.27.246.568.3h.054c.271.028.704-.082.84-.19a.92.92 0 0 0 .297-.465c.028-.054.028-.136.055-.19.054-.301.027-.765-.055-.956-.054-.136-.108-.273-.162-.382-.108-.246-.217-.382-.162-.41.054-.054.216.083.297.164.027-.081.027-.245.055-.354.054-.219.162-.328.379-.464.243-.164.65-.382.677-.628.027-.11.027-.3.027-.464 0-.191 0-.355-.027-.464-.028-.109-.082-.273-.109-.41l.731-.409 1.137-.6c.163.218.298.437.407.655l-1.923 1.2 2.248-.518c.108.246.162.491.243.737l-2.058.682-.839.273.812-.054 2.248-.164c.027.246.054.518.054.764v.027l-2.085.137-1.002.054 1.273.246 1.11.191.65.11a7.534 7.534 0 0 1-.136.763l-2.003-.382-1.03-.19 2.79 1.282a17.86 17.86 0 0 1-.325.71l-2.79-1.31 1.003.818 1.38 1.12c-.162.217-.324.408-.487.6l-2.193-1.665 1.625 2.265c-.19.164-.407.327-.623.464l-1.598-2.102.65 1.747.27.737c-.216.136-.46.218-.73.3Z"/><path d="M46.894 209.912c-.167 0-.361-.029-.528-.057a1.825 1.825 0 0 1-.751-.315c-.112-.057-.223-.057-.306.028-.334.287-.78.573-1.224.658-.084.029-.112.143-.056.258.083.172.306.458.5.63.056.056.14.114.195.142.112.086.195.115.279.2.139.115.333.401.445.515 0 .029.027.029.027.029.028 0 .028 0 .028-.029.056-.114.223-.4.418-.543.055-.057.139-.115.222-.172.223-.143.5-.372.584-.6.056-.144.14-.344.223-.458.028-.029.028-.057.028-.086.055-.114 0-.2-.084-.2"/></g><g fill="#1DAA63" fill-rule="nonzero"><path d="M116.738 207.977h-1.963c.02.574.173 1.005.46 1.294.287.29.734.434 1.34.434.41 0 .78-.06 1.112-.182l.211 1.418c-.484.114-.984.17-1.5.17-1.027 0-1.84-.276-2.44-.829-.6-.553-.915-1.321-.946-2.305h-.99v-.891h.99v-.727h-.99v-.89h1.001c.067-.985.41-1.75 1.029-2.294.619-.545 1.44-.818 2.464-.818.41 0 .87.061 1.382.182l-.21 1.424a3.35 3.35 0 0 0-1.084-.188c-1.106 0-1.711.565-1.817 1.694h1.951v.89h-1.963v.727h1.963v.89ZM123.078 211h-1.694v-6.527l-2.02.627v-1.377l3.532-1.266h.182zM131.592 207.473c0 1.18-.244 2.082-.733 2.707-.488.625-1.203.937-2.144.937-.93 0-1.64-.306-2.133-.92-.492-.613-.744-1.492-.756-2.636v-1.57c0-1.192.247-2.096.741-2.714.495-.617 1.206-.925 2.136-.925.93 0 1.64.305 2.133.917.492.61.744 1.489.756 2.633v1.57Zm-1.694-1.723c0-.707-.096-1.222-.29-1.544-.193-.322-.495-.483-.905-.483-.398 0-.692.153-.882.46-.19.306-.29.786-.301 1.438v2.074c0 .696.094 1.212.284 1.55.19.338.493.507.91.507.415 0 .714-.162.897-.486.184-.325.28-.82.287-1.489v-2.027ZM133.244 213.139l-.885-.463.211-.381c.262-.477.397-.951.405-1.424v-1.312h1.43l-.007 1.171a3.044 3.044 0 0 1-.328 1.313c-.215.441-.49.807-.826 1.096ZM141.406 207.473c0 1.18-.244 2.082-.732 2.707s-1.203.937-2.145.937c-.93 0-1.64-.306-2.133-.92-.492-.613-.744-1.492-.755-2.636v-1.57c0-1.192.247-2.096.74-2.714.495-.617 1.207-.925 2.137-.925.93 0 1.64.305 2.132.917.493.61.745 1.489.756 2.633v1.57Zm-1.693-1.723c0-.707-.097-1.222-.29-1.544-.194-.322-.495-.483-.905-.483-.399 0-.693.153-.882.46-.19.306-.29.786-.302 1.438v2.074c0 .696.095 1.212.284 1.55.19.338.493.507.911.507.414 0 .713-.162.897-.486.183-.325.28-.82.287-1.489v-2.027ZM148.291 207.473c0 1.18-.244 2.082-.732 2.707-.489.625-1.204.937-2.145.937-.93 0-1.64-.306-2.133-.92-.492-.613-.744-1.492-.756-2.636v-1.57c0-1.192.247-2.096.742-2.714.494-.617 1.206-.925 2.135-.925.93 0 1.641.305 2.133.917.492.61.744 1.489.756 2.633v1.57Zm-1.693-1.723c0-.707-.097-1.222-.29-1.544-.194-.322-.496-.483-.906-.483-.398 0-.692.153-.881.46-.19.306-.29.786-.302 1.438v2.074c0 .696.094 1.212.284 1.55.19.338.493.507.911.507.414 0 .713-.162.897-.486.183-.325.279-.82.287-1.489v-2.027ZM155.176 207.473c0 1.18-.244 2.082-.733 2.707-.488.625-1.203.937-2.144.937-.93 0-1.64-.306-2.133-.92-.492-.613-.744-1.492-.756-2.636v-1.57c0-1.192.247-2.096.741-2.714.495-.617 1.206-.925 2.136-.925.93 0 1.64.305 2.133.917.492.61.744 1.489.756 2.633v1.57Zm-1.694-1.723c0-.707-.096-1.222-.29-1.544-.193-.322-.495-.483-.905-.483-.398 0-.692.153-.882.46-.19.306-.29.786-.301 1.438v2.074c0 .696.094 1.212.284 1.55.19.338.493.507.91.507.415 0 .714-.162.897-.486.184-.325.28-.82.287-1.489v-2.027ZM156.828 213.139l-.885-.463.211-.381c.262-.477.397-.951.405-1.424v-1.312h1.43l-.007 1.171a3.044 3.044 0 0 1-.328 1.313c-.215.441-.49.807-.826 1.096ZM164.99 207.473c0 1.18-.244 2.082-.732 2.707s-1.203.937-2.145.937c-.93 0-1.64-.306-2.133-.92-.492-.613-.744-1.492-.755-2.636v-1.57c0-1.192.247-2.096.74-2.714.495-.617 1.207-.925 2.137-.925.93 0 1.64.305 2.132.917.493.61.745 1.489.756 2.633v1.57Zm-1.693-1.723c0-.707-.097-1.222-.29-1.544-.194-.322-.495-.483-.905-.483-.399 0-.693.153-.882.46-.19.306-.29.786-.302 1.438v2.074c0 .696.095 1.212.284 1.55.19.338.493.507.911.507.414 0 .713-.162.897-.486.183-.325.28-.82.287-1.489v-2.027ZM171.875 207.473c0 1.18-.244 2.082-.732 2.707-.489.625-1.204.937-2.145.937-.93 0-1.64-.306-2.133-.92-.492-.613-.744-1.492-.756-2.636v-1.57c0-1.192.247-2.096.742-2.714.494-.617 1.206-.925 2.135-.925.93 0 1.641.305 2.133.917.492.61.744 1.489.756 2.633v1.57Zm-1.693-1.723c0-.707-.097-1.222-.29-1.544-.194-.322-.496-.483-.906-.483-.398 0-.692.153-.882.46-.189.306-.29.786-.301 1.438v2.074c0 .696.094 1.212.284 1.55.19.338.493.507.911.507.414 0 .713-.162.897-.486.183-.325.279-.82.287-1.489v-2.027ZM178.76 207.473c0 1.18-.244 2.082-.733 2.707-.488.625-1.203.937-2.144.937-.93 0-1.64-.306-2.133-.92-.492-.613-.744-1.492-.756-2.636v-1.57c0-1.192.247-2.096.741-2.714.494-.617 1.206-.925 2.136-.925.93 0 1.64.305 2.133.917.492.61.744 1.489.756 2.633v1.57Zm-1.694-1.723c0-.707-.096-1.222-.29-1.544-.193-.322-.495-.483-.905-.483-.398 0-.692.153-.882.46-.19.306-.29.786-.302 1.438v2.074c0 .696.095 1.212.285 1.55.19.338.493.507.91.507.415 0 .714-.162.897-.486.184-.325.28-.82.287-1.489v-2.027Z"/></g></g><g transform="translate(40 364)"><rect fill="#45A3F8" width="382" height="382" rx="12"/><path d="M0 350h382v20c0 6.627-5.373 12-12 12H12c-6.627 0-12-5.373-12-12v-20Z" fill-opacity=".7" fill="#000"/><g fill-rule="nonzero"><path d="M127.047 359.625h1.508v8.055c0 1.088-.327 1.94-.98 2.554-.654.615-1.526.922-2.614.922-1.13 0-2.01-.289-2.64-.867-.63-.578-.946-1.388-.946-2.43h1.5c0 .651.178 1.16.535 1.524.357.364.874.547 1.55.547.62 0 1.122-.196 1.505-.586.383-.39.577-.938.582-1.64v-8.079ZM137.39 368.031h-4.765l-1.07 2.969h-1.547l4.344-11.375h1.312L140.016 371h-1.54l-1.085-2.969Zm-4.312-1.234h3.867l-1.937-5.32-1.93 5.32ZM149.914 367.39c-.14 1.204-.585 2.132-1.332 2.786-.747.653-1.74.98-2.98.98-1.344 0-2.421-.482-3.23-1.445-.81-.964-1.216-2.253-1.216-3.867v-1.094c0-1.057.19-1.987.567-2.79.377-.801.912-1.417 1.605-1.847.693-.43 1.495-.644 2.406-.644 1.209 0 2.177.337 2.907 1.011.729.675 1.153 1.609 1.273 2.801h-1.508c-.13-.906-.413-1.562-.847-1.969-.435-.406-1.043-.609-1.825-.609-.958 0-1.71.354-2.254 1.063-.544.708-.816 1.716-.816 3.023v1.102c0 1.234.258 2.216.774 2.945.515.73 1.236 1.094 2.164 1.094.833 0 1.472-.19 1.918-.567.445-.377.74-1.035.886-1.972h1.508ZM154.852 365.71l-1.391 1.447V371h-1.5v-11.375h1.5v5.625l5.055-5.625h1.812l-4.476 5.024 4.828 6.35h-1.797zM163.492 366.547V371h-1.5v-11.375h4.196c1.244 0 2.22.318 2.925.953.706.636 1.059 1.477 1.059 2.524 0 1.104-.345 1.954-1.035 2.55-.69.597-1.679.895-2.965.895h-2.68Zm0-1.227h2.696c.802 0 1.416-.188 1.843-.566.427-.378.64-.923.64-1.637 0-.677-.213-1.219-.64-1.625-.427-.406-1.013-.617-1.758-.633h-2.78v4.461ZM180.836 365.68c0 1.114-.188 2.087-.563 2.918-.375.83-.906 1.464-1.593 1.902-.688.438-1.49.656-2.407.656-.895 0-1.69-.22-2.382-.66-.693-.44-1.23-1.068-1.614-1.883-.382-.815-.58-1.759-.59-2.832v-.82c0-1.094.19-2.06.57-2.899.381-.838.919-1.48 1.614-1.925.695-.446 1.491-.668 2.387-.668.911 0 1.715.22 2.41.66.695.44 1.23 1.078 1.605 1.914.375.836.563 1.809.563 2.918v.719Zm-1.492-.735c0-1.349-.271-2.384-.813-3.105-.541-.722-1.3-1.082-2.273-1.082-.948 0-1.694.36-2.238 1.082-.545.721-.825 1.723-.84 3.004v.836c0 1.307.274 2.334.824 3.082.55.747 1.306 1.12 2.27 1.12.968 0 1.718-.352 2.25-1.058.53-.706.804-1.717.82-3.035v-.844ZM190.945 360.86h-3.656V371h-1.492v-10.14h-3.649v-1.235h8.797z" fill="#FFF"/><path d="M202.258 366.969h-2.617c.026.765.23 1.34.613 1.726.383.386.978.578 1.785.578.547 0 1.042-.08 1.484-.242l.282 1.89a8.754 8.754 0 0 1-2 .227c-1.37 0-2.455-.368-3.254-1.105-.8-.737-1.22-1.762-1.262-3.074h-1.32v-1.188h1.32v-.969h-1.32v-1.187h1.336c.088-1.313.545-2.332 1.37-3.059.826-.726 1.921-1.09 3.286-1.09.547 0 1.161.081 1.844.243l-.282 1.898a4.467 4.467 0 0 0-1.445-.25c-1.474 0-2.281.753-2.422 2.258h2.602v1.188h-2.617v.968h2.617v1.188ZM210.711 371h-2.258v-8.703l-2.695.836v-1.836l4.711-1.687h.242zM222.063 366.297c0 1.573-.326 2.776-.977 3.61-.651.833-1.604 1.25-2.86 1.25-1.239 0-2.187-.41-2.843-1.227-.656-.818-.992-1.99-1.008-3.516v-2.094c0-1.588.33-2.794.988-3.617.66-.823 1.608-1.234 2.848-1.234 1.24 0 2.187.407 2.844 1.222.656.816.992 1.986 1.007 3.512v2.094ZM219.804 364c0-.943-.13-1.629-.387-2.059-.258-.43-.66-.644-1.207-.644-.531 0-.923.204-1.176.613-.252.409-.387 1.048-.402 1.918v2.766c0 .927.126 1.616.379 2.066.252.45.657.676 1.215.676.552 0 .95-.216 1.195-.649.245-.432.372-1.093.383-1.984V364ZM224.266 373.852l-1.18-.618.281-.507c.35-.636.529-1.269.54-1.899v-1.75h1.905l-.007 1.563c-.006.578-.151 1.161-.438 1.75a4.486 4.486 0 0 1-1.101 1.46ZM235.148 366.297c0 1.573-.325 2.776-.976 3.61-.651.833-1.604 1.25-2.86 1.25-1.24 0-2.187-.41-2.843-1.227-.656-.818-.992-1.99-1.008-3.516v-2.094c0-1.588.33-2.794.988-3.617.66-.823 1.608-1.234 2.848-1.234 1.24 0 2.187.407 2.844 1.222.656.816.992 1.986 1.007 3.512v2.094ZM232.891 364c0-.943-.13-1.629-.387-2.059-.258-.43-.66-.644-1.207-.644-.531 0-.923.204-1.176.613-.253.409-.387 1.048-.402 1.918v2.766c0 .927.126 1.616.379 2.066.252.45.657.676 1.214.676.553 0 .951-.216 1.196-.649.245-.432.372-1.093.383-1.984V364ZM244.328 366.297c0 1.573-.325 2.776-.976 3.61-.651.833-1.605 1.25-2.86 1.25-1.24 0-2.187-.41-2.844-1.227-.656-.818-.992-1.99-1.007-3.516v-2.094c0-1.588.33-2.794.988-3.617.659-.823 1.608-1.234 2.848-1.234 1.24 0 2.187.407 2.843 1.222.657.816.993 1.986 1.008 3.512v2.094ZM242.07 364c0-.943-.129-1.629-.386-2.059-.258-.43-.66-.644-1.207-.644-.532 0-.924.204-1.176.613-.253.409-.387 1.048-.403 1.918v2.766c0 .927.127 1.616.38 2.066.252.45.657.676 1.214.676.552 0 .95-.216 1.196-.649.244-.432.372-1.093.382-1.984V364ZM253.508 366.297c0 1.573-.326 2.776-.977 3.61-.65.833-1.604 1.25-2.86 1.25-1.239 0-2.187-.41-2.843-1.227-.656-.818-.992-1.99-1.008-3.516v-2.094c0-1.588.33-2.794.989-3.617.658-.823 1.608-1.234 2.847-1.234 1.24 0 2.188.407 2.844 1.222.656.816.992 1.986 1.008 3.512v2.094ZM251.25 364c0-.943-.129-1.629-.387-2.059-.258-.43-.66-.644-1.207-.644-.531 0-.923.204-1.176.613-.252.409-.386 1.048-.402 1.918v2.766c0 .927.126 1.616.379 2.066.253.45.658.676 1.215.676.552 0 .95-.216 1.195-.649.245-.432.373-1.093.383-1.984V364ZM255.71 373.852l-1.179-.618.281-.507c.35-.636.53-1.269.54-1.899v-1.75h1.906l-.008 1.563c-.005.578-.151 1.161-.438 1.75a4.486 4.486 0 0 1-1.101 1.46ZM266.594 366.297c0 1.573-.326 2.776-.977 3.61-.65.833-1.604 1.25-2.86 1.25-1.239 0-2.187-.41-2.843-1.227-.656-.818-.992-1.99-1.008-3.516v-2.094c0-1.588.33-2.794.989-3.617.658-.823 1.608-1.234 2.847-1.234 1.24 0 2.188.407 2.844 1.222.656.816.992 1.986 1.008 3.512v2.094ZM264.336 364c0-.943-.129-1.629-.387-2.059-.258-.43-.66-.644-1.207-.644-.531 0-.923.204-1.176.613-.252.409-.386 1.048-.402 1.918v2.766c0 .927.126 1.616.379 2.066.253.45.658.676 1.215.676.552 0 .95-.216 1.195-.649.245-.432.373-1.093.383-1.984V364ZM275.773 366.297c0 1.573-.325 2.776-.976 3.61-.651.833-1.604 1.25-2.86 1.25-1.24 0-2.187-.41-2.843-1.227-.656-.818-.992-1.99-1.008-3.516v-2.094c0-1.588.33-2.794.988-3.617.66-.823 1.608-1.234 2.848-1.234 1.24 0 2.187.407 2.844 1.222.656.816.992 1.986 1.007 3.512v2.094ZM273.516 364c0-.943-.13-1.629-.387-2.059-.258-.43-.66-.644-1.207-.644-.531 0-.923.204-1.176.613-.253.409-.387 1.048-.402 1.918v2.766c0 .927.126 1.616.379 2.066.252.45.657.676 1.214.676.553 0 .951-.216 1.196-.649.245-.432.372-1.093.383-1.984V364ZM284.953 366.297c0 1.573-.325 2.776-.976 3.61-.651.833-1.605 1.25-2.86 1.25-1.24 0-2.187-.41-2.844-1.227-.656-.818-.992-1.99-1.007-3.516v-2.094c0-1.588.33-2.794.988-3.617.659-.823 1.608-1.234 2.848-1.234 1.24 0 2.187.407 2.843 1.222.657.816.993 1.986 1.008 3.512v2.094ZM282.695 364c0-.943-.129-1.629-.386-2.059-.258-.43-.66-.644-1.207-.644-.532 0-.924.204-1.176.613-.253.409-.387 1.048-.403 1.918v2.766c0 .927.127 1.616.38 2.066.252.45.657.676 1.214.676.552 0 .95-.216 1.195-.649.245-.432.373-1.093.383-1.984V364Z" fill="#1DAA63"/></g><g fill="#FFF"><path d="M115.68 370.97c.31-.545.581-1.169.813-1.754.232-.74.426-1.481.464-2.3.542-5.926-4.138-10.916-9.98-10.916-.309 0-.58 0-.889.039-4.758.429-8.626 4.288-9.051 9.045-.116 1.442.039 2.846.503 4.132.193.624.464 1.209.812 1.755.658 1.17 1.586 2.183 2.63 3.002 1.664 1.286 3.752 2.027 6.034 2.027.31 0 .62 0 .89-.039 1.895-.156 3.675-.897 5.106-1.988 1.122-.78 2.011-1.833 2.669-3.002Zm-2.243-10.954-1.199 1.17v-.079c0-.429-.232-.702-.619-1.013l-.038-.04 1.005-.857c.349.273.62.546.851.819Zm-8.122 4.171c-.117-.078-.155-.234-.31-.312-.387-.234-.619-.156-.735-.195-.116-.039-.232-.195-.232-.195s-.193.078-.27 0c-.078-.078-.078-.117-.04-.156.233-.156.58-.428.968-.428.348 0 .967.117 1.005.35.039.156.116.585.155.858 0 .117.077.234-.039.273-.116.04-.154-.078-.232-.156-.038-.039-.154.04-.27-.039Zm.58-1.793c.696.312.31.624-.194.585-.31-.04-.425-.351-.735-.702-.464-.468-1.005-.078-1.315 0-.154.039-.27-.156-.193-.429l.116-.234c.31-.35 1.122-.35 1.431-.117 0 0 .039 0 .039.04.193.155.58.779.85.857Zm2.437-.39c.425-.39.58-.429 1.005-.468.271-.039.542.039.735.078.155.039.31.234.426.468.077.117.193.468.154.74 0 .079-.077.118-.116.079.039-.04-.193-1.053-1.121-.858-.697.117-1.083.468-1.277.585-.155.117-.232-.156-.193-.312v-.04c0-.038.038-.077.077-.077.039-.04.155-.078.31-.195Zm.193 2.105s-.116.195-.232.156c-.193-.078 0-.975.077-1.208.078-.234.697-.351 1.083-.39.387 0 .774.273 1.006.429.039.077.077.116-.039.194-.077.078-.27 0-.27 0s-.31.39-.426.468c-.077.117-1.199.351-1.199.351Zm-6.112-5.614.62-.35c.077-.04.115-.079.193-.079l1.238 1.638-.233-2.067a8.805 8.805 0 0 1 1.084-.272l.85 2.456.233-2.573c.193-.04.348-.04.58-.04.193 0 .348 0 .541.04l.232 2.495.851-2.34c.387.04.735.156 1.083.273l-.232 2.106 1.238-1.716c.348.156.696.351 1.006.546l-.58 1.17c-.349-.156-.697-.234-.851 0-.232.39-.465.662-.58.623-.271-.039-.736-.311-1.277-.311-.193 0-.387.039-.503.078-.619.194-.812.662-.812.662s-.542-.701-1.47-.701c-.928 0-1.276.311-1.276.311s-.233-.584-.426-.74c-.155-.117-.58-.04-1.006.195l-.038-.078-.62-1.17.155-.156Zm-1.044.78.967.897.077.078c-.309.272-.541.623-.618.896l-1.2-1.091.774-.78Zm8.355 15.127-1.083-2.145-.116-.234v.195l.155 2.495a5.211 5.211 0 0 1-1.122.117l-.503-1.52-.541 1.52c-.387-.039-.735-.078-1.122-.117l.077-2.456v-.078l-.038.078-1.083 2.145c-.349-.117-.697-.234-1.045-.43l.387-1.052.774-2.183-2.09 2.69c-.309-.195-.618-.39-.889-.624l2.553-3.587-3.404 2.846c-.232-.273-.503-.545-.696-.857l2.011-1.677 1.393-1.13-3.984 1.91a4.802 4.802 0 0 1-.464-1.014l4.022-1.871-1.624.312-2.747.546c-.077-.351-.154-.702-.193-1.092l.967-.195 1.431-.273 1.934-.39-1.47-.078-2.978-.195v-.429l.039-.194c0-.156.038-.312.038-.468l3.21.195.93.039-.968-.312-3.017-.975a5.59 5.59 0 0 1 .348-1.052l3.288.74-2.785-1.754.58-.936 1.664.78 1.276.585c-.039.117-.155.429-.116.974.039.78-.077 1.287.232 1.599.31.312.774.585 1.006.897.038.078.077.117.154.195.078.077.078.116.155.194.039.04.039.078.078.117.193-.311.541-.467.618-.428.04.039-.154.194-.348.623a2.472 2.472 0 0 1-.154.351c-.078.156-.194.39-.233.585-.077.312-.154.585-.116.975 0 .117.04.234.078.35.038.156.116.351.193.507.155.351.348.663.426.78.154.156.503.078.812 0 .31-.078.812-.35.967-.585.193-.273.348-.429.31-.78-.04-.233-.271-.623-.503-.74l-.04-.04c-.231-.116-.58-.389-.695-.545-.039-.078-.155-.195-.194-.312-.038-.078-.116-.195-.077-.195.077-.039.077-.039.193.04.078.077.116.155.155.116.039-.039 0-.039 0-.078.039-.078.077-.117.193-.195.271-.117.697.195 1.2.195.464 0 1.083-.429 1.315-.273.154.117.154.195.154.273 0 0 0 .04.039.04.077 0 .155-.079.193-.157.04-.039.078-.078.155-.039.078.04.039.117 0 .195s-.077.195-.116.195c-.193.078-.503.078-.928.468-.078.078-.194.156-.232.234-.271.273-.387.546-.426.74-.038.157.078.507.232.741.155.195.387.351.813.43h.077c.387.038 1.006-.118 1.199-.274.193-.156.348-.39.426-.662.038-.078.038-.195.077-.273.077-.43.039-1.092-.077-1.365a7.673 7.673 0 0 0-.233-.546c-.154-.35-.309-.546-.232-.585.078-.077.31.117.426.234.039-.117.039-.35.077-.506.078-.312.232-.468.542-.663.348-.234.928-.546.967-.897.038-.156.038-.429.038-.663 0-.273 0-.506-.038-.662-.039-.156-.116-.39-.155-.585l1.044-.585 1.625-.858c.232.312.425.624.58.936l-2.746 1.715 3.21-.74c.155.35.232.701.348 1.052l-2.94.975-1.198.39 1.16-.078 3.21-.234c.04.35.078.74.078 1.092v.039l-2.978.194-1.432.078 1.818.351 1.586.273.929.156c-.04.351-.117.74-.194 1.092l-2.862-.546-1.47-.273 3.984 1.832c-.155.351-.31.702-.464 1.014l-3.984-1.871 1.43 1.17 1.974 1.598c-.232.312-.465.585-.697.857l-3.133-2.378 2.321 3.236c-.27.234-.58.468-.89.663l-2.282-3.002.929 2.495.386 1.053c-.309.195-.657.312-1.044.429Z"/><path d="M108.992 370.16a4.74 4.74 0 0 1-.755-.082 2.608 2.608 0 0 1-1.073-.45c-.16-.081-.318-.081-.437.041-.477.409-1.113.818-1.749.94-.12.041-.159.205-.08.368.12.245.438.654.716.899.08.082.198.163.278.204.159.123.278.164.397.286.2.164.477.573.636.736 0 .04.04.04.04.04.04 0 .04 0 .04-.04.08-.163.318-.572.596-.776a2.21 2.21 0 0 1 .318-.246c.318-.204.715-.53.834-.858.08-.204.199-.49.318-.654.04-.04.04-.081.04-.122.08-.164 0-.286-.12-.286"/></g></g><mask id="d" fill="#fff"><use xlink:href="#c"/></mask><use fill="#45A3F8" xlink:href="#c"/><g mask="url(#d)"><path fill="#000" opacity=".737" d="M378 0h334v332H378z"/><g transform="translate(410 193)"><rect fill="#FD5C3C" width="271" height="48" rx="6"/><g fill="#FFF" fill-rule="nonzero"><path d="M119.946 25.992V30h-2.344V18.625h4.438c.854 0 1.605.156 2.253.469.649.312 1.148.756 1.497 1.332.349.575.523 1.23.523 1.965 0 1.114-.381 1.993-1.145 2.636-.763.644-1.819.965-3.167.965h-2.055Zm0-1.898h2.094c.62 0 1.092-.146 1.418-.438.325-.291.488-.708.488-1.25 0-.557-.164-1.008-.492-1.351-.328-.344-.782-.521-1.36-.532h-2.148v3.57ZM130.266 28.117h4.977V30h-7.32V18.625h2.343zM143.157 27.656h-4.11l-.78 2.344h-2.493l4.234-11.375h2.172L146.438 30h-2.492l-.79-2.344Zm-3.477-1.898h2.844l-1.43-4.258-1.414 4.258ZM150.25 23.75l2.368-5.125h2.562l-3.734 7.25V30h-2.383v-4.125l-3.734-7.25h2.57z"/></g></g><g fill="#FFF" fill-rule="nonzero"><path d="M417.84 105.754h-2.8V112h-3.517V94.937h6.34c2.016 0 3.57.45 4.664 1.348 1.094.899 1.641 2.168 1.641 3.809 0 1.164-.252 2.135-.756 2.912-.504.777-1.267 1.396-2.29 1.857l3.69 6.973V112h-3.773l-3.2-6.246Zm-2.8-2.848h2.835c.883 0 1.566-.224 2.05-.674.485-.449.727-1.068.727-1.857 0-.805-.228-1.438-.685-1.898-.457-.461-1.158-.692-2.104-.692h-2.824v5.121ZM432.453 112.234c-1.86 0-3.373-.57-4.54-1.71-1.169-1.141-1.753-2.66-1.753-4.56v-.327c0-1.274.246-2.412.738-3.416.493-1.004 1.19-1.778 2.092-2.32.903-.544 1.932-.815 3.088-.815 1.734 0 3.1.547 4.096 1.64.996 1.094 1.494 2.645 1.494 4.653v1.383h-8.074c.11.828.44 1.492.99 1.992s1.248.75 2.092.75c1.304 0 2.324-.473 3.058-1.418l1.664 1.863c-.507.719-1.195 1.28-2.062 1.682-.867.402-1.828.603-2.883.603Zm-.387-10.406c-.671 0-1.216.227-1.634.68-.418.453-.686 1.101-.803 1.945h4.71v-.27c-.015-.75-.218-1.33-.609-1.74-.39-.41-.945-.615-1.664-.615ZM445.426 112.234c-1.86 0-3.373-.57-4.541-1.71-1.168-1.141-1.752-2.66-1.752-4.56v-.327c0-1.274.246-2.412.738-3.416s1.19-1.778 2.092-2.32c.902-.544 1.932-.815 3.088-.815 1.734 0 3.1.547 4.095 1.64.997 1.094 1.495 2.645 1.495 4.653v1.383h-8.075c.11.828.44 1.492.99 1.992.551.5 1.249.75 2.092.75 1.305 0 2.325-.473 3.059-1.418l1.664 1.863c-.508.719-1.195 1.28-2.062 1.682-.868.402-1.829.603-2.883.603Zm-.387-10.406c-.672 0-1.217.227-1.635.68-.418.453-.685 1.101-.802 1.945h4.71v-.27c-.015-.75-.218-1.33-.609-1.74-.39-.41-.945-.615-1.664-.615ZM465.078 105.754h-2.8V112h-3.516V94.937h6.34c2.015 0 3.57.45 4.664 1.348 1.093.899 1.64 2.168 1.64 3.809 0 1.164-.252 2.135-.756 2.912-.504.777-1.267 1.396-2.29 1.857l3.69 6.973V112h-3.773l-3.199-6.246Zm-2.8-2.848h2.835c.883 0 1.567-.224 2.051-.674.484-.449.727-1.068.727-1.857 0-.805-.229-1.438-.686-1.898-.457-.461-1.158-.692-2.103-.692h-2.825v5.121ZM481.45 110.71c-.837 1.017-1.993 1.524-3.47 1.524-1.359 0-2.396-.39-3.11-1.171-.716-.782-1.08-1.926-1.097-3.434V99.32h3.387v8.192c0 1.32.602 1.98 1.805 1.98 1.148 0 1.937-.398 2.367-1.195V99.32h3.398V112h-3.187l-.094-1.29ZM494.152 108.496c0-.414-.205-.74-.615-.978-.41-.239-1.068-.452-1.975-.64-3.015-.632-4.523-1.913-4.523-3.843 0-1.125.467-2.064 1.4-2.818.934-.754 2.155-1.131 3.663-1.131 1.609 0 2.896.379 3.86 1.137.966.757 1.448 1.742 1.448 2.953h-3.387c0-.485-.156-.885-.468-1.201-.313-.317-.801-.475-1.465-.475-.57 0-1.012.129-1.324.387a1.22 1.22 0 0 0-.47.984c0 .375.179.678.534.908.356.23.955.43 1.799.598.844.168 1.555.357 2.133.568 1.789.657 2.683 1.793 2.683 3.41 0 1.157-.496 2.092-1.488 2.807-.992.715-2.273 1.072-3.844 1.072-1.062 0-2.006-.19-2.83-.568-.824-.379-1.47-.898-1.94-1.559-.468-.66-.702-1.373-.702-2.138h3.21c.032.601.254 1.062.669 1.383.414.32.968.48 1.664.48.648 0 1.138-.123 1.47-.37.332-.245.498-.567.498-.966ZM502.93 100.703c.898-1.078 2.027-1.617 3.386-1.617 2.75 0 4.145 1.598 4.184 4.793V112h-3.387v-8.027c0-.727-.156-1.264-.468-1.612-.313-.347-.833-.521-1.56-.521-.991 0-1.71.383-2.155 1.148V112h-3.387V94h3.387v6.703ZM530.586 112H518.89v-2.32l5.52-5.883c.757-.828 1.318-1.55 1.68-2.168.364-.617.546-1.203.546-1.758 0-.758-.192-1.353-.574-1.787-.383-.434-.93-.65-1.641-.65-.766 0-1.37.263-1.81.79-.442.528-.663 1.221-.663 2.08h-3.398c0-1.038.248-1.988.744-2.847a5.245 5.245 0 0 1 2.103-2.021c.907-.489 1.934-.733 3.082-.733 1.758 0 3.124.422 4.096 1.266.973.844 1.46 2.035 1.46 3.574 0 .844-.22 1.703-.657 2.578-.438.875-1.188 1.895-2.25 3.059l-3.879 4.09h7.336V112ZM420.062 133h-1.508l-5.726-8.766V133h-1.508v-11.375h1.508l5.742 8.805v-8.805h1.492zM426.008 133.156c-1.146 0-2.078-.376-2.797-1.129-.719-.752-1.078-1.759-1.078-3.02v-.265c0-.838.16-1.587.48-2.246a3.748 3.748 0 0 1 1.344-1.547 3.378 3.378 0 0 1 1.871-.558c1.1 0 1.953.362 2.563 1.086.609.724.914 1.76.914 3.109v.601h-5.727c.021.834.264 1.507.73 2.02.467.513 1.06.77 1.778.77.51 0 .943-.105 1.297-.313.354-.208.664-.484.93-.828l.882.687c-.708 1.089-1.77 1.633-3.187 1.633Zm-.18-7.578c-.583 0-1.073.212-1.469.637-.395.424-.64 1.02-.734 1.785h4.234v-.11c-.041-.734-.24-1.303-.593-1.706-.355-.404-.834-.606-1.438-.606ZM432.937 122.5v2.047h1.579v1.117h-1.579v5.242c0 .339.07.593.211.762.141.17.38.254.72.254a3.5 3.5 0 0 0 .687-.094V133a4.19 4.19 0 0 1-1.11.156c-.646 0-1.133-.195-1.46-.586-.329-.39-.493-.945-.493-1.664v-5.242h-1.539v-1.117h1.54V122.5h1.444ZM442.86 127.742h-4.93v4.031h5.726V133h-7.227v-11.375h7.15v1.234h-5.65v3.657h4.93zM446.664 124.547l.047 1.062c.646-.812 1.49-1.218 2.531-1.218 1.787 0 2.688 1.007 2.703 3.023V133H450.5v-5.594c-.005-.61-.145-1.06-.418-1.351-.273-.292-.7-.438-1.277-.438-.47 0-.88.125-1.235.375-.354.25-.63.578-.828.985V133h-1.445v-8.453h1.367ZM456.086 122.5v2.047h1.578v1.117h-1.578v5.242c0 .339.07.593.21.762.141.17.381.254.72.254a3.5 3.5 0 0 0 .687-.094V133a4.19 4.19 0 0 1-1.11.156c-.645 0-1.132-.195-1.46-.586-.328-.39-.492-.945-.492-1.664v-5.242h-1.54v-1.117h1.54V122.5h1.445Z"/></g><g fill-rule="nonzero"><path d="M438.586 159.625h1.508v8.055c0 1.088-.327 1.94-.98 2.554-.654.615-1.525.922-2.614.922-1.13 0-2.01-.289-2.64-.867-.63-.578-.946-1.388-.946-2.43h1.5c0 .651.178 1.16.535 1.524.357.364.874.547 1.551.547.62 0 1.121-.196 1.504-.586.383-.39.577-.938.582-1.64v-8.079ZM448.93 168.031h-4.766l-1.07 2.969h-1.547l4.344-11.375h1.312L451.555 171h-1.54l-1.085-2.969Zm-4.313-1.234h3.867l-1.937-5.32-1.93 5.32ZM461.453 167.39c-.14 1.204-.585 2.132-1.332 2.786-.747.653-1.74.98-2.98.98-1.344 0-2.42-.482-3.23-1.445-.81-.964-1.216-2.253-1.216-3.867v-1.094c0-1.057.19-1.987.567-2.79.377-.801.912-1.417 1.605-1.847.693-.43 1.495-.644 2.406-.644 1.209 0 2.178.337 2.907 1.011.729.675 1.153 1.609 1.273 2.801h-1.508c-.13-.906-.412-1.562-.847-1.969-.435-.406-1.043-.609-1.825-.609-.958 0-1.71.354-2.253 1.063-.545.708-.817 1.716-.817 3.023v1.102c0 1.234.258 2.216.774 2.945.515.73 1.237 1.094 2.164 1.094.833 0 1.472-.19 1.918-.567.445-.377.74-1.035.886-1.972h1.508ZM466.391 165.71l-1.39 1.447V171h-1.5v-11.375h1.5v5.625l5.054-5.625h1.812l-4.476 5.024 4.828 6.35h-1.797zM475.031 166.547V171h-1.5v-11.375h4.196c1.244 0 2.22.318 2.925.953.706.636 1.059 1.477 1.059 2.524 0 1.104-.345 1.954-1.035 2.55-.69.597-1.679.895-2.965.895h-2.68Zm0-1.227h2.696c.802 0 1.416-.188 1.843-.566.427-.378.64-.923.64-1.637 0-.677-.213-1.219-.64-1.625-.427-.406-1.013-.617-1.758-.633h-2.78v4.461ZM492.375 165.68c0 1.114-.188 2.087-.563 2.918-.375.83-.906 1.464-1.593 1.902-.688.438-1.49.656-2.407.656-.895 0-1.69-.22-2.382-.66-.693-.44-1.23-1.068-1.614-1.883-.382-.815-.579-1.759-.59-2.832v-.82c0-1.094.19-2.06.57-2.899.381-.838.919-1.48 1.614-1.925.695-.446 1.491-.668 2.387-.668.911 0 1.715.22 2.41.66.695.44 1.23 1.078 1.605 1.914.375.836.563 1.809.563 2.918v.719Zm-1.492-.735c0-1.349-.271-2.384-.813-3.105-.541-.722-1.3-1.082-2.273-1.082-.948 0-1.694.36-2.238 1.082-.545.721-.825 1.722-.84 3.004v.836c0 1.307.274 2.334.824 3.082.55.747 1.306 1.12 2.27 1.12.968 0 1.718-.352 2.25-1.058.53-.706.804-1.717.82-3.035v-.844ZM502.484 160.86h-3.656V171h-1.492v-10.14h-3.649v-1.235h8.797z" fill="#FFF"/><path d="M513.797 166.969h-2.617c.026.765.23 1.34.613 1.726.383.386.978.578 1.785.578.547 0 1.042-.08 1.484-.242l.282 1.89a8.754 8.754 0 0 1-2 .227c-1.37 0-2.455-.368-3.254-1.105-.8-.737-1.22-1.762-1.262-3.074h-1.32v-1.188h1.32v-.969h-1.32v-1.187h1.336c.088-1.313.545-2.332 1.37-3.059.826-.726 1.921-1.09 3.286-1.09.547 0 1.161.081 1.844.243l-.282 1.898a4.467 4.467 0 0 0-1.445-.25c-1.474 0-2.281.753-2.422 2.258h2.602v1.188h-2.617v.968h2.617v1.188ZM522.25 171h-2.258v-8.703l-2.695.836v-1.836l4.711-1.687h.242zM533.602 166.297c0 1.573-.326 2.776-.977 3.61-.651.833-1.604 1.25-2.86 1.25-1.239 0-2.187-.41-2.843-1.227-.656-.818-.992-1.99-1.008-3.516v-2.094c0-1.588.33-2.794.988-3.617.66-.823 1.608-1.234 2.848-1.234 1.24 0 2.187.407 2.844 1.222.656.816.992 1.986 1.008 3.512v2.094ZM531.344 164c0-.943-.13-1.629-.387-2.059-.258-.43-.66-.644-1.207-.644-.531 0-.923.204-1.176.613-.252.409-.387 1.048-.402 1.918v2.766c0 .927.126 1.616.379 2.066.252.45.657.676 1.215.676.552 0 .95-.216 1.195-.649.245-.432.372-1.093.383-1.984V164ZM535.805 173.852l-1.18-.618.281-.507c.35-.636.529-1.269.54-1.899v-1.75h1.906l-.008 1.563c-.005.578-.151 1.161-.438 1.75a4.486 4.486 0 0 1-1.101 1.46ZM546.688 166.297c0 1.573-.326 2.776-.977 3.61-.651.833-1.604 1.25-2.86 1.25-1.239 0-2.187-.41-2.843-1.227-.656-.818-.992-1.99-1.008-3.516v-2.094c0-1.588.33-2.794.988-3.617.66-.823 1.608-1.234 2.848-1.234 1.24 0 2.187.407 2.844 1.222.656.816.992 1.986 1.008 3.512v2.094ZM544.43 164c0-.943-.13-1.629-.387-2.059-.258-.43-.66-.644-1.207-.644-.531 0-.923.204-1.176.613-.252.409-.387 1.048-.402 1.918v2.766c0 .927.126 1.616.379 2.066.252.45.657.676 1.215.676.552 0 .95-.216 1.195-.649.245-.432.372-1.093.383-1.984V164ZM555.867 166.297c0 1.573-.325 2.776-.976 3.61-.651.833-1.605 1.25-2.86 1.25-1.24 0-2.187-.41-2.843-1.227-.657-.818-.993-1.99-1.008-3.516v-2.094c0-1.588.33-2.794.988-3.617.659-.823 1.608-1.234 2.848-1.234 1.24 0 2.187.407 2.843 1.222.657.816.993 1.986 1.008 3.512v2.094ZM553.61 164c0-.943-.129-1.629-.386-2.059-.258-.43-.66-.644-1.207-.644-.532 0-.924.204-1.176.613-.253.409-.387 1.048-.403 1.918v2.766c0 .927.127 1.616.38 2.066.252.45.657.676 1.214.676.552 0 .95-.216 1.196-.649.244-.432.372-1.093.382-1.984V164ZM565.047 166.297c0 1.573-.326 2.776-.977 3.61-.65.833-1.604 1.25-2.86 1.25-1.239 0-2.187-.41-2.843-1.227-.656-.818-.992-1.99-1.008-3.516v-2.094c0-1.588.33-2.794.989-3.617s1.608-1.234 2.847-1.234c1.24 0 2.188.407 2.844 1.222.656.816.992 1.986 1.008 3.512v2.094ZM562.789 164c0-.943-.129-1.629-.387-2.059-.257-.43-.66-.644-1.207-.644-.53 0-.923.204-1.175.613-.253.409-.387 1.048-.403 1.918v2.766c0 .927.126 1.616.38 2.066.252.45.657.676 1.214.676.552 0 .95-.216 1.195-.649.245-.432.373-1.093.383-1.984V164ZM567.25 173.852l-1.18-.618.282-.507c.349-.636.528-1.269.539-1.899v-1.75h1.906l-.008 1.563c-.005.578-.151 1.161-.437 1.75a4.486 4.486 0 0 1-1.102 1.46ZM578.133 166.297c0 1.573-.326 2.776-.977 3.61-.65.833-1.604 1.25-2.86 1.25-1.239 0-2.187-.41-2.843-1.227-.656-.818-.992-1.99-1.008-3.516v-2.094c0-1.588.33-2.794.989-3.617.658-.823 1.608-1.234 2.847-1.234 1.24 0 2.188.407 2.844 1.222.656.816.992 1.986 1.008 3.512v2.094ZM575.875 164c0-.943-.129-1.629-.387-2.059-.258-.43-.66-.644-1.207-.644-.531 0-.923.204-1.176.613-.252.409-.386 1.048-.402 1.918v2.766c0 .927.126 1.616.379 2.066.253.45.658.676 1.215.676.552 0 .95-.216 1.195-.649.245-.432.373-1.093.383-1.984V164ZM587.313 166.297c0 1.573-.326 2.776-.977 3.61-.651.833-1.604 1.25-2.86 1.25-1.239 0-2.187-.41-2.843-1.227-.656-.818-.992-1.99-1.008-3.516v-2.094c0-1.588.33-2.794.988-3.617.66-.823 1.608-1.234 2.848-1.234 1.24 0 2.187.407 2.844 1.222.656.816.992 1.986 1.008 3.512v2.094ZM585.054 164c0-.943-.13-1.629-.387-2.059-.258-.43-.66-.644-1.207-.644-.531 0-.923.204-1.176.613-.252.409-.387 1.048-.402 1.918v2.766c0 .927.126 1.616.379 2.066.252.45.657.676 1.215.676.552 0 .95-.216 1.195-.649.245-.432.372-1.093.383-1.984V164ZM596.492 166.297c0 1.573-.325 2.776-.976 3.61-.651.833-1.605 1.25-2.86 1.25-1.24 0-2.187-.41-2.843-1.227-.657-.818-.993-1.99-1.008-3.516v-2.094c0-1.588.33-2.794.988-3.617.659-.823 1.608-1.234 2.848-1.234 1.24 0 2.187.407 2.843 1.222.657.816.993 1.986 1.008 3.512v2.094ZM594.234 164c0-.943-.129-1.629-.386-2.059-.258-.43-.66-.644-1.207-.644-.532 0-.924.204-1.176.613-.253.409-.387 1.048-.403 1.918v2.766c0 .927.127 1.616.38 2.066.252.45.657.676 1.214.676.552 0 .95-.216 1.196-.649.244-.432.372-1.093.382-1.984V164Z" fill="#1DAA63"/></g><g fill="#FFF"><path d="M428.68 169.97c.31-.545.581-1.169.813-1.754.232-.74.426-1.481.464-2.3.542-5.926-4.138-10.916-9.98-10.916-.309 0-.58 0-.889.039-4.758.429-8.626 4.288-9.051 9.045-.116 1.442.039 2.846.503 4.132.193.624.464 1.209.812 1.755.658 1.17 1.586 2.183 2.63 3.002 1.664 1.286 3.752 2.027 6.034 2.027.31 0 .62 0 .89-.039 1.895-.156 3.675-.897 5.106-1.988 1.122-.78 2.011-1.833 2.669-3.002Zm-2.243-10.954-1.199 1.17v-.079c0-.429-.232-.702-.619-1.013l-.038-.04 1.005-.857c.349.273.62.546.851.819Zm-8.122 4.171c-.117-.078-.155-.234-.31-.312-.387-.234-.619-.156-.735-.195-.116-.039-.232-.195-.232-.195s-.193.078-.27 0c-.078-.078-.078-.117-.04-.156.233-.156.58-.428.968-.428.348 0 .967.117 1.005.35.039.156.116.585.155.858 0 .117.077.234-.039.273-.116.04-.154-.078-.232-.156-.038-.039-.154.04-.27-.039Zm.58-1.793c.696.312.31.624-.194.585-.31-.04-.425-.351-.735-.702-.464-.468-1.005-.078-1.315 0-.154.039-.27-.156-.193-.429l.116-.234c.31-.35 1.122-.35 1.431-.117 0 0 .039 0 .039.04.193.155.58.779.85.857Zm2.437-.39c.425-.39.58-.429 1.005-.468.271-.039.542.039.735.078.155.039.31.234.426.468.077.117.193.468.154.74 0 .079-.077.118-.116.079.039-.04-.193-1.053-1.121-.858-.697.117-1.083.468-1.277.585-.155.117-.232-.156-.193-.312v-.04c0-.038.038-.077.077-.077.039-.04.155-.078.31-.195Zm.193 2.105s-.116.195-.232.156c-.193-.078 0-.975.077-1.208.078-.234.697-.351 1.083-.39.387 0 .774.273 1.006.429.039.077.077.116-.039.194-.077.078-.27 0-.27 0s-.31.39-.426.468c-.077.117-1.199.351-1.199.351Zm-6.112-5.614.62-.35c.077-.04.115-.079.193-.079l1.238 1.638-.233-2.067a8.805 8.805 0 0 1 1.084-.272l.85 2.456.233-2.573c.193-.04.348-.04.58-.04.193 0 .348 0 .541.04l.232 2.495.851-2.34c.387.04.735.156 1.083.273l-.232 2.106 1.238-1.716c.348.156.696.351 1.006.546l-.58 1.17c-.349-.156-.697-.234-.851 0-.232.39-.465.662-.58.623-.271-.039-.736-.311-1.277-.311-.193 0-.387.039-.503.078-.619.194-.812.662-.812.662s-.542-.701-1.47-.701c-.928 0-1.276.311-1.276.311s-.233-.584-.426-.74c-.155-.117-.58-.04-1.006.195l-.038-.078-.62-1.17.155-.156Zm-1.044.78.967.897.077.078c-.309.272-.541.623-.618.896l-1.2-1.091.774-.78Zm8.355 15.127-1.083-2.145-.116-.234v.195l.155 2.495a5.211 5.211 0 0 1-1.122.117l-.503-1.52-.541 1.52c-.387-.039-.735-.078-1.122-.117l.077-2.456v-.078l-.038.078-1.083 2.145c-.349-.117-.697-.234-1.045-.43l.387-1.052.774-2.183-2.09 2.69c-.309-.195-.618-.39-.889-.624l2.553-3.587-3.404 2.846c-.232-.273-.503-.545-.696-.857l2.011-1.677 1.393-1.13-3.984 1.91a4.802 4.802 0 0 1-.464-1.014l4.022-1.871-1.624.312-2.747.546c-.077-.351-.154-.702-.193-1.092l.967-.195 1.431-.273 1.934-.39-1.47-.078-2.978-.195v-.429l.039-.194c0-.156.038-.312.038-.468l3.21.195.93.039-.968-.312-3.017-.975a5.59 5.59 0 0 1 .348-1.052l3.288.74-2.785-1.754.58-.936 1.664.78 1.276.585c-.039.117-.155.429-.116.974.039.78-.077 1.287.232 1.599.31.312.774.585 1.006.897.038.078.077.117.154.195.078.077.078.116.155.194.039.04.039.078.078.117.193-.311.541-.467.618-.428.04.039-.154.194-.348.623a2.472 2.472 0 0 1-.154.351c-.078.156-.194.39-.233.585-.077.312-.154.585-.116.975 0 .117.04.234.078.35.038.156.116.351.193.507.155.351.348.663.426.78.154.156.503.078.812 0 .31-.078.812-.35.967-.585.193-.273.348-.429.31-.78-.04-.233-.271-.623-.503-.74l-.04-.04c-.231-.116-.58-.389-.695-.545-.039-.078-.155-.195-.194-.312-.038-.078-.116-.195-.077-.195.077-.039.077-.039.193.04.078.077.116.155.155.116.039-.039 0-.039 0-.078.039-.078.077-.117.193-.195.271-.117.697.195 1.2.195.464 0 1.083-.429 1.315-.273.154.117.154.195.154.273 0 0 0 .04.039.04.077 0 .155-.079.193-.157.04-.039.078-.078.155-.039.078.04.039.117 0 .195s-.077.195-.116.195c-.193.078-.503.078-.928.468-.078.078-.194.156-.232.234-.271.273-.387.546-.426.74-.038.157.078.507.232.741.155.195.387.351.813.43h.077c.387.038 1.006-.118 1.199-.274.193-.156.348-.39.426-.662.038-.078.038-.195.077-.273.077-.43.039-1.092-.077-1.365-.078-.195-.155-.39-.233-.546-.154-.35-.309-.546-.232-.585.078-.077.31.117.426.234.039-.117.039-.35.077-.506.078-.312.232-.468.542-.663.348-.234.928-.546.967-.897.038-.156.038-.429.038-.663 0-.273 0-.506-.038-.662-.039-.156-.116-.39-.155-.585l1.044-.585 1.625-.858c.232.312.425.624.58.936l-2.746 1.715 3.21-.74c.155.35.232.701.348 1.052l-2.94.975-1.198.39 1.16-.078 3.21-.234c.04.35.078.74.078 1.092v.039l-2.978.194-1.432.078 1.818.351 1.586.273.929.156c-.04.351-.117.74-.194 1.092l-2.862-.546-1.47-.273 3.984 1.832c-.155.351-.31.702-.464 1.014l-3.984-1.871 1.43 1.17 1.974 1.598c-.232.312-.465.585-.697.857l-3.133-2.378 2.321 3.236c-.27.234-.58.468-.89.663l-2.282-3.002.929 2.495.386 1.053c-.309.195-.657.312-1.044.429Z"/><path d="M421.992 169.16a4.74 4.74 0 0 1-.755-.082 2.608 2.608 0 0 1-1.073-.45c-.16-.081-.318-.081-.437.041-.477.409-1.113.818-1.749.94-.12.041-.159.205-.08.368.12.245.438.654.716.899.08.082.198.163.278.204.159.123.278.164.397.286.2.164.477.573.636.736 0 .04.04.04.04.04.04 0 .04 0 .04-.04.08-.163.318-.572.596-.776a2.21 2.21 0 0 1 .318-.246c.318-.204.715-.53.834-.858.08-.204.199-.49.318-.654.04-.04.04-.081.04-.122.08-.164 0-.286-.12-.286"/></g></g></g></svg>