<svg version="1.1" id="jackpot-win" xmlns="http://www.w3.org/2000/svg" xmlns:xlink="http://www.w3.org/1999/xlink" x="0" y="0" viewBox="0 0 2000 2000" xml:space="preserve">
<defs>
    <style>
        @import url('https://fonts.googleapis.com/css2?family=Russo+One');
    </style>
</defs>

<style>.jackpotWinGold{fill:#FCC015;} .jackpotWinRedStroke{fill:none;stroke:#DA3E26;stroke-width:20;stroke-miterlimit:10;} .jackpotWinGoldStroke{fill:none;stroke:#FCC015;stroke-width:20;stroke-miterlimit:10;} .jackpotWinWhite{fill:#FFFFFF;} .jackpotWinLionGradient1{fill:url(#lion-light-gradient);} .jackpotWinLionGradient2{fill:url(#lion-dark-gradient);} .jackpotWinLionGray{fill:#F3F0EC;} #lights{-webkit-mask:url('#lights-mask');mask:url('#lights-mask');} #frame{-webkit-mask:url('#text-mask');mask:url('#text-mask');} body{ background: #333; } :root { --frame-speed: 1s; --frame-delay: .5s; --lion-speed: .5s; --light-delay: .0s; --bulb-speed: .5s; --bulb-delay: .05s; --text-translateX: 10px; } #lion_logo{ opacity:0; -webkit-animation:lion-logo-fade var(--lion-speed); animation:lion-logo-fade var(--lion-speed); -webkit-animation-fill-mode: forwards; animation-fill-mode: forwards; } #lion-white, #lion-dark, #lion-light, #lion-mask-circle{ -webkit-transform: translateZ(0) translateY(50px); -ms-transform: translateZ(0) translateY(50px); transform: translateZ(0) translateY(50px); -webkit-animation:lion-intro var(--lion-speed); animation:lion-intro var(--lion-speed); -webkit-animation-timing-function:cubic-bezier(.5, 0, .5, 1); animation-timing-function:cubic-bezier(.5, 0, .5, 1); -webkit-animation-fill-mode: forwards; animation-fill-mode: forwards; } #frame-gold{} #frame-gold,#frame-red{ stroke-width:0; -webkit-transform-origin: 50% 80%; -ms-transform-origin: 50% 80%; transform-origin: 50% 80%; -webkit-animation: frame-Y, frame-stroke; animation: frame-Y, frame-stroke; -webkit-animation-duration: var(--frame-speed), var(--frame-delay); animation-duration: var(--frame-speed), var(--frame-delay); -webkit-animation-fill-mode: forwards; animation-fill-mode: forwards; } #frame-red{ -webkit-transform-origin: 50% 75%; -ms-transform-origin: 50% 75%; transform-origin: 50% 75%; -webkit-animation-delay: 0s, var(--frame-delay); animation-delay: 0s, var(--frame-delay); } .outro #frame-gold, .outro #frame-red{ stroke-width:20px; -webkit-animation: frame-stroke-outro 1s .5s; animation: frame-stroke-outro 1s .5s; -webkit-animation-fill-mode: forwards; animation-fill-mode: forwards; } @-webkit-keyframes lion-logo-fade{ 0%{opacity:0;} 100%{opacity:1;} } @keyframes lion-logo-fade{ 0%{opacity:0;} 100%{opacity:1;} } @-webkit-keyframes lion-intro{ 0%{-webkit-transform: translateZ(0) translateY(50px);transform: translateZ(0) translateY(50px);} 100%{-webkit-transform: translateZ(0) translateY(0px);transform: translateZ(0) translateY(0px);} } @keyframes lion-intro{ 0%{-webkit-transform: translateZ(0) translateY(50px);transform: translateZ(0) translateY(50px);} 100%{-webkit-transform: translateZ(0) translateY(0px);transform: translateZ(0) translateY(0px);} } .outro #lion-white, .outro #lion-dark,.outro #lion-light,.outro #lion-mask-circle{ -webkit-transform: translateZ(0) translateY(0); -ms-transform: translateZ(0) translateY(0); transform: translateZ(0) translateY(0); -webkit-animation:lion-outro .5s .5s; animation:lion-outro .5s .5s; -webkit-animation-fill-mode: forwards; animation-fill-mode: forwards; } @-webkit-keyframes frame-Y{ 0%{-webkit-transform: translateZ(0) translateY(100px) scale(.5);transform: translateZ(0) translateY(100px) scale(.5);-webkit-animation-timing-function: cubic-bezier(.4, 1.5, .3, 0.9);animation-timing-function: cubic-bezier(.4, 1.5, .3, 0.9);} 100%{-webkit-transform: translateZ(0) translate(0px) scale(1);transform: translateZ(0) translate(0px) scale(1)} } @keyframes frame-Y{ 0%{-webkit-transform: translateZ(0) translateY(100px) scale(.5);transform: translateZ(0) translateY(100px) scale(.5);-webkit-animation-timing-function: cubic-bezier(.4, 1.5, .3, 0.9);animation-timing-function: cubic-bezier(.4, 1.5, .3, 0.9);} 100%{-webkit-transform: translateZ(0) translate(0px) scale(1);transform: translateZ(0) translate(0px) scale(1)} } @-webkit-keyframes frame-stroke{ 0%{stroke-width:0px} 100%{stroke-width:20px} } @keyframes frame-stroke{ 0%{stroke-width:0px} 100%{stroke-width:20px} } /*lights into*/ .bulb-light{ stroke:#fff; stroke-width:0; stroke-miterlimit:10; -webkit-animation: light-blink var(--bulb-speed) infinite; animation: light-blink var(--bulb-speed) infinite; } .bulb-parent{ -webkit-transform-origin:50% 50%; -ms-transform-origin:50% 50%; transform-origin:50% 50%; } .bulb-parent{ -webkit-transform: translateZ(0) scale(0); -ms-transform: translateZ(0) scale(0); transform: translateZ(0) scale(0); -webkit-animation: light-intro -webkit-calc(var(--bulb-speed) * 2); animation: light-intro calc(var(--bulb-speed) * 2); -webkit-animation-fill-mode: forwards; animation-fill-mode: forwards; } .outro .light-row .bulb-parent{ -webkit-transform: translateZ(0) scale(1); -ms-transform: translateZ(0) scale(1); transform: translateZ(0) scale(1); -webkit-animation:light-outro 1s; animation:light-outro 1s; -webkit-animation-fill-mode:forwards; animation-fill-mode:forwards; } .light-row .bulb-parent:nth-child(1){ -webkit-animation-delay: -webkit-calc(var(--light-delay) + var(--bulb-delay) * 1); animation-delay: calc(var(--light-delay) + var(--bulb-delay) * 1); }.light-row .bulb-parent:nth-child(2){ -webkit-animation-delay: -webkit-calc(var(--light-delay) + var(--bulb-delay) * 2); animation-delay: calc(var(--light-delay) + var(--bulb-delay) * 2); }.light-row .bulb-parent:nth-child(3){ -webkit-animation-delay: -webkit-calc(var(--light-delay) + var(--bulb-delay) * 3); animation-delay: calc(var(--light-delay) + var(--bulb-delay) * 3); }.light-row .bulb-parent:nth-child(4){ -webkit-animation-delay: -webkit-calc(var(--light-delay) + var(--bulb-delay) * 4); animation-delay: calc(var(--light-delay) + var(--bulb-delay) * 4); }.light-row .bulb-parent:nth-child(5){ -webkit-animation-delay: -webkit-calc(var(--light-delay) + var(--bulb-delay) * 5); animation-delay: calc(var(--light-delay) + var(--bulb-delay) * 5); }.light-row .bulb-parent:nth-child(6){ -webkit-animation-delay: -webkit-calc(var(--light-delay) + var(--bulb-delay) * 6); animation-delay: calc(var(--light-delay) + var(--bulb-delay) * 6); }.light-row .bulb-parent:nth-child(7){ -webkit-animation-delay: -webkit-calc(var(--light-delay) + var(--bulb-delay) * 7); animation-delay: calc(var(--light-delay) + var(--bulb-delay) * 7); }.light-row .bulb-parent:nth-child(8){ -webkit-animation-delay: -webkit-calc(var(--light-delay) + var(--bulb-delay) * 8); animation-delay: calc(var(--light-delay) + var(--bulb-delay) * 8); }.light-row .bulb-parent:nth-child(9){ -webkit-animation-delay: -webkit-calc(var(--light-delay) + var(--bulb-delay) * 9); animation-delay: calc(var(--light-delay) + var(--bulb-delay) * 9); }.light-row .bulb-parent:nth-child(10){ -webkit-animation-delay: -webkit-calc(var(--light-delay) + var(--bulb-delay) * 10); animation-delay: calc(var(--light-delay) + var(--bulb-delay) * 10); }.light-row .bulb-parent:nth-child(11){ -webkit-animation-delay: -webkit-calc(var(--light-delay) + var(--bulb-delay) * 11); animation-delay: calc(var(--light-delay) + var(--bulb-delay) * 11); }.light-row .bulb-parent:nth-child(12){ -webkit-animation-delay: -webkit-calc(var(--light-delay) + var(--bulb-delay) * 12); animation-delay: calc(var(--light-delay) + var(--bulb-delay) * 12); }.light-row .bulb-parent:nth-child(13){ -webkit-animation-delay: -webkit-calc(var(--light-delay) + var(--bulb-delay) * 13); animation-delay: calc(var(--light-delay) + var(--bulb-delay) * 13); } /*bulbs*/ .light-row .bulb-parent:nth-child(1) .bulb .bulb-light{ -webkit-animation-delay: -webkit-calc(var(--bulb-delay) * 1); animation-delay: calc(var(--bulb-delay) * 1); } .light-row .bulb-parent:nth-child(2) .bulb .bulb-light{ -webkit-animation-delay: -webkit-calc(var(--bulb-delay) * 2); animation-delay: calc(var(--bulb-delay) * 2); } .light-row .bulb-parent:nth-child(3) .bulb .bulb-light{ -webkit-animation-delay: -webkit-calc(var(--bulb-delay) * 3); animation-delay: calc(var(--bulb-delay) * 3); } .light-row .bulb-parent:nth-child(4) .bulb .bulb-light{ -webkit-animation-delay: -webkit-calc(var(--bulb-delay) * 4); animation-delay: calc(var(--bulb-delay) * 4); } .light-row .bulb-parent:nth-child(5) .bulb .bulb-light{ -webkit-animation-delay: -webkit-calc(var(--bulb-delay) * 5); animation-delay: calc(var(--bulb-delay) * 5); } .light-row .bulb-parent:nth-child(6) .bulb .bulb-light{ -webkit-animation-delay: -webkit-calc(var(--bulb-delay) * 6); animation-delay: calc(var(--bulb-delay) * 6); } .light-row .bulb-parent:nth-child(7) .bulb .bulb-light{ -webkit-animation-delay: -webkit-calc(var(--bulb-delay) * 7); animation-delay: calc(var(--bulb-delay) * 7); } .light-row .bulb-parent:nth-child(8) .bulb .bulb-light{ -webkit-animation-delay: -webkit-calc(var(--bulb-delay) * 8); animation-delay: calc(var(--bulb-delay) * 8); } .light-row .bulb-parent:nth-child(9) .bulb .bulb-light{ -webkit-animation-delay: -webkit-calc(var(--bulb-delay) * 9); animation-delay: calc(var(--bulb-delay) * 9); } .light-row .bulb-parent:nth-child(10) .bulb .bulb-light{ -webkit-animation-delay: -webkit-calc(var(--bulb-delay) * 10); animation-delay: calc(var(--bulb-delay) * 10); } .light-row .bulb-parent:nth-child(11) .bulb .bulb-light{ -webkit-animation-delay: -webkit-calc(var(--bulb-delay) * 11); animation-delay: calc(var(--bulb-delay) * 11); } .light-row .bulb-parent:nth-child(12) .bulb .bulb-light{ -webkit-animation-delay: -webkit-calc(var(--bulb-delay) * 12); animation-delay: calc(var(--bulb-delay) * 12); } .light-row .bulb-parent:nth-child(13) .bulb .bulb-light{ -webkit-animation-delay: -webkit-calc(var(--bulb-delay) * 13); animation-delay: calc(var(--bulb-delay) * 13); } @-webkit-keyframes light-intro{ 0%{-webkit-transform: translateZ(0) scale(0);transform: translateZ(0) scale(0); -webkit-animation-timing-function: cubic-bezier(.7, 1.3, .3, 1); animation-timing-function: cubic-bezier(.7, 1.3, .3, 1);} 100%{-webkit-transform: translateZ(0) scale(1);transform: translateZ(0) scale(1);} } @keyframes light-intro{ 0%{-webkit-transform: translateZ(0) scale(0);transform: translateZ(0) scale(0); -webkit-animation-timing-function: cubic-bezier(.7, 1.3, .3, 1); animation-timing-function: cubic-bezier(.7, 1.3, .3, 1);} 100%{-webkit-transform: translateZ(0) scale(1);transform: translateZ(0) scale(1);} } @-webkit-keyframes light-blink{ 0%{stroke-width: 0px; -webkit-animation-timing-function: cubic-bezier(.5, 0, .5, 1); animation-timing-function: cubic-bezier(.5, 0, .5, 1);} 100%{stroke-width: 22px;} } @keyframes light-blink{ 0%{stroke-width: 0px; -webkit-animation-timing-function: cubic-bezier(.5, 0, .5, 1); animation-timing-function: cubic-bezier(.5, 0, .5, 1);} 100%{stroke-width: 22px;} } /*letters*/ #j, #j2{ -webkit-transform: translateZ(0) translateX( -webkit-calc( var(--text-translateX) * 3) ); -ms-transform: translateZ(0) translateX( calc( var(--text-translateX) * 3) ); transform: translateZ(0) translateX( calc( var(--text-translateX) * 3) ); } #a,#a2{ -webkit-transform: translateZ(0) translateX( -webkit-calc( var(--text-translateX) * 2) ); -ms-transform: translateZ(0) translateX( calc( var(--text-translateX) * 2) ); transform: translateZ(0) translateX( calc( var(--text-translateX) * 2) ); } #c, #c2{ -webkit-transform: translateZ(0) translateX( -webkit-calc( var(--text-translateX) * 1) ); -ms-transform: translateZ(0) translateX( calc( var(--text-translateX) * 1) ); transform: translateZ(0) translateX( calc( var(--text-translateX) * 1) ); } #k, #k2{ -webkit-transform: translateZ(0) translateX( -webkit-calc( var(--text-translateX) * 0) ); -ms-transform: translateZ(0) translateX( calc( var(--text-translateX) * 0) ); transform: translateZ(0) translateX( calc( var(--text-translateX) * 0) ); } #p, #p2{ -webkit-transform: translateZ(0) translateX( -webkit-calc( var(--text-translateX) * -1) ); -ms-transform: translateZ(0) translateX( calc( var(--text-translateX) * -1) ); transform: translateZ(0) translateX( calc( var(--text-translateX) * -1) ); } #o, #o2{ -webkit-transform: translateZ(0) translateX( -webkit-calc( var(--text-translateX) * -2) ); -ms-transform: translateZ(0) translateX( calc( var(--text-translateX) * -2) ); transform: translateZ(0) translateX( calc( var(--text-translateX) * -2) ); } #t, #t2{ -webkit-transform: translateZ(0) translateX( -webkit-calc( var(--text-translateX) * -3) ); -ms-transform: translateZ(0) translateX( calc( var(--text-translateX) * -3) ); transform: translateZ(0) translateX( calc( var(--text-translateX) * -3) ); } #j2,#a2,#c2,#k2,#p2,#o2,#t2{ stroke: #000; fill: #000; stroke-width: 20px; stroke-linejoin: round; } .jackpot-letter{ opacity:0; -webkit-animation: jackpot-text-slideX, jackpot-text-fadein; animation: jackpot-text-slideX, jackpot-text-fadein; -webkit-animation-duration: 2s,.5s; animation-duration: 2s,.5s; -webkit-animation-delay: 1s; animation-delay: 1s; -webkit-animation-fill-mode: forwards; animation-fill-mode: forwards; } .outro .jackpot-letter{ opacity:1; -webkit-animation: jackpot-text-outro; animation: jackpot-text-outro; -webkit-animation-duration: 1s; animation-duration: 1s; -webkit-animation-delay: 0; animation-delay: 0; -webkit-animation-fill-mode: forwards; animation-fill-mode: forwards; } @-webkit-keyframes jackpot-text-slideX{ 100% {-webkit-transform: translateZ(0) translateX(0px);transform: translateZ(0) translateX(0px);} } @keyframes jackpot-text-slideX{ 100% {-webkit-transform: translateZ(0) translateX(0px);transform: translateZ(0) translateX(0px);} } @-webkit-keyframes jackpot-text-fadein{ 100% {opacity: 1;} } @keyframes jackpot-text-fadein{ 100% {opacity: 1;} } /*win numbers*/ .numbers{ opacity:0; font-family: 'Russo One', sans-serif; font-size:50px; -webkit-animation: animate-num, animate-num-endloop; animation: animate-num, animate-num-endloop; -webkit-animation-duration: 3s, 1.0s; animation-duration: 3s, 1.0s; -webkit-animation-delay: 1s, 4s; animation-delay: 1s, 4s; -webkit-animation-fill-mode: forwards; animation-fill-mode: forwards; -webkit-animation-iteration-count:1, infinite; animation-iteration-count:1, infinite; } @-webkit-keyframes animate-num{ 0%{font-size: 50px; opacity:1} 100%{font-size: 160px; opacity:1} } @keyframes animate-num{ 0%{font-size: 50px; opacity:1} 100%{font-size: 160px; opacity:1} } @-webkit-keyframes animate-num-endloop{ 0%{font-size: 160px;} 50%{font-size: 150px;} 100%{font-size: 160px;} } @keyframes animate-num-endloop{ 0%{font-size: 160px;} 50%{font-size: 150px;} 100%{font-size: 160px;} } .numbers-mask{ fill:#000; stroke:#000; stroke-width:40px; stroke-linejoin: round; } #jackpot-win .winner{ opacity:0; font-family: 'Russo One', sans-serif; fill:#fff; font-size:100px; -webkit-animation: animate-winner, animate-winner-endloop; animation: animate-winner, animate-winner-endloop; -webkit-animation-duration: .3s, 1.0s; animation-duration: .3s, 1.0s; -webkit-animation-delay: 3.7s, 4s; animation-delay: 3.7s, 4s; -webkit-animation-fill-mode: forwards; animation-fill-mode: forwards; -webkit-animation-iteration-count:1, infinite; animation-iteration-count:1, infinite; } .outro .jackpot-winner-text, .outro #text-mask{ opacity:1; -webkit-animation: jackpot-winner-outro; animation: jackpot-winner-outro; -webkit-animation-duration: 1s; animation-duration: 1s; -webkit-animation-delay: 0s; animation-delay: 0s; -webkit-animation-fill-mode: forwards; animation-fill-mode: forwards; } .winner-mask{ fill:#000; stroke:#000; stroke-width:40px; stroke-linejoin: round; -webkit-animation: animate-winner, animate-winner-endloop; animation: animate-winner, animate-winner-endloop; -webkit-animation-duration: .3s, 1.0s; animation-duration: .3s, 1.0s; -webkit-animation-delay: 3.7s, 4s; animation-delay: 3.7s, 4s; -webkit-animation-fill-mode: forwards; animation-fill-mode: forwards; } @-webkit-keyframes animate-winner{ 0%{opacity:0} 100%{opacity:1} } @keyframes animate-winner{ 0%{opacity:0} 100%{opacity:1} } @-webkit-keyframes animate-winner-endloop{ 0%{font-size: 100px;} 50%{font-size: 80px;} 100%{font-size: 100px;} } @keyframes animate-winner-endloop{ 0%{font-size: 100px;} 50%{font-size: 80px;} 100%{font-size: 100px;} } /*outro*/ @-webkit-keyframes light-outro{ 0%{-webkit-transform: translateZ(0) scale(1);transform: translateZ(0) scale(1); -webkit-animation-timing-function: cubic-bezier(.7, -0.3, .3, 1); animation-timing-function: cubic-bezier(.7, -0.3, .3, 1);} 100%{-webkit-transform: translateZ(0) scale(0);transform: translateZ(0) scale(0);} } @keyframes light-outro{ 0%{-webkit-transform: translateZ(0) scale(1);transform: translateZ(0) scale(1); -webkit-animation-timing-function: cubic-bezier(.7, -0.3, .3, 1); animation-timing-function: cubic-bezier(.7, -0.3, .3, 1);} 100%{-webkit-transform: translateZ(0) scale(0);transform: translateZ(0) scale(0);} } @-webkit-keyframes jackpot-text-outro{ 0%{-webkit-transform: translateZ(0) translateX(0px);transform: translateZ(0) translateX(0px); opacity:1;} 100%{-webkit-transform: translateZ(0) translateX(0px);transform: translateZ(0) translateX(0px); opacity:0;} } @keyframes jackpot-text-outro{ 0%{-webkit-transform: translateZ(0) translateX(0px);transform: translateZ(0) translateX(0px); opacity:1;} 100%{-webkit-transform: translateZ(0) translateX(0px);transform: translateZ(0) translateX(0px); opacity:0;} } @-webkit-keyframes jackpot-winner-outro{ 100%{opacity:0;} } @keyframes jackpot-winner-outro{ 100%{opacity:0;} } @-webkit-keyframes lion-outro{ 0%{-webkit-transform: translateZ(0) translateY(0);transform: translateZ(0) translateY(0); opacity:1;} 100%{-webkit-transform: translateZ(0) translateY(50px);transform: translateZ(0) translateY(50px); opacity:0;} } @keyframes lion-outro{ 0%{-webkit-transform: translateZ(0) translateY(0);transform: translateZ(0) translateY(0); opacity:1;} 100%{-webkit-transform: translateZ(0) translateY(50px);transform: translateZ(0) translateY(50px); opacity:0;} } @-webkit-keyframes frame-stroke-outro{ 0%{stroke-width:20px} 100%{stroke-width:0px} } @keyframes frame-stroke-outro{ 0%{stroke-width:20px} 100%{stroke-width:0px} }</style><g id="frame"><path id="frame-gold" class="jackpotWinGoldStroke" d="M1000 678.9l574.3 228.2c19.9 7.9 36.3 21.2 47.3 38.4 10.3 16.1 15.8 34.9 15.8 54.5s-5.5 38.5-15.8 54.5c-11 17.2-27.4 30.5-47.3 38.4L1000 1321.1l-574.3-228.2c-19.9-7.9-36.3-21.2-47.3-38.4-10.3-16.1-15.8-34.9-15.8-54.5s5.5-38.5 15.8-54.5c11-17.2 27.4-30.5 47.3-38.4L1000 678.9"/><path id="frame-red" class="jackpotWinRedStroke" d="M1000 757.5L452.7 974.9c-5.8 2.3-10 5.6-12.8 10-2.7 4.2-4.2 9.6-4.2 15.1s1.5 10.9 4.2 15.1c2.8 4.4 7 7.7 12.8 10l547.3 217.4 547.3-217.4c5.8-2.3 10-5.6 12.8-10 2.7-4.2 4.2-9.6 4.2-15.1s-1.5-10.9-4.2-15.1c-2.8-4.4-7-7.7-12.8-10L1000 757.5z"/><mask id="lights-mask"><path id="lights-mask-white" class="jackpotWinWhite" d="M258 258h1484v1484H258z"/><path id="lights-mask-black" d="M1000 668.2L422 897.8c-92.5 36.8-92.5 167.7 0 204.5l578 229.6 578-229.6c92.5-36.8 92.5-167.7 0-204.5l-578-229.6z"/></mask><g id="lights"><g class="light-row" id="lights-bottom-left"><g id="XMLID_127_" class="bulb-parent"><g class="bulb"><circle id="light-bg_41_" class="jackpotWinGold bulb-bg" cx="940.1" cy="1343.1" r="15"/><circle id="light-white_41_" class="jackpotWinWhite bulb-light" cx="940.1" cy="1343.1" r=".1"/></g></g><g id="XMLID_126_" class="bulb-parent"><g class="bulb"><circle id="light-bg_42_" class="jackpotWinGold bulb-bg" cx="880.3" cy="1319.3" r="15"/><circle id="light-white_42_" class="jackpotWinWhite bulb-light" cx="880.3" cy="1319.3" r=".1"/></g></g><g id="XMLID_125_" class="bulb-parent"><g class="bulb"><circle id="light-bg_43_" class="jackpotWinGold bulb-bg" cx="820.5" cy="1295.6" r="15"/><circle id="light-white_43_" class="jackpotWinWhite bulb-light" cx="820.5" cy="1295.6" r=".1"/></g></g><g id="XMLID_124_" class="bulb-parent"><g class="bulb"><circle id="light-bg_44_" class="jackpotWinGold bulb-bg" cx="760.7" cy="1271.9" r="15"/><circle id="light-white_44_" class="jackpotWinWhite bulb-light" cx="760.7" cy="1271.9" r=".1"/></g></g><g id="XMLID_123_" class="bulb-parent"><g class="bulb"><circle id="light-bg_45_" class="jackpotWinGold bulb-bg" cx="700.9" cy="1248.1" r="15"/><circle id="light-white_45_" class="jackpotWinWhite bulb-light" cx="700.9" cy="1248.1" r=".1"/></g></g><g id="XMLID_122_" class="bulb-parent"><g class="bulb"><circle id="light-bg_46_" class="jackpotWinGold bulb-bg" cx="641.1" cy="1224.4" r="15"/><circle id="light-white_46_" class="jackpotWinWhite bulb-light" cx="641.1" cy="1224.4" r=".1"/></g></g><g id="XMLID_121_" class="bulb-parent"><g class="bulb"><circle id="light-bg_47_" class="jackpotWinGold bulb-bg" cx="581.3" cy="1200.7" r="15"/><circle id="light-white_47_" class="jackpotWinWhite bulb-light" cx="581.3" cy="1200.7" r=".1"/></g></g><g id="XMLID_120_" class="bulb-parent"><g class="bulb"><circle id="light-bg_48_" class="jackpotWinGold bulb-bg" cx="521.6" cy="1177" r="15"/><circle id="light-white_48_" class="jackpotWinWhite bulb-light" cx="521.6" cy="1177" r=".1"/></g></g><g id="XMLID_119_" class="bulb-parent"><g class="bulb"><circle id="light-bg_49_" class="jackpotWinGold bulb-bg" cx="461.8" cy="1153.2" r="15"/><circle id="light-white_49_" class="jackpotWinWhite bulb-light" cx="461.8" cy="1153.2" r=".1"/></g></g><g id="XMLID_118_" class="bulb-parent"><g class="bulb"><circle id="light-bg_50_" class="jackpotWinGold bulb-bg" cx="402" cy="1129.5" r="15"/><circle id="light-white_50_" class="jackpotWinWhite bulb-light" cx="402" cy="1129.5" r=".1"/></g></g><g id="XMLID_117_" class="bulb-parent"><g class="bulb"><circle id="light-bg_51_" class="jackpotWinGold bulb-bg" cx="351.1" cy="1089.6" r="15"/><circle id="light-white_51_" class="jackpotWinWhite bulb-light" cx="351.1" cy="1089.6" r=".1"/></g></g><g id="light-round-start_3_" class="bulb-parent"><g class="bulb"><circle id="light-bg_52_" class="jackpotWinGold bulb-bg" cx="323.5" cy="1032" r="15"/><circle id="light-white_52_" class="jackpotWinWhite bulb-light" cx="323.5" cy="1032" r=".1"/></g></g></g><g class="light-row" id="lights-bottom-right"><g id="XMLID_103_" class="bulb-parent"><g class="bulb"><circle id="light-bg_27_" class="jackpotWinGold bulb-bg" cx="1676.4" cy="1032" r="15"/><circle id="light-white_27_" class="jackpotWinWhite bulb-light" cx="1676.4" cy="1032" r=".1"/></g></g><g id="XMLID_104_" class="bulb-parent"><g class="bulb"><circle id="light-bg_28_" class="jackpotWinGold bulb-bg" cx="1648.8" cy="1089.6" r="15"/><circle id="light-white_28_" class="jackpotWinWhite bulb-light" cx="1648.8" cy="1089.6" r=".1"/></g></g><g id="XMLID_105_" class="bulb-parent"><g class="bulb"><circle id="light-bg_29_" class="jackpotWinGold bulb-bg" cx="1597.9" cy="1129.5" r="15"/><circle id="light-white_29_" class="jackpotWinWhite bulb-light" cx="1597.9" cy="1129.5" r=".1"/></g></g><g id="XMLID_106_" class="bulb-parent"><g class="bulb"><circle id="light-bg_30_" class="jackpotWinGold bulb-bg" cx="1538.1" cy="1153.2" r="15"/><circle id="light-white_30_" class="jackpotWinWhite bulb-light" cx="1538.1" cy="1153.2" r=".1"/></g></g><g id="XMLID_107_" class="bulb-parent"><g class="bulb"><circle id="light-bg_31_" class="jackpotWinGold bulb-bg" cx="1478.3" cy="1177" r="15"/><circle id="light-white_31_" class="jackpotWinWhite bulb-light" cx="1478.3" cy="1177" r=".1"/></g></g><g id="XMLID_108_" class="bulb-parent"><g class="bulb"><circle id="light-bg_32_" class="jackpotWinGold bulb-bg" cx="1418.5" cy="1200.7" r="15"/><circle id="light-white_32_" class="jackpotWinWhite bulb-light" cx="1418.5" cy="1200.7" r=".1"/></g></g><g id="XMLID_109_" class="bulb-parent"><g class="bulb"><circle id="light-bg_33_" class="jackpotWinGold bulb-bg" cx="1358.8" cy="1224.4" r="15"/><circle id="light-white_33_" class="jackpotWinWhite bulb-light" cx="1358.8" cy="1224.4" r=".1"/></g></g><g id="XMLID_110_" class="bulb-parent"><g class="bulb"><circle id="light-bg_34_" class="jackpotWinGold bulb-bg" cx="1299" cy="1248.1" r="15"/><circle id="light-white_34_" class="jackpotWinWhite bulb-light" cx="1299" cy="1248.1" r=".1"/></g></g><g id="XMLID_111_" class="bulb-parent"><g class="bulb"><circle id="light-bg_35_" class="jackpotWinGold bulb-bg" cx="1239.2" cy="1271.9" r="15"/><circle id="light-white_35_" class="jackpotWinWhite bulb-light" cx="1239.2" cy="1271.9" r=".1"/></g></g><g id="XMLID_112_" class="bulb-parent"><g class="bulb"><circle id="light-bg_36_" class="jackpotWinGold bulb-bg" cx="1179.4" cy="1295.6" r="15"/><circle id="light-white_36_" class="jackpotWinWhite bulb-light" cx="1179.4" cy="1295.6" r=".1"/></g></g><g id="XMLID_113_" class="bulb-parent"><g class="bulb"><circle id="light-bg_37_" class="jackpotWinGold bulb-bg" cx="1119.6" cy="1319.3" r="15"/><circle id="light-white_37_" class="jackpotWinWhite bulb-light" cx="1119.6" cy="1319.3" r=".1"/></g></g><g id="XMLID_114_" class="bulb-parent"><g class="bulb"><circle id="light-bg_38_" class="jackpotWinGold bulb-bg" cx="1059.8" cy="1343.1" r="15"/><circle id="light-white_38_" class="jackpotWinWhite bulb-light" cx="1059.8" cy="1343.1" r=".1"/></g></g><g id="light-round-start_2_" class="bulb-parent"><g class="bulb"><circle id="light-bg_39_" class="jackpotWinGold bulb-bg" cx="1000" cy="1366.8" r="15"/><circle id="light-white_39_" class="jackpotWinWhite bulb-light" cx="1000" cy="1366.8" r=".1"/></g></g></g><g class="light-row" id="lights-top-left"><g id="light-round-start_1_" class="bulb-parent"><g class="bulb"><circle id="light-bg_26_" class="jackpotWinGold bulb-bg" cx="323.5" cy="968" r="15"/><circle id="light-white_26_" class="jackpotWinWhite bulb-light" cx="323.5" cy="968" r=".1"/></g></g><g id="XMLID_91_" class="bulb-parent"><g class="bulb"><circle id="light-bg_25_" class="jackpotWinGold bulb-bg" cx="351.1" cy="910.4" r="15"/><circle id="light-white_25_" class="jackpotWinWhite bulb-light" cx="351.1" cy="910.4" r=".1"/></g></g><g id="XMLID_92_" class="bulb-parent"><g class="bulb"><circle id="light-bg_24_" class="jackpotWinGold bulb-bg" cx="402" cy="870.5" r="15"/><circle id="light-white_24_" class="jackpotWinWhite bulb-light" cx="402" cy="870.5" r=".1"/></g></g><g id="XMLID_93_" class="bulb-parent"><g class="bulb"><circle id="light-bg_23_" class="jackpotWinGold bulb-bg" cx="461.8" cy="846.8" r="15"/><circle id="light-white_23_" class="jackpotWinWhite bulb-light" cx="461.8" cy="846.8" r=".1"/></g></g><g id="XMLID_94_" class="bulb-parent"><g class="bulb"><circle id="light-bg_22_" class="jackpotWinGold bulb-bg" cx="521.6" cy="823" r="15"/><circle id="light-white_22_" class="jackpotWinWhite bulb-light" cx="521.6" cy="823" r=".1"/></g></g><g id="XMLID_95_" class="bulb-parent"><g class="bulb"><circle id="light-bg_21_" class="jackpotWinGold bulb-bg" cx="581.3" cy="799.3" r="15"/><circle id="light-white_21_" class="jackpotWinWhite bulb-light" cx="581.3" cy="799.3" r=".1"/></g></g><g id="XMLID_96_" class="bulb-parent"><g class="bulb"><circle id="light-bg_20_" class="jackpotWinGold bulb-bg" cx="641.1" cy="775.6" r="15"/><circle id="light-white_20_" class="jackpotWinWhite bulb-light" cx="641.1" cy="775.6" r=".1"/></g></g><g id="XMLID_97_" class="bulb-parent"><g class="bulb"><circle id="light-bg_19_" class="jackpotWinGold bulb-bg" cx="700.9" cy="751.9" r="15"/><circle id="light-white_19_" class="jackpotWinWhite bulb-light" cx="700.9" cy="751.9" r=".1"/></g></g><g id="XMLID_98_" class="bulb-parent"><g class="bulb"><circle id="light-bg_18_" class="jackpotWinGold bulb-bg" cx="760.7" cy="728.1" r="15"/><circle id="light-white_18_" class="jackpotWinWhite bulb-light" cx="760.7" cy="728.1" r=".1"/></g></g><g id="XMLID_99_" class="bulb-parent"><g class="bulb"><circle id="light-bg_17_" class="jackpotWinGold bulb-bg" cx="820.5" cy="704.4" r="15"/><circle id="light-white_17_" class="jackpotWinWhite bulb-light" cx="820.5" cy="704.4" r=".1"/></g></g><g id="XMLID_100_" class="bulb-parent"><g class="bulb"><circle id="light-bg_16_" class="jackpotWinGold bulb-bg" cx="880.3" cy="680.7" r="15"/><circle id="light-white_16_" class="jackpotWinWhite bulb-light" cx="880.3" cy="680.7" r=".1"/></g></g><g id="XMLID_101_" class="bulb-parent"><g class="bulb"><circle id="light-bg_15_" class="jackpotWinGold bulb-bg" cx="940.1" cy="656.9" r="15"/><circle id="light-white_15_" class="jackpotWinWhite bulb-light" cx="940.1" cy="656.9" r=".1"/></g></g><g id="light-round" class="bulb-parent"><g class="bulb"><circle id="light-bg_14_" class="jackpotWinGold bulb-bg" cx="999.9" cy="633.2" r="15"/><circle id="light-white_14_" class="jackpotWinWhite bulb-light" cx="999.9" cy="633.2" r=".1"/></g></g></g><g class="light-row" id="lights-top-right"><g id="light-round-start" class="bulb-parent"><g class="bulb"><circle id="light-bg_13_" class="jackpotWinGold bulb-bg" cx="1000" cy="633.2" r="15"/><circle id="light-white_13_" class="jackpotWinWhite bulb-light" cx="1000" cy="633.2" r=".1"/></g></g><g id="XMLID_78_" class="bulb-parent"><g class="bulb"><circle id="light-bg_12_" class="jackpotWinGold bulb-bg" cx="1059.8" cy="656.9" r="15"/><circle id="light-white_12_" class="jackpotWinWhite bulb-light" cx="1059.8" cy="656.9" r=".1"/></g></g><g id="XMLID_79_" class="bulb-parent"><g class="bulb"><circle id="light-bg_11_" class="jackpotWinGold bulb-bg" cx="1119.6" cy="680.7" r="15"/><circle id="light-white_11_" class="jackpotWinWhite bulb-light" cx="1119.6" cy="680.7" r=".1"/></g></g><g id="XMLID_80_" class="bulb-parent"><g class="bulb"><circle id="light-bg_10_" class="jackpotWinGold bulb-bg" cx="1179.4" cy="704.4" r="15"/><circle id="light-white_10_" class="jackpotWinWhite bulb-light" cx="1179.4" cy="704.4" r=".1"/></g></g><g id="XMLID_81_" class="bulb-parent"><g class="bulb"><circle id="light-bg_9_" class="jackpotWinGold bulb-bg" cx="1239.2" cy="728.1" r="15"/><circle id="light-white_9_" class="jackpotWinWhite bulb-light" cx="1239.2" cy="728.1" r=".1"/></g></g><g id="XMLID_82_" class="bulb-parent"><g class="bulb"><circle id="light-bg_8_" class="jackpotWinGold bulb-bg" cx="1299" cy="751.9" r="15"/><circle id="light-white_8_" class="jackpotWinWhite bulb-light" cx="1299" cy="751.9" r=".1"/></g></g><g id="XMLID_83_" class="bulb-parent"><g class="bulb"><circle id="light-bg_7_" class="jackpotWinGold bulb-bg" cx="1358.8" cy="775.6" r="15"/><circle id="light-white_7_" class="jackpotWinWhite bulb-light" cx="1358.8" cy="775.6" r=".1"/></g></g><g id="XMLID_84_" class="bulb-parent"><g class="bulb"><circle id="light-bg_6_" class="jackpotWinGold bulb-bg" cx="1418.5" cy="799.3" r="15"/><circle id="light-white_6_" class="jackpotWinWhite bulb-light" cx="1418.5" cy="799.3" r=".1"/></g></g><g id="XMLID_85_" class="bulb-parent"><g class="bulb"><circle id="light-bg_5_" class="jackpotWinGold bulb-bg" cx="1478.3" cy="823" r="15"/><circle id="light-white_5_" class="jackpotWinWhite bulb-light" cx="1478.3" cy="823" r=".1"/></g></g><g id="XMLID_86_" class="bulb-parent"><g class="bulb"><circle id="light-bg_3_" class="jackpotWinGold bulb-bg" cx="1538.1" cy="846.8" r="15"/><circle id="light-white_3_" class="jackpotWinWhite bulb-light" cx="1538.1" cy="846.8" r=".1"/></g></g><g id="XMLID_87_" class="bulb-parent"><g class="bulb"><circle id="light-bg_2_" class="jackpotWinGold bulb-bg" cx="1597.9" cy="870.5" r="15"/><circle id="light-white_2_" class="jackpotWinWhite bulb-light" cx="1597.9" cy="870.5" r=".1"/></g></g><g id="XMLID_88_" class="bulb-parent"><g class="bulb"><circle id="light-bg_1_" class="jackpotWinGold bulb-bg" cx="1648.8" cy="910.4" r="15"/><circle id="light-white_1_" class="jackpotWinWhite bulb-light" cx="1648.8" cy="910.4" r=".1"/></g></g><g id="XMLID_89_" class="bulb-parent"><g class="bulb"><circle id="light-bg_54_" class="jackpotWinGold bulb-bg" cx="1676.4" cy="968" r="15"/><circle id="light-white_54_" class="jackpotWinWhite bulb-light" cx="1676.4" cy="968" r=".1"/></g></g></g></g></g><mask id="text-mask"><path id="text-mask-white" class="jackpotWinWhite" d="M258 258h1484v1484H258z"/><text transform="translate(1000 1015)" id="numMask" class="numbers numbers-mask" dominant-baseline="middle" text-anchor="middle">€5,029,213.50</text><text transform="translate(1000 1180)" dominant-baseline="middle" text-anchor="middle" class="winner winner-mask">WINNER!</text><path class="jackpot-letter" id="j2" d="M534.3 793.6h16v53.9c0 5-1.1 9.3-3.3 13.1-2.2 3.8-5.3 6.7-9.3 8.8-4 2.1-8.5 3.1-13.5 3.1-8.2 0-14.6-2.1-19.2-6.3-4.6-4.2-6.9-10.1-6.9-17.8h16.1c0 3.8.8 6.6 2.4 8.4 1.6 1.8 4.1 2.7 7.6 2.7 3.1 0 5.5-1.1 7.3-3.2 1.8-2.1 2.7-5.1 2.7-9v-53.7z"/><path class="jackpot-letter" id="a2" d="M694.4 855.4h-28.1l-5.3 16h-17.1l29-77.8h14.9l29.1 77.8h-17.1l-5.4-16zm-23.8-13H690l-9.8-29.1-9.6 29.1z"/><path class="jackpot-letter" id="c2" d="M871.6 845.5c-.6 8.4-3.7 15-9.3 19.8-5.6 4.8-12.9 7.2-22.1 7.2-10 0-17.8-3.4-23.6-10.1s-8.6-15.9-8.6-27.7V830c0-7.5 1.3-14.1 4-19.8 2.6-5.7 6.4-10.1 11.3-13.1s10.6-4.6 17.1-4.6c9 0 16.2 2.4 21.7 7.2 5.5 4.8 8.7 11.6 9.5 20.3h-16c-.4-5-1.8-8.7-4.2-10.9-2.4-2.3-6.1-3.4-11-3.4-5.3 0-9.3 1.9-12 5.7-2.7 3.8-4 9.8-4.1 17.8v5.9c0 8.4 1.3 14.6 3.8 18.4 2.5 3.9 6.6 5.8 12.1 5.8 5 0 8.7-1.1 11.1-3.4 2.4-2.3 3.8-5.8 4.2-10.5h16.1z"/><path class="jackpot-letter" id="k2" d="M994 840.2l-8.3 9v22.2h-16v-77.8h16v35.3l7.1-9.7 19.8-25.6h19.7l-27.6 34.6 28.4 43.3H1014l-20-31.3z"/><path class="jackpot-letter" id="p2" d="M1142.6 844v27.4h-16v-77.8h30.4c5.8 0 11 1.1 15.4 3.2s7.9 5.2 10.2 9.1c2.4 3.9 3.6 8.4 3.6 13.4 0 7.6-2.6 13.6-7.8 18-5.2 4.4-12.4 6.6-21.7 6.6h-14.1zm0-13h14.3c4.2 0 7.5-1 9.7-3 2.2-2 3.3-4.8 3.3-8.6s-1.1-6.9-3.4-9.3c-2.2-2.4-5.3-3.6-9.3-3.6h-14.7V831z"/><path class="jackpot-letter" id="o2" d="M1348.7 834.3c0 7.7-1.4 14.4-4.1 20.2-2.7 5.8-6.6 10.2-11.6 13.4-5 3.1-10.8 4.7-17.3 4.7s-12.2-1.6-17.3-4.7c-5.1-3.1-9-7.5-11.8-13.3-2.8-5.8-4.2-12.4-4.2-19.9v-3.8c0-7.7 1.4-14.4 4.1-20.2 2.8-5.8 6.7-10.3 11.7-13.4 5-3.1 10.8-4.7 17.3-4.7s12.3 1.6 17.3 4.7 8.9 7.6 11.7 13.4c2.8 5.8 4.1 12.6 4.1 20.2v3.4zm-16.3-3.5c0-8.2-1.5-14.4-4.4-18.6-2.9-4.2-7.1-6.4-12.5-6.4s-9.5 2.1-12.5 6.3c-2.9 4.2-4.4 10.3-4.4 18.4v3.8c0 7.9 1.5 14.1 4.4 18.5 2.9 4.4 7.1 6.6 12.6 6.6 5.4 0 9.5-2.1 12.4-6.3 2.9-4.2 4.3-10.4 4.4-18.5v-3.8z"/><path class="jackpot-letter" id="t2" d="M1501.9 806.6H1478v64.9h-16v-64.9h-23.5v-13h63.4v13z"/><path id="lion-mask-circle" d="M1000 780.9c-66 0-120-54-120-120s54-120 120-120 120 54 120 120-54 120-120 120"/></mask><g id="jackpot"><path id="j" class="jackpotWinWhite jackpot-letter" d="M534.3 793.6h16v53.9c0 5-1.1 9.3-3.3 13.1-2.2 3.8-5.3 6.7-9.3 8.8-4 2.1-8.5 3.1-13.5 3.1-8.2 0-14.6-2.1-19.2-6.3-4.6-4.2-6.9-10.1-6.9-17.8h16.1c0 3.8.8 6.6 2.4 8.4 1.6 1.8 4.1 2.7 7.6 2.7 3.1 0 5.5-1.1 7.3-3.2 1.8-2.1 2.7-5.1 2.7-9v-53.7z"/><path id="a" class="jackpotWinWhite jackpot-letter" d="M694.4 855.4h-28.1l-5.3 16h-17.1l29-77.8h14.9l29.1 77.8h-17.1l-5.4-16zm-23.8-13H690l-9.8-29.1-9.6 29.1z"/><path id="c" class="jackpotWinWhite jackpot-letter" d="M871.6 845.5c-.6 8.4-3.7 15-9.3 19.8-5.6 4.8-12.9 7.2-22.1 7.2-10 0-17.8-3.4-23.6-10.1s-8.6-15.9-8.6-27.7V830c0-7.5 1.3-14.1 4-19.8 2.6-5.7 6.4-10.1 11.3-13.1s10.6-4.6 17.1-4.6c9 0 16.2 2.4 21.7 7.2 5.5 4.8 8.7 11.6 9.5 20.3h-16c-.4-5-1.8-8.7-4.2-10.9-2.4-2.3-6.1-3.4-11-3.4-5.3 0-9.3 1.9-12 5.7-2.7 3.8-4 9.8-4.1 17.8v5.9c0 8.4 1.3 14.6 3.8 18.4 2.5 3.9 6.6 5.8 12.1 5.8 5 0 8.7-1.1 11.1-3.4 2.4-2.3 3.8-5.8 4.2-10.5h16.1z"/><path id="k" class="jackpotWinWhite jackpot-letter" d="M994 840.2l-8.3 9v22.2h-16v-77.8h16v35.3l7.1-9.7 19.8-25.6h19.7l-27.6 34.6 28.4 43.3H1014l-20-31.3z"/><path id="p" class="jackpotWinWhite jackpot-letter" d="M1142.6 844v27.4h-16v-77.8h30.4c5.8 0 11 1.1 15.4 3.2s7.9 5.2 10.2 9.1c2.4 3.9 3.6 8.4 3.6 13.4 0 7.6-2.6 13.6-7.8 18-5.2 4.4-12.4 6.6-21.7 6.6h-14.1zm0-13h14.3c4.2 0 7.5-1 9.7-3 2.2-2 3.3-4.8 3.3-8.6s-1.1-6.9-3.4-9.3c-2.2-2.4-5.3-3.6-9.3-3.6h-14.7V831z"/><path id="o" class="jackpotWinWhite jackpot-letter" d="M1348.7 834.3c0 7.7-1.4 14.4-4.1 20.2-2.7 5.8-6.6 10.2-11.6 13.4-5 3.1-10.8 4.7-17.3 4.7s-12.2-1.6-17.3-4.7c-5.1-3.1-9-7.5-11.8-13.3-2.8-5.8-4.2-12.4-4.2-19.9v-3.8c0-7.7 1.4-14.4 4.1-20.2 2.8-5.8 6.7-10.3 11.7-13.4 5-3.1 10.8-4.7 17.3-4.7s12.3 1.6 17.3 4.7 8.9 7.6 11.7 13.4c2.8 5.8 4.1 12.6 4.1 20.2v3.4zm-16.3-3.5c0-8.2-1.5-14.4-4.4-18.6-2.9-4.2-7.1-6.4-12.5-6.4s-9.5 2.1-12.5 6.3c-2.9 4.2-4.4 10.3-4.4 18.4v3.8c0 7.9 1.5 14.1 4.4 18.5 2.9 4.4 7.1 6.6 12.6 6.6 5.4 0 9.5-2.1 12.4-6.3 2.9-4.2 4.3-10.4 4.4-18.5v-3.8z"/><path id="t" class="jackpotWinWhite jackpot-letter" d="M1501.9 806.6H1478v64.9h-16v-64.9h-23.5v-13h63.4v13z"/></g><g id="lion_logo"><linearGradient id="lion-light-gradient" gradientUnits="userSpaceOnUse" x1="837.644" y1="1093.565" x2="1159.976" y2="1582.566" gradientTransform="matrix(1 0 0 -1 0 2000.724)"><stop offset="0" style="stop-color:#361616"/><stop offset=".501" style="stop-color:#761C15"/><stop offset="1" style="stop-color:#943520"/></linearGradient><linearGradient id="lion-dark-gradient" gradientUnits="userSpaceOnUse" x1="1100.158" y1="1440.029" x2="902.984" y2="1242.855" gradientTransform="matrix(1 0 0 -1 0 2000.724)"><stop offset="0" style="stop-color:#561C0E"/><stop offset=".93" style="stop-color:#361616"/></linearGradient><circle id="lion-light" class="jackpotWinLionGradient1" cx="1000" cy="660.9" r="109.4"/><circle id="lion-dark" class="jackpotWinLionGradient2" cx="1000" cy="660.9" r="101.2"/>s101.2,45.4,101.2,101.2C1101.2,716.7,1055.8,762.1,1000,762.1&quot;/&gt;<path id="lion-white" class="jackpotWinWhite" d="M1002.2 696.4c4.4 2.7 10.9 4.9 17 4.9 1.6 0 2.2 1.6 1.1 3.8-1.1 1.6-2.2 3.8-2.7 6-1.6 4.4-8.2 8.2-10.9 10.4-2.2 1.6-4.4 5.5-5.5 7.1 0 .5-.5.5-1.1 0-1.1-1.6-3.8-5.5-6-7.1-1.6-1.1-3.8-2.2-6.6-4.4s-5.5-5.5-6.6-8.2c-.5-1.1 0-2.7 1.1-3.3 6-1.1 12-4.9 16.4-8.8 1.1-.9 2.7-1.5 3.8-.4zm83.2-24.6l-43.2-8.8 42.7-2.7c0-3.3 0-7.1-.5-10.4l-42.7 2.7 41-13.7c-.5-3.8-2.2-7.1-3.3-10.4l-31.2 7.1 26.8-17c-2.2-3.3-3.8-6.6-6-9.3l-26.3 14.2c.5 1.6 1.1 3.8 1.6 5.5 1.1 2.2.5 9.3 0 12.6-.5 3.3-6 6.6-9.3 8.8-2.7 1.6-4.4 3.8-4.9 6.6-.5 1.6-1.1 3.8-1.1 4.9-1.6-1.1-3.8-3.3-4.4-2.7-1.1.5 2.2 4.4 4.4 10.9.5 2.7 1.6 8.8.5 13.1s-2.2 7.1-4.9 9.3c-2.2 1.6-9.3 3.3-12.6 2.7-3.8-.5-6-1.6-7.7-3.8-1.6-2.2-2.2-5.5-2.2-7.1.5-2.2 2.2-5.5 6.6-9.3 3.8-3.8 6.6-3.8 8.2-4.9.5-.5 1.1-1.1 1.1-2.2s.5-2.2 0-2.2-1.1 0-1.6.5-1.6 1.6-2.2 1.6c0-1.1-.5-1.6-1.6-2.7-1.6-1.6-7.7 2.7-12.6 2.7-4.4 0-8.8-2.7-11.5-1.6-1.1.5-1.6 1.1-1.6 1.6v1.1c-.5 0-1.1-1.1-1.6-1.6s-1.1-1.1-1.6-.5c-.5.5 0 1.1.5 2.2s1.1 2.2 1.6 2.7c1.1 1.6 4.4 4.4 6.6 5.5 2.2 1.6 4.4 4.9 4.9 7.7.5 3.8-.5 5.5-2.7 7.7s-7.1 5.5-9.8 6c-2.7.5-6.6 1.6-7.7 0-1.6-2.2-6-9.8-6.6-15.9-.5-3.8 0-6.6 1.1-9.3.5-1.6 1.6-3.8 2.2-5.5 2.7-6.6 5.5-8.8 4.9-9.3-.5-.5-4.4 1.1-6 3.8 0 0-.5-.5-.5-1.1 0-.5-.5-1.1-1.1-1.6 0-.5-.5-1.1-1.1-1.6-2.2-2.7-6.6-5.5-9.8-8.8-2.7-3.3-2.2-8.2-2.2-15.9 0-4.9.5-8.2 1.1-9.3L930.6 611l-5.5 9.3 27.4 17-32.3-7.7c-1.1 3.3-2.2 7.1-3.3 10.4l38.8 12.6-41-2.2c-.5 1.6-.5 2.7-.5 4.4v6.5l43.2 2.7-42.7 8.2c.5 3.3 1.1 7.1 2.2 10.4l42.7-8.8-38.8 18.6c1.6 3.3 3.3 6.6 4.9 9.8l38.8-18.6-33.4 27.9c2.2 2.7 4.4 5.5 7.1 8.2l32.8-27.4-25.2 35c2.7 2.2 5.5 4.4 8.8 6l20.2-26.3-10.9 31.7c3.3 1.6 7.1 2.7 10.4 3.8l10.9-21.9-.5 24.6c3.3.5 7.1 1.1 10.9 1.1l4.9-14.8 4.4 14.2c3.8-.5 7.1-1.1 10.9-1.6l-1.6-25.7 12 23.5c3.8-1.1 7.1-2.2 10.4-3.8l-13.1-34.5 22.4 29c3.3-2.2 6-4.4 8.8-6.6l-22.4-30.6 30.6 24.1c2.7-2.7 4.9-5.5 7.1-8.2l-33.4-27.4 38.8 18.1c1.6-3.3 3.3-6.6 4.4-9.8l-38.8-18.1 42.1 7.7c1.2-2.9 1.7-6.2 2.3-10zm-140.7-76.6l-7.7 7.1 11.5 10.9c.5-2.7 3.3-6 6-8.8l-.5-.5-9.3-8.7zM988 645c1.1-.5.5-1.6.5-3.3 0-2.7-.5-6.6-1.1-8.2-.5-2.2-6.6-3.3-9.8-3.3-3.8-.5-7.1 2.2-9.3 3.8-.5.5-.5 1.1 0 1.6 1.1.5 2.7 0 2.7 0s1.1 1.1 2.2 1.6 3.3 0 7.1 2.2c1.6 1.1 1.6 2.7 2.7 3.3 1.1.5 2.2.5 2.7.5.6.7 1.2 2.3 2.3 1.8zm-.6-13.7c4.9.5 8.2-2.7 2.2-4.9-3.3-1.1-7.1-7.7-8.8-8.8-3.3-2.2-11.5-2.2-14.2 1.1-2.7 2.7-1.6 6.6.5 6 3.3-1.1 8.2-4.9 13.1 0 2.8 2.8 4.5 6.1 7.2 6.6zm46 3.3c.5-.5.5-1.6.5-1.6-2.2-1.6-6-4.4-9.8-4.4-3.3 0-9.8 1.6-10.4 3.8-1.1 2.2-2.7 10.9-1.1 11.5 1.1.5 2.2-1.6 2.2-1.6s10.9-2.7 12-3.3c1.1-.5 3.8-4.4 3.8-4.4s1.7.5 2.8 0zM1023 622c9.3-1.6 11.5 8.2 10.9 7.7.5.5 1.1.5 1.1-.5 0-2.7-1.1-6-1.6-7.1-1.1-2.7-2.2-4.4-3.8-4.9-1.6-.5-4.4-.5-7.1-.5-3.8 0-6 .5-9.8 4.4-1.6 1.6-3.3 1.6-3.8 3.3-.5 1.6 0 4.4 1.6 3.3 1.5-.8 5.9-4.1 12.5-5.7zm-67.9-34.5c-.5.5-1.1.5-1.1 1.1l6 11.5.5.5c4.4-2.2 8.8-2.7 9.8-1.6 1.6 1.6 3.8 7.1 3.8 7.1s2.2-2.7 11.5-2.7 14.2 7.1 14.2 7.1 2.7-7.1 13.1-7.1c5.5 0 9.8 2.2 12.6 2.7 1.1 0 3.3-2.7 5.5-6.6 1.1-2.2 4.9-1.6 8.2 0l6-11.5c-2.7-2.2-6-3.8-9.3-5.5l-12 17 2.2-20.8c-3.3-1.1-6.6-2.2-10.4-2.7l-8.2 23-2.2-24.1h-11l-3.3 24.6-8-23.5c-3.3.5-7.1 1.6-10.4 2.7l2.2 20.2-12-15.9c-.5.5-1.1.5-1.6 1.1l-6.1 3.4zm107.8 14.8c-2.7-2.7-5.5-5.5-8.2-7.7l-9.8 8.8h.5c3.3 3.3 6 5.5 6 9.8v.5l11.5-11.4zm-62.9-35.6c52 0 94.1 42.1 94.1 94.1 0 52-42.1 94.1-94.1 94.1-52 0-94.1-42.1-94.1-94.1 0-51.9 42.1-94.1 94.1-94.1z"/></g><g class="jackpot-winner-text"><text transform="translate(1000 1015)" class="numbers jackpotWinGold" dominant-baseline="middle" text-anchor="middle" id="num">€5,029,213.50</text><text transform="translate(1000 1180)" dominant-baseline="middle" text-anchor="middle" class="winner">WINNER!</text></g></svg>