<svg xmlns="http://www.w3.org/2000/svg" id="jackpotlogo" x="0" y="0" class="leojackpotlogo" version="1.1" viewBox="0 0 600 176" xml:space="preserve"><defs/><style>/*update class .changeColor to #fff*/ .changeColor{fill:white;} .balls{-webkit-clip-path:url(#ballsMask);clip-path:url(#ballsMask);} .top{-webkit-clip-path:url(#TopMask);clip-path:url(#TopMask);} #PyramidMaskSquare {fill:#fff !important;} #PyramidMaskCircle {fill:#000 !important;} .pyramid{-webkit-mask:url(#PyramidMask);mask:url(#PyramidMask);} #lion{-webkit-mask:url(#LionMask);mask:url(#LionMask);} #WhiteCircle{-webkit-mask:url(#LionMask);mask:url(#LionMask);} .triangle2{-webkit-clip-path:url(#triangle2mask);clip-path:url(#triangle2mask);} .coingroup{-webkit-clip-path:url(#coinsMask);clip-path:url(#coinsMask);} /*coins*/ .st10{fill:#FFB520;} .st11{fill:#FFE910;} .st12{fill:#FBFF9A;} path, polygon, ellipse{fill: white;} :root { --top-time: 1s; --top-delay: .6s; --text-translateX: 10px; --coins-delay: 4s; --coins-speed: 10s; } g{ } #LionMaskCircle, #WhiteCircle, #coinsMaskPath{ -webkit-transform-origin:50% 50%; -ms-transform-origin:50% 50%; transform-origin:50% 50%; -webkit-transform: scale(0,0); -ms-transform: scale(0,0); transform: scale(0,0); } /*FIC MASKS INSTEAD OF CLIP PATH!*/ /* Y TRANSLATION */ #lion, #PyramidMaskCircle{ opacity:0; -webkit-animation: jackpot-intro-Y -webkit-calc(var(--top-time) + .5s); animation: jackpot-intro-Y calc(var(--top-time) + .5s); -webkit-animation-fill-mode: forwards; animation-fill-mode: forwards; } #triangle2, #ballsMaskPath{ opacity:0; -webkit-animation: jackpot-intro-Y var(--top-time) 0.1s; animation: jackpot-intro-Y var(--top-time) 0.1s; -webkit-animation-fill-mode: forwards; animation-fill-mode: forwards; } #triangle2maskPath{ opacity:0; -webkit-animation: jackpot-intro-Y-triangleMask var(--top-time) .3s; animation: jackpot-intro-Y-triangleMask var(--top-time) .3s; -webkit-animation-fill-mode: forwards; animation-fill-mode: forwards; } #triangle1{ opacity:0; -webkit-animation: jackpot-intro-Y-triangleMask var(--top-time) 0.5s; animation: jackpot-intro-Y-triangleMask var(--top-time) 0.5s; -webkit-animation-fill-mode: forwards; animation-fill-mode: forwards; } #balls-group ellipse{ opacity:0; } #ball1{ -webkit-animation: jackpot-intro-balls-right var(--top-time) 1.0s; animation: jackpot-intro-balls-right var(--top-time) 1.0s; -webkit-animation-fill-mode: forwards; animation-fill-mode: forwards; } #ball2{ -webkit-animation: jackpot-intro-balls-right var(--top-time) 1.1s; animation: jackpot-intro-balls-right var(--top-time) 1.1s; -webkit-animation-fill-mode: forwards; animation-fill-mode: forwards; } #ball3{ -webkit-animation: jackpot-intro-balls-right var(--top-time) .85s; animation: jackpot-intro-balls-right var(--top-time) .85s; -webkit-animation-fill-mode: forwards; animation-fill-mode: forwards; } #ball4{ -webkit-animation: jackpot-intro-balls-right var(--top-time) 0.9s; animation: jackpot-intro-balls-right var(--top-time) 0.9s; -webkit-animation-fill-mode: forwards; animation-fill-mode: forwards; } #ball5{ -webkit-animation: jackpot-intro-balls-left var(--top-time) 1.01s; animation: jackpot-intro-balls-left var(--top-time) 1.01s; -webkit-animation-fill-mode: forwards; animation-fill-mode: forwards; } #ball6{ -webkit-animation: jackpot-intro-balls-left var(--top-time) 1.1s; animation: jackpot-intro-balls-left var(--top-time) 1.1s; -webkit-animation-fill-mode: forwards; animation-fill-mode: forwards; } #ball7{ -webkit-animation: jackpot-intro-balls-left var(--top-time) 0.95s; animation: jackpot-intro-balls-left var(--top-time) 0.95s; -webkit-animation-fill-mode: forwards; animation-fill-mode: forwards; } #ball8{ -webkit-animation: jackpot-intro-balls-left var(--top-time) .9s; animation: jackpot-intro-balls-left var(--top-time) .9s; -webkit-animation-fill-mode: forwards; animation-fill-mode: forwards; } @-webkit-keyframes jackpot-intro-Y{ 0% {opacity:1;-webkit-transform: translateY(100px);transform: translateY(100px);-webkit-animation-timing-function:cubic-bezier(.5, 1.5, .5, 1);animation-timing-function:cubic-bezier(.5, 1.5, .5, 1);} 100% {opacity:1;-webkit-transform: translateY(0px);transform: translateY(0px);} } @keyframes jackpot-intro-Y{ 0% {opacity:1;-webkit-transform: translateY(100px);transform: translateY(100px);-webkit-animation-timing-function:cubic-bezier(.5, 1.5, .5, 1);animation-timing-function:cubic-bezier(.5, 1.5, .5, 1);} 100% {opacity:1;-webkit-transform: translateY(0px);transform: translateY(0px);} } @-webkit-keyframes jackpot-intro-Y-triangleMask{ 0% {opacity:1;-webkit-transform: translateY(100px);transform: translateY(100px);-webkit-animation-timing-function:cubic-bezier(.5, 1.2, .5, 1);animation-timing-function:cubic-bezier(.5, 1.2, .5, 1);} 100% {opacity:1;-webkit-transform: translateY(0px);transform: translateY(0px);} } @keyframes jackpot-intro-Y-triangleMask{ 0% {opacity:1;-webkit-transform: translateY(100px);transform: translateY(100px);-webkit-animation-timing-function:cubic-bezier(.5, 1.2, .5, 1);animation-timing-function:cubic-bezier(.5, 1.2, .5, 1);} 100% {opacity:1;-webkit-transform: translateY(0px);transform: translateY(0px);} } @-webkit-keyframes jackpot-intro-balls-left{ 0% {opacity:1;-webkit-transform: translate(15px, 15px);transform: translate(15px, 15px);-webkit-animation-timing-function:cubic-bezier(.5, 1.5, .5, 1);animation-timing-function:cubic-bezier(.5, 1.5, .5, 1);} 100% {opacity:1;-webkit-transform: translate(0,0);transform: translate(0,0);} } @keyframes jackpot-intro-balls-left{ 0% {opacity:1;-webkit-transform: translate(15px, 15px);transform: translate(15px, 15px);-webkit-animation-timing-function:cubic-bezier(.5, 1.5, .5, 1);animation-timing-function:cubic-bezier(.5, 1.5, .5, 1);} 100% {opacity:1;-webkit-transform: translate(0,0);transform: translate(0,0);} } @-webkit-keyframes jackpot-intro-balls-right{ 0% {opacity:1;-webkit-transform: translate(-15px, 15px);transform: translate(-15px, 15px);-webkit-animation-timing-function:cubic-bezier(.5, 1.5, .5, 1);animation-timing-function:cubic-bezier(.5, 1.5, .5, 1);} 100% {opacity:1;-webkit-transform: translate(0,0);transform: translate(0,0);} } @keyframes jackpot-intro-balls-right{ 0% {opacity:1;-webkit-transform: translate(-15px, 15px);transform: translate(-15px, 15px);-webkit-animation-timing-function:cubic-bezier(.5, 1.5, .5, 1);animation-timing-function:cubic-bezier(.5, 1.5, .5, 1);} 100% {opacity:1;-webkit-transform: translate(0,0);transform: translate(0,0);} } #j{ -webkit-transform: translateX( -webkit-calc( var(--text-translateX) * 3) ); -ms-transform: translateX( calc( var(--text-translateX) * 3) ); transform: translateX( calc( var(--text-translateX) * 3) ); } #a{ -webkit-transform: translateX( -webkit-calc( var(--text-translateX) * 2) ); -ms-transform: translateX( calc( var(--text-translateX) * 2) ); transform: translateX( calc( var(--text-translateX) * 2) ); } #c{ -webkit-transform: translateX( -webkit-calc( var(--text-translateX) * 1) ); -ms-transform: translateX( calc( var(--text-translateX) * 1) ); transform: translateX( calc( var(--text-translateX) * 1) ); } #k{ -webkit-transform: translateX( -webkit-calc( var(--text-translateX) * 0) ); -ms-transform: translateX( calc( var(--text-translateX) * 0) ); transform: translateX( calc( var(--text-translateX) * 0) ); } #p{ -webkit-transform: translateX( -webkit-calc( var(--text-translateX) * -1) ); -ms-transform: translateX( calc( var(--text-translateX) * -1) ); transform: translateX( calc( var(--text-translateX) * -1) ); } #o{ -webkit-transform: translateX( -webkit-calc( var(--text-translateX) * -2) ); -ms-transform: translateX( calc( var(--text-translateX) * -2) ); transform: translateX( calc( var(--text-translateX) * -2) ); } #t{ -webkit-transform: translateX( -webkit-calc( var(--text-translateX) * -3) ); -ms-transform: translateX( calc( var(--text-translateX) * -3) ); transform: translateX( calc( var(--text-translateX) * -3) ); } #j,#a,#c,#k,#p,#o,#t{ opacity:0; -webkit-animation: tournament-text-slideX; animation: tournament-text-slideX; -webkit-animation-duration: -webkit-calc(var(--top-time) * 2); animation-duration: calc(var(--top-time) * 2); -webkit-animation-delay: 1s; animation-delay: 1s; -webkit-animation-fill-mode: forwards; animation-fill-mode: forwards; } /* X TRANSLATION */ .slot1{ -webkit-transform: translateX(20px); -ms-transform: translateX(20px); transform: translateX(20px); } .slot2,#Slot3Mask, #Slot4Mask{ -webkit-transform: translateX(10px); -ms-transform: translateX(10px); transform: translateX(10px); } #Slot1Mask,#Slot2Mask,.slot3{ -webkit-transform: translateX(-10px); -ms-transform: translateX(-10px); transform: translateX(-10px); } .slot4{ -webkit-transform: translateX(-20px); -ms-transform: translateX(-20px); transform: translateX(-20px); } @-webkit-keyframes tournament-slideX{ 100% {-webkit-transform: translateX(0px);transform: translateX(0px);} } @keyframes tournament-slideX{ 100% {-webkit-transform: translateX(0px);transform: translateX(0px);} } @-webkit-keyframes tournament-text-slideX{ 100% {-webkit-transform: translateX(0px);transform: translateX(0px);opacity:1;} } @keyframes tournament-text-slideX{ 100% {-webkit-transform: translateX(0px);transform: translateX(0px);opacity:1;} } @-webkit-keyframes tournament-text-fadeout{ 100% {opacity:0;} } @keyframes tournament-text-fadeout{ 100% {opacity:0;} }</style><path id="j" d="M193.3 129h3.7v12.4c0 1.1-.3 2.1-.8 3s-1.2 1.5-2.1 2-1.9.7-3.1.7c-1.9 0-3.4-.5-4.4-1.4s-1.6-2.3-1.6-4.1h3.7c0 .9.2 1.5.6 1.9.4.4.9.6 1.7.6.7 0 1.3-.2 1.7-.7.4-.5.6-1.2.6-2.1V129z" class="changeColor"/><path id="a" d="M229.9 143.2h-6.4l-1.2 3.7h-3.9L225 129h3.4l6.7 17.8h-3.9l-1.3-3.6zm-5.4-3h4.5l-2.2-6.7-2.3 6.7z" class="changeColor"/><path id="c" d="M270.6 140.9c-.1 1.9-.8 3.4-2.1 4.5s-3 1.7-5.1 1.7c-2.3 0-4.1-.8-5.4-2.3s-2-3.7-2-6.3v-1.1c0-1.7.3-3.2.9-4.5.6-1.3 1.5-2.3 2.6-3 1.1-.7 2.4-1 3.9-1 2.1 0 3.7.6 5 1.7 1.3 1.1 2 2.7 2.2 4.6h-3.7c-.1-1.2-.4-2-1-2.5s-1.4-.8-2.5-.8c-1.2 0-2.1.4-2.8 1.3-.6.9-.9 2.2-.9 4.1v1.3c0 1.9.3 3.3.9 4.2.6.9 1.5 1.3 2.8 1.3 1.1 0 2-.3 2.5-.8.6-.5.9-1.3 1-2.4h3.7z" class="changeColor"/><path id="k" d="M298.6 139.7l-1.9 2.1v5.1H293V129h3.7v8.1l1.6-2.2 4.6-5.9h4.5l-6.3 7.9 6.5 10h-4.4z" class="changeColor"/><path id="p" d="M332.7 140.6v6.3H329V129h7c1.3 0 2.5.2 3.5.7 1 .5 1.8 1.2 2.3 2.1s.8 1.9.8 3.1c0 1.7-.6 3.1-1.8 4.1-1.2 1-2.9 1.5-5 1.5h-3.1zm0-3h3.3c1 0 1.7-.2 2.2-.7.5-.5.8-1.1.8-2 0-.9-.3-1.6-.8-2.1s-1.2-.8-2.1-.8h-3.4v5.6z" class="changeColor"/><path id="o" d="M379.9 138.3c0 1.8-.3 3.3-.9 4.6s-1.5 2.3-2.7 3.1c-1.2.7-2.5 1.1-4 1.1s-2.8-.4-4-1.1c-1.2-.7-2.1-1.7-2.7-3-.6-1.3-1-2.8-1-4.6v-.9c0-1.8.3-3.3.9-4.6.6-1.3 1.5-2.4 2.7-3.1 1.2-.7 2.5-1.1 4-1.1s2.8.4 4 1.1c1.2.7 2.1 1.7 2.7 3.1s1 2.9 1 4.6v.8zm-3.7-.8c0-1.9-.3-3.3-1-4.3s-1.6-1.5-2.9-1.5c-1.2 0-2.2.5-2.9 1.4-.7 1-1 2.4-1 4.2v.9c0 1.8.3 3.2 1 4.2s1.6 1.5 2.9 1.5c1.2 0 2.2-.5 2.8-1.5s1-2.4 1-4.2v-.7z" class="changeColor"/><path id="t" d="M415 132h-5.4v14.9h-3.7V132h-5.4v-3H415z" class="changeColor"/><g id="top" class="top"><clipPath id="TopMask"><path id="TopMaskPath" d="M0 0h600v115H0z"/></clipPath><g class="top"><g id="coins" class="coingroup"><clipPath id="coinsMask"><circle id="coinsMaskPath" cx="300.1" cy="80.9" r="34"/></clipPath><g id="coin-pile-1"><g id="coin10"><path d="M306.5 102.4h-.6c-1.4-2-5-3.4-9.2-3.4s-7.8 1.4-9.2 3.4h-.6V104.3c0 2.9 4.4 5.3 9.8 5.3s9.8-2.4 9.8-5.3v-1.9z" class="st10"/><ellipse cx="296.6" cy="102.2" class="st11" rx="9.8" ry="5.3"/><path d="M296.6 98.8c3.9 0 7.1 1.5 7.4 3.3v-.2c0-1.9-3.3-3.5-7.4-3.5s-7.4 1.6-7.4 3.5v.2c.2-1.9 3.4-3.3 7.4-3.3z" class="st10"/><path d="M296.6 105.3c-3.9 0-7.1-1.5-7.4-3.3v.2c0 1.9 3.3 3.5 7.4 3.5 4.1 0 7.4-1.6 7.4-3.5v-.2c-.3 1.9-3.5 3.3-7.4 3.3z" class="st12"/></g><g id="coin9_1_"><path d="M306.1 99h-.6c-1.4-2-5-3.4-9.2-3.4s-7.8 1.4-9.2 3.4h-.6V100.9c0 2.9 4.4 5.3 9.8 5.3s9.8-2.4 9.8-5.3V99z" class="st10"/><ellipse cx="296.3" cy="98.9" class="st11" rx="9.8" ry="5.3"/><path d="M296.2 95.4c3.9 0 7.1 1.5 7.4 3.3v-.2c0-1.9-3.3-3.5-7.4-3.5s-7.4 1.6-7.4 3.5v.2c.3-1.8 3.5-3.3 7.4-3.3z" class="st10"/><path d="M296.2 102c-3.9 0-7.1-1.5-7.4-3.3v.2c0 1.9 3.3 3.5 7.4 3.5 4.1 0 7.4-1.6 7.4-3.5v-.2c-.3 1.9-3.5 3.3-7.4 3.3z" class="st12"/></g><g id="coin8_1_"><path d="M309.6 94.8h-.6c-1.4-2-5-3.4-9.2-3.4s-7.8 1.4-9.2 3.4h-.6V96.7c0 2.9 4.4 5.3 9.8 5.3s9.8-2.4 9.8-5.3v-1.9z" class="st10"/><ellipse cx="299.7" cy="94.6" class="st11" rx="9.8" ry="5.3"/><path d="M299.6 91.1c3.9 0 7.1 1.5 7.4 3.3v-.2c0-1.9-3.3-3.5-7.4-3.5-4.1 0-7.4 1.6-7.4 3.5v.2c.3-1.8 3.5-3.3 7.4-3.3z" class="st10"/><path d="M299.6 97.7c-3.9 0-7.1-1.5-7.4-3.3v.2c0 1.9 3.3 3.5 7.4 3.5 4.1 0 7.4-1.6 7.4-3.5v-.2c-.2 1.9-3.4 3.3-7.4 3.3z" class="st12"/></g><g id="coin7_1_"><path d="M307 91.7h-.6c-1.4-2-5-3.4-9.2-3.4s-7.8 1.4-9.2 3.4h-.6V93.6c0 2.9 4.4 5.3 9.8 5.3s9.8-2.4 9.8-5.3v-1.9z" class="st10"/><ellipse cx="297.2" cy="91.5" class="st11" rx="9.8" ry="5.3"/><path d="M297.1 88.1c3.9 0 7.1 1.5 7.4 3.3v-.2c0-1.9-3.3-3.5-7.4-3.5s-7.4 1.6-7.4 3.5v.2c.3-1.9 3.5-3.3 7.4-3.3z" class="st10"/><path d="M297.1 94.7c-3.9 0-7.1-1.5-7.4-3.3v.2c0 1.9 3.3 3.5 7.4 3.5 4.1 0 7.4-1.6 7.4-3.5v-.2c-.3 1.8-3.5 3.3-7.4 3.3z" class="st12"/></g><g id="coin6_1_"><path d="M290 87.6h.6c1.4-2 5-3.4 9.2-3.4 4.2 0 7.8 1.4 9.2 3.4h.6V89.5c0 2.9-4.4 5.3-9.8 5.3s-9.8-2.4-9.8-5.3v-1.9z" class="st10"/><ellipse cx="299.8" cy="87.5" class="st11" rx="9.8" ry="5.3"/><path d="M299.9 84c-3.9 0-7.1 1.5-7.4 3.3v-.2c0-1.9 3.3-3.5 7.4-3.5 4.1 0 7.4 1.6 7.4 3.5v.2c-.3-1.8-3.5-3.3-7.4-3.3z" class="st10"/><path d="M299.9 90.6c3.9 0 7.1-1.5 7.4-3.3v.2c0 1.9-3.3 3.5-7.4 3.5s-7.4-1.6-7.4-3.5v-.2c.3 1.8 3.5 3.3 7.4 3.3z" class="st12"/></g><g id="coin5_1_"><path d="M286.4 83.8h.6c1.4-2 5-3.4 9.2-3.4s7.8 1.4 9.2 3.4h.6V85.7c0 2.9-4.4 5.3-9.8 5.3s-9.8-2.4-9.8-5.3v-1.9z" class="st10"/><ellipse cx="296.2" cy="83.6" class="st11" rx="9.8" ry="5.3"/><path d="M296.3 80.2c-3.9 0-7.1 1.5-7.4 3.3v-.2c0-1.9 3.3-3.5 7.4-3.5s7.4 1.6 7.4 3.5v.2c-.3-1.9-3.5-3.3-7.4-3.3z" class="st10"/><path d="M296.3 86.7c3.9 0 7.1-1.5 7.4-3.3v.2c0 1.9-3.3 3.5-7.4 3.5-4.1 0-7.4-1.6-7.4-3.5v-.2c.3 1.9 3.5 3.3 7.4 3.3z" class="st12"/></g><g id="coin4_1_"><path d="M289.9 79.7h.6c1.4-2 5-3.4 9.2-3.4s7.8 1.4 9.2 3.4h.6V81.6c0 2.9-4.4 5.3-9.8 5.3s-9.8-2.4-9.8-5.3v-1.9z" class="st10"/><ellipse cx="299.7" cy="79.6" class="st11" rx="9.8" ry="5.3"/><path d="M299.8 76.1c-3.9 0-7.1 1.5-7.4 3.3v-.2c0-1.9 3.3-3.5 7.4-3.5 4.1 0 7.4 1.6 7.4 3.5v.2c-.3-1.8-3.5-3.3-7.4-3.3z" class="st10"/><path d="M299.8 82.7c3.9 0 7.1-1.5 7.4-3.3v.2c0 1.9-3.3 3.5-7.4 3.5s-7.4-1.6-7.4-3.5v-.2c.3 1.8 3.5 3.3 7.4 3.3z" class="st12"/></g><g id="coin3_1_"><path d="M309.8 76.2h-.6c-1.4-2-5-3.4-9.2-3.4s-7.8 1.4-9.2 3.4h-.6V78.1c0 2.9 4.4 5.3 9.8 5.3s9.8-2.4 9.8-5.3v-1.9z" class="st10"/><ellipse cx="300" cy="76" class="st11" rx="9.8" ry="5.3"/><path d="M299.9 72.6c3.9 0 7.1 1.5 7.4 3.3v-.2c0-1.9-3.3-3.5-7.4-3.5-4.1 0-7.4 1.6-7.4 3.5v.2c.3-1.9 3.5-3.3 7.4-3.3z" class="st10"/><path d="M299.9 79.2c-3.9 0-7.1-1.5-7.4-3.3v.2c0 1.9 3.3 3.5 7.4 3.5 4.1 0 7.4-1.6 7.4-3.5v-.2c-.3 1.8-3.5 3.3-7.4 3.3z" class="st12"/></g><g id="coin2_1_"><path d="M310.7 73.1h-.6c-1.4-2-5-3.4-9.2-3.4s-7.8 1.4-9.2 3.4h-.6V75c0 2.9 4.4 5.3 9.8 5.3s9.8-2.4 9.8-5.3v-1.9z" class="st10"/><ellipse cx="300.9" cy="73" class="st11" rx="9.8" ry="5.3"/><path d="M300.8 69.5c3.9 0 7.1 1.5 7.4 3.3v-.2c0-1.9-3.3-3.5-7.4-3.5-4.1 0-7.4 1.6-7.4 3.5v.2c.3-1.8 3.5-3.3 7.4-3.3z" class="st10"/><path d="M300.8 76.1c-3.9 0-7.1-1.5-7.4-3.3v.2c0 1.9 3.3 3.5 7.4 3.5 4.1 0 7.4-1.6 7.4-3.5v-.2c-.3 1.8-3.5 3.3-7.4 3.3z" class="st12"/></g><g id="coin1_5_"><path d="M308.7 69.2h-.7c-1.4-2-5-3.4-9.2-3.4s-7.8 1.4-9.2 3.4h-.6V71.1c0 2.9 4.4 5.3 9.8 5.3s9.8-2.4 9.8-5.3v-1.9z" class="st10"/><ellipse cx="298.8" cy="69" class="st11" rx="9.8" ry="5.3"/><path d="M298.7 65.5c3.9 0 7.1 1.5 7.4 3.3v-.2c0-1.9-3.3-3.5-7.4-3.5s-7.4 1.6-7.4 3.5v.2c.3-1.8 3.5-3.3 7.4-3.3z" class="st10"/><path d="M298.7 72.1c-3.9 0-7.1-1.5-7.4-3.3v.2c0 1.9 3.3 3.5 7.4 3.5 4.1 0 7.4-1.6 7.4-3.5v-.2c-.3 1.9-3.5 3.3-7.4 3.3z" class="st12"/></g></g><g id="coin-pile-2"><g id="coin10_1_"><path d="M294.1 111.7h-.6c-1.4-2-5-3.4-9.2-3.4s-7.8 1.4-9.2 3.4h-.6V113.6c0 2.9 4.4 5.3 9.8 5.3s9.8-2.4 9.8-5.3v-1.9z" class="st10"/><ellipse cx="284.3" cy="111.5" class="st11" rx="9.8" ry="5.3"/><path d="M284.2 108.1c3.9 0 7.1 1.5 7.4 3.3v-.2c0-1.9-3.3-3.5-7.4-3.5-4.1 0-7.4 1.6-7.4 3.5v.2c.3-1.9 3.5-3.3 7.4-3.3z" class="st10"/><path d="M284.2 114.6c-3.9 0-7.1-1.5-7.4-3.3v.2c0 1.9 3.3 3.5 7.4 3.5 4.1 0 7.4-1.6 7.4-3.5v-.2c-.3 1.9-3.5 3.3-7.4 3.3z" class="st12"/></g><g id="coin9_2_"><path d="M294.3 107.8h-.6c-1.4-2-5-3.4-9.2-3.4s-7.8 1.4-9.2 3.4h-.6V109.7c0 2.9 4.4 5.3 9.8 5.3s9.8-2.4 9.8-5.3v-1.9z" class="st10"/><ellipse cx="284.4" cy="107.6" class="st11" rx="9.8" ry="5.3"/><path d="M284.3 104.2c3.9 0 7.1 1.5 7.4 3.3v-.2c0-1.9-3.3-3.5-7.4-3.5-4.1 0-7.4 1.6-7.4 3.5v.2c.3-1.9 3.5-3.3 7.4-3.3z" class="st10"/><path d="M284.3 110.7c-3.9 0-7.1-1.5-7.4-3.3v.2c0 1.9 3.3 3.5 7.4 3.5 4.1 0 7.4-1.6 7.4-3.5v-.2c-.2 1.9-3.4 3.3-7.4 3.3z" class="st12"/></g><g id="coin8_2_"><path d="M293.2 104.3h-.6c-1.4-2-5-3.4-9.2-3.4s-7.8 1.4-9.2 3.4h-.6V106.2c0 2.9 4.4 5.3 9.8 5.3s9.8-2.4 9.8-5.3v-1.9z" class="st10"/><ellipse cx="283.4" cy="104.2" class="st11" rx="9.8" ry="5.3"/><path d="M283.3 100.7c3.9 0 7.1 1.5 7.4 3.3v-.2c0-1.9-3.3-3.5-7.4-3.5-4.1 0-7.4 1.6-7.4 3.5v.2c.3-1.8 3.5-3.3 7.4-3.3z" class="st10"/><path d="M283.3 107.3c-3.9 0-7.1-1.5-7.4-3.3v.2c0 1.9 3.3 3.5 7.4 3.5s7.4-1.6 7.4-3.5v-.2c-.3 1.8-3.5 3.3-7.4 3.3z" class="st12"/></g><g id="coin7_2_"><path d="M294.8 100.9h-.6c-1.4-2-5-3.4-9.2-3.4s-7.8 1.4-9.2 3.4h-.6V102.8c0 2.9 4.4 5.3 9.8 5.3s9.8-2.4 9.8-5.3v-1.9z" class="st10"/><ellipse cx="284.9" cy="100.7" class="st11" rx="9.8" ry="5.3"/><path d="M284.8 97.3c3.9 0 7.1 1.5 7.4 3.3v-.2c0-1.9-3.3-3.5-7.4-3.5-4.1 0-7.4 1.6-7.4 3.5v.2c.3-1.9 3.5-3.3 7.4-3.3z" class="st10"/><path d="M284.8 103.9c-3.9 0-7.1-1.5-7.4-3.3v.2c0 1.9 3.3 3.5 7.4 3.5s7.4-1.6 7.4-3.5v-.2c-.3 1.8-3.4 3.3-7.4 3.3z" class="st12"/></g><g id="coin6_2_"><path d="M277 97.2h.6c1.4-2 5-3.4 9.2-3.4s7.8 1.4 9.2 3.4h.6V99.1c0 2.9-4.4 5.3-9.8 5.3s-9.8-2.4-9.8-5.3v-1.9z" class="st10"/><ellipse cx="286.8" cy="97" class="st11" rx="9.8" ry="5.3"/><path d="M286.9 93.6c-3.9 0-7.1 1.5-7.4 3.3v-.2c0-1.9 3.3-3.5 7.4-3.5s7.4 1.6 7.4 3.5v.2c-.3-1.9-3.5-3.3-7.4-3.3z" class="st10"/><path d="M286.9 100.2c3.9 0 7.1-1.5 7.4-3.3v.2c0 1.9-3.3 3.5-7.4 3.5-4.1 0-7.4-1.6-7.4-3.5v-.2c.3 1.8 3.5 3.3 7.4 3.3z" class="st12"/></g><g id="coin5_2_"><path d="M279.1 92.7h.6c1.4-2 5-3.4 9.2-3.4s7.8 1.4 9.2 3.4h.6V94.6c0 2.9-4.4 5.3-9.8 5.3s-9.8-2.4-9.8-5.3v-1.9z" class="st10"/><ellipse cx="288.9" cy="92.5" class="st11" rx="9.8" ry="5.3"/><path d="M289 89.1c-3.9 0-7.1 1.5-7.4 3.3v-.2c0-1.9 3.3-3.5 7.4-3.5 4.1 0 7.4 1.6 7.4 3.5v.2c-.3-1.9-3.5-3.3-7.4-3.3z" class="st10"/><path d="M289 95.7c3.9 0 7.1-1.5 7.4-3.3v.2c0 1.9-3.3 3.5-7.4 3.5s-7.4-1.6-7.4-3.5v-.2c.3 1.8 3.5 3.3 7.4 3.3z" class="st12"/></g><g id="coin4_2_"><path d="M274.8 89.8h.6c1.4-2 5-3.4 9.2-3.4s7.8 1.4 9.2 3.4h.6V91.7c0 2.9-4.4 5.3-9.8 5.3s-9.8-2.4-9.8-5.3v-1.9z" class="st10"/><ellipse cx="284.7" cy="89.6" class="st11" rx="9.8" ry="5.3"/><path d="M284.8 86.2c-3.9 0-7.1 1.5-7.4 3.3v-.2c0-1.9 3.3-3.5 7.4-3.5s7.4 1.6 7.4 3.5v.2c-.3-1.9-3.5-3.3-7.4-3.3z" class="st10"/><path d="M284.8 92.8c3.9 0 7.1-1.5 7.4-3.3v.2c0 1.9-3.3 3.5-7.4 3.5-4.1 0-7.4-1.6-7.4-3.5v-.2c.3 1.8 3.5 3.3 7.4 3.3z" class="st12"/></g><g id="coin3_2_"><path d="M294.8 85.8h-.6c-1.4-2-5-3.4-9.2-3.4s-7.8 1.4-9.2 3.4h-.6V87.7c0 2.9 4.4 5.3 9.8 5.3s9.8-2.4 9.8-5.3v-1.9z" class="st10"/><ellipse cx="284.9" cy="85.6" class="st11" rx="9.8" ry="5.3"/><path d="M284.8 82.2c3.9 0 7.1 1.5 7.4 3.3v-.2c0-1.9-3.3-3.5-7.4-3.5-4.1 0-7.4 1.6-7.4 3.5v.2c.3-1.9 3.5-3.3 7.4-3.3z" class="st10"/><path d="M284.8 88.7c-3.9 0-7.1-1.5-7.4-3.3v.2c0 1.9 3.3 3.5 7.4 3.5 4.1 0 7.4-1.6 7.4-3.5v-.2c-.3 1.9-3.4 3.3-7.4 3.3z" class="st12"/></g><g id="coin2_2_"><path d="M294.5 82.3h-.6c-1.4-2-5-3.4-9.2-3.4s-7.8 1.4-9.2 3.4h-.6V84.2c0 2.9 4.4 5.3 9.8 5.3s9.8-2.4 9.8-5.3v-1.9z" class="st10"/><ellipse cx="284.7" cy="82.1" class="st11" rx="9.8" ry="5.3"/><path d="M284.6 78.6c3.9 0 7.1 1.5 7.4 3.3v-.2c0-1.9-3.3-3.5-7.4-3.5-4.1 0-7.4 1.6-7.4 3.5v.2c.3-1.8 3.5-3.3 7.4-3.3z" class="st10"/><path d="M284.6 85.2c-3.9 0-7.1-1.5-7.4-3.3v.2c0 1.9 3.3 3.5 7.4 3.5s7.4-1.6 7.4-3.5v-.2c-.3 1.9-3.5 3.3-7.4 3.3z" class="st12"/></g><g id="coin1_4_"><path d="M295.4 78.3h-.6c-1.4-2-5-3.4-9.2-3.4s-7.8 1.4-9.2 3.4h-.6V80.2c0 2.9 4.4 5.3 9.8 5.3s9.8-2.4 9.8-5.3v-1.9z" class="st10"/><ellipse cx="285.6" cy="78.1" class="st11" rx="9.8" ry="5.3"/><path d="M285.5 74.7c3.9 0 7.1 1.5 7.4 3.3v-.2c0-1.9-3.3-3.5-7.4-3.5-4.1 0-7.4 1.6-7.4 3.5v.2c.3-1.9 3.5-3.3 7.4-3.3z" class="st10"/><path d="M285.5 81.3c-3.9 0-7.1-1.5-7.4-3.3v.2c0 1.9 3.3 3.5 7.4 3.5 4.1 0 7.4-1.6 7.4-3.5V78c-.3 1.8-3.5 3.3-7.4 3.3z" class="st12"/></g></g><g id="coin-pile-3"><g id="coin10_2_"><path d="M326 113.4h-.6c-1.4-2-5-3.4-9.2-3.4s-7.8 1.4-9.2 3.4h-.6V115.3c0 2.9 4.4 5.3 9.8 5.3s9.8-2.4 9.8-5.3v-1.9z" class="st10"/><ellipse cx="316.1" cy="113.2" class="st11" rx="9.8" ry="5.3"/><path d="M316 109.8c3.9 0 7.1 1.5 7.4 3.3v-.2c0-1.9-3.3-3.5-7.4-3.5s-7.4 1.6-7.4 3.5v.2c.3-1.9 3.5-3.3 7.4-3.3z" class="st10"/><path d="M316 116.3c-3.9 0-7.1-1.5-7.4-3.3v.2c0 1.9 3.3 3.5 7.4 3.5 4.1 0 7.4-1.6 7.4-3.5v-.2c-.3 1.9-3.5 3.3-7.4 3.3z" class="st12"/></g><g id="coin9_3_"><path d="M327.2 110h-.6c-1.4-2-5-3.4-9.2-3.4s-7.8 1.4-9.2 3.4h-.6V111.9c0 2.9 4.4 5.3 9.8 5.3s9.8-2.4 9.8-5.3V110z" class="st10"/><ellipse cx="317.3" cy="109.8" class="st11" rx="9.8" ry="5.3"/><path d="M317.2 106.4c3.9 0 7.1 1.5 7.4 3.3v-.2c0-1.9-3.3-3.5-7.4-3.5-4.1 0-7.4 1.6-7.4 3.5v.2c.3-1.9 3.5-3.3 7.4-3.3z" class="st10"/><path d="M317.2 112.9c-3.9 0-7.1-1.5-7.4-3.3v.2c0 1.9 3.3 3.5 7.4 3.5 4.1 0 7.4-1.6 7.4-3.5v-.2c-.2 1.9-3.4 3.3-7.4 3.3z" class="st12"/></g><g id="coin8_3_"><path d="M327.2 105.5h-.6c-1.4-2-5-3.4-9.2-3.4s-7.8 1.4-9.2 3.4h-.6V107.4c0 2.9 4.4 5.3 9.8 5.3s9.8-2.4 9.8-5.3v-1.9z" class="st10"/><ellipse cx="317.3" cy="105.4" class="st11" rx="9.8" ry="5.3"/><path d="M317.2 101.9c3.9 0 7.1 1.5 7.4 3.3v-.2c0-1.9-3.3-3.5-7.4-3.5-4.1 0-7.4 1.6-7.4 3.5v.2c.3-1.8 3.5-3.3 7.4-3.3z" class="st10"/><path d="M317.2 108.5c-3.9 0-7.1-1.5-7.4-3.3v.2c0 1.9 3.3 3.5 7.4 3.5 4.1 0 7.4-1.6 7.4-3.5v-.2c-.3 1.8-3.5 3.3-7.4 3.3z" class="st12"/></g><g id="coin7_3_"><path d="M326 102.5h-.6c-1.4-2-5-3.4-9.2-3.4s-7.8 1.4-9.2 3.4h-.6V104.4c0 2.9 4.4 5.3 9.8 5.3s9.8-2.4 9.8-5.3v-1.9z" class="st10"/><ellipse cx="316.1" cy="102.3" class="st11" rx="9.8" ry="5.3"/><path d="M316 98.9c3.9 0 7.1 1.5 7.4 3.3v-.2c0-1.9-3.3-3.5-7.4-3.5-4.1 0-7.4 1.6-7.4 3.5v.2c.3-1.9 3.5-3.3 7.4-3.3z" class="st10"/><path d="M316 105.5c-3.9 0-7.1-1.5-7.4-3.3v.2c0 1.9 3.3 3.5 7.4 3.5 4.1 0 7.4-1.6 7.4-3.5v-.2c-.3 1.8-3.5 3.3-7.4 3.3z" class="st12"/></g><g id="coin6_3_"><path d="M306.6 97.8h.6c1.4-2 5-3.4 9.2-3.4s7.8 1.4 9.2 3.4h.6V99.7c0 2.9-4.4 5.3-9.8 5.3s-9.8-2.4-9.8-5.3v-1.9z" class="st10"/><ellipse cx="316.4" cy="97.7" class="st11" rx="9.8" ry="5.3"/><path d="M316.5 94.2c-3.9 0-7.1 1.5-7.4 3.3v-.2c0-1.9 3.3-3.5 7.4-3.5s7.4 1.6 7.4 3.5v.2c-.3-1.8-3.5-3.3-7.4-3.3z" class="st10"/><path d="M316.5 100.8c3.9 0 7.1-1.5 7.4-3.3v.2c0 1.9-3.3 3.5-7.4 3.5-4.1 0-7.4-1.6-7.4-3.5v-.2c.3 1.9 3.5 3.3 7.4 3.3z" class="st12"/></g><g id="coin5_3_"><path d="M305.1 94.6h.6c1.4-2 5-3.4 9.2-3.4s7.8 1.4 9.2 3.4h.6V96.5c0 2.9-4.4 5.3-9.8 5.3s-9.8-2.4-9.8-5.3v-1.9z" class="st10"/><ellipse cx="315" cy="94.4" class="st11" rx="9.8" ry="5.3"/><path d="M315.1 91c-3.9 0-7.1 1.5-7.4 3.3v-.2c0-1.9 3.3-3.5 7.4-3.5 4.1 0 7.4 1.6 7.4 3.5v.2c-.3-1.9-3.5-3.3-7.4-3.3z" class="st10"/><path d="M315.1 97.5c3.9 0 7.1-1.5 7.4-3.3v.2c0 1.9-3.3 3.5-7.4 3.5-4.1 0-7.4-1.6-7.4-3.5v-.2c.3 1.9 3.5 3.3 7.4 3.3z" class="st12"/></g><g id="coin4_3_"><path d="M305.4 90.5h.6c1.4-2 5-3.4 9.2-3.4s7.8 1.4 9.2 3.4h.6V92.4c0 2.9-4.4 5.3-9.8 5.3s-9.8-2.4-9.8-5.3v-1.9z" class="st10"/><ellipse cx="315.2" cy="90.4" class="st11" rx="9.8" ry="5.3"/><path d="M315.3 86.9c-3.9 0-7.1 1.5-7.4 3.3V90c0-1.9 3.3-3.5 7.4-3.5 4.1 0 7.4 1.6 7.4 3.5v.2c-.3-1.8-3.5-3.3-7.4-3.3z" class="st10"/><path d="M315.3 93.5c3.9 0 7.1-1.5 7.4-3.3v.2c0 1.9-3.3 3.5-7.4 3.5-4.1 0-7.4-1.6-7.4-3.5v-.2c.3 1.8 3.5 3.3 7.4 3.3z" class="st12"/></g><g id="coin3_3_"><path d="M329 87.1h-.6c-1.4-2-5-3.4-9.2-3.4-4.2 0-7.8 1.4-9.2 3.4h-.6V89c0 2.9 4.4 5.3 9.8 5.3s9.8-2.4 9.8-5.3v-1.9z" class="st10"/><ellipse cx="319.1" cy="87" class="st11" rx="9.8" ry="5.3"/><path d="M319 83.5c3.9 0 7.1 1.5 7.4 3.3v-.2c0-1.9-3.3-3.5-7.4-3.5-4.1 0-7.4 1.6-7.4 3.5v.2c.3-1.8 3.5-3.3 7.4-3.3z" class="st10"/><path d="M319 90.1c-3.9 0-7.1-1.5-7.4-3.3v.2c0 1.9 3.3 3.5 7.4 3.5s7.4-1.6 7.4-3.5v-.2c-.3 1.9-3.5 3.3-7.4 3.3z" class="st12"/></g><g id="coin2_3_"><path d="M329 84h-.6c-1.4-2-5-3.4-9.2-3.4S311.4 82 310 84h-.6V85.9c0 2.9 4.4 5.3 9.8 5.3s9.8-2.4 9.8-5.3V84z" class="st10"/><ellipse cx="319.1" cy="83.8" class="st11" rx="9.8" ry="5.3"/><path d="M319 80.4c3.9 0 7.1 1.5 7.4 3.3v-.2c0-1.9-3.3-3.5-7.4-3.5-4.1 0-7.4 1.6-7.4 3.5v.2c.3-1.9 3.5-3.3 7.4-3.3z" class="st10"/><path d="M319 87c-3.9 0-7.1-1.5-7.4-3.3v.2c0 1.9 3.3 3.5 7.4 3.5s7.4-1.6 7.4-3.5v-.2c-.3 1.8-3.5 3.3-7.4 3.3z" class="st12"/></g><g id="coin1_3_"><path d="M327.3 80.5h-.6c-1.4-2-5-3.4-9.2-3.4s-7.8 1.4-9.2 3.4h-.6V82.4c0 2.9 4.4 5.3 9.8 5.3s9.8-2.4 9.8-5.3v-1.9z" class="st10"/><ellipse cx="317.5" cy="80.3" class="st11" rx="9.8" ry="5.3"/><path d="M317.4 76.9c3.9 0 7.1 1.5 7.4 3.3V80c0-1.9-3.3-3.5-7.4-3.5-4.1 0-7.4 1.6-7.4 3.5v.2c.3-1.9 3.5-3.3 7.4-3.3z" class="st10"/><path d="M317.4 83.4c-3.9 0-7.1-1.5-7.4-3.3v.2c0 1.9 3.3 3.5 7.4 3.5s7.4-1.6 7.4-3.5v-.2c-.3 1.9-3.5 3.3-7.4 3.3z" class="st12"/></g></g><g id="coin-pile-4"><g id="coin10_3_"><path d="M283.6 126.8h-.6c-1.4-2-5-3.4-9.2-3.4s-7.8 1.4-9.2 3.4h-.6V128.7c0 2.9 4.4 5.3 9.8 5.3s9.8-2.4 9.8-5.3v-1.9z" class="st10"/><ellipse cx="273.8" cy="126.7" class="st11" rx="9.8" ry="5.3"/><path d="M273.7 123.2c3.9 0 7.1 1.5 7.4 3.3v-.2c0-1.9-3.3-3.5-7.4-3.5s-7.4 1.6-7.4 3.5v.2c.3-1.8 3.5-3.3 7.4-3.3z" class="st10"/><path d="M273.7 129.8c-3.9 0-7.1-1.5-7.4-3.3v.2c0 1.9 3.3 3.5 7.4 3.5 4.1 0 7.4-1.6 7.4-3.5v-.2c-.3 1.8-3.5 3.3-7.4 3.3z" class="st12"/></g><g id="coin9_4_"><path d="M284.6 123.5h-.6c-1.4-2-5-3.4-9.2-3.4s-7.8 1.4-9.2 3.4h-.6V125.4c0 2.9 4.4 5.3 9.8 5.3s9.8-2.4 9.8-5.3v-1.9z" class="st10"/><ellipse cx="274.8" cy="123.3" class="st11" rx="9.8" ry="5.3"/><path d="M274.7 119.9c3.9 0 7.1 1.5 7.4 3.3v-.2c0-1.9-3.3-3.5-7.4-3.5-4.1 0-7.4 1.6-7.4 3.5v.2c.3-1.9 3.5-3.3 7.4-3.3z" class="st10"/><path d="M274.7 126.4c-3.9 0-7.1-1.5-7.4-3.3v.2c0 1.9 3.3 3.5 7.4 3.5 4.1 0 7.4-1.6 7.4-3.5v-.2c-.3 1.9-3.5 3.3-7.4 3.3z" class="st12"/></g><g id="coin8_4_"><path d="M286.2 119.2h-.6c-1.4-2-5-3.4-9.2-3.4s-7.8 1.4-9.2 3.4h-.6V121.1c0 2.9 4.4 5.3 9.8 5.3s9.8-2.4 9.8-5.3v-1.9z" class="st10"/><ellipse cx="276.3" cy="119" class="st11" rx="9.8" ry="5.3"/><path d="M276.2 115.6c3.9 0 7.1 1.5 7.4 3.3v-.2c0-1.9-3.3-3.5-7.4-3.5-4.1 0-7.4 1.6-7.4 3.5v.2c.3-1.9 3.5-3.3 7.4-3.3z" class="st10"/><path d="M276.2 122.1c-3.9 0-7.1-1.5-7.4-3.3v.2c0 1.9 3.3 3.5 7.4 3.5 4.1 0 7.4-1.6 7.4-3.5v-.2c-.3 1.9-3.4 3.3-7.4 3.3z" class="st12"/></g><g id="coin7_4_"><path d="M285.4 115.9h-.6c-1.4-2-5-3.4-9.2-3.4s-7.8 1.4-9.2 3.4h-.6V117.8c0 2.9 4.4 5.3 9.8 5.3s9.8-2.4 9.8-5.3v-1.9z" class="st10"/><ellipse cx="275.5" cy="115.8" class="st11" rx="9.8" ry="5.3"/><path d="M275.4 112.3c3.9 0 7.1 1.5 7.4 3.3v-.2c0-1.9-3.3-3.5-7.4-3.5-4.1 0-7.4 1.6-7.4 3.5v.2c.3-1.8 3.5-3.3 7.4-3.3z" class="st10"/><path d="M275.4 118.9c-3.9 0-7.1-1.5-7.4-3.3v.2c0 1.9 3.3 3.5 7.4 3.5 4.1 0 7.4-1.6 7.4-3.5v-.2c-.3 1.8-3.5 3.3-7.4 3.3z" class="st12"/></g><g id="coin6_4_"><path d="M267 112.1h.6c1.4-2 5-3.4 9.2-3.4s7.8 1.4 9.2 3.4h.6V114c0 2.9-4.4 5.3-9.8 5.3s-9.8-2.4-9.8-5.3v-1.9z" class="st10"/><ellipse cx="276.8" cy="111.9" class="st11" rx="9.8" ry="5.3"/><path d="M276.9 108.4c-3.9 0-7.1 1.5-7.4 3.3v-.2c0-1.9 3.3-3.5 7.4-3.5 4.1 0 7.4 1.6 7.4 3.5v.2c-.3-1.8-3.5-3.3-7.4-3.3z" class="st10"/><path d="M276.9 115c3.9 0 7.1-1.5 7.4-3.3v.2c0 1.9-3.3 3.5-7.4 3.5s-7.4-1.6-7.4-3.5v-.2c.3 1.9 3.5 3.3 7.4 3.3z" class="st12"/></g><g id="coin5_4_"><path d="M263.3 109.2h.6c1.4-2 5-3.4 9.2-3.4s7.8 1.4 9.2 3.4h.6V111.1c0 2.9-4.4 5.3-9.8 5.3s-9.8-2.4-9.8-5.3v-1.9z" class="st10"/><ellipse cx="273.1" cy="109.1" class="st11" rx="9.8" ry="5.3"/><path d="M273.2 105.6c-3.9 0-7.1 1.5-7.4 3.3v-.2c0-1.9 3.3-3.5 7.4-3.5s7.4 1.6 7.4 3.5v.2c-.3-1.8-3.4-3.3-7.4-3.3z" class="st10"/><path d="M273.2 112.2c3.9 0 7.1-1.5 7.4-3.3v.2c0 1.9-3.3 3.5-7.4 3.5-4.1 0-7.4-1.6-7.4-3.5v-.2c.3 1.9 3.5 3.3 7.4 3.3z" class="st12"/></g><g id="coin4_4_"><path d="M265.7 106.2h.6c1.4-2 5-3.4 9.2-3.4s7.8 1.4 9.2 3.4h.6V108.1c0 2.9-4.4 5.3-9.8 5.3s-9.8-2.4-9.8-5.3v-1.9z" class="st10"/><ellipse cx="275.5" cy="106" class="st11" rx="9.8" ry="5.3"/><path d="M275.6 102.6c-3.9 0-7.1 1.5-7.4 3.3v-.2c0-1.9 3.3-3.5 7.4-3.5 4.1 0 7.4 1.6 7.4 3.5v.2c-.3-1.9-3.5-3.3-7.4-3.3z" class="st10"/><path d="M275.6 109.2c3.9 0 7.1-1.5 7.4-3.3v.2c0 1.9-3.3 3.5-7.4 3.5s-7.4-1.6-7.4-3.5v-.2c.3 1.8 3.5 3.3 7.4 3.3z" class="st12"/></g><g id="coin3_4_"><path d="M285.1 100.6h-.6c-1.4-2-5-3.4-9.2-3.4s-7.8 1.4-9.2 3.4h-.6V102.5c0 2.9 4.4 5.3 9.8 5.3s9.8-2.4 9.8-5.3v-1.9z" class="st10"/><ellipse cx="275.2" cy="100.5" class="st11" rx="9.8" ry="5.3"/><path d="M275.1 97c3.9 0 7.1 1.5 7.4 3.3v-.2c0-1.9-3.3-3.5-7.4-3.5-4.1 0-7.4 1.6-7.4 3.5v.2c.3-1.8 3.5-3.3 7.4-3.3z" class="st10"/><path d="M275.1 103.6c-3.9 0-7.1-1.5-7.4-3.3v.2c0 1.9 3.3 3.5 7.4 3.5 4.1 0 7.4-1.6 7.4-3.5v-.2c-.2 1.9-3.4 3.3-7.4 3.3z" class="st12"/></g><g id="coin2_4_"><path d="M285.2 96.8h-.6c-1.4-2-5-3.4-9.2-3.4s-7.8 1.4-9.2 3.4h-.6V98.7c0 2.9 4.4 5.3 9.8 5.3s9.8-2.4 9.8-5.3v-1.9z" class="st10"/><ellipse cx="275.3" cy="96.7" class="st11" rx="9.8" ry="5.3"/><path d="M275.2 93.2c3.9 0 7.1 1.5 7.4 3.3v-.2c0-1.9-3.3-3.5-7.4-3.5-4.1 0-7.4 1.6-7.4 3.5v.2c.3-1.8 3.5-3.3 7.4-3.3z" class="st10"/><path d="M275.2 99.8c-3.9 0-7.1-1.5-7.4-3.3v.2c0 1.9 3.3 3.5 7.4 3.5 4.1 0 7.4-1.6 7.4-3.5v-.2c-.3 1.8-3.4 3.3-7.4 3.3z" class="st12"/></g><g id="coin1_2_"><path d="M285.3 93.6h-.6c-1.4-2-5-3.4-9.2-3.4s-7.8 1.4-9.2 3.4h-.6V95.5c0 2.9 4.4 5.3 9.8 5.3s9.8-2.4 9.8-5.3v-1.9z" class="st10"/><ellipse cx="275.4" cy="93.4" class="st11" rx="9.8" ry="5.3"/><path d="M275.3 90c3.9 0 7.1 1.5 7.4 3.3v-.2c0-1.9-3.3-3.5-7.4-3.5-4.1 0-7.4 1.6-7.4 3.5v.2c.3-1.9 3.5-3.3 7.4-3.3z" class="st10"/><path d="M275.3 96.6c-3.9 0-7.1-1.5-7.4-3.3v.2c0 1.9 3.3 3.5 7.4 3.5 4.1 0 7.4-1.6 7.4-3.5v-.2c-.3 1.8-3.5 3.3-7.4 3.3z" class="st12"/></g></g><g id="coin-pile-5"><g id="coin10_4_"><path d="M308.6 122.5h-.6c-1.4-2-5-3.4-9.2-3.4s-7.8 1.4-9.2 3.4h-.6V124.4c0 2.9 4.4 5.3 9.8 5.3s9.8-2.4 9.8-5.3v-1.9z" class="st10"/><ellipse cx="298.8" cy="122.3" class="st11" rx="9.8" ry="5.3"/><path d="M298.7 118.9c3.9 0 7.1 1.5 7.4 3.3v-.2c0-1.9-3.3-3.5-7.4-3.5-4.1 0-7.4 1.6-7.4 3.5v.2c.3-1.9 3.5-3.3 7.4-3.3z" class="st10"/><path d="M298.7 125.4c-3.9 0-7.1-1.5-7.4-3.3v.2c0 1.9 3.3 3.5 7.4 3.5 4.1 0 7.4-1.6 7.4-3.5v-.2c-.3 1.9-3.5 3.3-7.4 3.3z" class="st12"/></g><g id="coin9_5_"><path d="M308.6 119.2h-.6c-1.4-2-5-3.4-9.2-3.4s-7.8 1.4-9.2 3.4h-.6V121.1c0 2.9 4.4 5.3 9.8 5.3s9.8-2.4 9.8-5.3v-1.9z" class="st10"/><ellipse cx="298.8" cy="119" class="st11" rx="9.8" ry="5.3"/><path d="M298.7 115.6c3.9 0 7.1 1.5 7.4 3.3v-.2c0-1.9-3.3-3.5-7.4-3.5-4.1 0-7.4 1.6-7.4 3.5v.2c.3-1.9 3.5-3.3 7.4-3.3z" class="st10"/><path d="M298.7 122.2c-3.9 0-7.1-1.5-7.4-3.3v.2c0 1.9 3.3 3.5 7.4 3.5 4.1 0 7.4-1.6 7.4-3.5v-.2c-.3 1.8-3.5 3.3-7.4 3.3z" class="st12"/></g><g id="coin8_5_"><path d="M307.7 114.9h-.7c-1.4-2-5-3.4-9.2-3.4s-7.8 1.4-9.2 3.4h-.6V116.8c0 2.9 4.4 5.3 9.8 5.3s9.8-2.4 9.8-5.3v-1.9z" class="st10"/><ellipse cx="297.8" cy="114.8" class="st11" rx="9.8" ry="5.3"/><path d="M297.7 111.3c3.9 0 7.1 1.5 7.4 3.3v-.2c0-1.9-3.3-3.5-7.4-3.5-4.1 0-7.4 1.6-7.4 3.5v.2c.3-1.8 3.5-3.3 7.4-3.3z" class="st10"/><path d="M297.7 117.9c-3.9 0-7.1-1.5-7.4-3.3v.2c0 1.9 3.3 3.5 7.4 3.5 4.1 0 7.4-1.6 7.4-3.5v-.2c-.3 1.8-3.5 3.3-7.4 3.3z" class="st12"/></g><g id="coin7_5_"><path d="M310.1 111.9h-.6c-1.4-2-5-3.4-9.2-3.4s-7.8 1.4-9.2 3.4h-.6V113.8c0 2.9 4.4 5.3 9.8 5.3s9.8-2.4 9.8-5.3v-1.9z" class="st10"/><ellipse cx="300.3" cy="111.7" class="st11" rx="9.8" ry="5.3"/><path d="M300.2 108.2c3.9 0 7.1 1.5 7.4 3.3v-.2c0-1.9-3.3-3.5-7.4-3.5s-7.4 1.6-7.4 3.5v.2c.3-1.8 3.5-3.3 7.4-3.3z" class="st10"/><path d="M300.2 114.8c-3.9 0-7.1-1.5-7.4-3.3v.2c0 1.9 3.3 3.5 7.4 3.5 4.1 0 7.4-1.6 7.4-3.5v-.2c-.3 1.9-3.5 3.3-7.4 3.3z" class="st12"/></g><g id="coin6_5_"><path d="M289.1 107.8h.6c1.4-2 5-3.4 9.2-3.4s7.8 1.4 9.2 3.4h.6V109.7c0 2.9-4.4 5.3-9.8 5.3s-9.8-2.4-9.8-5.3v-1.9z" class="st10"/><ellipse cx="298.9" cy="107.6" class="st11" rx="9.8" ry="5.3"/><path d="M299 104.2c-3.9 0-7.1 1.5-7.4 3.3v-.2c0-1.9 3.3-3.5 7.4-3.5 4.1 0 7.4 1.6 7.4 3.5v.2c-.3-1.9-3.5-3.3-7.4-3.3z" class="st10"/><path d="M299 110.8c3.9 0 7.1-1.5 7.4-3.3v.2c0 1.9-3.3 3.5-7.4 3.5-4.1 0-7.4-1.6-7.4-3.5v-.2c.3 1.8 3.5 3.3 7.4 3.3z" class="st12"/></g><g id="coin5_5_"><path d="M287.4 103.9h.6c1.4-2 5-3.4 9.2-3.4s7.8 1.4 9.2 3.4h.6V105.8c0 2.9-4.4 5.3-9.8 5.3s-9.8-2.4-9.8-5.3v-1.9z" class="st10"/><ellipse cx="297.3" cy="103.8" class="st11" rx="9.8" ry="5.3"/><path d="M297.4 100.3c-3.9 0-7.1 1.5-7.4 3.3v-.2c0-1.9 3.3-3.5 7.4-3.5s7.4 1.6 7.4 3.5v.2c-.3-1.8-3.5-3.3-7.4-3.3z" class="st10"/><path d="M297.4 106.9c3.9 0 7.1-1.5 7.4-3.3v.2c0 1.9-3.3 3.5-7.4 3.5-4.1 0-7.4-1.6-7.4-3.5v-.2c.3 1.8 3.5 3.3 7.4 3.3z" class="st12"/></g><g id="coin4_5_"><path d="M288.4 99.9h.6c1.4-2 5-3.4 9.2-3.4s7.8 1.4 9.2 3.4h.6V101.8c0 2.9-4.4 5.3-9.8 5.3s-9.8-2.4-9.8-5.3v-1.9z" class="st10"/><ellipse cx="298.3" cy="99.8" class="st11" rx="9.8" ry="5.3"/><path d="M298.4 96.3c-3.9 0-7.1 1.5-7.4 3.3v-.2c0-1.9 3.3-3.5 7.4-3.5 4.1 0 7.4 1.6 7.4 3.5v.2c-.3-1.8-3.5-3.3-7.4-3.3z" class="st10"/><path d="M298.4 102.9c3.9 0 7.1-1.5 7.4-3.3v.2c0 1.9-3.3 3.5-7.4 3.5-4.1 0-7.4-1.6-7.4-3.5v-.2c.3 1.8 3.5 3.3 7.4 3.3z" class="st12"/></g><g id="coin3_5_"><path d="M310.9 96.4h-.6c-1.4-2-5-3.4-9.2-3.4s-7.8 1.4-9.2 3.4h-.6V98.3c0 2.9 4.4 5.3 9.8 5.3s9.8-2.4 9.8-5.3v-1.9z" class="st10"/><ellipse cx="301.1" cy="96.2" class="st11" rx="9.8" ry="5.3"/><path d="M301 92.7c3.9 0 7.1 1.5 7.4 3.3v-.2c0-1.9-3.3-3.5-7.4-3.5-4.1 0-7.4 1.6-7.4 3.5v.2c.3-1.8 3.5-3.3 7.4-3.3z" class="st10"/><path d="M301 99.3c-3.9 0-7.1-1.5-7.4-3.3v.2c0 1.9 3.3 3.5 7.4 3.5 4.1 0 7.4-1.6 7.4-3.5V96c-.3 1.9-3.5 3.3-7.4 3.3z" class="st12"/></g><g id="coin2_5_"><path d="M309.1 93.4h-.6c-1.4-2-5-3.4-9.2-3.4s-7.8 1.4-9.2 3.4h-.6V95.3c0 2.9 4.4 5.3 9.8 5.3s9.8-2.4 9.8-5.3v-1.9z" class="st10"/><ellipse cx="299.3" cy="93.2" class="st11" rx="9.8" ry="5.3"/><path d="M299.2 89.8c3.9 0 7.1 1.5 7.4 3.3v-.2c0-1.9-3.3-3.5-7.4-3.5-4.1 0-7.4 1.6-7.4 3.5v.2c.3-1.9 3.5-3.3 7.4-3.3z" class="st10"/><path d="M299.2 96.4c-3.9 0-7.1-1.5-7.4-3.3v.2c0 1.9 3.3 3.5 7.4 3.5 4.1 0 7.4-1.6 7.4-3.5v-.2c-.3 1.8-3.5 3.3-7.4 3.3z" class="st12"/></g><g id="coin1_1_"><path d="M312.1 89.3h-.6c-1.4-2-5-3.4-9.2-3.4s-7.8 1.4-9.2 3.4h-.6V91.2c0 2.9 4.4 5.3 9.8 5.3s9.8-2.4 9.8-5.3v-1.9z" class="st10"/><ellipse cx="302.3" cy="89.1" class="st11" rx="9.8" ry="5.3"/><path d="M302.2 85.7c3.9 0 7.1 1.5 7.4 3.3v-.2c0-1.9-3.3-3.5-7.4-3.5-4.1 0-7.4 1.6-7.4 3.5v.2c.3-1.9 3.5-3.3 7.4-3.3z" class="st10"/><path d="M302.2 92.2c-3.9 0-7.1-1.5-7.4-3.3v.2c0 1.9 3.3 3.5 7.4 3.5 4.1 0 7.4-1.6 7.4-3.5v-.2c-.3 1.9-3.5 3.3-7.4 3.3z" class="st12"/></g></g><g id="coin-pile-6"><g id="coin10_5_"><path d="M331.3 129.6h-.6c-1.4-2-5-3.4-9.2-3.4s-7.8 1.4-9.2 3.4h-.6V131.5c0 2.9 4.4 5.3 9.8 5.3s9.8-2.4 9.8-5.3v-1.9z" class="st10"/><ellipse cx="321.4" cy="129.5" class="st11" rx="9.8" ry="5.3"/><path d="M321.3 126c3.9 0 7.1 1.5 7.4 3.3v-.2c0-1.9-3.3-3.5-7.4-3.5-4.1 0-7.4 1.6-7.4 3.5v.2c.3-1.8 3.5-3.3 7.4-3.3z" class="st10"/><path d="M321.3 132.6c-3.9 0-7.1-1.5-7.4-3.3v.2c0 1.9 3.3 3.5 7.4 3.5s7.4-1.6 7.4-3.5v-.2c-.3 1.8-3.5 3.3-7.4 3.3z" class="st12"/></g><g id="coin9_6_"><path d="M331.8 126.2h-.6c-1.4-2-5-3.4-9.2-3.4s-7.8 1.4-9.2 3.4h-.6V128.1c0 2.9 4.4 5.3 9.8 5.3s9.8-2.4 9.8-5.3v-1.9z" class="st10"/><ellipse cx="321.9" cy="126.1" class="st11" rx="9.8" ry="5.3"/><path d="M321.8 122.6c3.9 0 7.1 1.5 7.4 3.3v-.2c0-1.9-3.3-3.5-7.4-3.5s-7.4 1.6-7.4 3.5v.2c.3-1.8 3.5-3.3 7.4-3.3z" class="st10"/><path d="M321.8 129.2c-3.9 0-7.1-1.5-7.4-3.3v.2c0 1.9 3.3 3.5 7.4 3.5 4.1 0 7.4-1.6 7.4-3.5v-.2c-.3 1.8-3.5 3.3-7.4 3.3z" class="st12"/></g><g id="coin8_6_"><path d="M332.7 121.8h-.7c-1.4-2-5-3.4-9.2-3.4s-7.8 1.4-9.2 3.4h-.6V123.7c0 2.9 4.4 5.3 9.8 5.3s9.8-2.4 9.8-5.3v-1.9z" class="st10"/><ellipse cx="322.8" cy="121.6" class="st11" rx="9.8" ry="5.3"/><path d="M322.7 118.2c3.9 0 7.1 1.5 7.4 3.3v-.2c0-1.9-3.3-3.5-7.4-3.5s-7.4 1.6-7.4 3.5v.2c.3-1.9 3.5-3.3 7.4-3.3z" class="st10"/><path d="M322.7 124.8c-3.9 0-7.1-1.5-7.4-3.3v.2c0 1.9 3.3 3.5 7.4 3.5 4.1 0 7.4-1.6 7.4-3.5v-.2c-.3 1.8-3.5 3.3-7.4 3.3z" class="st12"/></g><g id="coin7_6_"><path d="M330.1 118.7h-.6c-1.4-2-5-3.4-9.2-3.4s-7.8 1.4-9.2 3.4h-.6V120.6c0 2.9 4.4 5.3 9.8 5.3s9.8-2.4 9.8-5.3v-1.9z" class="st10"/><ellipse cx="320.2" cy="118.6" class="st11" rx="9.8" ry="5.3"/><path d="M320.2 115.1c3.9 0 7.1 1.5 7.4 3.3v-.2c0-1.9-3.3-3.5-7.4-3.5s-7.4 1.6-7.4 3.5v.2c.2-1.8 3.4-3.3 7.4-3.3z" class="st10"/><path d="M320.2 121.7c-3.9 0-7.1-1.5-7.4-3.3v.2c0 1.9 3.3 3.5 7.4 3.5 4.1 0 7.4-1.6 7.4-3.5v-.2c-.3 1.9-3.5 3.3-7.4 3.3z" class="st12"/></g><g id="coin6_6_"><path d="M312.4 115h.6c1.4-2 5-3.4 9.2-3.4 4.2 0 7.8 1.4 9.2 3.4h.6V116.9c0 2.9-4.4 5.3-9.8 5.3s-9.8-2.4-9.8-5.3V115z" class="st10"/><ellipse cx="322.2" cy="114.9" class="st11" rx="9.8" ry="5.3"/><path d="M322.3 111.4c-3.9 0-7.1 1.5-7.4 3.3v-.2c0-1.9 3.3-3.5 7.4-3.5 4.1 0 7.4 1.6 7.4 3.5v.2c-.3-1.8-3.5-3.3-7.4-3.3z" class="st10"/><path d="M322.3 118c3.9 0 7.1-1.5 7.4-3.3v.2c0 1.9-3.3 3.5-7.4 3.5-4.1 0-7.4-1.6-7.4-3.5v-.2c.3 1.8 3.5 3.3 7.4 3.3z" class="st12"/></g><g id="coin5_6_"><path d="M310.7 110.8h.6c1.4-2 5-3.4 9.2-3.4s7.8 1.4 9.2 3.4h.6V112.7c0 2.9-4.4 5.3-9.8 5.3s-9.8-2.4-9.8-5.3v-1.9z" class="st10"/><ellipse cx="320.6" cy="110.6" class="st11" rx="9.8" ry="5.3"/><path d="M320.6 107.2c-3.9 0-7.1 1.5-7.4 3.3v-.2c0-1.9 3.3-3.5 7.4-3.5 4.1 0 7.4 1.6 7.4 3.5v.2c-.2-1.9-3.4-3.3-7.4-3.3z" class="st10"/><path d="M320.6 113.8c3.9 0 7.1-1.5 7.4-3.3v.2c0 1.9-3.3 3.5-7.4 3.5-4.1 0-7.4-1.6-7.4-3.5v-.2c.3 1.8 3.5 3.3 7.4 3.3z" class="st12"/></g><g id="coin4_6_"><path d="M312.8 106.7h.6c1.4-2 5-3.4 9.2-3.4s7.8 1.4 9.2 3.4h.6V108.6c0 2.9-4.4 5.3-9.8 5.3s-9.8-2.4-9.8-5.3v-1.9z" class="st10"/><ellipse cx="322.6" cy="106.6" class="st11" rx="9.8" ry="5.3"/><path d="M322.7 103.1c-3.9 0-7.1 1.5-7.4 3.3v-.2c0-1.9 3.3-3.5 7.4-3.5 4.1 0 7.4 1.6 7.4 3.5v.2c-.3-1.8-3.5-3.3-7.4-3.3z" class="st10"/><path d="M322.7 109.7c3.9 0 7.1-1.5 7.4-3.3v.2c0 1.9-3.3 3.5-7.4 3.5s-7.4-1.6-7.4-3.5v-.2c.3 1.8 3.5 3.3 7.4 3.3z" class="st12"/></g><g id="coin3_6_"><path d="M335 103.7h-.6c-1.4-2-5-3.4-9.2-3.4s-7.8 1.4-9.2 3.4h-.6V105.6c0 2.9 4.4 5.3 9.8 5.3s9.8-2.4 9.8-5.3v-1.9z" class="st10"/><ellipse cx="325.1" cy="103.5" class="st11" rx="9.8" ry="5.3"/><path d="M325.1 100c3.9 0 7.1 1.5 7.4 3.3v-.2c0-1.9-3.3-3.5-7.4-3.5-4.1 0-7.4 1.6-7.4 3.5v.2c.2-1.8 3.4-3.3 7.4-3.3z" class="st10"/><path d="M325.1 106.6c-3.9 0-7.1-1.5-7.4-3.3v.2c0 1.9 3.3 3.5 7.4 3.5 4.1 0 7.4-1.6 7.4-3.5v-.2c-.3 1.9-3.5 3.3-7.4 3.3z" class="st12"/></g><g id="coin2_6_"><path d="M331.3 99.9h-.6c-1.4-2-5-3.4-9.2-3.4s-7.8 1.4-9.2 3.4h-.6V101.8c0 2.9 4.4 5.3 9.8 5.3s9.8-2.4 9.8-5.3v-1.9z" class="st10"/><ellipse cx="321.4" cy="99.7" class="st11" rx="9.8" ry="5.3"/><path d="M321.3 96.2c3.9 0 7.1 1.5 7.4 3.3v-.2c0-1.9-3.3-3.5-7.4-3.5-4.1 0-7.4 1.6-7.4 3.5v.2c.3-1.8 3.5-3.3 7.4-3.3z" class="st10"/><path d="M321.3 102.8c-3.9 0-7.1-1.5-7.4-3.3v.2c0 1.9 3.3 3.5 7.4 3.5 4.1 0 7.4-1.6 7.4-3.5v-.2c-.3 1.9-3.5 3.3-7.4 3.3z" class="st12"/></g><g id="coin1"><path d="M334.2 96.1h-.6c-1.4-2-5-3.4-9.2-3.4s-7.8 1.4-9.2 3.4h-.6V98c0 2.9 4.4 5.3 9.8 5.3s9.8-2.4 9.8-5.3v-1.9z" class="st10"/><ellipse cx="324.4" cy="95.9" class="st11" rx="9.8" ry="5.3"/><path d="M324.3 92.5c3.9 0 7.1 1.5 7.4 3.3v-.2c0-1.9-3.3-3.5-7.4-3.5s-7.4 1.6-7.4 3.5v.2c.3-1.9 3.5-3.3 7.4-3.3z" class="st10"/><path d="M324.3 99.1c-3.9 0-7.1-1.5-7.4-3.3v.2c0 1.9 3.3 3.5 7.4 3.5 4.1 0 7.4-1.6 7.4-3.5v-.2c-.3 1.8-3.5 3.3-7.4 3.3z" class="st12"/></g></g></g><g class="lion-circle"><path id="lion" d="M307.5 95.5c0 .1-.1.3-.2.4-.3.6-.8 1.4-1 2.1-.6 1.5-2.9 2.8-3.8 3.5-.8.7-1.6 1.9-1.9 2.4 0 .1-.1.1-.2.1s-.2 0-.2-.1c-.5-.5-1.4-1.8-2-2.3-.6-.5-1.3-.8-2.2-1.5-.9-.8-1.9-2-2.3-2.9-.2-.5-.1-1.1.3-1.1 2-.5 4.1-1.7 5.6-3 .4-.3.9-.4 1.4-.1.9.6 2.1 1.1 3.5 1.4.8.2 1.6.2 2.4.2.5 0 .8.3.6.9zm26.7-14.6c0 18.8-15.2 34-34 34s-34-15.2-34-34 15.2-34 34-34 34 15.2 34 34zm-15.4-22.4l-3.3 2.8.1.1c1.2 1 2 1.9 2 3.3v.2l3.9-3.9c-.8-.9-1.7-1.7-2.7-2.5zm-34.3-2.1l2.1 3.9.2.2c1.4-.8 2.9-1.1 3.3-.6.6.6 1.4 2.5 1.4 2.5s1-1 4.1-1c3.1 0 4.8 2.3 4.8 2.3s.6-1.6 2.8-2.2c.5-.1 1-.2 1.7-.2 1.8 0 3.4.8 4.3 1 .3.1 1.1-.8 1.9-2.1.5-.8 1.7-.5 2.8 0l2-3.8c-1.1-.7-2.1-1.3-3.2-1.8l-4.1 5.7.8-7c-1.1-.4-2.3-.7-3.5-.9l-2.8 7.8-.8-8.2c-.6-.1-1.2-.1-1.8-.1-.7 0-1.3 0-1.9.1l-.8 8.5-2.8-8.1c-1.2.2-2.4.5-3.5.9l.8 6.8-4.1-5.4-.6.3-2.1 1.1c-.6 0-.8.2-1 .3zm27.3 14.2c.2.2.4.1.4-.2.1-1-.3-2.1-.5-2.5-.4-.8-.8-1.4-1.4-1.6-.6-.2-1.5-.3-2.4-.2-1.4.1-2 .2-3.3 1.5-.6.5-1.1.6-1.4 1.1-.2.5.1 1.5.6 1.1.6-.4 2-1.5 4.2-2 3.1-.7 3.9 2.7 3.8 2.8zm-.2.7c-.8-.5-2-1.4-3.3-1.4-1.3.1-3.4.5-3.6 1.3-.3.8-.9 3.8-.3 4 .5.2.8-.5.8-.5s3.7-.8 4.1-1.1c.4-.2 1.4-1.6 1.4-1.6s.6.2.9 0c.3-.3.2-.5 0-.7zm-15-2.3c-1.1-.4-2.5-2.7-2.9-3-1.1-.7-3.8-.7-4.7.5-.9 1.1-.5 2.3.2 2.1 1.1-.3 2.8-1.6 4.4 0 1.1 1.1 1.5 2.2 2.5 2.3 1.4.2 2.7-1 .5-1.9zm-.3 5.6c-.1-.9-.3-2.3-.5-2.8-.2-.8-2.2-1.2-3.4-1.2-1.2-.1-2.4.8-3.2 1.4-.2.1-.2.3.1.5.3.2.9 0 .9 0s.5.5.8.6c.4.2 1.1-.1 2.4.7.5.3.6.8 1 1.1.4.2.8.1.9.2.3.2.4.7.8.5.5-.2.2-.6.2-1zm-17.4-13.4l4 3.6c.3-.9 1.1-2 2.1-2.9l-.2-.2-3.2-3-2.7 2.5zm35.9 20.7l14.5-.9v-.1c0-1.2-.1-2.4-.2-3.6l-14.5 1 13.9-4.6c-.3-1.2-.7-2.4-1.1-3.5l-10.6 2.4 9.1-5.7c-.6-1.1-1.2-2.1-2-3.1l-8.9 4.8c.1.6.3 1.4.5 1.9.1.4.1 1.2.1 2.1 0 .8-.1 1.6-.2 2.2-.2 1.2-2 2.3-3.2 3-1 .6-1.5 1.1-1.7 2.2-.2.5-.2 1.3-.3 1.7-.5-.4-1.1-1.1-1.4-.8-.3.2.8 1.5 1.5 3.8.3.8.5 3 .2 4.4-.3 1.4-.8 2.3-1.7 3.1-.6.6-2.7 1-4 .9h-.3c-1.4-.2-2.1-.7-2.6-1.4-.6-.7-.9-1.9-.8-2.4.1-.8.8-2 2.2-3.2 1.4-1.2 2.4-1.3 2.9-1.7.2-.1.3-.4.4-.7.1-.2.2-.6 0-.7-.2-.1-.3 0-.5.2s-.5.5-.7.5c-.1 0-.1-.1-.1-.1 0-.3-.1-.5-.5-.9-.7-.5-2.7.9-4.3.9-1.6 0-3.1-1-3.9-.6-.4.2-.5.4-.6.6 0 .2.1.2 0 .3-.2.1-.3-.2-.5-.5-.3-.2-.4-.3-.6-.2-.2.1.1.4.2.7.2.4.5.8.6 1 .3.5 1.5 1.4 2.3 1.8.8.5 1.6 1.7 1.7 2.6.2 1.3-.3 1.8-1 2.6-.6.8-2.3 1.7-3.2 2-1 .2-2.2.5-2.6 0-.3-.4-.9-1.4-1.4-2.6-.4-.9-.7-1.9-.8-2.9-.2-1.3.1-2.2.4-3.2.2-.7.5-1.4.8-2 .8-2.3 1.7-3 1.6-3.2-.2-.2-1.4.4-2 1.4-.1-.2-.2-.3-.2-.5-.2-.2-.2-.4-.5-.6-.2-.2-.3-.4-.5-.6-.8-1.1-2.3-2-3.3-3-1.1-1.1-.8-2.7-.8-5.3-.1-1.7.2-2.7.4-3.2l-9.6-4.4-2 3.1 9.3 5.8-10.9-2.5c-.5 1.1-.8 2.3-1.1 3.5l13.2 4.3-13.8-.8c-.1.5-.2 1-.2 1.5l-.1.7V81l14.7.9-14.4 2.8c.2 1.3.4 2.5.7 3.6l14.4-2.8-13.3 6.2c.5 1.1 1 2.3 1.6 3.3l13.2-6.3-11.2 9.3c.7 1 1.5 1.9 2.3 2.8l11.2-9.3-8.5 11.8c.9.8 1.9 1.4 2.9 2.1l6.9-9-3.8 10.7c1.1.5 2.3 1 3.5 1.4l3.8-7.5-.2 8.4c1.2.2 2.4.4 3.7.5l1.7-5 1.7 5c1.2-.1 2.5-.2 3.7-.5l-.6-8.8 4 7.9c1.2-.4 2.3-.8 3.5-1.4l-4.4-11.7 7.5 9.9c1-.7 2-1.4 2.9-2.2l-7.7-10.7 10.3 8.2c.8-.8 1.6-1.8 2.3-2.8l-11.2-9.2 13.2 6.2c.6-1.1 1.1-2.2 1.6-3.3l-13.2-6.1 14.3 2.6c.3-1.2.5-2.4.7-3.6l-14.4-2.5z" class="st1 changeColor"/><mask id="LionMask"><path id="LionMaskSquare" fill="#fff" d="M259.1 39.6h82.2v82.5h-82.2z"/><circle id="LionMaskCircle" cx="300.1" cy="80.9" r="29"/></mask><circle id="WhiteCircle" cx="300.1" cy="80.9" r="34" fill="#fff" class="changeColor"/></g><mask id="PyramidMask"><path id="PyramidMaskSquare" d="M169.5-62.5h261v319h-261z" class="st6"/><ellipse id="PyramidMaskCircle" cx="300" cy="80.9" class="st6" rx="40" ry="40"/></mask><g id="Pyramid" class="pyramid"><clipPath id="triangle2mask"><path id="triangle2maskPath" d="M300 86.1l152.7 60.8V39.2H147.3v107.7z"/></clipPath><path id="triangle2" d="M300 79.2l118.7 47.2H181.3z" class="triangle2 changeColor"/><path id="triangle1" d="M300 97.1l73.9 29.3H226.1z" class="changeColor"/><clipPath id="ballsMask"><path id="ballsMaskPath" d="M300 79.2L452.7 140V32.3H147.3V140z"/></clipPath><g id="balls-group" class="balls-group"><g id="balls" class="balls"><ellipse id="ball8" cx="211.6" cy="104.1" class="changeColor" rx="6" ry="6"/><ellipse id="ball7" cx="227.7" cy="97.7" class="changeColor" rx="6" ry="6"/><ellipse id="ball6" cx="243.8" cy="91.3" class="changeColor" rx="6" ry="6"/><ellipse id="ball5" cx="260" cy="84.9" class="changeColor" rx="6" ry="6"/><ellipse id="ball4" cx="388.9" cy="104.1" class="changeColor" rx="6" ry="6"/><ellipse id="ball3" cx="372.8" cy="97.7" class="changeColor" rx="6" ry="6"/><ellipse id="ball2" cx="356.7" cy="91.3" class="changeColor" rx="6" ry="6"/><ellipse id="ball1" cx="340.5" cy="84.9" class="changeColor" rx="6" ry="6"/></g></g></g></g></g></svg>