<svg class="" version="1.1" xmlns="http://www.w3.org/2000/svg" xmlns:xlink="http://www.w3.org/1999/xlink" x="0" y="0" viewBox="0 0 2000 2000" xml:space="preserve" style="position:absolute;z-index:2"><style type="text/css">@-webkit-keyframes light-blink{0%{stroke-width:0;-webkit-animation-timing-function:cubic-bezier(.5,0,.5,1);animation-timing-function:cubic-bezier(.5,0,.5,1)}to{stroke-width:22px}}@keyframes light-blink{0%{stroke-width:0;-webkit-animation-timing-function:cubic-bezier(.5,0,.5,1);animation-timing-function:cubic-bezier(.5,0,.5,1)}to{stroke-width:22px}}@-webkit-keyframes animate-num-endloop{0%,to{-webkit-transform:scale(1.1);transform:scale(1.1)}50%{-webkit-transform:scale(1);transform:scale(1)}}@keyframes animate-num-endloop{0%,to{-webkit-transform:scale(1.1);transform:scale(1.1)}50%{-webkit-transform:scale(1);transform:scale(1)}}@-webkit-keyframes animate-winner-endloop{0%,to{-webkit-transform:scale(1.1);transform:scale(1.1)}50%{-webkit-transform:scale(1);transform:scale(1)}}@keyframes animate-winner-endloop{0%,to{-webkit-transform:scale(1.1);transform:scale(1.1)}50%{-webkit-transform:scale(1);transform:scale(1)}}.st0{fill:#fcc015}.st2{fill:#fff}:root{--light-delay:.0s;--bulb-speed:.5s}.bulb-light{stroke:#fff;stroke-width:0;stroke-miterlimit:10;-webkit-animation:light-blink .5s infinite;animation:light-blink .5s infinite}.light-row .bulb-parent-1 .bulb .bulb-light{-webkit-animation-delay:.05s;animation-delay:.05s}.light-row .bulb-parent-2 .bulb .bulb-light{-webkit-animation-delay:.1s;animation-delay:.1s}.light-row .bulb-parent-3 .bulb .bulb-light{-webkit-animation-delay:.15s;animation-delay:.15s}.light-row .bulb-parent-4 .bulb .bulb-light{-webkit-animation-delay:.2s;animation-delay:.2s}.light-row .bulb-parent-5 .bulb .bulb-light{-webkit-animation-delay:.25s;animation-delay:.25s}.light-row .bulb-parent-6 .bulb .bulb-light{-webkit-animation-delay:.3s;animation-delay:.3s}.light-row .bulb-parent-7 .bulb .bulb-light{-webkit-animation-delay:.35s;animation-delay:.35s}.light-row .bulb-parent-8 .bulb .bulb-light{-webkit-animation-delay:.4s;animation-delay:.4s}.light-row .bulb-parent-9 .bulb .bulb-light{-webkit-animation-delay:.45s;animation-delay:.45s}.light-row .bulb-parent-10 .bulb .bulb-light{-webkit-animation-delay:.5s;animation-delay:.5s}.light-row .bulb-parent-11 .bulb .bulb-light{-webkit-animation-delay:.55s;animation-delay:.55s}.light-row .bulb-parent-12 .bulb .bulb-light{-webkit-animation-delay:.6s;animation-delay:.6s}.light-row .bulb-parent-13 .bulb .bulb-light{-webkit-animation-delay:.65s;animation-delay:.65s}.numbers,.winner{-webkit-animation-iteration-count:infinite;animation-iteration-count:infinite;-webkit-animation-duration:1s;animation-duration:1s;-webkit-animation-fill-mode:forwards;animation-fill-mode:forwards}.numbers{font-family:&apos;Russo One&apos;,sans-serif;font-size:160px;-webkit-transform-origin:50% 50%;-ms-transform-origin:50% 50%;transform-origin:50% 50%;-webkit-animation:animate-num-endloop;animation:animate-num-endloop}.winner{fill:#fff;-webkit-transform-origin:50% 60%;-ms-transform-origin:50% 60%;transform-origin:50% 60%;-webkit-animation:animate-winner-endloop;animation:animate-winner-endloop}</style><g style="-webkit-mask:url(#text-mask);mask:url(#text-mask)"><path d="M1000,678.9l574.3,228.2c19.9,7.9,36.3,21.2,47.3,38.4c10.3,16.1,15.8,34.9,15.8,54.5 s-5.5,38.5-15.8,54.5c-11,17.2-27.4,30.5-47.3,38.4L1000,1321.1l-574.3-228.2c-19.9-7.9-36.3-21.2-47.3-38.4 c-10.3-16.1-15.8-34.9-15.8-54.5s5.5-38.5,15.8-54.5c11-17.2,27.4-30.5,47.3-38.4L1000,678.9" style="stroke-width:20px;fill:none;stroke:#fcc015;stroke-miterlimit:10"/><path d="M1000,757.5L452.7,974.9c-5.8,2.3-10,5.6-12.8,10c-2.7,4.2-4.2,9.6-4.2,15.1s1.5,10.9,4.2,15.1 c2.8,4.4,7,7.7,12.8,10l547.3,217.4l547.3-217.4c5.8-2.3,10-5.6,12.8-10c2.7-4.2,4.2-9.6,4.2-15.1s-1.5-10.9-4.2-15.1 c-2.8-4.4-7-7.7-12.8-10L1000,757.5L1000,757.5z" style="stroke-width:20px;fill:none;stroke:#da3e26;stroke-miterlimit:10"/><mask id="lights-mask"><path id="lights-mask-white" class="st2" d="M258 258H1742V1742H258z"/><path id="lights-mask-black" d="M1000,668.2L422,897.8c-92.5,36.8-92.5,167.7,0,204.5l578,229.6l578-229.6 c92.5-36.8,92.5-167.7,0-204.5L1000,668.2z"/></mask><g style="-webkit-mask:url(#lights-mask);mask:url(#lights-mask)"><g class="light-row" id="lights-bottom-left"><g id="bulb4-1" class="bulb-parent bulb-parent-1"><g class="bulb"><circle id="light-bg_41_" class="st0 bulb-bg" cx="940.1" cy="1343.1" r="15"/><circle id="light-white_41_" class="st2 bulb-light" cx="940.1" cy="1343.1" r=".1"/></g></g><g id="bulb4-2" class="bulb-parent bulb-parent-2"><g class="bulb"><circle id="light-bg_42_" class="st0 bulb-bg" cx="880.3" cy="1319.3" r="15"/><circle id="light-white_42_" class="st2 bulb-light" cx="880.3" cy="1319.3" r=".1"/></g></g><g id="bulb4-3" class="bulb-parent bulb-parent-3"><g class="bulb"><circle id="light-bg_43_" class="st0 bulb-bg" cx="820.5" cy="1295.6" r="15"/><circle id="light-white_43_" class="st2 bulb-light" cx="820.5" cy="1295.6" r=".1"/></g></g><g id="bulb4-4" class="bulb-parent bulb-parent-4"><g class="bulb"><circle id="light-bg_44_" class="st0 bulb-bg" cx="760.7" cy="1271.9" r="15"/><circle id="light-white_44_" class="st2 bulb-light" cx="760.7" cy="1271.9" r=".1"/></g></g><g id="bulb4-5" class="bulb-parent bulb-parent-5"><g class="bulb"><circle id="light-bg_45_" class="st0 bulb-bg" cx="700.9" cy="1248.1" r="15"/><circle id="light-white_45_" class="st2 bulb-light" cx="700.9" cy="1248.1" r=".1"/></g></g><g id="bulb4-6" class="bulb-parent bulb-parent-6"><g class="bulb"><circle id="light-bg_46_" class="st0 bulb-bg" cx="641.1" cy="1224.4" r="15"/><circle id="light-white_46_" class="st2 bulb-light" cx="641.1" cy="1224.4" r=".1"/></g></g><g id="bulb4-7" class="bulb-parent bulb-parent-7"><g class="bulb"><circle id="light-bg_47_" class="st0 bulb-bg" cx="581.3" cy="1200.7" r="15"/><circle id="light-white_47_" class="st2 bulb-light" cx="581.3" cy="1200.7" r=".1"/></g></g><g id="bulb4-8" class="bulb-parent bulb-parent-8"><g class="bulb"><circle id="light-bg_48_" class="st0 bulb-bg" cx="521.6" cy="1177" r="15"/><circle id="light-white_48_" class="st2 bulb-light" cx="521.6" cy="1177" r=".1"/></g></g><g id="bulb4-9" class="bulb-parent bulb-parent-9"><g class="bulb"><circle id="light-bg_49_" class="st0 bulb-bg" cx="461.8" cy="1153.2" r="15"/><circle id="light-white_49_" class="st2 bulb-light" cx="461.8" cy="1153.2" r=".1"/></g></g><g id="bulb4-10" class="bulb-parent bulb-parent-10"><g class="bulb"><circle id="light-bg_50_" class="st0 bulb-bg" cx="402" cy="1129.5" r="15"/><circle id="light-white_50_" class="st2 bulb-light" cx="402" cy="1129.5" r=".1"/></g></g><g id="bulb4-11" class="bulb-parent bulb-parent-11"><g class="bulb"><circle id="light-bg_51_" class="st0 bulb-bg" cx="351.1" cy="1089.6" r="15"/><circle id="light-white_51_" class="st2 bulb-light" cx="351.1" cy="1089.6" r=".1"/></g></g><g id="bulb4-12" class="bulb-parent bulb-parent-12"><g class="bulb"><circle id="light-bg_52_" class="st0 bulb-bg" cx="323.5" cy="1032" r="15"/><circle id="light-white_52_" class="st2 bulb-light" cx="323.5" cy="1032" r=".1"/></g></g></g><g class="light-row" id="lights-bottom-right"><g id="bulb3-1" class="bulb-parent bulb-parent-1"><g class="bulb"><circle id="light-bg_27_" class="st0 bulb-bg" cx="1676.4" cy="1032" r="15"/><circle id="light-white_27_" class="st2 bulb-light" cx="1676.4" cy="1032" r=".1"/></g></g><g id="bulb3-2" class="bulb-parent bulb-parent-2"><g class="bulb"><circle id="light-bg_28_" class="st0 bulb-bg" cx="1648.8" cy="1089.6" r="15"/><circle id="light-white_28_" class="st2 bulb-light" cx="1648.8" cy="1089.6" r=".1"/></g></g><g id="bulb3-3" class="bulb-parent bulb-parent-3"><g class="bulb"><circle id="light-bg_29_" class="st0 bulb-bg" cx="1597.9" cy="1129.5" r="15"/><circle id="light-white_29_" class="st2 bulb-light" cx="1597.9" cy="1129.5" r=".1"/></g></g><g id="bulb3-4" class="bulb-parent bulb-parent-4"><g class="bulb"><circle id="light-bg_30_" class="st0 bulb-bg" cx="1538.1" cy="1153.2" r="15"/><circle id="light-white_30_" class="st2 bulb-light" cx="1538.1" cy="1153.2" r=".1"/></g></g><g id="bulb3-5" class="bulb-parent bulb-parent-5"><g class="bulb"><circle id="light-bg_31_" class="st0 bulb-bg" cx="1478.3" cy="1177" r="15"/><circle id="light-white_31_" class="st2 bulb-light" cx="1478.3" cy="1177" r=".1"/></g></g><g id="bulb3-6" class="bulb-parent bulb-parent-6"><g class="bulb"><circle id="light-bg_32_" class="st0 bulb-bg" cx="1418.5" cy="1200.7" r="15"/><circle id="light-white_32_" class="st2 bulb-light" cx="1418.5" cy="1200.7" r=".1"/></g></g><g id="bulb3-7" class="bulb-parent bulb-parent-7"><g class="bulb"><circle id="light-bg_33_" class="st0 bulb-bg" cx="1358.8" cy="1224.4" r="15"/><circle id="light-white_33_" class="st2 bulb-light" cx="1358.8" cy="1224.4" r=".1"/></g></g><g id="bulb3-8" class="bulb-parent bulb-parent-8"><g class="bulb"><circle id="light-bg_34_" class="st0 bulb-bg" cx="1299" cy="1248.1" r="15"/><circle id="light-white_34_" class="st2 bulb-light" cx="1299" cy="1248.1" r=".1"/></g></g><g id="bulb3-9" class="bulb-parent bulb-parent-9"><g class="bulb"><circle id="light-bg_35_" class="st0 bulb-bg" cx="1239.2" cy="1271.9" r="15"/><circle id="light-white_35_" class="st2 bulb-light" cx="1239.2" cy="1271.9" r=".1"/></g></g><g id="bulb3-10" class="bulb-parent bulb-parent-10"><g class="bulb"><circle id="light-bg_36_" class="st0 bulb-bg" cx="1179.4" cy="1295.6" r="15"/><circle id="light-white_36_" class="st2 bulb-light" cx="1179.4" cy="1295.6" r=".1"/></g></g><g id="bulb3-11" class="bulb-parent bulb-parent-11"><g class="bulb"><circle id="light-bg_37_" class="st0 bulb-bg" cx="1119.6" cy="1319.3" r="15"/><circle id="light-white_37_" class="st2 bulb-light" cx="1119.6" cy="1319.3" r=".1"/></g></g><g id="bulb3-12" class="bulb-parent bulb-parent-12"><g class="bulb"><circle id="light-bg_38_" class="st0 bulb-bg" cx="1059.8" cy="1343.1" r="15"/><circle id="light-white_38_" class="st2 bulb-light" cx="1059.8" cy="1343.1" r=".1"/></g></g><g id="bulb3-13" class="bulb-parent bulb-parent-13"><g class="bulb"><circle id="light-bg_39_" class="st0 bulb-bg" cx="1000" cy="1366.8" r="15"/><circle id="light-white_39_" class="st2 bulb-light" cx="1000" cy="1366.8" r=".1"/></g></g></g><g class="light-row" id="lights-top-left"><g id="bulb1-1" class="bulb-parent bulb-parent-1"><g class="bulb"><circle id="light-bg_26_" class="st0 bulb-bg" cx="323.5" cy="968" r="15"/><circle id="light-white_26_" class="st2 bulb-light" cx="323.5" cy="968" r=".1"/></g></g><g id="bulb1-2" class="bulb-parent bulb-parent-2"><g class="bulb"><circle id="light-bg_25_" class="st0 bulb-bg" cx="351.1" cy="910.4" r="15"/><circle id="light-white_25_" class="st2 bulb-light" cx="351.1" cy="910.4" r=".1"/></g></g><g id="bulb1-3" class="bulb-parent bulb-parent-3"><g class="bulb"><circle id="light-bg_24_" class="st0 bulb-bg" cx="402" cy="870.5" r="15"/><circle id="light-white_24_" class="st2 bulb-light" cx="402" cy="870.5" r=".1"/></g></g><g id="bulb1-4" class="bulb-parent bulb-parent-4"><g class="bulb"><circle id="light-bg_23_" class="st0 bulb-bg" cx="461.8" cy="846.8" r="15"/><circle id="light-white_23_" class="st2 bulb-light" cx="461.8" cy="846.8" r=".1"/></g></g><g id="bulb1-5" class="bulb-parent bulb-parent-5"><g class="bulb"><circle id="light-bg_22_" class="st0 bulb-bg" cx="521.6" cy="823" r="15"/><circle id="light-white_22_" class="st2 bulb-light" cx="521.6" cy="823" r=".1"/></g></g><g id="bulb1-6" class="bulb-parent bulb-parent-6"><g class="bulb"><circle id="light-bg_21_" class="st0 bulb-bg" cx="581.3" cy="799.3" r="15"/><circle id="light-white_21_" class="st2 bulb-light" cx="581.3" cy="799.3" r=".1"/></g></g><g id="bulb1-7" class="bulb-parent bulb-parent-7"><g class="bulb"><circle id="light-bg_20_" class="st0 bulb-bg" cx="641.1" cy="775.6" r="15"/><circle id="light-white_20_" class="st2 bulb-light" cx="641.1" cy="775.6" r=".1"/></g></g><g id="bulb1-8" class="bulb-parent bulb-parent-8"><g class="bulb"><circle id="light-bg_19_" class="st0 bulb-bg" cx="700.9" cy="751.9" r="15"/><circle id="light-white_19_" class="st2 bulb-light" cx="700.9" cy="751.9" r=".1"/></g></g><g id="bulb1-9" class="bulb-parent bulb-parent-9"><g class="bulb"><circle id="light-bg_18_" class="st0 bulb-bg" cx="760.7" cy="728.1" r="15"/><circle id="light-white_18_" class="st2 bulb-light" cx="760.7" cy="728.1" r=".1"/></g></g><g id="bulb1-10" class="bulb-parent bulb-parent-10"><g class="bulb"><circle id="light-bg_17_" class="st0 bulb-bg" cx="820.5" cy="704.4" r="15"/><circle id="light-white_17_" class="st2 bulb-light" cx="820.5" cy="704.4" r=".1"/></g></g><g id="bulb1-11" class="bulb-parent bulb-parent-11"><g class="bulb"><circle id="light-bg_16_" class="st0 bulb-bg" cx="880.3" cy="680.7" r="15"/><circle id="light-white_16_" class="st2 bulb-light" cx="880.3" cy="680.7" r=".1"/></g></g><g id="bulb1-12" class="bulb-parent bulb-parent-12"><g class="bulb"><circle id="light-bg_15_" class="st0 bulb-bg" cx="940.1" cy="656.9" r="15"/><circle id="light-white_15_" class="st2 bulb-light" cx="940.1" cy="656.9" r=".1"/></g></g><g id="bulb1-13" class="bulb-parent bulb-parent-13"><g class="bulb"><circle id="light-bg_14_" class="st0 bulb-bg" cx="999.9" cy="633.2" r="15"/><circle id="light-white_14_" class="st2 bulb-light" cx="999.9" cy="633.2" r=".1"/></g></g></g><g class="light-row" id="lights-top-right"><g id="bulb2-1" class="bulb-parent bulb-parent-1"><g class="bulb"><circle id="light-bg_13_" class="st0 bulb-bg" cx="1000" cy="633.2" r="15"/><circle id="light-white_13_" class="st2 bulb-light" cx="1000" cy="633.2" r=".1"/></g></g><g id="bulb2-2" class="bulb-parent bulb-parent-2"><g class="bulb"><circle id="light-bg_12_" class="st0 bulb-bg" cx="1059.8" cy="656.9" r="15"/><circle id="light-white_12_" class="st2 bulb-light" cx="1059.8" cy="656.9" r=".1"/></g></g><g id="bulb2-3" class="bulb-parent bulb-parent-3"><g class="bulb"><circle id="light-bg_11_" class="st0 bulb-bg" cx="1119.6" cy="680.7" r="15"/><circle id="light-white_11_" class="st2 bulb-light" cx="1119.6" cy="680.7" r=".1"/></g></g><g id="bulb2-4" class="bulb-parent bulb-parent-4"><g class="bulb"><circle id="light-bg_10_" class="st0 bulb-bg" cx="1179.4" cy="704.4" r="15"/><circle id="light-white_10_" class="st2 bulb-light" cx="1179.4" cy="704.4" r=".1"/></g></g><g id="bulb2-5" class="bulb-parent bulb-parent-5"><g class="bulb"><circle id="light-bg_9_" class="st0 bulb-bg" cx="1239.2" cy="728.1" r="15"/><circle id="light-white_9_" class="st2 bulb-light" cx="1239.2" cy="728.1" r=".1"/></g></g><g id="bulb2-6" class="bulb-parent bulb-parent-6"><g class="bulb"><circle id="light-bg_8_" class="st0 bulb-bg" cx="1299" cy="751.9" r="15"/><circle id="light-white_8_" class="st2 bulb-light" cx="1299" cy="751.9" r=".1"/></g></g><g id="bulb2-7" class="bulb-parent bulb-parent-7"><g class="bulb"><circle id="light-bg_7_" class="st0 bulb-bg" cx="1358.8" cy="775.6" r="15"/><circle id="light-white_7_" class="st2 bulb-light" cx="1358.8" cy="775.6" r=".1"/></g></g><g id="bulb2-8" class="bulb-parent bulb-parent-8"><g class="bulb"><circle id="light-bg_6_" class="st0 bulb-bg" cx="1418.5" cy="799.3" r="15"/><circle id="light-white_6_" class="st2 bulb-light" cx="1418.5" cy="799.3" r=".1"/></g></g><g id="bulb2-9" class="bulb-parent bulb-parent-9"><g class="bulb"><circle id="light-bg_5_" class="st0 bulb-bg" cx="1478.3" cy="823" r="15"/><circle id="light-white_5_" class="st2 bulb-light" cx="1478.3" cy="823" r=".1"/></g></g><g id="bulb2-10" class="bulb-parent bulb-parent-10"><g class="bulb"><circle id="light-bg_3_" class="st0 bulb-bg" cx="1538.1" cy="846.8" r="15"/><circle id="light-white_3_" class="st2 bulb-light" cx="1538.1" cy="846.8" r=".1"/></g></g><g id="bulb2-11" class="bulb-parent bulb-parent-11"><g class="bulb"><circle id="light-bg_2_" class="st0 bulb-bg" cx="1597.9" cy="870.5" r="15"/><circle id="light-white_2_" class="st2 bulb-light" cx="1597.9" cy="870.5" r=".1"/></g></g><g id="bulb2-12" class="bulb-parent bulb-parent-12"><g class="bulb"><circle id="light-bg_1_" class="st0 bulb-bg" cx="1648.8" cy="910.4" r="15"/><circle id="light-white_1_" class="st2 bulb-light" cx="1648.8" cy="910.4" r=".1"/></g></g><g id="bulb2-13" class="bulb-parent bulb-parent-13"><g class="bulb"><circle id="light-bg_54_" class="st0 bulb-bg" cx="1676.4" cy="968" r="15"/><circle id="light-white_54_" class="st2 bulb-light" cx="1676.4" cy="968" r=".1"/></g></g></g></g></g><mask id="text-mask"><path id="text-mask-white" class="st2" d="M258 258H1742V1742H258z"/><path id="numMask" class="numbers" d="M562.8,1047.2c-23.8,2.1-43.5,3.2-59.2,3.2c-10.5,0-18.1-2.5-23-7.4c-4.9-4.9-7.4-12.6-7.4-23v-6.4	H462l1.6-16.8h9.6v-6.4H462l1.6-16.8h9.6v-4.8c0-11.2,2.5-19.3,7.6-24.4c5.1-5.1,13.2-7.6,24.4-7.6h57.6v22.4h-51.2	c-6.4,0-9.6,3.2-9.6,9.6v4.8h38.4v16.8H502v6.4h38.4v16.8H502v6.4c0,2.5,0.7,4.4,2.2,5.8c1.4,1.4,3.3,2.2,5.5,2.2	c2.2,0,4.7,0,7.4-0.1c2.7-0.1,5.4-0.1,8.3-0.2c2.9-0.1,5.8-0.2,8.7-0.3c2.9-0.1,6.7-0.3,11.4-0.6s10.4-0.7,17.4-1.1V1047.2z M628.4,1050.4c-17.8,0-37.5-1.1-59.2-3.2v-21.6c23.6,1.6,41.2,2.4,52.8,2.4c2.5,0,4.4-0.7,5.8-2.2s2.2-3.4,2.2-5.8v-8	c0-6.4-3.2-9.6-9.6-9.6H574v-65.6h76.8v22.4h-48V980h25.6c10.5,0,18.1,2.4,23,7.1c4.9,4.7,7.4,12,7.4,21.7v11.2	c0,10.5-2.5,18.1-7.4,23C646.5,1047.9,638.9,1050.4,628.4,1050.4z M666.8,1024.8h28.8v22.4l-11.2,17.6H670l6.4-16h-9.6V1024.8z M801.2,1018.4c0,11.2-2.5,19.3-7.6,24.4c-5.1,5.1-13.2,7.6-24.4,7.6h-30.4c-11.2,0-19.3-2.5-24.4-7.6c-5.1-5.1-7.6-13.2-7.6-24.4	v-51.2c0-11.2,2.5-19.3,7.6-24.4c5.1-5.1,13.2-7.6,24.4-7.6h30.4c11.2,0,19.3,2.5,24.4,7.6c5.1,5.1,7.6,13.2,7.6,24.4V1018.4z M772.4,967.2c0-6.4-3.2-9.6-9.6-9.6h-17.6c-6.4,0-9.6,3.2-9.6,9.6v51.2c0,6.4,3.2,9.6,9.6,9.6h17.6c6.4,0,9.6-3.2,9.6-9.6V967.2z M897.2,972c0,9.1-3.8,16.9-11.5,23.5c-2.3,2-4.9,4.1-7.7,6.1l-34.4,24.8h53.6v22.4h-86.4v-30.4l57.6-41.6v-8c0-6.4-3.2-9.6-9.6-9.6	H814v-22.4h51.2c11.2,0,19.3,2.5,24.4,7.6c5.1,5.1,7.6,13.2,7.6,24.4V972z M913.2,1025.6c22,1.6,37.4,2.4,46.4,2.4	c2.5,0,4.4-0.7,5.8-2.2s2.2-3.4,2.2-5.8v-14.4c-10.3,2.1-19.4,3.2-27.2,3.2h-11.2c-7.3,0-13.1-2.2-17.4-6.6	c-4.4-4.4-6.6-10.2-6.6-17.4V964c0-9.7,2.5-16.9,7.4-21.7c4.9-4.7,12.6-7.1,23-7.1H966c10.5,0,18.1,2.4,23,7.1	c4.9,4.7,7.4,12,7.4,21.7v56c0,10.5-2.5,18.1-7.4,23c-4.9,4.9-12.6,7.4-23,7.4c-14.6,0-32.2-1.1-52.8-3.2V1025.6z M948.4,986.4	c6.1,0,12.5-0.5,19.2-1.6v-17.6c0-6.4-3.2-9.6-9.6-9.6h-14.4c-6.4,0-9.6,3.2-9.6,9.6v13.6c0,1.6,0.5,2.9,1.6,4	c1.1,1.1,2.4,1.6,4,1.6H948.4z M1007.6,1024.8h28.8v22.4l-11.2,17.6h-14.4l6.4-16h-9.6V1024.8z M1130.8,972	c0,9.1-3.8,16.9-11.5,23.5c-2.3,2-4.9,4.1-7.7,6.1l-34.4,24.8h53.6v22.4h-86.4v-30.4l57.6-41.6v-8c0-6.4-3.2-9.6-9.6-9.6h-44.8	v-22.4h51.2c11.2,0,19.3,2.5,24.4,7.6c5.1,5.1,7.6,13.2,7.6,24.4V972z M1162,1048.8v-87.2l-18.4,6.4l-8-18.4l29.6-12.8h25.6v112	H1162z M1262.8,1050.4c-17.8,0-37.5-1.1-59.2-3.2v-21.6c23.6,1.6,41.2,2.4,52.8,2.4c2.5,0,4.4-0.7,5.8-2.2c1.4-1.4,2.2-3.4,2.2-5.8	v-6.4c0-6.4-3.2-9.6-9.6-9.6h-33.6v-22.4h30.4c6.4,0,9.6-3.2,9.6-9.6v-3.2c0-6.4-3.2-9.6-9.6-9.6h-46.4v-22.4h54.4	c10.5,0,18.1,2.4,23,7.1c4.9,4.7,7.4,12,7.4,21.7c0,6.4-1.5,11.6-4.4,15.6c-2.9,4-6.8,6.8-11.6,8.4c8.6,2.3,14.5,8.1,17.6,17.3	c1.1,3.3,1.6,7.1,1.6,11.5v1.6c0,10.5-2.5,18.1-7.4,23C1280.9,1047.9,1273.2,1050.4,1262.8,1050.4z M1302.8,1024.8h28.8v24h-28.8	V1024.8z M1398.8,1050.4c-17.8,0-37.5-1.1-59.2-3.2v-21.6c23.6,1.6,41.2,2.4,52.8,2.4c2.5,0,4.4-0.7,5.8-2.2	c1.4-1.4,2.2-3.4,2.2-5.8v-8c0-6.4-3.2-9.6-9.6-9.6h-46.4v-65.6h76.8v22.4h-48V980h25.6c10.5,0,18.1,2.4,23,7.1	c4.9,4.7,7.4,12,7.4,21.7v11.2c0,10.5-2.5,18.1-7.4,23C1416.9,1047.9,1409.2,1050.4,1398.8,1050.4z M1533.2,1018.4	c0,11.2-2.5,19.3-7.6,24.4c-5.1,5.1-13.2,7.6-24.4,7.6h-30.4c-11.2,0-19.3-2.5-24.4-7.6c-5.1-5.1-7.6-13.2-7.6-24.4v-51.2	c0-11.2,2.5-19.3,7.6-24.4c5.1-5.1,13.2-7.6,24.4-7.6h30.4c11.2,0,19.3,2.5,24.4,7.6c5.1,5.1,7.6,13.2,7.6,24.4V1018.4z M1504.4,967.2c0-6.4-3.2-9.6-9.6-9.6h-17.6c-6.4,0-9.6,3.2-9.6,9.6v51.2c0,6.4,3.2,9.6,9.6,9.6h17.6c6.4,0,9.6-3.2,9.6-9.6V967.2z" style="fill:#000;stroke:#000;stroke-width:40px;stroke-linejoin:round"/>/&gt;<path class="winner" d="M832.3,1137.5l12,45l10.5-45h19.5l-19,70h-19l-12-43.5l-12,43.5h-19l-19-70h19.5l10.5,45l12-45	H832.3z M912.3,1207.5h-36v-14h9v-42h-9v-14h36v14h-9v42h9V1207.5z M982.3,1207.5h-19l-24-42v42h-18v-70h19l24,42v-42h18V1207.5z M1055.3,1207.5h-19l-24-42v42h-18v-70h19l24,42v-42h18V1207.5z M1122.8,1207.5h-55.5v-70h55.5v14h-37.5v13.5h29.5v14h-29.5v14.5	h37.5V1207.5z M1130.8,1137.5h42c7,0,12.1,1.6,15.2,4.8c3.2,3.2,4.8,8.2,4.8,15.2v9c0,5.5-0.9,9.8-2.8,12.9	c-1.8,3.1-4.8,5.1-8.8,6.1l12.5,22h-19.5l-11.5-21h-14v21h-18V1137.5z M1174.8,1157.5c0-4-2-6-6-6h-20v21h20c4,0,6-2,6-6V1157.5z	M1203.7,1186.5l-2-21v-28h18v28l-2,21H1203.7z M1201.7,1192.5h18v15h-18V1192.5z" style="fill:#000;stroke:#000;stroke-width:40px;stroke-linejoin:round;-webkit-transform-origin:50% 60%;-ms-transform-origin:50% 60%;transform-origin:50% 60%"/><path class="jackpot-letter" d="M534.3,793.6h16v53.9c0,5-1.1,9.3-3.3,13.1c-2.2,3.8-5.3,6.7-9.3,8.8c-4,2.1-8.5,3.1-13.5,3.1 c-8.2,0-14.6-2.1-19.2-6.3c-4.6-4.2-6.9-10.1-6.9-17.8h16.1c0,3.8,0.8,6.6,2.4,8.4c1.6,1.8,4.1,2.7,7.6,2.7c3.1,0,5.5-1.1,7.3-3.2 c1.8-2.1,2.7-5.1,2.7-9V793.6z" style="stroke:#000;fill:#000;stroke-width:20px;stroke-linejoin:round"/><path class="jackpot-letter" d="M694.4,855.4h-28.1l-5.3,16h-17.1l29-77.8h14.9l29.1,77.8h-17.1L694.4,855.4z M670.6,842.4H690 l-9.8-29.1L670.6,842.4z" style="stroke:#000;fill:#000;stroke-width:20px;stroke-linejoin:round"/><path class="jackpot-letter" d="M871.6,845.5c-0.6,8.4-3.7,15-9.3,19.8c-5.6,4.8-12.9,7.2-22.1,7.2c-10,0-17.8-3.4-23.6-10.1 s-8.6-15.9-8.6-27.7V830c0-7.5,1.3-14.1,4-19.8c2.6-5.7,6.4-10.1,11.3-13.1c4.9-3,10.6-4.6,17.1-4.6c9,0,16.2,2.4,21.7,7.2 c5.5,4.8,8.7,11.6,9.5,20.3h-16c-0.4-5-1.8-8.7-4.2-10.9c-2.4-2.3-6.1-3.4-11-3.4c-5.3,0-9.3,1.9-12,5.7c-2.7,3.8-4,9.8-4.1,17.8 v5.9c0,8.4,1.3,14.6,3.8,18.4c2.5,3.9,6.6,5.8,12.1,5.8c5,0,8.7-1.1,11.1-3.4c2.4-2.3,3.8-5.8,4.2-10.5H871.6z" style="stroke:#000;fill:#000;stroke-width:20px;stroke-linejoin:round"/><path class="jackpot-letter" d="M994,840.2l-8.3,9v22.2h-16v-77.8h16v35.3l7.1-9.7l19.8-25.6h19.7l-27.6,34.6l28.4,43.3H1014 L994,840.2z" style="stroke:#000;fill:#000;stroke-width:20px;stroke-linejoin:round"/><path class="jackpot-letter" d="M1142.6,844v27.4h-16v-77.8h30.4c5.8,0,11,1.1,15.4,3.2c4.4,2.1,7.9,5.2,10.2,9.1 c2.4,3.9,3.6,8.4,3.6,13.4c0,7.6-2.6,13.6-7.8,18c-5.2,4.4-12.4,6.6-21.7,6.6H1142.6z M1142.6,831h14.3c4.2,0,7.5-1,9.7-3 c2.2-2,3.3-4.8,3.3-8.6c0-3.8-1.1-6.9-3.4-9.3c-2.2-2.4-5.3-3.6-9.3-3.6h-14.7V831z" style="stroke:#000;fill:#000;stroke-width:20px;stroke-linejoin:round"/><path class="jackpot-letter" d="M1348.7,834.3c0,7.7-1.4,14.4-4.1,20.2c-2.7,5.8-6.6,10.2-11.6,13.4c-5,3.1-10.8,4.7-17.3,4.7 c-6.5,0-12.2-1.6-17.3-4.7c-5.1-3.1-9-7.5-11.8-13.3c-2.8-5.8-4.2-12.4-4.2-19.9v-3.8c0-7.7,1.4-14.4,4.1-20.2 c2.8-5.8,6.7-10.3,11.7-13.4c5-3.1,10.8-4.7,17.3-4.7c6.5,0,12.3,1.6,17.3,4.7c5,3.1,8.9,7.6,11.7,13.4c2.8,5.8,4.1,12.6,4.1,20.2 V834.3z M1332.4,830.8c0-8.2-1.5-14.4-4.4-18.6c-2.9-4.2-7.1-6.4-12.5-6.4c-5.4,0-9.5,2.1-12.5,6.3c-2.9,4.2-4.4,10.3-4.4,18.4v3.8 c0,7.9,1.5,14.1,4.4,18.5c2.9,4.4,7.1,6.6,12.6,6.6c5.4,0,9.5-2.1,12.4-6.3c2.9-4.2,4.3-10.4,4.4-18.5V830.8z" style="stroke:#000;fill:#000;stroke-width:20px;stroke-linejoin:round"/><path class="jackpot-letter" d="M1501.9,806.6H1478v64.9h-16v-64.9h-23.5v-13h63.4V806.6z" style="stroke:#000;fill:#000;stroke-width:20px;stroke-linejoin:round"/><path id="lion-mask-circle" d="M1000,780.9c-66,0-120-54-120-120s54-120,120-120s120,54,120,120S1066,780.9,1000,780.9"/></mask><g id="jackpot"><path id="j" class="st2 jackpot-letter" d="M534.3,793.6h16v53.9c0,5-1.1,9.3-3.3,13.1c-2.2,3.8-5.3,6.7-9.3,8.8c-4,2.1-8.5,3.1-13.5,3.1 c-8.2,0-14.6-2.1-19.2-6.3c-4.6-4.2-6.9-10.1-6.9-17.8h16.1c0,3.8,0.8,6.6,2.4,8.4c1.6,1.8,4.1,2.7,7.6,2.7c3.1,0,5.5-1.1,7.3-3.2 c1.8-2.1,2.7-5.1,2.7-9V793.6z"/><path id="a" class="st2 jackpot-letter" d="M694.4,855.4h-28.1l-5.3,16h-17.1l29-77.8h14.9l29.1,77.8h-17.1L694.4,855.4z M670.6,842.4H690 l-9.8-29.1L670.6,842.4z"/><path id="c" class="st2 jackpot-letter" d="M871.6,845.5c-0.6,8.4-3.7,15-9.3,19.8c-5.6,4.8-12.9,7.2-22.1,7.2c-10,0-17.8-3.4-23.6-10.1 s-8.6-15.9-8.6-27.7V830c0-7.5,1.3-14.1,4-19.8c2.6-5.7,6.4-10.1,11.3-13.1c4.9-3,10.6-4.6,17.1-4.6c9,0,16.2,2.4,21.7,7.2 c5.5,4.8,8.7,11.6,9.5,20.3h-16c-0.4-5-1.8-8.7-4.2-10.9c-2.4-2.3-6.1-3.4-11-3.4c-5.3,0-9.3,1.9-12,5.7c-2.7,3.8-4,9.8-4.1,17.8 v5.9c0,8.4,1.3,14.6,3.8,18.4c2.5,3.9,6.6,5.8,12.1,5.8c5,0,8.7-1.1,11.1-3.4c2.4-2.3,3.8-5.8,4.2-10.5H871.6z"/><path id="k" class="st2 jackpot-letter" d="M994,840.2l-8.3,9v22.2h-16v-77.8h16v35.3l7.1-9.7l19.8-25.6h19.7l-27.6,34.6l28.4,43.3H1014 L994,840.2z"/><path id="p" class="st2 jackpot-letter" d="M1142.6,844v27.4h-16v-77.8h30.4c5.8,0,11,1.1,15.4,3.2c4.4,2.1,7.9,5.2,10.2,9.1 c2.4,3.9,3.6,8.4,3.6,13.4c0,7.6-2.6,13.6-7.8,18c-5.2,4.4-12.4,6.6-21.7,6.6H1142.6z M1142.6,831h14.3c4.2,0,7.5-1,9.7-3 c2.2-2,3.3-4.8,3.3-8.6c0-3.8-1.1-6.9-3.4-9.3c-2.2-2.4-5.3-3.6-9.3-3.6h-14.7V831z"/><path id="o" class="st2 jackpot-letter" d="M1348.7,834.3c0,7.7-1.4,14.4-4.1,20.2c-2.7,5.8-6.6,10.2-11.6,13.4c-5,3.1-10.8,4.7-17.3,4.7 c-6.5,0-12.2-1.6-17.3-4.7c-5.1-3.1-9-7.5-11.8-13.3c-2.8-5.8-4.2-12.4-4.2-19.9v-3.8c0-7.7,1.4-14.4,4.1-20.2 c2.8-5.8,6.7-10.3,11.7-13.4c5-3.1,10.8-4.7,17.3-4.7c6.5,0,12.3,1.6,17.3,4.7c5,3.1,8.9,7.6,11.7,13.4c2.8,5.8,4.1,12.6,4.1,20.2 V834.3z M1332.4,830.8c0-8.2-1.5-14.4-4.4-18.6c-2.9-4.2-7.1-6.4-12.5-6.4c-5.4,0-9.5,2.1-12.5,6.3c-2.9,4.2-4.4,10.3-4.4,18.4v3.8 c0,7.9,1.5,14.1,4.4,18.5c2.9,4.4,7.1,6.6,12.6,6.6c5.4,0,9.5-2.1,12.4-6.3c2.9-4.2,4.3-10.4,4.4-18.5V830.8z"/><path id="t" class="st2 jackpot-letter" d="M1501.9,806.6H1478v64.9h-16v-64.9h-23.5v-13h63.4V806.6z"/></g><g id="lion_logo"><linearGradient id="lion-light-gradient" gradientUnits="userSpaceOnUse" x1="837.644" y1="1093.565" x2="1159.976" y2="1582.566" gradientTransform="matrix(1 0 0 -1 0 2000.724)"><stop offset="0" style="stop-color:#361616"/><stop offset=".501" style="stop-color:#761c15"/><stop offset="1" style="stop-color:#943520"/></linearGradient><linearGradient id="lion-dark-gradient" gradientUnits="userSpaceOnUse" x1="1100.158" y1="1440.029" x2="902.984" y2="1242.855" gradientTransform="matrix(1 0 0 -1 0 2000.724)"><stop offset="0" style="stop-color:#561c0e"/><stop offset=".93" style="stop-color:#361616"/></linearGradient><circle id="lion-light" cx="1000" cy="660.9" r="109.4" style="fill:url(#lion-light-gradient)"/><circle id="lion-dark" cx="1000" cy="660.9" r="101.2" style="fill:url(#lion-dark-gradient)"/>s101.2,45.4,101.2,101.2C1101.2,716.7,1055.8,762.1,1000,762.1&quot;/&gt;<path id="lion-white" class="st2" d="M1002.2,696.4c4.4,2.7,10.9,4.9,17,4.9c1.6,0,2.2,1.6,1.1,3.8c-1.1,1.6-2.2,3.8-2.7,6 c-1.6,4.4-8.2,8.2-10.9,10.4c-2.2,1.6-4.4,5.5-5.5,7.1c0,0.5-0.5,0.5-1.1,0c-1.1-1.6-3.8-5.5-6-7.1c-1.6-1.1-3.8-2.2-6.6-4.4 s-5.5-5.5-6.6-8.2c-0.5-1.1,0-2.7,1.1-3.3c6-1.1,12-4.9,16.4-8.8C999.5,695.9,1001.1,695.3,1002.2,696.4L1002.2,696.4z M1085.4,671.8l-43.2-8.8l42.7-2.7l0,0c0-3.3,0-7.1-0.5-10.4l-42.7,2.7l41-13.7c-0.5-3.8-2.2-7.1-3.3-10.4l-31.2,7.1l26.8-17 c-2.2-3.3-3.8-6.6-6-9.3l-26.3,14.2c0.5,1.6,1.1,3.8,1.6,5.5c1.1,2.2,0.5,9.3,0,12.6c-0.5,3.3-6,6.6-9.3,8.8 c-2.7,1.6-4.4,3.8-4.9,6.6c-0.5,1.6-1.1,3.8-1.1,4.9c-1.6-1.1-3.8-3.3-4.4-2.7c-1.1,0.5,2.2,4.4,4.4,10.9c0.5,2.7,1.6,8.8,0.5,13.1 s-2.2,7.1-4.9,9.3c-2.2,1.6-9.3,3.3-12.6,2.7c-3.8-0.5-6-1.6-7.7-3.8c-1.6-2.2-2.2-5.5-2.2-7.1c0.5-2.2,2.2-5.5,6.6-9.3 c3.8-3.8,6.6-3.8,8.2-4.9c0.5-0.5,1.1-1.1,1.1-2.2c0-1.1,0.5-2.2,0-2.2c-0.5,0-1.1,0-1.6,0.5c-0.5,0.5-1.6,1.6-2.2,1.6l0,0 c0-1.1-0.5-1.6-1.6-2.7c-1.6-1.6-7.7,2.7-12.6,2.7c-4.4,0-8.8-2.7-11.5-1.6c-1.1,0.5-1.6,1.1-1.6,1.6c0,1.1,0,1.1,0,1.1 c-0.5,0-1.1-1.1-1.6-1.6s-1.1-1.1-1.6-0.5c-0.5,0.5,0,1.1,0.5,2.2c0.5,1.1,1.1,2.2,1.6,2.7c1.1,1.6,4.4,4.4,6.6,5.5 c2.2,1.6,4.4,4.9,4.9,7.7c0.5,3.8-0.5,5.5-2.7,7.7s-7.1,5.5-9.8,6c-2.7,0.5-6.6,1.6-7.7,0c-1.6-2.2-6-9.8-6.6-15.9 c-0.5-3.8,0-6.6,1.1-9.3c0.5-1.6,1.6-3.8,2.2-5.5c2.7-6.6,5.5-8.8,4.9-9.3c-0.5-0.5-4.4,1.1-6,3.8c0,0-0.5-0.5-0.5-1.1 c0-0.5-0.5-1.1-1.1-1.6c0-0.5-0.5-1.1-1.1-1.6c-2.2-2.7-6.6-5.5-9.8-8.8c-2.7-3.3-2.2-8.2-2.2-15.9c0-4.9,0.5-8.2,1.1-9.3 l-28.5-13.1l-5.5,9.3l27.4,17l-32.3-7.7c-1.1,3.3-2.2,7.1-3.3,10.4l38.8,12.6l-41-2.2c-0.5,1.6-0.5,2.7-0.5,4.4v2.2 c0,1.1,0,2.7,0,3.8v0.5l43.2,2.7l-42.7,8.2c0.5,3.3,1.1,7.1,2.2,10.4l42.7-8.8l-38.8,18.6c1.6,3.3,3.3,6.6,4.9,9.8l38.8-18.6 l-33.4,27.9c2.2,2.7,4.4,5.5,7.1,8.2l32.8-27.4l-25.2,35c2.7,2.2,5.5,4.4,8.8,6l20.2-26.3l-10.9,31.7c3.3,1.6,7.1,2.7,10.4,3.8 l10.9-21.9l-0.5,24.6c3.3,0.5,7.1,1.1,10.9,1.1l4.9-14.8l4.4,14.2c3.8-0.5,7.1-1.1,10.9-1.6l-1.6-25.7l12,23.5 c3.8-1.1,7.1-2.2,10.4-3.8l-13.1-34.5l22.4,29c3.3-2.2,6-4.4,8.8-6.6l-22.4-30.6l30.6,24.1c2.7-2.7,4.9-5.5,7.1-8.2l-33.4-27.4 l38.8,18.1c1.6-3.3,3.3-6.6,4.4-9.8l-38.8-18.1l42.1,7.7C1084.3,678.9,1084.8,675.6,1085.4,671.8L1085.4,671.8z M944.7,595.2 l-7.7,7.1l11.5,10.9c0.5-2.7,3.3-6,6-8.8l-0.5-0.5L944.7,595.2L944.7,595.2z M988,645c1.1-0.5,0.5-1.6,0.5-3.3 c0-2.7-0.5-6.6-1.1-8.2c-0.5-2.2-6.6-3.3-9.8-3.3c-3.8-0.5-7.1,2.2-9.3,3.8c-0.5,0.5-0.5,1.1,0,1.6c1.1,0.5,2.7,0,2.7,0 s1.1,1.1,2.2,1.6c1.1,0.5,3.3,0,7.1,2.2c1.6,1.1,1.6,2.7,2.7,3.3c1.1,0.5,2.2,0.5,2.7,0.5C986.3,643.9,986.9,645.5,988,645L988,645 z M987.4,631.3c4.9,0.5,8.2-2.7,2.2-4.9c-3.3-1.1-7.1-7.7-8.8-8.8c-3.3-2.2-11.5-2.2-14.2,1.1c-2.7,2.7-1.6,6.6,0.5,6 c3.3-1.1,8.2-4.9,13.1,0C983,627.5,984.7,630.8,987.4,631.3L987.4,631.3z M1033.4,634.6c0.5-0.5,0.5-1.6,0.5-1.6 c-2.2-1.6-6-4.4-9.8-4.4c-3.3,0-9.8,1.6-10.4,3.8c-1.1,2.2-2.7,10.9-1.1,11.5c1.1,0.5,2.2-1.6,2.2-1.6s10.9-2.7,12-3.3 c1.1-0.5,3.8-4.4,3.8-4.4S1032.3,635.1,1033.4,634.6L1033.4,634.6z M1023,622c9.3-1.6,11.5,8.2,10.9,7.7c0.5,0.5,1.1,0.5,1.1-0.5 c0-2.7-1.1-6-1.6-7.1c-1.1-2.7-2.2-4.4-3.8-4.9c-1.6-0.5-4.4-0.5-7.1-0.5c-3.8,0-6,0.5-9.8,4.4c-1.6,1.6-3.3,1.6-3.8,3.3 c-0.5,1.6,0,4.4,1.6,3.3C1012,626.9,1016.4,623.6,1023,622L1023,622z M955.1,587.5c-0.5,0.5-1.1,0.5-1.1,1.1l6,11.5l0.5,0.5l0,0 c4.4-2.2,8.8-2.7,9.8-1.6c1.6,1.6,3.8,7.1,3.8,7.1s2.2-2.7,11.5-2.7s14.2,7.1,14.2,7.1s2.7-7.1,13.1-7.1c5.5,0,9.8,2.2,12.6,2.7 c1.1,0,3.3-2.7,5.5-6.6c1.1-2.2,4.9-1.6,8.2,0l6-11.5c-2.7-2.2-6-3.8-9.3-5.5l-12,17l2.2-20.8c-3.3-1.1-6.6-2.2-10.4-2.7l-8.2,23 l-2.2-24.1c-1.6,0-3.8,0-5.5,0s-3.8,0-5.5,0l-3.3,24.6L983,576c-3.3,0.5-7.1,1.6-10.4,2.7l2.2,20.2l-12-15.9 c-0.5,0.5-1.1,0.5-1.6,1.1L955.1,587.5L955.1,587.5z M1062.9,602.3c-2.7-2.7-5.5-5.5-8.2-7.7l-9.8,8.8h0.5c3.3,3.3,6,5.5,6,9.8v0.5 L1062.9,602.3L1062.9,602.3z M1000,566.7c52,0,94.1,42.1,94.1,94.1c0,52-42.1,94.1-94.1,94.1c-52,0-94.1-42.1-94.1-94.1 C905.9,608.9,948,566.7,1000,566.7L1000,566.7z"/></g><path class="numbers st0" id="num" d="M562.8,1047.2c-23.8,2.1-43.5,3.2-59.2,3.2c-10.5,0-18.1-2.5-23-7.4c-4.9-4.9-7.4-12.6-7.4-23v-6.4	H462l1.6-16.8h9.6v-6.4H462l1.6-16.8h9.6v-4.8c0-11.2,2.5-19.3,7.6-24.4c5.1-5.1,13.2-7.6,24.4-7.6h57.6v22.4h-51.2	c-6.4,0-9.6,3.2-9.6,9.6v4.8h38.4v16.8H502v6.4h38.4v16.8H502v6.4c0,2.5,0.7,4.4,2.2,5.8c1.4,1.4,3.3,2.2,5.5,2.2	c2.2,0,4.7,0,7.4-0.1c2.7-0.1,5.4-0.1,8.3-0.2c2.9-0.1,5.8-0.2,8.7-0.3c2.9-0.1,6.7-0.3,11.4-0.6s10.4-0.7,17.4-1.1V1047.2z M628.4,1050.4c-17.8,0-37.5-1.1-59.2-3.2v-21.6c23.6,1.6,41.2,2.4,52.8,2.4c2.5,0,4.4-0.7,5.8-2.2s2.2-3.4,2.2-5.8v-8	c0-6.4-3.2-9.6-9.6-9.6H574v-65.6h76.8v22.4h-48V980h25.6c10.5,0,18.1,2.4,23,7.1c4.9,4.7,7.4,12,7.4,21.7v11.2	c0,10.5-2.5,18.1-7.4,23C646.5,1047.9,638.9,1050.4,628.4,1050.4z M666.8,1024.8h28.8v22.4l-11.2,17.6H670l6.4-16h-9.6V1024.8z M801.2,1018.4c0,11.2-2.5,19.3-7.6,24.4c-5.1,5.1-13.2,7.6-24.4,7.6h-30.4c-11.2,0-19.3-2.5-24.4-7.6c-5.1-5.1-7.6-13.2-7.6-24.4	v-51.2c0-11.2,2.5-19.3,7.6-24.4c5.1-5.1,13.2-7.6,24.4-7.6h30.4c11.2,0,19.3,2.5,24.4,7.6c5.1,5.1,7.6,13.2,7.6,24.4V1018.4z M772.4,967.2c0-6.4-3.2-9.6-9.6-9.6h-17.6c-6.4,0-9.6,3.2-9.6,9.6v51.2c0,6.4,3.2,9.6,9.6,9.6h17.6c6.4,0,9.6-3.2,9.6-9.6V967.2z M897.2,972c0,9.1-3.8,16.9-11.5,23.5c-2.3,2-4.9,4.1-7.7,6.1l-34.4,24.8h53.6v22.4h-86.4v-30.4l57.6-41.6v-8c0-6.4-3.2-9.6-9.6-9.6	H814v-22.4h51.2c11.2,0,19.3,2.5,24.4,7.6c5.1,5.1,7.6,13.2,7.6,24.4V972z M913.2,1025.6c22,1.6,37.4,2.4,46.4,2.4	c2.5,0,4.4-0.7,5.8-2.2s2.2-3.4,2.2-5.8v-14.4c-10.3,2.1-19.4,3.2-27.2,3.2h-11.2c-7.3,0-13.1-2.2-17.4-6.6	c-4.4-4.4-6.6-10.2-6.6-17.4V964c0-9.7,2.5-16.9,7.4-21.7c4.9-4.7,12.6-7.1,23-7.1H966c10.5,0,18.1,2.4,23,7.1	c4.9,4.7,7.4,12,7.4,21.7v56c0,10.5-2.5,18.1-7.4,23c-4.9,4.9-12.6,7.4-23,7.4c-14.6,0-32.2-1.1-52.8-3.2V1025.6z M948.4,986.4	c6.1,0,12.5-0.5,19.2-1.6v-17.6c0-6.4-3.2-9.6-9.6-9.6h-14.4c-6.4,0-9.6,3.2-9.6,9.6v13.6c0,1.6,0.5,2.9,1.6,4	c1.1,1.1,2.4,1.6,4,1.6H948.4z M1007.6,1024.8h28.8v22.4l-11.2,17.6h-14.4l6.4-16h-9.6V1024.8z M1130.8,972	c0,9.1-3.8,16.9-11.5,23.5c-2.3,2-4.9,4.1-7.7,6.1l-34.4,24.8h53.6v22.4h-86.4v-30.4l57.6-41.6v-8c0-6.4-3.2-9.6-9.6-9.6h-44.8	v-22.4h51.2c11.2,0,19.3,2.5,24.4,7.6c5.1,5.1,7.6,13.2,7.6,24.4V972z M1162,1048.8v-87.2l-18.4,6.4l-8-18.4l29.6-12.8h25.6v112	H1162z M1262.8,1050.4c-17.8,0-37.5-1.1-59.2-3.2v-21.6c23.6,1.6,41.2,2.4,52.8,2.4c2.5,0,4.4-0.7,5.8-2.2c1.4-1.4,2.2-3.4,2.2-5.8	v-6.4c0-6.4-3.2-9.6-9.6-9.6h-33.6v-22.4h30.4c6.4,0,9.6-3.2,9.6-9.6v-3.2c0-6.4-3.2-9.6-9.6-9.6h-46.4v-22.4h54.4	c10.5,0,18.1,2.4,23,7.1c4.9,4.7,7.4,12,7.4,21.7c0,6.4-1.5,11.6-4.4,15.6c-2.9,4-6.8,6.8-11.6,8.4c8.6,2.3,14.5,8.1,17.6,17.3	c1.1,3.3,1.6,7.1,1.6,11.5v1.6c0,10.5-2.5,18.1-7.4,23C1280.9,1047.9,1273.2,1050.4,1262.8,1050.4z M1302.8,1024.8h28.8v24h-28.8	V1024.8z M1398.8,1050.4c-17.8,0-37.5-1.1-59.2-3.2v-21.6c23.6,1.6,41.2,2.4,52.8,2.4c2.5,0,4.4-0.7,5.8-2.2	c1.4-1.4,2.2-3.4,2.2-5.8v-8c0-6.4-3.2-9.6-9.6-9.6h-46.4v-65.6h76.8v22.4h-48V980h25.6c10.5,0,18.1,2.4,23,7.1	c4.9,4.7,7.4,12,7.4,21.7v11.2c0,10.5-2.5,18.1-7.4,23C1416.9,1047.9,1409.2,1050.4,1398.8,1050.4z M1533.2,1018.4	c0,11.2-2.5,19.3-7.6,24.4c-5.1,5.1-13.2,7.6-24.4,7.6h-30.4c-11.2,0-19.3-2.5-24.4-7.6c-5.1-5.1-7.6-13.2-7.6-24.4v-51.2	c0-11.2,2.5-19.3,7.6-24.4c5.1-5.1,13.2-7.6,24.4-7.6h30.4c11.2,0,19.3,2.5,24.4,7.6c5.1,5.1,7.6,13.2,7.6,24.4V1018.4z M1504.4,967.2c0-6.4-3.2-9.6-9.6-9.6h-17.6c-6.4,0-9.6,3.2-9.6,9.6v51.2c0,6.4,3.2,9.6,9.6,9.6h17.6c6.4,0,9.6-3.2,9.6-9.6V967.2z"/><path class="winner" d="M832.3,1137.5l12,45l10.5-45h19.5l-19,70h-19l-12-43.5l-12,43.5h-19l-19-70h19.5l10.5,45l12-45	H832.3z M912.3,1207.5h-36v-14h9v-42h-9v-14h36v14h-9v42h9V1207.5z M982.3,1207.5h-19l-24-42v42h-18v-70h19l24,42v-42h18V1207.5z M1055.3,1207.5h-19l-24-42v42h-18v-70h19l24,42v-42h18V1207.5z M1122.8,1207.5h-55.5v-70h55.5v14h-37.5v13.5h29.5v14h-29.5v14.5	h37.5V1207.5z M1130.8,1137.5h42c7,0,12.1,1.6,15.2,4.8c3.2,3.2,4.8,8.2,4.8,15.2v9c0,5.5-0.9,9.8-2.8,12.9	c-1.8,3.1-4.8,5.1-8.8,6.1l12.5,22h-19.5l-11.5-21h-14v21h-18V1137.5z M1174.8,1157.5c0-4-2-6-6-6h-20v21h20c4,0,6-2,6-6V1157.5z M1203.7,1186.5l-2-21v-28h18v28l-2,21H1203.7z M1201.7,1192.5h18v15h-18V1192.5z"/></svg>