<svg class="jackpot-wheel-animation jackpot-win mega" version="1.1" id="jackpotwheels" xmlns="http://www.w3.org/2000/svg" xmlns:xlink="http://www.w3.org/1999/xlink" 
x="0px" y="0px" viewBox="0 -550 1300 1300" xml:space="preserve">
<style type="text/css">
	
	g, circle, path, ellipse{
		-webkit-transform: translateZ(0);
		        transform: translateZ(0);
	}
	.jwColorWhite{fill:#FFFFFF;}
	.jwColorOrangeDark{fill:#fd5c3c;}
	.jwColorOrangeLight{fill:#f18825;}
	.jwColorRed{fill:#DA3E26;}
	.jwColorOrange{fill:#F58249;}
	.jwColorGold{fill:#FBC926;}
	.jwColorBronze{fill:#B76420;}
	.jwColorSilver{fill:#2481B3;}
	.jwColorDarkGold{fill:#C3922E;}
	.jwColorBrown{fill:#6C301E;}
	.jwColorBlack{fill:#000;}
	.jwColorGradient1{fill:url(#lion-light_2_);}
	.jwColorGradient2{fill:url(#lion-dark_2_);}
	.jwColorLionWhite{fill:#F3F0EC;}
	.jwColorShadow{fill:rgba(0,0,0,.2);}
	.jwColorShadow2{fill:rgba(0,0,0,.5);}
	.jwColorLight{fill:rgba(255,255,255,.2);}
	.jackpot-wheel-animation{
  		-webkit-animation:jackpot-wheels-intro 14s 0s 1 forwards;
  		        animation:jackpot-wheels-intro 14s 0s 1 forwards;
	}

	.jackpot-wheel-animation{
		-webkit-transform-origin:50% 50%;
		    -ms-transform-origin:50% 50%;
		        transform-origin:50% 50%;
		width:100%;
		-webkit-transform:scale(1.3);
		    -ms-transform:scale(1.3);
		        transform:scale(1.3);
		top:130%;
  		-webkit-animation:jackpot-wheels-intro 1s 0s 1 forwards;
  		        animation:jackpot-wheels-intro 1s 0s 1 forwards;
	}
		.jackpot-wheel-animation.landscape{
	  	height:100%;
		-webkit-transform: scale(1.3) rotate(45deg);
		    -ms-transform: scale(1.3) rotate(45deg);
		        transform: scale(1.3) rotate(45deg);
		left: -100%;
		top: 130%;
 		-webkit-animation:jackpot-wheels-intro-landscape 1s 0s 1 forwards;
 		        animation:jackpot-wheels-intro-landscape 1s 0s 1 forwards;
	}
	
	@-webkit-keyframes jackpot-wheels-intro{
		0%{top:150%; -webkit-animation-timing-function: cubic-bezier(.5,0,0,1); animation-timing-function: cubic-bezier(.5,0,0,1);}
		100%{top:80%;}
	}
	
	@keyframes jackpot-wheels-intro{
		0%{top:150%; -webkit-animation-timing-function: cubic-bezier(.5,0,0,1); animation-timing-function: cubic-bezier(.5,0,0,1);}
		100%{top:80%;}
	}
	@-webkit-keyframes jackpot-wheels-intro-landscape{
		0%{top:150%; left:-100%; -webkit-animation-timing-function: cubic-bezier(.5,0,0,1); animation-timing-function: cubic-bezier(.5,0,0,1);}
		100%{top:50%;left:-50% }
	}
	@keyframes jackpot-wheels-intro-landscape{
		0%{top:150%; left:-100%; -webkit-animation-timing-function: cubic-bezier(.5,0,0,1); animation-timing-function: cubic-bezier(.5,0,0,1);}
		100%{top:50%;left:-50% }
	}
	.indicator{
		-webkit-mask:url('#indicatorMask');
		        mask:url('#indicatorMask');
		}
	#indicator-arrow{
		-webkit-mask:url('#indicatorArrowMask');
		        mask:url('#indicatorArrowMask');
		}
	#jwWheels{
		-webkit-mask:url('#jwWheelsMask');
		        mask:url('#jwWheelsMask');
		}


	#jwWheelLights-white .jwColorWhite{
        stroke:#fff;
        stroke-width:0;
        stroke-miterlimit:10;
        -webkit-animation: light-blink 1s infinite;
                animation: light-blink 1s infinite;
      }
	  @-webkit-keyframes light-blink{
        0%{stroke-width: 0px; -webkit-animation-timing-function: cubic-bezier(.5, 0, .5, 1); animation-timing-function: cubic-bezier(.5, 0, .5, 1);opacity:1;}
        56%{stroke-width: 22px; opacity:1;}
        100%{stroke-width: 22px; opacity:0;}
      }
	  @keyframes light-blink{
        0%{stroke-width: 0px; -webkit-animation-timing-function: cubic-bezier(.5, 0, .5, 1); animation-timing-function: cubic-bezier(.5, 0, .5, 1);opacity:1;}
        56%{stroke-width: 22px; opacity:1;}
        100%{stroke-width: 22px; opacity:0;}
      }

	  @-webkit-keyframes rotate-ccw{
        0%{-webkit-transform: translateZ(0) rotate(0deg);transform: translateZ(0) rotate(0deg);  -webkit-animation-timing-function: linear;  animation-timing-function: linear;}
        100%{-webkit-transform: translateZ(0) rotate(-360deg);transform: translateZ(0) rotate(-360deg);}
      }

	  @keyframes rotate-ccw{
        0%{-webkit-transform: translateZ(0) rotate(0deg);transform: translateZ(0) rotate(0deg);  -webkit-animation-timing-function: linear;  animation-timing-function: linear;}
        100%{-webkit-transform: translateZ(0) rotate(-360deg);transform: translateZ(0) rotate(-360deg);}
      }

	#jwWheel1, #jwWheel2, #jwWheelLights{
		-webkit-transform-origin: 50% 50%;
		    -ms-transform-origin: 50% 50%;
		        transform-origin: 50% 50%;
	}

	#jwWheelLights{
		-webkit-animation: rotate-ccw 20s infinite;
		        animation: rotate-ccw 20s infinite;
	}

	.jackpot-win #jwWheel1{
		-webkit-animation: wheel1-win 100s .5s;
		        animation: wheel1-win 100s .5s;
		-webkit-animation-fill-mode: forwards;
		        animation-fill-mode: forwards;
	}
	
	.mini #jwWheel2{
		-webkit-animation: wheel2-mini 100s .5s;
		        animation: wheel2-mini 100s .5s;
		-webkit-animation-fill-mode: forwards;
		        animation-fill-mode: forwards;
	}

	.minor #jwWheel2{
		-webkit-animation: wheel2-minor 100s .5s;
		        animation: wheel2-minor 100s .5s;
		-webkit-animation-fill-mode: forwards;
		        animation-fill-mode: forwards;
	}
	.mega #jwWheel2{
		-webkit-animation: wheel2-mega 100s .5s;
		        animation: wheel2-mega 100s .5s;
		-webkit-animation-fill-mode: forwards;
		        animation-fill-mode: forwards;
	}
	.major #jwWheel2{
		-webkit-animation: wheel2-major 100s .5s;
		        animation: wheel2-major 100s .5s;
		-webkit-animation-fill-mode: forwards;
		        animation-fill-mode: forwards;
	}
	@-webkit-keyframes wheel2-major{
		0%{-webkit-transform: translateZ(0) rotate(0deg);transform: translateZ(0) rotate(0deg);  -webkit-animation-timing-function: cubic-bezier(.3, 0, 0, 1);  animation-timing-function: cubic-bezier(.3, 0, 0, 1);}
		10%{-webkit-transform: translateZ(0) rotate(1787deg);transform: translateZ(0) rotate(1787deg); -webkit-animation-timing-function: cubic-bezier(.5, 0, .7, .8); animation-timing-function: cubic-bezier(.5, 0, .7, .8);}
		10.5%{-webkit-transform: translateZ(0) rotate(1787deg);transform: translateZ(0) rotate(1787deg); -webkit-animation-timing-function: cubic-bezier(.3, 0, .5, 1.5); animation-timing-function: cubic-bezier(.3, 0, .5, 1.5);}
		11%{-webkit-transform: translateZ(0) rotate(1800deg);transform: translateZ(0) rotate(1800deg);}
		100%{-webkit-transform: translateZ(0) rotate(1800deg);transform: translateZ(0) rotate(1800deg);}
	}
	@keyframes wheel2-major{
		0%{-webkit-transform: translateZ(0) rotate(0deg);transform: translateZ(0) rotate(0deg);  -webkit-animation-timing-function: cubic-bezier(.3, 0, 0, 1);  animation-timing-function: cubic-bezier(.3, 0, 0, 1);}
		10%{-webkit-transform: translateZ(0) rotate(1787deg);transform: translateZ(0) rotate(1787deg); -webkit-animation-timing-function: cubic-bezier(.5, 0, .7, .8); animation-timing-function: cubic-bezier(.5, 0, .7, .8);}
		10.5%{-webkit-transform: translateZ(0) rotate(1787deg);transform: translateZ(0) rotate(1787deg); -webkit-animation-timing-function: cubic-bezier(.3, 0, .5, 1.5); animation-timing-function: cubic-bezier(.3, 0, .5, 1.5);}
		11%{-webkit-transform: translateZ(0) rotate(1800deg);transform: translateZ(0) rotate(1800deg);}
		100%{-webkit-transform: translateZ(0) rotate(1800deg);transform: translateZ(0) rotate(1800deg);}
	}
	@-webkit-keyframes wheel2-minor{
		0%{-webkit-transform: translateZ(0) rotate(0deg);transform: translateZ(0) rotate(0deg);  -webkit-animation-timing-function: cubic-bezier(.3, 0, 0, 1);  animation-timing-function: cubic-bezier(.3, 0, 0, 1);}
		10%{-webkit-transform: translateZ(0) rotate(1832deg);transform: translateZ(0) rotate(1832deg); -webkit-animation-timing-function: cubic-bezier(.5, 0, .7, .8); animation-timing-function: cubic-bezier(.5, 0, .7, .8);}
		10.5%{-webkit-transform: translateZ(0) rotate(1832deg);transform: translateZ(0) rotate(1832deg); -webkit-animation-timing-function: cubic-bezier(.3, 0, .5, 1.5); animation-timing-function: cubic-bezier(.3, 0, .5, 1.5);}
		11%{-webkit-transform: translateZ(0) rotate(1822.5deg);transform: translateZ(0) rotate(1822.5deg);}
		100%{-webkit-transform: translateZ(0) rotate(1822.5deg);transform: translateZ(0) rotate(1822.5deg);}
	}
	@keyframes wheel2-minor{
		0%{-webkit-transform: translateZ(0) rotate(0deg);transform: translateZ(0) rotate(0deg);  -webkit-animation-timing-function: cubic-bezier(.3, 0, 0, 1);  animation-timing-function: cubic-bezier(.3, 0, 0, 1);}
		10%{-webkit-transform: translateZ(0) rotate(1832deg);transform: translateZ(0) rotate(1832deg); -webkit-animation-timing-function: cubic-bezier(.5, 0, .7, .8); animation-timing-function: cubic-bezier(.5, 0, .7, .8);}
		10.5%{-webkit-transform: translateZ(0) rotate(1832deg);transform: translateZ(0) rotate(1832deg); -webkit-animation-timing-function: cubic-bezier(.3, 0, .5, 1.5); animation-timing-function: cubic-bezier(.3, 0, .5, 1.5);}
		11%{-webkit-transform: translateZ(0) rotate(1822.5deg);transform: translateZ(0) rotate(1822.5deg);}
		100%{-webkit-transform: translateZ(0) rotate(1822.5deg);transform: translateZ(0) rotate(1822.5deg);}
	}
	@-webkit-keyframes wheel2-mega{
		0%{-webkit-transform: translateZ(0) rotate(0deg);transform: translateZ(0) rotate(0deg);  -webkit-animation-timing-function: cubic-bezier(.3, 0, 0, 1);  animation-timing-function: cubic-bezier(.3, 0, 0, 1);}
		10%{-webkit-transform: translateZ(0) rotate(1835deg);transform: translateZ(0) rotate(1835deg); -webkit-animation-timing-function: cubic-bezier(.5, 0, .7, .8); animation-timing-function: cubic-bezier(.5, 0, .7, .8);}
		10.5%{-webkit-transform: translateZ(0) rotate(1835deg);transform: translateZ(0) rotate(1835deg); -webkit-animation-timing-function: cubic-bezier(.3, 0, .5, 1.5); animation-timing-function: cubic-bezier(.3, 0, .5, 1.5);}
		11%{-webkit-transform: translateZ(0) rotate(1845deg);transform: translateZ(0) rotate(1845deg);}
		100%{-webkit-transform: translateZ(0) rotate(1845deg);transform: translateZ(0) rotate(1845deg);}
	}
	@keyframes wheel2-mega{
		0%{-webkit-transform: translateZ(0) rotate(0deg);transform: translateZ(0) rotate(0deg);  -webkit-animation-timing-function: cubic-bezier(.3, 0, 0, 1);  animation-timing-function: cubic-bezier(.3, 0, 0, 1);}
		10%{-webkit-transform: translateZ(0) rotate(1835deg);transform: translateZ(0) rotate(1835deg); -webkit-animation-timing-function: cubic-bezier(.5, 0, .7, .8); animation-timing-function: cubic-bezier(.5, 0, .7, .8);}
		10.5%{-webkit-transform: translateZ(0) rotate(1835deg);transform: translateZ(0) rotate(1835deg); -webkit-animation-timing-function: cubic-bezier(.3, 0, .5, 1.5); animation-timing-function: cubic-bezier(.3, 0, .5, 1.5);}
		11%{-webkit-transform: translateZ(0) rotate(1845deg);transform: translateZ(0) rotate(1845deg);}
		100%{-webkit-transform: translateZ(0) rotate(1845deg);transform: translateZ(0) rotate(1845deg);}
	}
	@-webkit-keyframes wheel2-mini{
		0%{-webkit-transform: translateZ(0) rotate(0deg);transform: translateZ(0) rotate(0deg);  -webkit-animation-timing-function: cubic-bezier(.3, 0, 0, 1);  animation-timing-function: cubic-bezier(.3, 0, 0, 1);}
		10%{-webkit-transform: translateZ(0) rotate(1900deg);transform: translateZ(0) rotate(1900deg); -webkit-animation-timing-function: cubic-bezier(.5, 0, .7, .8); animation-timing-function: cubic-bezier(.5, 0, .7, .8);}
		10.5%{-webkit-transform: translateZ(0) rotate(1900deg);transform: translateZ(0) rotate(1900deg); -webkit-animation-timing-function: cubic-bezier(.3, 0, .5, 1.5); animation-timing-function: cubic-bezier(.3, 0, .5, 1.5);}
		11%{-webkit-transform: translateZ(0) rotate(1890deg);transform: translateZ(0) rotate(1890deg);}
		100%{-webkit-transform: translateZ(0) rotate(1890deg);transform: translateZ(0) rotate(1890deg);}
	}
	@keyframes wheel2-mini{
		0%{-webkit-transform: translateZ(0) rotate(0deg);transform: translateZ(0) rotate(0deg);  -webkit-animation-timing-function: cubic-bezier(.3, 0, 0, 1);  animation-timing-function: cubic-bezier(.3, 0, 0, 1);}
		10%{-webkit-transform: translateZ(0) rotate(1900deg);transform: translateZ(0) rotate(1900deg); -webkit-animation-timing-function: cubic-bezier(.5, 0, .7, .8); animation-timing-function: cubic-bezier(.5, 0, .7, .8);}
		10.5%{-webkit-transform: translateZ(0) rotate(1900deg);transform: translateZ(0) rotate(1900deg); -webkit-animation-timing-function: cubic-bezier(.3, 0, .5, 1.5); animation-timing-function: cubic-bezier(.3, 0, .5, 1.5);}
		11%{-webkit-transform: translateZ(0) rotate(1890deg);transform: translateZ(0) rotate(1890deg);}
		100%{-webkit-transform: translateZ(0) rotate(1890deg);transform: translateZ(0) rotate(1890deg);}
	}

	@-webkit-keyframes wheel1-win{
		0%{-webkit-transform: translateZ(0) rotate(0deg);transform: translateZ(0) rotate(0deg);-webkit-animation-timing-function: cubic-bezier(.3, 0, 0, 1);animation-timing-function: cubic-bezier(.3, 0, 0, 1)}
		5%{-webkit-transform: translateZ(0) rotate(-726deg);transform: translateZ(0) rotate(-726deg);  -webkit-animation-timing-function: cubic-bezier(.3, 0, .5, .5);  animation-timing-function: cubic-bezier(.3, 0, .5, .5);}
		5.5%{-webkit-transform: translateZ(0) rotate(-726deg);transform: translateZ(0) rotate(-726deg); -webkit-animation-timing-function: cubic-bezier(.3, 0, .5, 1.5); animation-timing-function: cubic-bezier(.3, 0, .5, 1.5);}
		6%{-webkit-transform: translateZ(0) rotate(-720deg);transform: translateZ(0) rotate(-720deg);}
		100%{-webkit-transform: translateZ(0) rotate(-720deg);transform: translateZ(0) rotate(-720deg);}
	}

	@keyframes wheel1-win{
		0%{-webkit-transform: translateZ(0) rotate(0deg);transform: translateZ(0) rotate(0deg);-webkit-animation-timing-function: cubic-bezier(.3, 0, 0, 1);animation-timing-function: cubic-bezier(.3, 0, 0, 1)}
		5%{-webkit-transform: translateZ(0) rotate(-726deg);transform: translateZ(0) rotate(-726deg);  -webkit-animation-timing-function: cubic-bezier(.3, 0, .5, .5);  animation-timing-function: cubic-bezier(.3, 0, .5, .5);}
		5.5%{-webkit-transform: translateZ(0) rotate(-726deg);transform: translateZ(0) rotate(-726deg); -webkit-animation-timing-function: cubic-bezier(.3, 0, .5, 1.5); animation-timing-function: cubic-bezier(.3, 0, .5, 1.5);}
		6%{-webkit-transform: translateZ(0) rotate(-720deg);transform: translateZ(0) rotate(-720deg);}
		100%{-webkit-transform: translateZ(0) rotate(-720deg);transform: translateZ(0) rotate(-720deg);}
	}

	.jwsIndicatorAnimated{
		-webkit-transform-origin:50% 50%;
		    -ms-transform-origin:50% 50%;
		        transform-origin:50% 50%;
		-webkit-animation: indicator-intro 10s;
		        animation: indicator-intro 10s;
		-webkit-animation-timing-function: cubic-bezier(.5, 0, 0, 1);
		        animation-timing-function: cubic-bezier(.5, 0, 0, 1);
		-webkit-animation-fill-mode: forwards;
		        animation-fill-mode: forwards;
	}
	
	@-webkit-keyframes indicator-intro{
		0%{-webkit-transform: translateZ(0) rotate(0deg);transform: translateZ(0) rotate(0deg);}
		5%{-webkit-transform: translateZ(0) rotate(0deg);transform: translateZ(0) rotate(0deg);}
		19%{-webkit-transform: translateZ(0) rotate(180deg);transform: translateZ(0) rotate(180deg);}
		100%{-webkit-transform: translateZ(0) rotate(180deg);transform: translateZ(0) rotate(180deg);}
	}
	
	@keyframes indicator-intro{
		0%{-webkit-transform: translateZ(0) rotate(0deg);transform: translateZ(0) rotate(0deg);}
		5%{-webkit-transform: translateZ(0) rotate(0deg);transform: translateZ(0) rotate(0deg);}
		19%{-webkit-transform: translateZ(0) rotate(180deg);transform: translateZ(0) rotate(180deg);}
		100%{-webkit-transform: translateZ(0) rotate(180deg);transform: translateZ(0) rotate(180deg);}
	}


	.blinking-light, .blinking-dark{
		opacity:0;
	}
	.blinking-light{
		-webkit-animation:blink-light 1s 11.3s;
		        animation:blink-light 1s 11.3s;
		-webkit-animation-iteration-count: infinite;
		        animation-iteration-count: infinite;
	}

	#wheel-2-hilight-dark.blinking-dark{
		-webkit-animation:blink-dark .1s 11.2s;
		        animation:blink-dark .1s 11.2s;
		-webkit-animation-fill-mode: forwards;
		        animation-fill-mode: forwards;
	}
	#wheel-1-hilight-dark.blinking-dark{
		-webkit-animation:blink-dark .1s 6.2s;
		        animation:blink-dark .1s 6.2s;
		-webkit-animation-fill-mode: forwards;
		        animation-fill-mode: forwards;
	}
	
	@-webkit-keyframes blink-light{
		0%{opacity:0;}
		29.9%{opacity:0;}
		30%{opacity:1;}
		70%{opacity:1;}
		70.1%{opacity:1;}
		100%{opacity:0;}
	}
	
	@keyframes blink-light{
		0%{opacity:0;}
		29.9%{opacity:0;}
		30%{opacity:1;}
		70%{opacity:1;}
		70.1%{opacity:1;}
		100%{opacity:0;}
	}
	@-webkit-keyframes blink-dark{
		from{opacity:0;}
		to{opacity:1;}
	}
	@keyframes blink-dark{
		from{opacity:0;}
		to{opacity:1;}
	}

	#indicator-arrow-mask-black{
		-webkit-transform: translateZ(0) scale(1);
		        transform: translateZ(0) scale(1);
		-webkit-transform-origin:50% 5.23%;
		    -ms-transform-origin:50% 5.23%;
		        transform-origin:50% 5.23%;
		-webkit-animation: arrow-mask-show .5s 2s;
		        animation: arrow-mask-show .5s 2s;
		-webkit-animation-timing-function: easeOut;
		        animation-timing-function: easeOut;
		-webkit-animation-fill-mode: forwards;
		        animation-fill-mode: forwards;
	}
	@-webkit-keyframes arrow-mask-show{
		from{-webkit-transform: translateZ(0)  scale(1);transform: translateZ(0)  scale(1);}
		to{-webkit-transform: translateZ(0)  scale(0);transform: translateZ(0)  scale(0);}
	}
	@keyframes arrow-mask-show{
		from{-webkit-transform: translateZ(0)  scale(1);transform: translateZ(0)  scale(1);}
		to{-webkit-transform: translateZ(0)  scale(0);transform: translateZ(0)  scale(0);}
	}

</style>
<mask id="jwWheelsMask" class="jwsIndicatorAnimated">

	<circle id="jwWheel-mask-bg" class="jwColorWhite" cx="650" cy="650" r="842.5"/>

	<path id="jwWheel-mask-ring" d="M650,1016.1c201.9,0,365.5-163.6,365.5-365.5S851.9,285.1,650,285.1S284.5,448.7,284.5,650.6
			S448.1,1016.1,650,1016.1z M650,300.2c193.5,0,350.4,156.9,350.4,350.4S843.5,1001,650,1001S299.6,844.1,299.6,650.6
			S456.5,300.2,650,300.2z"/>
	<path id="jwWheel-mask-indicator" class="jwsIndicatorAnimated" d="M598,634.8l19.9,34.4c3.7,6.4,9.2,11.5,15.8,14.7c5.1,2.5,10.5,3.7,16.2,3.7s11.2-1.3,16.3-3.8
			c6.6-3.3,12.1-8.4,15.8-14.8l19.9-34.4l12.8,64.1L826.2,1259l-14.8,3.1h-0.1h-0.1c-21.8,4.3-43.9,7.8-65.8,10.4
			c-0.3,0-0.5,0.1-0.8,0.1c-8.6,1-17.2,1.8-25.6,2.5l-24.4,2h-89.3l-24.4-2c-30.9-2.5-62-6.9-92.4-12.9l-14.7-2.9L598,634.8z"/>
	<path id="jwWheel-mask-indicator-center" class="jwColorWhite jwsIndicatorAnimated" d="M552.8,1151.6L635.2,737c9.9,1.7,19.7,1.8,29.6,0l82.5,414.6
			c-11.2,1.9-45.1,8.7-99.1,8.7C594,1160.3,565.5,1153.8,552.8,1151.6z"/>
</mask>
<mask id="indicatorMask" class="jwsIndicatorAnimated">
	<path id="indicatorMask_1_" class="jwColorWhite" d="M647.6,1305.6c-39.3-1.3-70.9-33.5-70.9-73.2c0-11.1,2.5-21.6,6.9-31
		c-18.6-2-37-4.7-55.1-8.3L650,582.5L771.4,1193h-0.1c-16.6,3.3-33.2,5.9-49.8,7.8c-0.1,0-0.1,0-0.2,0c-1.7,0.2-3.3,0.4-5,0.5
		c4.4,9.4,6.9,19.9,6.9,31c0,39.6-31.4,71.8-70.6,73.2c37.6-0.1,74.8-2.3,111.3-6.5c0.1,0,0.2,0,0.3,0c26.4-3.1,52.9-7.2,79.5-12.5
		c0.1,0,0.1,0,0.2,0L650,311.6l-194,975.1C518,1299,582.1,1305.5,647.6,1305.6z"/>
	</mask>
<g id="jwWheels">
     
		<g id="jwWheel2">
			<g>
				<path class="jwColorOrangeDark" d="M1153.1,572.7c9,59,7.5,118.8-4,176.6l-140.3-27.9c4.6-23.1,7-46.9,7-71.4c0-24.4-2.4-48.2-7-71.3
					l140.3-27.9h0.1c0.8,4.2,1.6,8.4,2.3,12.6c0.4,2.1,0.7,4.2,1,6.2C1152.8,570.6,1152.9,571.7,1153.1,572.7z"/>
				<path class="jwColorOrangeLight" d="M1149.2,550.8l-140.3,27.9c-9.5-48-28.3-92.6-54.6-131.8l118.9-79.5c0,0,0,0.1,0.1,0.1
					c7.7,11.5,14.9,23.2,21.5,35.1l0.1,0.1c9.4,16.9,17.9,34.4,25.4,52.7C1133.1,486.8,1142.8,518.7,1149.2,550.8z"/>
				<path class="jwColorRed" d="M1008.8,721.4l140.3,27.9c-3.4,17.3-7.8,34.3-12.9,51.1c-0.5,1.7-1.1,3.4-1.6,5.1c-0.6,1.7-1.1,3.4-1.7,5.1
					c-1.3,4-2.7,8-4.2,12c-0.6,1.7-1.2,3.3-1.8,5c-13.8,36.9-31.8,72.2-53.7,105.1l-119-79.5C980.4,813.9,999.2,769.3,1008.8,721.4z
					"/>
				<path class="jwColorRed" d="M1073.2,367.4L1073.2,367.4l-119,79.5c-26.7-39.9-61-74.2-100.9-100.9l79.5-119
					c19.8,13.2,38.7,27.8,56.6,43.8c1.4,1.2,2.8,2.5,4.2,3.8c1,0.9,2,1.9,3.1,2.8c1.3,1.2,2.5,2.4,3.8,3.6
					C1027.3,306.5,1051.8,335.4,1073.2,367.4z"/>
				<path class="jwColorOrangeLight" d="M954.2,853.2l119,79.5c-10.9,16.3-22.7,32-35.4,47c-0.1,0.1-0.1,0.2-0.2,0.2c-1.3,1.5-2.6,3-3.8,4.5
					c-0.1,0.1-0.1,0.1-0.2,0.2c-28.8,33-62.5,62.8-100.7,88.3h-0.1l-79.5-119C893.2,927.3,927.4,893,954.2,853.2z"/>
				<path class="jwColorOrangeLight" d="M932.8,227l-79.5,119c-39.2-26.3-83.8-45.1-131.8-54.6l27.9-140.3c10.3,2,20.5,4.4,30.7,7.1
					c1.2,0.3,2.4,0.6,3.6,1c0.9,0.2,1.8,0.5,2.8,0.8c0.7,0.2,1.3,0.4,2,0.6c1.1,0.3,2.3,0.6,3.4,1c0.8,0.2,1.5,0.4,2.3,0.7
					c1.6,0.5,3.2,1,4.9,1.5C846.3,178.1,891.4,199.5,932.8,227z"/>
				<path class="jwColorOrangeDark" d="M853.2,954l79.5,119c-15.9,10.7-32.3,20.3-48.9,28.9c-0.5,0.3-1,0.5-1.5,0.8c-12.1,6.2-24.6,12-37.4,17.3
					c-31.4,13-63.4,22.6-95.5,29.1l-27.9-140.4C769.4,999.1,814.1,980.2,853.2,954z"/>
				<path class="jwColorOrangeLight" d="M721.4,1008.6l27.9,140.4c-2.7,0.5-5.4,1.1-8.1,1.6c-0.7,0.1-1.4,0.3-2.2,0.4c-1.8,0.3-3.6,0.6-5.3,0.9l0,0
					c-61,10.1-123,8.9-182.8-3l27.9-140.3c23.1,4.6,47,7,71.4,7C674.7,1015.5,698.4,1013.1,721.4,1008.6z"/>
				<path class="jwColorRed" d="M749.4,151.1l-27.9,140.3c-23-4.6-46.9-7-71.2-7c-24.4,0-48.3,2.4-71.4,7L551,151
					c9.4-1.9,18.8-3.5,28.3-4.8c1-0.1,2.1-0.3,3.1-0.4c0.6-0.1,1.2-0.2,1.8-0.2c1.4-0.2,2.7-0.3,4.1-0.5c0.1,0,0.2,0,0.3,0
					c1.7-0.2,3.3-0.4,5-0.6C645.8,138.6,698.3,141,749.4,151.1z"/>
				<path class="jwColorOrangeDark" d="M578.8,1008.5l-27.9,140.3c-19-3.8-37.8-8.6-56.3-14.6c-3.4-1.1-6.8-2.2-10.2-3.4c-0.6-0.2-1.2-0.4-1.8-0.7
					c-1.4-0.5-2.9-1-4.3-1.5c-1.9-0.7-3.8-1.4-5.7-2.1c-36.9-13.8-72.2-31.8-105-53.7l79.5-119C486.3,980.2,531,999,578.8,1008.5z"
					/>
				<path class="jwColorOrangeDark" d="M551,151.1l27.9,140.4c-48,9.5-92.5,28.4-131.8,54.6l-79.5-119c0,0,0,0,0.1,0c11.5-7.7,23.2-14.9,35.1-21.5
					l0.1-0.1c16.9-9.4,34.4-17.9,52.7-25.4C487,167.1,518.8,157.5,551,151.1z"/>
				<path class="jwColorOrangeLight" d="M447.2,953.9l-79.5,119c-18.1-12-35.4-25.3-51.9-39.7c-1.2-1.1-2.4-2.1-3.6-3.2c-1.3-1.2-2.7-2.4-4-3.6
					c-30-27.3-57.2-58.7-80.8-94l0,0l119-79.5C373,892.9,407.2,927.2,447.2,953.9z"/>
				<path class="jwColorWhite" d="M367.5,227.1l79.5,119c-39.8,26.7-74.1,61-100.8,100.9l-119-79.5c15.3-23,32.5-44.8,51.5-65.1
					c0.5-0.5,1-1.1,1.5-1.6c0.7-0.7,1.4-1.5,2.1-2.2c0.8-0.8,1.6-1.6,2.3-2.4c0.3-0.3,0.6-0.6,0.9-0.9
					C310,270.2,337.3,247.3,367.5,227.1z"/>
				<path class="jwColorRed" d="M346.3,853.1l-119,79.5l-0.1,0.1c-10.7-15.9-20.3-32.3-28.9-48.9c-0.3-0.5-0.5-1-0.8-1.5
					c-6.2-12.1-12-24.6-17.3-37.4c-13-31.4-22.6-63.4-29-95.5h0.1l140.4-27.9C301.2,769.3,320,813.9,346.3,853.1z"/>
				<path class="jwColorOrangeDark" d="M227.2,367.5l119,79.5c-26.2,39.2-45.1,83.8-54.6,131.8l-140.3-27.9c2-10.3,4.4-20.5,7.1-30.7
					c0.4-1.5,0.8-2.9,1.2-4.3c0.1-0.5,0.2-1,0.4-1.4c0.3-1.1,0.6-2.2,0.9-3.3c0.2-0.7,0.4-1.5,0.6-2.2c0.3-1,0.6-2.1,0.9-3.1
					c0.4-1.5,0.9-3,1.4-4.5C178.3,453.9,199.7,408.8,227.2,367.5z"/>
				<path class="jwColorOrangeLight" d="M291.8,721.3l-140.4,27.9c-1.5-7.3-2.8-14.6-3.9-22c-0.2-1.6-0.5-3.2-0.7-4.8
					c-8.2-57.4-6.5-115.5,4.7-171.7l140.3,27.9c-4.6,23-7,46.9-7,71.2C284.8,674.4,287.2,698.3,291.8,721.3z"/>
				<g id="types_3_">
					<g id="mega_1_">
						<g>
							<path class="jwColorRed" d="M307.8,359.6c1.2,4.5,1.8,6.6,3.2,11c-1.6,2.1-2.4,3-4,5c-4.5-0.3-6.8-0.4-11.5-0.6
								c4.7,3.6,7,5.3,11.8,8.8c-2.1,2.6-2.9,3.9-4.9,6.6c-8.5-6.2-12.8-9.3-21.3-15.5c2.1-3,3.3-4.4,5.4-7.3
								c6.8,0.3,10.1,0.5,16.8,1c-2.1-6.4-3-9.6-4.8-16.1c2.4-2.8,3.5-4.2,5.9-6.9c7.9,6.9,12,10.4,20,17.2
								c-2.2,2.5-3.2,3.7-5.2,6.2C314.5,365.3,312.3,363.3,307.8,359.6z"/>
							<path class="jwColorRed" d="M345.1,340.4c-7.1,7.1-10.6,10.7-17.3,18.2c-7.8-7-11.8-10.5-19.7-17.5c7.1-8,10.7-11.9,18.3-19.4
								c1.6,1.6,2.3,2.3,3.7,3.7c-5,5-7.5,7.6-12.4,12.9c1.6,1.4,2.3,2.1,3.7,3.4c3.7-4,5.7-6.1,9.6-10c1.6,1.6,2.3,2.3,3.7,3.7
								c-3.8,3.8-5.7,5.9-9.5,9.9c1.6,1.5,2.4,2.3,4,3.7c4.7-5.1,7.1-7.5,11.9-12.3C342.9,338.2,343.7,339,345.1,340.4z"/>
							<path class="jwColorRed" d="M367.3,319.1c-4.9,5.1-9.5,9.6-13.9,13.7c-2.2,2.1-4.1,3.1-5.9,3.3c-1.7,0.1-3.6-0.6-5.3-2.3
								c-3.4-3.4-5-5.2-8.4-8.6c-1.9-1.9-2.6-3.7-2.3-5.7c0.3-1.8,1.6-4,4.1-6.4c5-4.7,7.6-7.1,12.8-11.7c1.4,1.6,2.1,2.4,3.5,3.9
								c-4.6,4-6.9,6-11.3,10.2c-1.5,1.3-1.6,2.5-0.5,3.6c3.3,3.5,4.9,5.2,8.3,8.7c0.4,0.4,0.8,0.6,1.4,0.6c0.5-0.1,1-0.3,1.5-0.8
								c2.5-2.4,4.9-4.6,6.9-6.6c-1.5-1.6-2.2-2.5-3.6-4c-1.8,1.6-2.7,2.4-4.5,4.1c-1.2-1.3-1.8-2-3-3.3c4.3-4,6.4-5.9,10.8-9.7
								C361.7,312.5,363.6,314.7,367.3,319.1z"/>
							<path class="jwColorRed" d="M375.5,313c-2.7,2.3-4,3.3-6.8,5.7c-3.3-11.2-4.7-16.8-7.2-28.1c3-2.4,4.5-3.6,7.5-5.9
								c10.5,5.2,15.6,7.9,25.7,13.6c-2.8,2.1-4.2,3.1-7.1,5.2c-1.8-1.1-2.7-1.6-4.5-2.5c-3.6,2.8-5.4,4.2-9,7.1
								C374.7,309.9,375,310.9,375.5,313z M372.7,302.8c2.3-1.9,3.5-2.8,5.8-4.7c-3.3-1.9-4.9-2.8-8.4-4.6
								C371.1,297.4,371.6,299.2,372.7,302.8z"/>
						</g>
					</g>
					<g id="minor_2_">
						<g>
							<g>
								<path class="jwColorWhite" d="M221.4,517.7c3,3.2,4.5,4.8,7.6,7.8c-0.6,2.1-0.8,3.1-1.5,5.2c-4.2,1.1-6.3,1.6-10.5,2.9
									c5.7,1.5,8.6,2.2,14.3,3.7c-0.7,2.7-1,4-1.7,6.6c-10.3-2.5-15.4-3.7-25.7-6.2c0.7-3,1.1-4.5,1.8-7.5
									c6.2-1.7,9.3-2.5,15.6-4.1c-4.5-4.5-6.8-6.8-11.2-11.5c0.8-3,1.3-4.5,2.3-7.4c10.1,3.2,15.1,4.8,25.2,8
									c-0.8,2.6-1.2,3.9-2,6.5C229.9,520.2,227.1,519.4,221.4,517.7z"/>
								<path class="jwColorWhite" d="M243,499.2c-1.9,5.2-2.8,7.7-4.5,12.9c-2.1-0.6-3-1-5-1.6c0.4-1.3,0.7-2,1.1-3.3c-6-2.1-9-3-15.1-5
									c-0.5,1.3-0.6,2.1-1.1,3.4c-2.1-0.6-3-1-5-1.6c1.8-5.5,2.8-8.3,4.7-13.8c2,0.7,3,1.1,4.9,1.8c-0.5,1.3-0.8,2.1-1.2,3.3
									c5.9,2.1,9,3.2,14.9,5.3c0.4-1.3,0.7-2,1.1-3.3C240,498.1,241.1,498.5,243,499.2z"/>
								<path class="jwColorWhite" d="M252.9,474.6c-1.2,2.6-1.7,4-2.8,6.6c-7.3,0.9-10.9,1.4-18.2,2.6c5.9,2.3,8.8,3.5,14.7,5.8
									c-1,2.5-1.5,3.7-2.4,6.4c-9.9-3.7-14.8-5.5-24.8-9.3c1.1-2.9,1.6-4.3,2.8-7.1c7.4-1.3,11-1.8,18.2-2.8
									c-5.9-2.5-8.8-3.7-14.6-6.2c1.1-2.7,1.7-4,2.8-6.6C238.4,468.2,243.2,470.3,252.9,474.6z"/>
								<path class="jwColorWhite" d="M258.9,445.6c2.3,1.2,3.7,2.6,4.2,4.2c0.5,1.6,0.2,3.6-1.1,6c-1.7,3.4-2.5,5.1-4.2,8.6
									c-1.1,2.4-2.5,3.9-4.1,4.5c-1.6,0.6-3.6,0.4-5.9-0.7c-4.4-2-6.6-3-11-4.9c-2.4-1.1-3.9-2.5-4.5-4.1c-0.6-1.7-0.2-3.7,1-6.4
									c1.7-3.7,2.6-5.4,4.4-9.1c1.3-2.5,2.8-4,4.4-4.7c1.7-0.6,3.7-0.3,5.9,1C252.5,442.2,254.6,443.3,258.9,445.6z M245,446.3
									c-1.3-0.6-2.4-0.3-3.1,1.1c-1.2,2.5-1.8,3.7-3,6.1c-0.7,1.4-0.4,2.5,1,3.1c4.3,2.1,6.6,3,11,5.2c1.3,0.6,2.4,0.3,3-1.1
									c1.1-2.4,1.7-3.5,2.9-5.9c0.7-1.4,0.4-2.3-1-3.1C251.4,449.5,249.2,448.5,245,446.3z"/>
								<path class="jwColorWhite" d="M243.7,433.1c3.2-6,4.9-9,8.3-14.8c1.4-2.4,3-3.9,4.7-4.4c1.7-0.4,3.7,0,5.9,1.3
									c1.1,0.7,1.8,1.1,2.9,1.8c1.8,1.1,3,2.3,3.6,3.5c0.6,1.2,0.7,2.5,0.3,4.1c3.8,0,5.7,0.1,9.5,0.2c-1.6,2.5-2.3,3.8-3.8,6.4
									c-3.6-0.1-5.4-0.1-9.1-0.1c-1.1,1.9-1.6,2.8-2.7,4.7c2.8,1.6,4.2,2.3,6.9,3.8c-1.3,2.3-2,3.5-3.3,6
									C257.7,440.5,253,438,243.7,433.1z M258.9,421.4c-1.3-0.8-2.3-0.5-3.2,0.9c-1.6,2.8-2.4,4.1-4,6.9c2.8,1.6,4.2,2.3,6.9,3.8
									c1.5-2.8,2.3-4.1,3.9-6.9c0.8-1.3,0.6-2.4-0.8-3.2C260.7,422.4,260.2,422.1,258.9,421.4z"/>
							</g>
						</g>
						<g>
							<g>
								<path class="jwColorWhite" d="M519,1078.4c3.2-3,4.8-4.5,7.8-7.6c2.1,0.6,3.1,0.8,5.2,1.5c1.1,4.2,1.6,6.3,2.9,10.5
									c1.5-5.7,2.2-8.6,3.7-14.3c2.7,0.7,4,1,6.6,1.7c-2.5,10.3-3.7,15.4-6.2,25.7c-3-0.7-4.5-1.1-7.5-1.8
									c-1.7-6.2-2.5-9.3-4.1-15.6c-4.5,4.5-6.8,6.8-11.5,11.2c-3-0.8-4.5-1.3-7.4-2.3c3.2-10.1,4.8-15.1,8-25.2
									c2.6,0.8,3.9,1.2,6.5,2C521.5,1069.9,520.7,1072.8,519,1078.4z"/>
								<path class="jwColorWhite" d="M500.5,1056.7c5.2,1.9,7.7,2.8,12.9,4.5c-0.6,2.1-1,3-1.6,5c-1.3-0.4-2-0.7-3.3-1.1c-2.1,6-3,9-5,15.1
									c1.3,0.5,2.1,0.6,3.4,1.1c-0.6,2.1-1,3-1.6,5c-5.5-1.8-8.3-2.8-13.8-4.7c0.7-2,1.1-3,1.8-4.9c1.3,0.5,2.1,0.8,3.3,1.2
									c2.1-5.9,3.2-9,5.3-14.9c-1.3-0.4-2-0.7-3.3-1.1C499.4,1059.8,499.7,1058.8,500.5,1056.7z"/>
								<path class="jwColorWhite" d="M475.8,1046.9c2.6,1.2,4,1.7,6.6,2.8c0.9,7.3,1.4,10.9,2.6,18.2c2.3-5.9,3.5-8.8,5.8-14.7
									c2.5,1,3.7,1.5,6.4,2.4c-3.7,9.9-5.5,14.8-9.3,24.8c-2.9-1.1-4.3-1.6-7.1-2.8c-1.3-7.4-1.8-11-2.8-18.2
									c-2.5,5.9-3.7,8.8-6.2,14.6c-2.7-1.1-4-1.7-6.6-2.8C469.5,1061.5,471.7,1056.6,475.8,1046.9z"/>
								<path class="jwColorWhite" d="M446.9,1040.9c1.2-2.3,2.6-3.7,4.2-4.2c1.6-0.5,3.6-0.2,6,1.1c3.4,1.7,5.1,2.5,8.6,4.2
									c2.4,1.1,3.9,2.5,4.5,4.1c0.6,1.6,0.4,3.6-0.7,5.9c-2,4.4-3,6.6-4.9,11c-1.1,2.4-2.5,3.9-4.1,4.5c-1.7,0.6-3.7,0.2-6.4-1
									c-3.7-1.7-5.4-2.6-9.1-4.4c-2.5-1.3-4.1-2.7-4.7-4.4c-0.6-1.7-0.3-3.7,1-5.9C443.5,1047.4,444.6,1045.3,446.9,1040.9z
									 M447.6,1054.9c-0.6,1.3-0.3,2.4,1.1,3.1c2.5,1.2,3.7,1.8,6.1,3c1.4,0.7,2.5,0.4,3.1-1c2.1-4.3,3-6.6,5.2-11
									c0.6-1.3,0.3-2.4-1.1-3c-2.4-1.1-3.5-1.7-5.9-2.9c-1.4-0.7-2.3-0.4-3.1,1C450.9,1048.4,449.8,1050.6,447.6,1054.9z"/>
								<path class="jwColorWhite" d="M434.4,1056.1c-6-3.2-9-4.9-14.8-8.3c-2.4-1.4-3.9-3-4.4-4.7c-0.4-1.7,0-3.7,1.3-5.9
									c0.7-1.1,1.1-1.8,1.8-2.9c1.1-1.8,2.3-3,3.5-3.6s2.5-0.7,4.1-0.3c0-3.8,0.1-5.7,0.2-9.5c2.5,1.6,3.8,2.3,6.4,3.8
									c-0.1,3.6-0.1,5.4-0.1,9.1c1.9,1.1,2.8,1.6,4.7,2.7c1.6-2.8,2.3-4.2,3.8-6.9c2.3,1.3,3.5,2,6,3.3
									C441.9,1042.1,439.3,1046.7,434.4,1056.1z M422.7,1040.9c-0.8,1.3-0.5,2.3,0.9,3.2c2.8,1.6,4.1,2.4,6.9,4
									c1.6-2.8,2.3-4.2,3.8-6.9c-2.8-1.5-4.1-2.3-6.9-3.9c-1.3-0.8-2.4-0.6-3.2,0.8C423.8,1039.1,423.4,1039.7,422.7,1040.9z"/>
							</g>
						</g>
						<g>
							<g>
								<g>
									<path class="jwColorWhite" d="M860.9,1045.8c0.1-4.4,0.2-6.6,0.3-10.9c1.9-1.1,2.8-1.6,4.7-2.7c3.7,2.2,5.7,3.3,9.5,5.4
										c-3-5.1-4.5-7.6-7.5-12.7c2.4-1.4,3.5-2.1,5.9-3.5c5.5,9.1,8.3,13.5,13.8,22.6c-2.6,1.6-4,2.4-6.6,4
										c-5.6-3.2-8.3-4.8-13.9-8.1c0,6.4,0,9.6-0.2,16.1c-2.7,1.4-4,2.2-6.8,3.5c-4.9-9.4-7.3-14.1-12.2-23.5
										c2.4-1.3,3.6-1.9,6-3.2C856.8,1038,858.2,1040.6,860.9,1045.8z"/>
									<path class="jwColorWhite" d="M832.6,1043.5c4.9-2.3,7.4-3.5,12.3-5.9c0.9,1.9,1.4,2.8,2.4,4.7c-1.2,0.6-1.8,1-3.1,1.6
										c2.8,5.7,4.2,8.5,7,14.2c1.3-0.6,1.9-0.9,3.2-1.6c0.9,1.9,1.4,2.8,2.4,4.7c-5.2,2.6-7.8,3.9-13,6.4
										c-0.9-1.9-1.3-2.9-2.3-4.8c1.3-0.6,1.9-0.9,3.3-1.6c-2.8-5.7-4.1-8.6-6.9-14.4c-1.3,0.6-1.9,0.9-3.2,1.5
										C834,1046.4,833.5,1045.5,832.6,1043.5z"/>
									<path class="jwColorWhite" d="M808.2,1054c2.7-1,4-1.6,6.6-2.7c5.8,4.5,8.7,6.7,14.7,11c-2.5-5.8-3.8-8.8-6.4-14.6
										c2.5-1.1,3.7-1.6,6.2-2.8c4.4,9.6,6.6,14.4,11,24c-2.8,1.3-4.2,1.9-7,3.2c-6.1-4.2-9.1-6.4-14.9-11c2.4,5.9,3.6,8.8,6,14.6
										c-2.7,1.1-4,1.6-6.8,2.7C814,1068.7,812.1,1063.8,808.2,1054z"/>
									<path class="jwColorWhite" d="M783.6,1070.2c-0.8-2.5-0.8-4.6,0-6.1c0.8-1.5,2.4-2.7,4.9-3.5c3.6-1.2,5.4-1.8,8.9-3.1
										c2.5-0.9,4.5-1,6.1-0.3c1.6,0.7,2.8,2.3,3.7,4.7c1.7,4.5,2.5,6.8,4.2,11.3c0.9,2.5,1.1,4.5,0.3,6.1
										c-0.8,1.6-2.5,2.8-5.2,3.7c-3.8,1.4-5.7,2.1-9.5,3.3c-2.7,0.8-4.8,1-6.4,0.2c-1.6-0.7-2.8-2.3-3.5-4.9
										C785.7,1077.2,784.9,1074.8,783.6,1070.2z M793.9,1079.6c0.5,1.5,1.5,1.9,3,1.4c2.5-0.8,3.9-1.3,6.4-2.2
										c1.5-0.5,2-1.6,1.5-2.9c-1.6-4.6-2.5-6.9-4.1-11.3c-0.6-1.4-1.5-1.9-2.9-1.3c-2.5,0.9-3.7,1.3-6.2,2.1
										c-1.5,0.5-2,1.4-1.5,2.9C791.6,1072.6,792.4,1075,793.9,1079.6z"/>
									<path class="jwColorWhite" d="M785.3,1089.8c-6.5,2-9.8,2.8-16.3,4.6c-2.7,0.7-4.9,0.6-6.4-0.2c-1.6-0.8-2.6-2.6-3.2-5.2
										c-0.4-1.3-0.4-2-0.8-3.3c-0.5-2.1-0.6-3.7-0.1-5c0.4-1.3,1.3-2.3,2.8-3c-2.7-2.7-4-4.2-6.6-6.9c2.9-0.6,4.3-1.1,7.2-1.8
										c2.5,2.6,3.7,3.9,6.3,6.6c2.1-0.6,3.1-0.8,5.2-1.4c-0.9-3-1.3-4.6-2.1-7.6c2.6-0.8,4-1.1,6.6-1.9
										C780.7,1074.6,782.3,1079.7,785.3,1089.8z M766.4,1087.3c0.4,1.5,1.3,2.1,2.9,1.6c3.1-0.8,4.7-1.3,7.7-2.1
										c-0.9-3-1.3-4.6-2.1-7.6c-3,0.8-4.5,1.3-7.6,2.1c-1.6,0.4-2.1,1.3-1.7,2.8C765.8,1085.3,766,1085.9,766.4,1087.3z"/>
								</g>
							</g>
							<g>
								<g>
									<path class="jwColorWhite" d="M440.1,252.7c-0.1,4.4-0.2,6.6-0.3,10.9c-1.9,1.1-2.8,1.6-4.7,2.7c-3.7-2.2-5.7-3.3-9.5-5.4
										c3,5.1,4.5,7.6,7.5,12.7c-2.4,1.4-3.5,2.1-5.9,3.5c-5.5-9.1-8.3-13.5-13.8-22.6c2.6-1.6,4-2.4,6.6-4
										c5.6,3.2,8.3,4.8,13.9,8.1c0-6.4,0-9.6,0.2-16.1c2.7-1.4,4-2.2,6.8-3.5c4.9,9.4,7.3,14.1,12.2,23.5c-2.4,1.3-3.6,1.9-6,3.2
										C444.4,260.5,442.9,258,440.1,252.7z"/>
									<path class="jwColorWhite" d="M468.5,255c-4.9,2.3-7.4,3.5-12.3,5.9c-0.9-1.9-1.4-2.8-2.4-4.7c1.2-0.6,1.8-1,3.1-1.6
										c-2.8-5.7-4.2-8.5-7-14.2c-1.3,0.6-1.9,0.9-3.2,1.6c-0.9-1.9-1.4-2.8-2.4-4.7c5.2-2.6,7.8-3.9,13-6.4
										c0.9,1.9,1.3,2.9,2.3,4.8c-1.3,0.6-1.9,0.9-3.3,1.6c2.8,5.7,4.1,8.6,6.9,14.4c1.3-0.6,1.9-0.9,3.2-1.5
										C467.2,252.1,467.6,253.1,468.5,255z"/>
									<path class="jwColorWhite" d="M492.9,244.5c-2.7,1-4,1.6-6.6,2.7c-5.8-4.5-8.7-6.7-14.7-11c2.5,5.8,3.8,8.8,6.4,14.6
										c-2.5,1.1-3.7,1.6-6.2,2.8c-4.4-9.6-6.6-14.4-11-24c2.8-1.3,4.2-1.9,7-3.2c6.1,4.2,9.1,6.4,14.9,11
										c-2.4-5.9-3.6-8.8-6-14.6c2.7-1.1,4-1.6,6.8-2.7C487.1,229.8,489.1,234.7,492.9,244.5z"/>
									<path class="jwColorWhite" d="M517.6,228.3c0.8,2.5,0.8,4.6,0,6.1c-0.8,1.5-2.4,2.7-4.9,3.5c-3.6,1.2-5.4,1.8-8.9,3.1
										c-2.5,0.9-4.5,1-6.1,0.3c-1.6-0.7-2.8-2.3-3.7-4.7c-1.7-4.5-2.5-6.8-4.2-11.3c-0.9-2.5-1.1-4.5-0.3-6.1
										c0.8-1.6,2.5-2.8,5.2-3.7c3.8-1.4,5.7-2.1,9.5-3.3c2.7-0.8,4.8-1,6.4-0.2c1.6,0.7,2.8,2.3,3.5,4.9
										C515.5,221.3,516.1,223.7,517.6,228.3z M507.2,218.9c-0.5-1.5-1.5-1.9-3-1.4c-2.5,0.8-3.9,1.3-6.4,2.2
										c-1.5,0.5-2,1.6-1.5,2.9c1.6,4.6,2.5,6.9,4.1,11.3c0.6,1.4,1.5,1.9,2.9,1.3c2.5-0.9,3.7-1.3,6.2-2.1c1.5-0.5,2-1.4,1.5-2.9
										C509.5,225.8,508.7,223.5,507.2,218.9z"/>
									<path class="jwColorWhite" d="M515.7,208.7c6.5-2,9.8-2.8,16.3-4.6c2.7-0.7,4.9-0.6,6.4,0.2c1.6,0.8,2.6,2.6,3.2,5.2
										c0.4,1.3,0.4,2,0.8,3.3c0.5,2.1,0.6,3.7,0.1,5c-0.4,1.3-1.3,2.3-2.8,3c2.7,2.7,4,4.2,6.6,6.9c-2.9,0.6-4.3,1.1-7.2,1.8
										c-2.5-2.6-3.7-3.9-6.3-6.6c-2.1,0.6-3.1,0.8-5.2,1.4c0.9,3,1.3,4.6,2.1,7.6c-2.6,0.8-4,1.1-6.6,1.9
										C520.3,223.9,518.7,218.8,515.7,208.7z M534.7,211.2c-0.4-1.5-1.3-2.1-2.9-1.6c-3.1,0.8-4.7,1.3-7.7,2.1
										c0.9,3,1.3,4.6,2.1,7.6c3-0.8,4.5-1.3,7.6-2.1c1.6-0.4,2.1-1.3,1.7-2.8C535.3,213.1,535.1,212.5,534.7,211.2z"/>
								</g>
							</g>
						</g>
						<g>
							<g>
								<path class="jwColorWhite" d="M1097.4,606.6c-4-1.8-5.9-2.7-10-4.5c-0.3-2.1-0.4-3.2-0.6-5.3c3.5-2.6,5.2-4,8.6-6.6
									c-5.8,0.8-8.8,1.3-14.6,2.1c-0.4-2.7-0.6-4.1-1-6.8c10.5-1.7,15.6-2.5,26.1-4.2c0.5,3,0.7,4.5,1.1,7.6
									c-5.1,4-7.6,5.9-12.8,9.7c5.9,2.4,8.9,3.7,14.8,6.3c0.4,3,0.5,4.6,0.7,7.6c-10.5,0.9-15.8,1.3-26.3,2.3
									c-0.2-2.8-0.4-4-0.6-6.9C1088.6,607.5,1091.6,607.2,1097.4,606.6z"/>
								<path class="jwColorWhite" d="M1084.5,632c-0.2-5.4-0.4-8.2-0.8-13.6c2.1-0.1,3.2-0.2,5.2-0.4c0.1,1.4,0.1,2.1,0.2,3.5
									c6.4-0.4,9.5-0.6,15.8-1.1c-0.1-1.4-0.1-2.1-0.3-3.5c2.1-0.1,3.2-0.2,5.2-0.4c0.4,5.8,0.6,8.7,0.9,14.5
									c-2.1,0.1-3.1,0.1-5.3,0.2c-0.1-1.5-0.1-2.2-0.2-3.6c-6.3,0.4-9.5,0.5-15.8,0.8c0.1,1.3,0.1,2.1,0.2,3.5
									C1087.6,631.8,1086.6,631.8,1084.5,632z"/>
								<path class="jwColorWhite" d="M1084.8,658.5c0.1-2.9,0.1-4.3,0.1-7.2c6.4-3.7,9.5-5.5,15.8-9.4c-6.4,0.1-9.5,0.2-15.8,0.3
									c-0.1-2.8-0.1-4.1-0.2-6.9c10.5-0.4,15.8-0.6,26.4-0.9c0.1,3,0.2,4.6,0.2,7.7c-6.3,4-9.5,5.9-15.8,9.6
									c6.4,0,9.5,0.1,15.9,0.1c-0.1,2.9,0,4.4-0.1,7.3C1100.6,658.8,1095.4,658.7,1084.8,658.5z"/>
								<path class="jwColorWhite" d="M1090.3,687.5c-2.6-0.2-4.5-1-5.6-2.3s-1.6-3.3-1.3-5.9c0.3-3.8,0.4-5.7,0.6-9.5
									c0.1-2.7,0.8-4.6,2.1-5.7s3.2-1.8,5.9-1.6c4.8,0.1,7.3,0.2,12.1,0.4c2.6,0.1,4.6,0.8,5.7,2.1c1.1,1.3,1.7,3.4,1.6,6.2
									c-0.2,4-0.3,6.1-0.6,10.1c-0.1,2.8-1,4.8-2.3,5.9c-1.3,1.1-3.3,1.6-5.9,1.4C1097.6,688.2,1095.1,688,1090.3,687.5z
									 M1103,681.5c1.5,0.1,2.3-0.6,2.4-2.3c0.1-2.7,0.3-4.1,0.4-6.8c0.1-1.6-0.6-2.5-2.2-2.5c-4.9-0.2-7.3-0.4-12-0.6
									c-1.5-0.1-2.3,0.6-2.3,2.2c-0.1,2.5-0.2,3.9-0.4,6.5c-0.1,1.6,0.6,2.3,2.1,2.5C1095.7,681,1098.2,681.1,1103,681.5z"/>
								<path class="jwColorWhite" d="M1109.2,693.3c-0.7,6.8-1.1,10.1-2,16.8c-0.4,2.8-1.3,4.7-2.7,5.8c-1.3,1.1-3.4,1.4-5.9,1
									c-1.3-0.2-2-0.3-3.3-0.5c-2.1-0.4-3.6-0.9-4.7-1.8c-1.1-0.9-1.6-2.1-1.8-3.7c-3.5,1.4-5.4,2.1-8.9,3.5
									c0.5-2.9,0.7-4.4,1.1-7.4c3.4-1.3,5.1-2,8.4-3.3c0.3-2.1,0.4-3.3,0.7-5.4c-3.2-0.4-4.7-0.5-7.8-0.9c0.3-2.7,0.4-4.1,0.7-6.8
									C1093.3,691.7,1098.6,692.2,1109.2,693.3z M1099.6,710c1.5,0.2,2.3-0.5,2.6-2.1c0.4-3.1,0.6-4.7,1-7.9
									c-3.2-0.4-4.7-0.5-7.8-0.9c-0.4,3.1-0.6,4.7-1,7.8c-0.1,1.6,0.4,2.4,1.9,2.6C1097.5,709.6,1098.2,709.7,1099.6,710z"/>
							</g>
						</g>
					</g>
					<g id="major_1_">
						<g>
							<path class="jwColorWhite" d="M935.2,303.9c-4.2,1.6-6.4,2.4-10.5,4.2c-1.8-1.3-2.6-2.1-4.4-3.4c0.6-4.5,0.9-6.7,1.5-11.1
								c-3.7,4.8-5.6,7.3-9.2,12.2c-2.3-1.7-3.3-2.5-5.7-4.2c6.4-8.8,9.7-13.2,16.1-22.1c2.5,1.8,3.8,2.8,6.4,4.7
								c-0.8,6.6-1.3,9.9-2.3,16.5c6.1-2.5,9.2-3.8,15.5-6.2c2.5,1.9,3.7,3,6.1,5.1c-6.9,8.3-10.6,12.4-17.6,20.9
								c-2.2-1.8-3.3-2.8-5.4-4.5C929.4,311,931.3,308.7,935.2,303.9z"/>
							<path class="jwColorWhite" d="M938.3,326.5c-2.3-2.1-3.5-3-5.7-5c8.4-4.7,17.3-9.3,26-13.5c2.5,2.2,3.7,3.3,6.2,5.5
								c-3.5,9.1-7.1,18.2-11,27.1c-2.2-2.1-3.3-3.2-5.5-5.2c0.8-1.9,1.3-2.8,2.1-4.7c-2.8-2.7-4.4-4.1-7.4-6.6
								C941.1,324.9,940,325.4,938.3,326.5z M947.6,321.4c1.9,1.8,2.9,2.6,4.8,4.2c1.6-3.5,2.3-5.4,3.8-8.9
								C952.7,318.6,950.9,319.5,947.6,321.4z"/>
							<path class="jwColorWhite" d="M964.2,349.3c-1.7-0.1-3.4-1-5.2-2.8c-1.7-1.7-3.6-3.7-5.3-5.9c1.5-1.5,2.2-2.2,3.6-3.7
								c1.4,1.6,2.8,3.1,4.4,4.7c0.4,0.4,0.9,0.6,1.3,0.6c0.4,0,0.9-0.2,1.4-0.6c4.2-4.2,6.3-6.3,10.5-10.5
								c-1.5-1.5-2.3-2.3-3.7-3.7c1.6-1.6,2.3-2.3,3.8-4c3.7,3.5,5.5,5.5,9.1,9.2c-5.9,5.7-8.7,8.4-14.6,14.1
								C967.7,348.4,965.9,349.3,964.2,349.3z"/>
							<path class="jwColorWhite" d="M989.8,368.6c-2.1,1.8-4,2.6-5.8,2.4c-1.7-0.1-3.5-1.3-5.3-3.3c-2.5-3-3.8-4.4-6.5-7.4
								c-1.8-2-2.8-3.9-2.7-5.7c0.1-1.8,1.1-3.6,3-5.4c3.6-3.3,5.4-5.2,9.1-8.6c2-1.8,3.9-2.8,5.7-2.7c1.8,0.1,3.7,1.2,5.7,3.4
								c2.8,3.1,4.2,4.6,6.9,7.8c1.9,2.2,2.8,4.2,2.7,5.9c-0.1,1.8-1.2,3.6-3.4,5.4C995.4,363.8,993.5,365.5,989.8,368.6z
								 M994.5,355c1.1-1,1.2-2.2,0.1-3.4c-1.8-2.1-2.8-3.2-4.6-5.2c-1.1-1.2-2.2-1.3-3.5-0.2c-3.7,3.3-5.5,5.1-9.2,8.3
								c-1.1,1-1.2,2.2-0.1,3.4c1.8,2,2.7,3,4.5,5c1.1,1.2,2.2,1.3,3.4,0.3C988.8,359.9,990.7,358.4,994.5,355z"/>
							<path class="jwColorWhite" d="M1007.6,359.2c4.4,5.4,6.6,8.1,10.8,13.8c1.8,2.3,2.5,4.5,2.3,6.2c-0.2,1.8-1.5,3.5-3.7,5.1
								c-1.1,0.8-1.7,1.3-2.8,2.1c-1.7,1.3-3.3,1.9-4.7,2.1c-1.4,0.1-2.7-0.3-4-1.5c-1.6,3.7-2.5,5.4-4,9.1
								c-1.8-2.5-2.8-3.6-4.5-6.1c1.5-3.3,2.3-5.2,3.7-8.6c-1.3-1.8-2.1-2.7-3.5-4.5c-2.6,2.1-3.9,3-6.4,5.2
								c-1.8-2.2-2.6-3.3-4.4-5.5C995,369.5,999.2,366.1,1007.6,359.2z M1012.7,378.3c1.3-1,1.4-2,0.4-3.4c-2-2.7-3-4-5-6.4
								c-2.6,2.1-3.9,3-6.4,5.2c2.1,2.5,3,3.9,4.9,6.4c1,1.3,2.1,1.5,3.3,0.5C1011,379.5,1011.6,379.2,1012.7,378.3z"/>
						</g>
						<g>
							<path class="jwColorWhite" d="M1080.4,781.3c-3.1-3.3-4.7-4.9-7.8-8.1c0.6-2.1,0.9-3.2,1.4-5.4c4.4-1.1,6.6-1.8,10.9-3
								c-5.9-1.5-8.8-2.3-14.7-3.8c0.8-2.8,1-4.1,1.8-6.9c10.6,2.5,15.9,3.9,26.6,6.4c-0.8,3-1.1,4.7-1.9,7.7
								c-6.5,1.8-9.5,2.6-16.1,4.2c4.7,4.7,7.1,7.1,11.6,11.9c-0.9,3-1.3,4.6-2.3,7.6c-10.3-3.3-15.6-5-26-8.3
								c0.8-2.7,1.3-4.1,2.1-6.8C1071.7,778.7,1074.6,779.6,1080.4,781.3z"/>
							<path class="jwColorWhite" d="M1060.7,792.9c1.1-2.9,1.4-4.4,2.5-7.3c7.6,6,15.2,12.4,22.4,18.7c-1.1,3.1-1.6,4.7-2.8,7.8
								c-9.8,0.3-19.5,0.4-29.2,0.2c1.1-2.8,1.7-4.2,2.8-7.1c2,0,3.2,0.1,5.2,0.1c1.4-3.7,2.1-5.6,3.3-9.3
								C1063.2,794.7,1062.4,794.1,1060.7,792.9z M1068.9,799.5c-0.9,2.5-1.3,3.6-2.1,6c3.9,0.1,5.9,0.1,9.8,0.1
								C1073.5,803,1072.1,801.8,1068.9,799.5z"/>
							<path class="jwColorWhite" d="M1049.6,825.5c-0.6-1.6-0.4-3.5,0.6-5.8c1-2.3,2.1-4.7,3.4-7.2c2,0.8,2.9,1.2,4.9,1.9
								c-0.9,1.9-1.8,3.7-2.6,5.9c-0.2,0.5-0.2,1.1-0.1,1.5c0.1,0.4,0.5,0.8,1.1,1.1c5.4,2.2,8.2,3.4,13.7,5.8c0.8-1.9,1.3-3,2-4.9
								c2.1,0.9,3,1.3,5.1,2c-1.8,4.8-3,7.2-5.1,11.9c-7.5-3.3-11.1-4.9-18.6-8.1C1051.6,828.3,1050.2,827.1,1049.6,825.5z"/>
							<path class="jwColorWhite" d="M1041.4,856.5c-2.4-1.3-3.9-2.8-4.5-4.5c-0.5-1.6-0.1-3.8,1.1-6.2c1.8-3.5,2.6-5.2,4.2-8.8
								c1.2-2.5,2.5-4,4.2-4.7c1.6-0.6,3.7-0.4,6.2,0.7c4.5,2.1,6.9,3,11.4,5.2c2.5,1.2,4,2.5,4.7,4.2c0.6,1.7,0.3,4-1,6.5
								c-1.8,3.7-2.7,5.7-4.6,9.4c-1.3,2.6-2.8,4.2-4.5,4.8c-1.7,0.6-3.8,0.3-6.2-1C1048.2,859.9,1045.8,858.8,1041.4,856.5z
								 M1055.9,855.6c1.3,0.6,2.5,0.4,3.2-1.2c1.3-2.5,1.9-3.7,3-6.3c0.7-1.4,0.4-2.5-1.1-3.3c-4.5-2.2-6.9-3.2-11.2-5.3
								c-1.3-0.6-2.4-0.3-3.2,1.2c-1.2,2.5-1.8,3.6-3,6.1c-0.7,1.4-0.4,2.5,1.1,3.2C1049.2,852.3,1051.3,853.5,1055.9,855.6z"/>
							<path class="jwColorWhite" d="M1057.1,869.3c-3.3,6.2-5,9.3-8.6,15.2c-1.6,2.5-3.1,4-4.8,4.5c-1.7,0.4-3.8,0-6.1-1.4
								c-1.1-0.7-1.8-1.1-3-1.8c-1.8-1.1-3-2.3-3.7-3.5c-0.6-1.2-0.8-2.6-0.2-4.3c-4-0.1-5.9-0.1-10-0.2c1.6-2.6,2.3-3.9,4-6.5
								c3.7,0.1,5.7,0.1,9.4,0.2c1.1-2,1.7-3,2.8-4.9c-2.9-1.6-4.2-2.4-7.2-4c1.3-2.5,2.1-3.7,3.5-6.2
								C1042.6,861.6,1047.5,864.2,1057.1,869.3z M1041.4,881.3c1.3,0.8,2.4,0.6,3.3-1c1.7-2.8,2.5-4.2,4-7.1
								c-2.9-1.6-4.2-2.4-7.2-4c-1.6,2.8-2.4,4.2-4,7.1c-0.8,1.3-0.6,2.5,0.8,3.3C1039.6,880.4,1040.1,880.7,1041.4,881.3z"/>
						</g>
						<g>
							<path class="jwColorWhite" d="M254.6,863.3c4.5,0.1,6.7,0.2,11.2,0.2c1.1,2,1.6,2.9,2.8,4.9c-2.3,4-3.4,5.8-5.7,9.8
								c5.2-3.1,7.9-4.7,13.1-7.7c1.5,2.5,2.2,3.6,3.6,6c-9.3,5.8-13.9,8.6-23.3,14.3c-1.6-2.6-2.4-4.1-4.1-6.8
								c3.3-5.9,4.9-8.6,8.4-14.4c-6.5,0-9.9,0-16.6-0.2c-1.5-2.8-2.3-4.2-3.7-6.9c9.7-5,14.6-7.5,24.3-12.5c1.3,2.5,2,3.8,3.3,6.2
								C262.7,859.1,260,860.5,254.6,863.3z"/>
							<path class="jwColorWhite" d="M260.4,841.3c1.3,2.8,2.1,4.2,3.4,6.9c-9.6,1.1-19.5,2-29.1,2.5c-1.4-3-2.1-4.5-3.5-7.5
								c6.6-7.1,13.5-14.1,20.5-20.8c1.2,2.8,1.8,4.2,3,7c-1.4,1.4-2.3,2.1-3.7,3.6c1.6,3.6,2.5,5.4,4.2,8.9
								C257.3,841.6,258.4,841.6,260.4,841.3z M249.8,842.4c-1.1-2.4-1.6-3.5-2.8-5.7c-2.8,2.6-4.2,4.1-6.9,6.8
								C244.1,843.2,246.1,842.9,249.8,842.4z"/>
							<path class="jwColorWhite" d="M245.2,810.4c1.6,0.7,2.8,2.2,3.7,4.5c0.9,2.2,1.8,4.8,2.7,7.5c-2,0.8-2.9,1.2-4.9,2.1
								c-0.7-2-1.5-3.9-2.3-5.9c-0.2-0.5-0.6-0.9-1-1.1c-0.4-0.2-0.9-0.2-1.6,0c-5.4,2.2-8.2,3.4-13.7,5.7c0.8,2,1.3,3,2.1,4.9
								c-2.1,0.8-3,1.3-5,2.2c-2.1-4.7-3-7.2-4.8-12c7.6-3,11.3-4.4,18.9-7.4C241.6,809.7,243.5,809.7,245.2,810.4z"/>
							<path class="jwColorWhite" d="M229,782.7c2.5-0.8,4.7-0.8,6.2,0c1.6,0.8,2.8,2.6,3.6,5.2c1.3,3.7,1.8,5.5,3.2,9.3
								c0.9,2.6,1.1,4.6,0.3,6.2c-0.7,1.7-2.3,2.9-4.9,3.9c-4.6,1.8-6.9,2.7-11.7,4.4c-2.6,0.9-4.6,1.1-6.2,0.3
								c-1.6-0.8-3-2.5-3.9-5.3c-1.5-3.9-2.1-5.9-3.4-9.9c-0.9-2.8-1.1-5-0.2-6.6c0.8-1.6,2.5-2.9,5.1-3.7
								C221.9,784.9,224.3,784.2,229,782.7z M219.4,793.5c-1.5,0.5-2,1.6-1.4,3.1c0.9,2.6,1.3,4,2.3,6.5c0.6,1.6,1.5,2.1,3.1,1.6
								c4.7-1.6,7.1-2.5,11.7-4.2c1.5-0.5,2-1.6,1.4-3.1c-0.9-2.6-1.3-3.7-2.1-6.4c-0.6-1.6-1.5-2.1-3-1.6
								C226.6,791.1,224.2,791.8,219.4,793.5z"/>
							<path class="jwColorWhite" d="M208.9,784.6c-2.1-6.7-3-10-4.7-16.8c-0.7-2.8-0.6-5,0.2-6.6c0.9-1.5,2.7-2.7,5.4-3.3
								c1.3-0.4,2.1-0.5,3.4-0.8c2.1-0.5,3.7-0.5,5.2-0.1c1.3,0.4,2.3,1.3,3.2,2.9c2.9-2.8,4.3-4.2,7.1-6.9c0.7,3,1.1,4.4,1.8,7.4
								c-2.7,2.5-4.1,4-6.8,6.5c0.6,2.2,0.9,3.3,1.5,5.4c3.2-0.9,4.7-1.3,7.9-2.3c0.8,2.7,1.1,4.1,2,6.8
								C224.5,779.9,219.3,781.4,208.9,784.6z M211.5,765c-1.6,0.4-2.1,1.3-1.7,3c0.8,3.2,1.3,4.8,2.1,7.9c3.2-0.9,4.7-1.3,7.9-2.3
								c-0.9-3-1.3-4.7-2.1-7.8c-0.4-1.6-1.3-2.2-2.9-1.8C213.5,764.5,212.8,764.6,211.5,765z"/>
						</g>
						<g>
							<path class="jwColorWhite" d="M606.2,204.3c-1.8,4.1-2.8,6.2-4.5,10.3c-2.3,0.3-3.3,0.4-5.5,0.7c-2.8-3.6-4.1-5.4-6.9-9
								c0.8,6,1.3,9.1,2.1,15.1c-2.8,0.4-4.2,0.6-6.9,1c-1.8-10.8-2.5-16.1-4.2-27c3-0.5,4.7-0.6,7.8-1.2c4.2,5.3,6.1,7.9,10,13.3
								c2.5-6.1,3.8-9.2,6.5-15.3c3.2-0.4,4.7-0.5,7.8-0.8c0.9,10.8,1.3,16.3,2.3,27.2c-2.8,0.3-4.3,0.4-7,0.6
								C607.1,213.5,606.8,210.5,606.2,204.3z"/>
							<path class="jwColorWhite" d="M624.3,218.2c-3,0.2-4.6,0.4-7.7,0.5c2.7-9.3,5.7-18.8,8.8-27.9c3.3-0.2,4.9-0.3,8.3-0.5
								c4,8.9,7.8,17.9,11.4,26.9c-3,0.1-4.6,0.1-7.6,0.1c-0.8-1.9-1.1-3-1.9-4.7c-4,0.1-6,0.2-9.8,0.5
								C625.2,215.1,624.9,216.2,624.3,218.2z M627.4,208.1c2.5-0.1,3.9-0.2,6.4-0.4c-1.4-3.5-2.2-5.4-3.5-9.1
								C628.9,202.4,628.3,204.3,627.4,208.1z"/>
							<path class="jwColorWhite" d="M658.8,216c-1.3,1.1-3,1.8-5.6,1.6c-2.4,0-5.2-0.1-7.9-0.4c0-2.1,0-3.1,0-5.2c2.1,0.1,4.2,0.2,6.4,0.1
								c0.6,0,1.1-0.2,1.5-0.5c0.4-0.4,0.5-0.8,0.6-1.4c0-5.9,0-8.9,0-14.8c-2.1,0-3.3,0-5.4,0c0.1-2.2,0-3.3-0.1-5.4
								c5.2-0.1,7.8,0,12.9,0.1c-0.1,8.2-0.2,12.1-0.4,20.3C660.7,212.9,660,214.8,658.8,216z"/>
							<path class="jwColorWhite" d="M690.5,211.7c-0.3,2.7-1,4.7-2.4,5.8c-1.3,1.1-3.4,1.6-6.2,1.3c-3.9-0.2-5.8-0.4-9.8-0.6
								c-2.7-0.1-4.7-0.8-5.9-2.1c-1.3-1.3-1.8-3.3-1.7-6.1c0.1-4.9,0.2-7.4,0.4-12.5c0.1-2.7,0.8-4.7,2.1-5.9
								c1.3-1.2,3.5-1.8,6.4-1.6c4.2,0.2,6.2,0.4,10.4,0.6c2.9,0.2,5.1,1,6.2,2.3c1.2,1.3,1.7,3.4,1.5,6.2
								C691.1,204.2,690.9,206.6,690.5,211.7z M684.2,198.6c0.1-1.5-0.7-2.4-2.3-2.5c-2.8-0.1-4.2-0.3-6.9-0.4
								c-1.6-0.1-2.5,0.6-2.5,2.3c-0.3,4.9-0.4,7.6-0.6,12.4c-0.1,1.5,0.7,2.4,2.3,2.5c2.7,0.1,4,0.2,6.7,0.5
								c1.6,0.1,2.5-0.6,2.5-2.1C683.7,206.1,683.9,203.7,684.2,198.6z"/>
							<path class="jwColorWhite" d="M696.4,192.3c6.9,0.7,10.5,1.1,17.3,2.1c3,0.4,4.9,1.3,5.9,2.7c1.1,1.5,1.5,3.5,1,6.2
								c-0.2,1.3-0.3,2.1-0.5,3.5c-0.3,2.1-1,3.7-1.8,4.8c-0.9,1.1-2.1,1.7-3.8,1.8c1.5,3.7,2.1,5.5,3.6,9.3c-3-0.5-4.5-0.6-7.5-1.1
								c-1.3-3.5-2.1-5.3-3.4-8.8c-2.3-0.3-3.4-0.4-5.6-0.6c-0.4,3.3-0.6,4.9-0.9,8.1c-2.8-0.3-4.2-0.6-7-0.8
								C694.8,208.5,695.4,203.1,696.4,192.3z M713.6,202.2c0.2-1.6-0.4-2.4-2.1-2.7c-3.3-0.4-4.9-0.7-8.1-1.1
								c-0.4,3.3-0.6,4.9-0.9,8.1c3.2,0.4,4.9,0.6,8.1,1c1.6,0.2,2.5-0.4,2.7-2C713.2,204.2,713.4,203.6,713.6,202.2z"/>
						</g>
					</g>
					<g id="mini_1_">
						<g>
							<path class="jwColorWhite" d="M984.7,949.1c-1.4-4.2-2.3-6.4-3.8-10.6c1.3-1.8,2.1-2.6,3.5-4.3c4.5,0.6,6.6,1,11.2,1.6
								c-4.8-3.7-7.3-5.6-12.1-9.3c1.7-2.3,2.5-3.4,4.2-5.7c8.8,6.4,13.3,9.6,22.1,16c-1.8,2.7-2.8,4-4.8,6.5
								c-6.7-0.8-10-1.2-16.5-2.3c2.5,6.2,3.6,9.3,5.7,15.6c-2.1,2.4-3.3,3.7-5.3,6.2c-8.1-7.3-12.2-10.9-20.4-18.2
								c1.8-2.1,2.8-3.1,4.6-5.3C977.9,943.2,980.1,945.2,984.7,949.1z"/>
							<path class="jwColorWhite" d="M956.4,957.3c4-4,5.9-5.9,9.8-10.2c1.6,1.5,2.4,2.3,4,3.6c-1,1-1.5,1.6-2.4,2.7
								c4.8,4.5,7.1,6.7,11.9,11.3c1-1.1,1.6-1.7,2.6-2.8c1.6,1.5,2.4,2.3,4,3.6c-4.2,4.5-6.3,6.7-10.7,11c-1.6-1.6-2.3-2.3-3.8-4
								c1.1-1.1,1.7-1.6,2.7-2.7c-4.6-4.6-7.1-6.9-11.7-11.5c-1,1-1.5,1.5-2.5,2.5C958.7,959.7,957.9,958.8,956.4,957.3z"/>
							<path class="jwColorWhite" d="M936.2,975.6c2.3-1.9,3.4-2.8,5.7-4.8c7.1,2.5,10.7,3.7,18.1,5.8c-4.5-4.9-6.6-7.2-11.1-12.1
								c2.1-1.8,3.1-2.8,5.2-4.9c7.6,7.8,11.4,11.8,19,19.7c-2.4,2.3-3.5,3.3-5.9,5.6c-7.5-2.1-11.1-3.2-18.3-5.6
								c4.2,4.9,6.4,7.4,10.7,12.4c-2.3,2.1-3.5,3-5.9,4.9C946.5,988.3,943.1,984.1,936.2,975.6z"/>
							<path class="jwColorWhite" d="M922.2,986.4c4.6-3.3,6.9-5,11.2-8.6c1.4,1.7,2.1,2.5,3.5,4.3c-1.1,0.8-1.6,1.3-2.8,2.3
								c4.1,5.1,6,7.7,10.1,12.8c1.2-0.9,1.8-1.3,3-2.3c1.4,1.7,2.1,2.5,3.5,4.3c-4.9,3.9-7.3,5.7-12.2,9.4
								c-1.3-1.7-1.8-2.7-3.2-4.5c1.2-0.9,1.9-1.3,3-2.3c-3.9-5.3-5.9-7.8-9.8-13.2c-1.1,0.8-1.7,1.3-2.9,2.2
								C924.1,989.1,923.5,988.1,922.2,986.4z"/>
						</g>
						<g>
							<path class="jwColorWhite" d="M674.9,1097.6c2-4.1,3-6.1,4.8-10.2c2.3-0.3,3.3-0.4,5.5-0.6c2.7,3.5,4,5.4,6.9,9
								c-0.8-6-1.2-9.1-2.1-15.1c2.8-0.4,4.2-0.6,7-1.1c1.7,10.7,2.5,16.1,4.2,26.9c-3.3,0.6-4.7,0.8-8.1,1.3
								c-4.2-5.3-6.2-7.8-10-13.4c-2.5,6.1-4,9.1-6.9,15.1c-3.3,0.3-4.9,0.4-8.1,0.6c-0.6-10.8-0.8-16.3-1.5-27.2
								c2.8-0.1,4.2-0.1,7-0.5C674.1,1088.6,674.4,1091.6,674.9,1097.6z"/>
							<path class="jwColorWhite" d="M649.1,1083.4c5.7,0,8.4-0.1,14.1-0.3c0.1,2.1,0.1,3.3,0.2,5.4c-1.4,0-2.1,0.1-3.6,0.2
								c0.2,6.6,0.3,9.8,0.4,16.4c1.5-0.1,2.3-0.1,3.8-0.1c0.1,2.1,0.1,3.3,0.2,5.4c-6.2,0.2-9.2,0.3-15.3,0.2
								c-0.1-2.2,0-3.3,0.1-5.4c1.6,0,2.2,0.1,3.8,0c-0.1-6.6-0.1-9.8-0.1-16.4c-1.4,0-2.1,0-3.5,0
								C649,1086.7,649.1,1085.5,649.1,1083.4z"/>
							<path class="jwColorWhite" d="M621.6,1082c3,0.3,4.4,0.4,7.4,0.6c3.3,6.8,4.9,10.2,8.6,16.8c0.3-6.5,0.4-9.8,0.6-16.3
								c2.8,0.1,4.2,0.2,7.1,0.1c-0.1,10.9-0.4,16.3-0.4,27.3c-3.3-0.1-4.8-0.1-8.1-0.2c-3.8-6.8-5.6-10.1-9-16.9
								c-0.5,6.6-0.7,9.8-1.3,16.3c-3.1-0.1-4.6-0.4-7.7-0.6C620.1,1098.3,620.6,1092.9,621.6,1082z"/>
							<path class="jwColorWhite" d="M604.2,1079.7c5.6,0.9,8.4,1.3,14,1.8c-0.2,2.2-0.3,3.3-0.6,5.4c-1.4-0.1-2.1-0.3-3.6-0.4
								c-0.7,6.5-1.2,9.7-2,16.3c1.6,0.1,2.3,0.3,3.7,0.5c-0.2,2.2-0.3,3.3-0.6,5.4c-6.2-0.6-9.3-1.1-15.3-2
								c0.3-2.1,0.6-3.3,0.8-5.4c1.6,0.3,2.3,0.4,3.8,0.6c1-6.5,1.4-9.8,2.4-16.3c-1.4-0.1-2.2-0.4-3.5-0.6
								C603.7,1083,603.9,1081.9,604.2,1079.7z"/>
						</g>
						<g>
							<path class="jwColorWhite" d="M350.7,983.5c4.2-1.4,6.4-2.3,10.6-3.8c1.8,1.3,2.6,2.1,4.3,3.5c-0.6,4.5-1,6.6-1.6,11.2
								c3.7-4.8,5.6-7.3,9.3-12.1c2.3,1.7,3.4,2.5,5.7,4.2c-6.4,8.8-9.6,13.3-16,22.1c-2.7-1.8-4-2.8-6.5-4.8
								c0.8-6.7,1.2-10,2.3-16.5c-6.2,2.5-9.3,3.6-15.6,5.7c-2.4-2.1-3.7-3.3-6.2-5.3c7.3-8.1,10.9-12.2,18.2-20.4
								c2.1,1.8,3.1,2.8,5.3,4.6C356.5,976.5,354.6,978.9,350.7,983.5z"/>
							<path class="jwColorWhite" d="M342.5,955.2c4,4,5.9,5.9,10.2,9.8c-1.5,1.6-2.3,2.4-3.6,4c-1-1-1.6-1.5-2.7-2.4
								c-4.5,4.8-6.7,7.1-11.3,11.9c1.1,1,1.7,1.6,2.8,2.6c-1.5,1.6-2.3,2.4-3.6,4c-4.5-4.2-6.7-6.3-11-10.7c1.6-1.6,2.3-2.3,4-3.8
								c1.1,1.1,1.6,1.7,2.7,2.7c4.6-4.6,6.9-7.1,11.5-11.7c-1-1-1.5-1.5-2.5-2.5C340.1,957.4,341.1,956.7,342.5,955.2z"/>
							<path class="jwColorWhite" d="M324.2,934.8c1.9,2.3,2.8,3.4,4.8,5.7c-2.5,7.1-3.7,10.7-5.8,18.1c4.9-4.5,7.2-6.6,12.1-11.1
								c1.8,2.1,2.8,3.1,4.9,5.2c-7.8,7.6-11.8,11.4-19.7,19c-2.3-2.4-3.3-3.5-5.6-5.9c2.1-7.5,3.2-11.1,5.6-18.3
								c-4.9,4.2-7.4,6.4-12.4,10.7c-2.1-2.3-3-3.5-4.9-5.9C311.5,945.2,315.7,941.8,324.2,934.8z"/>
							<path class="jwColorWhite" d="M313.3,920.9c3.3,4.6,5,6.9,8.6,11.2c-1.7,1.4-2.5,2.1-4.3,3.5c-0.8-1.1-1.3-1.6-2.3-2.8
								c-5.1,4.1-7.7,6-12.8,10.1c0.9,1.2,1.3,1.8,2.3,3c-1.7,1.4-2.5,2.1-4.3,3.5c-3.9-4.9-5.7-7.3-9.4-12.2
								c1.7-1.3,2.7-1.8,4.5-3.2c0.9,1.2,1.3,1.9,2.3,3c5.3-3.9,7.8-5.9,13.2-9.8c-0.8-1.1-1.3-1.7-2.2-2.9
								C310.7,922.8,311.6,922.2,313.3,920.9z"/>
						</g>
						<g>
							<path class="jwColorWhite" d="M202.2,673.5c4.1,2,6.1,3,10.2,4.8c0.3,2.3,0.4,3.3,0.6,5.5c-3.5,2.7-5.4,4-9,6.9
								c6-0.8,9.1-1.2,15.1-2.1c0.4,2.8,0.6,4.2,1.1,7c-10.7,1.7-16.1,2.5-26.9,4.2c-0.6-3.3-0.8-4.7-1.3-8.1
								c5.3-4.2,7.8-6.2,13.4-10c-6.1-2.5-9.1-4-15.1-6.9c-0.3-3.3-0.4-4.9-0.6-8.1c10.8-0.6,16.3-0.8,27.2-1.5
								c0.1,2.8,0.1,4.2,0.5,7C211.2,672.8,208.2,673,202.2,673.5z"/>
							<path class="jwColorWhite" d="M216.4,647.7c0,5.7,0.1,8.4,0.3,14.1c-2.1,0.1-3.3,0.1-5.4,0.2c0-1.4-0.1-2.1-0.2-3.6
								c-6.6,0.2-9.8,0.3-16.4,0.4c0.1,1.5,0.1,2.3,0.1,3.8c-2.1,0.1-3.3,0.1-5.4,0.2c-0.2-6.2-0.3-9.2-0.2-15.3
								c2.2-0.1,3.3,0,5.4,0.1c0,1.6-0.1,2.2,0,3.8c6.6-0.1,9.8-0.1,16.4-0.1c0-1.4,0-2.1,0-3.5
								C213.2,647.7,214.3,647.7,216.4,647.7z"/>
							<path class="jwColorWhite" d="M217.9,620.4c-0.3,3-0.4,4.4-0.6,7.4c-6.8,3.3-10.2,4.9-16.8,8.6c6.5,0.3,9.8,0.4,16.3,0.6
								c-0.1,2.8-0.2,4.2-0.1,7.1c-10.9-0.1-16.3-0.4-27.3-0.4c0.1-3.3,0.1-4.8,0.2-8.1c6.8-3.8,10.1-5.6,16.9-9
								c-6.6-0.5-9.8-0.7-16.3-1.3c0.2-3,0.4-4.6,0.7-7.8C201.5,618.8,207,619.4,217.9,620.4z"/>
							<path class="jwColorWhite" d="M220.1,602.9c-0.9,5.6-1.3,8.4-1.8,14c-2.2-0.2-3.3-0.3-5.4-0.6c0.1-1.4,0.3-2.1,0.4-3.6
								c-6.5-0.7-9.7-1.2-16.3-2c-0.1,1.6-0.3,2.3-0.5,3.7c-2.2-0.2-3.3-0.3-5.4-0.6c0.6-6.2,1.1-9.3,2-15.3
								c2.2,0.4,3.3,0.6,5.4,0.8c-0.3,1.6-0.4,2.3-0.6,3.8c6.5,1,9.8,1.4,16.3,2.4c0.1-1.4,0.4-2.2,0.6-3.5
								C216.8,602.3,217.9,602.6,220.1,602.9z"/>
						</g>
						<g>
							<path class="jwColorWhite" d="M1055.5,455.2c-4.5-0.3-6.7-0.4-11.2-0.5c-1.1-2-1.6-2.9-2.7-4.8c2.3-3.8,3.5-5.8,5.7-9.8
								c-5.2,3.1-7.9,4.5-13.2,7.6c-1.5-2.5-2.2-3.6-3.7-6.1c9.3-5.7,13.9-8.6,23.3-14.2c1.8,2.8,2.5,4.1,4.2,6.9
								c-3.3,5.9-4.9,8.7-8.5,14.3c6.6,0.1,10,0.2,16.6,0.6c1.5,2.9,2.2,4.3,3.6,7.3c-9.8,4.7-14.7,7.1-24.6,11.9
								c-1.3-2.5-1.8-3.8-3.1-6.4C1047.5,459.4,1050.1,458,1055.5,455.2z"/>
							<path class="jwColorWhite" d="M1052.3,484.5c-2.1-5.2-3.3-7.8-5.7-12.9c2-1,3-1.4,4.9-2.3c0.6,1.3,1,2,1.6,3.3c6.1-2.7,8.9-4,15-6.6
								c-0.6-1.3-1-2.1-1.6-3.5c2-1,3-1.4,4.9-2.3c2.5,5.6,3.7,8.4,6.2,14.1c-2.1,0.9-3,1.3-5.1,2c-0.6-1.4-0.8-2.1-1.5-3.5
								c-6.1,2.5-9.1,3.8-15.1,6.4c0.6,1.3,0.8,1.9,1.4,3.3C1055.2,483.3,1054.2,483.7,1052.3,484.5z"/>
							<path class="jwColorWhite" d="M1061.4,510.3c-0.9-2.9-1.3-4.2-2.3-7.1c5-5.6,7.5-8.5,12.3-14.4c-6.2,2.3-9.2,3.4-15.4,5.7
								c-1-2.7-1.5-3.9-2.5-6.6c10.2-4.1,15.3-5.9,25.4-10c1.2,3,1.7,4.5,2.9,7.6c-4.8,6.1-7.2,9.1-12.2,14.8
								c6.3-2.1,9.3-3,15.6-5.1c1.1,2.9,1.4,4.4,2.3,7.4C1077,505.5,1071.8,507.2,1061.4,510.3z"/>
							<path class="jwColorWhite" d="M1066,527.3c-1.3-5.5-2.1-8.3-3.6-13.6c2.1-0.7,3.1-1,5.3-1.5c0.4,1.3,0.6,2,1.1,3.5
								c6.3-1.8,9.4-2.6,15.8-4.5c-0.4-1.4-0.6-2.2-1.1-3.6c2.1-0.7,3.1-1,5.3-1.5c1.7,5.9,2.5,8.9,4,14.8c-2.1,0.5-3.2,0.8-5.3,1.2
								c-0.4-1.5-0.6-2.3-0.9-3.7c-6.4,1.6-9.5,2.4-15.9,4c0.4,1.3,0.5,2.1,0.9,3.5C1069.2,526.6,1068.2,526.8,1066,527.3z"/>
						</g>
						<g>
							<path class="jwColorWhite" d="M799.8,225.7c-3.4,3-5,4.5-8.3,7.6c-2.2-0.6-3.2-0.9-5.4-1.6c-1.1-4.2-1.6-6.6-2.8-10.9
								c-1.6,5.8-2.3,8.8-3.9,14.6c-2.8-0.7-4.1-1-6.9-1.8c2.5-10.6,3.7-15.9,6.4-26.4c3.2,0.8,4.7,1.1,7.9,2
								c1.8,6.5,2.7,9.6,4.1,16.1c4.7-4.6,7.1-6.9,12.2-11.2c3.1,1,4.7,1.6,7.7,2.6c-3.6,10.3-5.4,15.3-9.1,25.7
								c-2.6-0.9-4-1.4-6.6-2.3C796.9,234.4,797.8,231.5,799.8,225.7z"/>
							<path class="jwColorWhite" d="M818.1,248.7c-5.2-2.1-7.8-3.2-13.2-5.1c0.8-2.1,1.1-3.1,1.8-5.1c1.3,0.5,2.1,0.8,3.4,1.3
								c2.3-6.2,3.5-9.1,5.9-15.3c-1.5-0.5-2.1-0.8-3.6-1.3c0.8-2.1,1.1-3.1,1.8-5.1c5.7,2.2,8.6,3.3,14.3,5.7c-0.8,2.1-1.3,3-2.2,5
								c-1.5-0.6-2.1-0.9-3.5-1.4c-2.5,6-3.7,9.1-6.2,15.2c1.3,0.5,2,0.8,3.3,1.3C819.5,245.7,818.9,246.7,818.1,248.7z"/>
							<path class="jwColorWhite" d="M842.9,260.5c-2.7-1.4-3.9-2.1-6.5-3.4c-0.4-7.5-0.7-11.3-1.5-18.9c-2.8,6-4.1,8.9-6.9,14.9
								c-2.5-1.3-3.8-1.7-6.4-2.9c4.3-10.1,6.5-15,10.9-25c3,1.3,4.4,2,7.4,3.3c0.9,7.7,1.3,11.5,1.8,19.1c3-5.8,4.5-8.7,7.4-14.6
								c2.8,1.3,4.2,2.1,6.9,3.6C850.5,246.1,848,250.9,842.9,260.5z"/>
							<path class="jwColorWhite" d="M858.1,269.2c-4.8-3-7.3-4.5-12.2-7.1c1-2,1.6-2.8,2.7-4.8c1.3,0.7,1.8,1,3.2,1.8
								c3.2-5.7,4.8-8.5,8-14.2c-1.3-0.8-2-1.1-3.3-1.8c1-2,1.6-2.8,2.7-4.8c5.4,3,8.1,4.5,13.4,7.7c-1.1,1.8-1.8,2.8-2.9,4.6
								c-1.3-0.8-2-1.3-3.3-2c-3.4,5.7-5,8.4-8.4,14.1c1.3,0.7,1.8,1.1,3.1,1.8C859.9,266.5,859.2,267.4,858.1,269.2z"/>
						</g>
					</g>
				</g>
			</g>
		</g>
		<path id="wheel-2-hilight-light" class="jwColorLight blinking-light" d="M749.4,151.1l-27.9,140.3c-23-4.6-46.9-7-71.2-7c-24.4,0-48.3,2.4-71.4,7
			L551,151c9.4-1.9,18.8-3.5,28.3-4.8c1-0.1,2.1-0.3,3.1-0.4c0.6-0.1,1.2-0.2,1.8-0.2c1.4-0.2,2.7-0.3,4.1-0.5c0.1,0,0.2,0,0.3,0
			c1.7-0.2,3.3-0.4,5-0.6C645.7,138.6,698.3,141,749.4,151.1z"/>
		
		<path id="wheel-2-hilight-dark" class="jwColorShadow2 blinking-dark" d="M756.6,152.6l-27.9,140.2c164,35.9,286.8,182,286.8,356.8
			c0,201.7-163.5,365.2-365.2,365.2S285,851.3,285,649.6c0-174.8,122.8-320.9,286.8-356.8L544,152.6
			C315,201.5,143.2,405,143.2,648.5c0,280.1,227,507.1,507.1,507.1s507.1-227,507.1-507.1C1157.4,404.9,985.6,201.5,756.6,152.6z"/>

		<path id="jwWheel2-shadow" class="jwColorShadow" d="M650.2,256.5c-212.9,0-385.5,172.6-385.5,385.5s172.6,385.5,385.5,385.5
			s385.5-172.6,385.5-385.5S863.2,256.5,650.2,256.5z M650.2,1015.6c-201.9,0-365.6-163.7-365.6-365.6s163.7-365.6,365.6-365.6
			s365.6,163.7,365.6,365.6S852.2,1015.6,650.2,1015.6z"/>

		
	<g id="jwWheelLights">
		<g id="jwWheelLights-bg">
			<circle id="jwLights-31_5_" class="jwColorGold" cx="492.2" cy="128.4" r="18"/>
				<circle id="jwLights-30_4_" class="jwColorGold" cx="393.7" cy="169.2" r="18"/>
				<circle id="jwLights-29_4_" class="jwColorGold" cx="304.8" cy="228.5" r="18"/>
				<circle id="jwLights-28_4_" class="jwColorGold" cx="229.2" cy="303.9" r="18"/>
				<circle id="jwLights-27_4_" class="jwColorGold" cx="169.8" cy="392.7" r="18"/>
				<circle id="jwLights-26_4_" class="jwColorGold" cx="128.8" cy="491.3" r="18"/>
				<circle id="jwLights-25_4_" class="jwColorGold" cx="107.9" cy="596" r="18"/>
				<circle id="jwLights-24_4_" class="jwColorGold" cx="107.8" cy="702.8" r="18"/>
				<circle id="jwLights-23_4_" class="jwColorGold" cx="128.5" cy="807.6" r="18"/>
				<circle id="jwLights-22_4_" class="jwColorGold" cx="169.3" cy="906.2" r="18"/>
				<circle id="jwLights-21_4_" class="jwColorGold" cx="228.7" cy="995" r="18"/>
				<circle id="jwLights-20_4_" class="jwColorGold" cx="304" cy="1070.6" r="18"/>
				<circle id="jwLights-19_4_" class="jwColorGold" cx="392.8" cy="1130" r="18"/>
				<circle id="jwLights-18_4_" class="jwColorGold" cx="491.5" cy="1171" r="18"/>
				<circle id="jwLights-17_4_" class="jwColorGold" cx="596.2" cy="1191.9" r="18"/>
				<circle id="jwLights-16_4_" class="jwColorGold" cx="702.9" cy="1191.9" r="18"/>
				<circle id="jwLights-15_4_" class="jwColorGold" cx="807.8" cy="1171.3" r="18"/>
				<circle id="jwLights-14_4_" class="jwColorGold" cx="906.3" cy="1130.5" r="18"/>
				<circle id="jwLights-13_4_" class="jwColorGold" cx="995.2" cy="1071.2" r="18"/>
				<circle id="jwLights-12_4_" class="jwColorGold" cx="1070.8" cy="995.8" r="18"/>
				<circle id="jwLights-11_4_" class="jwColorGold" cx="1130.2" cy="907" r="18"/>
				<circle id="jwLights-10_4_" class="jwColorGold" cx="1171.2" cy="808.4" r="18"/>
				<circle id="jwLights-9_4_" class="jwColorGold" cx="1192.1" cy="703.7" r="18"/>
				<circle id="jwLights-8_4_" class="jwColorGold" cx="1192.2" cy="596.9" r="18"/>
				<circle id="jwLights-7_4_" class="jwColorGold" cx="1171.4" cy="492.1" r="18"/>
				<circle id="jwLights-6_4_" class="jwColorGold" cx="1130.7" cy="393.5" r="18"/>
				<circle id="jwLights-5_4_" class="jwColorGold" cx="1071.2" cy="304.7" r="18"/>
				<circle id="jwLights-4_4_" class="jwColorGold" cx="995.9" cy="229.1" r="18"/>
				<circle id="jwLights-3_4_" class="jwColorGold" cx="907.2" cy="169.7" r="18"/>
				<circle id="jwLights-2_4_" class="jwColorGold" cx="808.6" cy="128.7" r="18"/>
				<circle id="jwLights-1_6_" class="jwColorGold" cx="703.8" cy="107.8" r="18"/>
				<circle id="jwLights-0_4_" class="jwColorGold" cx="597" cy="107.7" r="18"/>
				<circle id="jwLights-31_4_" class="jwColorGold" cx="544.2" cy="115.5" r="18"/>
				<circle id="jwLights-30_3_" class="jwColorGold" cx="442" cy="146.4" r="18"/>
				<circle id="jwLights-29_3_" class="jwColorGold" cx="347.8" cy="196.7" r="18"/>
				<circle id="jwLights-28_3_" class="jwColorGold" cx="265.2" cy="264.4" r="18"/>
				<circle id="jwLights-27_3_" class="jwColorGold" cx="197.3" cy="346.8" r="18"/>
				<circle id="jwLights-26_3_" class="jwColorGold" cx="146.9" cy="441" r="18"/>
				<circle id="jwLights-25_3_" class="jwColorGold" cx="115.8" cy="543.1" r="18"/>
				<circle id="jwLights-24_3_" class="jwColorGold" cx="105.3" cy="649.4" r="18"/>
				<circle id="jwLights-23_3_" class="jwColorGold" cx="115.6" cy="755.6" r="18"/>
				<circle id="jwLights-22_3_" class="jwColorGold" cx="146.5" cy="857.9" r="18"/>
				<circle id="jwLights-21_3_" class="jwColorGold" cx="196.8" cy="952.1" r="18"/>
				<circle id="jwLights-20_3_" class="jwColorGold" cx="264.5" cy="1034.7" r="18"/>
				<circle id="jwLights-19_3_" class="jwColorGold" cx="347" cy="1102.5" r="18"/>
				<circle id="jwLights-18_3_" class="jwColorGold" cx="441.2" cy="1152.9" r="18"/>
				<circle id="jwLights-17_3_" class="jwColorGold" cx="543.2" cy="1184" r="18"/>
				<circle id="jwLights-16_3_" class="jwColorGold" cx="649.5" cy="1194.5" r="18"/>
				<circle id="jwLights-15_3_" class="jwColorGold" cx="755.8" cy="1184.2" r="18"/>
				<circle id="jwLights-14_3_" class="jwColorGold" cx="858.1" cy="1153.3" r="18"/>
				<circle id="jwLights-13_3_" class="jwColorGold" cx="952.2" cy="1103" r="18"/>
				<circle id="jwLights-12_3_" class="jwColorGold" cx="1034.8" cy="1035.3" r="18"/>
				<circle id="jwLights-11_3_" class="jwColorGold" cx="1102.7" cy="952.9" r="18"/>
				<circle id="jwLights-10_3_" class="jwColorGold" cx="1153.1" cy="858.7" r="18"/>
				<circle id="jwLights-9_3_" class="jwColorGold" cx="1184.2" cy="756.6" r="18"/>
				<circle id="jwLights-8_3_" class="jwColorGold" cx="1194.7" cy="650.3" r="18"/>
				<circle id="jwLights-7_3_" class="jwColorGold" cx="1184.3" cy="544.1" r="18"/>
				<circle id="jwLights-6_3_" class="jwColorGold" cx="1153.4" cy="441.8" r="18"/>
				<circle id="jwLights-5_3_" class="jwColorGold" cx="1103.2" cy="347.6" r="18"/>
				<circle id="jwLights-4_3_" class="jwColorGold" cx="1035.4" cy="265" r="18"/>
				<circle id="jwLights-3_3_" class="jwColorGold" cx="953.1" cy="197.2" r="18"/>
				<circle id="jwLights-2_3_" class="jwColorGold" cx="858.8" cy="146.8" r="18"/>
				<circle id="jwLights-1_5_" class="jwColorGold" cx="756.8" cy="115.7" r="18"/>
				<circle id="jwLights-0_3_" class="jwColorGold" cx="650.5" cy="105.2" r="18"/>
		</g>
		<g id="jwWheelLights-white">
			<circle id="jwLights-31_3_" class="jwColorWhite" cx="492.2" cy="128.4" r="0.1"/>
				<circle id="jwLights-30_2_" class="jwColorWhite" cx="393.7" cy="169.2" r="0.1"/>
				<circle id="jwLights-29_2_" class="jwColorWhite" cx="304.8" cy="228.5" r="0.1"/>
				<circle id="jwLights-28_2_" class="jwColorWhite" cx="229.2" cy="303.9" r="0.1"/>
				<circle id="jwLights-27_2_" class="jwColorWhite" cx="169.8" cy="392.7" r="0.1"/>
				<circle id="jwLights-26_2_" class="jwColorWhite" cx="128.8" cy="491.3" r="0.1"/>
				<circle id="jwLights-25_2_" class="jwColorWhite" cx="107.9" cy="596" r="0.1"/>
				<circle id="jwLights-24_2_" class="jwColorWhite" cx="107.8" cy="702.8" r="0.1"/>
				<circle id="jwLights-23_2_" class="jwColorWhite" cx="128.5" cy="807.6" r="0.1"/>
				<circle id="jwLights-22_2_" class="jwColorWhite" cx="169.3" cy="906.2" r="0.1"/>
				<circle id="jwLights-21_2_" class="jwColorWhite" cx="228.7" cy="995" r="0.1"/>
				<circle id="jwLights-20_2_" class="jwColorWhite" cx="304" cy="1070.6" r="0.1"/>
				<circle id="jwLights-19_2_" class="jwColorWhite" cx="392.8" cy="1130" r="0.1"/>
				<circle id="jwLights-18_2_" class="jwColorWhite" cx="491.5" cy="1171" r="0.1"/>
				<circle id="jwLights-17_2_" class="jwColorWhite" cx="596.2" cy="1191.9" r="0.1"/>
				<circle id="jwLights-16_2_" class="jwColorWhite" cx="702.9" cy="1191.9" r="0.1"/>
				<circle id="jwLights-15_2_" class="jwColorWhite" cx="807.8" cy="1171.3" r="0.1"/>
				<circle id="jwLights-14_2_" class="jwColorWhite" cx="906.3" cy="1130.5" r="0.1"/>
				<circle id="jwLights-13_2_" class="jwColorWhite" cx="995.2" cy="1071.2" r="0.1"/>
				<circle id="jwLights-12_2_" class="jwColorWhite" cx="1070.8" cy="995.8" r="0.1"/>
				<circle id="jwLights-11_2_" class="jwColorWhite" cx="1130.2" cy="907" r="0.1"/>
				<circle id="jwLights-10_2_" class="jwColorWhite" cx="1171.2" cy="808.4" r="0.1"/>
				<circle id="jwLights-9_2_" class="jwColorWhite" cx="1192.1" cy="703.7" r="0.1"/>
				<circle id="jwLights-8_2_" class="jwColorWhite" cx="1192.2" cy="596.9" r="0.1"/>
				<circle id="jwLights-7_2_" class="jwColorWhite" cx="1171.4" cy="492.1" r="0.1"/>
				<circle id="jwLights-6_2_" class="jwColorWhite" cx="1130.7" cy="393.5" r="0.1"/>
				<circle id="jwLights-5_2_" class="jwColorWhite" cx="1071.2" cy="304.7" r="0.1"/>
				<circle id="jwLights-4_2_" class="jwColorWhite" cx="995.9" cy="229.1" r="0.1"/>
				<circle id="jwLights-3_2_" class="jwColorWhite" cx="907.2" cy="169.7" r="0.1"/>
				<circle id="jwLights-2_2_" class="jwColorWhite" cx="808.6" cy="128.7" r="0.1"/>
				<circle id="jwLights-1_3_" class="jwColorWhite" cx="703.8" cy="107.8" r="0.1"/>
				<circle id="jwLights-0_2_" class="jwColorWhite" cx="597" cy="107.7" r="0.1"/>
				<circle id="jwLights-31_1_" class="jwColorWhite" cx="544.2" cy="115.5" r="0.1"/>
				<circle id="jwLights-30" class="jwColorWhite" cx="442" cy="146.4" r="0.1"/>
				<circle id="jwLights-29" class="jwColorWhite" cx="347.8" cy="196.7" r="0.1"/>
				<circle id="jwLights-28" class="jwColorWhite" cx="265.2" cy="264.4" r="0.1"/>
				<circle id="jwLights-27" class="jwColorWhite" cx="197.3" cy="346.8" r="0.1"/>
				<circle id="jwLights-26" class="jwColorWhite" cx="146.9" cy="441" r="0.1"/>
				<circle id="jwLights-25" class="jwColorWhite" cx="115.8" cy="543.1" r="0.1"/>
				<circle id="jwLights-24" class="jwColorWhite" cx="105.3" cy="649.4" r="0.1"/>
				<circle id="jwLights-23" class="jwColorWhite" cx="115.6" cy="755.6" r="0.1"/>
				<circle id="jwLights-22" class="jwColorWhite" cx="146.5" cy="857.9" r="0.1"/>
				<circle id="jwLights-21" class="jwColorWhite" cx="196.8" cy="952.1" r="0.1"/>
				<circle id="jwLights-20" class="jwColorWhite" cx="264.5" cy="1034.7" r="0.1"/>
				<circle id="jwLights-19" class="jwColorWhite" cx="347" cy="1102.5" r="0.1"/>
				<circle id="jwLights-18" class="jwColorWhite" cx="441.2" cy="1152.9" r="0.1"/>
				<circle id="jwLights-17" class="jwColorWhite" cx="543.2" cy="1184" r="0.1"/>
				<circle id="jwLights-16" class="jwColorWhite" cx="649.5" cy="1194.5" r="0.1"/>
				<circle id="jwLights-15" class="jwColorWhite" cx="755.8" cy="1184.2" r="0.1"/>
				<circle id="jwLights-14" class="jwColorWhite" cx="858.1" cy="1153.3" r="0.1"/>
				<circle id="jwLights-13" class="jwColorWhite" cx="952.2" cy="1103" r="0.1"/>
				<circle id="jwLights-12" class="jwColorWhite" cx="1034.8" cy="1035.3" r="0.1"/>
				<circle id="jwLights-11" class="jwColorWhite" cx="1102.7" cy="952.9" r="0.1"/>
				<circle id="jwLights-10" class="jwColorWhite" cx="1153.1" cy="858.7" r="0.1"/>
				<circle id="jwLights-9" class="jwColorWhite" cx="1184.2" cy="756.6" r="0.1"/>
				<circle id="jwLights-8" class="jwColorWhite" cx="1194.7" cy="650.3" r="0.1"/>
				<circle id="jwLights-7" class="jwColorWhite" cx="1184.3" cy="544.1" r="0.1"/>
				<circle id="jwLights-6" class="jwColorWhite" cx="1153.4" cy="441.8" r="0.1"/>
				<circle id="jwLights-5" class="jwColorWhite" cx="1103.2" cy="347.6" r="0.1"/>
				<circle id="jwLights-4" class="jwColorWhite" cx="1035.4" cy="265" r="0.1"/>
				<circle id="jwLights-3" class="jwColorWhite" cx="953.1" cy="197.2" r="0.1"/>
				<circle id="jwLights-2" class="jwColorWhite" cx="858.8" cy="146.8" r="0.1"/>
				<circle id="jwLights-1" class="jwColorWhite" cx="756.8" cy="115.7" r="0.1"/>
				<circle id="jwLights-0" class="jwColorWhite" cx="650.5" cy="105.2" r="0.1"/>
		</g>
	</g>
	<g id="jwWheel1">
		<g>
			<g>
				<path class="jwColorDarkGold" d="M627.5,535.6l-45.6-229.4c-26.1,5.1-50.8,13.1-74.2,23.5c-1.2,0.5-2.3,1-3.3,1.5c-0.8,0.4-1.7,0.8-2.6,1.2
					c-1.2,0.6-2.4,1.1-3.5,1.7c-14.8,7.2-29.1,15.4-42.8,24.5l130,194.5C598,544.6,612.2,538.6,627.5,535.6z"/>
				<path class="jwColorDarkGold" d="M764.7,627.2L994,581.5c-6.2-31-16.3-60.3-29.5-87.3c0-0.1-0.1-0.1-0.1-0.2c-0.6-1.2-1.3-2.5-1.9-3.6
					c0-0.1-0.1-0.1-0.1-0.2c-6.2-12.1-13.1-23.7-20.6-34.9l-194.5,130C755.6,597.7,761.7,611.9,764.7,627.2z"/>
				<path class="jwColorDarkGold" d="M715.1,553l130-194.5c-33.8-22.6-71.4-39.2-111.4-49.1c-0.8-0.2-1.5-0.3-2.2-0.5c-1.4-0.3-2.8-0.7-4.2-1
					c-2.8-0.7-5.8-1.3-8.6-1.9l-45.6,229.5C688.3,538.6,702.6,544.6,715.1,553z"/>
				<path class="jwColorDarkGold" d="M553.2,585.2L359,455.4c-19.9,29.8-35.2,62.7-45.3,97.4c-0.4,1.1-0.7,2.3-1,3.3c-0.1,0-0.1,0.1-0.1,0.2
					c-0.3,0.9-0.6,1.9-0.8,2.7c-0.1,0.4-0.2,0.8-0.3,1.2c-0.2,0.7-0.4,1.4-0.6,2.1c-1.7,6.3-3.1,12.8-4.4,19.2l229.4,45.6
					C538.8,612,544.8,597.7,553.2,585.2z"/>
				<path class="jwColorDarkGold" d="M585.5,747L455.6,941.4c32.8,22,69.4,38.4,108,48.3c1.1,0.3,2.2,0.5,3.2,0.8c5,1.3,10,2.4,15,3.3
					l45.6-229.3C612.2,761.4,598,755.3,585.5,747z"/>
				<path class="jwColorDarkGold" d="M764.7,672.8c-3,15.3-9,29.5-17.4,42l194.4,129.9c23.4-34.9,40.5-74.1,50.1-115.6c0.2-1.2,0.5-2.5,0.8-3.6
					c0.1-0.5,0.2-1,0.3-1.5c0.4-1.9,0.8-3.7,1.2-5.6L764.7,672.8z"/>
				<path class="jwColorDarkGold" d="M535.8,672.7l-229.4,45.6c4.9,24.5,12.3,48,21.8,70.2c0.1,0.3,0.2,0.5,0.3,0.8c0.4,0.8,0.7,1.5,1,2.2
					s0.6,1.3,0.9,2c0.2,0.5,0.4,0.9,0.6,1.4c7.9,17.5,17.3,34.1,27.9,49.9l194.3-130C544.8,702.3,538.8,688,535.8,672.7z"/>
				<path class="jwColorDarkGold" d="M673,764.4l45.6,229.3c28.7-5.7,55.8-14.8,81.1-26.7c1.1-0.5,2.3-1.1,3.3-1.6s2-1,2.9-1.5
					c13.5-6.7,26.5-14.2,39-22.6L715.1,747C702.6,755.4,688.2,761.4,673,764.4z"/>
			</g>
			<g>
				<path class="jwColorGold" d="M585.5,553l-130-194.5c-28.5,19-54,42.1-75.7,68.5c-0.8,1-1.5,1.9-2.3,2.7c-0.4,0.4-0.8,0.9-1.1,1.3
					c-0.5,0.6-1,1.3-1.5,1.9c-0.3,0.3-0.6,0.7-0.9,1.1c-0.4,0.5-0.8,1.1-1.2,1.6c-0.5,0.7-1.1,1.4-1.6,2.1
					c-4.3,5.8-8.5,11.7-12.6,17.7l194.5,130C561.8,572.5,572.8,561.5,585.5,553z"/>
				<path class="jwColorGold" d="M535.8,672.8c-1.5-7.4-2.2-15-2.2-22.8s0.8-15.4,2.2-22.8l-229.3-45.6c-4.4,22.1-6.7,44.9-6.7,68.3
					c0,13.6,0.8,27,2.3,40.2v0.1c1.1,9.3,2.6,18.7,4.4,28.1c0,0.1,0,0.1,0,0.1L535.8,672.8z"/>
				<path class="jwColorGold" d="M650.2,533.4c7.8,0,15.4,0.8,22.7,2.2l45.6-229.5c-22.1-4.4-45-6.7-68.4-6.6c-11.4,0-22.6,0.5-33.7,1.6
					c-0.8,0-1.6,0.1-2.4,0.2c-10.8,1.1-21.6,2.7-32.4,4.9l45.6,229.4C634.8,534.2,642.5,533.4,650.2,533.4z"/>
				<path class="jwColorGold" d="M747.2,585.2l194.5-130c-15.2-22.7-32.9-43.5-52.7-61.9c-0.9-0.8-1.8-1.7-2.6-2.5c-2.2-2-4.4-3.9-6.6-5.8
					c-1-0.9-1.9-1.7-2.8-2.5c-1-0.8-1.9-1.6-2.8-2.4c-9.3-7.7-19-14.9-29.1-21.7l-130,194.5C727.8,561.6,738.8,572.5,747.2,585.2z"
					/>
				<path class="jwColorGold" d="M553.2,714.8L358.7,844.9c19,28.5,42.2,54,68.5,75.7c0.9,0.7,1.7,1.4,2.6,2.1c0.6,0.5,1.2,0.9,1.8,1.4
					c0.5,0.3,0.9,0.7,1.3,1c0.7,0.5,1.3,1,1.9,1.5c0.3,0.2,0.5,0.4,0.8,0.6c0.8,0.6,1.7,1.3,2.5,1.9c5.8,4.3,11.7,8.5,17.7,12.6
					L585.5,747C572.8,738.5,561.8,727.5,553.2,714.8z"/>
				<path class="jwColorGold" d="M715.1,747l130,194.5c22.7-15.1,43.5-32.9,61.9-52.7c1-1.1,1.9-2.1,2.8-3.1c0.7-0.8,1.4-1.6,2.1-2.4
					c0.3-0.3,0.6-0.7,0.9-1c1.6-1.9,3.2-3.7,4.8-5.6c8.6-10.2,16.7-20.9,24.1-32L747.2,714.8C738.8,727.5,727.8,738.4,715.1,747z"
					/>
				<path class="jwColorGold" d="M999.6,621.5c0-0.4,0-0.8-0.1-1.2c-1.1-12.9-2.9-25.8-5.5-38.8l-229.3,45.6c1.5,7.4,2.2,15,2.2,22.8
					s-0.8,15.4-2.2,22.8l229.4,45.6c4.4-22.2,6.7-45,6.7-68.5C1000.8,640.4,1000.3,630.9,999.6,621.5z"/>
				<path class="jwColorGold" d="M650.2,766.6c-7.8,0-15.4-0.8-22.7-2.2L582,993.7c22.2,4.4,45,6.7,68.4,6.7c11.3,0,22.5-0.5,33.5-1.6
					c0.2,0,0.3,0,0.5,0c11.4-1.1,22.9-2.8,34.3-5.1l-45.6-229.3C665.7,765.8,658,766.6,650.2,766.6z"/>
			</g>
		</g>
		<g>
			<polygon class="jwColorBrown" points="932.3,775 940.6,794.7 950.3,790.6 942.2,770.9 961.9,762.8 957.8,752.9 938.2,761.1 929.9,741.4 
				920.1,745.4 928.2,765.2 908.6,773.3 912.7,783.2 				"/>
			<polygon class="jwColorBrown" points="362.3,538.9 370.5,558.6 380.5,554.6 372.2,534.8 392,526.7 387.8,516.8 368.2,525 360,505.3 
				350.2,509.4 358.3,529.1 338.5,537.2 342.7,547.1 				"/>
			<polygon class="jwColorBrown" points="775.2,367.9 794.9,359.7 790.8,349.9 771.2,358.1 763.1,338.3 753.2,342.4 761.3,362.1 
				741.7,370.3 745.7,380.2 765.4,372 773.6,391.7 783.4,387.6 				"/>
			<polygon class="jwColorBrown" points="539.2,937.9 558.8,929.7 554.8,919.8 535,928 527,908.3 517,912.4 525.2,932.1 505.5,940.3 
				509.7,950.1 529.3,941.9 537.5,961.7 547.3,957.6 				"/>
			<polygon class="jwColorBrown" points="938.2,538.9 957.8,547.1 961.9,537.2 942.2,529.1 950.3,509.4 940.6,505.3 932.3,525 912.7,516.8 
				908.6,526.7 928.2,534.8 920.1,554.6 929.9,558.6 				"/>
			<polygon class="jwColorBrown" points="368.2,775 387.8,783.2 392,773.3 372.2,765.2 380.5,745.4 370.5,741.4 362.3,761.1 342.7,752.9 
				338.7,762.8 358.3,770.9 350.2,790.6 360,794.7 				"/>
			<polygon class="jwColorBrown" points="539.2,362.1 547.3,342.4 537.5,338.4 529.3,358.1 509.7,349.9 505.5,359.7 525.2,367.9 517,387.6 
				527,391.7 535,372 554.8,380.2 558.8,370.3 				"/>
			<polygon class="jwColorBrown" points="775.2,932.1 783.4,912.4 773.6,908.3 765.4,928 745.7,919.8 741.7,929.7 761.3,937.9 753.2,957.6 
				763.1,961.7 771.2,941.9 790.8,950.1 794.9,940.3 				"/>
		</g>
		<g id="wheel1-text">
			<g>
				<g>
					<path class="jwColorWhite" d="M326.2,672.1c7.6-2.8,11.5-4.2,19.2-6.8c-7.9-1.5-11.9-2.3-19.7-4c-0.1-3.8-0.2-5.6-0.2-9.4
						c10.1,3,20.3,5.7,30.6,8.1c0.1,3.3,0.2,5,0.4,8.3c-7.4,2.6-11.1,3.9-18.4,6.8c7.7,1.6,11.6,2.3,19.3,3.7
						c0.3,3.3,0.5,4.9,0.9,8.2c-9.7,4-19.4,8.4-28.8,13c-0.6-3.7-0.9-5.6-1.3-9.3c7.5-3,11.3-4.4,18.8-7.2c-8-1.3-12-2-20-3.6
						C326.5,676.7,326.3,675.2,326.2,672.1z"/>
					<path class="jwColorWhite" d="M356.2,635.2c-0.3,6.3-0.4,9.4-0.4,15.7c-2.4,0-3.6,0-6.1,0c0-1.6,0-2.4,0-4c-7.3-0.1-10.9-0.1-18.2-0.2
						c0,1.7,0,2.6,0,4.3c-2.4,0-3.6,0-6.1,0c0-6.9,0.1-10.4,0.4-17.3c2.4,0.1,3.6,0.2,6.1,0.3c-0.1,1.7-0.1,2.5-0.2,4.2
						c7.3,0.3,10.9,0.4,18.2,0.7c0.1-1.6,0.1-2.4,0.2-4C352.5,635,353.8,635.1,356.2,635.2z"/>
					<path class="jwColorWhite" d="M359.3,604.8c-0.5,3.3-0.8,4.9-1.2,8.2c-7.8,3.2-11.6,5-19.3,8.7c7.3,0.7,10.9,1,18.2,1.7
						c-0.3,3.1-0.4,4.7-0.6,7.8c-10.1-0.7-20.2-1.3-30.3-2c0.2-3.7,0.4-5.5,0.7-9.1c7.7-3.9,11.6-5.8,19.4-9.1
						c-7.2-0.9-10.9-1.4-18.1-2.4c0.4-3.4,0.7-5.2,1.2-8.6C339.3,601.7,349.3,603.3,359.3,604.8z"/>
				</g>
			</g>
			<g>
				<g>
					<path class="jwColorWhite" d="M974.3,627.9c-7.6,2.8-11.5,4.2-19.2,6.8c7.9,1.5,11.9,2.3,19.7,4c0.1,3.8,0.2,5.6,0.2,9.4
						c-10.1-3-20.3-5.7-30.6-8.1c-0.1-3.3-0.2-5-0.4-8.3c7.4-2.6,11.1-3.9,18.4-6.8c-7.7-1.6-11.6-2.3-19.3-3.7
						c-0.3-3.3-0.5-4.9-0.9-8.2c9.7-4,19.4-8.4,28.8-13c0.6,3.7,0.9,5.6,1.3,9.3c-7.5,3-11.3,4.4-18.8,7.2c8,1.3,12,2,20,3.6
						C974.1,623.3,974.2,624.8,974.3,627.9z"/>
					<path class="jwColorWhite" d="M944.3,664.8c0.3-6.3,0.4-9.4,0.4-15.7c2.4,0,3.6,0,6.1,0c0,1.6,0,2.4,0,4c7.3,0.1,10.9,0.1,18.2,0.2
						c0-1.7,0-2.6,0-4.3c2.4,0,3.6,0,6.1,0c0,6.9-0.1,10.4-0.4,17.3c-2.4-0.1-3.6-0.2-6.1-0.3c0.1-1.7,0.1-2.5,0.2-4.2
						c-7.3-0.3-10.9-0.4-18.2-0.7c-0.1,1.6-0.1,2.4-0.2,4C947.9,665,946.8,664.9,944.3,664.8z"/>
					<path class="jwColorWhite" d="M941.2,695.2c0.5-3.3,0.8-4.9,1.2-8.2c7.8-3.2,11.6-5,19.3-8.7c-7.3-0.7-10.9-1-18.2-1.7
						c0.3-3.1,0.4-4.7,0.6-7.8c10.1,0.7,20.2,1.3,30.3,2c-0.2,3.7-0.4,5.5-0.7,9.1c-7.7,3.9-11.6,5.8-19.4,9.1
						c7.2,0.9,10.9,1.4,18.1,2.4c-0.4,3.4-0.7,5.2-1.2,8.6C961.2,698.3,951.2,696.7,941.2,695.2z"/>
				</g>
			</g>
			<g>
				<g>
					<path class="jwColorWhite" d="M436.8,894.8c3.4-7.4,5.1-11.1,8.8-18.3c-6.6,4.5-10,6.8-16.8,11.1c-2.7-2.6-4.1-3.9-6.8-6.5
						c9.3-5,18.4-10.3,27.3-15.9c2.4,2.3,3.6,3.4,6.1,5.6c-3.4,7.1-5.1,10.6-8.3,17.8c6.6-4.3,9.8-6.5,16.2-11.1
						c2.6,2.1,3.9,3.1,6.5,5.2c-4,9.7-7.8,19.6-11.2,29.6c-3-2.2-4.6-3.3-7.5-5.6c3.2-7.4,4.8-11.1,8.2-18.4
						c-6.6,4.8-9.9,7.1-16.7,11.6C440.2,897.8,439,896.8,436.8,894.8z"/>
					<path class="jwColorWhite" d="M431.8,847.5c4.2,4.7,6.4,6.9,10.8,11.4c-1.7,1.7-2.6,2.6-4.3,4.3c-1.1-1.1-1.7-1.7-2.8-2.8
						c-5.2,5.1-7.8,7.7-13,12.8c1.2,1.2,1.8,1.8,3,3c-1.7,1.7-2.6,2.6-4.3,4.3c-4.9-4.9-7.3-7.4-12-12.5c1.8-1.6,2.7-2.4,4.5-4.1
						c1.1,1.3,1.7,1.9,2.9,3.1c5.3-5,8-7.4,13.4-12.4c-1.1-1.2-1.6-1.8-2.7-3C429.2,849.9,430,849.1,431.8,847.5z"/>
					<path class="jwColorWhite" d="M412.7,823.8c2,2.7,2.9,4,5,6.6c-3.2,7.8-4.7,11.7-7.5,19.8c5.6-4.7,8.4-7,14-11.7c2,2.4,3,3.6,5.1,6
						c-7.6,6.7-15.2,13.4-22.8,20.1c-2.4-2.8-3.6-4.1-5.9-7c2.7-8.2,4.1-12.3,7.2-20.2c-5.8,4.4-8.7,6.7-14.5,11.1
						c-2.1-2.8-3.2-4.1-5.2-7C396.2,835.7,404.5,829.7,412.7,823.8z"/>
				</g>
			</g>
			<g>
				<g>
					<path class="jwColorWhite" d="M863.8,405.2c-3.4,7.4-5.1,11.1-8.8,18.3c6.6-4.5,10-6.8,16.8-11.1c2.7,2.6,4.1,3.9,6.8,6.5
						c-9.3,5-18.4,10.3-27.3,15.9c-2.4-2.3-3.6-3.4-6.1-5.6c3.4-7.1,5.1-10.6,8.3-17.8c-6.6,4.3-9.8,6.5-16.2,11.1
						c-2.6-2.1-3.9-3.1-6.5-5.2c4-9.7,7.8-19.6,11.2-29.6c3,2.2,4.6,3.3,7.5,5.6c-3.2,7.4-4.8,11.1-8.2,18.4
						c6.6-4.8,9.9-7.1,16.7-11.6C860.2,402.2,861.4,403.2,863.8,405.2z"/>
					<path class="jwColorWhite" d="M868.7,452.5c-4.2-4.7-6.4-6.9-10.8-11.4c1.7-1.7,2.6-2.6,4.3-4.3c1.1,1.1,1.7,1.7,2.8,2.8
						c5.2-5.1,7.8-7.7,13-12.8c-1.2-1.2-1.8-1.8-3-3c1.7-1.7,2.6-2.6,4.3-4.3c4.9,4.9,7.3,7.4,12,12.5c-1.8,1.6-2.7,2.4-4.5,4.1
						c-1.1-1.3-1.7-1.9-2.9-3.1c-5.3,5-8,7.4-13.4,12.4c1.1,1.2,1.6,1.8,2.7,3C871.3,450.1,870.4,450.9,868.7,452.5z"/>
					<path class="jwColorWhite" d="M887.8,476.2c-2-2.7-2.9-4-5-6.6c3.2-7.8,4.7-11.7,7.5-19.8c-5.6,4.7-8.4,7-14,11.7c-2-2.4-3-3.6-5.1-6
						c7.6-6.7,15.2-13.4,22.8-20.1c2.4,2.8,3.6,4.1,5.9,7c-2.7,8.2-4.1,12.3-7.2,20.2c5.8-4.4,8.7-6.7,14.5-11.1
						c2.1,2.8,3.2,4.1,5.2,7C904.2,464.3,896.1,470.3,887.8,476.2z"/>
				</g>
			</g>
			<g>
				<g>
					<path class="jwColorWhite" d="M672.3,974.1c-2.8-7.6-4.2-11.5-6.8-19.2c-1.5,7.9-2.3,11.9-4,19.7c-3.8,0.1-5.6,0.2-9.4,0.2
						c3-10.1,5.7-20.3,8.1-30.6c3.3-0.1,5-0.2,8.3-0.4c2.6,7.4,3.9,11.1,6.8,18.4c1.6-7.7,2.3-11.6,3.7-19.3
						c3.3-0.3,4.9-0.5,8.2-0.9c4,9.7,8.4,19.4,13,28.8c-3.7,0.6-5.6,0.9-9.3,1.3c-3-7.5-4.4-11.3-7.2-18.8c-1.3,8-2,12-3.6,20
						C676.9,973.8,675.4,973.9,672.3,974.1z"/>
					<path class="jwColorWhite" d="M635.5,944.1c6.3,0.3,9.4,0.4,15.7,0.4c0,2.4,0,3.6,0,6.1c-1.6,0-2.4,0-4,0c-0.1,7.3-0.1,10.9-0.2,18.2
						c1.7,0,2.6,0,4.3,0c0,2.4,0,3.6,0,6.1c-6.9,0-10.4-0.1-17.3-0.4c0.1-2.4,0.2-3.6,0.3-6.1c1.7,0.1,2.5,0.1,4.2,0.2
						c0.3-7.3,0.4-10.9,0.7-18.2c-1.6-0.1-2.4-0.1-4-0.2C635.2,947.7,635.3,946.5,635.5,944.1z"/>
					<path class="jwColorWhite" d="M605,940.9c3.3,0.5,4.9,0.8,8.2,1.2c3.2,7.8,5,11.6,8.7,19.3c0.7-7.3,1-10.9,1.7-18.2
						c3.1,0.3,4.7,0.4,7.8,0.6c-0.7,10.1-1.3,20.2-2,30.3c-3.7-0.2-5.5-0.4-9.1-0.7c-3.9-7.7-5.8-11.6-9.1-19.4
						c-0.9,7.2-1.4,10.9-2.4,18.1c-3.4-0.4-5.2-0.7-8.6-1.2C602,960.9,603.5,950.9,605,940.9z"/>
				</g>
			</g>
			<g>
				<g>
					<path class="jwColorWhite" d="M628.2,325.9c2.8,7.6,4.2,11.5,6.8,19.2c1.5-7.9,2.3-11.9,4-19.7c3.8-0.1,5.6-0.2,9.4-0.2
						c-3,10.1-5.7,20.3-8.1,30.6c-3.3,0.1-5,0.2-8.3,0.4c-2.6-7.4-3.9-11.1-6.8-18.4c-1.6,7.7-2.3,11.6-3.7,19.3
						c-3.3,0.3-4.9,0.5-8.2,0.9c-4-9.7-8.4-19.4-13-28.8c3.7-0.6,5.6-0.9,9.3-1.3c3,7.5,4.4,11.3,7.2,18.8c1.3-8,2-12,3.6-20
						C623.5,326.2,625,326.1,628.2,325.9z"/>
					<path class="jwColorWhite" d="M665,355.9c-6.3-0.3-9.4-0.4-15.7-0.4c0-2.4,0-3.6,0-6.1c1.6,0,2.4,0,4,0c0.1-7.3,0.1-10.9,0.2-18.2
						c-1.7,0-2.6,0-4.3,0c0-2.4,0-3.6,0-6.1c6.9,0,10.4,0.1,17.3,0.4c-0.1,2.4-0.2,3.6-0.3,6.1c-1.7-0.1-2.5-0.1-4.2-0.2
						c-0.3,7.3-0.4,10.9-0.7,18.2c1.6,0.1,2.4,0.1,4,0.2C665.2,352.3,665.2,353.5,665,355.9z"/>
					<path class="jwColorWhite" d="M695.4,359.1c-3.3-0.5-4.9-0.8-8.2-1.2c-3.2-7.8-5-11.6-8.7-19.3c-0.7,7.3-1,10.9-1.7,18.2
						c-3.1-0.3-4.7-0.4-7.8-0.6c0.7-10.1,1.3-20.2,2-30.3c3.7,0.2,5.5,0.4,9.1,0.7c3.9,7.7,5.8,11.6,9.1,19.4
						c0.9-7.2,1.4-10.9,2.4-18.1c3.4,0.4,5.2,0.7,8.6,1.2C698.6,339.1,696.9,349.1,695.4,359.1z"/>
				</g>
			</g>
			<g>
				<g>
					<path class="jwColorWhite" d="M895.1,863.5c-7.4-3.4-11.1-5.1-18.3-8.8c4.5,6.6,6.8,10,11.1,16.8c-2.6,2.7-3.9,4.1-6.5,6.8
						c-5-9.3-10.3-18.4-15.9-27.3c2.3-2.4,3.4-3.6,5.6-6.1c7.1,3.4,10.6,5.1,17.8,8.3c-4.3-6.6-6.5-9.8-11.1-16.2
						c2.1-2.6,3.1-3.9,5.2-6.5c9.7,4,19.6,7.8,29.6,11.2c-2.2,3-3.3,4.6-5.6,7.5c-7.4-3.2-11.1-4.8-18.4-8.2
						c4.8,6.6,7.1,9.9,11.6,16.7C898.1,860,897.1,861.2,895.1,863.5z"/>
					<path class="jwColorWhite" d="M847.8,868.4c4.7-4.2,6.9-6.4,11.4-10.8c1.7,1.7,2.6,2.6,4.3,4.3c-1.1,1.1-1.7,1.7-2.8,2.8
						c5.1,5.2,7.7,7.8,12.8,13c1.2-1.2,1.8-1.8,3-3c1.7,1.7,2.6,2.6,4.3,4.3c-4.9,4.9-7.4,7.3-12.5,12c-1.6-1.8-2.4-2.7-4.1-4.5
						c1.3-1.1,1.9-1.7,3.1-2.9c-5-5.3-7.4-8-12.4-13.4c-1.2,1.1-1.8,1.6-3,2.7C850.2,871.1,849.3,870.2,847.8,868.4z"/>
					<path class="jwColorWhite" d="M824.1,887.6c2.7-2,4-2.9,6.6-5c7.8,3.2,11.7,4.7,19.8,7.5c-4.7-5.6-7-8.4-11.7-14c2.4-2,3.6-3,6-5.1
						c6.7,7.6,13.4,15.2,20.1,22.8c-2.8,2.4-4.1,3.6-7,5.9c-8.2-2.7-12.3-4.1-20.2-7.2c4.4,5.8,6.7,8.7,11.1,14.5
						c-2.8,2.1-4.1,3.2-7,5.2C835.9,904,829.9,895.8,824.1,887.6z"/>
				</g>
			</g>
			<g>
				<g>
					<path class="jwColorWhite" d="M405.5,436.5c7.4,3.4,11.1,5.1,18.3,8.8c-4.5-6.6-6.8-10-11.1-16.8c2.6-2.7,3.9-4.1,6.5-6.8
						c5,9.3,10.3,18.4,15.9,27.3c-2.3,2.4-3.4,3.6-5.6,6.1c-7.1-3.4-10.6-5.1-17.8-8.3c4.3,6.6,6.5,9.8,11.1,16.2
						c-2.1,2.6-3.1,3.9-5.2,6.5c-9.7-4-19.6-7.8-29.6-11.2c2.2-3,3.3-4.6,5.6-7.5c7.4,3.2,11.1,4.8,18.4,8.2
						c-4.8-6.6-7.1-9.9-11.6-16.7C402.5,440,403.5,438.8,405.5,436.5z"/>
					<path class="jwColorWhite" d="M452.8,431.6c-4.7,4.2-6.9,6.4-11.4,10.8c-1.7-1.7-2.6-2.6-4.3-4.3c1.1-1.1,1.7-1.7,2.8-2.8
						c-5.1-5.2-7.7-7.8-12.8-13c-1.2,1.2-1.8,1.8-3,3c-1.7-1.7-2.6-2.6-4.3-4.3c4.9-4.9,7.4-7.3,12.5-12c1.6,1.8,2.4,2.7,4.1,4.5
						c-1.3,1.1-1.9,1.7-3.1,2.9c5,5.3,7.4,8,12.4,13.4c1.2-1.1,1.8-1.6,3-2.7C450.3,428.9,451.2,429.8,452.8,431.6z"/>
					<path class="jwColorWhite" d="M476.5,412.4c-2.7,2-4,2.9-6.6,5c-7.8-3.2-11.7-4.7-19.8-7.5c4.7,5.6,7,8.4,11.7,14c-2.4,2-3.6,3-6,5.1
						c-6.7-7.6-13.4-15.2-20.1-22.8c2.8-2.4,4.1-3.6,7-5.9c8.2,2.7,12.3,4.1,20.2,7.2c-4.4-5.8-6.7-8.7-11.1-14.5
						c2.8-2.1,4.1-3.2,7-5.2C464.5,396,470.5,404.2,476.5,412.4z"/>
				</g>
			</g>
		</g>
	</g>
	<path id="wheel-1-hilight-light" class="jwColorLight blinking-light" d="M650.6,299.5c-4.3,0-8.6,0.1-12.9,0.2c0,0-0.1,0-0.1,0c-1.2,0-2.3,0-3.6,0.1
		c-2.9,0.1-5.8,0.3-8.7,0.5c-1.2,0.1-2.5,0.2-3.7,0.3c-1.2,0.1-2.4,0.3-3.7,0.4c-12.1,1.1-24.1,2.9-36,5.2L650.3,650l68.4-343.8
		C696.2,301.8,673.4,299.5,650.6,299.5"/>
	<path id="wheel-1-hilight-dark" class="jwColorShadow2 blinking-dark" d="M724,307.5l-74,372l-74-372c-158,34-276.4,174.4-276.4,342.5
	c0,193.5,156.9,350.4,350.4,350.4s350.4-156.9,350.4-350.4C1000.4,481.9,882,341.5,724,307.5z"/>
	<path id="jwWheel1-shadow" class="jwColorShadow" d="M650.2,509.3c-73.3,0-132.7,59.4-132.7,132.7S577,774.7,650.2,774.7
	S782.9,715.3,782.9,642S723.6,509.3,650.2,509.3z M650.2,766.6c-64.4,0-116.6-52.2-116.6-116.6s52.2-116.6,116.6-116.6
	S766.8,585.6,766.8,650S714.7,766.6,650.2,766.6z"/>
</g>
<g id="jwWheels-indicator" class="jwsIndicatorAnimated">
	<g class="indicator" id="#jwWheelIndicator">
		<path id="indicator-bg" class="jwColorGold" d="M650.3,1262.9c31.6,0,62.7-1.8,93.3-5.3c0.1,0,0.2,0,0.2,0c21.7-2.5,43.4-5.9,65.1-10.3
			L682.5,612c-7-35.2-57.4-35.2-64.4,0l-126.4,635.5C543.1,1257.6,596.1,1262.9,650.3,1262.9z"/>

		<path id="indicator-shadow" class="jwColorShadow" d="M650,1214.4c35,0,103-8.4,119.3-11.7l2.1-9.7l-97.1-465.1c-5.3-26.5-43.2-26.5-48.4,0
			l-97.2,465.2l2.2,9.7C569.4,1210.4,615,1214.4,650,1214.4z"/>
	</g>
	<ellipse id="center" class="jwColorGold" cx="650" cy="650" rx="99.3" ry="99.3"/>
	<g id="jwWheel-lion_logo">			
		<linearGradient id="lion-light_2_" gradientUnits="userSpaceOnUse" x1="567.0874" y1="198.4297" x2="738.7401" y2="-61.9797" gradientTransform="matrix(-1 0 0 -1 1303.8 1299.8761)">
			<stop  offset="0" style="stop-color:#361616"/>
			<stop  offset="0.5006" style="stop-color:#761C15"/>
			<stop  offset="1" style="stop-color:#943520"/>
		</linearGradient>
		<path id="lion-light_1_" class="jwColorGradient1" d="M650.2,1174.3c32.1,0,58.3,26.2,58.3,58.3s-26.2,58.3-58.3,58.3
			c-32.1,0-58.3-26.2-58.3-58.3C591.9,1200.6,618.1,1174.3,650.2,1174.3"/>
		
		<linearGradient id="lion-dark_2_" gradientUnits="userSpaceOnUse" x1="706.8975" y1="13.9324" x2="601.8958" y2="118.9343" gradientTransform="matrix(-1 0 0 -1 1303.8 1299.8761)">
			<stop  offset="0" style="stop-color:#561C0E"/>
			<stop  offset="0.9297" style="stop-color:#361616"/>
		</linearGradient>
		<path id="lion-dark_1_" class="jwColorGradient2" d="M650.2,1178.7c29.7,0,53.9,24.2,53.9,53.9c0,29.7-24.2,53.9-53.9,53.9
			c-29.7,0-53.9-24.2-53.9-53.9S620.5,1178.7,650.2,1178.7"/>
		<path id="lion-white_1_" class="jwColorLionWhite" d="M649,1213.7c-2.3-1.4-5.8-2.6-9.1-2.6c-0.9,0-1.2-0.9-0.6-2c0.6-0.9,1.2-2,1.4-3.2
			c0.9-2.3,4.4-4.4,5.8-5.5c1.2-0.9,2.3-2.9,2.9-3.8c0-0.3,0.3-0.3,0.6,0c0.6,0.9,2,2.9,3.2,3.8c0.9,0.6,2,1.2,3.5,2.3
			c1.5,1.2,2.9,2.9,3.5,4.4c0.3,0.6,0,1.4-0.6,1.8c-3.2,0.6-6.4,2.6-8.7,4.7C650.5,1214,649.6,1214.3,649,1213.7L649,1213.7z
			 M604.7,1226.8l23,4.7l-22.7,1.4l0,0c0,1.8,0,3.8,0.3,5.5l22.7-1.4l-21.8,7.3c0.3,2,1.2,3.8,1.8,5.5l16.6-3.8l-14.3,9.1
			c1.2,1.8,2,3.5,3.2,5l14-7.6c-0.3-0.9-0.6-2-0.9-2.9c-0.6-1.2-0.3-5,0-6.7c0.3-1.8,3.2-3.5,5-4.7c1.4-0.9,2.3-2,2.6-3.5
			c0.3-0.9,0.6-2,0.6-2.6c0.9,0.6,2,1.8,2.3,1.4c0.6-0.3-1.2-2.3-2.3-5.8c-0.3-1.4-0.9-4.7-0.3-7c0.6-2.3,1.2-3.8,2.6-5
			c1.2-0.9,5-1.8,6.7-1.4c2,0.3,3.2,0.9,4.1,2c0.9,1.2,1.2,2.9,1.2,3.8c-0.3,1.2-1.2,2.9-3.5,5c-2,2-3.5,2-4.4,2.6
			c-0.3,0.3-0.6,0.6-0.6,1.2s-0.3,1.2,0,1.2s0.6,0,0.9-0.3c0.3-0.3,0.9-0.9,1.2-0.9l0,0c0,0.6,0.3,0.9,0.9,1.4
			c0.9,0.9,4.1-1.4,6.7-1.4c2.3,0,4.7,1.4,6.1,0.9c0.6-0.3,0.9-0.6,0.9-0.9c0-0.6,0-0.6,0-0.6c0.3,0,0.6,0.6,0.9,0.9
			c0.3,0.3,0.6,0.6,0.9,0.3c0.3-0.3,0-0.6-0.3-1.2s-0.6-1.2-0.9-1.4c-0.6-0.9-2.3-2.3-3.5-2.9c-1.2-0.9-2.3-2.6-2.6-4.1
			c-0.3-2,1.4-4.1,1.4-4.1s3.8-2.9,5.2-3.2s3.5-0.9,4.1,0c0.9,1.2,3.2,5.2,3.5,8.5c0.3,2,0,3.5-0.6,5c-0.3,0.9-0.9,2-1.2,2.9
			c-1.4,3.5-2.9,4.7-2.6,5c0.3,0.3,2.3-0.6,3.2-2c0,0,0.3,0.3,0.3,0.6s0.3,0.6,0.6,0.9c0,0.3,0.3,0.6,0.6,0.9
			c1.2,1.4,3.5,2.9,5.2,4.7c1.4,1.8,1.2,4.4,1.2,8.5c0,2.6-0.3,4.4-0.6,5l15.2,7l2.9-5l-14.6-9.1l17.2,4.1c0.6-1.8,1.2-3.8,1.8-5.5
			l-20.7-6.7l21.8,1.2c0.3-0.9,0.3-1.4,0.3-2.3v-1.2c0-0.6,0-1.4,0-2v-0.3l-23-1.4l22.7-4.4c-0.3-1.8-0.6-3.8-1.2-5.5l-22.7,4.7
			l20.7-9.9c-0.9-1.8-1.8-3.5-2.6-5.2l-20.7,9.9l17.8-14.9c-1.2-1.4-2.3-2.9-3.8-4.4l-17.5,14.6l13.4-18.6c-1.4-1.2-2.9-2.3-4.7-3.2
			l-10.8,14l5.8-16.9c-1.8-0.9-3.8-1.4-5.5-2l-5.8,11.7l0.3-13.1c-1.8-0.3-3.8-0.6-5.8-0.6l-2.6,7.9l-2.3-7.6
			c-2,0.3-3.8,0.6-5.8,0.9l0.9,13.7l-6.4-12.5c-2,0.6-3.8,1.2-5.5,2l7,18.4L626,1195c-1.8,1.2-3.2,2.3-4.7,3.5l11.9,16.3l-16.3-12.8
			c-1.4,1.4-2.6,2.9-3.8,4.4l17.8,14.6l-20.7-9.6c-0.9,1.8-1.8,3.5-2.3,5.2l20.7,9.6l-22.4-4.1C605.3,1223,605,1224.8,604.7,1226.8
			L604.7,1226.8z M679.6,1267.6l4.1-3.8l-6.1-5.8c-0.3,1.4-1.8,3.2-3.2,4.7l0.3,0.3L679.6,1267.6L679.6,1267.6z M656.6,1241.1
			c-0.6,0.3-0.3,0.9-0.3,1.8c0,1.4,0.3,3.5,0.6,4.4c0.3,1.2,3.5,1.8,5.2,1.8c2,0.3,3.8-1.2,5-2c0.3-0.3,0.3-0.6,0-0.9
			c-0.6-0.3-1.4,0-1.4,0s-0.6-0.6-1.2-0.9c-0.6-0.3-1.8,0-3.8-1.2c-0.9-0.6-0.9-1.4-1.4-1.8c-0.6-0.3-1.2-0.3-1.4-0.3
			C657.5,1241.6,657.2,1240.8,656.6,1241.1L656.6,1241.1z M656.9,1248.4c-2.6-0.3-4.4,1.4-1.2,2.6c1.8,0.6,3.8,4.1,4.7,4.7
			c1.8,1.2,6.1,1.2,7.6-0.6c1.4-1.4,0.9-3.5-0.3-3.2c-1.8,0.6-4.4,2.6-7,0C659.3,1250.4,658.3,1248.6,656.9,1248.4L656.9,1248.4z
			 M632.4,1246.6c-0.3,0.3-0.3,0.9-0.3,0.9c1.2,0.9,3.2,2.3,5.2,2.3c1.8,0,5.2-0.9,5.5-2c0.6-1.2,1.4-5.8,0.6-6.1
			c-0.6-0.3-1.2,0.9-1.2,0.9s-5.8,1.4-6.4,1.8c-0.6,0.3-2,2.3-2,2.3S633,1246.3,632.4,1246.6L632.4,1246.6z M638,1253.3
			c-5,0.9-6.1-4.4-5.8-4.1c-0.3-0.3-0.6-0.3-0.6,0.3c0,1.4,0.6,3.2,0.9,3.8c0.6,1.4,1.2,2.3,2,2.6c0.8,0.3,2.3,0.3,3.8,0.3
			c2,0,3.2-0.3,5.2-2.3c0.9-0.9,1.8-0.9,2-1.8c0.3-0.9,0-2.3-0.9-1.8C643.8,1250.7,641.5,1252.5,638,1253.3L638,1253.3z
			 M674.1,1271.7c0.3-0.3,0.6-0.3,0.6-0.6l-3.2-6.1l-0.3-0.3l0,0c-2.3,1.2-4.7,1.4-5.2,0.9c-0.9-0.9-2-3.8-2-3.8s-1.2,1.4-6.1,1.4
			c-5,0-7.6-3.8-7.6-3.8s-1.4,3.8-7,3.8c-2.9,0-5.2-1.2-6.7-1.4c-0.6,0-1.8,1.4-2.9,3.5c-0.6,1.2-2.6,0.9-4.4,0l-3.2,6.1
			c1.4,1.2,3.2,2,5,2.9l6.4-9.1l-1.2,11.1c1.8,0.6,3.5,1.2,5.5,1.4l4.4-12.2l1.2,12.8c0.9,0,2,0,2.9,0s2,0,2.9,0l1.8-13.1l4.3,12.5
			c1.8-0.3,3.8-0.9,5.5-1.4l-1.2-10.8l6.4,8.5c0.3-0.3,0.6-0.3,0.9-0.6L674.1,1271.7L674.1,1271.7z M616.7,1263.8
			c1.4,1.4,2.9,2.9,4.4,4.1l5.2-4.7H626c-1.8-1.8-3.2-2.9-3.2-5.2v-0.3L616.7,1263.8L616.7,1263.8z M650.2,1282.8
			c-27.7,0-50.1-22.4-50.1-50.1s22.4-50.1,50.1-50.1c27.7,0,50.1,22.4,50.1,50.1C700.3,1260.3,677.9,1282.8,650.2,1282.8
			L650.2,1282.8z"/>
	</g>
</g>
<g id="indicator-arrow">
	<circle id="win-circle_2_" class="jwColorGold" cx="650" cy="68" r="59"/>
	<polygon class="jwColorWhite" id="jwArrow" points="650.1,89.8 672,51.8 628.2,51.8"/>
	<path id="win-circle-shadow_1_" class="jwColorShadow" d="M708.9,64.2c0.1,1.3,0.1,2.6,0.1,3.9c0,32.5-26.4,58.9-58.9,58.9
		s-58.9-26.4-58.9-58.9c0-1.3,0.1-2.6,0.1-3.9c2,30.7,27.5,55,58.8,55S706.9,95,708.9,64.2z M669.7,55.9l2.4-4.1h-43.8l2.4,4.1
		H669.7z"/>
</g>
<mask id="indicatorArrowMask">
	<circle id="indicator-arrow-mask-white" class="jwColorWhite" cx="650" cy="68" r="60"/>
	<circle id="indicator-arrow-mask-black" cx="650" cy="68" r="60"/>
</mask>
</svg>