<svg width="500" height="500" viewBox="0 0 500 500" fill="none" xmlns="http://www.w3.org/2000/svg">
<path d="M295.435 227.711C291.744 219.209 277.748 187.82 276.14 184.006C274.531 180.193 271.115 178.4 266.979 181.981C262.844 185.562 248.483 197.526 248.483 197.526C248.483 197.526 273.05 235.976 276.083 240.665C279.117 245.354 281.991 250.439 280.827 254.13C280.827 254.13 290.129 246.695 294.264 242.163C298.4 237.632 299.127 236.211 295.436 227.709L295.435 227.711Z" fill="white"/>
<path d="M265.43 249.523C269.592 249.39 273.077 248.944 270.296 244.301C267.515 239.657 245.594 207.012 243.597 204.214C241.6 201.416 238.906 198.473 229.496 198.13C220.087 197.787 190.511 196.727 184.324 196.093C178.137 195.457 174.693 196.169 178.257 202.32C181.82 208.472 198.252 236.544 200.71 240.465C203.168 244.386 204.442 248.746 214.484 249.022C224.526 249.301 261.269 249.657 265.43 249.523ZM205.86 213.794C204.374 216.548 199.468 216.785 194.905 214.322C190.342 211.859 187.849 207.629 189.336 204.873C190.823 202.119 195.728 201.882 200.292 204.345C204.855 206.808 207.348 211.038 205.86 213.794ZM240.862 232.69C242.348 229.936 247.254 229.699 251.817 232.162C256.38 234.625 258.873 238.855 257.385 241.611C255.899 244.365 250.993 244.602 246.43 242.139C241.867 239.676 239.374 235.446 240.862 232.69ZM223.678 206.221C225.165 203.467 230.07 203.23 234.633 205.693C239.197 208.156 241.689 212.386 240.202 215.142C238.715 217.896 233.81 218.133 229.247 215.67C224.683 213.207 222.191 208.977 223.678 206.221ZM211.438 240.855C206.875 238.392 204.382 234.162 205.87 231.406C207.356 228.652 212.262 228.415 216.825 230.878C221.388 233.341 223.881 237.571 222.394 240.327C220.907 243.081 216.002 243.318 211.438 240.855Z" fill="white"/>
<path d="M194.66 245.215C191.783 239.679 174.425 209.508 172.381 206.227C170.337 202.946 167.824 200.479 165.383 206.185C162.941 211.892 150.827 242.057 146.768 251.884C142.71 261.71 144.617 264.274 146.579 268.546C148.542 272.818 164.106 304.035 166.985 309.572C169.861 315.108 172.798 311.782 175.156 307.066C177.515 302.351 191.167 271.49 194.894 261.978C198.621 252.466 197.539 250.752 194.66 245.215ZM167.641 242.102C164.515 241.925 162.219 237.583 162.513 232.406C162.808 227.229 165.58 223.177 168.706 223.354C171.832 223.531 174.128 227.872 173.833 233.049C173.538 238.226 170.766 242.278 167.641 242.102ZM169.868 293.673C166.743 293.495 164.447 289.155 164.741 283.978C165.036 278.801 167.808 274.749 170.934 274.926C174.059 275.104 176.355 279.444 176.061 284.621C175.766 289.798 172.994 293.85 169.868 293.673Z" fill="white"/>
<path d="M270.241 262.5C272.687 257.191 269.497 256.863 264.066 256.804C258.632 256.747 226.038 256.401 216.363 256.181C206.687 255.961 203.389 261.53 201.199 266.634C199.012 271.737 184.735 304.678 181.026 312.91C177.316 321.141 182.313 320.022 186.65 319.983C190.987 319.944 221.497 319.33 232.848 319.098C244.199 318.868 247.445 312.703 249.514 308.035C251.584 303.367 267.796 267.813 270.243 262.501L270.241 262.5ZM218.918 276.631C214.982 280.005 210.139 280.815 208.101 278.437C206.063 276.061 207.604 271.398 211.541 268.023C215.477 264.649 220.32 263.839 222.358 266.217C224.396 268.593 222.856 273.256 218.918 276.631ZM230.63 293.787C226.694 297.161 221.851 297.97 219.813 295.592C217.775 293.216 219.315 288.554 223.253 285.178C227.189 281.804 232.032 280.994 234.07 283.372C236.108 285.749 234.567 290.411 230.63 293.787ZM240.047 310.138C236.111 313.512 231.267 314.322 229.23 311.944C227.192 309.567 228.732 304.905 232.669 301.529C236.606 298.155 241.449 297.346 243.487 299.724C245.525 302.1 243.984 306.762 240.047 310.138Z" fill="white"/>
<path d="M350.888 246.872C343.813 245.998 321.073 242.894 314.398 242.095C307.721 241.296 304.298 241.67 297.428 248.586C290.558 255.501 274.554 270.238 274.554 270.238L265.937 288.945C265.937 288.945 296.343 293.061 300.805 293.492C305.268 293.922 308.678 294.518 315.603 287.952C322.528 281.388 348.429 256.685 351.278 253.555C354.128 250.425 357.964 247.747 350.888 246.872ZM310.027 272.637C305.618 274.668 301.184 274.452 300.125 272.154C299.067 269.855 301.783 266.346 306.193 264.313C310.603 262.283 315.037 262.498 316.096 264.797C317.154 267.095 314.438 270.605 310.027 272.637Z" fill="white"/>
<path d="M303.114 226.776C307.556 234.361 311.557 234.467 316.451 235.15C321.344 235.832 347.591 239.326 352.577 239.804C357.564 240.282 356.299 237.468 354.491 233.495C352.684 229.522 336.834 197.176 333.352 190.2C329.869 183.225 324.499 182.321 320.912 181.495C317.325 180.67 302.818 177.595 302.818 177.595C302.818 177.595 293.663 175.648 286.656 174.397C279.552 173.128 280.207 175.477 281.826 179.86C283.445 184.243 298.674 219.194 303.115 226.778L303.114 226.776ZM333.703 218.396C335.646 216.775 339.743 218.481 342.854 222.208C345.965 225.935 346.912 230.272 344.971 231.893C343.03 233.515 338.931 231.808 335.82 228.081C332.709 224.354 331.761 220.017 333.703 218.396ZM318.891 228.292C316.948 229.913 312.851 228.207 309.74 224.48C306.629 220.753 305.682 216.416 307.624 214.794C309.566 213.173 313.663 214.879 316.774 218.606C319.885 222.333 320.832 226.67 318.891 228.292ZM324.46 214.323C322.518 215.944 318.421 214.238 315.31 210.511C312.199 206.784 311.25 202.447 313.193 200.826C315.136 199.204 319.233 200.911 322.344 204.638C325.455 208.365 326.402 212.701 324.46 214.323ZM318.356 188.182C320.299 186.561 324.396 188.267 327.509 191.995C330.62 195.722 331.567 200.059 329.625 201.681C327.683 203.302 323.586 201.596 320.473 197.868C317.362 194.141 316.414 189.804 318.356 188.182ZM292.883 182.617C294.825 180.996 298.922 182.702 302.033 186.429C305.144 190.156 306.091 194.493 304.15 196.114C302.207 197.736 298.11 196.029 294.999 192.302C291.888 188.575 290.941 184.239 292.883 182.617Z" fill="white"/>
</svg>
