<?xml version="1.0" encoding="UTF-8"?>
<svg id="Layer_1" xmlns="http://www.w3.org/2000/svg" version="1.1" viewBox="0 0 1366 378.6">
  <!-- Generator: Adobe Illustrator 29.5.0, SVG Export Plug-In . SVG Version: 2.1.0 Build 137)  -->
  <defs>
    <style>
      .st0 {
        opacity: .3;
      }
    </style>
  </defs>
  <path d="M292.9,150.4l-51.4-88h7.5l48.5,80.5,48.5-80.5h7.5l-51.4,88,42.1,69.8h-10.3l-36.3-62.1-36.3,62.1h-10.3l41.9-69.8ZM186.9,276h-44.5l13.8-22.7h37l7.5-7h-66.7l-45,69.9h28.8l20.7-33.7h43.1l5.3-6.5ZM199.5,266.3c0,11.7,18.3,13.6,30.6,16.7s20,7.3,20,13-7.3,11.6-28.4,11.6-28.9-3.9-28.9-3.9l-7.2,8.3s14,4.5,42.3,4.2c46.1-.5,50.6-18.3,50.6-22.5s-2.8-10.3-24.4-16.1c-21.5-5.8-27.6-8.9-27.6-13.7s5.8-11.2,22.6-11.2,29.4,2,29.4,2l6.9-5.2s-7.8-4.2-37.5-4.2c-29.7-.1-48.4,9.3-48.4,21ZM509.7,315.8l-55.5-72h-22.7l-47,61-37.7-28.5,52.1-32.6h-26.9l-41.5,27.5v15.3l41.5,29.3h31l39.9-57.4,21.9,31.5h-34l-5.9,7.3h45.1l12.9,18.6h26.8ZM293.8,243.7l-.6,72.1h30.1l-.7-72.1h-28.8ZM228.4,123.1h-45.3c-4.9,0,57.4,2.6,62.6,2.9,6.8.4,3.5,8.7-8.9,8.7-19.8,0-44,.5-48.5.5,15.2,1.3,52.2,2.7,55.4,3,14.1,1.3,7.8,10.1-7.2,10.2-19.8,0-34.7.6-41.3.6,15.1,1.5,48.7,3,51.1,3.2,9.1.7,4.3,11.1-11.7,11.1s-30.4.2-36.3.2c4.1.7,40.9,4,47.4,4s1.6,9.8-10.7,9.8h-31.1c-7.1,0,33.5,3,37.3,3.7,2.5.5.3,7.1-8.8,7.2-18.1.4-24.5,1.1-26.5,1.1s19.4,2.1,28,3.2c3.7.5-1.8,4.8-11,6.6-7.8,1.5-18.8,2.3-18.8,2.3,0,0,6.5.9,16.8.6,30.9-.8,45-32,45-53.7s-14.8-33.8-19-34.6c-4.3-.7-48,.4-55.3.4,21.7.5,48.2,2.9,51.2,2.9,2.5-.2,12,6.1-14.4,6.1ZM352.1,116.8c3.1,0,29.5-2.4,51.2-2.9-7.4,0-51-1-55.3-.4-4.2.9-19,9.1-19,34.6s14.1,52.9,45,53.7c10.3.3,16.8-.6,16.8-.6,0,0-11-.7-18.8-2.3-9.2-1.8-14.7-6.1-11-6.6,8.6-1.1,30-3.2,28-3.2s-8.4-.7-26.5-1.1c-9.2-.2-11.4-6.8-8.8-7.2,3.8-.7,44.4-3.7,37.3-3.7h-31.1c-12.4,0-17.3-9.8-10.7-9.8s43.3-3.3,47.4-4c-5.8,0-16.5-.2-36.3-.2s-20.7-10.4-11.7-11.1c2.4-.2,35.9-1.8,51.1-3.2-6.6,0-21.5-.5-41.3-.6-15,0-21.3-8.9-7.2-10.2,3.2-.3,40.2-1.7,55.4-3-4.5,0-28.7-.5-48.5-.5s-15.7-8.3-8.9-8.7c5.2-.3,67.5-2.9,62.6-2.9h-45.3c-26.5.2-16.9-6.1-14.4-6.1Z"/>
  <path d="M1134.9,139c-9.8-23.2-26.2-42.9-46.8-56.8-10.3-7-21.7-12.5-33.8-16.2-12.1-3.8-25-5.8-38.4-5.8s-34.8,3.6-50.2,10.1c-23.2,9.8-42.9,26.2-56.8,46.8-7,10.3-12.5,21.7-16.2,33.8-3.8,12.1-5.8,25-5.8,38.4s3.6,34.8,10.1,50.2c9.8,23.2,26.2,42.9,46.8,56.8,10.3,7,21.7,12.5,33.8,16.2,12.1,3.8,25,5.8,38.4,5.8s34.8-3.6,50.2-10.1c23.2-9.8,42.9-26.2,56.8-46.8,7-10.3,12.5-21.7,16.2-33.8,3.8-12.1,5.8-25,5.8-38.4,0-17.8-3.6-34.7-10.1-50.2ZM1097.5,252.6c-11.4,0-17.7-8.4-14.5-8.4h33.2c-1.6,2.9-3.3,5.7-5.1,8.4h-13.6ZM1108,257c-2.1,2.8-4.3,5.6-6.6,8.2-10.3-3.6-11.6-8.2-6.2-8.2h12.8ZM1094.1,239.2c-15.3,0-26.7-10.8-18.6-10.8h47.8c-.7,1.8-1.4,3.6-2.1,5.3-.8,1.9-1.6,3.7-2.5,5.5h-24.6ZM1094.6,223.3c-19.8,0-28.4-12.4-22.2-12.4h55.8c-.8,4.2-1.8,8.4-3.1,12.4h-30.5ZM1090.8,205.5c-18.6-.1-24.9-11.3-20.9-11.4,3.7-.1,38.8,0,60.2,0-.2,3.9-.5,7.7-1.1,11.4-9.8.1-23.1.1-38.2,0ZM1129.8,179c.3,3.1.4,6.3.4,9.5-11.1,0-24.8.1-37.3.1s-19.9-9.7-15.9-9.6c2.4.1,30.5.1,52.8,0ZM1084.4,165.8h43.4c.5,2.5,1,5.1,1.3,7.7h-26.9c-19.9,0-20.9-7.7-17.8-7.7ZM982,80.1c10.7-3.3,22.1-5.1,34-5.1s30.8,3.2,44.5,9c6.6,2.8,12.8,6.2,18.7,10.1l-63.2,104.8-63.2-104.9c8.9-5.9,18.7-10.6,29.2-13.9ZM934.4,252.6h-13.6c-1.8-2.7-3.5-5.5-5.1-8.4h33.2c3.2-.1-3.1,8.4-14.5,8.4ZM930.6,265.2c-2.3-2.6-4.5-5.3-6.6-8.2h12.8c5.3,0,4,4.6-6.2,8.2ZM937.8,239.2h-24.7c-1.7-3.5-3.3-7.1-4.6-10.8h47.8c8.2,0-3.1,10.8-18.5,10.8ZM937.4,223.3h-30.5c-1.3-4-2.3-8.2-3.1-12.4h55.8c6.1-.1-2.4,12.4-22.2,12.4ZM941.1,205.5h-38.3c-.5-3.8-.9-7.6-1.1-11.4,21.5,0,56.5-.1,60.2,0,4.1,0-2.2,11.4-20.8,11.4ZM939,188.6c-12.5,0-26.2,0-37.3-.1,0-3.2.2-6.4.4-9.5,22.3,0,50.4.1,52.8,0,4-.1-.5,9.6-15.9,9.6ZM929.7,173.5h-26.9c.4-2.6.8-5.2,1.3-7.7h43.4c3.1,0,2.2,7.7-17.8,7.7ZM934.2,269.1c29-8.6,43.2-40.9,43.2-64.2s-22.6-43.4-23.7-43.9c-4.5-1.7-27.1-2.1-48-2.2,1.3-4.8,3-9.5,4.9-14.1,7.7-18.3,20.1-34.2,35.7-46.1l64,109.5-49.1,81.4c-9.9-5.3-19-12.3-27-20.4ZM1016,303.5c-15.8,0-30.8-3.2-44.5-9,0,0-.2-.1-.3-.1l44.8-76.6,44.8,76.6c-3.5,1.5-7.1,2.8-10.8,4-10.8,3.3-22.2,5.1-34,5.1ZM1079.9,284c-3,2-6.1,3.9-9.2,5.6l-49.1-81.4,64-109.5c9.7,7.5,18.2,16.5,25.1,26.7,6.2,9.1,11,19.2,14.4,29.9.4,1.2.7,2.4,1,3.6-20.9,0-43.4.4-48,2.2-1.1.4-23.7,12.2-23.7,43.9s14.2,55.6,43.2,64.2c-5.3,5.5-11.3,10.5-17.7,14.8Z"/>
  <g class="st0">
    <polygon points="671 221.7 662.6 213.3 686.7 189.3 662.6 165.2 671 156.8 703.4 189.3 671 221.7"/>
  </g>
</svg>