<?xml version="1.0" encoding="UTF-8"?>
<svg id="Layer_1" xmlns="http://www.w3.org/2000/svg" version="1.1" viewBox="0 0 500 500">
  <!-- Generator: Adobe Illustrator 29.5.0, SVG Export Plug-In . SVG Version: 2.1.0 Build 137)  -->
  <defs>
    <style>
      .st0 {
        fill: #fff;
      }
    </style>
  </defs>
  <path class="st0" d="M365.2,201.3c-9.4-22.4-25.5-41.6-45.4-55-9.9-6.9-21-12.1-32.7-15.7-11.7-3.8-24.2-5.6-37.2-5.6s-33.8,3.4-48.6,9.8c-22.4,9.4-41.6,25.5-55,45.4-6.9,9.9-12.1,21-15.7,32.7-3.8,11.7-5.6,24.2-5.6,37.2s3.4,33.8,9.8,48.6c9.4,22.4,25.5,41.6,45.4,55,9.9,6.9,21,12.1,32.7,15.7,11.7,3.8,24.2,5.6,37.2,5.6s33.8-3.4,48.6-9.8c22.4-9.4,41.6-25.5,55-45.4,6.9-9.9,12.1-21,15.7-32.7,3.8-11.7,5.6-24.2,5.6-37.2s-3.4-33.6-9.8-48.6h0ZM329.1,311.6c-11,0-17.2-8.1-14.1-8.1h32.2c-1.4,2.7-3.3,5.6-5.1,8.1h-13ZM339.2,315.9c-2.2,2.7-4.2,5.4-6.3,8-9.9-3.4-11.2-8-6-8h12.3ZM325.8,298.5c-14.8,0-25.8-10.5-18.1-10.5h46.5c-.7,1.8-1.4,3.4-2.2,5.1-.9,1.8-1.4,3.6-2.3,5.2-5.2.2-12.5.2-23.9.2ZM326.4,283.2c-19.2,0-27.5-12.1-21.5-12.1h54c-.9,4-1.8,8.1-3.1,12.1h-29.5ZM322.6,265.8c-18.1-.2-24.2-11-20.2-11,3.6-.2,37.6,0,58.4,0-.2,3.8-.4,7.4-1.1,11-9.6.2-22.4.2-37.1,0h0ZM360.4,240.1c.4,3.1.4,6.1.4,9.2-10.7,0-24,.2-36.2.2s-19.3-9.4-15.4-9.2c2.3-.2,29.6-.2,51.2-.2ZM316.3,227.3h42.1c.4,2.3.9,5.1,1.3,7.4h-26c-19.2.2-20.2-7.4-17.4-7.4ZM217.2,144.3c10.5-3.3,21.3-5.1,32.9-5.1s29.8,3.1,43.2,8.7c6.3,2.7,12.3,6,18.3,9.8l-61.3,101.4-61.3-101.6c8.5-5.4,17.9-10.1,28.2-13.2h0ZM171.1,311.6h-13.2c-1.8-2.7-3.3-5.2-5.1-8.1h32.2c3.3,0-2.9,8.1-13.9,8.1ZM167.3,323.8c-2.2-2.5-4.3-5.1-6.3-8h12.3c5.2,0,4,4.5-6,8ZM174.3,298.5h-23.9c-1.6-3.3-3.3-6.9-4.5-10.5h46.5c7.8,0-3.1,10.5-18.1,10.5ZM173.8,283.2h-29.6c-1.3-4-2.2-8-3.1-12.1h54c6.3-.2-2,12.1-21.3,12.1ZM177.4,265.8h-37.1c-.4-3.8-.9-7.4-1.1-11,20.8,0,54.8-.2,58.4,0,4,.2-2.2,11-20.2,11ZM175.6,249.4c-12.1,0-25.5,0-36.2-.2,0-3.1.2-6.3.4-9.2,21.7,0,48.8.2,51.2,0,3.8.2-.5,9.4-15.4,9.4h0ZM166.6,234.9h-26c.4-2.5.9-5.1,1.3-7.4h42.1c2.9-.2,2,7.4-17.4,7.4ZM170.9,327.6c28-8.3,41.9-39.6,41.9-62.2s-21.9-42.1-23-42.5c-4.3-1.6-26.2-2.2-46.5-2.2,1.3-4.7,2.9-9.2,4.7-13.6,7.4-17.7,19.5-33.3,34.5-44.6l62,106.1-47.5,78.6c-9.8-5.2-18.4-11.9-26.2-19.7h0ZM250.1,360.7c-15.2,0-29.8-3.1-43.2-8.7-.2,0-.2-.2-.4-.2l43.4-74.3,43.4,74.3c-3.3,1.4-6.9,2.7-10.5,4-10.3,3.4-21.3,4.9-32.7,4.9h0ZM312.1,341.9c-2.9,2-6,3.8-8.9,5.4l-47.5-78.8,62-106.1c9.4,7.2,17.7,15.9,24.2,25.8,6,8.9,10.7,18.6,14.1,29.1.4,1.1.7,2.3.9,3.4-20.2,0-42.1.4-46.5,2.2-1.1.4-23,11.7-23,42.5s13.7,53.9,41.9,62.2c-5.4,5.2-11.2,10.1-17.4,14.3h0Z"/>
</svg>