<?xml version="1.0" encoding="utf-8"?>
<!-- Generator: Adobe Illustrator 26.0.2, SVG Export Plug-In . SVG Version: 6.00 Build 0)  -->
<svg version="1.1" id="Layer_1" xmlns="http://www.w3.org/2000/svg" xmlns:xlink="http://www.w3.org/1999/xlink" x="0px" y="0px"
	 viewBox="0 0 960.8 463.9" style="enable-background:new 0 0 960.8 463.9;" xml:space="preserve">
<style type="text/css">
	.st1{fill:#824D7E;}
	.st2{fill:#FFFFFF;}
	.st3{fill:none;stroke:#000000;stroke-width:0;stroke-miterlimit:10;}

	@-webkit-keyframes animate-ring{
		0%{stroke-width:0;}
		20%{stroke-width:0; -webkit-animation-timing-function: cubic-bezier( .8,0,.2,1); animation-timing-function: cubic-bezier( .8,0,.2,1);}
		40%{stroke-width:10.9px; opacity:1;}
		50%{stroke-width:10.9px; opacity:1;}
		60%{stroke-width:10.9px; opacity:1; -webkit-transform:translateX(0); transform:translateX(0); -webkit-animation-timing-function: cubic-bezier( .8,0,.2,1); animation-timing-function: cubic-bezier( .8,0,.2,1);}
		80%{stroke-width:10.9px; opacity:1; -webkit-transform:translateX(250px); transform:translateX(250px);}
		100%{stroke-width:10.9px; opacity:1; -webkit-transform:translateX(250px); transform:translateX(250px);}
	}

	@keyframes animate-ring{
		0%{stroke-width:0;}
		20%{stroke-width:0; -webkit-animation-timing-function: cubic-bezier( .8,0,.2,1); animation-timing-function: cubic-bezier( .8,0,.2,1);}
		40%{stroke-width:10.9px; opacity:1;}
		50%{stroke-width:10.9px; opacity:1;}
		60%{stroke-width:10.9px; opacity:1; -webkit-transform:translateX(0); transform:translateX(0); -webkit-animation-timing-function: cubic-bezier( .8,0,.2,1); animation-timing-function: cubic-bezier( .8,0,.2,1);}
		80%{stroke-width:10.9px; opacity:1; -webkit-transform:translateX(250px); transform:translateX(250px);}
		100%{stroke-width:10.9px; opacity:1; -webkit-transform:translateX(250px); transform:translateX(250px);}
	}
	#ring{
		-webkit-animation: animate-ring 4s alternate infinite;
		        animation: animate-ring 4s alternate infinite;
	}
	@-webkit-keyframes animate-old-logo{
		0%{opacity:1;}
		20%{opacity:1; -webkit-filter: blur(0px); filter: blur(0px);}
		40%{opacity:0;  -webkit-filter: blur(5px);  filter: blur(5px);}
		100%{opacity:0; -webkit-filter: blur(5px); filter: blur(5px);}
	}
	@keyframes animate-old-logo{
		0%{opacity:1;}
		20%{opacity:1; -webkit-filter: blur(0px); filter: blur(0px);}
		40%{opacity:0;  -webkit-filter: blur(5px);  filter: blur(5px);}
		100%{opacity:0; -webkit-filter: blur(5px); filter: blur(5px);}
	}
	#old-logo{
		opacity:1;
		-webkit-animation: animate-old-logo 4s alternate infinite;
		        animation: animate-old-logo 4s alternate infinite;
	}
	#blur-old feGaussianBlur{
		stdDeviation: 10;
		-webkit-animation: animate-old-blur 4s alternate infinite;
		        animation: animate-old-blur 4s alternate infinite;
	}
	@-webkit-keyframes animate-fska{
		0%{opacity:1; -webkit-transform: translateY(0px); transform: translateY(0px);}
		25%{opacity:1; -webkit-transform: translateY(0px); transform: translateY(0px);}
		50%{opacity:0; -webkit-transform: translateY(30px); transform: translateY(30px);}
		100%{opacity:0; -webkit-transform: translateY(30px); transform: translateY(30px);}
	}
	@keyframes animate-fska{
		0%{opacity:1; -webkit-transform: translateY(0px); transform: translateY(0px);}
		25%{opacity:1; -webkit-transform: translateY(0px); transform: translateY(0px);}
		50%{opacity:0; -webkit-transform: translateY(30px); transform: translateY(30px);}
		100%{opacity:0; -webkit-transform: translateY(30px); transform: translateY(30px);}
	}
	#fska{
		-webkit-animation: animate-fska 4s ease-in-out alternate infinite;
		        animation: animate-fska 4s ease-in-out alternate infinite;
	}
	@-webkit-keyframes animate-new-logo{
		0%{opacity:0; -webkit-transform:translateX(0); transform:translateX(0); -webkit-filter: blur(5px); filter: blur(5px);}
		25%{opacity:0; -webkit-transform:translateX(0); transform:translateX(0); -webkit-filter: blur(5px); filter: blur(5px); -webkit-animation-timing-function:ease-in-out; animation-timing-function:ease-in-out;}
		45%{opacity:1; -webkit-transform:translateX(0); transform:translateX(0); -webkit-filter: blur(0px); filter: blur(0px); -webkit-animation-timing-function: cubic-bezier( .8,0,.2,1); animation-timing-function: cubic-bezier( .8,0,.2,1);}
		60%{opacity:1; -webkit-transform:translateX(0); transform:translateX(0); -webkit-animation-timing-function: cubic-bezier( .8,0,.2,1); animation-timing-function: cubic-bezier( .8,0,.2,1);}
		80%{opacity:1; -webkit-transform:translateX(250px); transform:translateX(250px);}
		100%{opacity:1; -webkit-transform:translateX(250px); transform:translateX(250px);}
	}
	@keyframes animate-new-logo{
		0%{opacity:0; -webkit-transform:translateX(0); transform:translateX(0); -webkit-filter: blur(5px); filter: blur(5px);}
		25%{opacity:0; -webkit-transform:translateX(0); transform:translateX(0); -webkit-filter: blur(5px); filter: blur(5px); -webkit-animation-timing-function:ease-in-out; animation-timing-function:ease-in-out;}
		45%{opacity:1; -webkit-transform:translateX(0); transform:translateX(0); -webkit-filter: blur(0px); filter: blur(0px); -webkit-animation-timing-function: cubic-bezier( .8,0,.2,1); animation-timing-function: cubic-bezier( .8,0,.2,1);}
		60%{opacity:1; -webkit-transform:translateX(0); transform:translateX(0); -webkit-animation-timing-function: cubic-bezier( .8,0,.2,1); animation-timing-function: cubic-bezier( .8,0,.2,1);}
		80%{opacity:1; -webkit-transform:translateX(250px); transform:translateX(250px);}
		100%{opacity:1; -webkit-transform:translateX(250px); transform:translateX(250px);}
	}	
	#main-logo{
		-webkit-animation: animate-new-logo 4s alternate infinite;
		        animation: animate-new-logo 4s alternate infinite;
		opacity:0;
	}
	@-webkit-keyframes animate-logo-purple{
		0%{opacity:0; -webkit-transform:translateX(0); transform:translateX(0);}
		59%{opacity:0; -webkit-transform:translateX(0); transform:translateX(0);}
		60%{opacity:1; -webkit-transform:translateX(0); transform:translateX(0);}
		80%{opacity:1; -webkit-transform:translateX(-250px); transform:translateX(-250px);}
		100%{opacity:1; -webkit-transform:translateX(-250px); transform:translateX(-250px);}
	}
	@keyframes animate-logo-purple{
		0%{opacity:0; -webkit-transform:translateX(0); transform:translateX(0);}
		59%{opacity:0; -webkit-transform:translateX(0); transform:translateX(0);}
		60%{opacity:1; -webkit-transform:translateX(0); transform:translateX(0);}
		80%{opacity:1; -webkit-transform:translateX(-250px); transform:translateX(-250px);}
		100%{opacity:1; -webkit-transform:translateX(-250px); transform:translateX(-250px);}
	}

	#logo-purple{
		-webkit-animation: animate-logo-purple 4s cubic-bezier( .8,0,.2,1) alternate infinite;
		        animation: animate-logo-purple 4s cubic-bezier( .8,0,.2,1) alternate infinite;
		opacity:0;
	}

	@-webkit-keyframes animate-logo-white{
		0%{opacity:0;}
		59%{opacity:0;}
		60%{opacity:1;}
		80%{opacity:1;}
		100%{opacity:1;}
	}

	@keyframes animate-logo-white{
		0%{opacity:0;}
		59%{opacity:0;}
		60%{opacity:1;}
		80%{opacity:1;}
		100%{opacity:1;}
	}
	#logo-white{
		-webkit-animation: animate-logo-white 4s alternate infinite;
		        animation: animate-logo-white 4s alternate infinite;
		opacity:0;
	}
	@-webkit-keyframes animate-square{
		0%{-webkit-transform: scaleX(0);transform: scaleX(0);}
		20%{-webkit-transform: scaleX(0);transform: scaleX(0);}
		60%{-webkit-transform: scaleX(0);transform: scaleX(0);}
		80%{-webkit-transform: scaleX(1);transform: scaleX(1);}
		100%{-webkit-transform: scaleX(1);transform: scaleX(1);}
	}
	@keyframes animate-square{
		0%{-webkit-transform: scaleX(0);transform: scaleX(0);}
		20%{-webkit-transform: scaleX(0);transform: scaleX(0);}
		60%{-webkit-transform: scaleX(0);transform: scaleX(0);}
		80%{-webkit-transform: scaleX(1);transform: scaleX(1);}
		100%{-webkit-transform: scaleX(1);transform: scaleX(1);}
	}
	#square{
		-webkit-transform: scaleX(0);
		    -ms-transform: scaleX(0);
		        transform: scaleX(0);
		-webkit-transform-origin: 50% 50%;
		    -ms-transform-origin: 50% 50%;
		        transform-origin: 50% 50%;
		-webkit-animation: animate-square 4s cubic-bezier( .8,0,.2,1) alternate infinite;
		        animation: animate-square 4s cubic-bezier( .8,0,.2,1) alternate infinite;
	}

	@-webkit-keyframes animate-long-name{
		0%{-webkit-transform: translateY(30px);transform: translateY(30px);opacity:0;}
		55%{-webkit-transform: translateY(30px);transform: translateY(30px);opacity:0;}
		85%{-webkit-transform: translateY(0);transform: translateY(0);opacity:1;}
		100%{-webkit-transform: translateY(0);transform: translateY(0);opacity:1;}
	}

	@keyframes animate-long-name{
		0%{-webkit-transform: translateY(30px);transform: translateY(30px);opacity:0;}
		55%{-webkit-transform: translateY(30px);transform: translateY(30px);opacity:0;}
		85%{-webkit-transform: translateY(0);transform: translateY(0);opacity:1;}
		100%{-webkit-transform: translateY(0);transform: translateY(0);opacity:1;}
	}

	#long-name{
		-webkit-animation: animate-long-name 4s ease-in-out alternate infinite;
		        animation: animate-long-name 4s ease-in-out alternate infinite;
		opacity:0;
	}

</style>
<path id="long-name" d="M108.8,335.4v10.4H125v3.2h-16.2v13h-3.4v-29.9H127v3.2L108.8,335.4L108.8,335.4z M140,339.1
	c3.4,0,6.1,1.1,8.3,3.4c2,2.1,2.9,4.9,2.9,8.3s-0.9,6.1-2.9,8.3c-2.1,2.3-4.9,3.4-8.3,3.4s-6.1-1.1-8.3-3.4c-2-2.1-2.9-4.9-2.9-8.3
	s0.9-6.1,2.9-8.3C134.1,340.2,136.7,339.1,140,339.1z M140,359.3c2.5,0,4.3-0.9,5.8-2.5c1.4-1.5,2-3.7,2-6s-0.6-4.4-2-6
	c-1.4-1.7-3.4-2.5-5.8-2.5s-4.3,0.9-5.8,2.5c-1.4,1.5-2,3.7-2,6s0.6,4.4,2,6C135.7,358.4,137.7,359.3,140,359.3z M138.5,332.1v3.7
	h-4v-3.7H138.5z M145.7,332.1v3.7h-4v-3.7H145.7z M167.6,339.1v3.4h-0.5c-2.5,0-4.4,0.9-6,2.9c-1.4,1.8-2.1,4.1-2.1,6.7v10h-3.4
	v-22.5h3.4v5.5c0.8-2.3,2.3-4.1,4.7-5.2c0.9-0.5,2.1-0.8,3.7-0.8H167.6z M180.8,359.3c3.1,0,5.2-1.2,6.6-3.8h3.7
	c-0.8,2-2,3.7-3.7,4.9c-1.7,1.2-3.8,1.8-6.6,1.8c-3.4,0-6.1-1.1-8.3-3.4c-2.1-2.1-3.1-4.9-3.1-8.3s0.9-6.1,2.9-8.3
	c2.1-2.3,4.9-3.4,8.3-3.4s6.1,1.1,8.3,3.4c2,2.1,2.9,4.9,2.9,8.3v1.4H173c0.3,2.1,1.1,3.8,2.5,5.2
	C176.8,358.6,178.6,359.3,180.8,359.3z M180.5,342.2c-2.1,0-3.8,0.6-5.2,2c-1.4,1.2-2.1,2.9-2.5,4.7h15.3c-0.3-2-1.1-3.5-2.5-4.7
	C184.3,342.8,182.6,342.2,180.5,342.2z M199.2,339.4v3.5c0.8-1.1,1.8-2,2.9-2.8c1.2-0.8,2.5-1.1,4-1.1c1.5,0,2.8,0.2,3.8,0.6
	s2,1.1,2.9,1.8c1.8,1.8,2.8,4.3,2.8,7.2v13.2h-3.2v-13c0-2.1-0.6-3.7-1.7-4.9c-1.2-1.2-2.8-1.8-4.6-1.8c-1.8,0-3.5,0.6-4.9,1.8
	c-1.4,1.2-2,2.9-2,4.9v13h-3.4v-22.5H199.2z M224.9,331.3v4.4h-3.7v-4.4H224.9z M221.4,339.4h3.4v22.5h-3.4V339.4z M234.1,339.4v3.5
	c0.8-1.1,1.8-2,2.9-2.8c1.2-0.8,2.5-1.1,4-1.1s2.8,0.2,3.8,0.6c1.1,0.5,2,1.1,2.9,1.8c1.8,1.8,2.8,4.3,2.8,7.2v13.2h-3.4v-13
	c0-2.1-0.6-3.7-1.7-4.9c-1.2-1.2-2.8-1.8-4.6-1.8c-1.8,0-3.5,0.6-4.9,1.8c-1.4,1.2-2,2.9-2,4.9v13h-3.4v-22.5H234.1z M273.8,343.1
	v-3.7h3.4v21.9c0,3.2-0.9,5.7-2.8,7.4c-1.8,1.7-4.3,2.6-7.5,2.6c-3.2,0-5.5-0.6-7.4-1.8c-1.7-1.2-2.9-2.8-3.5-4.7h3.7
	c0.9,2.3,3.2,3.5,6.6,3.5c2.6,0,4.4-0.6,5.7-1.8s1.7-2.9,1.7-5.4v-3.1c-1.8,2.6-4.6,4-8.1,4c-3.2,0-5.8-1.1-8-3.4
	c-2-2.1-2.9-4.9-2.9-8.1c0-3.2,0.9-6,2.9-8.1c2-2.3,4.7-3.4,8.1-3.4C269.3,339.1,271.9,340.3,273.8,343.1z M266.1,358.9
	c1.2,0,2.3-0.2,3.2-0.6c0.9-0.5,1.8-1.1,2.5-1.8c1.4-1.5,2-3.5,2-6c0-2.5-0.6-4.4-2-6c-1.5-1.7-3.4-2.5-5.8-2.5
	c-2.5,0-4.4,0.8-5.8,2.5c-1.4,1.5-2.1,3.5-2.1,6c0,2.5,0.8,4.3,2.1,6C261.8,358.1,263.7,358.9,266.1,358.9z M293.1,359.3
	c3.1,0,5.2-1.2,6.6-3.8h3.7c-0.8,2-2,3.7-3.7,4.9c-1.7,1.2-3.8,1.8-6.6,1.8c-3.4,0-6.1-1.1-8.3-3.4c-2.1-2.1-3.1-4.9-3.1-8.3
	s0.9-6.1,2.9-8.3c2.1-2.3,4.9-3.4,8.3-3.4s6.1,1.1,8.3,3.4c2,2.1,2.9,4.9,2.9,8.3v1.4h-18.8c0.3,2.1,1.1,3.8,2.5,5.2
	C288.9,358.6,290.8,359.3,293.1,359.3z M292.8,342.2c-2.1,0-3.8,0.6-5.2,2c-1.4,1.2-2.1,2.9-2.5,4.7h15.3c-0.3-2-1.1-3.5-2.5-4.7
	C296.6,342.8,294.9,342.2,292.8,342.2z M311.4,339.4v3.5c0.8-1.1,1.8-2,2.9-2.8c1.2-0.8,2.5-1.1,4-1.1s2.8,0.2,3.8,0.6
	c1.1,0.5,2,1.1,2.9,1.8c1.8,1.8,2.8,4.3,2.8,7.2v13.2h-3.4v-13c0-2.1-0.6-3.7-1.7-4.9c-1.2-1.2-2.8-1.8-4.6-1.8s-3.5,0.6-4.9,1.8
	c-1.4,1.2-2,2.9-2,4.9v13h-3.4v-22.5H311.4z M347.4,336.7c-0.6,0.5-0.9,1.1-1.2,1.7c-0.2,0.6-0.3,1.2-0.3,2c0,0.6,0.3,1.4,0.9,1.8
	c0.6,0.6,1.4,1.1,2.3,1.4c0.9,0.5,2,0.8,3.2,1.1s2.5,0.6,3.8,0.9c1.2,0.3,2.6,0.6,3.8,1.1s2.3,0.9,3.2,1.5c2.1,1.4,3.2,3.2,3.2,5.5
	c0,2.8-1.1,4.9-3.1,6.4c-2.1,1.5-5.1,2.1-8.7,2.1c-4.1,0-7.4-0.9-9.5-2.6c-2-1.5-3.1-3.8-3.4-6.7h3.5c0.2,2,1.1,3.7,2.9,4.7
	c1.7,0.9,3.8,1.4,6.4,1.4c5.7,0,8.4-1.7,8.4-5.2c0-1.2-0.5-2.1-1.5-2.9s-2.3-1.2-3.8-1.7s-3.2-0.9-4.9-1.2c-1.7-0.5-3.4-0.9-4.9-1.5
	c-1.5-0.6-2.8-1.4-3.8-2.5c-1.1-1.1-1.5-2.3-1.5-4.1c0-2.5,0.9-4.4,2.8-6s4.7-2.3,8.4-2.3c3.8,0,6.7,0.9,8.7,2.6
	c1.8,1.5,2.9,3.5,3.1,6H362c-0.3-2.5-1.8-4.1-4.7-4.9c-1.1-0.3-2.3-0.5-3.8-0.5s-2.8,0.2-3.8,0.5
	C348.8,335.7,348.1,336.2,347.4,336.7z M373.5,361.9v-19.6h-4.6v-2.9h4.6v-8.1h3.4v8.1h5.2v2.9h-5.2v19.6H373.5z M395.1,339.1
	c3.4,0,6.1,1.1,8.3,3.4c2,2.1,2.9,4.9,2.9,8.3s-0.9,6.1-2.9,8.3c-2.1,2.3-4.9,3.4-8.3,3.4s-6.1-1.1-8.3-3.4c-2-2.1-2.9-4.9-2.9-8.3
	s0.9-6.1,2.9-8.3C389,340.2,391.7,339.1,395.1,339.1z M395.1,359.3c2.5,0,4.3-0.9,5.8-2.5c1.4-1.5,2-3.7,2-6s-0.6-4.4-2-6
	c-1.4-1.7-3.4-2.5-5.8-2.5c-2.5,0-4.3,0.9-5.8,2.5c-1.4,1.5-2,3.7-2,6s0.6,4.4,2,6C390.6,358.4,392.6,359.3,395.1,359.3z
	 M421.1,359.3c1.4,0,2.8-0.5,3.8-1.2s2-1.8,2.5-3.2h3.7c-0.8,2.3-2,4-3.8,5.4c-2,1.4-4.1,2.1-6.9,2.1c-3.4,0-6-1.1-8.1-3.4
	c-2-2.1-3.1-4.9-3.1-8.3s1.1-6.1,3.1-8.3c2.1-2.3,4.7-3.4,8.1-3.4c2.6,0,4.9,0.8,6.9,2.1c1.8,1.4,3.1,3.2,3.8,5.4h-3.7
	c-0.5-1.2-1.4-2.3-2.5-3.2c-1.1-0.8-2.5-1.2-3.8-1.2c-1.4,0-2.6,0.2-3.7,0.6c-1.1,0.5-1.8,1.1-2.6,1.8c-1.5,1.7-2.1,3.7-2.1,6
	c0,2.5,0.8,4.4,2.1,6C416.4,358.4,418.5,359.3,421.1,359.3z M445.2,348.3l9.8,13.6h-4.1l-8-11.3l-4.3,4.1v7.2h-3.4v-31.6h3.4v20.2
	l10.9-11.2h4.7L445.2,348.3z M461.3,330.4v12.6c0.8-1.1,1.8-2,2.9-2.8c1.2-0.8,2.5-1.1,4-1.1s2.8,0.2,3.8,0.6s2,1.1,2.9,1.8
	c1.8,1.8,2.8,4.3,2.8,7.2v13.2h-3.4v-13c0-2.1-0.6-3.7-1.7-4.9c-1.2-1.2-2.8-1.8-4.6-1.8c-1.8,0-3.5,0.6-4.9,1.8
	c-1.4,1.2-2,2.9-2,4.9v13h-3.4v-31.6L461.3,330.4L461.3,330.4z M493.1,339.1c3.4,0,6.1,1.1,8.3,3.4c2,2.1,2.9,4.9,2.9,8.3
	s-0.9,6.1-2.9,8.3c-2.1,2.3-4.9,3.4-8.3,3.4c-3.4,0-6.1-1.1-8.3-3.4c-2-2.1-2.9-4.9-2.9-8.3s0.9-6.1,2.9-8.3
	C487.2,340.2,489.9,339.1,493.1,339.1z M493.1,359.3c2.5,0,4.3-0.9,5.8-2.5c1.4-1.5,2-3.7,2-6s-0.6-4.4-2-6
	c-1.4-1.7-3.4-2.5-5.8-2.5c-2.5,0-4.3,0.9-5.8,2.5c-1.4,1.5-2,3.7-2,6s0.6,4.4,2,6C488.8,358.4,490.8,359.3,493.1,359.3z
	 M512.3,361.9h-3.4v-31.6h3.4V361.9z M521.5,342.8c1.5-2.5,3.8-3.8,6.9-3.8c1.5,0,2.9,0.5,4.1,1.2c1.2,0.8,2.3,2,3.1,3.4
	c1.1-1.8,2.6-3.2,4.7-4.1c0.9-0.3,1.8-0.5,2.9-0.5c1.1,0,2.1,0.2,3.2,0.6c1.1,0.5,1.8,1.1,2.8,1.8c1.7,1.8,2.5,4.1,2.5,6.7v13.6
	h-3.4v-13.3c0-1.8-0.5-3.4-1.5-4.6c-1.1-1.1-2.5-1.7-4-1.7c-1.7,0-3.2,0.6-4.3,1.7c-1.2,1.1-1.8,2.8-1.8,4.7v13.5h-3.4v-13.6
	c0-1.8-0.5-3.4-1.5-4.6c-1.1-1.1-2.5-1.7-4-1.7c-1.7,0-3.2,0.6-4.3,1.7c-1.2,1.1-1.8,2.8-1.8,4.7v13.5h-3.4v-22.5h3.4v3.2H521.5z
	 M570.5,345.5c-0.3-2.3-2.1-3.5-5.7-3.5c-3.5,0-5.2,1.1-5.2,3.2c0,0.9,0.3,1.5,1.1,2s1.7,0.9,2.8,1.2c1.1,0.3,2.3,0.6,3.7,0.8
	c1.4,0.3,2.5,0.6,3.7,1.1c1.2,0.5,2,1.1,2.8,2c0.8,0.8,1.1,2,1.1,3.4c0,2.1-0.8,3.8-2.5,5.1c-1.7,1.2-3.8,1.7-6.7,1.7
	c-3.1,0-5.4-0.8-7.2-2.3c-1.7-1.4-2.5-3.1-2.6-5.2h3.5c0.2,2.1,1.4,3.5,3.5,4.1c0.8,0.3,1.5,0.3,2.3,0.3s1.5,0,2.1-0.2
	c0.6-0.2,1.4-0.3,2-0.5c1.4-0.6,2.1-1.5,2.1-2.9c0-0.9-0.3-1.7-1.1-2.1c-0.8-0.5-1.7-0.9-2.8-1.2c-1.1-0.3-2.3-0.6-3.7-0.9
	c-1.4-0.3-2.5-0.6-3.7-1.1c-1.1-0.5-2-1.1-2.8-1.8c-0.8-0.8-1.1-1.8-1.1-3.2c0-2,0.8-3.7,2.3-4.7c1.5-1.1,3.7-1.7,6.6-1.7
	c2.8,0,4.9,0.6,6.6,2c1.4,1.1,2.1,2.6,2.3,4.4h-3.5V345.5z M601.4,344.2l13.5,17.9h-4.3L599,346.5l-6.1,5.8v9.8h-3.4v-29.9h3.4v15.6
	l16.5-15.6h4.7L601.4,344.2z M625.5,359.3c3.1,0,5.2-1.2,6.6-3.8h3.7c-0.8,2-2,3.7-3.7,4.9s-3.8,1.8-6.6,1.8c-3.4,0-6.1-1.1-8.3-3.4
	c-2.1-2.1-3.1-4.9-3.1-8.3s0.9-6.1,2.9-8.3c2.1-2.3,4.9-3.4,8.3-3.4c3.4,0,6.1,1.1,8.3,3.4c2,2.1,2.9,4.9,2.9,8.3v1.4h-18.8
	c0.3,2.1,1.1,3.8,2.5,5.2C621.5,358.6,623.3,359.3,625.5,359.3z M625.3,342.2c-2.1,0-3.8,0.6-5.2,2c-1.4,1.2-2.1,2.9-2.5,4.7H633
	c-0.3-2-1.1-3.5-2.5-4.7C629.2,342.8,627.3,342.2,625.3,342.2z M644,339.4v3.5c0.8-1.1,1.8-2,2.9-2.8c1.2-0.8,2.5-1.1,4-1.1
	s2.8,0.2,3.8,0.6c1.1,0.5,2,1.1,2.9,1.8c1.8,1.8,2.8,4.3,2.8,7.2v13.2H657v-13c0-2.1-0.6-3.7-1.7-4.9c-1.2-1.2-2.8-1.8-4.6-1.8
	c-1.8,0-3.5,0.6-4.9,1.8c-1.4,1.2-2,2.9-2,4.9v13h-3.4v-22.5H644z M683.7,358.4c-1.8,2.6-4.4,4-8.1,4c-3.2,0-5.8-1.1-8-3.4
	c-2-2.3-2.9-4.9-2.9-8.3s0.9-6,2.9-8.3c2-2.3,4.7-3.4,8.1-3.4c3.4,0,6,1.4,7.8,4v-12.7h3.4v31.6h-3.4v-3.5H683.7z M676.2,359.3
	c2.5,0,4.3-0.9,5.8-2.5c1.4-1.5,2-3.7,2-6s-0.6-4.4-2-6c-1.4-1.7-3.4-2.5-5.8-2.5c-2.5,0-4.3,0.9-5.8,2.5c-1.4,1.5-2.1,3.7-2.1,6
	s0.8,4.4,2.1,6S673.7,359.3,676.2,359.3z M702.8,339.1c3.4,0,6.1,1.1,8.3,3.4c2,2.1,2.9,4.9,2.9,8.3s-0.9,6.1-2.9,8.3
	c-2.1,2.3-4.9,3.4-8.3,3.4c-3.4,0-6.1-1.1-8.3-3.4c-2-2.1-2.9-4.9-2.9-8.3s0.9-6.1,2.9-8.3C696.7,340.2,699.5,339.1,702.8,339.1z
	 M702.8,359.3c2.5,0,4.3-0.9,5.8-2.5c1.4-1.5,2-3.7,2-6s-0.6-4.4-2-6c-1.4-1.7-3.4-2.5-5.8-2.5c-2.5,0-4.3,0.9-5.8,2.5
	c-1.4,1.5-2,3.7-2,6s0.6,4.4,2,6C698.4,358.4,700.4,359.3,702.8,359.3z M754.8,361.9h-3.7l-3.7-8.7h-14.9l-3.7,8.7h-3.7l12.7-29.9
	h4.3L754.8,361.9z M746.2,350.1l-6.1-14.6l-6.1,14.6H746.2z M761.2,361.9h-3.4v-31.6h3.4V361.9z M770.5,361.9h-3.4v-31.6h3.4V361.9z
	 M779.9,331.3v4.4h-3.7v-4.4H779.9z M776.4,339.4h3.4v22.5h-3.4V339.4z M803.2,358.4c-1.8,2.6-4.4,4-8.1,4c-3.2,0-5.8-1.1-8-3.4
	c-2-2.3-2.9-4.9-2.9-8.3s0.9-6,2.9-8.3s4.7-3.4,8.1-3.4c3.4,0,6,1.4,7.8,4v-3.7h3.4v22.5H803v-3.5H803.2z M795.7,359.3
	c2.5,0,4.3-0.9,5.8-2.5c1.4-1.5,2-3.7,2-6s-0.6-4.4-2-6c-1.4-1.7-3.4-2.5-5.8-2.5c-2.5,0-4.3,0.9-5.8,2.5c-1.4,1.5-2.1,3.7-2.1,6
	s0.8,4.4,2.1,6S793.2,359.3,795.7,359.3z M815.9,339.4v3.5c0.8-1.1,1.8-2,2.9-2.8c1.2-0.8,2.5-1.1,4-1.1s2.8,0.2,3.8,0.6
	c1.1,0.5,2,1.1,2.9,1.8c1.8,1.8,2.8,4.3,2.8,7.2v13.2h-3.4v-13c0-2.1-0.6-3.7-1.7-4.9c-1.2-1.2-2.8-1.8-4.6-1.8
	c-1.8,0-3.5,0.6-4.9,1.8c-1.4,1.2-2,2.9-2,4.9v13h-3.4v-22.5H815.9z M851.3,345.5c-0.3-2.3-2.1-3.5-5.7-3.5c-3.5,0-5.2,1.1-5.2,3.2
	c0,0.9,0.3,1.5,1.1,2s1.7,0.9,2.8,1.2c1.1,0.3,2.3,0.6,3.7,0.8c1.4,0.3,2.5,0.6,3.7,1.1s2,1.1,2.8,2c0.8,0.8,1.1,2,1.1,3.4
	c0,2.1-0.8,3.8-2.5,5.1c-1.7,1.2-3.8,1.7-6.7,1.7c-3.1,0-5.4-0.8-7.2-2.3c-1.7-1.4-2.5-3.1-2.6-5.2h3.5c0.2,2.1,1.4,3.5,3.5,4.1
	c0.8,0.3,1.5,0.3,2.3,0.3s1.5,0,2.1-0.2c0.6-0.2,1.4-0.3,2-0.5c1.4-0.6,2.1-1.5,2.1-2.9c0-0.9-0.3-1.7-1.1-2.1
	c-0.8-0.5-1.7-0.9-2.8-1.2c-1.1-0.3-2.3-0.6-3.7-0.9c-1.4-0.3-2.5-0.6-3.7-1.1c-1.1-0.5-2-1.1-2.8-1.8c-0.8-0.8-1.1-1.8-1.1-3.2
	c0-2,0.8-3.7,2.3-4.7c1.5-1.1,3.7-1.7,6.6-1.7c2.8,0,4.9,0.6,6.6,2c1.4,1.1,2.1,2.6,2.3,4.4h-3.5V345.5z"/>
<rect id="square" x="355.4" y="60.4" class="st1" width="250" height="250"/>
<path id="logo-white" class="st2" d="M568,148.3c-7.3-17.1-19.3-31.6-34.5-41.8c-7.6-5.1-15.9-9.1-24.8-12c-9-2.7-18.4-4.2-28.2-4.2
	c-13.2,0-25.7,2.7-37,7.4c-17.1,7.3-31.6,19.3-41.8,34.5c-5.1,7.6-9.1,15.9-12,24.8c-2.7,9-4.2,18.4-4.2,28.2
	c0,13.2,2.7,25.7,7.4,37c7.3,17.1,19.3,31.6,34.5,41.8c7.6,5.1,15.9,9.1,24.8,12c9,2.7,18.4,4.2,28.2,4.2c13.2,0,25.7-2.7,37-7.4
	c17.1-7.3,31.6-19.3,41.8-34.5c5.1-7.6,9.1-15.9,12-24.8c2.7-9,4.2-18.4,4.2-28.2C575.4,172.3,572.7,159.7,568,148.3z M540.4,232
	c-8.3,0-13-6.3-10.6-6.3c1.9,0,15.7,0,24.5,0c-1.2,2.2-2.4,4.2-3.7,6.3C547.7,232,544.5,232,540.4,232z M548.2,235.2
	c-1.5,2-3.2,4.1-4.9,6.1c-7.6-2.7-8.5-6.1-4.6-6.1C542.4,235.2,544.8,235.2,548.2,235.2z M537.9,222.2c-11.3,0-19.6-7.9-13.7-7.9
	c5.6,0,26.7,0,35.2,0c-0.5,1.4-1,2.7-1.5,3.9c-0.5,1.4-1.2,2.7-1.9,4.1C552.1,222.2,546.7,222.2,537.9,222.2z M538.2,210.4
	c-14.5,0-20.8-9.1-16.4-9.1c2.2,0,28.4,0,41.1,0c-0.7,3-1.4,6.1-2.4,9.1C555.6,210.4,548.7,210.4,538.2,210.4z M535.5,197.4
	c-13.7,0-18.3-8.3-15.4-8.5c2.7,0,28.6,0,44.3,0c-0.2,2.9-0.3,5.6-0.8,8.5C556.3,197.4,546.5,197.4,535.5,197.4z M564.1,177.9
	c0.2,2.4,0.3,4.6,0.3,6.9c-8.1,0-18.3,0-27.4,0c-11.3,0-14.7-7.1-11.7-7.1C527.1,177.9,547.7,177.9,564.1,177.9z M530.8,168.1
	c1.9,0,18.3,0,31.9,0c0.3,1.9,0.7,3.7,1,5.7c-6.3,0-13,0-19.8,0C529.1,173.7,528.4,168.1,530.8,168.1z M455.4,105.1
	c7.9-2.5,16.2-3.7,25-3.7c11.7,0,22.7,2.4,32.8,6.6c4.9,2,9.5,4.6,13.7,7.4l-46.5,77.3l-46.5-77.3
	C440.5,110.8,447.6,107.4,455.4,105.1z M420.4,232c-4.1,0-7.3,0-10,0c-1.4-2-2.5-4.1-3.7-6.3c8.8,0,22.7,0,24.5,0
	C433.4,225.8,428.7,232,420.4,232z M417.5,241.3c-1.7-1.9-3.4-3.9-4.9-6.1c3.2,0,5.7,0,9.5,0C426,235.2,425.1,238.6,417.5,241.3z
	 M422.9,222.2c-8.8,0-14.2,0-18.1,0c-1.2-2.5-2.4-5.2-3.4-7.9c8.5,0,29.7,0,35.2,0C442.5,214.3,434.1,222.2,422.9,222.2z
	 M422.6,210.4c-10.5,0-17.4,0-22.5,0l0,0c-0.8-3-1.7-6.1-2.4-9.1c12.7,0,39,0,41.1,0C443.4,201.2,437.1,210.4,422.6,210.4z
	 M425.3,197.4c-11.2,0-20.8,0-28.2,0c-0.3-2.7-0.7-5.6-0.8-8.5c15.7,0,41.6,0,44.3,0C443.6,189.1,439,197.4,425.3,197.4z
	 M423.8,184.8c-9.3,0-19.3,0-27.4,0c0-2.4,0.2-4.7,0.3-6.9c16.4,0,37,0,38.9,0C438.3,177.7,435.1,184.8,423.8,184.8z M416.9,173.7
	c-6.8,0-13.7,0-19.8,0c0.3-1.9,0.7-3.9,1-5.7c13.7,0,30.1,0,31.9,0C432.2,168.1,431.6,173.7,416.9,173.7z M420.2,244.2
	c21.3-6.3,31.8-30.1,31.8-47.3c0-23.3-16.6-31.9-17.4-32.3c-3.4-1.4-19.9-1.5-35.3-1.5c1-3.5,2.2-6.9,3.5-10.3
	c5.7-13.5,14.9-25.2,26.2-34l47.2,80.6l-36.2,60C432.7,255.2,426,250.1,420.2,244.2z M480.4,269.5c-11.7,0-22.7-2.4-32.8-6.6
	c0,0-0.2,0-0.2-0.2l33-56.5l33,56.5c-2.5,1.2-5.2,2-7.9,2.9C497.5,268.2,489,269.5,480.4,269.5z M527.4,255.2
	c-2.2,1.5-4.4,2.9-6.8,4.1l-36.2-60l47.2-80.6c7.1,5.6,13.4,12.2,18.4,19.6c4.6,6.8,8.1,14,10.6,22c0.3,0.8,0.5,1.7,0.8,2.7
	c-15.4,0-31.9,0.3-35.3,1.5c-0.8,0.3-17.4,9-17.4,32.3c0,17.2,10.5,40.9,31.8,47.3C536.5,248.2,532.1,252,527.4,255.2z"/>
<path id="logo-purple" class="st1" d="M568,148.3c-7.3-17.1-19.3-31.6-34.5-41.8c-7.6-5.1-15.9-9.1-24.8-12
	c-9-2.7-18.4-4.2-28.2-4.2c-13.2,0-25.7,2.7-37,7.4c-17.1,7.3-31.6,19.3-41.8,34.5c-5.1,7.6-9.1,15.9-12,24.8
	c-2.7,9-4.2,18.4-4.2,28.2c0,13.2,2.7,25.7,7.4,37c7.3,17.1,19.3,31.6,34.5,41.8c7.6,5.1,15.9,9.1,24.8,12c9,2.7,18.4,4.2,28.2,4.2
	c13.2,0,25.7-2.7,37-7.4c17.1-7.3,31.6-19.3,41.8-34.5c5.1-7.6,9.1-15.9,12-24.8c2.7-9,4.2-18.4,4.2-28.2
	C575.6,172.3,572.9,159.7,568,148.3z M540.6,232c-8.3,0-13-6.3-10.6-6.3c1.9,0,15.7,0,24.5,0c-1.2,2.2-2.4,4.2-3.7,6.3
	C547.9,232,544.6,232,540.6,232z M548.2,235.2c-1.5,2-3.2,4.1-4.9,6.1c-7.6-2.7-8.5-6.1-4.6-6.1C542.6,235.2,545,235.2,548.2,235.2z
	 M538,222.2c-11.3,0-19.6-7.9-13.7-7.9c5.6,0,26.7,0,35.2,0c-0.5,1.4-1,2.7-1.5,3.9c-0.5,1.4-1.2,2.7-1.9,4.1
	C552.2,222.2,546.8,222.2,538,222.2z M538.4,210.4c-14.5,0-20.8-9.1-16.4-9.1c2.2,0,28.4,0,41.1,0c-0.7,3-1.4,6.1-2.4,9.1
	C555.8,210.4,548.9,210.4,538.4,210.4z M535.7,197.4c-13.7,0-18.3-8.3-15.4-8.5c2.7,0,28.6,0,44.3,0c-0.2,2.9-0.3,5.6-0.8,8.5
	C556.5,197.4,546.7,197.4,535.7,197.4z M564.2,177.9c0.2,2.4,0.3,4.6,0.3,6.9c-8.1,0-18.3,0-27.4,0c-11.3,0-14.7-7.1-11.7-7.1
	C527.2,177.9,547.9,177.9,564.2,177.9z M530.9,168.1c1.9,0,18.3,0,31.9,0c0.3,1.9,0.7,3.7,1,5.7c-6.3,0-13,0-19.8,0
	C529.3,173.7,528.6,168.1,530.9,168.1z M455.6,105.1c7.9-2.5,16.2-3.7,25-3.7c11.7,0,22.7,2.4,32.8,6.6c4.9,2,9.5,4.6,13.7,7.4
	l-46.5,77.1l-46.5-77.3C440.5,110.8,447.8,107.4,455.6,105.1z M420.4,232c-4.1,0-7.3,0-10,0c-1.4-2-2.5-4.1-3.7-6.3
	c8.8,0,22.7,0,24.5,0C433.6,225.8,428.9,232,420.4,232z M417.7,241.3c-1.7-1.9-3.4-3.9-4.9-6.1c3.2,0,5.7,0,9.5,0
	C426.1,235.2,425.1,238.6,417.7,241.3z M422.9,222.2c-8.8,0-14.2,0-18.1,0c-1.2-2.5-2.4-5.2-3.4-7.9c8.5,0,29.7,0,35.2,0
	C442.7,214.3,434.3,222.2,422.9,222.2z M422.6,210.4c-10.5,0-17.4,0-22.5,0l0,0c-0.8-3-1.7-6.1-2.4-9.1c12.7,0,39,0,41.1,0
	C443.6,201.2,437.3,210.4,422.6,210.4z M425.5,197.4c-11.2,0-20.8,0-28.2,0c-0.3-2.7-0.7-5.6-0.8-8.5c15.7,0,41.6,0,44.3,0
	C443.7,189.1,439.2,197.4,425.5,197.4z M423.8,184.8c-9.3,0-19.3,0-27.4,0c0-2.4,0.2-4.7,0.3-6.9c16.4,0,37,0,38.9,0
	C438.5,177.7,435.1,184.8,423.8,184.8z M417,173.7c-6.8,0-13.7,0-19.8,0c0.3-1.9,0.7-3.9,1-5.7c13.7,0,30.1,0,31.9,0
	C432.4,168.1,431.7,173.7,417,173.7z M420.4,244.2c21.3-6.3,31.8-30.1,31.8-47.3c0-23.3-16.6-31.9-17.4-32.3
	c-3.4-1.4-19.9-1.5-35.3-1.5c1-3.5,2.2-6.9,3.5-10.3c5.7-13.5,14.9-25.2,26.2-34l47.2,80.6l-36.2,60
	C432.9,255.2,426.1,250.1,420.4,244.2z M480.6,269.5c-11.7,0-22.7-2.4-32.8-6.6c0,0-0.2,0-0.2-0.2l33-56.5l33,56.5
	c-2.5,1.2-5.2,2-7.9,2.9C497.7,268.2,489.2,269.5,480.6,269.5z M527.6,255.2c-2.2,1.5-4.4,2.9-6.8,4.1l-36.2-60l47.2-80.6
	c7.1,5.6,13.4,12.2,18.4,19.6c4.6,6.8,8.1,14,10.6,22c0.3,0.8,0.5,1.7,0.8,2.7c-15.4,0-31.9,0.3-35.3,1.5c-0.8,0.3-17.4,9-17.4,32.3
	c0,17.2,10.5,40.9,31.8,47.3C536.7,248.2,532.3,252,527.6,255.2z"/>
<path id="fska" d="M374.2,321.7h-42.5l13.2-21.7h35.4l7.2-6.7h-63.8l-41.4,64.5h27.5l18.2-29.9h41.2L374.2,321.7z M386.2,312.4
	c0,11.2,17.5,13,29.2,16c11.8,3,19.1,7,19.1,12.4c0,5.4-7,11-27.2,11c-20.1,0-27.6-3.7-27.6-3.7l-6.9,7.9c0,0,13.4,4.3,40.4,4
	c44-0.5,48.3-17.5,48.3-21.5c0-4-2.7-9.8-23.3-15.4c-20.6-5.5-26.4-8.5-26.4-13.1c0-4.6,5.5-10.7,21.6-10.7
	c16.1,0,28.1,1.9,28.1,1.9l6.6-4.9c0,0-7.5-4-35.8-4C404.1,292.3,386.2,301.2,386.2,312.4z M682.7,359.7l-53-68.8h-1.1h-19.4H608
	L563,349.2L527,322l49.8-31.2h-25.7L511.5,317v14.6l39.7,28h3.7h21.9h3.8l38.1-54.8l20.9,30.1h-32.5l-5.7,7h43.1l12.3,17.8H682.7z
	 M476.3,290.8l-0.6,68.9l28.8,0l-0.7-68.9L476.3,290.8z"/>
<path id="old-logo" d="M412.7,172.8c-19.1,0-36.3,0.1-38-0.2c-1.7-0.2,6.7,2.5,15.4,3.1c7.1,0.5,42.9,1,45.1,0.9
	c2.2-0.1-0.4,6.9-17.2,6.9c-19.1,0-33.7-0.1-38-0.1c-4.3,0,5,2.9,20.7,4c15.7,1.1,32.7,0.3,35.8,0.4c3.1,0.1-1.9,9.1-16.4,9.1
	c-19.1,0-27.2-0.2-33.6-0.2c-6.3,0,12.8,3.5,21.4,3.4c11.2-0.1,21.9,0.3,25.7,0.3c3.8,0,0.5,10.3-13.9,10.3
	c-19.1,0-27.6-0.2-33.2-0.2c-5.6,0,5.8,2.2,14.4,2.6c5.4,0.2,25.8,1.1,32.1,1.1c6.3,0-1.1,9.3-10.2,9.3c-19.1,0-26.4-0.2-33.3-0.2
	c-6.9,0,2.8,2.1,11.4,2.5c7,0.3,24.5,0.7,26.6,0.7c2.2,0,0.4,7.8-11.3,7.8c-19.1,0-21.3-0.6-23.3,0c-2,0.6,3.7,1.9,12.3,2.2
	c4.7,0.2,12.2,0.8,17.2,1.2c-11.8,9.1-27.1,8.9-32.4,8.7c-2.7,1.3,6,1.8,16,1.6c29.8-0.7,44.5-30.8,44.5-51.7
	c0-24.6-17.1-33.1-17.9-33.4c-6.4-2.4-50.3-0.7-59.2,0.8c-3,0.5,1.6,1,24.2,1.1c11.2,0.1,32.4-0.6,34.7,2.5
	C431.6,172.3,428.3,172.8,412.7,172.8z M436,265.8h9.8l34.7-59.3l34.7,59.3h9.8L484.9,199l49.2-84.1h-7.2l-46.3,76.9l-46.3-76.9
	h-7.2l49.2,84.1L436,265.8z M548.2,172.8c19.1,0,36.3,0.1,38-0.2c1.7-0.2-6.7,2.5-15.4,3.1c-7.1,0.5-42.9,1-45.1,0.9
	c-2.2-0.1,0.4,6.9,17.2,6.9c19.1,0,33.7-0.1,38.1-0.1c4.3,0-5,2.9-20.7,4c-15.7,1.1-32.7,0.3-35.8,0.4c-3.1,0.1,1.9,9.1,16.4,9.1
	c19.1,0,27.2-0.2,33.6-0.2c6.3,0-12.8,3.5-21.4,3.4c-11.2-0.1-21.9,0.3-25.7,0.3c-3.8,0-0.5,10.3,13.9,10.3
	c19.1,0,27.6-0.2,33.2-0.2c5.6,0-5.8,2.2-14.4,2.6c-5.4,0.2-25.8,1.1-32.1,1.1c-6.3,0,1.1,9.3,10.2,9.3c19.1,0,26.4-0.2,33.3-0.2
	c6.9,0-2.8,2.1-11.4,2.5c-7,0.3-24.5,0.7-26.6,0.7c-2.2,0-0.4,7.8,11.3,7.8c19.1,0,21.3-0.6,23.3,0c2,0.6-3.7,1.9-12.3,2.2
	c-4.7,0.2-12.2,0.8-17.2,1.2c11.8,9.1,27.1,8.9,32.4,8.7c2.7,1.3-6,1.8-16,1.6c-29.8-0.7-44.5-30.8-44.5-51.7
	c0-24.6,17.1-33.1,17.9-33.4c6.4-2.4,50.3-0.7,59.2,0.8c3,0.5-1.6,1-24.2,1.1c-11.2,0.1-32.4-0.6-34.7,2.5
	C529.2,172.3,532.5,172.8,548.2,172.8z"/>
<path id="main-logo" d="M533.4,115.8l-4.6-3.5l-48.4,80.2l-48.3-80.2l-4.7,3.5l48.9,83.6l-38,63l7.7,3.5l34.5-59.3l34.6,59.2
	l7.4-3.5l-37.9-62.8L533.4,115.8z M560.5,232c-2.7,0-16,0-20,0c-8.4,0-13-6.2-10.7-6.2c1.8,0,23.6,0,32.4,0l1.8-3.7
	c-4,0-17.3,0-26.1,0c-11.3,0-19.7-8-13.7-8c5.5,0,33.6,0,42.2,0l1.3-3.8c-5,0-18.9,0-29.5,0c-14.6,0-20.9-9.1-16.3-9.1
	c2.1,0,35.4,0,48.1,0l0.6-4c-7.2,0.1-24,0.1-35.1,0c-13.7-0.1-18.3-8.3-15.4-8.4c2.7-0.1,35.6,0,51.3,0l0.1-4.1
	c-8.2,0-25.3,0.1-34.5,0.1c-11.3,0-14.6-7.1-11.7-7.1c1.8,0.1,29.5,0.1,45.9,0l-0.5-4c-6.2,0-20,0-26.8,0c-14.6,0-15.4-5.7-13.1-5.7
	c1.9,0,25.2,0,38.9,0l-1.3-5.1c-3.6,0-7,0-7,0s-31.9,0.3-35.3,1.6c-0.8,0.3-17.4,9-17.4,32.3c0,17.2,10.5,40.9,31.8,47.3
	c13.6,0,7.1,0,11.3,0l2.9-3.2c0,0-7.4,0.3-11.4,0.3c-7.6-2.7-8.5-6-4.6-6c3.8,0,16.1,0,19.4,0L560.5,232z M391.1,168.1
	c13.8,0,37,0,38.9,0c2.3,0,1.6,5.7-13.1,5.7c-6.8,0-20.6,0-26.8,0l-0.5,4c16.4,0,44.1,0.1,45.9,0c2.9-0.1-0.4,7.1-11.7,7.1
	c-9.2,0-26.3,0-34.5-0.1v4.1c15.8,0,48.6-0.1,51.3,0c3,0.1-1.6,8.4-15.3,8.4c-11,0-27.8,0-35.2,0l0.7,4c12.7,0,46,0,48.1,0
	c4.5-0.1-1.8,9.1-16.3,9.1c-10.5,0-24.4,0-29.5,0l1.2,3.8c8.5,0,36.7,0,42.2,0c6,0-2.3,8-13.6,8c-8.8,0-22.1,0-26.2,0l1.9,3.7
	c8.8,0,30.6,0,32.4,0c2.4-0.1-2.3,6.2-10.7,6.2c-4,0-17.3,0-20,0l2.4,3.2c3.3,0,15.7,0,19.4,0c3.9,0,2.9,3.4-4.6,6
	c-2.7,0-10.7,0-10.7,0l3.6,2.9c4.8,0,3,0,9.7,0c21.3-6.3,31.8-30.1,31.8-47.3c0-23.3-16.6-31.9-17.4-32.3
	c-3.3-1.3-19.9-1.5-35.3-1.6c-2.2,0-4.5,0-6.8,0L391.1,168.1z"/>
<circle id="ring" class="st3" cx="480.4" cy="185.4" r="89.6"/>
</svg>
