<svg version="1.1" id="Layer_1" xmlns="http://www.w3.org/2000/svg" x="0" y="0" viewBox="0 0 500 500" style="enable-background:new 0 0 500 500" xml:space="preserve"><style>.st0{fill:#1a1a1a}.st6{fill:#f15a22}.st12{fill:#602d91}</style><path class="st0" d="M372.7 149.9c0-1.1 1-2.1 2.3-2.1h11c1.3 0 2.3.9 2.3 2.1h-15.6zm-14.3 0c0-1.1-1-2.1-2.3-2.1h-24.6c-1.3 0-2.3.9-2.3 2.1h29.2zm-38.8 0c0-1.1-1-2.1-2.3-2.1h-24.7c-1.3 0-2.3.9-2.3 2.1h29.3z"/><linearGradient id="SVGID_1_" gradientUnits="userSpaceOnUse" x1="-43.106" y1="265" x2="-41.625" y2="265" gradientTransform="rotate(90 206.6 397.75)"><stop offset="0" style="stop-color:#acacae"/><stop offset=".265" style="stop-color:#aaaaac"/><stop offset=".406" style="stop-color:#a2a2a4"/><stop offset=".519" style="stop-color:#959596"/><stop offset=".616" style="stop-color:#828283"/><stop offset=".703" style="stop-color:#69696a"/><stop offset=".782" style="stop-color:#4b4b4c"/><stop offset=".818" style="stop-color:#3b3b3b"/><stop offset=".827" style="stop-color:#4e4e4e"/><stop offset=".844" style="stop-color:#6b6b6c"/><stop offset=".862" style="stop-color:#838384"/><stop offset=".883" style="stop-color:#959597"/><stop offset=".907" style="stop-color:#a2a2a4"/><stop offset=".938" style="stop-color:#aaaaac"/><stop offset="1" style="stop-color:#acacae"/></linearGradient><path d="M373.1 149.6c.2-.8 1-1.5 2-1.5h11c1 0 1.8.6 2 1.5h-15zm-15.1 0c-.2-.8-1-1.5-2-1.5h-24.6c-1 0-1.8.6-2 1.5H358zm-38.8 0c-.2-.8-1-1.5-2-1.5h-24.6c-1 0-1.8.6-2 1.5h28.6z" style="fill:url(#SVGID_1_)"/><linearGradient id="SVGID_00000170280662121855876110000008012826970193693358_" gradientUnits="userSpaceOnUse" x1="159.58" y1="220.5" x2="161.06" y2="220.5" gradientTransform="matrix(0 1 1 0 104.35 191.15)"><stop offset="0" style="stop-color:#acacae"/><stop offset=".062" style="stop-color:#aaaaac"/><stop offset=".093" style="stop-color:#a2a2a4"/><stop offset=".117" style="stop-color:#959597"/><stop offset=".138" style="stop-color:#838384"/><stop offset=".156" style="stop-color:#6b6b6c"/><stop offset=".173" style="stop-color:#4e4e4e"/><stop offset=".182" style="stop-color:#3b3b3b"/><stop offset=".218" style="stop-color:#4b4b4c"/><stop offset=".297" style="stop-color:#69696a"/><stop offset=".384" style="stop-color:#828283"/><stop offset=".481" style="stop-color:#959596"/><stop offset=".594" style="stop-color:#a2a2a4"/><stop offset=".735" style="stop-color:#aaaaac"/><stop offset="1" style="stop-color:#acacae"/></linearGradient><path style="fill:url(#SVGID_00000170280662121855876110000008012826970193693358_)" d="M349.9 350.8c-.2.8-1 1.5-2.1 1.5h-45.9c-1.1 0-1.9-.6-2.1-1.5h50.1z"/><linearGradient id="SVGID_00000135684245856227120810000012494246525948020649_" gradientUnits="userSpaceOnUse" x1="141.553" y1="555.542" x2="-25.066" y2="148.734" gradientTransform="rotate(90 206.6 397.75)"><stop offset="0" style="stop-color:#939392"/><stop offset="1" style="stop-color:#000"/></linearGradient><path style="fill:url(#SVGID_00000135684245856227120810000012494246525948020649_)" d="M456.6 318.7V182c0-18.1-14.7-32.8-32.8-32.8H76.2c-18.1 0-32.8 14.7-32.8 32.8v136.7c0 18.1 14.7 32.8 32.8 32.8h347.6c18.1 0 32.8-14.7 32.8-32.8zM77.5 344.5c-14.2 0-25.7-11.5-25.7-25.7V181.9c0-14.2 11.5-25.7 25.7-25.7h344.9c14.2 0 25.7 11.5 25.7 25.7v16.7c0 .9-.7 1.6-1.6 1.6h-2.6c-5.8 0-10.5 4.7-10.5 10.5v79.4c0 5.8 4.7 10.5 10.5 10.5h2.6c.9 0 1.6.7 1.6 1.6v16.6c0 14.2-11.5 25.7-25.7 25.7H77.5z"/><path d="M456.1 318.6V182.1c0-17.8-14.4-32.2-32.1-32.2H76c-17.8 0-32.1 14.4-32.1 32.1v136.6c0 17.8 14.4 32.1 32.1 32.1h348c17.7.1 32.1-14.3 32.1-32.1zM77.5 344.5c-14.2 0-25.7-11.5-25.7-25.7V181.9c0-14.2 11.5-25.7 25.7-25.7h344.9c14.2 0 25.7 11.5 25.7 25.7v16.7c0 .9-.7 1.6-1.6 1.6h-2.6c-5.8 0-10.5 4.7-10.5 10.5v79.4c0 5.8 4.7 10.5 10.5 10.5h2.6c.9 0 1.6.7 1.6 1.6v16.6c0 14.2-11.5 25.7-25.7 25.7H77.5z" style="fill:#3a3a3a"/><path d="M454.1 318.6V182.1c0-17-13.7-30.7-30.7-30.7H76.5c-16.9 0-30.7 13.7-30.7 30.7v136.5c0 16.9 13.7 30.7 30.7 30.7h346.9c17 0 30.7-13.8 30.7-30.7zM77.5 344.5c-14.2 0-25.7-11.5-25.7-25.7V181.9c0-14.2 11.5-25.7 25.7-25.7h344.9c14.2 0 25.7 11.5 25.7 25.7v16.7c0 .9-.7 1.6-1.6 1.6h-2.6c-5.8 0-10.5 4.7-10.5 10.5v79.4c0 5.8 4.7 10.5 10.5 10.5h2.6c.9 0 1.6.7 1.6 1.6v16.6c0 14.2-11.5 25.7-25.7 25.7H77.5z"/><path class="st0" d="M442.3 260.8v-20.9c0-.9.8-1.6 1.9-1.6 1 0 1.9.7 1.9 1.6v20.9c0 .9-.8 1.6-1.9 1.6-1.1-.1-1.9-.8-1.9-1.6z"/><path d="M422.9 351.5v-2.2h1.2v2.2h-1.2zm1.2-200.1v-2.2h-1.2v2.2h1.2zm30 167.7h2.5v-1.5h-2.5v1.5zM75.9 149.2v2.2h1.2v-2.2h-1.2zm0 200.1v2.2h1.2v-2.2h-1.2zm-30-167.7h-2.5v1.4h2.5v-1.4z" style="fill:#939393"/><g><path class="st6" d="M300.7 209.4c.1-1 .1-2 .1-3 0-1.7-.1-3.4-.4-5.1-.3-1.7-.7-3.2-1.3-4.7-.6-1.5-1.3-2.9-2.2-4.1-.9-1.3-2-2.3-3.2-3.2-1.2-.9-2.6-1.6-4.2-2.1s-3.3-.8-5.2-.8c-2.3 0-4.4.3-6.2 1-1.9.7-3.6 1.6-5.1 2.7-1.5 1.2-2.8 2.5-3.9 4s-2 3.2-2.8 5c-.7 1.8-1.3 3.7-1.6 5.6-.4 1.9-.5 3.9-.5 5.8v3.5c0 1.9.2 3.7.5 5.5.4 1.8.9 3.5 1.6 5.2.7 1.6 1.6 3.1 2.6 4.5 1.1 1.4 2.3 2.6 3.7 3.6 1.4 1 3 1.8 4.7 2.4 1.7.6 3.7.8 5.8.8 1 0 2.1-.1 3.1-.2 1.1-.1 2.1-.3 3.2-.6 1-.3 2-.6 3-1.1.5-.2.9-.5 1.4-.7.5-.3.9-.6 1.3-.9l1.5-14.3v-2.7c1.3-.1 2.5-.2 3.8-.3.3-1.8.4-3.6.4-5.5v-3.5c0 1.2 0 2.2-.1 3.2zm-9.2 8.4c-1 .5-2 .9-3 1.2-1 .3-1.9.5-2.8.5-1.6 0-3-.5-4.2-1.4-.2-.1-.3-.3-.4-.4 2.9-.4 5.7-.8 8.6-1.2 1.8-.3 3.6-.5 5.4-.6-.2.1-.5.3-.7.4-1 .6-1.9 1.1-2.9 1.5zm-11.4-11.7c.1-.2.3-.4.4-.6.1-.2.2-.3.3-.4l.1-.1.3-.3.1-.1.3-.3.1-.1c.1-.1.3-.2.4-.3.6-.4 1.4-.7 2.2-.7.7 0 1.3.2 1.8.5s.8.7 1.1 1.2c.1.2.2.4.3.7l-7.6.7c.1-.1.1-.2.2-.2zm-.3-3c0-.1.1-.2.1-.2 0 .1-.1.1-.1.2zm1-1.6.1-.1s-.1 0-.1.1zm.8-.8.1-.1s-.1 0-.1.1zm1.5 13.2c-1.4.2-2.9.4-4.3.6 1.5-.2 2.9-.4 4.3-.6zm3.8-13.1c-.2-.3-.5-.5-.8-.7-.3-.2-.5-.3-.9-.4.3.1.6.2.9.4.3.2.6.4.8.7zm-3.7-1.1c-.4.1-.7.3-1 .5-.1 0-.1.1-.1.1l.1-.1c.3-.2.6-.4 1-.5zm-1.9 1.2-.1.1-.2.2c.1 0 .2-.2.3-.3zm-.8 1zm-1.7 3.9c-.1.2-.1.4-.1.6 0-.2 0-.4.1-.6zM264.7 216c-.2-.8-.3-1.7-.4-2.5.1.9.2 1.7.4 2.5.4 1.8.9 3.5 1.6 5.2.4 1 .9 1.9 1.5 2.8-.6-.9-1.1-1.8-1.5-2.8-.7-1.6-1.2-3.4-1.6-5.2zm5.6 11.3a15.912 15.912 0 0 1 0 0zm7.1 4.4c-.4-.1-.7-.2-1-.4.3.2.7.3 1 .4 1.7.6 3.7.8 5.8.8h1.3-1.3c-2.1 0-4.1-.2-5.8-.8zm17.8-2.6c-.4.3-.9.6-1.3.9.4-.3.8-.6 1.3-.9l1.4-13.4-1.4 13.4zm-2.6-16.5c2.6-.3 5.3-.6 7.9-.7-2.7.1-5.3.4-7.9.7zM151.8 185.8H134l-9 22.5-6.7-21.2-17 .6-.6 44.3v4.2l15.2-.5.1-20.8 5.2 17.9h5.8l6.8-19.9-.1 20.6v4.1l15.1-.6 3-47.1zM264.5 190.8v-4.1l-36 .1-.4 15.1v4.1l9.8-.5v30.4l13.9-.7 2.5-30.4 9.9-.4zM190.6 201.9v4.1l9.9-.5-.1 26.3v4.1l14-.7 2.5-30.4 9.8-.4.4-13.6v-4.1l-36.1.1zM164.1 187.5l-13.2 42.7v4.1l16.9 1.6 1.7-7.2h7.5l2 7.2 16.4-2.1v-4.1l-12.9-43.2-18.4 1zm10.7 27.3h-3.1l1.5-7 1.6 7z"/><g><linearGradient id="SVGID_00000108271500691409178190000010471788946279602340_" gradientUnits="userSpaceOnUse" x1="282.509" y1="185.251" x2="282.509" y2="233.631"><stop offset="0" style="stop-color:#ffc90e"/><stop offset="1" style="stop-color:#f8994b"/></linearGradient><path style="fill:url(#SVGID_00000108271500691409178190000010471788946279602340_)" d="M279.3 204.2c.3-.8.7-1.5 1.1-2.2.5-.7 1-1.2 1.7-1.7.6-.4 1.4-.7 2.3-.7.7 0 1.3.2 1.8.5s.8.7 1.1 1.2c.3.5.5 1.1.6 1.7.1.6.2 1.2.2 1.8v.7l-9.4.9c.1-.7.3-1.5.6-2.2m-1.2-16.9c-1.9.7-3.6 1.6-5.1 2.7-1.5 1.2-2.8 2.5-3.9 4s-2 3.2-2.8 5c-.7 1.8-1.3 3.7-1.6 5.6-.4 1.9-.5 3.9-.5 5.8s.2 3.7.5 5.5c.4 1.8.9 3.5 1.6 5.2.7 1.6 1.6 3.1 2.6 4.5 1.1 1.4 2.3 2.6 3.7 3.6 1.4 1 3 1.8 4.7 2.4 1.7.6 3.7.8 5.8.8 1 0 2.1-.1 3.1-.2 1.1-.1 2.1-.3 3.2-.6 1-.3 2-.6 3-1.1 1-.4 1.9-1 2.7-1.6l1.5-14.3c-.7.4-1.4.9-2.4 1.5-.9.5-1.9 1.1-2.9 1.5-1 .5-2 .9-3 1.2-1 .3-1.9.5-2.8.5-1.6 0-3-.5-4.2-1.4-1.2-.9-2-2.1-2.6-3.6l10.8-1.5c3.6-.5 7.2-.9 10.8-1.1.3-1.8.4-3.6.4-5.5 0-1.7-.1-3.4-.4-5.1-.3-1.7-.7-3.2-1.3-4.7-.6-1.5-1.3-2.9-2.2-4.1-.9-1.3-2-2.3-3.2-3.2-1.2-.9-2.6-1.6-4.2-2.1s-3.3-.8-5.2-.8c-2.1.1-4.2.4-6.1 1.1"/><linearGradient id="SVGID_00000147215950392615948410000017865302741404146570_" gradientUnits="userSpaceOnUse" x1="208.849" y1="183.941" x2="208.849" y2="232.044"><stop offset="0" style="stop-color:#ffc809"/><stop offset="1" style="stop-color:#f89848"/></linearGradient><path style="fill:url(#SVGID_00000147215950392615948410000017865302741404146570_)" d="m227.1 186.7-.4 13.6-9.8.4-2.5 30.4-14 .7.1-30.4-9.9.5.4-15.1z"/><linearGradient id="SVGID_00000045592446184400447080000014277575155921656234_" gradientUnits="userSpaceOnUse" x1="173.127" y1="183.941" x2="173.127" y2="232.044"><stop offset="0" style="stop-color:#ffc809"/><stop offset="1" style="stop-color:#f89848"/></linearGradient><path style="fill:url(#SVGID_00000045592446184400447080000014277575155921656234_)" d="m182.4 186.6 12.9 43.2-16.4 2.1-2-7.2h-7.5l-1.7 7.2-16.9-1.6 13.2-42.7 18.4-1zm-11.6 28.2h5l-2.5-11.2-2.5 11.2"/><g><linearGradient id="SVGID_00000080887571464050636990000005501810367027245496_" gradientUnits="userSpaceOnUse" x1="126.235" y1="183.941" x2="126.235" y2="232.044"><stop offset="0" style="stop-color:#ffc809"/><stop offset="1" style="stop-color:#f89848"/></linearGradient><path style="fill:url(#SVGID_00000080887571464050636990000005501810367027245496_)" d="m151.8 185.8-3 47.1-15.1.6.1-24.8-6.8 20h-5.8l-5.2-17.9-.1 20.8-15.2.4.6-44.3 17-.6 6.7 21.2 9-22.5z"/></g><g><linearGradient id="SVGID_00000104690422856103162150000003123536878062012586_" gradientUnits="userSpaceOnUse" x1="246.29" y1="183.941" x2="246.29" y2="232.044"><stop offset="0" style="stop-color:#ffc809"/><stop offset="1" style="stop-color:#f89848"/></linearGradient><path style="fill:url(#SVGID_00000104690422856103162150000003123536878062012586_)" d="m264.5 186.7-.3 13.6-9.9.4-2.5 30.4-13.9.7v-30.4l-9.8.5.4-15.1z"/></g></g><g><path class="st12" d="m395.2 285.4.3-.3c.1-.1.1-.2.2-.2.2-.2.4-.5.6-.7.2-.2.4-.5.5-.7.1-.1.1-.2.2-.2.1-.1.2-.3.3-.4 0-.1.1-.2.1-.2l.6-1.2c0-.1.1-.2.1-.3.2-.4.3-.8.4-1.2.1-.3.2-.7.3-1 .3-1.4.4-2.9.4-4.5V270c0-2.7-.5-5-1.6-7s-2.5-3.7-4.3-5c-1.8-1.3-3.9-2.4-6.2-3-2.3-.7-4.8-1-7.3-1-1.6 0-3.2 0-4.8.1-1.6.1-3.1.2-4.6.4-1.5.2-3 .5-4.5.8-1.5.4-3 .8-4.6 1.4-.1 2.5-.2 4.9-.3 7.3 0 2.4-.1 4.9-.1 7.3l-.3 14.6c-.1 4.8-.2 9.7-.3 14.6v4.1h14.2l.6-13.3 4.1-.1 5.1 13.7 14.9-2.8V298l-6.1-10.6c.7-.5 1.4-1.1 1.9-1.6.1-.3.2-.4.2-.4zm-13.3-9.7c-.8.5-1.7.9-2.6 1.1-1 .2-1.9.4-2.9.4h-.6l.3-7.8c.4-.1.8-.2 1.2-.2.4-.1.8-.1 1.3-.1 1 0 1.9.2 2.6.5.7.3 1.4.7 1.9 1.3.5.5.9 1.2 1.1 1.9 0 .1 0 .1.1.2-.1.3-.2.6-.4.9-.6.7-1.2 1.3-2 1.8zM358.6 274.1c0-1.7-.1-3.4-.4-5.1-.3-1.7-.7-3.2-1.3-4.7-.6-1.5-1.3-2.9-2.2-4.1-.9-1.3-2-2.3-3.2-3.2-1.2-.9-2.6-1.6-4.2-2.1s-3.3-.8-5.2-.8c-2.3 0-4.4.3-6.2 1-1.9.7-3.6 1.6-5.1 2.7-1.5 1.2-2.8 2.5-3.9 4s-2 3.2-2.8 5c-.6 1.6-1.1 3.2-1.5 4.9l.3-12.4v-4.1l-36 .1-.4 15.1v4.1l9.8-.5-.1 26.3v4.1l13.9-.7 2.5-30.4 9.6-.4c-.3 1.8-.5 3.5-.5 5.3v3.5c0 1.9.2 3.7.5 5.5.4 1.8.9 3.5 1.6 5.2.7 1.6 1.6 3.1 2.6 4.5 1.1 1.4 2.3 2.6 3.7 3.6 1.4 1 3 1.8 4.7 2.4 1.7.6 3.7.8 5.8.8 1 0 2.1-.1 3.1-.2 1.1-.1 2.1-.3 3.2-.6 1-.3 2-.6 3-1.1.5-.2.9-.5 1.4-.7.5-.3.9-.6 1.3-.9l1.5-14.3v-2.7c1.3-.1 2.5-.2 3.8-.3.3-1.8.4-3.6.4-5.5l.3-3.3c0 1 0 2-.1 3 .1-1.1.1-2 .1-3zm-9.4 11.4c-1 .5-2 .9-3 1.2-1 .3-1.9.5-2.8.5-1.6 0-3-.5-4.2-1.4-.2-.1-.3-.3-.4-.4 2.9-.4 5.7-.8 8.6-1.2 1.8-.3 3.6-.5 5.4-.6-.2.1-.5.3-.7.4-.9.5-1.9 1-2.9 1.5zm-11.4-11.7c.1-.2.3-.4.4-.6.1-.2.2-.3.3-.4l.1-.1.3-.3.1-.1.3-.3.1-.1c.1-.1.3-.2.4-.3.6-.4 1.4-.7 2.2-.7.7 0 1.3.2 1.8.5s.8.7 1.1 1.2c.1.2.2.4.3.7l-7.6.7.2-.2zm-.3-3c0-.1.1-.2.1-.2s0 .1-.1.2zm1.9-2.5.1-.1c-.1 0-.1.1-.1.1zm1.5 13.2c-1.4.2-2.9.4-4.3.6 1.4-.1 2.9-.4 4.3-.6zm3.8-13.1c-.2-.3-.5-.5-.8-.7-.2-.2-.5-.3-.8-.4.3.1.6.2.8.4.3.2.6.4.8.7zm-3.7-1c-.4.1-.7.3-1 .5l-.1.1.1-.1c.2-.2.6-.4 1-.5zm-1.9 1.2-.1.1-.3.3-.1.1c.1-.2.3-.3.5-.5zm-.8.9s0 .1 0 0c-.1.1-.1.1 0 0-.1.1-.1.1 0 0 0 .1 0 0 0 0zm-1.7 3.9c0 .2-.1.4-.1.5 0-.1 0-.3.1-.5zm-14.1 10.3c-.2-.8-.3-1.7-.4-2.5.1.8.2 1.6.4 2.5.4 1.8.9 3.5 1.6 5.2.4 1 .9 1.9 1.5 2.8-.6-.9-1.1-1.8-1.5-2.8-.7-1.7-1.3-3.4-1.6-5.2zm5.6 11.2c.7.7 1.5 1.4 2.3 2-.8-.5-1.6-1.2-2.3-2zm7.1 4.4c-.4-.1-.7-.2-1-.4.3.2.6.3 1 .4 1.7.6 3.7.8 5.8.8h1.3-1.3c-2.2.1-4.1-.2-5.8-.8zm17.7-2.6c-.4.3-.9.6-1.3.9.5-.3.9-.5 1.3-.9l1.4-13.4-1.4 13.4zm-2.4-16.5c2.6-.3 5.2-.5 7.7-.7-2.6.2-5.1.4-7.7.7zM125 276.7l-6.7-21.2-17 .6-.6 44.3v4.2l15.2-.5.1-20.8 5.2 17.9h5.8l6.8-19.9-.1 20.6v4.1l15.1-.6 3-47.1v-4.1H134zM234 277.3l-11.4-23.1-16.5.8-1.2 45.4v4.2h14.9l1.4-23.8 9.3 23.3 17.3-1.5 2.4-43.5V255l-15.6.5zM283.7 275.5c-1-1-2.2-1.8-3.6-2.5-1.4-.6-3-1-4.8-1.1-.3 0-.6-.1-1-.1h-2.1c-.6 0-1.3-.1-1.9-.1-.4 0-.8-.1-1.2-.2h.2c.5-.1 1-.2 1.5-.2.5-.1 1-.1 1.4-.1h1.1c1.6 0 3.2.2 4.8.5 1.6.3 3.2.7 4.7 1.2l1.3-13v-4.1c-1-.4-2-.8-3.1-1.1-1.1-.3-2.2-.5-3.3-.7-1.1-.2-2.3-.3-3.4-.4-1.1-.1-2.3-.1-3.3-.1-2.4 0-4.8.4-7 1.1-2.3.7-4.3 1.8-6 3.2-1.8 1.4-3.2 3.1-4.2 5.1-1 2-1.6 4.3-1.6 6.8v4.1c0 1.8.3 3.5.9 5.1.6 1.6 1.5 2.9 2.6 4.1 1.1 1.1 2.4 2 4 2.7 1.6.6 3.3 1 5.2 1h1.1c.4 0 .9 0 1.4.1.5 0 1 .1 1.6.2.3 0 .5.1.7.2l-1.5.3h-1.5c-2.2 0-4.4-.3-6.7-.8-2.3-.6-4.4-1.4-6.2-2.5l-1.5 13.2v4.1c.9.4 2 .9 3.3 1.4 1.2.5 2.5.9 3.8 1.3 1.3.4 2.6.8 3.9 1 1.3.3 2.5.4 3.6.4 2.8 0 5.4-.4 7.9-1.1 2.4-.7 4.6-1.8 6.4-3.3.4-.3.8-.7 1.2-1.1l.1-.1.1-.1c.4-.4.7-.8 1-1.2l.1-.1c.3-.4.6-.8.9-1.3 0-.1.1-.1.1-.2s.1-.1.1-.2c.3-.4.5-.9.7-1.3.2-.3.3-.6.4-1 0-.1.1-.2.1-.3.1-.2.2-.5.2-.7 0-.1 0-.1.1-.2v-.2c.1-.3.2-.6.2-1v-.2c.1-.4.1-.8.2-1.2v-.3c0-.3.1-.6.1-1v-5.8c0-1.7-.3-3.3-.8-4.7-.6-1.2-1.4-2.4-2.3-3.5zm-17-6.4zm0-.2s.1 0 0 0c.1 0 0 0 0 0zm-.1.3zm0 .3v-.1.1zM202.7 299.3c-.5.4-1 .6-1.5.6-.9 0-1.6-.5-2.2-1.2-.9-1-1.3-2.2-1.5-3.6.2-1.6.5-3.1.9-4.3.9-3.1 1.7-6.1 1.7-9.3v-4.1c0-1.4-.2-2.8-.6-4.3-.7-2.8-2-5.3-3.8-7.6-1.8-2.3-3.9-4.1-6.4-5.6-2.6-1.5-5.5-2.5-8.5-2.9-1.1-.1-2.1-.2-3.2-.2-5 0-9.6 1.5-13.9 4.6-2.4 1.8-4.4 3.9-6 6.4-1.6 2.6-2.6 5.3-3.1 8.3-.2 1-.2 2-.2 3.1v-.2 4.1c0 3.8 1 8 2.7 11.3 1 2 2.3 3.8 3.3 5.8.2.4.4.9.5 1.4-.4.9-1.1 1.6-2.3 1.8v.6-.1 4.1c0 1.5.9 3 2.2 3.8.9.5 2 .9 3.2.9h.6c.1 0 .2 0 .4-.1h.1c.2 0 .3-.1.5-.1h.1c.1 0 .2-.1.4-.2 0 0 .1 0 .1-.1.1-.1.2-.1.3-.2h.1l.3-.3c.1-.2.3-.3.4-.5.1-.1.1-.3.2-.4.6 1.8 2.2 3.2 4 3.3h.9c.2 0 .4-.1.5-.1.2-.1.3-.1.5-.2 0 0 .1 0 .1-.1.2-.1.3-.2.5-.3.1-.1.3-.2.4-.3l.1-.1.1-.1.2-.2c0-.1.1-.1.1-.2.1-.1.2-.2.3-.4l.1-.1c.1-.2.2-.3.3-.5.7 1.7 2.4 2.8 4.1 2.8.2 0 .4 0 .6-.1.2 0 .4-.1.6-.2.1 0 .1-.1.2-.1.1-.1.3-.1.4-.2.1 0 .1-.1.2-.1l.3-.3.2-.2.1-.1c.1-.1.2-.2.2-.3l.1-.1c.1-.2.2-.3.3-.5 0 0 0-.1.1-.1.1-.2.2-.3.2-.5 0-.1 0-.1.1-.2 0-.1 0-.1.1-.2 0-.1 0-.2.1-.3v-.2c0-.2.1-.4.1-.7 1.2 2 3.3 3.4 5.5 3.4.3 0 .5 0 .8-.1.2 0 .4-.1.6-.2.1 0 .1-.1.2-.1.1-.1.3-.1.4-.2.1 0 .1-.1.2-.1.1-.1.2-.2.4-.3l.2-.2.1-.1.3-.3.1-.1c.1-.2.3-.3.4-.5 0 0 0-.1.1-.1.1-.2.2-.3.2-.5 0-.1.1-.1.1-.2s.1-.1.1-.2 0-.2.1-.3v-.2c0-.2.1-.4.1-.7v-.9c.9 1.3 2.4 1.8 3.9 1.8.4 0 .9 0 1.3-.1.3-.1.5-.1.7-.2.1 0 .1-.1.2-.1.2-.1.3-.1.5-.2.1 0 .1-.1.2-.1.2-.1.3-.2.4-.3 0 0 .1 0 .1-.1.2-.1.3-.3.5-.4l.1-.1.3-.3c0-.1.1-.1.1-.2.1-.1.1-.2.2-.3 0 0 0-.1.1-.1l.3-.6v-.1c.1-.2.1-.4.2-.5v-.1c0-.2.1-.3.1-.5v-.1c0-.1 0-.2.1-.3v-5 .3c.1-.6 0-1.1-.1-1.1zm.1 1.7v-.3.3zm0 .2c0 .1 0 .2-.1.3v.1c.1-.2.1-.3.1-.4zm-.8 2.3-.1.1c.1-.1.1-.2.2-.3l-.1.2zm-.5.7c.1-.1.1-.2.2-.3 0 0 0 .1-.1.1 0 .1-.1.1-.1.2zm.8-1.3v-.1.1zm.3-.8c0-.1.1-.2.1-.3 0 .1-.1.2-.1.3zm-1.3 2.3c-.1.1-.2.2-.3.2.1 0 .2-.1.3-.2zm-.6.5c-.1.1-.2.1-.2.2.1-.1.2-.1.4-.2h-.2zm-1 .5c.1-.1.3-.1.4-.2-.2.1-.3.2-.4.2zm-.3.2c-.3.1-.5.2-.8.2.3-.1.6-.2.8-.2zm.2-23.7c0 .1 0 .2-.1.3 0-.1.1-.2.1-.3zm.4-3.4v.3-.3zm-.1 1.1v.3-.3zm-.1 1.3zm-.5 2.2v.2-.2zm-.3 1.2c0 .1 0 .2-.1.3.1-.1.1-.2.1-.3zm-.3 1.1c0 .1-.1.2-.1.3.1-.1.1-.2.1-.3zm-.5 2c.1-.2.1-.5.2-.7-.1.2-.2.4-.2.7zm-.9 5.2v.5-.5zm.8-5c0 .2-.1.3-.1.5 0-.2.1-.3.1-.5zm-.2.8c0 .2-.1.3-.1.5.1-.2.1-.3.1-.5zm-.1.8c0 .2-.1.3-.1.5 0-.2 0-.3.1-.5zm-.2.8c0 .2-.1.3-.1.5.1-.2.1-.3.1-.5zm-.1.9c0 .2 0 .3-.1.5.1-.2.1-.4.1-.5zm-.1.8v.5-.5zm-6.8 17.4c0-.1 0-.1 0 0 0-.1 0-.1 0 0 0-.1 0 0 0 0zm1.8-1.4zm-37.9-27.1v-.1.1zm.1 1.6v-.3.3zm.2 1.3v.1-.1zm.3 1.3c0 .1 0 .2.1.3-.1-.1-.1-.2-.1-.3zm.4 1.6c0 .1 0 .2.1.2 0-.1-.1-.2-.1-.2zm.4 1.3c0 .1 0 .1.1.2 0-.1 0-.1-.1-.2zm.6 1.3c0 .1.1.2.1.3-.1-.1-.1-.2-.1-.3zm4.2 7.9c-.1-.3-.2-.5-.3-.7.1.2.2.5.3.7zm.5 2.8c0-.3 0-.6-.1-.9.1.3.1.6.1.9zm-.1-.8c0-.3-.1-.6-.2-.9.1.3.2.6.2.9zm-.2-1.1c-.1-.3-.1-.5-.2-.8.1.3.2.6.2.8zm-2.3 6.8v-.3c-.1.1-.1.2 0 .3zm0 .2c0 .1.1.2.1.3 0 0-.1-.1-.1-.3zm.2.6c0 .1.1.2.1.3 0-.1-.1-.2-.1-.3zm.3.6c.1.1.1.2.2.3-.1-.1-.2-.2-.2-.3zm.3.5c.1.1.2.2.2.3-.1-.1-.1-.2-.2-.3zm.4.4.3.3-.3-.3zm.4.4c.2.1.3.2.5.3-.2 0-.3-.1-.5-.3z"/></g><g><linearGradient id="SVGID_00000079449413001058083940000000549299289937463437_" gradientUnits="userSpaceOnUse" x1="340.284" y1="252.888" x2="340.284" y2="301.268"><stop offset=".036" style="stop-color:#e39ff6"/><stop offset=".217" style="stop-color:#db8bf5"/><stop offset=".586" style="stop-color:#c759f4"/><stop offset="1" style="stop-color:#ad19f2"/></linearGradient><path style="fill:url(#SVGID_00000079449413001058083940000000549299289937463437_)" d="M337.1 271.8c.3-.8.7-1.5 1.1-2.2.5-.7 1-1.2 1.7-1.7.6-.4 1.4-.7 2.3-.7.7 0 1.3.2 1.8.5s.8.7 1.1 1.2c.3.5.5 1.1.6 1.7.1.6.2 1.2.2 1.8v.7l-9.4.9c.1-.7.3-1.4.6-2.2m-1.2-16.9c-1.9.7-3.6 1.6-5.1 2.7-1.5 1.2-2.8 2.5-3.9 4s-2 3.2-2.8 5c-.7 1.8-1.3 3.7-1.6 5.6-.4 1.9-.5 3.9-.5 5.8s.2 3.7.5 5.5c.4 1.8.9 3.5 1.6 5.2.7 1.6 1.6 3.1 2.6 4.5 1.1 1.4 2.3 2.6 3.7 3.6 1.4 1 3 1.8 4.7 2.4 1.7.6 3.7.8 5.8.8 1 0 2.1-.1 3.1-.2 1.1-.1 2.1-.3 3.2-.6 1-.3 2-.6 3-1.1 1-.4 1.9-1 2.7-1.6l1.5-14.3c-.7.4-1.4.9-2.4 1.5-.9.5-1.9 1.1-2.9 1.5-1 .5-2 .9-3 1.2-1 .3-1.9.5-2.8.5-1.6 0-3-.5-4.2-1.4-1.2-.9-2-2.1-2.6-3.6l10.8-1.5c3.6-.5 7.2-.9 10.8-1.1.3-1.8.4-3.6.4-5.5 0-1.7-.1-3.4-.4-5.1-.3-1.7-.7-3.2-1.3-4.7-.6-1.5-1.3-2.9-2.2-4.1-.9-1.3-2-2.3-3.2-3.2-1.2-.9-2.6-1.6-4.2-2.1s-3.3-.8-5.2-.8c-2.2.1-4.3.5-6.1 1.1"/><linearGradient id="SVGID_00000144335665133350104310000012238874424175807122_" gradientUnits="userSpaceOnUse" x1="126.237" y1="254.208" x2="126.237" y2="308.464"><stop offset="0" style="stop-color:#e39ff6"/><stop offset="1" style="stop-color:#ad19f2"/></linearGradient><path style="fill:url(#SVGID_00000144335665133350104310000012238874424175807122_)" d="m151.8 254.2-3 47.1-15.1.6.1-24.8-6.8 20h-5.8l-5.2-17.9-.1 20.8-15.2.4.6-44.3 17-.6 6.7 21.2 9-22.5z"/><linearGradient id="SVGID_00000009570802097004982730000001376300427682968470_" gradientUnits="userSpaceOnUse" x1="227.532" y1="254.208" x2="227.532" y2="308.464"><stop offset="0" style="stop-color:#e39ff6"/><stop offset="1" style="stop-color:#ad19f2"/></linearGradient><path style="fill:url(#SVGID_00000009570802097004982730000001376300427682968470_)" d="m222.6 254.2 11.4 23.1.6-21.8 15.6-.5-2.4 43.5-17.3 1.5-9.3-23.3-1.4 23.7h-14.9l1.2-45.4z"/><linearGradient id="SVGID_00000040545921538184145510000001926100445768283067_" gradientUnits="userSpaceOnUse" x1="304.727" y1="254.203" x2="304.727" y2="308.459"><stop offset="0" style="stop-color:#e39ff6"/><stop offset="1" style="stop-color:#ad19f2"/></linearGradient><path style="fill:url(#SVGID_00000040545921538184145510000001926100445768283067_)" d="m322.9 255.1-.3 13.6-9.8.4-2.6 30.4-13.9.7.1-30.4-9.9.5.4-15.1z"/><linearGradient id="SVGID_00000058559966772366136150000016612946172357933232_" gradientUnits="userSpaceOnUse" x1="269.368" y1="254.203" x2="269.368" y2="308.459"><stop offset="0" style="stop-color:#e39ff6"/><stop offset="1" style="stop-color:#ad19f2"/></linearGradient><path style="fill:url(#SVGID_00000058559966772366136150000016612946172357933232_)" d="M270.9 253.4c1.1 0 2.2 0 3.3.1 1.1.1 2.3.2 3.4.4s2.2.4 3.3.7c1.1.3 2.1.7 3.1 1.1l-1.3 13c-1.5-.5-3.1-.9-4.7-1.2-1.6-.3-3.2-.5-4.8-.5h-1.1c-.5 0-.9 0-1.4.1-.5.1-1 .1-1.5.2s-1 .3-1.4.4c-.4.2-.7.4-1 .7-.2.3-.4.7-.3 1.1 0 .5.2.8.5 1.1.3.3.8.5 1.3.7.5.2 1.1.3 1.8.3.6.1 1.3.1 1.9.1h2.1c.4 0 .7 0 1 .1 1.8.1 3.3.5 4.8 1.1 1.4.6 2.6 1.4 3.6 2.5 1 1 1.7 2.2 2.2 3.7.5 1.4.8 3 .8 4.7 0 2.9-.5 5.5-1.6 7.7-1 2.2-2.5 4-4.3 5.5s-3.9 2.5-6.4 3.3c-2.4.7-5.1 1.1-7.9 1.1-1.1 0-2.3-.1-3.6-.4s-2.6-.6-3.9-1c-1.3-.4-2.6-.9-3.8-1.3-1.2-.5-2.3-.9-3.3-1.4l1.5-13.2c1.9 1.1 3.9 1.9 6.2 2.5 2.3.6 4.5.8 6.7.8h1.5c.6 0 1.2-.1 1.7-.3.5-.2 1-.4 1.4-.7.4-.3.6-.8.6-1.4 0-.4-.1-.8-.4-1-.3-.3-.6-.5-1-.7-.4-.2-.9-.3-1.4-.4-.5-.1-1-.2-1.6-.2-.5 0-1-.1-1.4-.1h-1.1c-1.9 0-3.6-.3-5.2-1-1.6-.6-2.9-1.5-4-2.7-1.1-1.1-2-2.5-2.6-4.1-.6-1.6-.9-3.3-.9-5.1 0-2.5.5-4.8 1.6-6.8 1-2 2.4-3.7 4.2-5.1 1.7-1.4 3.8-2.5 6-3.2 2.6-.8 5-1.2 7.4-1.2z"/><linearGradient id="SVGID_00000023996033435964236270000017616392044465002625_" gradientUnits="userSpaceOnUse" x1="379.843" y1="254.203" x2="379.843" y2="308.459"><stop offset="0" style="stop-color:#e39ff6"/><stop offset="1" style="stop-color:#ad19f2"/></linearGradient><path style="fill:url(#SVGID_00000023996033435964236270000017616392044465002625_)" d="M395 281.5c-1 1-2.2 1.9-3.7 2.8l7.9 13.6-14.9 2.8-5.1-13.7-4.1.1-.6 13.3h-14.2l.3-14.6c.1-4.8.2-9.7.3-14.6 0-2.5.1-4.9.1-7.3 0-2.4.1-4.8.3-7.3 1.5-.6 3.1-1 4.6-1.4 1.5-.4 3-.6 4.5-.8 1.5-.2 3-.3 4.6-.4 1.6-.1 3.1-.1 4.8-.1 2.5 0 4.9.3 7.3 1 2.3.7 4.4 1.7 6.2 3 1.8 1.3 3.3 3 4.3 5 1.1 2 1.6 4.3 1.6 7 0 1.7-.2 3.2-.4 4.5-.3 1.4-.8 2.6-1.4 3.7-.5 1.4-1.4 2.4-2.4 3.4zm-11.2-7.7c.5-.8.7-1.7.7-2.8 0-.9-.1-1.7-.4-2.5-.3-.8-.6-1.4-1.1-1.9-.5-.5-1.1-1-1.9-1.3-.7-.3-1.6-.5-2.6-.5-.4 0-.9 0-1.3.1s-.8.1-1.2.2l-.5 11.9h.8c.9 0 1.9-.1 2.9-.4 1-.2 1.9-.6 2.6-1.1.9-.3 1.5-.9 2-1.7"/><linearGradient id="SVGID_00000096042816305137360880000012069280866956339890_" gradientUnits="userSpaceOnUse" x1="178.647" y1="254.203" x2="178.647" y2="308.459"><stop offset="0" style="stop-color:#e39ff6"/><stop offset="1" style="stop-color:#ad19f2"/></linearGradient><path style="fill:url(#SVGID_00000096042816305137360880000012069280866956339890_)" d="M202.7 299.3c.2 0 .7 5.5-4.1 6.4-.4.1-.9.1-1.3.1-1.8 0-3.5-.7-4.2-2.4 1.1 2.4-.7 5.3-3.1 5.7-.3 0-.5.1-.8.1-2.1 0-4.3-1.5-5.5-3.4 0 2-1.5 3.8-3.4 4.2-.2 0-.4.1-.6.1-1.7 0-3.4-1.1-4.1-2.8-.7 1.6-2.2 2.6-3.9 2.6h-.3c-1.8-.1-3.4-1.5-4-3.3-.6 1.4-2 2-3.5 2-1.1 0-2.3-.3-3.2-.9-1.4-.9-2.4-2.6-2.2-4.2 3.4-.5 3-4.8 1.8-7.3-.9-2-2.3-3.8-3.3-5.8-2.1-4.1-3.2-9.7-2.4-14.2.5-3 1.5-5.7 3.1-8.3 1.6-2.5 3.6-4.6 6-6.4 4.2-3.1 8.8-4.6 13.9-4.6 1 0 2.1.1 3.2.2 3.1.4 5.9 1.3 8.5 2.9 2.5 1.4 4.7 3.3 6.4 5.6 1.8 2.3 3 4.8 3.8 7.6 1.3 4.8.1 9.1-1.2 13.6-1 3.4-2 9 .6 12 .6.6 1.3 1.2 2.2 1.2.6-.1 1.1-.3 1.6-.7z"/><path d="M190.5 279.6c.6-2.9-.2-5.5-2.4-7.8-2.2-2.3-5.2-3.7-8.9-4.1-.7-.1-1.3-.1-2-.1-2.9 0-5.6.7-8.1 2.1-3 1.8-4.8 4.1-5.4 6.9-.6 2.9.3 5.5 2.5 7.8s5.2 3.7 8.9 4.1c.7.1 1.4.1 2.1.1 2.9 0 5.6-.7 8-2.1 2.9-1.7 4.7-4 5.3-6.9" style="fill:#fff"/><g><linearGradient id="SVGID_00000053529692364758530940000018341081327890221500_" gradientUnits="userSpaceOnUse" x1="182.59" y1="254.203" x2="182.59" y2="308.459"><stop offset="0" style="stop-color:#e39ff6"/><stop offset="1" style="stop-color:#ad19f2"/></linearGradient><path style="fill:url(#SVGID_00000053529692364758530940000018341081327890221500_)" d="M184.4 278.7c-.6.2-1.3.3-2 .3s-1.4-.1-2-.5c-1.7-.9-2-2.8-1.3-4.5.6-1.5 2.2-2.5 3.8-2.5.7 0 1.3.2 1.9.5 1.9 1.2 2.6 4.2.9 5.9-.3.4-.7.6-1.3.8"/></g></g></g></svg>