<svg xmlns="http://www.w3.org/2000/svg" xml:space="preserve" id="Layer_1" x="0" y="0" enable-background="new 0 0 2109.6 1145" version="1.1" viewBox="0 0 2109.6 1145"><style>.st1{fill:url(#SVGID_00000081625264924298454470000010350346871416925864_)}.st2{fill:url(#SVGID_00000138545290047945192940000001743523528467459483_)}.st3{fill:url(#SVGID_00000088096067268427991360000010409648046887847066_)}.st6{filter:url(#Adobe_OpacityMaskFilter_00000086659568083870063680000007089700340650863517_)}.st7{mask:url(#SVGID_00000057122441329827939300000014921303271235157145_);fill:url(#SVGID_00000165937077993235098260000000809068154540228494_)}.st8{fill:url(#SVGID_00000000210230611411400480000008948303415295943060_)}</style><path d="M1821.1 0h-1532c-23.7 0-42.9 19.2-42.9 42.9v1035.9h1617.7V42.9c0-23.7-19.2-42.9-42.8-42.9zm-15 1029.8h-1499v-964h1499v964z"/><linearGradient id="SVGID_1_" x1="630.31" x2="1050.876" y1="375.841" y2="544.64" gradientUnits="userSpaceOnUse"><stop offset="0"/><stop offset=".017" stop-color="#0a0a0a"/><stop offset=".119" stop-color="#434343"/><stop offset=".224" stop-color="#757575"/><stop offset=".329" stop-color="#9f9f9f"/><stop offset=".435" stop-color="#c2c2c2"/><stop offset=".543" stop-color="#ddd"/><stop offset=".652" stop-color="#f0f0f0"/><stop offset=".764" stop-color="#fbfbfb"/><stop offset=".883" stop-color="#fff"/><stop offset=".883" stop-color="#f6f6f6"/><stop offset=".888" stop-color="#c8c8c8"/><stop offset=".894" stop-color="#9d9d9d"/><stop offset=".899" stop-color="#777"/><stop offset=".906" stop-color="#575757"/><stop offset=".912" stop-color="#3b3b3b"/><stop offset=".92" stop-color="#252525"/><stop offset=".929" stop-color="#141414"/><stop offset=".941" stop-color="#090909"/><stop offset=".956" stop-color="#020202"/><stop offset="1"/></linearGradient><path fill="url(#SVGID_1_)" d="M1821.1 0h-1532c-23.6 0-42.9 19.2-42.9 42.9v1035.9h1617.7V42.9c0-23.7-19.2-42.9-42.8-42.9zm-15 1029.8h-1499v-964h1499v964z" opacity=".16"/><linearGradient id="SVGID_00000036948095965699656550000011569507442728711836_" x1="37.831" x2="2081.811" y1="1110.256" y2="1110.256" gradientUnits="userSpaceOnUse"><stop offset=".002" stop-color="#545454"/><stop offset=".005" stop-color="#6e6e6e"/><stop offset=".011" stop-color="#b1b1b1"/><stop offset=".017" stop-color="#f0f0f0"/><stop offset=".022" stop-color="#c8c8c8"/><stop offset=".029" stop-color="#9f9f9f"/><stop offset=".035" stop-color="#7e7e7e"/><stop offset=".042" stop-color="#676767"/><stop offset=".047" stop-color="#595959"/><stop offset=".052" stop-color="#545454"/><stop offset=".084" stop-color="#6f6f6f"/><stop offset=".141" stop-color="#989898"/><stop offset=".196" stop-color="#b9b9b9"/><stop offset=".249" stop-color="#d0d0d0"/><stop offset=".299" stop-color="#dedede"/><stop offset=".341" stop-color="#e3e3e3"/><stop offset=".52" stop-color="#e6e6e6"/><stop offset=".703" stop-color="#e3e3e3"/><stop offset=".947" stop-color="#545454"/><stop offset=".953" stop-color="#595959"/><stop offset=".96" stop-color="#666"/><stop offset=".967" stop-color="#7d7d7d"/><stop offset=".974" stop-color="#9d9d9d"/><stop offset=".982" stop-color="#c5c5c5"/><stop offset=".988" stop-color="#f0f0f0"/><stop offset=".99" stop-color="#e7e7e7"/><stop offset=".992" stop-color="#cfcfcf"/><stop offset=".995" stop-color="#a8a8a8"/><stop offset=".998" stop-color="#727272"/><stop offset="1" stop-color="#545454"/></linearGradient><path fill="url(#SVGID_00000036948095965699656550000011569507442728711836_)" d="M2080.6 1145H29c-16 0-29-13-29-29v-40.5h2109.6v40.5c0 16-13 29-29 29z"/><radialGradient id="SVGID_00000157994110745342874470000010798008703107714231_" cx="-745.65" cy="1349.633" r="329.655" gradientTransform="matrix(.5 0 0 .5 1427.614 410.612)" gradientUnits="userSpaceOnUse"><stop offset=".502" stop-color="#f2f2f2"/><stop offset=".875" stop-color="#919191"/><stop offset=".949" stop-color="#383838"/></radialGradient><path fill="url(#SVGID_00000157994110745342874470000010798008703107714231_)" d="M1190 1095.3H919.6c-11 0-19.8-8.9-19.8-19.8h310c0 11-8.9 19.8-19.8 19.8z"/><linearGradient id="SVGID_00000146474127332527083310000015005199619441239704_" x1="1054.79" x2="1054.79" y1="1144.481" y2="1116.43" gradientUnits="userSpaceOnUse"><stop offset="0" stop-color="#6b6b6b"/><stop offset=".141" stop-color="#4e4e4e"/><stop offset=".288" stop-color="#373737"/><stop offset=".426" stop-color="#292929"/><stop offset=".546" stop-color="#242424"/><stop offset="1" stop-color="#242424"/></linearGradient><path fill="url(#SVGID_00000146474127332527083310000015005199619441239704_)" d="M2080.6 1145H29c-16 0-29-13-29-29h2109.6c0 16-13 29-29 29z"/><path fill="#595667" d="M1050.8 35.6c0-2.4 1.9-4.3 4.3-4.3s4.3 1.9 4.3 4.3-1.9 4.3-4.3 4.3-4.3-1.9-4.3-4.3z"/><defs><filter id="Adobe_OpacityMaskFilter" width="3.7" height="3.7" x="1053.3" y="33.8" filterUnits="userSpaceOnUse"><feFlood flood-color="#fff" flood-opacity="1" result="back"/><feBlend in="SourceGraphic" in2="back"/></filter></defs><mask id="SVGID_00000044859677632754804480000011203545152486037921_" width="3.7" height="3.7" x="1053.3" y="33.8" maskUnits="userSpaceOnUse"><g filter="url(#Adobe_OpacityMaskFilter)"><defs><filter id="Adobe_OpacityMaskFilter_00000183942984312998688090000011983248022721483403_" width="3.7" height="3.7" x="1053.3" y="33.8" filterUnits="userSpaceOnUse"><feFlood flood-color="#fff" flood-opacity="1" result="back"/><feBlend in="SourceGraphic" in2="back"/></filter></defs><radialGradient id="SVGID_00000108310250519209409810000009563374801949247904_" cx="-745.035" cy="-749.925" r="3.679" gradientTransform="matrix(.5 0 0 .5 1427.614 410.612)" gradientUnits="userSpaceOnUse"><stop offset="0"/><stop offset=".021" stop-color="#030303"/><stop offset=".227" stop-color="#1e1e1e"/><stop offset=".437" stop-color="#313131"/><stop offset=".653" stop-color="#3c3c3c"/><stop offset=".883" stop-color="#404040"/><stop offset=".884" stop-color="#3b3b3b"/><stop offset=".895" stop-color="#252525"/><stop offset=".907" stop-color="#141414"/><stop offset=".921" stop-color="#090909"/><stop offset=".942" stop-color="#020202"/><stop offset="1"/></radialGradient><path fill="url(#SVGID_00000108310250519209409810000009563374801949247904_)" d="M1053.3 35.6c0-1 .8-1.8 1.8-1.8s1.8.8 1.8 1.8-.8 1.8-1.8 1.8c-1 .1-1.8-.7-1.8-1.8z" mask="url(#SVGID_00000044859677632754804480000011203545152486037921_)"/></g></mask><radialGradient id="SVGID_00000174600889135567386210000011251640409690017681_" cx="-745.035" cy="-749.925" r="3.679" gradientTransform="matrix(.5 0 0 .5 1427.614 410.612)" gradientUnits="userSpaceOnUse"><stop offset="0" stop-color="#fff"/><stop offset=".028" stop-color="#fff"/><stop offset=".883" stop-color="#fff"/><stop offset=".899" stop-color="#fff"/><stop offset="1" stop-color="#fff"/></radialGradient><path fill="url(#SVGID_00000174600889135567386210000011251640409690017681_)" d="M1053.3 35.6c0-1 .8-1.8 1.8-1.8s1.8.8 1.8 1.8-.8 1.8-1.8 1.8c-1 .1-1.8-.7-1.8-1.8z"/></svg>