<svg xmlns="http://www.w3.org/2000/svg" xml:space="preserve" id="Layer_1" x="0" y="0" version="1.1" viewBox="0 0 205.1 413.2"><style>.st0{fill:#1a1a1a}</style><path d="M2.1 83.9c-1.1 0-2.1-1-2.1-2.3v-11c0-1.3.9-2.3 2.1-2.3v15.6zm0 14.3c-1.1 0-2.1 1-2.1 2.3v24.6c0 1.3.9 2.3 2.1 2.3V98.2zm0 38.8C1 137 0 138 0 139.3V164c0 1.3.9 2.3 2.1 2.3V137z" class="st0"/><linearGradient id="SVGID_1_" x1=".294" x2="1.775" y1="117.273" y2="117.273" gradientUnits="userSpaceOnUse"><stop offset="0" stop-color="#acacae"/><stop offset=".265" stop-color="#aaaaac"/><stop offset=".406" stop-color="#a2a2a4"/><stop offset=".519" stop-color="#959596"/><stop offset=".616" stop-color="#828283"/><stop offset=".703" stop-color="#69696a"/><stop offset=".782" stop-color="#4b4b4c"/><stop offset=".818" stop-color="#3b3b3b"/><stop offset=".827" stop-color="#4e4e4e"/><stop offset=".844" stop-color="#6b6b6c"/><stop offset=".862" stop-color="#838384"/><stop offset=".883" stop-color="#959597"/><stop offset=".907" stop-color="#a2a2a4"/><stop offset=".938" stop-color="#aaaaac"/><stop offset="1" stop-color="#acacae"/></linearGradient><path fill="url(#SVGID_1_)" d="M1.8 83.5c-.8-.2-1.5-1-1.5-2v-11c0-1 .6-1.8 1.5-2v15zm0 15.1c-.8.2-1.5 1-1.5 2v24.6c0 1 .6 1.8 1.5 2V98.6zm0 38.8c-.8.2-1.5 1-1.5 2V164c0 1 .6 1.8 1.5 2v-28.6z"/><linearGradient id="SVGID_00000178899657897890170410000011387549426714541189_" x1="202.98" x2="204.46" y1="131.736" y2="131.736" gradientUnits="userSpaceOnUse"><stop offset="0" stop-color="#acacae"/><stop offset=".062" stop-color="#aaaaac"/><stop offset=".093" stop-color="#a2a2a4"/><stop offset=".117" stop-color="#959597"/><stop offset=".138" stop-color="#838384"/><stop offset=".156" stop-color="#6b6b6c"/><stop offset=".173" stop-color="#4e4e4e"/><stop offset=".182" stop-color="#3b3b3b"/><stop offset=".218" stop-color="#4b4b4c"/><stop offset=".297" stop-color="#69696a"/><stop offset=".384" stop-color="#828283"/><stop offset=".481" stop-color="#959596"/><stop offset=".594" stop-color="#a2a2a4"/><stop offset=".735" stop-color="#aaaaac"/><stop offset="1" stop-color="#acacae"/></linearGradient><path fill="url(#SVGID_00000178899657897890170410000011387549426714541189_)" d="M203 106.7c.8.2 1.5 1 1.5 2.1v45.9c0 1.1-.6 1.9-1.5 2.1v-50.1z"/><linearGradient id="SVGID_00000063617232190860651260000000757737340948128443_" x1="184.95" x2="18.331" y1="5.407" y2="412.215" gradientUnits="userSpaceOnUse"><stop offset="0" stop-color="#939392"/><stop offset="1"/></linearGradient><path fill="url(#SVGID_00000063617232190860651260000000757737340948128443_)" d="M170.9 0H34.2C16.1 0 1.4 14.7 1.4 32.8v347.6c0 18.1 14.7 32.8 32.8 32.8h136.7c18.1 0 32.8-14.7 32.8-32.8V32.8C203.7 14.7 189 0 170.9 0zm25.8 379.1c0 14.2-11.5 25.7-25.7 25.7H34.1c-14.2 0-25.7-11.5-25.7-25.7V34.2C8.4 20 19.9 8.5 34.1 8.5h16.7c.9 0 1.6.7 1.6 1.6v2.6c0 5.8 4.7 10.5 10.5 10.5h79.4c5.8 0 10.5-4.7 10.5-10.5v-2.6c0-.9.7-1.6 1.6-1.6H171c14.2 0 25.7 11.5 25.7 25.7v344.9z"/><path fill="#3a3a3a" d="M170.8.5H34.3C16.5.5 2.1 14.9 2.1 32.6v348c0 17.8 14.4 32.1 32.1 32.1h136.6c17.8 0 32.1-14.4 32.1-32.1v-348C203 14.9 188.6.5 170.8.5zm25.9 378.6c0 14.2-11.5 25.7-25.7 25.7H34.1c-14.2 0-25.7-11.5-25.7-25.7V34.2C8.4 20 19.9 8.5 34.1 8.5h16.7c.9 0 1.6.7 1.6 1.6v2.6c0 5.8 4.7 10.5 10.5 10.5h79.4c5.8 0 10.5-4.7 10.5-10.5v-2.6c0-.9.7-1.6 1.6-1.6H171c14.2 0 25.7 11.5 25.7 25.7v344.9z"/><path d="M170.8 2.5H34.3c-17 0-30.7 13.7-30.7 30.7v346.9c0 16.9 13.7 30.7 30.7 30.7h136.5c16.9 0 30.7-13.7 30.7-30.7V33.2c0-17-13.8-30.7-30.7-30.7zm25.9 376.6c0 14.2-11.5 25.7-25.7 25.7H34.1c-14.2 0-25.7-11.5-25.7-25.7V34.2C8.4 20 19.9 8.5 34.1 8.5h16.7c.9 0 1.6.7 1.6 1.6v2.6c0 5.8 4.7 10.5 10.5 10.5h79.4c5.8 0 10.5-4.7 10.5-10.5v-2.6c0-.9.7-1.6 1.6-1.6H171c14.2 0 25.7 11.5 25.7 25.7v344.9z"/><path d="M113 14.3H92.1c-.9 0-1.6-.8-1.6-1.9 0-1 .7-1.9 1.6-1.9H113c.9 0 1.6.8 1.6 1.9-.1 1.1-.8 1.9-1.6 1.9z" class="st0"/><path fill="#939393" d="M203.7 33.7h-2.2v-1.2h2.2v1.2zM3.6 32.5H1.4v1.2h2.2v-1.2zm167.7-30V0h-1.5v2.5h1.5zM1.4 380.7h2.2v-1.2H1.4v1.2zm200.1 0h2.2v-1.2h-2.2v1.2zm-167.7 30v2.5h1.4v-2.5h-1.4z"/></svg>