<svg id="top" xmlns="http://www.w3.org/2000/svg" viewBox="0 0 2916.555 2444.698"><defs><style>.cls-1{fill:#45a3f8;}.cls-2{fill:#f7931e;fill-rule:evenodd;}</style></defs><path class="cls-1" d="M1569.952,1736.784c-5.805,2.131-12.415,2.918-18.779,3.96-2.269.371-4.269-.348-4.1-1.8.236-1.993,2.929-2.959,6.164-3.427a7.529,7.529,0,0,1,4.545.574c2.48,1.521,4.8.813,7.279-.262a14.843,14.843,0,0,1,3-1.045c1.191-.24,2.821-.708,3.652.029C1572.726,1735.7,1571.114,1736.243,1569.952,1736.784Zm10.434-7.805a7.218,7.218,0,0,1,1.357.722c1.5.809,4.3,1.452,1.805,2.969a6.067,6.067,0,0,1-6.448-.188c-1.612-.9-3.318-.821-5.383-.192a15.586,15.586,0,0,1-8.586.355c-2.668-.679-3.242-1.579-3.035-3.278.327-2.7,2.265-3.942,7.25-4.306a14.9,14.9,0,0,0,6.952-2.12c2.051-1.288,7.707-.9,9.417.382,1.223.915.127,2.13-2.807,3.22C1577.59,1727.4,1577.794,1728.169,1580.386,1728.979Zm51.252-175.35c-2.3.951-5.7,2-7.558.7s.112-2.922,2.058-4.225c2.85-1.14,5.3-1.863,7.108-.5C1634.945,1550.892,1634.571,1552.417,1631.638,1553.629Zm13.08,104.744a11.889,11.889,0,0,1-7.958,3.467c-2.791-.116-6.854-.8-7.671-2.82-.867-2.157.785-3.954,4.357-5.286,6.832-3.035,10.556-2.944,14.332-.1C1650.53,1655.7,1646.076,1656.885,1644.718,1658.373Zm-45.3-179.756c-3.91.744-6.735,2.515-9.977,3.96a6.953,6.953,0,0,1-4.41.552c-1.521-.414-1.089-1.376-.505-2.265,1.046-1.58,10.887-5.431,13.98-5.449,1.518-.007,4.063-.737,4.208.37C1602.832,1476.722,1600.577,1477.575,1599.416,1478.617Zm-50.708-23.51c-2.552,2.066-4.44,4.091-4.858,6.222-.185.951-1.15,1.862-2.682,2.683a8.585,8.585,0,0,1-5.036.911c-2.011-.232-1.9-1.332-.783-2.156,3.59-2.639,4.283-5.645,8.621-8.165.225-.134.331-.319.567-.442,1.869-.966,4.991-1.979,6-1.736C1552.324,1452.853,1549.786,1454.232,1548.708,1455.107Zm282.552-40.87a116.048,116.048,0,0,1-21.118,9.363,19.079,19.079,0,0,1,6.818-4.346,29.155,29.155,0,0,0,9.958-5.99c2.247-1.833,4.2-3.739,8.955-4.654.4-.072,1.239.084,1.195.185C1836.226,1410.691,1834.287,1412.469,1831.26,1414.237Zm71.882-38.056c-7.489,3.721-15.014,7.391-21.883,11.283-5.053,2.864-11.845,5.057-17.262,7.856,6.695-5.515,17.28-9.962,26.189-14.928,3.1-1.728,6.851-3.256,8.952-5.264,1.242-1.187,3.667-1.935,6.263-2.33.9-.142,1.245.17,1.252.541C1906.682,1374.41,1904.976,1375.27,1903.142,1376.181Zm-56.977,47.967c-1.564,1.361-2.537,2.08,1.863,1.507,5.362-.7,6.7.606,3.4,2.958a18.354,18.354,0,0,1-8.433,3.4c-3.565.472-3.885-.723-4.3-1.928-.431-1.249-3.071-.225-4.766.091-6.219,1.147-9.246.788-9.646-1.256-.41-2.106,4.567-5.391,8.517-6.557a146.657,146.657,0,0,1,20.58-4.131C1852.638,1420.4,1848.434,1422.173,1846.165,1424.148Zm66.206-82.865c-5.46,2.937-12.474,5.068-18.467,7.715a18.43,18.43,0,0,1-5.863,1.227c-6.194.094-9.428,2.073-12.826,4.487a22.346,22.346,0,0,1-11.3,3.779,63.5,63.5,0,0,0,12.99-6.408c3.107-1.971,4.628-3.757,2.613-4.94-1.909-1.122-5.859-1.05-10.1-.117a40.621,40.621,0,0,1-6.426,1.108c-4.625.254-6.411-.632-5.979-2.759,1.231-6.048,11.849-11.138,24.4-14.438,4.926-1.3,9.206.762,8.142,3.765-.9,2.548-2.991,5.1-7.188,7.667,4.1-1.115,5.3-2.781,7.119-4.32,2.778-2.349,15.661-6.415,20.355-6.437,1.83-.011,2.2.588,2.2,1.242.008,1.321.6,2.552-.486,4.073-.581.817-1.064,2,.889,1.877C1920.15,1338.335,1914.266,1340.267,1912.371,1341.283Zm-280.606,471.628c-1.924,1.107-2.7,2.777-5.467,3.278-.821.283-1.387.533-2.033.69-1.006.246-2.062,1.132-3.137.294-.762-.592.483-1.017,1.449-1.275,1.034-.276,2.123-.631,1.43-1.27-2.073-1.917,1.107-2.777,2.763-3.848,1.713-1.1,4.683-1.7,6.694-.759C1635.446,1810.947,1633.017,1812.192,1631.765,1812.911Zm23.266-300.711c-4.069,1.561-8.059,3.173-12.063,4.756,1.626-2.719,4.886-4.825,8.789-6.738a5.836,5.836,0,0,1,5.554.007C1658.752,1511.024,1656.56,1511.612,1655.031,1512.2Zm167.657,15.222c-2.145.958-4.258,1.474-5.786.229-1.264-1.031-1.7-1.859,1.873-2.835,5.377-1.467,9.863-3.612,15.171-5.355A32.756,32.756,0,0,1,1822.688,1527.422Zm-59.9,38.528c-.464,1.274-1.713,2.494-3.978,3.718-2.984.323-5.787,2.842-7.994,2.185-2.044-.606.777-2.8,1.721-4.277,1.205-1.884,4.7-2.341,7.906-2.809C1762.549,1564.458,1763.068,1565.2,1762.792,1565.95Zm224.6-265.729-.061.008c.025-1.209.57-2.433,2.145-3.827,1.369-1.216,2.527-2.635,1.165-3.409-2.192-1.238-.014-2.98,1.5-4.632,2.349-2.57,8.139-5.619,13.45-7.173Zm-539.346,141.9c-.171,1.358,1.557,1.362,2.49,1.714a37.951,37.951,0,0,1,7.235,3.477c-5.558,1.249-8.346.211-12.059-4.374-2.157-2.661-4.513-5.413-.988-6.215,2.2-.5,9.167,4.1,12.038,7.917a18.662,18.662,0,0,1-5.772-2.4C1449.489,1441.257,1448.175,1441.08,1448.044,1442.125ZM1700.62,1734.86c-3.615.119-4.414,1.288-5.438,2.81-.621.925-2.327,2.363-5.507,1.938-2.959-.4-2.625-1.539-1.365-2.882-3.616,0-7.355,1.9-8.455.482-1.336-1.724,3.863-1.8,5.838-2.8,4.654-2.356,9.827-.988,14.811-1.107a1.935,1.935,0,0,1,1.365.737C1702.083,1734.42,1701.4,1734.834,1700.62,1734.86Zm-92.764-234.066c-4.988,1.267-5.758,3.463-8.455,5.336-1.5-.283-1.354-.907-1.623-1.368-2.229-3.808-.5-5.533,7.834-7.932,1.7-.494,2.992-.458,3.5.225C1609.972,1498.217,1610.43,1500.14,1607.856,1500.794Zm51.612-43.632c-.654,1.151-.135,2.871-5.166,2.3-2.1-.24-5.3,2.2-7,3.844-.675.654.167,1.587-2.08,1.931a2.315,2.315,0,0,1-2.251-.773c-.741-.748.744-1.365,1.837-2.007,2.33-1.369,4.6-2.767,6.963-4.128,1.35-.78,2.465-1.685,1.866-2.349-2.139-2.378,1.43-3.278,5.714-4.1.653-.127,1.3-.316,2.806-.69A63.614,63.614,0,0,1,1659.468,1457.162Zm-183,4.015c-5.587-2.563-11.29-4.592-16.634-8-1.19-.762-3.485-1.63-3.216-2.9.236-1.114,2.145-.751,3.372-.5a10.992,10.992,0,0,1,4.223,1.783c2.352,1.691,5.151,3.967,3.75-.171-.1-.305.526-.635,1-.624,2.661.054,10.8,6.1,10.978,8.273C1480.088,1460.755,1479.406,1462.527,1476.465,1461.177Zm341.725,122.8c-2.341,1.238-2.472,2.189-1.51,3.489,1.38,1.866-2.886,3.154-5.213,4.425-2.65,1.445-3.307-.283-4.715-.737a6.2,6.2,0,0,0-.93-.258c-5.416-.856-5.732-1.829-1.506-4.468,2.45-1.529,4.853-3.079,6.694-4.251,2.8-1.177,4.792-1.935,7.152-1.1C1820.376,1581.873,1820.1,1582.965,1818.19,1583.978Zm-179.3-70.772a2.226,2.226,0,0,1-2.134.105c-1.616-1.056-2.625.018-3.649.755a33.141,33.141,0,0,1-5.765,3.061c-1.361.606-2.632.657-3.267.021-.69-.693.508-.9,1.75-1.252,2.853-.8,3.427-2.316,4.853-3.529a14.224,14.224,0,0,1,7-3.361c5.014-1.031,8.615-3.591,13.639-4.851C1652.225,1508.505,1643.767,1510.418,1638.891,1513.206Zm106.7,205.633c-4.589,1.38-9.1,2.865-14.474,3.394a42.911,42.911,0,0,0-10.851,2.865,92.851,92.851,0,0,1-9.337,2.32c-.414-.236-.832-.469-1.245-.7,7.2-1.906,10.1-6.055,17.784-7.769a53.8,53.8,0,0,0,10.031-3.176,14.688,14.688,0,0,1,3.9-1.361c2.784-.378,6.719-2.026,8.248-.316C1750.969,1715.569,1749.2,1717.757,1745.589,1718.839Zm-227.074-119.712c-.069.835-.788,1.754-.8,2.643-.015.7-.629,1.489-2.222,1.082-5.438-1.387-10.419-2.984-10.7-6.85-.069-.955.4-1.442,2.229-1.913,2.857-.734,6-1.068,8.5-2.4h.043c.233,1.064-.559,2.138,2.146,2.821C1519.339,1594.923,1518.649,1597.483,1518.515,1599.127ZM1836.8,1640.69c-1.089-.355-2.1-.755-3.779-1.361,8.894-2.879,18.046-3.3,27.859-4.592a28.483,28.483,0,0,1-8.165,5.4c-5.867,2.622-9.13,5.624-10.949,9.109-1.252,2.4-5.587.973-8.36,1.223-3.162.287-2.712-1.132-1.71-2a16.571,16.571,0,0,1,5.383-3.415C1842.862,1643.017,1840.459,1641.877,1836.8,1640.69Zm-401.421-207.383c-2.3-1.031-3.558-1.524-4.8-.25-1.021,1.041-4.142-.011-6.077-1.228-4.622-2.911-8.993-6.193-14.122-9.783,2.824.04,4.839-.069,7.489.98a10.338,10.338,0,0,0,4.059.89c4.4-.356,9.235,1.829,14.085,3.768,2.883,1.151,4.741,2.842,4.509,4.817C1440.3,1434.454,1437.905,1434.44,1435.382,1433.307Zm121.069,103a8.314,8.314,0,0,1-6.12-.047c-2.734-.94-5.656-.842-7.791,1.474-1.547,1.673-3.064,1.1-5.572.784,6.853-2.142,9.576-5,11.308-8.146a17.956,17.956,0,0,1,1.909-2.611c.948-1.129,1.071-2.9,3.453-3.144,1.917-.192,2.171,1.514,2.828,2.491,1.165,1.731,2.693,3.365,2.864,5.391C1559.446,1533.891,1559.127,1535.26,1556.451,1536.309Zm153.543-137.395c-1.594,2.356-.291,4.335-1.819,6.745a15.735,15.735,0,0,1-4.781,4.385c-1.536.821-2.69,1.311-4.088,1.064-2-.348-5.057-.407-4.331-1.851,2.037-4.052,2.048-7.915,5.13-12.046a3.569,3.569,0,0,1,2.2-1.27C1706.454,1394.953,1711.377,1396.87,1709.994,1398.914Zm106.2,64.739c-1.779,1.43-2.545,2.722-1.536,4.084,1.256,1.688-1.695,3.227-4.527,4.541a11.638,11.638,0,0,0-4.269,2.066c-.729.428-1.423,1.231-2.7.813-4.081-1.332-6.876.57-9.755,2.04-1.332.683-2.341,1.492-4.36,1.194-1.793-.264-1.786-1.052-1.347-1.858,1.351-2.461,2.128-4.948,7.363-7.1,3.659-1.51,5.376-3.623,9.337-5.3,4.28-1.811,7.605-1.75,11.4-1.913C1818.543,1462.1,1817.072,1462.945,1816.194,1463.653Zm271.2-226.261c-3.645,3.06-8.978,4.077-12.3,2.334-4.037-2.12-5.289-5.038-4.777-8.426.152-1.013,1.986-2,4-2.152,11.943-.89,24.221-3.725,36.847-6.967C2100.045,1227.042,2093.576,1232.2,2087.39,1237.392Zm-555.327,218.913a17.522,17.522,0,0,1-2.469,4.6c-.922,1.464-1.169,2.749.3,3.711a5.38,5.38,0,0,1-1.052,3.107c-.766,1.231-1.507,2.462-2.317,3.692-.315.483-1.3,1.184-1.826.73-2.6-2.247-9.914-2.313-8.618-6.368a6.564,6.564,0,0,1,1.924-3.361c1.877-1.717,3.732-3.453,4.135-5.235.316-1.383,1.031-2.813,4.418-2.944C1529.446,1454.127,1532.528,1454.355,1532.063,1456.305Zm216.1,54.715c-1.63,1.22-2.9,2.527-4.672,3.7-1.459.966-1.964,1.547-1.035,2.549,1.906,2.058-.98,4.113-6.266,4.857-.9.127-1.837.054-2.711.218-6.738,1.245-6.833,1.26-5.816-1.979.555-1.76.82-3.456-.138-4.991-1.409-2.262,1.43-4.629,3.492-6.887,1.565-1.717,14.863-3.256,16.9-2.109C1750.508,1507.583,1750.74,1509.089,1748.166,1511.02ZM1521.379,1587c-.3,1.972-2.062,3.627-5.816,4.691h-.043c-.839-.058-1.692-.1-2.512-.182-1.354-.138-4.241.726-3.718-.566.407-.991-.163-2.443,3.311-3.271a5.055,5.055,0,0,0,4.077-3.881,21.566,21.566,0,0,0,.5-4.4c-4.443,2.363-9.863,1.953-14.063,4.073,4.287-3.706,6.106-8.095,14.136-10.862.385.85-.817,1.982,1.5,1.932a4.539,4.539,0,0,0,3.384-1.26c.537-.566.9-1.383,2.555-.926,1.024.283,1.387.629,1.275,1.4C1525.325,1578.141,1522.051,1582.6,1521.379,1587Zm179.111-152.682c-.574,3.721-3.13,7.682-2.926,11.309.236,4.142-7.275,6.338-12.877,8.974a52.707,52.707,0,0,1-6.237,1.957c-.635-.647,1.543-1.99-.962-1.946-2.015.032-2.81.969-3.114,1.691-.672,1.605-3.362,1.184-4.76,1.986-.323-.091-.642-.178-.966-.269,4-3.19,7.152-6.726,12.245-9.5,5.863-3.188,8.768-6.223,10.3-9.693a10.953,10.953,0,0,1,4.28-4.716,8.957,8.957,0,0,1,4.08-1.492C1701.477,1432.552,1700.591,1433.63,1700.49,1434.316Zm-138.2,341c-1.782,1.655-2.581,3.412-1.5,5.242.592,1,.069,1.768-1.394,2.429a6.221,6.221,0,0,1-4.215.01c-2.258-.533-4.519-1.052-6.806-1.535-5.453-1.151-6.038-3.079-1.714-5.493.958-.533,3.442-1.031,2.164-1.789-1.453-.861-2.9.355-4,.958a29.88,29.88,0,0,1-6.952,2.654c.57-1.285,1.231-2.2.843-3.22-1.659-4.411-.784-5.5,6.106-8.078,6.4-2.388,9.094-2.018,12.205,1.565,1.445,1.666,2.512,3.485,5.042,4.814C1563.512,1773.627,1563.265,1774.408,1562.292,1775.312ZM1701.7,1474.355c-8.089-.567-15.505-.857-23.078-.857-2.944,0-4.382-.548-2.407-2.309.7-.621.824-1.249-.32-1.459-3.4-.628-1.818-1.982-.087-3.445,3.453-2.912,6.858-5.733,13.425-7.631,3.4-.984,3.463-3.213,7.275-4.9C1696.108,1461.071,1694.852,1468.372,1701.7,1474.355Zm185.067,150.173c-.054,1.1-1.582,1.532-3.96,1.645-8.2.4-15.3,1.822-18.685,5.743-2.52,2.912-7.885,1.409-9.631,1.242-7.257-.683-12.369.555-17.262,3.107a19.966,19.966,0,0,1-3.649.675c1.616-2.3,3.151-4.258,4.3-6.244.446-.766,1.575-.882,2.613-1.183a185.251,185.251,0,0,0,24.759-9.523,83.159,83.159,0,0,1,18.656-5.394c2.748-.519,3.035.08,3.031.94C1886.93,1618.524,1886.908,1621.519,1886.766,1624.528Zm-41.087-28.345a63.842,63.842,0,0,0-10.688,4.182l-.076.011c-2.614.131-5.042,1.049-7.921.258-2.106-.581-4.712,1.034-7.1,1.681-5.377,1.459-12,2.007-14.4,5.409-.29.41-2.44.675-4.287,1.151,3.336-2.469-.367-2.034-3.7-1.867,4.636-2.5,10.375-4.127,11.838-7.115.363-.733,1.746-1.608.45-2.109-4.556-1.768-.519-1.92,2.589-2.421,4.367-.7,8.763-1.434,13.058-2.327,2.251-.468,4.458-1.645,3.358-2.563-1.441-1.2-3.867-.069-5.627.66A31.664,31.664,0,0,1,1811.46,1594c3.4-3.253,17.629-7.6,23.43-6.687,6.022.951,11.983,2.4,14.9,5.249C1851.418,1594.143,1848.5,1595.359,1845.679,1596.183Zm-177.535-167.947c-1.815,4.6.167,8.589-.813,13.087-.49,2.236-.774,2.625-5.163,2.632-1.118,0-2.693-.134-3.274.345-2.951,2.461-8.524,3.358-11.791,5.558a15.927,15.927,0,0,1-4.5,2.134c-2.911.861-4.269.734-3.133-.947.563-.828,1.093-1.507-.192-2.088-3.166-1.437-2.015-4.5,2.414-6.723,5.21-1.982,10.179-4.338,13.911-7.242,1.677-1.3,3.674-2.6,2.836-4-.636-1.053,1.666-1.612,3.383-2.164,2.022-.653,4.033-1.536,6.193-1.409C1668.3,1427.44,1668.26,1427.938,1668.144,1428.236Zm162.291,228.152a21.365,21.365,0,0,0-11.613,4.105c-3.663,2.7-3.6,4.749,1.02,6.607,2.825,1.137,2.981,2.048-1.1,2.574-4.676.6-8.23,1.187-10.045,3.863-.995,1.463-5.976,2.127-9.5,2.668-1.855.287-4.222-.181-5.075,1.126-.25.384.109,1.078.719,1.256,1.964.573,3.812-.251,5.671-.628a5.123,5.123,0,0,1,3.39-.124c-4.9,3.424-12.455,4.288-19.727,5.642,5.631-3.594,2.941-7.2,3.057-10.71.08-2.323.359-4.062,5.678-5.63,5.481-1.616,10.7-3.434,11.152-7.37.457-3.971,20.58-8.788,28.385-7.311,2.015.381,2.425,1.271,2.458,2.044C1834.951,1655.7,1832.142,1656.239,1830.435,1656.388Zm-231.117,153.241c-2.073.523-4.818.755-5.755,2.214-1.027,1.594-.417,2.752,2.81,3.307,1.3.225,3.235.465,2.585,1.409-.708,1.024-2.429.018-3.71.116-1.478.116-2.483-.552-3.707-.868-4.073-1.052-8.11-1.452-11.856.556a6.037,6.037,0,0,1-6.89-.624,7.2,7.2,0,0,1-1.732-2.6c-2.668-4.85-2.665-4.865,5.957-6.7,1.057-.225,2.625-.033,2.625-.984,0-.715-1.231-.78-2.182-.954-1.114-.2-2.465-.262-1.662-1.271,2.348-2.962,5.95-5.482,9.191-7.812,2.64-.756,4.68-1.805,6.68-.077a3.831,3.831,0,0,0,3.3.247c4.153-1.223,5.195-.076,5.4,1.888.359,3.445.752,6.9,1.278,10.354C1601.815,1808.9,1601.042,1809.189,1599.318,1809.629Zm455.294-571.166c-4.519,3.67-5.7,7.286-11.177,10.96a126.532,126.532,0,0,1-18.184,10.371c-5.921,2.723-7.286,2.788-8.368.407-1.144-2.509-2.385-4.984.09-8.241,2.248-2.955,1.344-5.434,2.56-8.244,2.425-5.6,8.1-11.243,17.625-16.964,2.788-1.674,1.978-2.865,2.621-4.259.592-.13,1.183-.265,1.775-.395,1.4,1.688,4.063,3.122,3.943,5.129-.233,3.8,5.26,5.431,9.26,7.66C2056.464,1235.835,2056.649,1236.811,2054.612,1238.463Zm-116.789,356.123a1.611,1.611,0,0,1-.861,1.452c-8.712,3.975-12.539,9.119-19.894,13.4-4.625,2.69-10.241,5.332-10.375,8.89a1.243,1.243,0,0,1-.675.857c-2.305,1.376-3.957,4.048-7.37,3.67-3.764-.417,1.253-2.414,1.271-3.732a2.258,2.258,0,0,0-.145-.566c-1.953-.236-2.919.973-5.257.9.319-2.117-3.209-4.132-.69-6.248,3.867-3.249,2.324-5.7.276-8.513-2.073-2.842-2.33-6.055-3.47-9.083-.465-1.245,1.227-1.978,3.278-2.784,7.122-2.814,15.955-4.632,21.814-8.335,2.578-1.627,11.265-1.612,14.474-.429C1937.191,1586.643,1938.3,1590.447,1937.823,1594.586ZM1595.7,1511.369c-1.892,2.919-5.4,5.3-8.575,7.87-2.08,1.685-.011,3.645-3.754,5.4-2.156,1.009-3.576,2.566-6.847,2.566-4.443,0-8.509-.207-9.268-2.77-.268-.918,1.01-1.553,2.28-2.2,2.643-1.336,5.318-2.661,7.987-3.993-3.874-.026-5.9,1.6-8.39,2.777-3.721,1.768-4.846,1.79-5.529-.269-.425-1.274-1.779-2.192-2.512-3.332-1.71-2.662-1.924-5.362,2.033-8.619a20.083,20.083,0,0,0,5.032-5.924c1.223-2.265,5.4-3.874,8.509-5.689,1.038-.606,2.156-.312,2.269.312.276,1.478,1.986,2.621,1.39,4.306-.73,2.054,1.289,2.283,4.585,1.158,3.7-1.264,4.85-.545,5.776,1.085-8-.29-9.653,3.638-13.465,5.9-1.876,1.107-2.486,3.151,1.2,3.587,3.028.359,7.893-1.347,9.537-3.34.995-1.2,1.815-2.429,2.85-3.63.976-1.141,2.062-1.235,3.536-.643C1598.087,1507.426,1597.492,1508.592,1595.7,1511.369Zm217.224-136.1c-6.378,5.47-10.288,11.007-12.568,16.241-2.29,5.271-8.607,10.3-12.132,15.44-3.543,5.166-9.827,10.252-15.567,15.305-1.833,1.612-2.806,3.333-5.677,4.821a3.579,3.579,0,0,1-2.375.675c-.675-.109-.864-.541-.3-.8,4.708-2.175.856-3.434,1.292-5.129a2.262,2.262,0,0,1,1.093-1.83c2.795-1.9,3.6-3.754,1.394-4.966-3.983-2.178-.058-4.774,3.721-7.217,2.879-1.859,4.585-3.155.308-3.732-.791-.105-1.568-.5-1.016-.846,4.011-2.494.708-5.456,7.921-7.733a7.922,7.922,0,0,0,1.568-1.063c-3.18.722-5.5,2.632-7.71,1.869-1.616-.555-.9-1.946-.189-3.2,1.953-3.434,3.6-6.85,5.525-10.277,1.318-2.349,3.565-4.549,9.334-5.881a7.838,7.838,0,0,0,1.038-.356,107.244,107.244,0,0,1,19.081-4.73C1813.192,1371.211,1815.936,1372.685,1812.919,1375.274Zm-33.478-4.444c-11.871,6.7-21.778,13.538-21.985,20.805-.261,9.025-8.469,18.892-9.05,27.968a85.647,85.647,0,0,0,.769,19.24c.578,3.551-2.094,5.486-9.791,7.373-4.356,1.068-5.775.574-4.171-1.582.857-1.151,1.227-2.407,4.233-3.315.969-.294,2.788-1.59.193-1.285-4.113.483-2.977-.8-2.571-1.8,1.344-3.355,2.16-6.644,1.761-9.747-.218-1.7-2.015-2.963-4.581-3.856-5.239-1.822-4.847-3.064,1.985-6.124,1.591-.712,4.008-1.267,3.674-2.4-.316-1.074-2.494-.16-3.859-.094-1.564.072-2.748-.214-2.541-.908.559-1.884-1.35-3.274-1-4.991.923-4.462,3.874-9.094,7.994-13.748.868-.98,2.7-1.732,4.269-2.53a24.263,24.263,0,0,0,5.105-3c.708-.654,1.837-1.492.551-1.826-1.571-.407-2.163.915-4.1,1.26,4.28-3.01,5.682-5.965,8.633-8.858,4.353-4.266,12.757-7.54,18.954-11.418,5.75-3.6,13.323-6.7,18.888-10.466a5.47,5.47,0,0,1,3.318-1.1C1792.365,1362.88,1786.3,1366.96,1779.441,1370.83Zm-1.619,304.246a22.21,22.21,0,0,0-.381,6.266c.218,2.164-1.383,3.986-6.234,5.591-9.874,3.267-19.265,6.872-22.46,12.938-1.572,2.98-1.949,3.7,2.189,6,3.707,2.058,3.249,3.441-1.881,4.781-1.778.461-4.447,1.615-4.69-.7-.145-1.394-2.77-.977-4.614-.661-2.047.352-3.035.864-1.136,1.848,1.964,1.017-.831,1.34-1.863,1.558-2.69.569-5.721.678-7.209-.625a22.872,22.872,0,0,1-3.572-4.567c-.233-.33.261-.969-.106-1.085-8.52-2.643-.355-4,2.875-5.522,4.546-2.134,8.321-4.734,14.808-5.83-.29-.207-.58-.414-.867-.621-1.7.378-3.463.693-5.086,1.147-10.111,2.806-15.966,2.411-23.165-1.553a15.2,15.2,0,0,0-2.156-.792c-1.489-.519-4.912-.3-4.081-1.648.715-1.162,2.527-2.454,5.377-2.886a24.9,24.9,0,0,0,12.027-4.963l.054,0c.32,1.7-.98,3.332-1.931,4.984-.294.512-1.227,1.162.051,1.507a4.836,4.836,0,0,0,3.056-.6,31.77,31.77,0,0,0,3.249-1.325c1.438-.73,4.749-1.161,3.772-2.312-1.052-1.235-3.7.413-5.765.123,2.462-6.153,8.016-11.515,18.395-15.842a68.844,68.844,0,0,0,8.023-4.11,15.556,15.556,0,0,1,14.612-.635,11.467,11.467,0,0,1-4.146,1.125c-4.2.715-7.326,3.028-6.2,4.661,1.379,2.023,5.068,1.8,8.742,1.478a16.424,16.424,0,0,0,2.3-.4C1778.61,1670.317,1778.7,1670.313,1777.822,1675.076Zm110.288-67.741c-.487,1.4-1.122,2.955-4.3,3.66-10.325,2.283-18.177,6.244-27.761,8.919-15.015,4.193-28.654,9.25-42.46,14.031-2.472.857-6.5,2.712-8.5,1.347-1.492-1.02,3.488-2.12,5.764-3.089a6.708,6.708,0,0,0,3.384-2.291c-7.148,2.541-13.719,1.986-20.275,2.048-3.061.029-7.152.914-8.284-.843-1.177-1.822-2.618-3.793-.915-5.906,1.3-1.609,4.087-3.05,3.608-4.857-.058-.226.966-.828,1.434-.85,5.536-.251,4.995-3.068,8.39-4.258,1.241-.436,1.027-1.256-.382-1.627a4.759,4.759,0,0,0-3.717.305c-1.652.882-2.142,2.186-5.416,2.894.011-2.171,2.152-3.569,6.247-4.186,6.727-1.016,11.984-3.452,18.2-5,1.637-.406,3.281-1.085,3.88-1.989,1.413-2.128,3.845-3.115,8.7-2.821,3.67.221,6.625-1.107,9.21-2.447l.076-.011a7.087,7.087,0,0,0,3.453-.686c7.093-3.489,16.63-4.2,25.216-5.776,6.207-1.14,12.593.327,18.572,1.017,3.779.439,3.681,2.61,4.484,4.225C1888.019,1601.777,1889.115,1604.442,1888.11,1607.335Zm-143.454,115.9c-1.8,4.48-3.4,8.982-5.569,13.44-1.735,3.561-1.191,7.4-6.012,10.626-1.634,1.092-2.752,2.78-5.986,2.4-2.716-.316-4.28-1.786-4.077-3.151.374-2.48-5.032-3.38-5.159-5.689-.036-.606-1.826-.806-3.365-.533-2.12.377-4.465.849-4.345,2.08.272,2.849-1.957,5.626-1.031,8.545.962,3.035-4.259,5.17-7.66,7.152-4.168,2.432-8.742,5.006-15.284,6.062-2.9.465-4.389,1.645-4.058,3.126.315,1.434,2.552,1.99,5.187,2.135,2,.109,4.008.178,7.736.337-11.185,2.073-15.073,6.415-19.208,10.655-2.127,2.178-6.6,3.373-8.658,5.689-1.6,1.793-1.971,2.886,1.928,3.529,2.432.395,3.685,1.1,2.3,2.319a5.834,5.834,0,0,1-5.624,1.111c-.163-.043-.308-.1-.468-.152-2.469-.792-5.358-1.612-7.13.2-2.156,2.2,2.512,1.9,4.81,2.7-5.474,3.521-9.144,7.344-9.1,11.911.007.522-.944,1.521-1.282,1.5-7.046-.41-9.682,4.109-16.634,4.073a5.015,5.015,0,0,1,3.729-3.75c6.745-1.568,4.875-4.215,4.076-7.271-1.938,2.138-5.22,3.194-7.587,4.708a10.847,10.847,0,0,1-8.338,1.042c-3.3-.766-1.01-2.069-.7-3.2.534-1.96-.141-3.989,1.434-5.891a.592.592,0,0,0-.268-.792c-5.892-1.027-4.669-4.454-7.736-6.382-2.048-1.285-1.605-2.584,1.034-2.89,6.419-.747,10.314-3.176,14.91-5.3a39.952,39.952,0,0,1,12.6-4c3.248-.4,4.556-1.88,3.031-3.358-2.915-2.828.944-4.814,3.332-6.876,1.565-1.354,4.6-2.25,6.546-3.525,4.617-3.02,10.281-4.745,17.835-4.588a2.851,2.851,0,0,0,2.531-.77,47.644,47.644,0,0,0-9.907-.9c-2.614.116-5.257.062-6.353-1.525-1.137-1.651.5-2.657,2.995-3.6,1.59-.6,3.6-1.06,4.563-2.407a7.3,7.3,0,0,0-5.562,1.579c-2.261,1.586-5.623,2.215-8.879,2.922-1.057.233-2.287.3-2.6-.461-.21-.511.479-.864,1.391-1.1a194.672,194.672,0,0,0,30.458-11.3,7.2,7.2,0,0,1,1.35-.156c-.769,3.035-1.612,6.008-2.222,9-.17.835-1.466,2.2,1.271,2.36,2.465.149,1.986-1.223,2.254-1.957,1.169-3.187,1.634-6.444,3.3-9.569,1.572-2.956,3.285-6.107,9.8-7.791,1.1,1.162-3.416,2.207-.221,3.329,2.919,1.024,5.518.156,8.074-.4a26.383,26.383,0,0,0,5.9-1.928,31.8,31.8,0,0,1,16.866-3.209c2.062.127,4.389-.657,4.316-1.644-.134-1.859-3.557-.073-4.363-.4-1.079-3.045,7.416-4.7,3.957-7.983-.872-.824,2.592-1.219,4.4-1.394C1745.636,1721.685,1744.9,1722.629,1744.656,1723.235Zm-162.913,6.466a7.218,7.218,0,0,0-1.357-.722c-2.592-.81-2.8-1.583.522-2.436,2.934-1.09,4.03-2.3,2.807-3.22-1.71-1.282-7.366-1.67-9.417-.382a14.9,14.9,0,0,1-6.952,2.12c-4.985.364-6.923,1.609-7.25,4.306-.207,1.7.367,2.6,3.035,3.278a15.586,15.586,0,0,0,8.586-.355c2.065-.629,3.771-.712,5.383.192a6.067,6.067,0,0,0,6.448.188C1586.038,1731.153,1583.246,1730.51,1581.743,1729.7Zm-28.5,5.812c-3.235.468-5.928,1.434-6.164,3.427-.174,1.456,1.826,2.175,4.1,1.8,6.364-1.042,12.974-1.829,18.786-3.96,1.155-.541,2.767-1.089,1.761-1.975-.831-.737-2.461-.269-3.652-.029a14.843,14.843,0,0,0-3,1.045c-2.483,1.075-4.8,1.783-7.279.262A7.529,7.529,0,0,0,1553.242,1735.513Zm132.973-12.11c-4.995,2.014-9.446,4.247-12.756,7.006-1.554,1.3-3.975,1.75-6.7,1.757-2.022,0-4.886,1.445-5.46-1.031-.272-1.169-2.468-.014-2.722.552-2.059,4.534-10.4,4.962-16.391,6.781-3.322,1.013-13.577-1.329-14.67-3.071-.733-1.176,1.365-1.862,2.908-2.465,5.434-2.124,10.582-4.367,13.207-8.092-7.21,1.754-11.955,4.8-17.749,7.083a80.805,80.805,0,0,0-19.146,10.912,4.992,4.992,0,0,1-2.069.872c-9.322,1.343-14.575,5.423-20.787,8.778-3.093,1.669-4.592,3.721-3.184,6.026,1.311,2.146-.246,2.882-4.247,2.461a22.908,22.908,0,0,0-6.034.28c-1.4.225-2.766.551-2.214,1.492.447.766,1.728.628,2.955.428a55.974,55.974,0,0,1,5.91-.846c2.661-.141,4.992-.105,6.618,1.565,1.743,1.79,5.736,2.534,9.1,3.482,1.656.464,3.547.794,3.231,2.109a4.782,4.782,0,0,1-2.842,3.532c-1.688.762-2.164-.283-2.549-.951-2-3.467-9.184-4.974-15-3.2a2.342,2.342,0,0,0-1.7,1.321c-.548,1.384-2.229,1.605-4.523,1.7-2.44.106-4.226-.072-5.435-1.277-1.165-1.166-2.573-2.255-3.866-3.373-1.013-.875-1.543-1.757.007-2.715.443-.276,1.18-.828,1.1-.868-4.473-2.313,1.441-3.006,2.784-4.378,1.22-1.241,1.779-2.363-.156-3.445-2.331-1.3-.879-1.906,1.336-3.151,6.926-3.9,15.8-5,24.682-6.408,5.6-.889,9.09-3.467,13.584-5.271.781-.312,1.434-.944.737-1.467a3.056,3.056,0,0,0-3.147,0c-2.846,1.928-8.47,1.982-10.386,4.549a5.229,5.229,0,0,1-2.984.973c-6.056-.019-10.978,2.348-16.66,2.722-7.667.505-14.826,2.11-22.195,3.032-1.7.214-3.834.185-3.983-.839-.181-1.249-2.163-1.967-2.472-2.683-.929-2.142-2.232-3.434-6.534-3.8-2-.174-1.079-1.34-.08-2.178,1.557-1.311,3.739-2.382,2.142-4.284-.991-1.18,2.385-1.949,4.2-2.705,1.7-.707,2.4-.061,3.453.545,2.653,1.528,7.075.929,8.854-1.1.214-.243.566-.707.483-.733-2.973-.846-3.38-2.839-5.845-3.855-.937-.388-3.318.062-2.784-1.154.453-1.032,1.325-2.1,3.833-2.2,1.75-.076,3.5-.12,6.15-.207-4.081-2.356-8.528-1.1-12.43-.686-4.28.454-7.715-.617-11.541-.857-1.55-.094-2.225-1.859-3.732-2.766-1.71-1.031.668-2.356,2.483-3.362,1.024-.566,2.745-1.256-.152-1.557-3.623-.378-2.331-1.18,0-1.848a44.377,44.377,0,0,0,8.256-3.521c6.538-3.362,4.109-6.956,3.27-10.419-.947-3.9-.508-4.654,6.4-6.894a16.467,16.467,0,0,0,5.148-2.657c-2.94-.153-5.383,1.129-8.092,1.085-1.056-.015-2.428.316-2.762-.476-.225-.541.486-.976,1.234-1.383a30.633,30.633,0,0,1,9.181-2.788c1.347-.239,3.416-.468,2.861-1.43-.45-.777-2.251-.189-3.42.08-4.164.962-8.321,1.917-12.405,2.951-4.018,1.024-9.62-.591-9.475-2.89.145-2.239-2.258-4.062-1.757-6.342a1.036,1.036,0,0,0-.788-1.074c-5.166-.7-5.2-2.933-5.213-5.387,0-1.032-.163-1.975.886-2.912.766-.686.832-2.029,2.832-1.819,1.673.175.475,1.245.2,1.975-.49,1.289-.367,2.4,2.657,2.454a9.833,9.833,0,0,0,7.442-2.646c1.75-1.761-1.6-1.5-3.013-1.942-.722-.229-1.659-.291-3.768-.636,6.937-.762,8.742-3.532,11.468-5.758,2.345-1.916,3.964-2.207,6.328-.569,5.118,3.55,10.19,7.18,17.178,9.91a2.4,2.4,0,0,1,1.445,1.75c1.365,3.394,3.488,4.313,9.969,3.46a30.736,30.736,0,0,1,13.6,1.343,77.287,77.287,0,0,0,14.536,2.378c7.54.581,13.247,2.556,19.443,4.28,5.475,1.525,11.094,3.013,16.282,5.456a39.644,39.644,0,0,0-12.317,1.55,7.155,7.155,0,0,1-5.591-.363c-3.14-1.815-7.268-2.076-12.053-1.136-1.252.243-3.031,1.075-3.521-.334-.279-.81-1.234-1.227-2.9-.592-1.5.566-1.83,1.307-1.343,2.146,1.6,2.748,1.256,5.663.21,8.571-.639,1.775-4.16,2.457-6.618,3.474-3.877,1.605-6.36,3.5-6.462,6.019-.054,1.289.708,2.392,2.527,3.224,2.243,1.027,5.042,2.022-.044,3.452-.936.265-.439.817.011,1.176,1.078.857.055,1.449-1.125,2.1-5.841,3.242-7.275,5.841-4.719,8.4,2.163,2.175,8.567,3.119,15.435,2.051,2.886-.45,5.54-1.11,8.31-.17a4.875,4.875,0,0,0,2.407-.178c1.042-.421.131-.77-.45-1.068-1.641-.842-.759-1.778.621-2.37,2.773-1.194,3.307-2.922,4.461-4.4,1.267-1.623,4.633-2.356,6.059-4.512-5.986,2.105-8.342-.069-11.021-1.452-2.1-1.082-3.66-2.11-6.5-.273a1.684,1.684,0,0,1-1.738.12c-.737-.439-.265-.817.686-1.06a24.58,24.58,0,0,1,4.334-1.024c6.727-.443,9.094-3.042,10.644-5.837.763-1.372,1.409-2.578,4.636-3.318a13.964,13.964,0,0,1-4.843-2.055c-2-1.641-4.81-2.766-9.348-1.928-1.281.236-3.1.41-3.143-.61-.037-.744,1.208-1.481,2.715-1.437,2.988.087,6.654-1.013,8.753.9.965.875,3.114,1.072,5.06.745,6.237-1.042,13.109-1.717,14.805-6.008.562-1.431,2.925-1.939,5.358-1.979,2.563-.04,2.839.85,2.552,2.029-.312,1.286,1.165,1.609,3.318.9,2.607-.861,3.166-.062,3.568.889.5,1.169,1.184,2.345,3.693,2.61,5.612.592,4.77,2.175,1.974,4.128-5.558,3.888-4.683,7.671-1.47,11.435a5.2,5.2,0,0,0,1.282,1.144c4.182,2.545,4.2,2.552-2.429,4.295-1.986.522-4.026.98-6.03,1.474-1.114.275-2.872.453-2.236,1.292s2.214.4,3.144-.026c3.437-1.586,8.023-1.949,11.725-3.329,4.4-1.633,6.542-1.143,7.533,1.434.806,2.1,5.616,2.981,9.468,1.7.777-.262,1.252-.784,2.044-1.006,2.16-.6,4.748-1.4,6.542-.232C1690.637,1721.929,1687.947,1722.705,1686.215,1723.4Zm-38.437-69.771c-3.776-2.842-7.5-2.933-14.332.1-3.572,1.332-5.224,3.129-4.357,5.286.817,2.018,4.88,2.7,7.671,2.82a11.889,11.889,0,0,0,7.958-3.467C1646.076,1656.885,1650.53,1655.7,1647.778,1653.632Zm-14.532-104.022c-1.812-1.365-4.258-.642-7.108.5-1.946,1.3-3.921,2.929-2.058,4.225s5.26.247,7.558-.7C1634.571,1552.417,1634.945,1550.892,1633.246,1549.61Zm124.791,32.339a16.911,16.911,0,0,0-5.656,4.175c-1.176,1.227-3.246.94-5.039,1.013-2.283.094-4.639.09-6.19,1.317-1.154.911-2.577,1.942-1.1,2.781,1.408.8,3.539.57,5.627-.055,1.005-.3,1.96-.653,3.768-1.259-1.844,6.171-3.423,11.784-13.654,16.793-9.609,4.7-18.91,9.446-29.895,13.226a20.244,20.244,0,0,0-4.785,2.174,18.8,18.8,0,0,1-10.611,3.507c-2.868.149-5.485,1.016-6.055,2.628-.5,1.42,1.63,1.525,3.881,1.717,2.846.244,1.535,1.576.686,2.378-1.256,1.18-1.608,2.033.414,2.77.5.182,1.085.61.918.853-2.705,3.946,3.039,4.273,8.063,4.995,1.209.175,2.425.552,3.572.1,6.516-2.541,14.383-2.6,21.535-4.2,7.834-1.761,13.37-5.046,20.682-7.123,1.884-.537,3.5-1.59,5.681-.9,2.222.708.759,1.739-.1,2.719-4.443,5.093-7.987,10.284-9.671,15.552-.635,1.993-3.761,3.343-4.473,5.18-.86,2.218-1.7,4.386-1.506,6.633.21,2.4-2.131,3.031-6,1.8-2.313-.741-4.291-.2-6.317.359-1.43.392-2.4,1.1-2.182,1.91.269,1.031,1.728,1.677,3.779,1.484,4.734-.442,1.841,2.4,5.188,2.7,4.494.4,2.062,1.975,1.383,3.467a46.59,46.59,0,0,0-2.981,9.794,8.957,8.957,0,0,1-1.35,3.322l-.054,0c-.545-1.329-2.356-2.043-5.032-2.04-2.842,0-4.077-1.1-5.827-1.742-2.9-1.068-.145-1.776,1.87-2.429,3.507-1.136,5.562-6.3,3.028-7.606a5.859,5.859,0,0,0-3.173-.2,15.216,15.216,0,0,1-5.333-.239c-5.322-1.133-13.457.955-15.465,3.968-1.212,1.819-2.134,3.8,1.38,4.991,2.871.977,5.877,2.552,10,.189a3.109,3.109,0,0,1,2.541-.058c.784.359.417.86-.149,1.267-1.111.8-2.429,1.546-3.471,2.363-1.728,1.362-2.407,2.832.523,3.638,2.422.664,1.808,1.608.585,2.247-1.9.988-3.043,1.928-3.126,3.238-.036.614-1.278,1.046-2.483.977-4.825-.28-10.219,1.074-14.5-.556-1.732-.66-2.984.316-4.465.491-2.948.348-6.349,1.324-8.771.086-2.327-1.187-.268-2.515.752-3.978,2.6-3.743,7.761-7.253,6.995-11.363-.334-1.812,3.38-2.026,6.048-2.755-2.069-1.489-4.08-.069-6.444.181.922-1.289,2.792-1.626,4.466-2.153,6.465-2.047,12.793-4.367,15.167-8.1.744-1.165,4.741-1.049,3.333-2.741-2.193-2.639-5.028-4.523-11.45-4.908-9-.537-16.434.8-23.023,4.407-4.76,2.606-7.355,5.511-5.845,8.589,1.539,3.133-.265,6.066-2.752,9-1.706,2.011-2.378,3.885-1.085,5.8,1.259,1.862.159,3.917.475,5.866.207,1.285-2.225,1.993-4.28,2.327-2.447.4-4.4-.406-4.919-1.4-.831-1.583-2.93-2.025-5.5-2.733-6.451-1.78-12.354-3.976-18.213-6.117-2.109-.77-4-1.808-1.379-3.547,1.953-1.3,1.945-2.7-.4-3.518a10.151,10.151,0,0,0-7.638.541c-3.046,1.746-5.384,1.336-8.677.886-5.3-.726-10.949-.926-16.394-1.365-4.091-.327-6.309-1.053-4.247-3.8,2.2-2.936-1.7-5.144-7.526-5.18-3.728-.025-7.221-.806-10.346,1.623-1.274.991-3.445.5-4.545-.247-4.709-3.209-10.844-5.638-15.821-8.626-4.356-2.613-4.258-2.846.214-5.993.243-.171.149-.461.2-.665a4.926,4.926,0,0,0-3.2.49c-2.763.912-3.249.44-4.16-.922-1.376-2.047,1.55-1.139,2.617-1.408,1.213-.309,2.828-.476,2.244-1.358a2.692,2.692,0,0,0-3.09-.417c-2.116.824-4.381,1.19-5.053-.091-.719-1.365.461-2.977,2.864-4.073,1.176-.538,3.05-.617,3.58-1.608-.933-.788-2.44.395-3.623-.1,2.425-3-.371-5.66.53-8.626.112-.366-.363-.762-.748-1.074-1.8-1.456.105-3.268,3.855-3.805,1.815-.261,1.605.3,1.812.835.192.505.889.864,1.967.65,1.162-.232,1.195-.835,1.1-1.314-.236-1.155.759-2.316,1.162-3.464-1.445-.45-1.619.839-2.8.69-.113-.09-.436-.221-.37-.308,1.644-2.251,1.836-4.789,8.382-5.565,3.042-.36,2.7-2.284.744-2.963-2.559-.885-1.525-1.485.222-2.712,5.6-3.931,12.97-6.541,20.812-8.916,1.463-.442,3.249-.646,4.095-1.818-5.264.628-9.435,2.744-14.456,3.5a40.32,40.32,0,0,1-9.145.6c-4.222-.526-5.826.69-7.9,2.153a13.687,13.687,0,0,0-2.207,1.808,5.555,5.555,0,0,1-6.1,1.467c-2.094-.748-3.746-1.983-1.034-3.674,2.853-1.775,5.26-3.355,1.216-4.872-1.22-.458.283-1.2,1.256-1.688,4.124-2.07,6.48-4.894,12.517-6.894a6.89,6.89,0,0,0-3.946.809c-2.8,1.322-4.694,1.6-4.72-.551,0-.3-.076-.8-.4-.835-5.986-.639-3.764-3.736-4.428-5.911-.48-1.564-1.678-2.936-1.725-4.632-.054-2.011-.595-3.88,3.05-5.735.889-.454,2.062-1.18,1.437-1.543-2.726-1.579.574-2.658,2.443-3.965,2.124-1.473,5.01-2.744,5.616-4.679.4-1.278,2.774-1.724,4.869-2.04,1.564-.236,3.143-.352,4.712-.6,5.343-.82,7.946-2.2,7.954-4.171.007-2.167-2.414-3.064-7.4-2.752-.464.03-.933.077-1.851.153,1.895-2.995,3.546-5.794,10.183-7.192a5.717,5.717,0,0,0,2.428-.965c2.81-3.961,10.172-4.455,15.6-6.386a112.865,112.865,0,0,1,25.4-6.215c1.554-.174,3.177-.69,3.017-1.6-.138-.791-1.724-.584-3.089-.454a131.353,131.353,0,0,0-15.545,2.792c-1.427.312-2.89.559-4.335.762-.8.113-1.67.076-1.836-.374-.218-.584.711-.98,1.669-1.194,1.569-.356,3.257-.49,4.763-.922,4.916-1.412,8.586-3.293,9.991-6.121a8.472,8.472,0,0,1,4.726-4.407c.367.055.843.055.854.138.53,3.133,2.04,3.8,6.741,2.926,7.584-1.412,12.51-4.1,11.385-6.607-.759-1.688.348-2.741,3.372-3.91,4.828-1.862,8.843-4.5,14.957-5.2,1.259-.146,1.354-1.159,2.824-1.249,1.383.864-.279,2.429,1.474,3.449,2.621-1.837,1.971-3.471,2.85-5.075.831-1.518,1.8-2.625,5.195-3.631,9.148-2.712,15.392-6.429,16.347-11.384.243-1.256,2-1.885,4.062-2.5,3.238-.966,6.473-1.953,9.718-2.937-.105-.2-.214-.392-.323-.592-4.265,1-8.567,1.895-12.727,3-3.859,1.027-6.967,1.266-9.962.366-3.028-.915-13.9.12-15.752,1.779-2.29,2.058-5.293,3.8-7.914,5.685-2.457,1.772-5.848,2.745-9.38,3.358-3.377.585-4.8.069-2.6-1.822a9.094,9.094,0,0,0,1.245-1.22c.6-.8,2.723-1.713,1.6-2.345-1.161-.657-2.624.483-3.96.82-1.805.458-2.988.425-2.741-.653a2.849,2.849,0,0,0,.062-.486c.138-1.765-.705-3.355,5.329-4.429,5.732-1.017,9.3-4.3,14.535-6.212,2.07-.762,1.525-2.407,3.079-3.739a95.925,95.925,0,0,1,11.776-8.023,11.232,11.232,0,0,1,6.259-1.22c9.167.178,18.58.174,27.242,1.224,3.354.406,5.772,1.187,6.3,3.024.805,2.839,4.468,4.85,6.073,7.492,1.5,2.476-.145,5.261-.9,7.976-.239.864-3.63,2.759,1.949,1.9.861-.134.3,1.6.3,2.487,0,.8-1.017,1.179-2.792,1.51a14.436,14.436,0,0,0-7.606,3.815c-1.049.973-1.43,1.895-.188,2.61,1.336.77,3.39.516,5.253-.083,5.282-1.7,6.331-.774,6.69,1.47.977,6.135-2.592,12.677-3.256,18.979-.142,1.369-1.085,2.839-.882,4.142.486,3.1-1.961,5.413-8.161,7.686-8.059,2.951-13.588,3.089-17.545-.255-.3-.254-.632-.537-.679-.845-.1-.683,6.64-6.088,8.066-6.531a16.225,16.225,0,0,1,1.888-.537c1.837,1.306,3.747.718,5.591-.65,2.9-2.149,6.8-4.317,5.166-6.68-1.351-1.953-10.684-1.376-16.663,1.042,1.572.225,2.955.465,4.418.621,6.211.66,6.353.947.824,3.5-2.69,1.238-5.079,2.831-8.807,3.22-2.719.279-4.32.083-3.249-1.638,2.809-4.523-2.843-6.625-12.06-4.588-2.712.6-5.453,1.176-8.056,1.916-4.472,1.275-5.431.382-5.274-1.484.228-2.676,1.158-5.464-.636-8.332-2.795,3.235-2.407,5.8-2.574,8.343a10.3,10.3,0,0,1-4.519,8.491c-4.643,3.514-2.542,6.335-.614,8.981,1.336,1.833,2.418,3.739,2.382,5.729-.08,4.606,7.151,6.4,11.526,9.253,2.243,1.46,7.819.6,11.671-.806a27.294,27.294,0,0,0,11.675-7.641c2.991-3.391,7.892-6.415,14.826-8.546,2.523-.773,2.741.007,2.919.78.45,1.972.831,3.961,1.263,5.94.548,2.526,3.282,3.971,8.339,4.61,6.781.857,12.459,2.73,19.524,3.536a9.433,9.433,0,0,1,6.5,3.431c.407.529.6,1.4,1.442,1.492,7.184.758,3.866,3.031,1.3,5.3a6,6,0,0,0-2.356,4.531c-.011,1.593,1.056,2.741,4.483,2.8,6.952.119,9.21,2.8,12.8,4.792C1759.224,1580.9,1759.039,1581.5,1758.037,1581.949Zm-261.424,139.439c-1.59,1.808-3.187-.817-4.632-2.044-1.252-2.313-1.942-4.81-.534-6.251,1.431-1.464,3.206-.451,4.669,1.862C1497.6,1717.3,1498.015,1719.805,1496.613,1721.388Zm13.4,55.906c-2.279.711-5.158,1.434-6.705-.152-1.4-1.442-.112-2.861,2.309-3.758,2.675-.537,5.017-2.359,7.526-1.074C1515.32,1773.424,1513.356,1776.256,1510.016,1777.294Zm-72.449-81.1c-1.572,1.627-2.875-.138-3.99-1.256-1.426-2.12-1.521-5.924-.21-7,1.416-1.158,3.013-.6,4.36.976C1438.819,1690.189,1438.681,1695.043,1437.567,1696.2Zm35.246-109.819c-2.526.8-2.922,2.2-4.153,3.336a8.916,8.916,0,0,1-5.913,2.113c-1.369.051-2.291-.429-2.5-1.1-.41-1.328,2.33-2.069,3.057-3.19,3-.89,6.211-.934,8.767-2.28.435-.229,1.183-.048,1.23.276A.9.9,0,0,1,1472.813,1586.378Zm-30.32,123.516c-.907,1.844-2.113,2.193-3.459.378s-1.659-7.566-.512-8.753c1.416-1.459,2.755-.5,3.855,1.4C1443.826,1705.425,1445,1707.985,1442.493,1709.894Zm-67.5-4.57c-2.066,1.093-4.611,1.292-5.921.025-1.38-1.332.7-2.617,1.913-3.717,2.476-.788,4.832-1.63,6.487-.374C1379.577,1702.859,1377.105,1704.209,1374.992,1705.324Zm153.165,34.411c-1.583,2.3-3.289.832-4.9-1.339a5.414,5.414,0,0,1-.33-6.546c1.408-2.084,3.1-.82,4.6,1.63C1529.416,1735.629,1529.482,1737.8,1528.157,1739.735Zm-48.239-97.974a9.174,9.174,0,0,1-6.19.875c-2.2-.512-1.543-1.739-.849-2.871a12.469,12.469,0,0,1,1.84-2.571,5.137,5.137,0,0,1,3.721-1.321c1.554.036,1.34.766,1.267,1.4-.054.5.051.937.89,1.158C1484.23,1639.387,1482.143,1640.574,1479.918,1641.761Zm-48.439,75.354c-2.044,1.717-3.718-.124-5.246-2.7-1.757-2.425-2.142-5.195-.377-7.3,1.51-1.8,3.379-.621,4.784,1.4C1432.325,1710.94,1432.848,1715.96,1431.479,1717.115Zm14.212-153.074c-2.657,1.321-5.579,2.435-8.1,1.347-1.754-.759.344-3.046,4.5-5.159,1.162-.276,2.273-1.819,3.9-1.064C1449.191,1560.646,1448.948,1562.418,1445.691,1564.041Zm40.928,25.47c-1.169,1.2-1.956,2.5-4.037,3.477a10.534,10.534,0,0,1-6.135,1.155c-1.321-.2-1.967-.708-1.59-1.507a7.13,7.13,0,0,1,4.861-4.432,16,16,0,0,1,4.723-.661C1487,1587.489,1488.119,1587.964,1486.619,1589.511Zm56.8,150.471c-1.543,1.518-3.039,4.182-5.583.134-1.841-2.937-2.357-6.872-1.039-8.516s3.689-.853,5.649,2.13C1542.932,1735.6,1545.658,1737.782,1543.415,1739.982Zm-1.278-68.816c-2.44-.239-4.97-.544-6.952-1.869-2.022-2.814-2.127-4.868-1-6.614a6.351,6.351,0,0,0,1.234-2.422c.236-1.216.926-1.953,2.044-1.26a3.207,3.207,0,0,1,1.307,3.529c-.951,3.133-.218,4.44,2.523,4.8.937.119,2.541-.087,2.893,1.985C1544.489,1671.105,1542.779,1671.228,1542.137,1671.166Zm-25.347,32.985c-1.884.9-1.88,3.01-1.778,5.486.112,2.646-1.529,2.515-2.828,1.938-.991-.443-2.026-.911-3.086-1.322.112-1.165.276-2.123.294-3.118.138-6.549.987-7.674,5.689-7.431a2.2,2.2,0,0,1,1.96,1.692C1517.433,1702.492,1517.491,1703.817,1516.79,1704.151Zm-74.373-121.738c-3.667,1.838-6.952,3.5-10.256,5.13-1.031.508-2.414.831-2.6.037-.417-1.761-.976-3.573,1.761-5.5a3.968,3.968,0,0,1,2.077-.907c2.831-.185,5.59-.229,8.328-1.579.762-.378,2.225-.24,2.526.468C1444.675,1581.067,1443.357,1581.833,1442.417,1582.413Zm67.621-123.73c-1.9,1.985-3.314-.748-4.589-1.917-1.967-2.109-2.515-4.451-1.55-5.837.723-1.039,4.349-.893,5.464.217C1511.007,1452.78,1511.5,1457.158,1510.038,1458.683Zm-106.207,297.171c-2.712,3.263-5.816,1.735-7.163-3.271-.722-2.694-2.229-5.05-1.136-8.067,1.4-3.848,3.009-4.494,5.834-1.993C1404.778,1745.543,1406.176,1753.036,1403.831,1755.854Zm13.737-143.5a5.358,5.358,0,0,1-2.857,2.338,19.043,19.043,0,0,1-7.094,2.015c-2.49.25-5.5.123-5.14-1.8.3-1.63.3-3.7,4.6-4.368a43.812,43.812,0,0,0,4.559-1.394,10.053,10.053,0,0,1,6.386.164C1419.365,1609.96,1418.014,1611.314,1417.568,1612.356Zm50.308,106.066c-3.837,1.757-6.331-1.554-8.8-4.745-2.726-3.975-3-7.94-.867-10.444,2.116-2.487,5.677-.843,6.61,3.216.759,3.3,1.257,6.549,3.616,9.036C1469.372,1716.472,1469.517,1717.667,1467.876,1718.422Zm46.714-41.919c-.871,1.539-.087,2.744.334,4.171.233.8.345,1.594-.374,1.8a1.088,1.088,0,0,1-1.281-.784c-1.452-4.687-5.071-7.141-6.941-11.37-1.133-2.563-1.147-4.647-.163-6.56,1.445-1.009,2.74-2,4.7-.65C1514.787,1665.819,1516.816,1672.568,1514.59,1676.5Zm-150.758,43.331c-2.13,2.516-5.648,1.234-8.186-2.984-2.033-3.376-1.957-10.274.127-12.477,2.222-2.353,5.667-1.442,7.863,2.08C1365.68,1709.731,1365.8,1717.507,1363.832,1719.834Zm43.8-60.818c.719.762-.167,1.507-1.31,2.124a3.867,3.867,0,0,1-3.366.3,5.963,5.963,0,0,0-3.013-.152c-3.057.341-5.63.007-7.057-1.467-1.514-1.568.631-2.988,2.24-4.331,1.049-.878,2.8-1.532,3.844-2.41.944-.8.908-1.87,2.462-2.509a5.212,5.212,0,0,1,3.485-.653c1.3.225,1.277.864.914,1.47-.689,1.155,0,1.921,1.039,2.668.885.632,1.332,1.413.66,2.331A1.813,1.813,0,0,0,1407.628,1659.016Zm26.9-130.3c-.537,1.227-2.149,2.193-4.2,2.828-2,.621-4.327.824-4.28-.465.077-2.033-2.287-2.715-4.563-3.492-4.69-1.594-9.439-3.118-14.111-4.661-.475-.16-1.089-.283-1.3-.548-.7-.908-3.532-1.05-2.142-2.669.374-.432,7.479-.428,8.038,0a45.748,45.748,0,0,0,12.052,6.437,5.409,5.409,0,0,0,5.5-.519c1.873-1.249,2.334.127,3.336.283C1434.95,1526.239,1435.084,1527.455,1434.532,1528.718Zm105.049,159.729c-.432,3.92-3.343,6.055-6.276,3.891-2.879-2.123-4.752-5.783-6.009-9.395-.864-2.487.792-4.545,2.062-5.881,1.442-1.517,3.427-.962,5.272.791a19.06,19.06,0,0,1,1.822,2.273C1538.271,1682.834,1539.962,1685,1539.581,1688.447ZM1401.043,1573.3c-2.465,1.111-2.9,2.12-1.057,3,1.22.534-.188,4.571-1.8,5.475-2.788,1.564-4.9,1.368-6.563.119a5.26,5.26,0,0,0-3.692-.925c-1.725.105-2.821-.214-3.075-1.209-.243-.958-.225-1.873,1.641-2.658,2.428-1.016,3.038-2.577,4.759-3.8,2-1.416,4.2-2.28,6.212-1.027.98.61,1.989.09,3.114-.062,1.162-.156,2.807-1.47,3.344-.465C1404.354,1572.543,1402.125,1572.811,1401.043,1573.3Zm-24.051,154.247c-1.811,2.116-7.26.018-9.526-3.663-2.015-3.271-1.3-10.169,1.376-13.422,1.6-1.942,6.183-1.187,7.889,1.3C1379.232,1715.409,1379.4,1724.735,1376.992,1727.545ZM1528.059,1569.8c-1.336-.773-3.155.846-4.008-2.4-.515-1.961-1.536-3.906-1.086-5.838a2.188,2.188,0,0,0-.816-2.32,8.041,8.041,0,0,1-2.131-3.347c-1.042-2.563-1.492-5.057.493-6.454,1.627-1.147,3.972-.153,5.667,2.341,1.195,1.667,2.48,3.551,1.906,5.438a6.592,6.592,0,0,0,1.362,6.477,6.566,6.566,0,0,1,.969,3.528C1530.662,1569.537,1530.614,1571.287,1528.059,1569.8Zm-135.166,50.05c3.314,1.336.218,1.848-1.743,2.879-4.418,2.331-8.985,2.992-13.976,3.013-3.035.015-3.729-.751-2.509-2.341,1.409-1.837,3.1-3.627,2.988-5.551-.036-.548.955-1.3,1.7-1.26,4.3.222,9.581-1.847,13.186.091.167.091.37.164.551.243.712.36.117.8-.21,1.242C1392.424,1618.785,1392.047,1619.511,1392.893,1619.852Zm45.465,14.812c.291.083.632.414.516.519-2.433,2.258-1.895,4.741-3.837,6.948-1.79,2.037-11.933,3.83-14.663,2.912a.986.986,0,0,1-.606-.487c-1.511-4.044,6.661-10.763,14.6-11.9,1.434-.2,1.979-1,4.378-1.456C1436.191,1632.907,1436.024,1633.974,1438.358,1634.664Zm97.263-30.186c-2.414.465-2.669,1.819-1.423,5.166,1.227,3.3-.654,6.015-.683,9.236-.011.874-1.136.127-1.652-.334a44.233,44.233,0,0,1-8.131-9.011,8.194,8.194,0,0,1-.77-6.948c.7-2.066,2.294-2.458,4.12-1.986a24.15,24.15,0,0,1,3.093,1.343c-.824-2.5-1.55-4.607-.1-5.743,1.263-.994,2.759-.548,4.283.759,1.67,1.43,1.961,3.365,2.033,5.337C1536.423,1603.19,1536.307,1604.344,1535.621,1604.478Zm-132.6,102.882c-2.193,2.81-1.078,6.448-.882,9.886.08,1.35.323,2.6-1.325,1.633-4.052-2.389-4.948-1.851-6.647,3.6.174-4.818-2.948-6.727-4.582-9.929a22.792,22.792,0,0,1-2.41-12.869c.508-5.112,4.857-7.9,8.415-5.341,3.045,2.193,5.064,5.842,6.984,9.559C1403.094,1704.892,1403.671,1706.529,1403.025,1707.36Zm26.316-140.952c-3.467,3.256-1.608,5.95-.621,8.56.508,1.332.7,1.895-1.648,2.864a19.045,19.045,0,0,0-2.875,1.79c-2.709.828-5.039,2.272-8.034,3.031-4.462,1.129-8.666.9-10.655-1.329-1.249-1.4.439-3.485,2.349-5.14,2.236-1.939,5.732-3.449,7.769-5.525a4.711,4.711,0,0,1,2.864-1.093c4.04-.236,6.759-1.521,8.647-3.714a2.748,2.748,0,0,1,2.491-1.2C1431.152,1564.926,1429.962,1565.827,1429.341,1566.408Zm-11.16,96.02,4.357-2.592c.225.2.384.269.348.313-2.421,3.162-3.107,6.218-1.162,9.133.291.436.509,1.089-.17,1.34-5.115,1.891-3.95,5.111-6.869,7.493-3.162,2.577-6.327,2.563-10.241,1.365-4.32-1.321-9.406-2.011-13.689-3.453-.6-.2-2.171.251-2.738-.359-.305-.327.037-.733.509-1.1,1.241-.973,2.356-.373,3.775-.192-1.354-2.236,2.418-3.333,4.066-4.872,3.107-2.9,8.785-4.581,11.864-7.562.555-.537,1.967-.74,2.4-.13,1.455,2.076,3.666.508,5-.313,4.719-2.886,9.2-5.913,13.752-8.919a4.153,4.153,0,0,1,2.977-.926C1427.958,1655.3,1422.1,1658.094,1418.181,1662.428Zm574.524-102.341c-3.067,1.089-7.148,1.725-10.085.5s-1.209-3.006,2.189-4.222c3.351-1.2,7.163-2.762,11.5-2.113C1998.6,1554.6,1996.252,1558.6,1992.705,1560.087Zm-157.343-6.73c-3.26,1.22-7.62,2.762-10.125,1.307-1.772-1.031-4.269-3.115-.1-4.868,4.411-1.856,7.384-.051,9.805.265C1837.961,1551.215,1838.324,1552.25,1835.362,1553.357Zm-64.151,237.692c-5.358-2.062-9.145-5.209-10.292-9.849-.8-2.7-2.083-5.848,2.135-4.948,2.588.556,11.994,10.121,12.891,13.065C1776.918,1792.512,1774.442,1792.29,1771.211,1791.049Zm501.479,271.919q-21.133-10.5-41.879-20.751c-3.771-1.862-7.5-3.594-11.235-5.38,14.194,2.988,31.02,11.043,47.062,17.3a37.619,37.619,0,0,1,3.994,2.174c3.43,1.932,7.572,4.251,8.426,7.079S2276.237,2064.728,2272.69,2062.968ZM2680,1401.811c-23.775,7.692-38.028,17.668-63.73,25.194,9.3-7.061,24.381-12.474,39.044-17.937,7.159-2.669,11.21-5.9,19.189-8.343,2.037-.624,4.059-1.811,6.7-1.245C2683.587,1399.989,2682.044,1401.154,2680,1401.811Zm81.935-94.594q-13.326,4.77-27.122,9.322c-6.266,2.051-10.7,5.007-22.421,6.15a326.816,326.816,0,0,1,46.417-18.257,9.665,9.665,0,0,1,5.159-.334C2766.313,1304.933,2764.763,1306.207,2761.939,1307.217ZM2498.01,1020.091c-1.785,2.323-4.574,4.781-9.682,7.206a22.163,22.163,0,0,1-9.87,2.356c-3.271-.185-2.36-1.557-.189-3,2.952-1.96,6.593-3.924,9.947-5.892a15.381,15.381,0,0,1,6.476-1.971C2497.35,1018.581,2498.867,1018.977,2498.01,1020.091ZM1453.028,1472.623c-3.634-.969-9.181-5.05-9.431-7.112-.283-2.323,1.855-2.32,3.122-1.993,5.63,1.5,9.569,4.284,9.783,6.451C1456.7,1471.9,1456.266,1473.487,1453.028,1472.623Zm234.6,286.12c-4.1-1.986-8.673-4.2-10.154-8.5-1.246-3.634,1.626-4.32,5.478-2.81,4.1,1.616,9.736,4.161,11.355,8.423C1695.712,1759.553,1692.064,1759.97,1687.628,1758.743Zm365.042-339.532c-5.917,2.639-13.824,4.211-15.588,3.074-2.531-1.622.6-3.448,4.073-5.093,4.284-2.033,9.638-2.516,12.985-1.234C2056.671,1416.927,2054.256,1418.172,2052.67,1419.211Zm109.6,206.279a43.3,43.3,0,0,1-10.22,5.406c-3.608,1.06-8.756,3.554-12.629,1.775-4.226-1.935,2.672-3.844,6.226-5.395,3.22-1.4,7.307-2.5,11.054-3.721a9.92,9.92,0,0,1,5.95-.12C2164.624,1624.038,2163.216,1624.822,2162.272,1625.49Zm26.454,151.081c-10.223,2.447-20.555,4.76-30.851,7.025a12.416,12.416,0,0,1-5.387.225c-.744-1.169,1.194-1.659,2.687-2,10-2.316,18.4-5.561,27.691-8.349,3.028-.912,7.214-1.7,9.958-.131C2195.63,1774.945,2191.445,1775.922,2188.726,1776.571Zm-30.012-322.735a4.866,4.866,0,0,1-1.4.872c-2.2.889.773,2.944-4.393,2.871-3.591-.047-8.807.509-10.223-1.114-1.318-1.507.911-3.18,3.815-4.585,4.081-1.721,8.481-2.563,12.361-1.855C2162.522,1450.689,2160.4,1452.388,2158.714,1453.836ZM1585.813,1881c-3.22.93-7,.708-8.891-1.013-2.617-2.378,1.246-3.637,4.066-4.788,2.331-.955,4.974-1.572,6.68.392C1589.933,1877.45,1589.044,1880.071,1585.813,1881Zm356.428-28.933c-15.015-9.134-29.972-17.382-44.439-27.416-1.2-.835-2.3-1.957-2.319-3.34,6.933,2.454,14.285,7.518,21.411,11.406,8.1,4.426,16.311,10.176,24.533,15.5,1.776,1.147,3.711,2.784,3.642,4.2C1945.022,1853.4,1943.624,1852.909,1942.241,1852.067Zm49.477-157.427c-.265,1.448-2.262,2.309-5.391,2.722-1.852.24-3.783.422-4.908,1.257,6.3,1.412,5.793,2.606-2.469,5.289-.987-1.009,3.191-1.59,1.532-2.374-1.8-.853-3.928.265-5.979.3-3.227.058-5.957,1.626-9.914.817.493-1.2,2.973-1.765,4.752-2.527,4.189-1.786,9.29-3.133,12.6-5.388,1.666-1.139,4.766-1.531,7.718-1.5C1991.315,1693.26,1991.841,1693.983,1991.718,1694.64Zm-215.479,184.389a176.644,176.644,0,0,1-22.2-16.707c-2.374-2.153-3.616-4.294-3.057-5.866.461-1.307,2.207-.89,4.284.421,8.807,5.565,15.89,13.443,23.858,20.348a5.693,5.693,0,0,1,.86,1.325C1780.407,1880.833,1778.944,1880.8,1776.239,1879.029Zm559.346-539.8c-15.356,5.656-27.667,12.321-44.228,17.323-.693.211-1.626.262-3.837.6,2.643-2.407,6.8-3.925,10.524-5.4,11.072-4.379,21.912-8.866,32.266-13.563,1.87-.846,4.124-1.514,6.073-.995C2337.948,1337.62,2337.345,1338.579,2335.585,1339.229Zm-94.1-275.745a16.267,16.267,0,0,1-5.823,4.469c-3.764,1.938-6.766,3.79-10.15,3.615-2.911-.149-1.808-1.771-.16-3.281,1.471-1.347,3.275-2.72,5.007-4.085a14.387,14.387,0,0,1,7.772-2.6C2241.666,1061.3,2242.74,1061.923,2241.484,1063.484Zm165.893,28.947q-23.323,13.581-46.3,26.937c-1.209.7-2.955,1.358-5.013,2.287.468-2.276,5.3-4.291,8.418-6.142,12.844-7.628,24.483-15.353,36.924-23.1,1.87-1.162,3.953-2.918,7.489-2.755C2411.646,1089.785,2409.4,1091.251,2407.377,1092.431Zm-417.558,856.593c-23.963-14.619-47.045-25.629-69.85-41.744,12.459,5.162,25.281,12.4,38.209,20.188,9.594,5.783,19.215,12,28.8,16.151,2.418,1.049,5.38,2.566,6.31,5.18C1993.99,1950.781,1991.95,1950.32,1989.819,1949.024Zm-531-322.023c-10.03-6.567-20.278-11.519-30.186-17.582a36.242,36.242,0,0,1-3.22-2.5,36.956,36.956,0,0,1,14.888,5.885c5.957,4.066,11.893,7.99,18.239,9.838,2,.585,4.276,2.051,4.41,4.1C1463.1,1628.859,1460.866,1628.337,1458.822,1627Zm844.308-391.108c-8.382,4.454-18.547,8.371-28.113,12.412-3.056,1.288-6.327,2.5-11.3,4.461,5.976-4.646,13.527-8.157,20.45-11.693,4.062-2.073,9.362-3.881,12.866-6.2,1.884-1.245,5.775-2.661,8.483-2.131C2307.958,1233.221,2305.29,1234.746,2303.13,1235.893ZM1769.752,1662.8c-4.89-1.459-12.169-6.581-12.986-9.38-1.249-4.266,3.289-3.191,7.206-2.291,3.83.875,10.408,6.262,11.305,8.945C1776.134,1662.635,1773.524,1663.924,1769.752,1662.8Zm-82.371,112.942c-5.471-2.251-13.127-8.818-14.013-11.937-.9-3.162,2.734-4.218,7.7-2.08,4.846,2.088,8.6,4.938,9.384,9.352C1690.735,1773.718,1693.527,1778.27,1687.381,1775.744ZM2468.2,1543.827a25.245,25.245,0,0,1-9.068,5.122c-5.33,1.631-12.111,3.047-17.128,1.318-5.692-1.964,1.013-3.735,4.966-5.358,3.961-1.928,7.907-3.089,14.8-3.848C2472.581,1539.867,2472.181,1540.742,2468.2,1543.827Zm-273.817-281.579c-4.248,3.065-10.637,5.214-17.741,6.971-2.865.708-5.2.639-5.776-.258-.864-1.336.6-2.8,5.943-4.469,2.613-3.144,8.6-3.489,15.044-4.2C2197.416,1259.671,2196.581,1260.662,2194.378,1262.248Zm-32.589,21.615c-5.758,3.827-14.979,2.164-21.132,5.555a40.955,40.955,0,0,1,10.767-5.776c1.529-.57,3.115-1.14,4.455-1.775,9.181-4.36,9.159-4.364,23.168-7.541A179.237,179.237,0,0,0,2161.789,1283.863Zm-355.136,497.609c-3.691.97-7.747,3.565-12.64,1.028-2.893-1.5-.276-4.68,5.166-6.683a11.461,11.461,0,0,1,10.763,1.016C1811.747,1778.238,1809.815,1780.645,1806.653,1781.472Zm409.216-137.928c-5.95,2.236-16.786,3.064-19.335,1.572-3.8-2.229-.439-4.23,3.8-5.983,5.184-2.142,14.714-2.824,17.484-1.147C2221.064,1639.95,2218.937,1642,2215.869,1643.544Zm-229.248-265.5a28.755,28.755,0,0,1-3.358,1.582c-4.063,1.318-8.43,2.959-11.337,1.136-2.059-1.292,1.364-4.49,6.182-5.862a35.1,35.1,0,0,1,3.892-.81c3.038-.5,7.51-2.621,8.752-1.307S1992.219,1376.363,1986.621,1378.044Zm100.5-84.789c-2.628,2.2-7.464,4.022-9.686,6.433-1.677,1.815-4.381,1.063-5.391.185-5.91-2.324-.845-7.021,9.882-9.268,2.2-.458,4.527-.8,5.587-.226C2088.744,1291.044,2088.57,1292.042,2087.125,1293.255Zm105.289,93a15.078,15.078,0,0,1-9.711,1.819c-2.636-.465-4.327-.85-7.762.617-2.577,1.1-6.563,2.258-8.934,1.242-2.661-1.14.559-2.774,3.137-4.248,3.728-1.383,7.525-3.02,11.66-1.967,2.218.562,3.594-.305,5.395-.832,3.082-.9,6.832-2.24,9.221-1.241C2198.277,1382.839,2195,1384.709,2192.414,1386.255ZM1911.5,1709.637c-14.031,3.851-27.91,7.681-42.583,10.589-1.565.312-3.848.621-4.6-.352-.82-1.06,1.6-1.264,3.079-1.626,4.149-1.017,8.288-2.07,12.535-3.021,4.374-.98,7.994-2.094,6.331-4.668-.287-.447-.127-.828.955-.955,1.735-.207,3.042.054,3.754.886.933,2.345,4.443,1.317,7.1.711,3.884-.889,7.489-2.066,11.308-3.049,1.126-.291,2.781-.621,3.689-.011C1914.066,1708.809,1912.6,1709.332,1911.5,1709.637Zm980.08-357.067c-34.419,10.277-55.133,23.237-86.081,33.605-2.657.893-4.574,2.248-9.991,2.316,3.446-2.679,8.949-4.959,14.1-7.242,22.776-10.085,49.869-19.469,74.406-29.732,2.977-1.242,6.389-2.182,9.758-1.441C2896.317,1350.635,2894.067,1351.826,2891.576,1352.57Zm-486.765-311.423c-.908,2.679-5.1,5.427-13,9.217-2.37,1.063-6.854,4.389-12.223,3.917-4.916-.436-.174-3.514,3.332-5.9,4.223-2.868,10.641-5.176,17.106-7.427C2403.62,1039.713,2405.308,1039.68,2404.811,1041.147Zm-328.548,757.344c-6.215,2.2-14.895,2.28-18.383.145-4.066-2.486.09-3.946,2.857-5.22,6.944-2.378,17.588-2.824,20.064-.788C2083.763,1795.064,2080.514,1796.992,2076.263,1798.491Zm-446.488-33.721c-3.844.076-4.033,5.053-9.424,1.92a19.369,19.369,0,0,1-7.256-4.073c-2.448-2.041-5.577-4.335-5.453-6.785.127-2.48,2.748-2.179,5.841-1,3.906,1.492,7.965,3.866,10.793,2.233,1.357-.781,5.195,1.212,7.191,4.309C1633.155,1763.993,1631.943,1764.726,1629.775,1764.77ZM1919,2019.836c-4.008-1.4-16.075-11.9-17.719-15.5a4.908,4.908,0,0,1-.458-2.988c.861-3.609,15.545-.214,21.016,4.984a40.479,40.479,0,0,1,4.16,5.2C1928.478,2017.186,1924.129,2021.63,1919,2019.836Zm76.294-488.221c-3.906,2.269-13.933,4.146-17.687,3.322-3.939-.861-3.416-3.961.556-5.729,3.978-1.412,7.456-2.675,11.014-3.895a7.735,7.735,0,0,1,4.476-.12C1996.677,1526.013,1997.7,1530.217,1995.29,1531.615Zm196.932-162.749a59.367,59.367,0,0,1-13.382,3.725c-6.484,1-9.061.163-7.739-2.356,1.288-2.458,9.667-6.448,15.6-7.515,5.267-.951,10.615-1.583,12.535.214C2201.094,1364.677,2197.355,1366.692,2192.222,1368.866Zm61.939,262.494c-1.35.451-2.073.672-2.744.915a36.137,36.137,0,0,1-17.774,1.7c-2.955-.433-5.369-1.086-4.81-2.658,1.009-2.824,4.992-4.919,11.087-6.505a26,26,0,0,1,4.116-.668c6.212-.541,13.483-.973,16.515,1.223C2263.771,1627.7,2258.892,1629.908,2254.161,1631.36Zm-296.644,253.281c-23.709-11.943-46.849-23.9-69.335-34.919-9.413-4.618-18.38-10.557-27.448-15.937,0-.45,0-.9,0-1.351,12.064,5.772,24.2,10.975,36.521,17.614,19.458,10.485,39.265,20.733,59.191,29.518,2.749,1.213,5.838,2.57,6.43,5.235C1963.452,1887.393,1960.2,1885.992,1957.517,1884.641Zm-126.232-168.1c-1.888,1.808-3.892,3.51-5.914,5.217-1.746,1.473-4.36.755-7.841-1.536-5.693-3.746-12.684-6.963-15.266-12.6-1.695-3.706,2.647-3.024,5.373-3.31,1.805-.193,3.805.7,6.288,2.631s5.257,3.5,9.41,6.223c-3.587-3.823-4.723-5.976-1.819-6.19,3.115-.232,6.658,2.011,9.536,4.778C1833.757,1714.352,1832.534,1715.354,1831.285,1716.545Zm184.04-141.352c-.482,1.739-3.329,3.071-4.8,3.739-5.039,1.873-8.6,3.082-13.026,3.634-7.369.918-11.642-.733-10.016-3.953,2-3.965,15.966-7.994,24.7-7.072C2016.534,1572,2015.739,1573.7,2015.325,1575.193Zm149.553-170.532c-8.909,1.757-6.327,3.862-5.873,5.866.831,3.645-13.167,9.515-22.8,9.57-3.362.021-4.487-.646-3.151-2.041,3.837-4.007,9.7-7.765,16.419-11.391,3.478-2.124,8.7-2.636,13.342-3.66,1.506-.334,3.43-.784,4.149-.3C2167.83,1403.288,2166.508,1404.338,2164.878,1404.661ZM1944.049,1733.7c-1.213.965-3.4,1.063-5.54,1a52.358,52.358,0,0,0-12.238.951c-2.556.534-3.514,1.213-1.369,2.08,2.247.911,2.992,1.776.955,2.93-2.516,1.43-6.349,2.741-9.529,1.706-8.862-2.886-17.088-.33-24.951.712-6.074.8-11.189-.106-16.634.159,7.936-2.864,17.4-2.279,25.949-3.663,1.971-.319,4.462-.541,5.086-1.448,2.737-3.968,10.379-3.808,16.866-4.266,5.239-.374,10.568-.475,15.691-1.307,1.833-.3,3.644-.635,5.191.055C1944.038,1732.837,1944.364,1733.444,1944.049,1733.7Zm349.911-678.147c1.579,2.545.955,3.227-6.418,7.119-2.847,1.369-6.1,3.63-10.372,3.609s-2.371-2.11-.512-3.928c1.165-1.14,3.05-2.345,4.462-3.514,2.82-2.331,5.343-4.527-1.289-4.3-3.87.135-1.452-1.655-.16-2.973a18.449,18.449,0,0,1,8.372-4.9,5.449,5.449,0,0,1,2.486-.163c.61,1.7,5.395,2.149,3.761,4.4C2292.875,1052.851,2293.132,1054.227,2293.96,1055.555Zm268.858,412.33c-2.929,4.531-8,8.5-21.549,11.251-12.1,2.45-18.91,1.866-20.921-2.559-4.622.413-6.3,2.57-10.6,2.188-2.559-.228-1.909-1.314-1.176-2.127,1.626-1.786,5.543-2.581,10.335-3.162,11.425-1.387,22.733-2.9,30.168-7.213,2.7-1.565,7.663-2.527,12.187-2.073C2566.2,1464.684,2563.744,1466.459,2562.818,1467.885ZM2264.471,1039.97c-.7.657-.537,1.089.066,1.452,3.6,2.164,2.2,4.263-6.034,8.789-4.2,1.7-8.349,4.055-14.231,5.054a23.869,23.869,0,0,0-3.688.9c-2.7.951-5.79,2.708-7.431,1.568-1.489-1.034.806-3.089,4.237-4.236,8.981-3,10.556-5.634,12.146-8.5.919-1.651,4.23-3.445,7.849-4.984,2.483-1.057,5.754-2.734,8.306-2.672C2267.873,1037.4,2265.582,1038.928,2264.471,1039.97Zm38.768,4.836c-3.137,1.125-6.585,2.047-8.564,1.532-2.748-.719-4.193-1.917-1.7-4.219,1.572-1.448,4.393-2.8,7-4.178,7-3.442,14.427-6.818,20.638-10.444,2.189-1.278,4.139-1.721,5.021-.777C2330.208,1031.621,2315.927,1040.268,2303.239,1044.806ZM2437.93,968.04a95.917,95.917,0,0,1-13.625,7.943c-2.984,1.594-5.812,3.217-9.007,4.77a26.129,26.129,0,0,1-9.417,2.835c-3.111.211-2.893-.853-2.791-1.873.435-4.45,9.762-9.475,19-14.5,2.07-1.122,4.734-2.193,7.043-3.307,2.1-1.009,4.258-2.251,6.774-2.262,2.44-.011.606,1.292.12,2.189-.7,1.3-6.538,4.277,2.2,2.592C2440.768,965.938,2439.145,967.209,2437.93,968.04Zm-308.552,364.531c-1.913,2.98-7.428,6.077-6.132,9.017.389.882-3.115,2.527-5.667,3.6-4.12,2.24-10.3,3.369-14.227,5.612-.98.559-3.419.832-4.36.273-.762-.454.033-1.249,1.387-1.634,6.088-1.732,4.789-4.247,8.869-6.186.889-.421,1.383-1.129-.138-1.14-5.965-.047-4.03-2.744-6.24-4.037-2.059-1.205.41-2.937,3.6-3.659,6.767-1.529,13.745-3.554,20.82-3.572C2130.162,1330.835,2129.973,1331.641,2129.378,1332.571Zm258.824-14.282c-.614,3.26-18.108,9.747-27.256,10.532-7.163.613-11.788-1.112-9.286-3.878,4.664-5.158,12.8-9.943,27.7-12.165,4.676-.7,9.356-1.768,16.616-3.165C2389.2,1313.083,2388.706,1315.606,2388.2,1318.289Zm-517.659,508.8c-3.032,3.438-21.433-1.866-28.919-8.383-3.22-2.8-5.772-5.612-6.673-8.309-.272-1.812-.337-3.391,1.1-3.754,2.527-.639,3.59-1.92,1.383-5.7-1.187-2.037.679-2.436,2.636-2.106,3.463.581,7.162,2.912,10.426,6,6.727,6.364,11.838,13.345,19.055,19.716C1870.724,1825.591,1871.153,1826.4,1870.543,1827.087Zm238.694-442.212c-3.238,2.2-5.794,4.517-11.392,6.27-3.685,1.154-7.464,2.52-7.707,4.5-.076.61-.868,1.227-2.759,1.394-7.87.7-14.082-2.756-10.531-6.125a26.157,26.157,0,0,1,8.745-5.8c7-3.206,16.953-4.454,22.762-2.948C2110.489,1382.727,2111.045,1383.645,2109.237,1384.875Zm297.476-411.241c-2.879,3.253-8.593,6.56-15.767,10.423a74.521,74.521,0,0,1-11.468,5.235c-3.416,1.245-7.14,2.657-10.114,2.512-2.777-.138-2.708-1.311-1.568-2.777,3.162-4.052,8.2-8.23,15.941-12.626,3.379-1.917,7.492-3.794,9.943-5.783a6.97,6.97,0,0,1,3.932-1.667c1.684-.16,1.648.418,1.132,1.1-1.768,2.327-1.517,3.641,6.281,1.895C2409.138,971.024,2407.656,972.567,2406.713,973.634ZM2064.6,2099.953c-8.771-1.812-11.628,4.3-23.067-1.136-9.954-4.513-19.56-10.172-27.858-20.667-4.8-6.067-6.546-10.532-3.522-12.736,3.8-2.762,10.55-.573,18.787,4.909a149.383,149.383,0,0,1,14.8,11.874c4.948,4.335,9.355,9.7,14.932,10.306,1.59.175,4.16,2.745,5.837,4.8C2065.9,2099.006,2065.906,2100.221,2064.6,2099.953ZM1708.3,1633.4c-6.24,3.862-19.806-1.677-27.92-11.338-2.106-2.512-3.412-4.676-2.367-6.262.6-.907.831-1.91-.3-3.634-.955-1.456-1.96-3.184-.2-3.409a7.534,7.534,0,0,1,5.67,2.059c4.6,4.559,7.152,3.822,10.281,3.39a5.8,5.8,0,0,1,6.716,4.255c.81,3.707,2.763,7.518,6.96,11.628C1708.553,1631.477,1709.518,1632.646,1708.3,1633.4Zm-218.183-160.68c-6.226-.918-11.606-5.122-16.848-8.9-2.715-1.964-4.538-4.661-4.356-6.865.21-2.526,2.211-3.75,5.529-3.612,6.324.258,15.519,5.108,19.44,10.782a19.937,19.937,0,0,1,2.9,8.535C1497.2,1475.251,1492.671,1473.135,1490.115,1472.721Zm539.045,285.166c-1.179,1.949-4.262,3.884-.406,5.957.969.519.007,1.107-1.129,1.372-8.822,2.033-17.222,4.505-28.03,3.365-7.983-.842-11.388-3.859-7.336-7.042a24.762,24.762,0,0,1,6.93-3.849c6.019-1.5,12.009-3.042,18.151-4.49a15.878,15.878,0,0,1,9.6.559C2030.344,1755.011,2030.119,1756.3,2029.16,1757.887Zm460.4-258.571c-2.813,3.925-3.554,3.91-13.29,7.348-5.322,2.832-15.407,4.164-23.441,6.52-5.6,1.641-11.5.624-16.325-.156-4.676-.755-6.139-2.385-5.191-4.483,2.6-5.736,15.457-9.065,26.624-12.841a13.063,13.063,0,0,1,2.676-.334c3.655,4.585,13.566-.61,20.1.062,4.063.421,11.715-1.176,14.267-.439C2499.259,1496.231,2490.783,1497.614,2489.559,1499.316Zm-144.449-456.59c-1.1.53-2.069,1.082-4.755,2.5-9.058,3.427-15.392,8-21.815,12.645-4.711,3.408-11.907,6.349-20.187,8.694-6.364,1.8-9.334,1.688-9.025-.6.646-4.77,9.885-9.929,18.667-15.1a13.016,13.016,0,0,1,4.378-1.452c9.391-1.561,16.971-4.357,23.448-8.4,3.078-1.917,8.389-4.661,12.183-3.95C2351.22,1037.669,2350.919,1039.93,2345.11,1042.726Zm-733.878,681.929a3.513,3.513,0,0,0-1.924,4.066c.624,4.4-3.75,4.734-8.332.178-7.616-7.569-15.962-14.8-21.937-22.973-3.874-5.3-2.407-10.066,2.6-9.936,9.21.244,20.431,6.694,28.367,16.326,1.771,2.152,1.938,3.913,3.031,6.8A3.913,3.913,0,0,1,1611.232,1724.655Zm-42.26-200.616c-2.12-.607-4.469-1.031-6.407-2.218-5.689-3.475-9.189-2.4-12.884-2.081-1.383.12-1.986.8-3.743-.845a10.334,10.334,0,0,0-4.643-2.24,35.1,35.1,0,0,1-12.173-7.083c-7.594-6.389-7.59-12.256-.148-12.485a28.7,28.7,0,0,1,6.836,1.042c7.754,1.329,12.974,7.508,18.082,12.2,4.65,4.269,8.665,8.281,14.692,10.749,1.39.57,3.3,1.383,3.51,2.738C1572.312,1525.266,1570.29,1524.416,1568.972,1524.039Zm608.489-420.771c-4.433,1.753-9.188,5.3-9.871,7.449a52.653,52.653,0,0,0,8.488-3.267c2.047-1,4.948-2.175,6.756-2.124,5.242.153,9.921-1.848,15.283-3.743-10.895,5.743-15.113,11.614-25.492,17.244a45.434,45.434,0,0,1-12.448,4.629c-6.277,1.336-8.64.925-7.1-1.638,1.253-2.087,4.977-4.733,4.712-6.378-.737-4.57,12.031-9.972,14.975-14.818,1.746-2.88,9.846-6.219,16.2-9.138,3.082-1.42,3.191-.4,3.213.407C2192.247,1095.18,2186.38,1099.739,2177.461,1103.268Zm-261.445,408.01c-1.213,3.8-10.158,6.433-11.962,10.252-.788,1.677-4.676,3.529-8.292,4.959-4.763,1.746-5.387,4.923-11.867,6.132-3.256.606-6.241,1.749-9.461,2.45-2.769.6-6.226.283-4.98-1.031,2.918-3.071,1.786-5.983,4.145-8.96,4.241-5.351,15.037-7.725,24.624-10.429,4.883-1.383,10.2-2.309,14.4-4.339,1.3-.624,3.1-1.339,4.56-.8C1918.477,1509.978,1916.186,1510.741,1916.016,1511.278Zm640.707-504.637c-2.766,1.808-5.329,3.608-7.979,5.413-3.5,1.811-20.991,6.879-24.962,7.115-7,.414-8.451-1.191-5.943-3.993,3.086-3.445,7.958-7.036,14.928-10.641,3.8-1.971,4.748-2.962,1.764-3.764-6.669-1.794-.349-6.876,12.539-10.474a9.349,9.349,0,0,1,.929-.243c4.226-.686,8.967-3.921,11.759-3.191,2.327.61-.468,3.039-2.022,4.854a17.283,17.283,0,0,1-2.273,2.116c-4,3.213-2.087,3.914,6.244,1.6,6.328-1.764,5.34-.885,6.357.367C2570.594,998.915,2562.568,1002.818,2556.723,1006.641Zm-52.058-12.84c-7.01,5.71-11.784,11.279-23.47,17.211a112.406,112.406,0,0,0-11.889,7.024,94.523,94.523,0,0,1-20.809,10.248c-9.533,3.514-14.183,7.736-15.5,11.294-1.906,5.152-11.628,10.662-26.625,14.779-2.813.773-5.724,1.536-8.349,2.458-5.87,2.062-8.5,1.688-6.262-.316,5.481-4.9,9.021-9.94,22.293-14.9a24.928,24.928,0,0,1,4.012-1.387c15.428-2.381,17.6-7.51,26.166-12.059-12.248,2.8-14.942,2.123-9.975-1.91a71.076,71.076,0,0,1,10.331-6.915,26.536,26.536,0,0,1,11.588-3.754c5.05-.37,3.943,1.049,3.267,2.465-.2.4-.515.835-1.165,1.873,12.768-4.6,16.463-9.58,25.939-13.744,10.792-4.745,9.968-8.887,18.888-13.425C2505.293,992.737,2505.409,993.194,2504.665,993.8Zm-429.4,561.349c-10.237,3.452-21.959,4.61-32.491,7.206-2.468.607-3.9.421-3.18-.842,1.1-1.939-.5-3.514-1.241-5.231-1.863-4.349,5.38-7.653,12.3-11.015,6.585-2.261,12.975-4.686,21.451-5.347,3.4-.265,5.983-1.361,8.778-2.28,6.477-2.124,10.045-1.786,11.407.981C2095.526,1545.21,2089.576,1550.315,2075.261,1555.15Zm-109.62,156.458c7.845,1.038,8.76,2.472,3.22,5.358-3.063,1.6-5.518,3.191-5.8,5.38-.425,3.274-7.715,3.521-12.1,4.952-3.2,1.045-7.2,1.586-10.742,2.479-7.133,1.794-15.581.109-18.17-3.332a22.3,22.3,0,0,0-3.339-3.678c-1.384-1.176-2.164-2.552-.418-3.543,6.429-3.663,3.772-7.6,3.4-11.4-.65-6.658-1.964-13.254-2.955-19.836a10.919,10.919,0,0,1,.417-2.418c4.563,3.656,3.6,7.043,4.465,10.19a35.041,35.041,0,0,1,1.26,14.449,4.644,4.644,0,0,0,.37,2.145c.207.6.247,1.366,1.707,1.551,1.662.21,2.1-.65,3.089-1.053,4.037-1.648,7.929-3.416,12.336-4.857a28.327,28.327,0,0,1,15.207-1.108c3.332.774,6.741.164,10.19.062-.3.835-1.463,1.049-2.556,1.26-2.047.4-4.207.777-3.735,2.015C1961.859,1711.205,1963.8,1711.365,1965.641,1711.608Zm633.371-282.015c-6.5,5.228-14.22,9.737-27.753,13.727-5.649,1.666,2.922,3.165,6.356,3.122,12.281-.153,6.513,2.112,3.268,4.323-9.69,6.6-25.833,9.471-43.444,11.4-4.93.541-9.123.214-10.869-1.224-2.36-1.942-.864-4.175,3.6-6.193,4.385-1.986,9.62-3.783,15.767-6.161-25.079-.232-30-6.389-12.928-13.7,11.185-4.792,22.366-9.809,39.664-12.172,1.344-.182,2.585-.73,3.9-.872,4.978-.537,7.95-4.015,13.454-2.693C2602.984,1422.246,2604.054,1425.538,2599.012,1429.593Zm-375.585,49.125c-7.522,2.629-16.713,4.821-22.311,7.842-14.587,7.863-34.444,10.219-53.307,13.424-3.253.556-5.667,1.507-8.528,2.211-3.88.959-8.291,2.226-11.069.636-2.577-1.474,1.413-2.872,4.992-4.582,10.978-1.408,8.9-4.915,10.684-8.259,4.1-7.692,16.572-13.951,34.992-17.262,9.3-1.67,20.195-3.292,30.52-3.328,3.99-.012,5.743.424,4.048,2.185-1.514,1.568-.835,2.936.036,4.284.955,1.474,2.175,2.722,7.62,1.11,1.51-.446,3.441-.885,4.407-.3C2226.636,1477.346,2225.017,1478.163,2223.427,1478.718ZM2120.865,1692.36c-1.263.425-2.726.748-4.117,1.1-9,2.3-12.76,6.2-9.965,10.335,2.734,4.048.16,7.2-9,9.453-7.42,1.826-13.269,4.455-20.362,6.368-3.438.925-1.685,2.124-.926,3.263,2.04,3.046,3.216,5.958-6.974,6.865-3.078.273-3.768,1.216-4.218,2.44-.559,1.51-3.387,1.873-6.549,1.6-3.046-.261-5.442-.784-4.117-2.457.527-.661.77-1.453-.537-1.855-7.623-2.345-5.326-4.916.922-8.07-5.972.838-7.224,2.192-8.368,3.546-2.624,3.112-5.253,6.215-7.678,9.348-.49.628-2.207,1.99,2,1.51,5.093-.58,4.491.592,3.242,1.924-1.841,1.968-3.71,3.888-9.236,4.527-4.029.465-8.055.97-11.537-.232-3.546-1.223-1.139-2.781-.352-4.236,2.89-5.33,5.457-10.684,10.72-15.745,2.512-2.418-.864-4.669-1.463-6.963-.947-3.645,1.366-6.916,7.01-9.29,8.434-3.554,17.121-7.151,27.823-9.674a64.079,64.079,0,0,1,10.909-1.736c2.494-.163,5.707-.479,7.2-1.219,6.233-3.108,13.537-3.228,21.517-2.248a29.388,29.388,0,0,0,11.471-.508c1.453-.4,3.333-.643,4.371-.036C2124,1691.166,2122.371,1691.848,2120.865,1692.36ZM1854.74,1876.509c-.45,1.111-2.606-.239-4.4-1.132-5.674-2.821-9.99-7.82-14.971-11.65a78.248,78.248,0,0,0-22.427-11.911c-7.639-2.7-2.618,4.229-2.15,7.7.284,2.087,4.912,6.69,3.239,6.189-6.241-1.859-5.794,4.977-13.7.487-2.915-1.659-5.939-2.858-8.7-4.84-4.738-3.4-8.778-5.957-12.688-5.547-2.589.273-5.914-3.837-8.916-5.365-3.442-1.754-8.818-6.161-6.829,0,.465,1.449-.878.9-2.145-.058-2.193-1.659-4.393-1.967-6.259-3.278-14.129-9.94-26.882-10.7-40.717-20.3-10.237-7.112-19.858-18.09-20.3-23.778-.4-5.159,2.374-6.76,11.954-2.988,7.881,3.1,15.65,4.607,24.915,12.456,4.806,4.073,12.052,6.113,15.686,4.192,5.5-2.907,14.372.059,23.212,2.81a15.024,15.024,0,0,1,6.832,4.182c4.709,5.682,10.4,8.706,16.151,11.929,3.377,1.895,7.428,5.087,7.664,1.18.08-1.27,2.574-.355,4.723,1.122a10.039,10.039,0,0,1,3.514,3.532c1.481,3.155-2.643.814-3.746,1.99,3.87,3.173,7.688,5.645,10.44,6.011,6.371.846,12.5,4.382,19.3,10.107a179.1,179.1,0,0,0,16.627,12.249C1853.067,1873.122,1855.3,1875.1,1854.74,1876.509Zm-147.338-267a315.342,315.342,0,0,0-32.448-17.646c-4.548-2.146-7.772-1.13-11.4-1.235a2.451,2.451,0,0,0-.882.127c-2.5.879-8.985-.9-7.987,1.514,1.318,3.191,6.436,1.866,10.52,5.144-4.135,1.627-10.179-.929-15.777-2.737-15.559-5.032-29.009-16.318-42.8-25.343-4.923-3.224-7.333-8.139-9.432-12.234a53.745,53.745,0,0,0-3.728-5.627c3.815.447,4.24-2.367,6.927-3.1,7.522-2.066,17.509,2.291,27.223,6.1,6.179,2.421,12.285,5,18.061,5.866,1.234.185,2.428.073,2.864,1.917,1.02,4.309,3.725,3.463,5.6,3.024,1.927-.447,2.439-2.084,3.209-3.492,1.22-2.244,4.4-1.648,7.46,1.459,3.046,3.089,5.79,6.317,8.429,9.533,2.868,3.5,1.91,5.239-1.59,4.854-4.614-.508-9.6-1.645-14.542-6.371a22,22,0,0,0-2.5-2.182c-2.305-1.616-5.666-3.188-6.458-2.451-1.252,1.166,2.2,3.155,3.946,4.382,12.416,8.717,24.831,18.043,37.962,26.1,8.8,5.4,18.072,10.524,27.278,15.61,7.718,4.265,14.732,3.964,23.081,8.919C1730.465,1622.517,1719.062,1616.767,1707.4,1609.506Zm555.269-313.365c-1.975,1.089-5.511,2.356-4.019,3.26,1.7,1.031,5.315-.955,9.264-1.162-3.757,3.344-10.894,5.707-16.7,8.288-1.88.835-4.345,1.5-6.16,2.345-2.509,1.165-7.239,2.915-3.928,3.536,2.505.469,5.66,2.719,11.991-.679,2.116-1.136,5.322-2.073,7.449-3.354,1.75-1.057,4.611-2.821,7.192-2.077,2.447.7-1.787,2.113-4.048,3.075-4.353,1.852-9.17,3.558-13.3,5.449-6.818,3.115-9.054,6.477-6.767,8.6,2.251,2.084,6.048,2.153,12.329-.076,2.552-.907,5.968-2.291,7.852-1.365,1.938.955-2.472,2.015-4.476,3.046-6.655,3.427-13.338,6.85-19.386,10.353-20.4,11.813-46.507,19.55-75.651,24.283-9.341,1.518-14.013-.57-17.506-2.922-.729-.49-.595-1.441-1.746-1.583-10.077-1.245-4.033-5.115-.53-8.419a37.786,37.786,0,0,1,10.554-7.1c2.621-1.213,3.488-2.451,2.3-3.671-2.715-2.78.806-6.131,8.964-8.854,2.976-.991,6.066-1.953,9.235-2.791,4.1-1.086,7.831-1.031,7.936.475.152,2.182,3.129.995,5.943.164,12.822-3.78,24.232-8.586,37.722-12.194,4.091-1.093,6.022-3.057,8.934-4.636,14.51-7.864,29.416-15.745,44.456-23.688,2.843-1.5,6.2-2.911,9.337-4.367.461.083.926.163,1.387.243Q2276.908,1288.276,2262.671,1296.141Zm-409.114,472.125c5.489,3.514,11.047,7.078,16.644,10.24,19.557,11.051,39.7,21.7,60.132,33.813,27.293,16.184,56.433,31.318,84.96,53.666-7.86-4.6-15.756-8.829-23.416-13.773-15.145-9.78-30.156-19.055-45.022-28.019-6.157-3.713-11.955-7.1-16.772-6.008-4.026.908-22.874-10.68-27.307-16.017a23.461,23.461,0,0,0-3.021-2.915c-4.283-3.535-21.861-13.769-27.02-15.784.806,1.826,3.043,3.1,4.669,4.534,7.772,6.858,11.512,13.28,10.121,17.632-1.307,4.1-8.313,5.039-16.438.676-11.751-6.317-24.137-11.3-33.918-23-4.138-4.956-8.124-4.984-11.224-4.661-4.658.49-9.809-1.009-16.144-5.707-1.115-.831-2.853-1.863-3.2-2.541-4.535-8.956-14.845-13.3-22.483-19.484-7.5-6.063-10.644-12.125-14.528-18.144-1.641-2.541.454-3.329,2.178-3.787,2.5-.667,2.269-2.6.276-5.59-4-6-3.329-9.272,1.5-10.172a8.777,8.777,0,0,0,3.336-1.075c4.317-3.071,10.372-1.3,19.938,3.79,11.127,5.925,22.428,10.917,33.834,17.883,3.209,1.957,5.184,3.046,5.964,6.288,1.173,4.853,12.579,13.341,22.842,17.548,2.589,1.061,5.079,1.845,7.99,4.146-3.122.788-7.848-2.708-11.431-3.619.708,2.16,2.57,2.813,4.1,3.507,3.118,1.426,6.226,2.723,9.347,4.076a21.307,21.307,0,0,1,7.657,4.949c1.154,1.252.893,1.895,0,2.043-2.171.367-4.959-1.666-7.583-3.285-5.722-3.525-11.04-5.18-16.42-7.279-2.589-1.009-4.3-.74-4.157,1.1C1849.1,1765.082,1851.458,1766.926,1853.557,1768.266Zm352.677-700.546c-2.741,1.979-5.71,3.957-8.7,5.925a25.449,25.449,0,0,1-14.9,4.24l25.8-13.962C2210.133,1064.758,2208.256,1066.261,2206.234,1067.72Z"/><path class="cls-2" d="M1639.206,1654.925c.813-.774-.414-1.609-1.009-1.064C1638.7,1654.148,1638.378,1654.761,1639.206,1654.925Zm-30.36,33.482c.417-.53.545-.948-.069-1.071C1608.483,1687.815,1608.251,1688.276,1608.846,1688.407Zm-6.23-8.768c.973-.824,1.431-2.414.273-2.791C1601.52,1677.472,1601.488,1679.237,1602.616,1679.639Zm-15.08,15.847a.826.826,0,0,1-.631-.483c-.069.272-.7.766-.367.878C1586.792,1695.333,1587.3,1696.139,1587.536,1695.486Zm29.507-47.789c.853-.229,2.6.533,2.915-.175a3.414,3.414,0,0,0-2.178-1.582C1617.341,1646.6,1616.913,1647.261,1617.043,1647.7Zm-7.289,12.4a.893.893,0,0,0-1.394.428C1608.886,1660.715,1609.4,1660.809,1609.754,1660.1Zm-21.887-12.1a6.344,6.344,0,0,0-6.375.323c-.338,4.672,7.551,4.036,10.629,3C1592.735,1649.461,1589.965,1647.283,1587.867,1648Zm-65.342,90.513a2.184,2.184,0,0,0-1.978.171C1520.928,1739.361,1521.9,1739.862,1522.525,1738.515Zm-13.185,3.99c.414,1.55,1.362,2.883-.087,5.166,1.053.338,1.456,1.22,2.4.635.388-2.352-2.607-3.365-.418-6.425.45-.447.969-.541,1.409-1.046-1-.036-1.736-.621-.991-1.681.9.458,1.013,1.224,1.681,1.775,1.295-.682,2.813-.246,4.207-.442a1.412,1.412,0,0,0-.614-1.1c-.6-.1-1,.831-1.644.526-.537-.733-.915-1.924-2.28-1.416-.392-.283-.228-1.191-.864-1C1510.7,1739.064,1510.226,1740.81,1509.34,1742.505Zm-11.3,1.906c.813.294,1.492-.123,2.226-.269.072-1.013-.124-2.4-1.66-2.4A10.127,10.127,0,0,0,1498.039,1744.411Zm.98-3.315c1.855.527,1.445,1.95,2.037,2.977a2.452,2.452,0,0,0,2.2-1.114c-.824-.487-2.134-.784-1.927-1.677.882.341,1.859,2.025,3.234.8-.058-.385-.341-.679-.214-1.136-.777.181-.937-.926-.951-1.456-.163.392-.221,1.031-.762.911-.291-.127.094-.523-.381-.581-.668.639-1.395.476-1.322,1.5-.395-.86-2.073-1.216-1.663-2.392q.105-.163.207-.327c.472-.552,1.162.022,1.641-.526-.127-.519-.82-.817-1.55-1.1A8.783,8.783,0,0,0,1499.019,1741.1Zm4.11-13.588a3.16,3.16,0,0,0-.726-2.4c.065.9-1.757,1.351-.944,2.081.41.029.632-.908,1.1-.556-.508,1.075-1.2,1.18-1.775,1.92.973.16-.331.451.025.846.748-.181,1.292-1.5,1.59-2.214C1503.379,1726.782,1502.958,1727.7,1503.129,1727.508Zm-1.681-1.775c.675-.407.886-2.813-.388-2.04C1501.462,1724.263,1501.172,1725.109,1501.448,1725.733Zm-2.421,2.055c.167-.432.406-.889-.073-1.071C1498.46,1727.283,1498.617,1727.585,1499.027,1727.788Zm-1.387,1.891a11.534,11.534,0,0,1,1.23-3.412C1497.97,1727.138,1496.8,1729.1,1497.64,1729.679Zm3-6.8a2.188,2.188,0,0,0,2.407-1.441c-1.208-.682-.849-1.169-2.3-.8A20.688,20.688,0,0,0,1500.638,1722.883Zm-5.8,8.27c.682-.846.392-1.942-.1-1.913C1494.8,1729.868,1494.1,1730.794,1494.841,1731.153Zm4.273-8.524c-.138.218-.273.436-.411.65.712.385,1.333-.8,1.467-1.434a2.508,2.508,0,0,0-2.243.889C1498.384,1723.011,1498.613,1722.114,1499.114,1722.629Zm-1.354-2.882c.083.363.806.087,1.234.123.084-.319-.7-.294-.53-.646.377-.356.606-1.528,1.118-1.176.309-.363-.044-.468.37-.875-.613-.163-1,.853-1.684.3-.105.163-.207.326-.312.49C1498.5,1718.313,1498.3,1718.963,1497.76,1719.747Zm53.372-85.784c.247-.65.806-.751.719-1.136-.418-.305-.748-.189-1.126-.29-.4.955-1.081.428-1.513,1.208C1549.513,1634.439,1550.446,1633.484,1551.132,1633.963Zm3.746-9.17c-1.245.959-2.6,1.383-3.772,2.712-.885-.014-2.167.614-.911.85-.493.806-.973,1.6-.8,2.145.541.483.784-.577,1.332-.036-1.169,1.467,2.008,1.71,3.144,2.418-.185.109-.723.45-.16.551.831-.421.381-.305.516-.813a2.769,2.769,0,0,1,2.588.93c1.532-.462,3.823.268,5.2,1.238,1.046-.843,2.037-1.972,3.174-2.353.057.222-.338.621.126.683.788-.1,1.452-.835,2.378-.207.265-.476.541-.9.951-.621a2.97,2.97,0,0,0,1.449,1.26,3.889,3.889,0,0,0,.054,1.684c.229-.443.494-.675.85-.457.109.78-.737.809-1.118,1.176a19.141,19.141,0,0,0-.142,3.47c2.719.472,2.741,3.7,5.925,3.642.316.319-.164.958.363,1.2,1.938.1,4.167,1.7,5.99,1.172,1.953,1.354,4.247.566,6.8.483,2.149-.069,6.3-.051,7.387-1.333.774-.907.541-2.2.875-3.154.065-.181.392-.258.559-.585.882-1.749-.225-3.321.777-5.067-.61-.694-2.425-.912-2.367-1.87,1.572-1.964.777-3,.156-4.091-.991.9-.043.667-.385,1.5-.66-.454-3.107.3-2.425-1.481a3.225,3.225,0,0,1,2.534-.759c-.726-1.172-2.138-1.375-3.082-2.81a10.561,10.561,0,0,0-3.285,1.057c.265-.472-.567-.508-.069-1.071,1.165.5,2.116-.149,3.078-.73-1.013-.943-.973-2.3-1.586-3.4-.614.3-1.376-.178-1.892.628,1.14-.12-.083,2.163-.816,2.759-.879-3.641-3.351-3.605-7.025-3.079-1.964.283-4.142.389-5.641.643-1.638.28-3.206-.134-4.415.77.723.163.882.544.864,1a37.423,37.423,0,0,0-10.676-1.148c-.364.389-.915,1.652-1.765,1.3.352-.788,1.478-.792,1.071-1.4-.759.574-2.447.81-3.677,1.093.156.1.432.153.334.356A7.536,7.536,0,0,1,1554.878,1624.793Zm-5.663,3.34c-.5.414-1.154.051-1.6.755C1547.778,1629.585,1549.255,1628.416,1549.215,1628.133Zm-66.009,98.954c.163-.552.639-1.227.236-1.557C1482.948,1726.212,1482.963,1726.7,1483.206,1727.087Zm-1.176-.512c1.052-1.517,1.06-3.263.25-3.637a2.766,2.766,0,0,1,.025.842c-.148-.062-.293-.127-.439-.192-.414,1.55-.323,2.9-.762,4.45,1.2-1.651.134-2.41.995-3.931C1482.723,1724.826,1482,1725.9,1482.03,1726.575Zm69.418-109.943a7.44,7.44,0,0,0-4.763,4.567,1.326,1.326,0,0,1,1.394-.428c-.134.214.163.261.087.45-.748.908-.639,1.474-.3,1.953.232-.414.475-.8.809-.686-.276.436-.551.868-.824,1.3-.011.556.476.243.523.643a2.7,2.7,0,0,1-1.819,1.7c.069.443.639.385,1.024.45-.272.432-.69.922-.327,1.1.759-.534.8-1.322,1.34-2.117a1.006,1.006,0,0,1,.835.16c.4-.719.824-1.318,1.408-1.046-.657,1.075-1.383,2.171-1.314,2.963.94-.469,1.049-2.164,1.8-2.541.243.225.159.584.671.707.225-.53.153-1.343.882-1.691-.312-.411-.283-1.024-1.11-.9.374-1.082-.451-1.692-.124-2.759.508-.04.672-.135.806-.683-.254-.159-.439.04-.686-.094.2-.893.145-1.684.316-2.567a.57.57,0,0,1,.334.356c.283-.824,1.426-1.525.987-1.855-.145.182-.268.472-.454.425.28-.966,1.514-1.895.959-2.7A13.271,13.271,0,0,0,1551.448,1616.632Zm-5.271,3.3c-.389.577-1.518.922-1.427,1.659C1545.178,1621.243,1546.267,1620.7,1546.177,1619.936Zm-67.317,94.224c-.41-.276-.686.141-.954.621C1478.319,1715.056,1478.6,1714.639,1478.86,1714.16Zm-5.133,1.906a4.683,4.683,0,0,0,4.052-1.968c-.512-.381-.973-.131-1.511-.868a.626.626,0,0,1-.6.36c-.273.523.127,1.408-.737,1.757a1.291,1.291,0,0,1,.592-1.822C1474.457,1712.9,1474.152,1715.4,1473.727,1716.066Zm-6.066-9.319c-.534-.3-.116-1.489-1.114-.9C1466.688,1706.213,1466.793,1707.419,1467.661,1706.747Zm-7.478.882c-1.064,2.77-3.224,3.587-4.8,5.8.33.316.526-.062.835.156-.4.6-.552.432-.367.879,1.765.352,3.006-2.055,4.607-2.552,1.14-2,2.7-1.761,3.9-3.493.239.084.493.244.642-.13.436-.625.222-.984.389-1.5-1.06-.171-2.015.214-3.064.109-.28-.661-.549-1.329-.788-2.008-.853,1.391-2.494,2.367-2.955,3.489A1.708,1.708,0,0,1,1460.183,1707.629Zm-7.061,3.768c.327.236,1.122-.6.911-.849C1453.721,1710.969,1453.027,1710.9,1453.122,1711.4Zm7.264-13.247c.81-.421,1.971-1.241,1.089-2.018C1461,1696.557,1460.085,1697.689,1460.386,1698.15Zm-3.017,3.877a.688.688,0,0,1-.479-.417c-.163.32-.392.287-.559.584C1456.73,1702.412,1457.115,1702.565,1457.369,1702.027Zm-6.1,6.684a1.39,1.39,0,0,1,1.481.025c.443-.279,1.4-1.517,1.558-.98-.828.831-1.761,1.1-2.487,2.447,2.835.817,4.1-2.414,3.972-4.5.453,1.02,1.394-.969,1.684-.3-.414.642-.918.8-1.365,1.27.232.193.145.512.523.65.534-.2.316-.537.37-.882,1.587.12,3.166-2.313,3.663-4.008-.581.25-.98,1.431-1.706.915-.374-.621,1.3-2.055.962-2.7-.483.972-1.1,1.245-1.59,2.214a9.851,9.851,0,0,0-2.854-.21,6.713,6.713,0,0,0-1.444,2.276c-.171-.153-.124-.305-.44-.193C1453.409,1706.3,1451.078,1707.582,1451.27,1708.711Zm-5.7,8.11c1.184-.835,2.266-2.185,3.569-2.385-.305.308-1.271.766-1.114,1.172,1.107-.061,2.639-1.615,3.082-2.806-.476.57-1.6,1.434-1.805,1.078a22.966,22.966,0,0,0,3.337-2.9c-.49-.207-.9-.043-1.423-.414C1449.59,1712.94,1445.894,1714.439,1445.574,1716.821Zm-4.069,4.661c-.145.178-.345.073-.545-.029l-.617.977C1440.764,1722.724,1441.646,1721.831,1441.505,1721.482Zm-1.314,2.959c2.345-1.761,4.777-3.075,7.093-5-.13-.236-.054-.548.222-.944.352.588.392-.138.98.221,1.833-1.64,4.3-3.7,5.5-6.32-2.585.962-4.487,5.558-7.431,4.643.279-.352.352-.624.123-.78-.828,1.053-1.8,1.339-2.675,2.156-.066,1.572-2.317,4.8-3.968,4.5C1440.884,1723.108,1440.274,1723.878,1440.191,1724.441Zm-6.876,6.135c-.214.127-1.046.5-.766.911C1432.745,1731.251,1433.6,1730.975,1433.315,1730.576Zm1.841-2.313c-.106.164-.207.327-.313.491.792.207,1.932-.868,2.117-1.572-.712-.222-1.772.715-2.167-.116-1.017,1.252-2.807,2.156-3.351,3.517A15.9,15.9,0,0,1,1435.156,1728.263Zm27.975-45.962c.214-.581-.367-.763.428-1.271-.091-.083-.287-.131-.189-.29a3.668,3.668,0,0,0-1.437.2c.1.584.3.857,1.11.9C1462.934,1682.05,1462.844,1682.25,1463.131,1682.3Zm-4.208.439c.65.152.316.689.966.842,1.107-1.525.363-2.3.726-3.216C1459.362,1680.816,1459.348,1681.578,1458.923,1682.74Zm1.547-2.44c.613.174.907-1.332,1.47-1.434.159.258,0,.647-.327,1.1.385.17.875.305.922.613a19.175,19.175,0,0,1,1.046-2.247c-.868-.185-.716-.773-.9-1.227-.541-.254-.886.509-1.481-.025A2.812,2.812,0,0,0,1460.47,1680.3Zm25-45.4c.29-.363.62-.508.871-1.074-1.06.225-1.659-.868-2.756-.374C1484.578,1633.789,1484.32,1634.621,1485.468,1634.9Zm-28.385,41c.66-.058.435.324.921.614.24-.614.614-.53.864-1.075a3.212,3.212,0,0,0-1.357-.806C1456.894,1674.891,1457.155,1675.494,1457.083,1675.9Zm29.082-42.982a1.127,1.127,0,0,0-.019.617c.948.3,2.6-2.156,1.089-2.018-.431.849-2.581,1.089-3.43.991A2.67,2.67,0,0,0,1486.165,1632.918Zm-3.9-.047c-.342.083-.639.395-1.042.17-1.314-2.065-2.266-1.492-3.079.73.708.475,1.438.181,1.507.868-.294.337-.788-.378-1.042.167,1.263,1.212,3.884,1.2,5.166,2.472.544-.654.737-1.049,1.074-1.4A12.592,12.592,0,0,0,1482.266,1632.871Zm27.176-23.434c.091-.562-.585-.679-1.024-.45.425,1.971-.733,5.137,2.164,5.736a1.684,1.684,0,0,0-.225-2.6c.294-.751.965-1.376,1.546-2.443.323,1.213,1.779.08,2.255.574a2.746,2.746,0,0,1-1.118,1.172c.112.657.493-.406.94,0-.135.374.083.711-.371.878,3.253,1.035,3.01,3.449,5.1,4.941.817-.236,1.982-2.193.751-2.374.962-1.336.7-3,2.226-3.809.406.534.555,1.166,1.492,1.485-1.692,3.068,2.639,7.508,4.872,2.349-1.783-.773.355-3.939,1.815-5.235.631.116.573.5,1.071.675.439-.032.762-.686,1.2-.718.748.512.265,1.321,1.594,1.321-1.434,2.277.069,3.391-.835,5.457,1.376,1.176,2.588-2.836,4.124-2.97.559.062.3.446.276.741,2.835-1.685,3.376-5.613,4.61-8.169a.8.8,0,0,0-.17-.907c.181-.222.472.134.646-.134.839-.85.617-2.727,1.387-3.965.268-.432.9-.722,1.47-1.434,2.538-3.187,2.225-8.549,5.435-9.475,3.169-.911-1.856,7.413-1.42,8.738-1.463,2.248-1.619,5.707-3.046,8.651-1.673,3.467-4.008,6.7-1.045,7.86-.4.526-.185.8-.178,1.169,4.364-.316,8.008-4.4,11.541-9.08.664.2,1.183-.374,1.92.218-1.067,3.391-2.991,7.123-2.037,9.715.483-.378.708-1.183,1.6-.755-.388.537-.867.621-1.223,1.336-.588,3.209,5.177,4.962,7.671,2.948,1.63.715,4.85,1.012,6.472,1.593.233.037.378-.355.56-.588.221.806,3.056.073,5.187-.222a41.281,41.281,0,0,1,6.037-.674c4.585-1.514,8.982-4.012,13.483-5.943-2.646,2.04-6.64,3.162-9.714,5.307,1.895.581,6.124-.029,7.453,1.812-1.267,2.49,4.984,5.492,5.263,7.924.382.1.716-.014,1.129.287a2.487,2.487,0,0,0,.331,2.433c2.879.25,5.129-1.227,7.9-.069,2.952.247,5.925.6,8.9.994-5.2.625-10.959-1.688-15.987-.149-.08,3.086-2.425,7.061-2.24,10.038-1.024,1.3-.755,2.091-.272,2.8-.255.588-1.144,1.43-.992,1.855a11.621,11.621,0,0,1-4.625-.367c-.1,1.434,1.943,1.764,2.146,2.813,2.374-.446,4.77-.758,6.963-2.145,2.937.842,4.872-3.529,7.645-3.507,2.189-1.884,4.585-2.469,7.21-3.7,1.978-.936,3.808-1.481,5.692-2.5a33.042,33.042,0,0,1,9.105-2.868c1.409-2,3.213-1.906,4.9-2.422.56.843,1.667.312,2.418.018-.018,1.046,1.819.527,2.088,1.126-.142.178-.149.3-.058.388-.668.6-1.485.483-1.761,1.307-3.576.483-7.3.142-10.789,1.093a1.581,1.581,0,0,0-.661.748c-1.942-.574-4.189,1.535-6.237,2.468-3.38,1.532-7.787,2.589-10.549,5.144.145.737-.65.646-1.133,1.79-.385-.338-.214-.272-.69-.094a2.939,2.939,0,0,0,2.915-.175c3.645,2.164,4.451-2.337,7.166-3.931a1.4,1.4,0,0,0,2.168.12c.3.25-.087.766.566.874-.889.483-.421.8-1.133,1.79-.25-.457-1.492-1.078-1.96-.443-.349.421.45.393.276.745,1.79-.531,2.432.308,3.863,1.277-.512.734.152,1-.091,1.623,1,.232,2.388-.882,3.147.345-.1.163-.2.323-.308.486-1,.828-2.418-.508-3.242,1.282.6.842,1.18-.254,1.935-.4,1.989,1.4,4.432-.577,6.364-1.783.232-.254.083-.355-.084-.454,1.463-.363,1.88.6,3.046.5.664-.624-.225-.642.178-1.168,1.187.587,2.323.943,3.252.181a7.5,7.5,0,0,0,2.839.831c1.536,3.34.628,7.642-1.016,12.238.25.138.435-.062.69.094-.516.461-.08,1.532-.824,1.3.33.185.355,1.55-.534,1.43a2.919,2.919,0,0,1,.011,1.463c-1.822,2.305-.94,4.89-3.656,7.547-.087.28.316-.036.189.287-.309.788-.929.646-1.615,1.372a43.68,43.68,0,0,0-4,5.733c-.461-.324-.748.29-1.056.784-2.883.177-4.654,3.459-8.194,5.558-2.065,1.23-5.373,2-6.458,3.4-1.761,2.287-.2,5.01.9,6.847-.4.45-.951.163-1.39.428-.959-1.249-.026-3.246-1.866-4.146-.487,1.536.671,3.478.849,5.155a4.885,4.885,0,0,0,2.142-.722,1.214,1.214,0,0,0,.57.871c-1.441,1.779-1.38,3.71-2.4,4.981-1.3,1.615-3.279,1.045-4.988,1.967a3.7,3.7,0,0,0-.036-2.3c-.756-.2-1.366.344-2.128.109-.414-1.75,1.438-4.393.356-5.878.613-2.374,4.777-5.994,2.966-7.641-1.311.457-1.953,2.987-3.366,4.138-.983-1.928,1.355-5.173-.86-6.618,1.612-2.472-1.441-4.759-3.928-4.425-.065,1.012-1.8,2.261-1.459,2.893-3.91-2.327-7.214,4.262-10.252,8.814-.381.124-.842-.192-1.191.106-.149.5.643-.352.588.257a8.78,8.78,0,0,1-2.846,1.245c.468-3.546,6.339-4.915,4.8-7.877-.41-.276-.689.141-.954.621-.36-.182.054-.672.326-1.1-.414.182-.744.78-1.118,1.172.138-1.557,1.935-3.778,2.316-5.43a4.718,4.718,0,0,0,3.794.206c.4-2.748,4.258-3.524,5.467-5.089a3.444,3.444,0,0,0-1.143-5.286c.515-.4.962-1.089.533-1.43,2.643-1.507,3.3-5.914,4.977-9.047a18.462,18.462,0,0,0,1.031-1.63c.8-2.178-.526-4.287.752-5.906,1.485,1.067,2.959-.842,3.173-2.352.766-.269.4.649.711.936.694-2.1-2.813-2.57-4.109-1.18-2.9-.78-6.785-.955-9.689.534-2.716-.98-5.925,1.194-8.826,1.536-.058.145.044.225-.058.388.556.555,2.131.4,3.13.958-.97,3.641-5.453,3.972-7.86,2.375,2.389-2.219-3.191-4.234-4.287-2.084-.273-.1-.185-.338-.483-.425a41.175,41.175,0,0,0-9.254,2.806,4.114,4.114,0,0,0,.9,3.307c.751,3.932,3.55,7.054,4.243,11.015.247.105.49.214.734.319-.135,1.517.094,2.893-.469,4.578,1.507.345.665,1.612.371,2.661.475.367.827.105,1.278.352-.61,1.067-1.442,1.321-1.692,2.374.958-.5,1.419.672,2.269-.043,1.18.472,1.376,1.328.624,2.563,1.438,1.67,1.721,3.793,2.563,5.7a5.608,5.608,0,0,1-1.528,1.826c.613-.287,1.18-.849,1.8-1.078.581.457-.439,1.5-.947,2.08.9,2.193,1.1,3.968,2.21,5.961-.25.566-.577.711-.867,1.075.838,1.161.2,3.775.893,5.383-1.866,2.491-2.665,5.2-5.148,6.063-1.565-.6-2.919.261-4.334-.24-2.868-1.013-3.834-4.614-6.753-5.874-.475,1.529-.505,4.644-3.1,6.96-.693.621-1.645.983-2.509,1.6a45.493,45.493,0,0,0-8.524,8.738,13.975,13.975,0,0,0,4.223-1.056c.929.283,1.169.839,1.593,1.318a32.236,32.236,0,0,0-2.621,3.848,6.556,6.556,0,0,0,4.153-2.131c.345.152.61-.1.98.221a16.324,16.324,0,0,1-3.772,2.712c.549.265,2.008-.715,2.89-1.02.715.472,1.314.32,2.008.672a7.074,7.074,0,0,0-.051,1.851c-3.54,5.75-10.466,10.049-11.432,15.992-.889.606-.994,1.513-1.691,2.377-1.511,1.866-3.573,2.48-3.986,5.112-.374,2.37-.066,6.8.911,8.306-.411.41-.058.512-.367.878.559.265.991.585.759,1.166.493-.614,1.332-.719,2.116-1.569a4.708,4.708,0,0,0,4.509,1.147,1.8,1.8,0,0,0,.552,1.492c-1.387,2.585-3.061,3.653-4.5,5.925a.874.874,0,0,1-.687-.091c-.969,2.988-3,6.582-6.244,4.542.487-2.429-.116-4.426,1.18-7.181-.374-.319-.533.483-.936.007.689-1.161.806-.392,1.336-.04-.175-1.114-.923-.831-1.594-1.321a4.808,4.808,0,0,1,.78-1.532c.817.251.291,1.024.3,1.59.291.123.465-.363.788-.069.029-.294-.319-.443-.526-.646a2.28,2.28,0,0,0,.828-1.3,1.113,1.113,0,0,0,1.023.45c-.7-.084.469-1.027.472-1.042.1-1.372-1.565-2.225-1.027-3.99-.2-.083-.389-.167-.585-.254,1.006-2.105-.018-3.408.087-5.158-2.327.983-4.276,1.568-6.374.323-.981-.581-1.463-2.171-3.119-1.576-.145.5.6-.029.879.385-2.476,1.554-5.395.762-8.078,1.238a6.288,6.288,0,0,1,4.164-.668c.545-.421.984-1.4,1.528-1.826a1.855,1.855,0,0,1,1.714.545,4.368,4.368,0,0,0-.4-3.5,1.092,1.092,0,0,0-.89-1.844c-.559-.065.138-.628-.275-.748-.411-.279-.647.352-1.082-.058-.73.733.388.741-.142,1.394-.762.545-1.176.022-1.565-.475.389-.313.839-.305,1.162-.948-1.009-2.3-5.1-1.55-6.462-3.67-.661.269-.94,1.423-1.238,1.953.519.385.832-.305,1.376.189-.174.272-.345.541-.515.813-.628.25-.458-.439-.922-.614a20.08,20.08,0,0,0-1.05,2.248c1.115.014.912.3,1.158,1.129a6.066,6.066,0,0,0,3.609-2.161c.8.229-.73,1.424.425.81-.218.759-1.663,1.115-2.367,1.666,1.031.338,2.6-.424,4.207-.439-.726,1.815-3.1,1.078-4.49,1.772-.505-.124-.109-.607-.421-.81-1.151.229-1.525.752-2.745,1.086-.733,1.023-1.009,1.865-.606,2.439.592.53.94-.228,1.477.026-.624.933-1.568.207-2.243.885-.2.7.744.327.613,1.1-.359.686-.773,1.111-1.307.883-.791-.055.614-.974.182-1.169-.519-.051-.247.562-.519.813-2.066.4-3.827,2.428-6.026,2.138.359-.69.8-.958,1.35-.654-2.1-2.058-6.513-3.2-5.9-6.334-.82.817.007,2.029-1.223,3.416-.443-.708-1.238.37-1.979.17-.581-2.617-3.02-4.5-4.759-6.661-1.173.112-2.367.82-3.456.145-1.238-.762-1.539-2.643-.323-4.509.5-.755.1.272.584.254,2.3-2.563,1.1-4.483,1.953-6.629a6.438,6.438,0,0,0-2.37,3.743c-2.879-.323-.977,3.1-3.387,4.759-.345-.068-.312-.283-.479-.421-.418.483-.044.625-.516.813a.38.38,0,0,1-.236-.519c-.229-.036-.377.356-.555.588-1.823-.889-3.511-1.052-5.286-1.695-2.389,1.307-5.042,1.231-7.25,3.478-.7-.352-1.775-.192-1.8-1,2.066-2.52,4.745-1.841,7.087-2.923.141-.479-.839.029-.777-.551a12.531,12.531,0,0,1,2.559-3.449c-.134,3.456,6.23,2.817,8.4-.269.9-1.289.951-2.93,2.636-4.461.824.272,1.873-.207,2.4.638.8-1.662-.1-2.646.156-4.091-.36-.025-.577.719-.955.621.149-.879-.374-1.877.189-3.246-1.017.85-.171,2.425-1.391,3.968-.257.516-.689.127-1.041.167a1.6,1.6,0,0,0-.324,1.1c-1.034.043-.751-2.439-.693-3.63-.893,1.005.131,2.305-.893,3.768-.621-2.254.915-5.812-1.089-7.133.269-.556,1.082-1.326.635-1.594a1.7,1.7,0,0,0-1.575,1.6c-.777-.472-.516.889-1.391.428,1.9-1.6.628-3.114,1.845-4.389.834.1-.055,1.329.243,1.979.483.181.878-.087,1.2-.723-.533-.8-.05-2.741.265-4.251-1.056-.127-1.074,1.463-1.593,2.215-.868-.08-1.3-.832-1.282-1.812-.631,2.12.182,3.671-1.249,6.107-.468-.338-.784.105-1.23-.124,1.717-2.549-1.83-3.017-1.5-5.024-.425-.182-.926.769-.864,1.078.857.083,1.064,1.216.93,2.073a5.289,5.289,0,0,1,1.245-.494c-.363.646-.868,2.461.123,2.759-1.024,1.87.327,2.8-.468,4.578-.708-.94.007-2.443-1.147-3.209-1.808.893-.552,2.537-2.033,4.1-.269-.007-.636-.523-.835-.16a2.86,2.86,0,0,0-.581-2.334c-.741.236-.861,1-1.278,1.728a.813.813,0,0,0-.791.065c-.57-.994,1.045-1.63,1.739-2.149a7.978,7.978,0,0,0-.07-3.147c-.163.512.051.875-.384,1.5-.708.4-1.67-.228-1.01-1.067-.359-.247-.519.548-.849.458a25.08,25.08,0,0,1,.98-8.931c-.661-.4-1,.868-1.474,1.438-.591-.741.41-2.113.233-3.017-.294-.131-.589-.258-.879-.388-.476.072-.744,1.237-1.263,1.107-.545-.636.377-1.855.915-2.923-1.463-.82-2.346.806-3.326.828-.606.809.113,1.093-.693,1.982-.243-.515-.857-.882-.7-1.553-3.049,1.212-3.009,6.323-4.04,9.039-1.169-.069.076-2.142.33-3.18-.817.366-.29,1.764-1.194,2.181.679-2.384.551-4.073,1.851-6.469-.65-.359-1.024.723-1.684.3a4.177,4.177,0,0,1,1.818-1.7c1.162-1.605,1.162-2.7,2.168-3.417.029-.3-.323-.442-.527-.645a5.613,5.613,0,0,0-1.924,1.858c-.657-.414-.824-2.019-1.354-2.882.174-.491.5-.2.7-.523a6.063,6.063,0,0,0-.658-1.325c-.515-.055-.243.559-.515.809-1.336-.319-.784-1.485-1.267-2.428-.755,2.966-6.651,6.469-6.139,9.994.356-.886,1.587-.574,1.779-1.921.494.487.788-.083,1.144-.33-.61,1.369-1.732,3.522-2.723,4,.588.254-1.906,3.173-3.119,4.041-.167-.138.138-.461.265-.715a5.793,5.793,0,0,0-1.528,1.822c-.152.407.352-.094.334.36a4.52,4.52,0,0,1-.969,1.234c-.2-.283.08-.763.428-1.267a11.619,11.619,0,0,0-1.263,1.111c1.067-2.146,3.332-4.092,4.857-6.19-2.367,1.43-4.472,4.229-6.6,6.879-.509-.628.206-.882-.962-.838,1.5-3.431,5.1-4.059,6.57-7.725-1-1.783-2.272,1.11-3.724.86,1.383-.959,3.713-2.552,3.764-4.171,2.908-1.688,4.564-3.823,7.272-6.168.17-.352-.185-.5-.276-.748-1.892.886-3.917,1.031-5.478,3.63-.36-.061-.131-.352.018-.617a5.748,5.748,0,0,0-2.32,1.895c.243.8.893,1.438.225,2.6-.29-.105-.443.494-.748.3-.726-.2-.061-.954-.508-1.267-1.227-.33-2.051,1.449-3.285,1.057.377-1.067,1.027-.69,1.51-1.209-1.637-.388-3.823,2.443-5.968,1.75-.828,1.3-1.946,1.031-2.687,2.77a1.015,1.015,0,0,0-.838-.156c-5.395,4.516-10.633,9.874-16.159,13.711-.461-.446.716-.995.991-1.855-1.292.276-2.7,1.95-4.127,2.97a24.612,24.612,0,0,0-4.189,3.365,22.647,22.647,0,0,1,4.69-5.638c.363.062.134.356-.015.617.9-1.873,2.567-2.6,3.823-4.563-1.485-.055-2.541,2.153-3.877,2.875-.138-.065.014-.247.062-.388-1.039.78-2.992,2.229-3.1,3.423a8.577,8.577,0,0,1-3.009,1.8c-.439.752-.86,1.6-1.557.984.932-1.452,2.508-1.957,3.641-3.394.417-.527.642-1.253,1.136-1.79,1.343-1.467,3.677-2.723,5.347-4.313a40.913,40.913,0,0,1,3.246-3.354.844.844,0,0,0-.233-.519,50.741,50.741,0,0,0,6.775-5.976c.2-.581.62-.018.893-.229.341-.747.468-1.64,1.194-2.181-3.137-.516-5.242,4.392-8.132,5.169-3.26,3.54-6.908,5.032-10.11,8.876-.937-.225-1.656.683-2.36,1.667a9.452,9.452,0,0,0-4.48,3.234c-.729-.305-1.172.9-1.891.628,2.272-2.142,4.748-3.216,6.916-5.91,3.928-3.024,8.407-5.888,11.5-9.3.269-.472.672-.229,1-.4.911-2.189,3.267-2.429,4.617-4.632,3.932-1.412,7.112-6.753,11.069-8.038,1.848-2.494,3.935-3.735,5.794-6.193.3.341.134,1.216.831.156.367.182-.192.73.175.908.577-.258,1.06-1.017,1.615-1.369-.091-1.641-1.564-3.361-.555-5.032-.534-.21-.883.531-1.351.658-.679-1.155.283-2.959-.385-4.121.294-.573.7-.584,1.057-.784a5.511,5.511,0,0,1,.552-2.047c-.487-.422-.766-.48-1.336.04-.367.489.686-.229.337.355-.762,1.118-.653-.613-1.187.106-.3-.454.581-1.373-.3-1.591.276-.185.544-.421.893-.232.247-.341-.472-.3-.628-.482.711-1.014.058-1.489.606-2.44-.294-.127-.584-.254-.878-.385-.4.167-.545,1.267-.737,1.757-.919-.45-.331-1.5-.432-2.269-1.075.712-2.654,1.71-3.191,2.97a12.748,12.748,0,0,0-3.925,4.723c-1.4.613-2.682,1.88-4.109,2.356,1.06-2.414,3.656-2.861,5.086-5.671.145.065.294.127.439.193,1.859-1.747,3.71-3.522,5.525-5.478a9.409,9.409,0,0,1,.225-6.56c-.45,0-.66,1.223-1.2.722a2.1,2.1,0,0,1,.766-.915c.029-.515-.722.084-.878-.384-.069-1.031,1.4-2.669.435-3.344a4.929,4.929,0,0,1,1.409-1.049c-1.1-1.093-2.461-.367-3.681,1.093-.385-1.013-.167-2.215-1.725-2,.7-.763-.228-.89.24-1.561a2.213,2.213,0,0,0-1.013,1.012c-.635-.2-.011-.893-.363-1.2-.831.715-1.281-.741-2.167-.124-.341-.5-.708-1.271-1.695-1.158-.393.78-.9.9-1.282,1.728-.864-.109-.305-.777-.864-1a2.925,2.925,0,0,0-2.577.53c-4-1.289-6.778,3.848-10.3,5.05a12.453,12.453,0,0,1,4.229-3.137c1.053-1.289,1.95-3.365,3.293-3.133a3.631,3.631,0,0,1,.577-1.2c.65.069-.062.679.171.911.58.465.9-.443,1.481.026-.047-.269.2-.65.472-1.042.41.279.646-.356,1.081.058a3.977,3.977,0,0,1,1.576-1.6c.559.061.036.555.272.747.814-.49.81-1.7,1.652-2.606.526.069.087,1.368.73.319.359.185.417.487.174.911.9.058,2.919-2.526,1.459-2.9.6-.686.342-1.03.636-1.593-.668-1.63-4-.777-4.139-2.026.82-1.3,2.127-.087,3.079-.73-.211.247-.04.342-.164.552.229.04.378-.352.556-.584.827.159.163.911.512,1.263.991.051,1.731-1.231,2.657-1.539a.908.908,0,0,1,.163-.552c-.682-.283-1.259-.022-1.964-.447.164-.3.4-.261.559-.584-.41-.283-.58.7-.954.621-.574-.142-.665-.469-.57-.875.58-.468,1.339,0,1.847-.853.03.439,1.086.468,1.115.9.748-.033,1.347-.577,1.83-.236.475-.741-.509-.232-.774-.548.538-.538.026-.658.077-1.006a3.158,3.158,0,0,1,1.365-1.274,4.974,4.974,0,0,0,1.568.479,3.533,3.533,0,0,1,.243,1.978c2.309,1.34,3.961-.784,5.95-1.132.149-.3-.018-.479-.377-.581-.356-.218-.6.174-.85.458-3.87.141-3.663-3.2-.138-4.219.944.871,2.48-.349,3.8.207a2.035,2.035,0,0,0,.763-.911,5.1,5.1,0,0,0,1.568.482c.516-.449-.4-.334.12-.78,2.156,1.608,4.56-1.328,6.8-1.594.127-1.43-.791-2.45-2.73-3.067,1.391-1.964,1.979.65,3.384.857-.175.559.668.715.011,1.463,1.042.813,1.782-.178,2.505.475,1.158-2.465-2.7-3.554-4.473-4.458,1.325-.555,2.752-.584,4.033-1.35.251-.425-.377-.5-.421-.81a19.682,19.682,0,0,1,4.73.2c1.355.382,2.357,1.209,3.638-1.314-1.917-1.161-4.68-1.688-6.48-3.053a.8.8,0,0,0-1,.4c.239-1.438-3.714-1.22-3.083-2.81,1.013.385,1.874-.022,2.814-.014.461-.509-.16-.879-.483-.422-.308-.319.621-.453.367-.875-.73-.322-1.278.324-1.975.171.73-1.067,2.389-.606,3.663-.472a34.593,34.593,0,0,0,4.088.338c-.418-1.91-2.487-3.166-2.229-5.344,1.179,1.648,1.669,3.569,2.875,5.21.715.014,1.445.094,1.953-1.017.766-.421,1.655-.207,2.432-.6a2.913,2.913,0,0,0,1.96.446c.6.008-.221.577.382.581a2.488,2.488,0,0,0,1.114-1.173c-.16-.86-.86-1.782.523-2.889-.356-1.917-2.919-2.033-4.752-3.126,1.55-1.249,3.7.675,5.507.751.653-.9-.178-1.48.8-2.145a4.382,4.382,0,0,1,1.492,1.485c2.505-.3,3.078-4.222,4.563-6.317a2.11,2.11,0,0,1,1.344,1.42c-.385.348-1.086,1.136-1.031,1.626a4.281,4.281,0,0,1,1.521.254c1.045-2.672,3.325-5.082,1.06-6.4-.614.976.148,1.408-.36,2.338-.526-1.376-.461-2.991-1.216-4.277a12.631,12.631,0,0,1-1.318,5.039c-.428-1.8.741-3.8.792-5.685a8.1,8.1,0,0,0-1.961-6.059c.222-2.777-1.528-4.766-1.179-7.591-1.01-.17-.491-.944-1.3-1.194.828-3.42-.04-6.168-1.144-8.822.922-1.586-.541-2.228-.152-3.6-.425-.355-.81.033-.879-.385.512-.813.262-1.325.3-1.953.28-.475.755-1.027.679-1.365a15.674,15.674,0,0,1-.831-5.772c.58.3-.2,1.137.9,1.231-.995,1.975.809,2.85.221,4.672,1.056.3.73,1.06,1.753.769a1.351,1.351,0,0,0-.573,1.2c1.143,3.707,1,8.542,2.5,11.7-.341.461.015.647-.327,1.108a10.647,10.647,0,0,0,1.137,1.746c-.135.217-.273.435-.411.649.505,2.375.846,5.431,2.777,6.836a4.1,4.1,0,0,0,.77,2.625c-.051-2.218-.842-5.2-.828-7.849a3.2,3.2,0,0,1,1.268-1.111,5.724,5.724,0,0,1,2.348,2.491c.32.261.57.163.748-.3,1.645,2.443,1.162,5.725,3.394,7.936.091-.084,1.256-1.634.589-1.819,1.321-1.263,2.864-2.788,3.949-1.808.861.788-.73,3.877-1.129,5.329-.4-.087-.131-.435-.631-.482a4.128,4.128,0,0,1-.679,1.365A.825.825,0,1,1,1509.442,1609.437Z"/></svg>