<svg id="splash1" xmlns="http://www.w3.org/2000/svg" viewBox="0 0 2916.555 2444.698"><defs><style>.cls-1{fill:#f7931e;}</style></defs><path class="cls-1" d="M1840.752,1051.736c1.325,1.2,2.643-.112,3.747-.842a2.222,2.222,0,0,0,.8-2.89,2.374,2.374,0,0,0-2.966-1.626c-1.964.58-2.247-.832-2.977-2.044-2.494-4.153-6.353-4.661-9.5-1.085a83.062,83.062,0,0,0-5.365,7.525c-1.7,2.439.675,3.982,1.339,5.888.581,1.667,1.888,1.881,3.427,1.5a10.8,10.8,0,0,0,6.059-4.708C1836.483,1051.761,1837.815,1049.072,1840.752,1051.736Z"/><path class="cls-1" d="M1761.046,803.585c.588,5.67,4.759,8.687,8.978,11.214.991.592,6.418,1.913,5.54-1.674-.9-3.692.21-6.6.431-9.856.233-3.423-1.517-5.612-4.472-6.97-2.3-1.056-4.335-3.089-7.264-.922C1761.315,797.559,1760.962,800.452,1761.046,803.585Z"/><path class="cls-1" d="M1819.7,1154.473a11.144,11.144,0,0,0-1.834.141c-2.955.621-5.877,2.3-6.894,4.716-1.227,2.915.291,5.9,3.232,7.994,3.183,2.269,6.846,3.107,10.433,3.754,4.418.8,8.353-3.761,7.7-8.208C1831.321,1155.929,1827.709,1153.413,1819.7,1154.473Z"/><path class="cls-1" d="M1803.306,849.014c1.768,1.5,3.95,2.679,6.444,1.743,2.3-.861,3.085-2.941,3.532-5.134.991-4.853-1.223-8.258-5.344-10.3-2.773-1.372-3.826-2.759-3.194-6.059s-1.009-6.033-4.553-7.344c-.791,1.92.686,2.628,1.009,3.739.734,2.538,1.532,5-.174,7.584C1797.429,838.686,1798.285,844.763,1803.306,849.014Z"/><path class="cls-1" d="M1797.955,1413.547a2.678,2.678,0,0,0,2.941,1.482,5.485,5.485,0,0,0,.773-1.275c1.089-3.488-5.921-14.862-9.424-15.4a2.434,2.434,0,0,0-2.454.929,1.8,1.8,0,0,0,.025,2.531C1793.105,1405.332,1795.276,1409.612,1797.955,1413.547Z"/><path class="cls-1" d="M1891.663,863.354c-.61-2.618-2.163-4.248-4.911-3.979-2.876.283-4.379,2.291-4.669,5.028-.207,1.931.933,3.6,1.9,5.148a3.673,3.673,0,0,1,.733,3.354c-2,7.275,2.331,12.158,10.005,10.934,2.062-.054,5.413.378,5.024-3.249-.4-3.721-.791-8.712-4.2-10.273C1891.8,868.6,1892.28,866,1891.663,863.354Z"/><path class="cls-1" d="M1862.294,885.622a8.835,8.835,0,0,0,8.2,4.389c3.343-.091,4.545-2.843,5.877-5.3,1.271-2.344.559-4.864.6-7.946-.661-2.893-2.244-6.171-5.653-7.286-2.951-.973-6.683-1.71-9.311.791-3.068,2.916-4.284,6.578-1.848,10.717C1861.017,882.445,1861.416,884.177,1862.294,885.622Z"/><path class="cls-1" d="M1829.335,879.258c2.643-.624,4.607-5.115,3.605-8.724-.588-2.1-1.844-3.677-4.454-2.842-3.039.973-6.139,1.895-5.733,5.885C1823.418,877.116,1826.728,879.875,1829.335,879.258Z"/><path class="cls-1" d="M1716.8,765.848c-2.818-.661-3.42,1.518-2.723,3.391a24.588,24.588,0,0,1,1.285,7.634c.2,4,4.737,8.372,7.507,7.591,3.594-1.013,4.651-3.721,4.106-7.289C1726.293,772.684,1721.356,766.915,1716.8,765.848Z"/><path class="cls-1" d="M1923.519,878.656c2-3.776,2.135-7.5-.5-11-2.686-3.572-5.536-7.018-8.745-11.058a18.083,18.083,0,0,1-3.107,7.976c-4.284,5.677-1.5,11.453,1.517,15.453C1915.59,883.876,1921.268,882.9,1923.519,878.656Z"/><path class="cls-1" d="M1836.716,1100.255c-.186-1.8.348-4.244-1.54-5.068-1.779-.777-3.851.8-4.879,2.047a74.43,74.43,0,0,0-6.97,10.3c-1.213,2.113,1.176,3.224,2.182,4.673a1.633,1.633,0,0,0,2.425.544c1.75-1.209.635-2.763.359-4.233-.432-2.294-.417-4.3,3.155-3.238a13.1,13.1,0,0,0,2.49-.61A4.151,4.151,0,0,0,1836.716,1100.255Z"/><path class="cls-1" d="M1898.219,923.25c-.809,2.185-1.47,4.585-2.871,6.349-1.724,2.171-3.714,5.888-7.108,1.456-.381-.494-1.478-.378-2.142-.73-4.316-2.294-8.35.153-12.524.414-4.349.269-6.088,1.173-5.221,5.558.211,1.064.378,2.367-1.223,2.5a2.525,2.525,0,0,1-2.715-2.1c-.542-1.917-1.805-4.033-1.866-5.554-.178-4.331-4.252-7.5-3.1-12,.211-.831.135-1.684-.733-1.942a1.6,1.6,0,0,0-1.848,1.114,38.1,38.1,0,0,0-1.677,4.825,6.866,6.866,0,0,1-5.377,5.224c-7.743,1.935-12.7,9.834-10.938,18.787.186.715.527,2.4,1.053,4.026,2.24,6.89,10.2,10.459,17.106,8.6,3.932-1.06,4.277-4.6,6.524-6.753,6.661-6.367,15.635-8.015,23.517-11.852,2.937-1.431,3.819-5.78,7.928-5.224.523-5.311,3.238-5.562,7.638-3.877,2.872,1.1,4.578-1.264,5.344-3.9.878-3.049-1.445-8.052-4.106-8.578C1900.986,919.028,1899.218,920.549,1898.219,923.25Z"/><path class="cls-1" d="M1720.4,691.664c-1.865-.523-4.988-1.253-5.238.6-.305,2.276-1.833,2.792-2.632,4.153-2.062,3.507-5.333,7.914-3.024,11.526,2.541,3.976,4.084,8.72,7.634,11.987,2.97,2.738,6.989,4.872,2.618,9.584-.519.563-.389,1.8-.425,2.727-.112,3.034,1.547,4.948,4.135,6.182,1.674.8,3.394.875,4.77-.515a6.836,6.836,0,0,0,1.576-6.952,16.235,16.235,0,0,0-1.609-3.355,1.709,1.709,0,0,1,.865-2.668c1.107-.545,2.37-1.452,3.485-.828,1.259.708.657,2.222.551,3.431-.617,7.195.091,8.28,6.938,8.861,3.666.309,6.2,1.841,7.493,5.184.417,1.086,2.977,1.9,1.027,3.3-1.445,1.045-2.509-.617-3.336-1.707-2.44-3.226-4.937-2.076-7.054.139-2.977,3.122-1.586,6.68.389,9.435,2.4,3.343,5.739,3.1,8.8.1,1.293,1.949,1.747,3.968,3.177,5.489,4.752,5.057,9,4.381,11.9-1.815,2.487-5.319-1.1-10.684.378-15.981.076-.269-.432-.9-.8-1.071-2.65-1.242-3.692-3.416-4.167-6.193a5.253,5.253,0,0,0-3.231-3.779c-3.736-1.656-3.87-3.982-2.218-7.522,3.51-7.519-.24-15.24-7.943-17.72-4.466-1.441-8.06-3.8-8.51-9.289-.188-2.317-.207-5.068-2.294-7.29-1.641,2.8.457,5.1-.646,8C1729.234,692.756,1724.649,692.851,1720.4,691.664Z"/><path class="cls-1" d="M1917.6,930.227c.283-.131,1.2-.265,1.328-.661.991-2.973,3.518-4.864,5.028-7.413,1.028-1.738.385-3.623-1.72-4.577-1.892-.861-3.446-.323-4.2,1.51a10.16,10.16,0,0,1-3.878,4.432c-1.753,1.245-1.165,3.021-.559,4.614C1914.222,929.777,1915.547,930.438,1917.6,930.227Z"/><path class="cls-1" d="M1743.1,1133.482c1.358-.6,3.057-1.666,3.463-2.9.6-1.783-1.71-1.971-2.81-2.389-3.506-1.336-1.829-3.311-.74-5.043,1.151-1.833,1.354-3.605-.12-5.111-1.728-1.764-3.289-.087-5.013.519-6,2.106-.193,7.279-2.839,9.769C1735.151,1131.3,1740.535,1134.622,1743.1,1133.482Z"/><path class="cls-1" d="M1910.868,1182.19c2.856-1.989,4.857-5.021,7.9-6.872.5-.305.559-1.35.762-1.895-.984-2.033-2.629-3.311-4.153-1.891-2.193,2.033-4.941,2.327-7.355,3.546-2.447,1.235-3.685,3.594-2.4,6.27C1906.783,1183.737,1909.128,1183.4,1910.868,1182.19Z"/><path class="cls-1" d="M1865.042,800.909c-4.28.2-7.271,3.348-10.825,5.1-2.407,1.187-.516,4.657-1.1,7.024-.261,1.053-.327,2.338-.976,3.09-5.326,6.131-2.868,13.272-2.876,19.567.639,6.694,4.767,10.956,9.09,14.184,9.465,7.071,16.449,7.768,23.191,3.223,8.059-5.438,14.343-21.5,10.586-30.36-1.946-4.6-1.282-6.8,2.348-9.638,2.378-1.855.03-4.324-1.034-6.208-.581-1.031-1.59-.268-2.08.7-.549,1.085-.941,2.628-2.523,2.236-1.489-.367-1-2.095-1.522-3.155-1.376-2.806-1.234-8.081-6.85-4.447a1.382,1.382,0,0,1-1.314-.159C1874.779,797.49,1869.787,800.684,1865.042,800.909Z"/><path class="cls-1" d="M1768.815,769.246c2.81,1.449,2.922,2.675,1.866,5.4a12.991,12.991,0,0,0,5.249,15.861c5.42,3.238,10.114,2.817,13.163-1.688,1.311-1.939,2.386-2.7,4.774-2.553,2.839.171,4.026-2.105,4.3-4.614a4.012,4.012,0,0,0-3.515-4.7c-1.394-.291-2.784-.447-3.594-1.823-2.142-3.663-5.2-6.534-8.048-9.616-3.1-3.355-2.915-8.31-.6-12.093,2.153-3.514,2.385-7.573,1.746-11.722-.958,2.955-1.746,5.885-3.47,8.4-1.529,2.225-2.93,4.058-4.676-.124-1.4-3.361-4.941-3.866-5.881-1.085-1.064,3.133-3.485,5.4-4.433,8.567C1764.506,761.419,1765.569,767.573,1768.815,769.246Z"/><path class="cls-1" d="M1788.24,843.471c.6,1.655,2.062,2.882,4.07,2.051a3.487,3.487,0,0,0,1.953-4.313,43.633,43.633,0,0,0-3.249-8.64,4.253,4.253,0,0,0-5.547-2.225c-2.429.944-2.705,3.162-2.726,5.322a6.425,6.425,0,0,0,2.131,4.142C1786.1,840.94,1787.583,841.656,1788.24,843.471Z"/><path class="cls-1" d="M1790.872,1089.9c-1.586.6-1.644,2.538-.885,4.092.584,1.194,1.571,1.895,3.6,1.5a72.829,72.829,0,0,0,6.691-6.807c1.525-1.964-.123-3.688-1.608-5.184-.345-.348-.331-1.173-.294-1.768.283-4.785-5.489-3.928-6.865-7.3-.214-.519-2.745.243-2.469,1.169.977,3.238-1.568,7.381,1.8,9.74C1793.6,1087.273,1795.65,1088.119,1790.872,1089.9Z"/><path class="cls-1" d="M1770.728,883.509c-.316,2.57,2.726,4.378,5.184,6.451,5.155,4.345,11.5,7.787,18.151,3.053.7-.5,1.928-1.016,2.552-.733,4.164,1.906,4.433-2.389,6.1-3.994s1.325-3.986-.628-5.79c-1.318-1.216-1.55-2.857-1.8-4.636-1.707-12.179-6.143-19.676-19.691-17.65-2.679.4-4.139-.28-4.356-3.242-.106-1.477.145-4.171-2.458-3.423-2.113.6-2.047,3.009-1.329,4.817.737,1.848,1.046,3.543.142,5.377C1769.69,869.634,1770.772,875.925,1770.728,883.509Z"/><path class="cls-1" d="M1810.026,897.039c-2.578-.465-3.5,1.449-4.436,3.264a7.769,7.769,0,0,0-.785,5.837c.991,3.231,2.04,7.359,6.331,6.694,4.393-.678,3.282-4.832,3.2-8-.007-.3-.084-.614-.12-.918-.127-.923-.243-1.841-.392-2.76A4.476,4.476,0,0,0,1810.026,897.039Z"/><path class="cls-1" d="M1786.6,1243.476c2.857-.13,5.024-2.022,4.421-5.318-.541-2.969-2.113-5.177-4.309-4.988-5.318.632-7.308,2.886-6.4,6.673C1781.034,1242.859,1784.084,1243.592,1786.6,1243.476Z"/><path class="cls-1" d="M1751.513,1343.211c-3.7.831-4.28,4.171-4.5,7.235-.149,2.12,7.046,7.932,7.78,6.861,1.72-2.519,5.274-4.128,4.69-7.993C1759.02,1345.618,1755.1,1342.405,1751.513,1343.211Z"/><path class="cls-1" d="M1776.99,1339.73c1.463-.356,4.465-6.506,3.932-8.445-.988-3.586-3.514-5.659-7.177-5.231a5.124,5.124,0,0,0-4.9,5.74C1769.316,1334.858,1775.077,1340.19,1776.99,1339.73Z"/><path class="cls-1" d="M1766.473,1287.559c5.25-.57,9.323-4.309,9.443-8.673.09-3.2-4.32-7.947-8.234-8.822a1.966,1.966,0,0,0-2.559,1.373c-1.017,2.748-2.284,5.416-3.162,8.2C1759.841,1286.346,1760.933,1288.161,1766.473,1287.559Z"/><path class="cls-1" d="M1768.571,1157.192a15.748,15.748,0,0,0-3.031,3.521,2.736,2.736,0,0,0-.385,3.079c.719,1.2,1.961,1.416,3.424,1.169,1.659-.788,4.647-.527,5-2.611a9.547,9.547,0,0,1,4.269-6.592,1.954,1.954,0,0,0,.189-2.937,6.406,6.406,0,0,0-4.168-1.877c-1.042-.141-2.142.911-1.9,1.627C1773.091,1155.95,1770.23,1155.976,1768.571,1157.192Z"/><path class="cls-1" d="M1845.5,734.987c2.549.29,8.96-3.921,9.631-6.229.973-3.355.723-6.538-2.141-8.942-1.863-1.565-4.451-1.92-6-.243-2.661,2.875-8.985,3.256-7.006,9.145C1840.251,732.551,1842.1,734.6,1845.5,734.987Z"/><path class="cls-1" d="M1857.5,750.579c-.85,5.674,2.258,10.768,7.75,11.824,1.852.356,2.266.893,2.255,2.563a2.1,2.1,0,0,0,2.367,2.3,2.207,2.207,0,0,0,1.815-3.158c-2.24-4.171.483-6.488,2.675-9.388,4.164-5.5,2.415-11.508.708-17.386-1.434-4.951-5.982-1.8-8.426-3.263-2.548-1.518-7.169,3.648-7.413-3.1-1.862,1.293-2.664,2.588-2.167,4.229C1858.61,740.306,1858.268,745.435,1857.5,750.579Z"/><path class="cls-1" d="M1808.29,1145.742c.432-2.962-1.713-5.427-3.677-4.843-5,1.478-7.083-1.851-9.864-4.4a6.048,6.048,0,0,0-1.927-1.3c-1.728-.613-3.267.523-2.908,1.877.635,2.4,1.216,5.794,4.189,6.052,3.362.286,4.106,1.467,3.238,4,.327,3.053,2.1,4.353,4.5,4.183C1805.194,1151.075,1807.742,1149.478,1808.29,1145.742Z"/><path class="cls-1" d="M1762.251,1119.43c-.305.668-1.136,1.151-.617,2.327,1.129.341,1.525-.592,2.189-.8,3.184-.987,5.326-5.834,9.711-2.661.28.2,1.438-.475,1.928-.991a1.414,1.414,0,0,0-.378-2.356c-1.466-.868-2.45-2.552-.552-2.988,3.881-.885,5.954-4.8,10.22-5.068,3.474-.21,4.991-3.909,7.195-6.16,1.22-1.242-.7-2.774-1.677-3.921-1.852-2.181-4.564-3.859-6.96-2.251-3.557,2.389-6.984,2.643-10.858,1.772-.537-.12-1.183.312-1.793.432-6.026,1.187-10.949,4.959-16.558,7.133a3.858,3.858,0,0,0-2.4,4.586c.366,2.08,1.444,3.35,3.692,3.5.846.058,1.956-.258,2.4.994-.755,2.378-3.8.857-5.05,3.086,2.513,1.351,5.344,1.027,7.6.592C1764.194,1115.923,1763.148,1117.473,1762.251,1119.43Z"/><path class="cls-1" d="M1807.782,1076.883c-2.454,3.583.1,7.99,4.585,8.226,1.2.066,3.213-.61,3.318.733.338,4.277,3.754,3.311,6.077,3.867,6.03,1.448,11.585-3.634,10.775-10.492a6.678,6.678,0,0,0-4.207-4.922,7.382,7.382,0,0,0-8.535,2.123c-2.305,2.665-3.845,2.578-5.758-.163C1811.656,1072.846,1809.427,1074.476,1807.782,1076.883Z"/><path class="cls-1" d="M1833.47,796.266c-1.841.164-5.032,5.242-4.342,7.457.973,3.133,3.409,5.006,6.673,4.552,3.118-.435,4.218-2.828,3.663-5.9C1838.97,799,1836.058,796.034,1833.47,796.266Z"/><path class="cls-1" d="M1823.385,800.517c1.83.24,2.937-.831,3.4-2.508.421-1.514.686-2.643,2.8-2.981,4.8-.766,6.429-3.423,5.612-8.843-.171-.432-.526-1.456-.977-2.433-1.579-3.445-4.563-5.045-7.968-4.149-2.915.77-2.814,4.092-3.06,6.64a8.087,8.087,0,0,0,.6,3.608c.762,1.939,1.336,3.449-1.568,4.048-1.54.316-2.178,1.739-1.71,3.311C1820.96,798.709,1821.552,800.278,1823.385,800.517Z"/><path class="cls-1" d="M2022.008,1043.477c-1.5,2.69-2.722,4.836-6.433,4.915a4.041,4.041,0,0,0-3.721,4.611c.24,2.309,1.028,4.454,3.613,4.792s4.5-1.038,5.547-3.416a34.483,34.483,0,0,0,1.179-3.968c3.3,3.068,8.681,3.351,10.663,1.006,3.158-3.736,2.69-6.771-1.514-9.828C2027.588,1038.856,2024.284,1039.379,2022.008,1043.477Z"/><path class="cls-1" d="M2046.248,1033.6c1.506.8,2.991,1.663,4.567,2.306,3.318,1.346,7.5-2.03,7.05-5.606-.432-3.4-3.558-5.06-6.524-3.3-1.162.69-1.913,2.033-3.623,1.263a1.934,1.934,0,0,0-2.937,1.311C2044.382,1031.142,2044.567,1032.71,2046.248,1033.6Z"/><path class="cls-1" d="M2053.327,1146.65a12.081,12.081,0,0,0,9.99-13.94c-1.172-7-6.821-11.646-12.887-10.6-6.865,1.184-11.181,7.642-10,14.971C2041.506,1143.822,2046.683,1147.663,2053.327,1146.65Z"/><path class="cls-1" d="M2054.989,857.157a7.632,7.632,0,0,0,4.222-6.76c.087-1.459-1.64-3.652.777-4.3,1.674-.45,3.649.106,5.464.378.526.08.973.722,1.445,1.118a1.791,1.791,0,0,0,2.156.218,1.77,1.77,0,0,0,.806-2.414c-1.826-2.752-1.605-5.729-1.129-8.836a39.677,39.677,0,0,0-2.458-6c-1.8-2.973-4.8-3.645-8.084-3.333-3.336.316-4.139,2.48-4.455,5.464-.239,2.294-1.063,4.5-.544,6.879.2.886.2,2.324-1.027,2.117-5.068-.864-4.676,3.819-6.038,6.2-1.659,2.911.516,5.714,2.5,7.9A5.075,5.075,0,0,0,2054.989,857.157Z"/><path class="cls-1" d="M1903.393,1081.7c2.69,1.848,3.354-1.72,4.89-2.882a22.144,22.144,0,0,1,4.3-2.56c1.851-.845,3.1-3.6.911-4.138-2.647-.65-5.271-2.12-8.157-1.866-3.471.439-5.1,2.828-5.86,5.82C1898.688,1079.2,1901.621,1080.484,1903.393,1081.7Z"/><path class="cls-1" d="M2083.476,951.4c3.01-.392,5.529-4.857,4.821-8.538-.646-3.344-4.676-7.014-7.18-6.106-3.268,1.183-4.76,3.815-4.448,6.309C2077.534,948.349,2080.652,951.766,2083.476,951.4Z"/><path class="cls-1" d="M2079.973,856.6c-.174-3.623-3.329-4.676-5.576-5.678-2.019-.9-4.338,4.226-3.823,9.809a4.073,4.073,0,0,0,4.963,2.977C2079.04,863.023,2080.144,860.105,2079.973,856.6Z"/><path class="cls-1" d="M2014.334,985.65c-7.035.625-9.3,4.992-5.391,10.964a1.964,1.964,0,0,1-.243,2.817c-2.4,2.142-4.052,5.623-8.4,4.531a6.727,6.727,0,0,0-5.289,1.4c-3.863,2.686-5.4,7.936-3.173,10.971,2.171,2.951,7.439,3.851,9.973,1.1,3.837-4.179,6.581-9.206,9.224-14.242,1.866-3.554,2.244-8.287,6.963-9.693,4.97-1.477,7.38-5.869,5.707-11.362-1.554.831-.7,3.674-2.574,3.045C2018.64,984.347,2016.585,985.451,2014.334,985.65Z"/><path class="cls-1" d="M2048.956,1295.741c-4.462.56-8.8,3.66-8.393,6.005.522,3.06,7.119,7.58,10.528,7.213a5.939,5.939,0,0,0,5.318-6.937C2055.835,1297.244,2053.392,1295.186,2048.956,1295.741Z"/><path class="cls-1" d="M1986.17,1006.753c5.42-1.47,1.561-5.366,1.779-8.063.232-2.911-1.5-4.948-4.026-4.773-4.04.457-6.527,3.572-6.055,6.607C1978.2,1002.637,1984.177,1007.3,1986.17,1006.753Z"/><path class="cls-1" d="M1712.916,677.331c2.552-.294,5.471-4.752,4.966-7.583-.407-2.291-5.264-6.68-7.228-6.535-2.294.171-5.289,4.894-4.861,7.664S1710.574,677.6,1712.916,677.331Z"/><path class="cls-1" d="M2071.819,271.594a26.522,26.522,0,0,0,4.5,1.088c6.524,1.042,12.953-.882,18.319-.515,1.75-.251,2.37-.309,2.977-.432,1.949-.385,4.588-.414,4.563-2.988-.026-2.592-2.683-2.632-4.632-2.839a124.055,124.055,0,0,0-12.939-1.045c-4.291-.007-8.7-.614-12.855,1.227-1.274.562-2.926.8-2.994,2.479C2068.679,270.464,2070.367,271.089,2071.819,271.594Z"/><path class="cls-1" d="M2124.832,932.612c3.395-.221,4.767-2.367,4.713-5.289a6.361,6.361,0,0,0-4.763-6.135c-1.953-.581-5.42,4.414-5.42,7.246C2119.362,932.322,2122.4,932.082,2124.832,932.612Z"/><path class="cls-1" d="M2122.168,834.279c4.156,2.664,3.928,7.762,6.3,11.461,1.281,2,4.135,2.671,4.229,5.068.123,3.078,3.22,5,2.723,8.345-.142.944,1.307,2.647,2.414,3.162,3.572,1.66,11.747-1.691,13.817-5.383,2.846-5.079.4-9.577-5.406-10.546-1.975-.334-3.514,1.132-5.634.606.566-3.373.436-6.665,5.768-4.832,2.839.973,4.985-1.884,6.02-4.2,1.139-2.559,3.986-5.151,2.414-8.1-1.616-3.042-4.477-.272-6.778-.326a10.185,10.185,0,0,0-2.309.334c-4.2.9-10.412-2.912-11.86-7.729-1.79,2.759-7.057,7.239-11.377,9.882C2121.456,832.641,2121.253,833.694,2122.168,834.279Z"/><path class="cls-1" d="M2099.9,831.748c-.131.146-.269.287-.407.422-.788,2.468-1.274,5.307,1.314,6.611a8.121,8.121,0,0,0,7.969-.469c2.261-1.459,1.993-3.87,1.666-6.284-.545-4.059-3.173-2.7-5.01-1.742C2103.617,831.233,2102.052,832.362,2099.9,831.748Z"/><path class="cls-1" d="M2180.611,224.654c2.538,2.131,4.066,4.251,4.041,7.849a57.883,57.883,0,0,0,2.037,14.553l1.5-.207c-.632-9.714-1.249-19.425-1.913-29.136-.076-1.129-.592-2.411-1.786-2.472-5.319-.28-8.463-4.266-12.365-6.963-1.129-.781-2.24-2.153-3.688-.991-1.808,1.444-.309,2.929.533,4.047C2172.516,216.057,2176.063,220.835,2180.611,224.654Z"/><path class="cls-1" d="M2090.581,988.587c.232,1.99,2.283,5.075,5.4,4.676,3.206-.41,5.046-2.7,5.4-5.758-.708-3.858-3.293-4.3-6.313-4.243C2091.463,983.327,2090.4,986.983,2090.581,988.587Z"/><path class="cls-1" d="M2078.626,1210.492c4.411-.6,8.19-5.689,7.613-10.252-.265-4.418-5.859-8.353-12.394-8.317-2.225.014-5.358,5.543-5.01,8.545C2069.362,1204.97,2075.2,1210.953,2078.626,1210.492Z"/><path class="cls-1" d="M1980.71,1092.148c3.736-1.259,6.6,1.855,9.675.944,4.512-.744,7.043-3.8,7.74-8.4.512-3.409-1.431-4.882-4.015-5.928-3.21-1.3-7.1.592-9.1,4.606-1.039,2.081-1.638,4.074-4.212,5.1C1979.033,1089.164,1979.222,1092.649,1980.71,1092.148Z"/><path class="cls-1" d="M2061.444,926.339c-4.04,1.307-3.314,5.384-3.91,8.146.578,3.932,4.012,6.571,7.406,6.106,3.354-.457,5.475-3.761,4.952-7.7C2069.322,928.586,2065.245,925.108,2061.444,926.339Z"/><path class="cls-1" d="M2102.208,951.337c-.435-2.345-1.572-3.979-3.735-4.563-1.474-.4-3.068-.334-4.56-.686-1.2-.284-2.211-2.226-3.6-.468-1.18,1.5-2.095,3.18-1.347,5.183a25.9,25.9,0,0,0,1.873,4.262c1.413,2.367,3.257,4.618,6.357,3.279C2100.161,957.062,2102.328,954.811,2102.208,951.337Z"/><path class="cls-1" d="M2060.747,1213.693c-.109-2.472-4.251-6.018-6.589-5.514-3.089.661-4.411,3.1-4.03,5.939.5,3.728,3.732,4.066,6.495,4.426C2059.8,1218.22,2060.86,1216.347,2060.747,1213.693Z"/><path class="cls-1" d="M1938.545,905.425c2.824-1.165,5.532,1.619,8.269-.029.378,1.492.712,3,1.137,4.476,1.43,4.977,6.233,9.185,10.9,9.588,5.7.49,9.936-2.178,12.612-7.671,3.615-7.428.7-14.652-.643-21.88-.377-2.025-2-1.256-3.18-.12-3.525,3.406-7.061,2.494-10.39-.25-2.988-2.465-5.986-4.984-7.279-8.883-.3-.908-.914-1.848-1.978-1.583-1.26.316-.879,1.412-.61,2.309,1.713,5.736-.167,11.373-.167,18.191-1.79-2.1-3.412-2.167-4.792-2.766-1.739-.759-1.866-2.806-3.213-3.9-2.073-1.681-4.28-2.636-6.857-1.318-2.338,1.2-4.338,7.162-3.271,9.45C1931.284,905.752,1934.217,907.208,1938.545,905.425Z"/><path class="cls-1" d="M1922.967,998.149a34.411,34.411,0,0,0-12,6.284c-1.089.89-1.245,2.5-1.038,3.928.962,6.63,2.992,11.483,13.588,8.8a19.035,19.035,0,0,0,4.382,9.1c2.763,3.071,6.843,3.318,9.239.178a19.531,19.531,0,0,0,3.768-7.729c.418-2.142-2.7-2.581-4.134-3.9-4.654-4.3-5.413-4.236-9.751.091a5.1,5.1,0,0,1-3.155,1.779c.272-4.255-.033-8.5,2.781-12.351C1928.837,1001.322,1926.376,997.147,1922.967,998.149Z"/><path class="cls-1" d="M1965.924,1076.182c2.059,3.024,5.38,1.34,8.085,1.888.918.185,3.169-.693,2.545-2.371-.454-1.227-1.572-3.045-3.823-2.134-2.4.977-3.666-.244-3.678-2.563-.018-3.017-1.016-5.068-4.236-4.549-3.01.487-6.349,1.242-6.632,5.249-.189,2.691.722,4.709,4.051,3.845C1963.6,1075.191,1964.853,1074.611,1965.924,1076.182Z"/><path class="cls-1" d="M1890.033,1046.262c1.91-1.449,2.411-3.79.145-5.533-2.25-1.728-4.882-1.343-5.83,1.235-1.06,2.889-3.06,3.408-5.489,4.167-4.585,1.434-6.589,5.692-5.136,11.352,1.11,4.316,5.071,3.158,7.768,3.561,4.538-.737,7.5-5.166,7.257-10.869C1888.676,1048.541,1888.425,1047.485,1890.033,1046.262Z"/><path class="cls-1" d="M1962.022,1047.016c1.078,1.711,2.715,1.877,4.512,1.046s2.687-2.272,2.131-4.138c-.526-1.765-1.045-4.074-2.36-4.937-2.185-1.434-2.4-2.556-1.5-4.821a3.9,3.9,0,0,0-2.737-5.54c-2.483-.741-4.127.875-5.122,3.02-.577,1.252-.635,2.824-1.427,3.881-1.227,1.637-2.338,3.372-.7,4.944,1.891,1.823,3.249-.559,6.058-2.131C1958.653,1042.4,1960.559,1044.686,1962.022,1047.016Z"/><path class="cls-1" d="M1895.624,1020.672c.261-4.52,3.528-7.145,5.794-10.376,1.564-2.229,1.623-4.614,1.7-6.893-.7-4.284-3.449-6.252-7.232-6.081-3.423.152-8.146-1.213-9.137,4.1-.839,4.491-2.737,8.753-2.694,13.45a9.627,9.627,0,0,1-2.12,6.078c-.868,1.085-2.719,2.639-3.38,1.742-1.6-2.189-3.626-.791-5.34-1.357-2.5-.828-4.639-.106-5.779,2.468-1.1,2.472.192,4.044,2.04,5.558,2.229,1.822,3.986,1.3,6.219-.189,6-4,10.1-9.054,10.571-16.539.065-1.053.127-2.57,1.321-2.727,1.812-.239,1.257,1.692,1.834,2.632,1.22,1.99,1.528,3.685.236,5.929-1.049,1.826.032,3.746,2.033,4.469A2.865,2.865,0,0,0,1895.624,1020.672Z"/><path class="cls-1" d="M1951.036,959.679a22.887,22.887,0,0,1-5.057.175c-3.129-.1-5.26,1.673-6.182,4.661-1.307,4.222,2.138,6.124,4.716,7.566,2.283,1.278,4.062-1.337,5.4-3.2a11.908,11.908,0,0,1,3.024-3.463,3.171,3.171,0,0,0,1.47-3.242C1953.81,960.656,1952.95,959.317,1951.036,959.679Z"/><path class="cls-1" d="M1907.589,982.456c3.859-.617,4.266-3.859,3.845-7.217-.429-3.413-2.051-5.569-5.729-5.126-3.546.428-4.211,3.086-4.2,6.146C1902.663,979.221,1903.182,983.164,1907.589,982.456Z"/><path class="cls-1" d="M1873.218,1103.751c3.539-1.024,4.81-3.783,5.275-7,.512-3.532,1.423-7.522-2.168-9.874-5.307-3.475-9.965-.6-14.731,2.062-3.783,2.109-2.414,4.229-.922,6.734.2.334.043.925-.051,1.376-.675,3.278.875,5,4.97,5.739-4.186,2-5.838,4.469-4.553,8,.9,2.49,3.377,1.935,5.173,1.51,3.489-.82,6.157-2.657,4.887-6.923C1870.314,1102.731,1872.372,1104,1873.218,1103.751Z"/><path class="cls-1" d="M1887.26,1122.352c1.426-1.212.9-2.483-.926-5.59.908,5.151-1.263,8.03-5.358,9.66a4.379,4.379,0,0,0-2.9,2.828c-2.08,7.387-10.677,8.153-13.984,14.339a2.22,2.22,0,0,1,.265-2c2.248-2.668-.214-4.2-1.724-5.206-2-1.325-3.238.617-3.605,2.309-.642,2.973-5.169,4.109-4.128,7.3,1.14,3.492,5.279,2.523,8.06,3.4,5.035,1.6,5.736.708,4.421-4.531,3.8-.581,7.707-1.9,10.637,2.091a1.59,1.59,0,0,0,2.106.472c1.223-.708.323-1.6.083-2.429a17.845,17.845,0,0,1,1.013-12.172C1882.776,1129.155,1883.916,1125.187,1887.26,1122.352Z"/><path class="cls-1" d="M1942.886,1010.845c5.958-2.277,7.323-1.329,8.735,4.944a9.374,9.374,0,0,0,6.451,7.348c3.383,1.093,6.044-.349,8.139-3.072a17.241,17.241,0,0,1,5.395-5.028c1.521-.827,2.134-3.259.3-3.677-4.128-.94-5.362-4.9-8.4-6.832-1.724-1.093-3.031-2.167-1.078-4.338a1.645,1.645,0,0,0-.97-2.868c-1.281-.283-3.2-.7-3.329,1.346-.315,4.909-1.909,3.482-4.167,1.126-4.063-4.236-7.206-3.467-9.032,2.145a42.921,42.921,0,0,0-.922,4.6c-2.338-1.611-4.527-2.519-6.64-.646a3.353,3.353,0,0,0-.247,4.7C1938.777,1012.747,1940.668,1011.694,1942.886,1010.845Z"/><path class="cls-1" d="M1983.858,937.814c3.91,2.429,6.763.839,9.177-2.432a2.2,2.2,0,0,1,.7-.6c1.357-.759,2.541-.433,3.006,1,.392,1.2-.124,2.25-1.67,1.909-.9-.2-1.826-.319-1.463.85,1.241,3.986-.011,8.193,1.031,12.085.973,3.637,2.777,7.221,7.427,7.137,2.727-.047,2.886,1.655,3.34,3.525a6.716,6.716,0,0,0,5.333,5.286c2.995.664,5.068-.7,6.629-3.2a21.986,21.986,0,0,1,2.174-2.385c2.135-2.487,2.371-4.516-1.07-6.208-1.561-.766-4.411-1.524-3.192-4,1.2-2.429.073-3.779-1.02-5.46-3.409-5.249-8.4-9.638-8.353-16.725.015-2.269-.011-4.89-1.7-6.9-2.5,1.132-.49,3.26-1.521,4.559-2.16-1.216-1.434-3.252-1.6-5.028-.668-7.184-6.625-12.513-12.888-10.832-4.61,1.238-4.04-.726-3.184-3.634.353-1.2,2.015-2.872.091-3.54-2.338-.813-2.479,1.634-3,3.184a5.6,5.6,0,0,0,.45,4.081c.621,1.466,1.111,3.034.29,4.5-1.953,3.481-1.681,7.514-2.959,11.177C1978.55,930.017,1980.725,935.865,1983.858,937.814Z"/><path class="cls-1" d="M1991.743,779.814c1.8.141,2.334-1.921,4.806-2.694-1.169,3.8,1,6.429,1.569,9.45.453,2.425,2.813,2.018,4.534,2.45.936.236,2.341.222,2.32-.8-.059-2.835,1.256-5.362,1.452-8.048.09-1.246-.519-3.718-3.184-1.736-1.1.821-2.258-.2-1.993-1.521.947-4.712-2.2-4-4.709-3.412a16.189,16.189,0,0,1-5.434.838c-2.763-.275-3.042,2.157-3.01,3.787C1988.134,780.275,1990.312,779.7,1991.743,779.814Z"/><path class="cls-1" d="M2001.621,809.549c3.608,6.811,3.234,14.253,3.862,21.528.316,3.688,2.313,5.968,6.07,5.445,3.707-.519,5-3.474,4.792-6.912-.171-2.82-1.946-5.993-4.16-6.28-6.1-.784-6.219-5.533-7.758-9.533C2003.835,812.258,2003.672,810.464,2001.621,809.549Z"/><path class="cls-1" d="M1957.03,943.844c-3.521.7-4.251,3.315-4.07,6.244.171,2.712,4.549,5.958,6.76,5,3.137-1.357,4.276-3.841,2.7-7.347C1963.038,943.394,1960.4,943.184,1957.03,943.844Z"/><path class="cls-1" d="M1971.446,977.036c-.134,2.367-.6,3.928,1.434,6.346,1.586,1.884,1.183,3.125,3.7,1.219,1.568-1.183,3.55-1.136,2.751,1.895-.508,1.932-.33,3.366,1.917,3.917,2.48.607,4.756.4,6.084-2.029,1.057-1.928,1-4.658-.791-5.5-4.386-2.065-2.828-4.229-.937-6.879,1.525-2.135,1.351-4.331-.228-6.469a5.756,5.756,0,0,0-5.994-2.436c-2.461.588-4.2,3.282-7.293,3.823C1971.163,971.082,1971.569,974.883,1971.446,977.036Z"/><path class="cls-1" d="M1938.774,975.337c-.226-3.024-3.486-6.161-5.8-5.482-3.314.973-2.886,3.928-3.107,6.1.4,3.532,2.29,5.445,5.285,5.046C1938.018,980.623,1938.977,978.078,1938.774,975.337Z"/><path class="cls-1" d="M2001.94,1040.181c.076-3.982-2.632-5.3-7.511-3.663-1.045-5.079.138-6.948,4.68-7.279a2.615,2.615,0,0,0,2.69-2.109,2.726,2.726,0,0,0-.846-2.966,2.2,2.2,0,0,0-3.01.109c-1.655,2.076-3.1,1.089-4.824.189-2.7-1.416-5.144-.665-7.185,1.423-1.619,1.659-2.621,3.735-1.506,5.932,1.579,3.111,4.374,5.394,5.627,8.927.414,1.172,3.43,2.65,5.354,3.746C1998.317,1046.145,2001.871,1043.615,2001.94,1040.181Z"/><path class="cls-1" d="M1956.874,1140.09a5.253,5.253,0,0,0,3.964-3.747,4.656,4.656,0,0,0-1.652-5.4c-1.662-1.351-3.652-2.342-4.559-4.494a2.066,2.066,0,0,0-3.1-1.071c-1.641.827-1.554,2.276-.675,3.55a6.415,6.415,0,0,1,.784,5.725C1950.84,1137.726,1953.4,1140.427,1956.874,1140.09Z"/><path class="cls-1" d="M1948.593,1038.366c1.394.305,2.291-.523,3.064-1.619,1.155-1.641,2.56-3.119,3.587-4.825,1.017-1.685,1.227-3.659-.28-5.177-1.448-1.459-3.321-1.387-5.213-.69-4.868,1.783-4.421,5.188-2.784,8.43C1946.836,1036.474,1946.753,1037.963,1948.593,1038.366Z"/><path class="cls-1" d="M2143.238,1069.3a4.61,4.61,0,0,1,2.316-2.7c1.989-1.234,3.209-3.085,2.643-5.463a4.66,4.66,0,0,0-3.776-3.732c-2.5-.261-3.761,1.793-4.628,3.844-1.187,2.8-2.32,2.226-3.852.225-1.231-1.6-2.915-2.287-4.908-1.1-2.316,1.376-4.121,3.34-3.046,6.045,1.4,3.529,4.346,2.679,7.682,1.18-.817,2.893.105,4.657,2.693,5.031C2140.9,1073,2142.537,1071.619,2143.238,1069.3Z"/><path class="cls-1" d="M1955.785,1422.18c3-.78,4.737-2.457,4.345-5.678-.352-2.918-3.833-5.292-7-4.672-2.977.585-4.175,2.752-3.677,5.522C1950.06,1420.732,1952.43,1422.246,1955.785,1422.18Z"/><path class="cls-1" d="M2002.242,1689.43c-8.5-5.652-15.491-12-18.827-21.836a7.045,7.045,0,0,0-1.3-1.931c-4.313-5.377-7.428-11.483-10.826-17.433-4.748-8.324-9.838-16.448-14.782-24.656l-1.383.751c1.641,5,4.991,9.137,7.761,13.5,9.119,14.344,17,29.377,25.278,44.2,1.249,2.229,2.094,4.694-.6,6.1-3.282,1.707-3.631,4.505-3.692,7.464a30.458,30.458,0,0,0,2.9,13.6c3.195,6.828,11.319,9.49,15.719,5.482C2008.613,1709.077,2009.085,1693.982,2002.242,1689.43Z"/><path class="cls-1" d="M1953.745,1893.713c-.011-.112-.574-.279-.85-.236-2.832.483-3.122-1.223-2.861-4.105.487-2.636-2.849-3.914-3.964-6.4-.584-1.3-1-3.689-2.962-2.752-2.214,1.06-1.281,3.376-.2,4.828,1.521,2.03,1.271,3.562-.225,5.387-3.2,3.9-3.027,6.034.755,9.428,3.416,3.068,6.607,6.415,10.964,8.306,1.125.49,2.054,1.565,3.358.912a3.584,3.584,0,0,0,1.964-3.932C1958.871,1900.793,1954.231,1898.335,1953.745,1893.713Z"/><path class="cls-1" d="M1993.246,1441.207c3.463-.461,7.3-5.119,6.876-8.346-.683-5.17-5.061-7.588-12.384-6.6-5.655.763-2.845,5.4-3.176,8.2C1984.163,1437.849,1989.663,1441.686,1993.246,1441.207Z"/><path class="cls-1" d="M2012.718,1351.3c-.239-2.973-3.706-5.986-6.861-5.7-3.637.33-4.922,3.071-5.068,6.161a6.175,6.175,0,0,0,6.255,6.117A5.963,5.963,0,0,0,2012.718,1351.3Z"/><path class="cls-1" d="M1990.773,1312.945c2.876-.337,5.646-4.153,5.239-7.209-.428-3.217-4.262-6.44-7.144-6.012-4.455.66-6.673,3.2-6.1,6.977A7.687,7.687,0,0,0,1990.773,1312.945Z"/><path class="cls-1" d="M1952.946,1292.532c-3.554.567-6.538,6.346-5.867,11.36.759,5.677,5.112,8.915,10.982,8.175,5.061-.643,7.99-5.068,7.362-11.112C1965.075,1297.615,1956.671,1291.94,1952.946,1292.532Z"/><path class="cls-1" d="M2011.865,1383.213c-4.207-3.057-8.32-6.233-12.372-9.475a4.753,4.753,0,0,0,.741-4.4c-1.176-5.018-3.877-7.261-7.591-5.82a26.9,26.9,0,0,0-3.514,1.681c-6.084-5.148-12.078-10.412-18.057-15.687a5.868,5.868,0,0,0,2.436-1.615,6.183,6.183,0,0,0,1.267-6.908c-1.042-2.614-3.028-3.638-5.932-3.278-3.394.424-6.662,1.368-10.277-.167a2.705,2.705,0,0,0-1.409-.211c-1.376-1.191-2.744-2.385-4.127-3.565-18.631-15.894-38.093-30.89-54.11-49.669-3.873-4.546-7.395-9.319-9.515-14.79-2.835-7.315,2.723-13.258,10.55-11.722,7.682,1.506-.007-4.789,2.381-5.631,6.778,1.409,12.928,8.767,19.331,1.165,3.642-4.327,8.234-8.654,2.524-15.632a33.43,33.43,0,0,0-8.038-7.235,25.547,25.547,0,0,0,3.63,1.253c1.954.3,3.91,1.669,5.889.606,9.094-4.89,10.557-15.614,4.294-20.968-4.073-3.482-3.953-4.636-2.352-9.8a8.846,8.846,0,0,0-3.111-10.023c-3.583-2.788-6.135-.051-8.644,2.618-1.753,1.862-3.26,4.588-6.121,4.719-2.744.127-3.967,1.771-5.655,3.452-2.171,2.164-3.976,5.489-7.875,4.781-2.849-.515-5.125.095-6.015,2.941-.918,2.941,1.02,4.621,3.452,5.761,1.133.53,2.581.81,1.605,2.563a1.982,1.982,0,0,1-3.144.763c-2.044-1.318-3.43-.164-4.941,1.118a17.572,17.572,0,0,0-3.895,4.792c-10.822-7.257-19.353-6.927-24.686,1.237-3.147,4.814-5.823,5.115-10.883,4.389-20.486-2.925-34.786,10.216-32.215,27.939a3.156,3.156,0,0,0-1.9.614c-4.1,2.977-9.051,4.872-12.213,9.061a3.735,3.735,0,0,0-.268,4.389c1.169,1.779,3.133,1.434,4.636.766,1.8-.795,3.3-2.262,5.031-3.245.759-.429,1.989-1.921,2.658-.2,1.437,3.736,3.7,2.113,5.931,1.213.1-.04.189-.087.287-.127,3.482,7.87,7.181,15.7,11.955,22.646-2.981.029-5.4,1.6-6,5.437-.21,1.337-.352,3.293-2.265,2.789-5.064-1.329-3.634.693-1.677,3.009,1.165,1.383,1.223,3.162,1.957,4.683,2.044,4.244,7.347,5.689,10.393,2.792,1.779-1.695,3.467-3.5,5.086-5.344a7.665,7.665,0,0,0,1.572-2.8,48.762,48.762,0,0,0,17.436,10.3,3.745,3.745,0,0,0-.562,2.254c.127,1.913,1.651,2.386,3.045,3.1.788.4,2.465-.777,2.353,1.267-.225,4.037,2.106,4.357,5.424,4.2a7.035,7.035,0,0,0,5.445-2.4,56.467,56.467,0,0,1,5.827,7.341c-2.781,3.162-7.334-4.415-7.715,1.448s-4.022,7.028-7.54,9.773c-5.587,4.356-2.737,10.1-.385,15.033,2.077,4.353,6.2,6.153,10.43,3.587,8.339-5.065,18.994-8.346,18.464-22.377,15.7,6.531,21.008,23.927,36.179,28.457-3.4-4.5-8.789-6.444-12.063-11.228-6.085-8.88-13.011-16.975-22.214-23.016-3.024-1.986-5.456-5.413-7.177-8.695-2.022-3.837-4.4-8.2-.127-12.4,4.058-3.993,7.863-7.34,14.532-5.006,7.587,2.654,14.866,5.457,21.193,10.6q15.357,12.486,30.72,24.958a6.536,6.536,0,0,0-.008,1.956c.588,4.055,3.609,6.2,7.682,5.188.3-.076.6-.156.886-.232q11.822,9.53,23.738,18.939c-.25.189-.512.37-.751.57-1.772,1.466-3.108,3.663-1.674,6.211,1.22,2.164,2.9,3.689,5.634,3.046,2.132-.425,4.27-.791,6.382-1.281.255-.058.487-.135.723-.207,5.271,4.8,10.059,10.451,17.385,12.807A4.628,4.628,0,0,0,2011.865,1383.213Z"/><path class="cls-1" d="M1928.63,1577.328c-.159-3.072-4.465-3.41-6.672-.919-2.941,3.314-.9,11.708,3.383,12.052,4.705.382,6.7,3.417,9.069,6.393,1.811,2.273,3.438,4.691,5.144,7.047.312-.243.621-.483.933-.723C1936.058,1593.482,1929.146,1587.122,1928.63,1577.328Z"/><path class="cls-1" d="M1834.091,1376.286c-3.489.534-4.487,3.18-4.026,6.179.5,3.238,2.8,4.6,6.055,4.262,2.908-.759,5.024-2.512,4.269-5.558C1839.667,1378.257,1837.757,1375.727,1834.091,1376.286Z"/><path class="cls-1" d="M1851.389,1416.539c-.537-3.983-4.727-7.446-8.56-7.083-3.471.334-8.078,6.262-7.439,9.573.759,3.932,5.257,6.731,9.791,6.092C1848.957,1424.591,1851.919,1420.492,1851.389,1416.539Z"/><path class="cls-1" d="M1814.556,1549c-2.428.886-3.895,3.532-4.037,6.3a27.534,27.534,0,0,0,.36,5.805c1.895,10.288,3.815,19.2,16.1,19.012.747-.011,1.528,1.379,2.28,2.134,1.081,1.086,1.815,3.71,3.819,1.764,1.423-1.383.344-3.278-1.064-4.44-1.332-1.092-2.683-1.771-2.04-4.073,2.831-10.1-.189-18.191-8.6-24.486C1819.21,1549.4,1816.774,1548.191,1814.556,1549Z"/><path class="cls-1" d="M1825.556,1354.8c-.058,1.126.058,2.375-.781,3.024-2.933,2.269-2.218,4.567-.526,7.166a8.391,8.391,0,0,0,7.184,3.892,6.662,6.662,0,0,0,4.6-10.2,29.625,29.625,0,0,0-5.518-6.153C1828.2,1350.5,1825.726,1351.677,1825.556,1354.8Z"/><path class="cls-1" d="M1933.923,1513.845c3.315-.247,4.121-3.046,4.64-5.656,1.238-6.284,1.016-12.361-3.111-17.76a9.466,9.466,0,0,0-10.267-3.793c-3.637.918-5.819,6.048-4.995,11.842a43.65,43.65,0,0,0,5.445,12.2C1927.44,1513.62,1930.75,1514.084,1933.923,1513.845Z"/><path class="cls-1" d="M1878.925,1633.158c1.829-1.25.682-2.894-.037-4.531a86.56,86.56,0,0,0-11.969-20.1c-1.448-1.779-2.116-4.233-4.683-4.941-1.176-.326-1.953-.987-1.742-2.345.228-1.5,1.314-.759,2.145-.878,1.656-.236,1.746-1.616,1.645-2.879-.138-1.717-1.289-2.618-2.77-3.431-1.674-.918-1.572,3.013-3.173,1.049-.98-1.2-1.644-2.682-3.068-3.441-1.161-.617-2.091.076-2.915.853a10.664,10.664,0,0,0-.936,1.042,8.477,8.477,0,0,0-1.761,6.723c.69,3.282,2.421,5.986,5.812,7.166a7.2,7.2,0,0,1,3.816,3.173c4.654,7.115,11.264,12.858,14.506,21.005A3.314,3.314,0,0,0,1878.925,1633.158Z"/><path class="cls-1" d="M1918.821,1419.367a7.784,7.784,0,0,0-1.829-5.5c-2.033-2.476-4.571-3.3-7.366-1.59-2.832,1.728-3.035,4.687-1.986,7.373a5.751,5.751,0,0,0,6.306,3.747c2.334-.262,3.2,4.443,5.823,1.913C1921.98,1423.178,1917.438,1421.385,1918.821,1419.367Z"/><path class="cls-1" d="M1876.71,1616.023a3.4,3.4,0,0,0,4.277-.777c2.294-2.487,2.16-5.471,1.209-8.375-1.162-3.544-3.271-7.3-7.254-6.76-4.432.6-4,4.81-3.376,8.292C1871.294,1612.323,1873.559,1614.494,1876.71,1616.023Z"/><path class="cls-1" d="M1886.614,1574.888c-4.941-.182-5.9-1.612-4.64-6.477a16.349,16.349,0,0,0,.585-6.951c-1.739-6.673-4.7-12.358-11.523-15.306-6.712-2.9-7.874-2.4-8.636,4.85a54.385,54.385,0,0,0-.316,9.751,15,15,0,0,0,15.33,13.712,4.212,4.212,0,0,1,3.82,2.134c1.292,1.746,2.4,3.634,3.6,5.449.712,1.075,1.812,2.386,2.962,1.533,2.153-1.594,2.24-4.371,2.313-6.756C1890.168,1574.75,1888.273,1574.95,1886.614,1574.888Z"/><path class="cls-1" d="M1876.924,1650.434c-5.245-.661-8.317-2.073-9.046-7.395a3.255,3.255,0,0,0-.577-1.267c-2.117-3.278-5.025-3.155-6.785.276a8.8,8.8,0,0,0-.621,5.024c.228,2.269.911,4.411,3.06,5.464,3.206,1.572,4.273,4.287,4.752,7.522a33.223,33.223,0,0,0,4.7,12.6c2.621,4.255,7.91,5.387,10.72,2.265,3.235-3.586,3.7-8.062,2.806-12.724C1884.882,1656.729,1882.827,1651.178,1876.924,1650.434Z"/><path class="cls-1" d="M1959.441,1172.276a3.288,3.288,0,0,0-4.139,1.277,14.351,14.351,0,0,1-6.8,5.537c-2.5.987-4.647,4.055-4.8,7.5-.073,1.565.217,3.155,2.145,2.7,1.906-.447,3.725.1,5.91-.164,2.65-.54,5.511-1.894,5.014-5.253-.411-2.766-.16-3.9,2.646-4.556,1.931-.453,2.2-2.446,2.149-4.229A3.074,3.074,0,0,0,1959.441,1172.276Z"/><path class="cls-1" d="M2159.382,913.6c-1.558-5.892-10.212-7.065-9.29-14.536.105-.849-1.761-1.586-3.159-.951-.9.407-1.561,1.754-2.842.8-.447-5.718-3.354-9.341-7.25-9.116-3.47.2-5.249,4.32-9,3.844a23.961,23.961,0,0,1,.026,9.272c1.9-.243,1.256-3.079,3.009-2.059,1.6.937.886,2.415-.265,3.507a4.51,4.51,0,0,1-1.437,1.177c-4.912,1.539-3.732,4.421-1.583,7.362,3.1,4.24,3.108,9.569,5.14,14.205,1,2.283-.094,5.01-1.985,6.865-3.453,3.387-4.792,7.7-6.5,12.074-1.554,3.983-1.685,9.835-8.194,10.426a2.6,2.6,0,0,0-1.957,3.645c.632,1.812,2.349,3.431,3.826,2.574,3.794-2.2,5.156.715,7.355,2.523,3.028,2.494,7.3,5.732,10.154,1.717a61.442,61.442,0,0,1,11.585-12.757,5.111,5.111,0,0,0,1.125-2.029c1.949-4.61-1.086-17.8-4.886-20.987a6.9,6.9,0,0,0-2.5-1.179c-5.181-1.521-5.968-2.629-5.547-8.372,2.037,1.841,3.358,4.556,6.342,4.523,3.184-.032,6.1,1.126,9.141,1.736,1.347.272,3.064.047,3.148,2.018.079,1.913-1.605,1.39-2.712,1.728-1.478.451-2.607,1.423-1.848,3.119.642,1.434,1.855,2.113,3.442,1.179.78-.457,1.444-1.266,2.468-.381,1.111.963,2.44,1.8,3.688.443,1.2-1.3.708-2.879.156-4.41-1.15-3.184-1.346-6.2.5-9.4C2161.091,919.481,2160.17,916.574,2159.382,913.6Z"/><path class="cls-1" d="M2167.619,901.8c-.792-3.9-3.543-4.912-7-4.022-2.727.7-6.07,2.352-6.277,4.817-.3,3.591,4.146,6.705,7.115,6.15C2166.246,907.85,2168.374,905.53,2167.619,901.8Z"/><path class="cls-1" d="M2151.159,1075.068a1.572,1.572,0,0,0-1.053-2.226,1.6,1.6,0,0,0-2.229,1.068c-.3,2.41-2.149,3.412-3.55,4.973a10.992,10.992,0,0,0-2.759,8.285c.6,4.508,4.5,8.4,8.11,7.961,4.066-.5,5.547-3.674,6.019-7.213.388-2.934-1.38-5.312-2.981-7.584C2151.587,1078.724,2149.8,1077.467,2151.159,1075.068Z"/><path class="cls-1" d="M2172.509,1050.934c-2.708-1.278-5.987-.069-8.992-.995-.908-.283-2.023,1.242-1.8,3.086,2.538,1.539,2.589,5.3,5.246,7.021,2.9,1.88,5.511.78,7.144-1.925C2175.725,1055.432,2175.613,1052.4,2172.509,1050.934Z"/><path class="cls-1" d="M2334.557,871.7c-.41-2.552-1.35-3.975-3.7-3.9-2.265.077-4.138,1.035-4.3,3.391-.229,3.184.334,6.353-.356,9.609-.414,1.946,1.474,3.373,3.55,3.547,2.567.214,4.644-1.4,4.553-3.641C2334.176,877.526,2333.533,874.386,2334.557,871.7Z"/><path class="cls-1" d="M2210.2,852.427c-3.311.991-4.382,3.793-4.756,6.821-.465,3.732,3.224,4.864,5.268,7.518-3.17.578-4.745,2.843-6.484,4.959a5.048,5.048,0,0,0-.977,5.21c.7,1.746,2.752,1.884,4.436,2,4.139.28,7.04-2.842,7.105-8.466.036-2.965.356-5.321,2.225-7.826,1.445-1.935,2.64-4.919.538-7.294C2215.7,853.262,2213.331,851.49,2210.2,852.427Z"/><path class="cls-1" d="M2129.541,1027.449c-.788-2.82-1.274-6.294-5.87-5.474-4.259.759-4.854,3.608-4.807,6.426.679,4.214,3.522,7.326,5.787,6.9C2127.733,1034.728,2130.456,1030.72,2129.541,1027.449Z"/><path class="cls-1" d="M2196.124,912.275c-1.725-1.053-3.431-1.4-5.268-.254-1.593,1-3.213,2.044-5.445.886-2.694.526-3.758,2.49-3.405,5.039.352,2.515,1.742,4.559,4.741,3.826,1.684-.41,3.129-1.078,4.882-.087,4.593,2.592,4.618,2.53,5.366-3.042.083-.614.37-1.2.476-1.808C2197.768,915.1,2197.975,913.4,2196.124,912.275Z"/><path class="cls-1" d="M2185.2,905.265c-.493-3.064-2.145-4.832-5.332-4.552-3.282.29-5.235,2.389-5.007,5.551.236,3.22,2.251,5.492,5.8,5.394C2184.845,911.546,2184.572,908.046,2185.2,905.265Z"/><path class="cls-1" d="M2105.349,959.418c-3.5.534-6.618,5.841-6.005,10.212.89,6.288,4.956,10.528,9.628,10.027,5.035-.537,8.6-5.939,7.808-11.831A10.05,10.05,0,0,0,2105.349,959.418Z"/><path class="cls-1" d="M2043.394,1472.017c-3.753.45-6.022,3.695-5.452,7.8.413,3,4.428,5.678,7.837,5.141,3.794-.6,5.823-2.916,5.765-6.717C2051.493,1475.023,2046.825,1471.6,2043.394,1472.017Z"/><path class="cls-1" d="M2039.728,1371.465c2.864-.207,4.2-2.359,4.251-5.343-1.187-2.727-3.028-4.854-6.313-4.317-2.632.432-4.879,2.16-4.5,5.057C2033.618,1370.38,2036.566,1371.694,2039.728,1371.465Z"/><path class="cls-1" d="M2030.013,1127.006c-3.26-2.534-1.466-5.26-1.245-7.928.174-2.066.073-3.841-2.258-4.429-3.329-.839-10.492,5.565-10.1,8.937.65,5.613-.863,7.642-6.509,8.383-3.59.468-7.148.991-10.019,3.423-1.1.933-2.781,1.826-1.507,3.8,1.609,2.49.019,2.7-1.815,2.3-2.534-.551-5-.842-7.144.893a7.964,7.964,0,0,1-7.7,1.7c-3.939-1-7.42,1.975-7.9,5.983-.453,3.812,1.772,6.295,6.568,6.785a28.008,28.008,0,0,1-4.7,1.514,4.946,4.946,0,0,1-5.326-3.543c-.821-3.17-4.614-7.188-7.874-7.1-7.569.211-11.287,7.141-17.393,9.915-.61.279-.995,1.648-1.016,2.523-.08,3.2-.639,4.135-4.157,2.476-1.576-.741-4.836-4.375-6.894.185a6.438,6.438,0,0,0,.505.486,3.224,3.224,0,0,1,2.8,2.774c.654,5.238,3.09,3.783,5.761,1.615,1.3-1.053,2.433-2.7,4.433-1.851,2.494,1.053,1.329,3.361,1.238,5.423,2.044-.936,2.6-2.613,3.54-3.975,1.55-2.251,2.78-5.053,6.243-1.869a4.1,4.1,0,0,0,5.279.043c2.487-2.341,5.612-2.269,8.669-3.2-.447,2.335-2.53,4.923-.04,6.553,2.8,1.822,6.23,3.754,9.6,1.612,3.293-2.1,4.556-5.7,4.89-9.548.091-1.074-2.131-2.12-.254-3.151,1.459-.806,3.173-1.579,4.792-.145,2.087,1.848,4.033.987,5.151-.864,2.639-4.375,6.861-6.11,11.323-7.631,6.818-2.323,9.312-6.367,8.353-13.526-.443-3.311,1.017-4.89,4.331-4.912,2.788-.022,5.587,0,8.361-.225C2030.14,1130.262,2031.589,1128.23,2030.013,1127.006Z"/><path class="cls-1" d="M2035.448,1079.086c.036-1.655-1.26-1.252-2.375-.914-2,.6-1.735-.86-1.971-2.109-.8-4.212-3.946-4.3-7.177-3.645-2.269.461-4.4,6.3-3.184,8.731,1.79,3.572,4.618,2.279,7.174,1.1,1.644-.755,2.864-2.461,4.632-2.16C2033.956,1080.241,2035.415,1080.641,2035.448,1079.086Z"/><path class="cls-1" d="M2075.853,1873.816c-3.653-.218-3.13-2.019-2.658-4.749.665-3.852,1.786-8.483-.159-11.616-2.262-3.642-6.5-6.085-9.984-8.917-1.209-.98-2.61-.417-3.957.225-3.819,1.83-6.632,9.323-5.725,15.513.734,5.02,6.985,11.479,12.216,11.46,4.266-.014,6.026,1.732,7.4,5.359,1.064,2.81,2.567,6.211,6.705,4.636,2.258-.857,2.2-5.816.164-8.949C2078.891,1875.293,2077.631,1873.925,2075.853,1873.816Z"/><path class="cls-1" d="M2105.465,1017.245c-.167-4.073-1.547-7.558-5.812-8.586-2.821-.679-6.067-.541-7.969,2.2-2.559,3.685-.3,7.849-.562,11.788-.077,1.2,1.179,1.074,2.163,1,1.833-.142,3.068.523,2.886,2.639-.163,1.968-.377,3.725-3.191,3.489a33.126,33.126,0,0,0-5.979.374c-2.545.25-3.5,1.76-3.1,4.207.4,2.407,1.615,3.7,4.207,2.937,1.086-.32,2.2-1.6,3.032.371,1.143,2.715,1.753,1.811,2.534-.291.984-2.639,2.065-4.777,5.957-3.852,3.979.948,6.219-1.956,6.407-5.623.167-3.209.879-6.545-.352-9.482A9.718,9.718,0,0,1,2105.465,1017.245Z"/><path class="cls-1" d="M2099.032,1083.806a2.073,2.073,0,0,0-2.745,1.114c-.606,1.282-.954,2.89-2.882,2-2.617-1.216-5.776-1.35-7.725-3.931-1.514-2.008-3.4-2.211-5.115-.389-1.67,1.779-1.569,3.652.631,5.082,3.006,1.953,1.278,5.159,1.787,7.7.406,2.036-2.411.577-3.663,1.267a6.175,6.175,0,0,0-3.587,5.067,3.062,3.062,0,0,0,2.385,3.533,4.409,4.409,0,0,0,5.22-2.16c1.427-2.847,2.723-5.2,6.4-3.068a32.968,32.968,0,0,1,2.984-1.5c5.754-2.179,4.334-8.651,7.424-12.449C2100.6,1085.519,2100.049,1084.176,2099.032,1083.806Z"/><path class="cls-1" d="M2082.59,1258.005c-1.956.494-1.905-.436-2.493-1.568-2.146-4.146-6.288-5.381-10.154-3.181-1.209.69-2.24,1.928-1.282,2.981,1.51,1.659,1.278,4.549,4.044,5.3,2.019.552,1.855,2.076,1.249,3.757-.675,1.866-1.819,3.928-1.536,5.71.912,5.747,8.216,10.47,14.126,9.584,5.681-.849,10.306-6.658,9.409-11.82C2094.625,1261.141,2088.943,1256.4,2082.59,1258.005Z"/><path class="cls-1" d="M1688.778,1416.557c.977.2,1.975.138,2.41-.868,1.547-3.564-.283-6.665-1.51-9.831a2.2,2.2,0,0,0-.551-.744c-1.543-1.466-3.028-3.826-5.406-2.635-1.96.98-1.608,3.474-1.568,5.111C1682.668,1411.115,1686.466,1416.085,1688.778,1416.557Z"/><path class="cls-1" d="M1456.992,785.557a4.107,4.107,0,0,0-1.811,1.365c-3.685,4.309-3.308,9.264.766,13.141,2.875,2.734,6.356.353,9.5,1.46,2.567-.272,3.594-2.116,4.033-4.371C1470.2,793.463,1460.633,784.584,1456.992,785.557Z"/><path class="cls-1" d="M1536.858,581.064c-3.223.283-3.928,2.522-3.881,5.358.759,3.358,2.945,5.736,6.343,5.645,3.557-.1,3.546-3.366,3.39-6C1542.5,582.523,1540.438,580.755,1536.858,581.064Z"/><path class="cls-1" d="M1569.451,658.7c1.967,1.466,3.213,3.808,6.139,3.3,2.185-.378,2.977-2.062,3.412-3.968.65-2.842.1-5.873-2.468-6.937-3.834-1.59-6.742-2.85-3.7-6.974-.25-1.456-.174-2.635-1.111-3-1.089-.424-1.67.589-2.014,1.453a2.788,2.788,0,0,1-2.741,2.072c-1.5.04-2.669,1.147-1.917,2.426C1567.182,650.688,1565.316,655.618,1569.451,658.7Z"/><path class="cls-1" d="M1566.387,776.819c7.616,8.658,18.1,9.5,26.171-.461,1.84-2.273,3.681-1.79,5.652-.247,3.805,2.973,7.576,5.986,11.45,8.862,2.029,1.5,2.977,2.646.911,5.118-1.877,2.244-3.158,5.213-2.149,8.3,2.044,6.28,3.841,12.832,10.934,15.592a7.987,7.987,0,0,1,3.369,2.392c10.121,12.016,23.394,18.1,38.6,20.794,5.762,1.017,11.276,2.636,16.061,6.738,2.4,2.058,6.436,3.732,10,1.481,3.2-2.025,1.709-5.518,2.21-8.47.8-4.755-.889-6.621-4.947-8.908-5.315-3-7.141-3.565-10.22,1.47-1.593,2.6-3.2,2.465-5.8,1.946-7.848-1.572-12.949-8.633-21.143-9.947,10.354.8,15.447-4.977,17.636-13.635,4.03-15.941-6.171-28.984-19.738-36.121-2.577-1.358-5.471-1.634-6.229-5.388-.45-2.214-2.574-2.573-4.175-.446a10.313,10.313,0,0,0-2.131,3.575c-2.244,10.075-6.041,9.124-13.149,4.622a6.837,6.837,0,0,0-.817-.454c-2.432-1.1-4.008-1.085-4.509,2.269-.388,2.628.313,5.188-.061,8.564-5.453-4.146-10.55-7.885-15.48-11.835-2.16-1.732-1.332-3.554.628-5,3.888-2.861,7.8-5.689,11.675-8.575s7.744-5.765,11.526-8.76c.886-.7,2.266-1.833,1.075-3.067-1.093-1.129-1.9.319-2.581,1.06-2.378,2.577-5.645,3.837-8.455,5.776-6.19,4.283-11.606,1.677-12.082-5.845-.1-1.681-1.02-2.429-2.123-3.337-3.928-3.227-8.114-6.084-10.528-10.93-4.716-9.468-12.172-16.456-21.219-21.778-1.485-.872-1.95-2.2-2.734-3.554-3.02-5.221-4.283-10.917-5.336-16.743-.28-1.547-.973-4.026-3.046-3.38-2.443.762-1.507,3.431-.632,4.763,3.09,4.69,3.228,10.328,5.388,15.33s1.372,5.944-3.9,7.606a5.846,5.846,0,0,0-3.4,2.229c-2.432,3.551-8.782,3.551-10.633-.323-2.861-5.99-5.133-12.263-7.656-18.416,2.635,3.659,4.726,7.536,8.237,10.564q-5.484-11.1-10.967-22.2c-.44.029-.879.061-1.318.091.294,4.392-.142,7.714-5.692,7.805-3.674.061-4.636,3.477-3.892,6.643.766,3.246,2.207,6.484,6.487,5.979,3.895-.461,4.3-3.485,4.244-6.643-.007-.555-.062-1.115-.16-2.77,4.168,7.511,6,14.768,8.771,21.64.439,1.089.784,2.545-.3,3.529-1.314,1.194-2.7.3-3.866-.367-8.862-5.057-16.446-11.076-18.493-22.025a43.331,43.331,0,0,0-6.008-14.9c1.753,5.493,2.8,11.127,4.327,16.631.908,3.274.933,6.926,3.463,9.54,4.64,4.8,8.168,10.633,13.748,14.558a15.477,15.477,0,0,1,6.375,10.5c.559,3.3-2.091,5.99-5.13,5.174-2.9-.777-2.57.969-2.548,2.784.018,1.238.886,2.984-1.311,3.358-3.071.523-3.5,1.2-2.142,3.928a9.879,9.879,0,0,0,6,4.843C1546.3,762.566,1557.594,766.828,1566.387,776.819Z"/><path class="cls-1" d="M1679.056,1150.371c.193-1.078-.675-1.576-1.662-1.874-4.074-1.237-6.829-3.514-7.541-8.113a9.157,9.157,0,0,0-5.351-6.709,6.072,6.072,0,0,1-3.329-3.049c-.428-1.02-.58-2.93-2.341-2.026-1.369.7-.643,2.189-.222,3.354.313.86.661,1.714,1.126,2.919-7.526-.28-10.927,3.122-10.365,9.943.153,1.863.138,3.239-1.945,4.117-2.244.948-2.259,2.9-.97,4.643,1.561,2.113,3.362.672,4.266-.541,1.445-1.945,2.752-2.018,5.06-1.691,3.126.439,7.21,3.452,9.319-2.1.443-1.172,2.585-.726,3.38.055,2.469,2.425,5.311,2.305,8.375,2C1677.8,1151.209,1678.842,1151.554,1679.056,1150.371Z"/><path class="cls-1" d="M1604.538,705.124c-.643,1.678-.5,3.351-.044,5.918a82.327,82.327,0,0,0,2.305,8.081c2.287,5.953,8.517,7.126,13,2.636a17.72,17.72,0,0,1,2.523-2c4.862-3.373,5.123-8.724.081-11.683-3.453-2.029-7.163-3.445-10.579-5.808-4.513-3.122-6.959-9.181-3.885-13.788,1.823-2.733,1.115-7.994-1.317-10.389-2.327-2.284-4.654-1.2-6.785.1-2.436,1.485-1.888,7.736.929,10.833C1605.031,693.718,1606.9,698.92,1604.538,705.124Z"/><path class="cls-1" d="M1674.87,1207.348c1.115-1.928,2.422-4.233.5-5.965-2.138-1.931-2.745-4.356-3.765-6.756-1.739-4.1-6.963-6.1-9.892-3.561a10.249,10.249,0,0,1-7.043,2.774c.839,2.606,1.608,4.77,2.225,6.977.646,2.316,2.458,3.9,3.518,5.943,3.285.893,6.81.207,10.012,1.673C1672.111,1209.2,1673.771,1209.257,1674.87,1207.348Z"/><path class="cls-1" d="M1651.727,1207.809c-2.33,2.545-1.114,5.914-.6,8.9.393,2.254,2.266,3.3,4.426,3.347,1.946.043,4.022-.632,4.189-2.832.265-3.471,2.015-6.868.643-10.433C1657.351,1206.034,1654.076,1205.249,1651.727,1207.809Z"/><path class="cls-1" d="M1660.386,1206.789l.047.011c-.007-.015-.015-.026-.022-.04s-.025,0-.036-.008Z"/><path class="cls-1" d="M1620.406,661.082c5.314.229,5.34.2,6.08,5.78.2,1.5,1.271,3.688-.134,4.4-4.219,2.153-1.434,4.658-.723,7.021.538,1.764,1.808,3.391,2.023,5.162.729,6.034,3.586,10.688,7.943,14.815,3.089,2.93,6.182,4.876,10.629,4.861,5.427-.014,7.83-5.961,13.036-6.146.08,0,.251-.276.222-.381-1.166-4.56,2.3-8.883.929-13.312-1.517-4.894-2.9-9.834-4.879-14.609-1.968-4.741-4.422-9.493-2.843-15.116.806-2.864-1.172-5.522-3.978-4.919-5.674,1.22-5.58-1.746-5.221-5.634a11.631,11.631,0,0,0-.464-3.7,7.55,7.55,0,0,0-5.054-5.624c-1.8-.588-3.3.777-4.254,2.262-1.507,2.353-2.106,4.934-.516,7.489,1.5,2.414,3.267,4.741,6.531,4.571,3.024-.156,4.364,1.942,4.919,4.113a10.2,10.2,0,0,0,3.333,5.376c-7.377,2.658-7.867-2.45-8.314-8.273-1.543,3.017-1.118,4.89-1.125,6.7-.007,1.713-.457,3.049-2.229,3.677-2.1.741-4.378,1.568-6.132-.236-1.633-1.685-1.55-3.932-.606-6.135,2.585-6.016,2.57-11.7-2.265-16.75a6.158,6.158,0,0,1-1.706-2.752c-.494-2.469-1.957-3.1-4.491-2.258a16.685,16.685,0,0,1,.737-1.783c.737-1.245,1.408-2.475.348-3.877a1.767,1.767,0,0,0-2.011-.835c-1.8.617-1.419,2.178-1.379,3.551.072,2.744-1.216,3.942-3.9,4.872-3.43,1.19-7.434,2.729-7.71,7.195-.28,4.5.181,9.086,2.534,13.145C1612.114,657.837,1615.334,660.861,1620.406,661.082Z"/><path class="cls-1" d="M1681.209,1201.194c1.862.919,4.193,1.732,5.529-.217,1.608-2.342,3.775-4.041,5.525-6.139,2.109-2.527,2.748-5.841,3.075-9.2a5.754,5.754,0,0,0-2.461-3.732,9.317,9.317,0,0,0-11.385,1.971c-2.287,2.846-3.285,6.411-4.313,9.678C1676.283,1196.41,1678.036,1199.626,1681.209,1201.194Z"/><path class="cls-1" d="M1659.416,710.192c-.526-.686-1.8-.119-2.533.52a3.188,3.188,0,0,0-.952,3.8c.487,1.264,1.736,2.3.973,4.077a7.92,7.92,0,0,0,2.077,4.879c1.59,1.986,3.5,3.845,6.356,2.6,2.948-1.289,2.966-3.659,2.625-6.636C1667.338,714.059,1661.961,713.529,1659.416,710.192Z"/><path class="cls-1" d="M1696.035,793.162c.134.04.236.2.352.3,2.186,2.016,4.727,3.329,7.627,2.1a8.1,8.1,0,0,0,5.29-7.634c0-5.631-2.455-12.514-8.7-14.529-2.244-.726-2.276-1.862-2.418-3.721-.17-2.3,1.449-4.857-1.212-7.667a15.858,15.858,0,0,0-.752,7.024c.189,3.638-1.165,5.631-4.962,4.037-2.883-1.205-3.7-.362-3.518,2.473C1688.183,782.522,1686.792,790.334,1696.035,793.162Z"/><path class="cls-1" d="M1739.2,1813.176c-4.828,3.684-9.762,2.207-11.41-3.456-.181-.621-.261-1.275-.969-1.395-1.176-.2-1.772.607-1.913,1.583-.508,3.482-2.087,2.011-3.823,1-3.826-2.24-5.837-6.033-8.077-9.522-12.223-19-23.4-38.619-34.045-58.535-.948-1.773-5.3-10.629-11.182-22.666.07-.1.14-.192.211-.278,4.515.236,9.031-.264,13.77-5.695,1.263-1.448,5.057-2.138,7.544-2.516,13.406-2.051,18.616-5.946,20.9-15.559a4.791,4.791,0,0,1,.937-1.449c4.542-5.837,8.008-13,17.505-9.939a6.308,6.308,0,0,0,6.807-2.741,73.906,73.906,0,0,1-7.145-3.053c-2.893-1.6-3.394-3.863,1.035-5.892,6.723-3.079,6.407-4.8.352-5.831-1.55-.261-3.4-.424-3.115-2.174s2.262-2.178,3.9-2.632,3.315-.708,4.894-1.285c1.975-.719,5.1-1.292,4.505-3.521-.573-2.153-3.674-1.061-5.514-.171-4.807,2.316-8.92,2.233-11.653-.7-3.014-3.242-7.225-5.384-10.884-8.1.643-.511,1.038-.867,1.477-1.172,2.269-1.568,7.174.613,7.2-3.318.026-3.42-4.29-1-6.734-1.027a39.726,39.726,0,0,1-4.592-.327c1.619-5.413,3.1-11,4.393-16.659-1.362-1.983-2.505-4.233-3.7-6.31-.965-1.685.225-3.4,1.783-4.327,1.851-1.1,2.864.432,3.724,1.735.015.022.022.043.037.065.7-3.71,1.31-7.434,1.826-11.141,1.793-2.98,4.77-4.131,9.5-3.964a2.024,2.024,0,0,0-2.414-2.276c-6.531.577-2.919-3.918-4.222-5.841-1.438-2.117,1.829-2.9,4.211-3.46,1.873-.44,3.79-1.3,3.717-2.8-.094-1.927-2.418-2.189-4.578-2.185-3.321,0-5.573-1.492-3.711-4.872a3.193,3.193,0,0,1-.412-2.5c.265.128.526.263.791.389.251-2.628,2.842-3.486,6.418-2.938,3.086.472,6.172,1.67,9.805-.265-4.229-1.056-8.251-1.9-12.092-3.107-1.387-.44-3.608-1.242-2.567-2.937.734-1.195,2.672-.886,4.168-1.013,2.309-.2,4.738,1.6,7.188-.69-2.617-1.412-5.721-1.115-8.589-1.51-1.848-.254-5.141-.552-3.725-2.505,2.48-3.42.694-3.133-2.951-2.806a.907.907,0,0,1-.686-.214c-.088-.425-.182-.839-.273-1.257a.8.8,0,0,1,.8-.49c8.5.236,4.832-1.978,2.247-4.447a3.033,3.033,0,0,1,.512-5.093c2.832-1.837,3.613.853,5.224,1.634,1.54.744,3.961,1.582,3.75-.476-.838-8.219,5.42-3.518,10.441-2.483-2.788-2.988-5.5-5.05-6.836-7.508-2.272-4.182,4.476-3.63,6.346-5.169-.69-2.349-4.153-1.423-5.257-3.961,8.288-.693,5.054-7,9.043-10-1.833-.988-3.848,1.147-5.572-.269-.781-1.467,4.207-2.552.534-3.608-8.88-2.56-3.235-5.246-1.757-8.245,2-4.044,5.307-1.027,8.059-.617,1.223.181,2.279,1.27,3.786.537-.352-2.007-3.049-2.661-4.766-3.114-9.207-2.448,2.014-6.3-2.611-9-.192-.113.273-1.322.828-1.5a17.571,17.571,0,0,1,3.721-.5c1.376-.124,3.046,1.081,4.309-.226-1.543-2.476-7.685-.04-7.932-3.953,4.059,1.848,5.845,2.2,5.994,1.252.355-2.279-2.382-2.7-4.651-3.5-4.821-1.695-5.147-3.256-1.372-5.395,1.151-.653,3.1-.744,3.238-2.526-5.794.8-10.382.45-8.821-5.1.275-.98-1.26-2.294-2.839-2.57-5.123-.893-3.271-2.991-2.4-4.759-3.427-.374-4.5,3.176-8.023.806-3.743-2.52-2.668-7.628,1.993-7.816,7.453-.305,10.437-3.551,14.474-6.5,2.291-1.677.773-3.787,2.5-5.264,3.906-3.355,2.664-7.54-1.921-11.907-1.354-1.289-2.149-4.226-1.139-4.705,4.85-2.316.508-3.017-2.527-3.859-3.442-.951-5.2-1.833-2.868-3.852,1.347-1.169,1-3.158,4.008-3.525,2.875-.352,4.015,1.659,5.826,2.661a22.947,22.947,0,0,1,.737,3.162,2.267,2.267,0,0,0,1.1,1.43c2.643,1.318,2.461,3.74,2.5,6.067.137,9.289,6.265,18.427,14.688,21.868,4.49,1.837,7.968.153,9.435-4.516,1.488-4.734.385-9.569.711-13.366-.827-8.4-6.578-12.365-11.217-17.07a2.6,2.6,0,0,0-2.149-.624c-5.6,1.775-8.768-.069-10.234-5.849-.552-2.178-2.81-2.86-3.776.026-.791,2.352-1.452,2.04-2.628.475-.919-1.219-1.909-2.41-2.908-3.594a32.187,32.187,0,0,1,9.762-2.911,3.628,3.628,0,0,0,.45-.142c.806-.221,1.641-.61.821-1.332a7.2,7.2,0,0,0-2.712-.915c-2.476-.519-3.1,1.485-4.876,1.194-1.31-4.966,3.057-6.883,9.541-8.578-8.8-1.626-15.629-4.374-15.7-9.054-.072-5.024,7.072-5.26,14.3-4.458-6.592-2.2-6.647-2.232-3.481-4.734a14.666,14.666,0,0,0,4.334-4.926c-3.546-.508-4.392.712-5.046,2.167-1.314,2.916-4.639,4.092-10.342,3.119-1.83-.313-3.863-.625-2.186-1.968.4-.319,1.293-.6.218-1.042-5.26-2.16-2.243-6.694-9.529-8.5-2.218-.548-.458-1.445.09-1.881,3.239-2.566,8.742-1.844,15.93.051-5.021-2.225-4.777-5.224-9.4-6.7,3.917-1.129,8.517,2.1,12.231,1.961-1.8-1.877-3.805-1.776-5.58-2.389-.886-.3-2.683-.69-2.349-1.159,1.75-2.464-3.586-3.256-5.1-4.784.294-1.06,4.476.134,2.523-1.438-3.3-2.653-1.612-3.318-.12-4.327.6-.407.878-1.089-.726-1.8-1.351-.6-2.062-.33-2.255.422-.283,1.118-.7,2.189-1.071,3.3-2.454-2.708-2.076-4.781.124-5.776.98-.443,3.51.106,4.305-.334a10.067,10.067,0,0,0,5.99-.486c5.105-1.91,6.4-6.437,3.848-11.341a11.126,11.126,0,0,0-4.875-4.959c1.252-.2,2.505-.4,3.739-.592a28.7,28.7,0,0,0-6.709-.813h-.029c.857-1.746,2.023-3.2,3.282-3.238,4.331-.106,6.386-3.278,9.134-5.711,4.331-3.83,4.73-7.874.643-12.2-.948-1.006-1.79-1.528-.672-3,3.038-3.986,4.422-9.163,8.745-12.227a3.577,3.577,0,0,0,1.46-4.08c-.44-2.044-1.924-2.113-3.587-2.088a10.806,10.806,0,0,1-2.752-.417c-8.045-2.026-7.486-1.634-12,4.618-2.668,3.7-8.023,5.34-9.308,10.531a11.36,11.36,0,0,0-5,2.476c-.033-.029-.062-.058-.094-.087-2.3-2.019-6.077-4.738-4.676-6.618,1.267-1.7,4.984-.124,8.056.632.272.065.461-.077.994-.182-3.329-2.066-3.623-3.874-2.969-5.024.682-1.2,4.661-.073,5.4-1.329-1.685-2.022-4.241.988-7.134-3.608-2.538-4.037.011-3.587,2.89-3.761.181-.011-.142-.52-.2-.7-1.583-1.161-1.833,1.209-4.059-1.357-1.118-1.289-3.071-2.487-1.848-3.278,2.676-1.736,1.877-4.306-2.377-7.936a7.316,7.316,0,0,1,1.375.178c6.085,1.88,7.987-.2,10-1.518,1.223-.806.443-2.911,3.757-2.505.835.1-.392-.914-1.4-1.608-3.9-2.668-3.884-3.608-.105-3.2,1.695.185,3.387.377,5.064.566-2.243-.831-4.487-2.436-6.3-2.4-1.772.04-2.494-.163-2.767-1.063.984-.229,1.968-.461,2.934-.737,3.238-.933,5.365-3.014,4.541-6.47-.791-3.314-3.474-4.559-7.322-4.123-.577.279-2.12.522-2.4,1.252-.609,1.579-1.172,3.191-1.633,4.828-.7-.584-1.4-1.165-2.051-1.739a4.283,4.283,0,0,0,.472-2.381c-.171-2.077-1.282-3.467-3.62-3.427-.907.014-2.287.16-1.869-1.242,1.394-4.69-4.233-8.5-2.026-13.533a9.329,9.329,0,0,0-.889.98c-.665.944-.788,3-2.255,2.436-2.113-.813-.174-2.36.1-3.482.929-3.754-.171-7.071-3.1-9.057-2.628-1.775-4.287-3.442-5.013-6.7-.654-2.948-3.17-5.438-6.586-4.476-3.706,1.042-3.975,6.077-3.155,7.529,1.765,3.119.237,4.1-1.147,6.244a19.9,19.9,0,0,1-3.481,4.339,6.028,6.028,0,0,1-.864-1.619c-.007-.019-.621-.262-.977-.411-.588.632.12,1.638.926,2.727a8.069,8.069,0,0,1-5.768,1.259,2.414,2.414,0,0,0-1.71.675c-2.926,2.883-5.308,1.191-7.675-.82a32.944,32.944,0,0,0-3.924-3.3c-1.862-1.125-3.612-5.267-5.783-2.392-1.949,2.581,2.193,3.753,3.928,5.209,2.7,2.273,7.678,3.616,7.624,6.978-.059,3.706,1.372,5.1,3.416,6.182-.342,5.031,5.2,12.111,15.475,18.743,1.979,1.278,2.309,2.015,2.2,3.119-.138,1.459-1.884,2.381.4,4.82,1.289,1.376,1.565,2.607.2,3.083-1.622.566-3.47-1.834-5.659-2.026.991,1.684.584,2.919-1.394,3.2-3.427.49-2.712,2.868-2.589,5.035.247,4.23,6.027,8.5,11.958,12.471,4.012,2.686,4.93,3.673.868,3.975-3.554.265-8.052,1.4-7.192,3.4.984,2.284,1.7,4.851,4.121,7.45a4,4,0,0,1-.617-.2c-.988-.431-1.63,1.155-.883,1.856,1.514,1.408.955,3.176,1.337,4.773.068.3.156.578.239.861-3.271.856-4.385,3.082-4.28,6.022.076,2.11.087,3.856-5.387,2.818,5.02,2.181,9.34,4.61,8.531,7.035a4.414,4.414,0,0,0-.211,1.089,30.175,30.175,0,0,0-4.338,3.678c-2.323,2.406-7.21,2.831-8.215.98-2.915-5.373-7.246-9.439-10.815-14.166a4.587,4.587,0,0,1-.947-4.744c.806-2.146-.113-3.576-2.353-3.21-1.637.269-2.817-.954-4.5-.766,1.641,6.506,7.9,9.922,10.071,16.032-.5.072-.941.163-1.384.192-1.092.073-2.439.036-2.835,1.173-.577,1.659,1.151,1.452,2,1.876a3.327,3.327,0,0,1,1.706,2.622c.33,1.586,1,3.26,2.552,3.674,3.391.911,7.961.881,2.745,5.79-.236.221-.051.9-.048,1.365.026,5.638,5.228,10.023,11.773,9.925a14.44,14.44,0,0,0,3.67-.5,5.292,5.292,0,0,0,1.445,2.959c1.877,2.1.392,2.806-1.256,4.432,7.134-.73,8.186,3.837,13.291,5.515-9.3.025-10.452,2.592-9.563,19.981-2.279-.382-4.654-2.349-6.912-1.434,4.684,3.06,5.166,3.361,1.667,5.525-2.4,1.477-3.892,2.581-1.913,5.464.628.918,2.261,4.011-5.112,2.65,6.818,2.276,10.738,3.858,8.836,6.98-.2.334-.312,1.072-.141,1.14,8.2,3.257,1.277,4.469.849,6.557-.276,1.361-4.055,2.254.617,4.3,1.173.516.058.922-.664,1.14-4.774,1.441-4.32,4.5-2.919,7.769.675,1.576,1.471,2.694-1.572,3.383-3.557.81-5.616,9.04-3.644,11.538-1.964,1.288-4.469-1.939-6.985-.309,8.244,2.374,11.5,5.895,10.157,10.862-.533,1.971,2.07,1.982,3.95,1.561,5.663-1.271,7.017,1.045,7.126,3.92.131,3.54,1.1,6.673-4.32,9.642-7.645,4.182-6.251,5.188-13.254.291a6.364,6.364,0,0,0-1.8,0,7.881,7.881,0,0,1-.069,2.818c-.984,2.523,6.342,7.623-4.342,7.307-.9-.025-.45.919.182,1.22,3.8,1.8,1.611,3.362.083,4.694-1.506,1.318-1.913,3.626-1.23,4.2,7.754,6.495.994,9.1-5.972,11.926-.973.392-2.585.686-1.884,2.712,7.62-2.966,15.051-1.459,22.943.784-3.452,1.8-6.662,3.423-9.678,5.169-3.87,2.237-3.819,7.109-11.018,7.639.163.345.181.769.512,1.023,2.508,1.892.428,3.289-.792,4.963-.406.559-.777,1.118-1.118,1.673-9.777.145-22.455,1.43-37.244,3.668q2.035,1.331,4.068,2.663c-.272.009-.544.012-.817.025a7.36,7.36,0,0,0-2.578.446,7.614,7.614,0,0,0-3.044,3.068,193.265,193.265,0,0,0-27.472,64.778c-1.016,4.6-1.987,9.482-5.161,12.957-1.821,1.994-4.241,3.363-6.083,5.338-4.493,4.819-4.63,12.68-1.4,18.424s9.209,9.532,15.5,11.495c3.4,1.061,7.009,1.686,10.031,3.571s5.348,5.543,4.3,8.949c-.724,2.362-2.83,3.989-4.818,5.456l-13.417,9.9c-1.833,1.352-3.88,3.2-3.5,5.442.583,3.468,6.2,3.536,8.546,2.1,1.2-.735,2.13-1.853,3.3-2.645a7.433,7.433,0,0,1,5.5-1.135c2.51.479,4.563,2.2,6.719,3.574a26.607,26.607,0,0,0,6.9,3.11c-.1,2.788-1.929,5.16-3.185,7.651s-1.815,5.882.224,7.786q2.018-3.957,4.034-7.913a2.432,2.432,0,0,1,2.271-1.71l3.452-.571a1.811,1.811,0,0,1,1.173.069c3.534,1.96-2.57,14.608-3.274,16.984a7.069,7.069,0,0,1-.936,2.2,7.894,7.894,0,0,1-1.8,1.591,33.813,33.813,0,0,0-8.811,9.565c2.2.832,4.561-.572,6.495-1.913l15.5-10.747c-.218,1,1.245,1.659,2.137,1.159a4.067,4.067,0,0,0,1.556-2.548l2.343,4.632,1.242-3.582.789,14.459c.083,1.534.328,4.473,2.4,4.662,2.391.217,1.121-1.267,2.2-2.151,2.769-2.272,3.826-3.088,7.883-2.736,21.373,41.435,43.483,83.671,53.955,100.349,2.007,3.2,5.1,6.233,4.835,10.441-.544,8.713,4.19,14.793,10.081,20.065,5.976,5.347,11.356,3.953,14.14-3.525,4.241-11.37,1.434-22.457-2.432-33.228C1744.826,1809.237,1744.212,1809.346,1739.2,1813.176Z"/><path class="cls-1" d="M1729.731,1610.8c-3.325-2.966-6.879-1.427-7.736,3.067-.377,1.986-.435,4.048-1,5.965-.45,1.518-.686,3.888-2.635,3.856-1.594-.022-1.039-2.3-1.565-3.522a18.785,18.785,0,0,0-1.383-2.861q-.839,4.438-1.844,8.837a15.721,15.721,0,0,0,3.122,3.5c3.5,2.77,7.075,5.206,9.529,9.054,1.8,2.828,4.393,5.293,7.722,5.576,5.59.472,8.3,4.324,11.225,8.136.947,1.238,1.793,2.545,2.733,3.786.588.785,1.332,1.395,2.356.737a2.08,2.08,0,0,0,.679-2.5c-.305-1.3-1.347-2.03-2.233-2.9-4.962-4.9-8.215-10.466-7.115-17.835a58.508,58.508,0,0,0,.152-6.927A46.726,46.726,0,0,0,1729.731,1610.8Z"/><path class="cls-1" d="M1758.915,1476.823c-.425,2.632-.635,4.48-1.035,6.284a8.628,8.628,0,0,0,1.431,6.687c1.43,2.251,3.245,5.057,6.218,3.482,3.3-1.75,2.908-5.373,1.7-8.336C1765.776,1481.365,1762.422,1479.448,1758.915,1476.823Z"/><path class="cls-1" d="M1845,1325.412c-3.616.214-7.715,3.343-7.348,5.569.857,5.224,5.017,2.635,7.714,3.227,3.315-.349,5.028-2.106,4.5-4.763C1849.352,1326.886,1847.78,1325.245,1845,1325.412Z"/><path class="cls-1" d="M1826.453,1666.905a2.159,2.159,0,0,0-2.5-.9c-4.832,2.37-6.2-1.728-8.415-4.331-1.049-1.238-1.249-3.794-3.361-3.4-3.38.617-4.506-1.714-5.686-3.79-3.1-5.446-5.409-11.12-5.594-17.6-.138-4.908-.708-9.472-5.754-12.873-2.951-1.99-5.431-3.91-8.992-5.159-4.738-1.659-7.914-6.287-11.377-10.012-7.235-7.776-13.037-16.6-18.311-25.79-2.037-3.543-4.084-6.963-4.117-11.25-.022-2.429-1.361-4.443-2.933-6.229a5.087,5.087,0,0,0-5.126-1.565c-2.03.454-2.248,2.338-2.5,4.066a9.221,9.221,0,0,0,4,9.362,22.921,22.921,0,0,1,5.74,6.045c4.414,6.418,9.206,12.619,13.152,19.316,5.26,8.923,12.169,17.084,14.093,27.714,1.782,9.849,7.017,17.1,15.919,21.771,1.608.845,2.849,2.4,4.229,3.663,6.055,5.558,9.736,12.9,14.568,19.374,1.38,1.848,1.22,4.455,2.251,5.863,3.209,4.389-3.478,12.605,5.7,14.4.232.047.229.9.486,1.267,2.208,3.184,5.7,3.91,9.025,3.51,3.384-.41,4.52-3.659,4.919-6.658a70.826,70.826,0,0,0,.185-8.393C1835.347,1677.839,1830.657,1672.488,1826.453,1666.905Z"/><path class="cls-1" d="M1849.436,1385.54c-.258,1.833-.327,3.692-.385,4.356a14.525,14.525,0,0,0,4.255,9.388c4.244,4.284,8.342,3.3,9.979-2.53a4.81,4.81,0,0,1,3.373-3.779,5.622,5.622,0,0,0,3.677-7.148c-1.02-3.74-4.457-4.723-7.445-3.863a12.379,12.379,0,0,1-7.5-.294C1852.071,1380.686,1849.93,1382.026,1849.436,1385.54Z"/><path class="cls-1" d="M1861.957,1339.454c-.331-3.678-4.219-6.891-7.773-6.419-3.3.439-6.629,4.026-6.44,6.93.24,3.721,4.259,7.043,8.063,6.662C1859.833,1346.224,1862.305,1343.342,1861.957,1339.454Z"/><path class="cls-1" d="M1619.505,1964.2c.545-4.305-1.318-8.244-2.069-12.336-1.064-5.793-8.789-9.685-13.868-7.209-2.857,1.39-3.587-.207-4.349-2.265-.334-.9-.686-1.884-1.913-1.445a1.338,1.338,0,0,0-.621,1.978,18.936,18.936,0,0,1,1.7,13.944c1.162,8.528,9.192,14.982,17.171,14.569a3.93,3.93,0,0,1,2.919,1.125c1.249,1.053,2.6,2.977,4.236,1.009,1.362-1.63.352-3.583-.737-5.14C1621.033,1967.081,1619.244,1966.272,1619.505,1964.2Z"/><path class="cls-1" d="M1583.653,1761.807c-1.347-2.577-3.478.229-4.967-.994-1.554-1.278-3.209-2.433-4.745-3.729-.784-.661-1.1-1.946-3.147-1.612a13.361,13.361,0,0,1-.435,6.985c-3.086,7.834-.2,20.246,5.91,25.691,2.69,2.393,5.87,4.081,9.373,2.451,3.725-1.735,6.356-5.137,6.146-9.228C1591.41,1774.023,1586.949,1768.106,1583.653,1761.807Z"/><path class="cls-1" d="M1832.341,1336.1c-3.732.573-5.6,3.224-4.937,6.988.7,3.921,4.879,7.105,8.455,6.023,3.336-1.006,4.98-3.62,4.574-7.148A7.007,7.007,0,0,0,1832.341,1336.1Z"/><path class="cls-1" d="M1615.308,1834.612c-.983-.762-2.21-1.819-3.2-.388-2.948,4.258-6.426,8.393-4.945,14.288,1.184,4.179,3.264,7.9,7.155,10.365,2.36,1.492,4.756,3.568,7.653,1.732,2.944-1.866,4.059-4.825,4.008-8.39C1625.862,1844.207,1621.121,1839.11,1615.308,1834.612Z"/><path class="cls-1" d="M1571.041,1751.472c2.443,2.359,5.333,4.265,8.807,3.042,3.772-1.325,4.473-4.937,4.788-8.433.585-6.524-1.829-12.532-5.195-17.621-5.369-8.132-7.888-8.361-16.605-3.867-2.544,1.315-4.367.821-6.3-.922q-4.259-3.822-8.542-7.616c-.94.033-1.884.061-2.828.094,3.7,3.351,7.348,6.767,10.884,10.307,1.078,1.078,2.505,1.953,2.654,3.71C1559.475,1739.2,1564.906,1745.551,1571.041,1751.472Z"/><path class="cls-1" d="M1172.712,497.182c.472-.112.762-.632,1.056-1.132.839-1.449,1.1-3.685,1.739-5.435a1.031,1.031,0,0,0-.09-.994.425.425,0,0,0-.483-.142,2.159,2.159,0,0,0-.509.388,8.5,8.5,0,0,0-3.263,4.356c-.2.563-.715,1.1-.178,2.153A1.276,1.276,0,0,0,1172.712,497.182Z"/><path class="cls-1" d="M1113.854,542.978c-.134-1,.4-1.009.727-1.259.185-.066.326-.106.453-.167.262-.12.628-.2.323-.9-.29-.668-.577-.377-.813-.363-.515.029-.973-.127-1.459-1.169-.628-1.332-1.191-1.053-1.18-.446a6.819,6.819,0,0,0,.987,4.2C1113.313,543.5,1114.061,544.5,1113.854,542.978Z"/><path class="cls-1" d="M1283.809,491.185c2.03,1.046.545,2.861,1.83,3.953l-.552.146c3.783.436.058,5.42,6.433,5.474.911,3.478,5-.018,6.553,1.863,4.436-1.594,5.46-3,6.135-7.181-.352-3.627-.828-1.5-1.83-5.678l-.817-1.931c-2.414,2.2-.813-4.081-3.877-1.993-1.372-.926-1.739-2.4-3.583-2.919a1.329,1.329,0,0,1-.105,1.452c-1.38.363-2.389-.809-3.409-1.118l-.276,1.372-2.675-.305c.457.454.178.959-.1,1.456l-1.659-.421c-2.04,1.532,2.109,3.452-1.5,3.961C1282.8,489.159,1286.3,490.96,1283.809,491.185Z"/><path class="cls-1" d="M1187.781,505.558a14.9,14.9,0,0,0,1.227,4.247c1.583,3.968,4.3,7.489,3.816,12.121a1.96,1.96,0,0,0,.294.955c.3.41.428.036.544-.229.146-.315.254-.7.6-.53a14.464,14.464,0,0,1,5.391,5.083c1.1,1.626,1.419,3.666,2,5.533.279.9.617,1.415,1.049,1.3.457-.12.269-.722.04-1.514-.367-1.263.04-2.472.635-2.229,1.833.748,1.87-2.367,3.115-2.828.283-.105.011-.98-.2-1.474-.741-1.735-.523-2.712.41-2.824,1.441-.174,1.565-1.837,1.343-4.1-.087-.89-.181-1.3-.806-1.7-2.058-1.317-4.193-6.654-4.066-10.048a2.8,2.8,0,0,1,.138-.908c.969-2.247.868-2.886-.984-5.209a4.086,4.086,0,0,1,2.2.119c.908.113,1.895.222,2.077-1.437a12.628,12.628,0,0,0-1.659-7.475c-.9-1.209-1.728-1.416-2.28-.388-.563,1.045-.37,2.483.363,4.069a18.341,18.341,0,0,1,1.586,3.166,2.579,2.579,0,0,1-1.829-.374c-1.637-.661-1.746-.977-1.4-3.572a18.2,18.2,0,0,0-.6-7.631c-1.053-3.783-2.7-7-4-10.615-.762-2.12-2.254-2.7-3.038-1.583-.193.269-.254.766-.625.694-2.85-.548-4.334,2.076-4.846,6.193-.291,2.341-.57,4.639-1.049,6.738a12.43,12.43,0,0,0-.389,3.779Q1187.284,499.3,1187.781,505.558Z"/><path class="cls-1" d="M1103.984,489.555c.355.512.8,1.34,1.107,1.1.363-.28-.2-1.093-.458-1.645q-2.727-6-5.561-12.15a3.413,3.413,0,0,0-1.87-2.051c1.442,2.773,2.349,5.318,3.395,7.805A37.316,37.316,0,0,0,1103.984,489.555Z"/><path class="cls-1" d="M1105.229,476.588c.287.486.457.78.628,1.063.374.614.73,1.718,1.176,1.489.378-.193-.025-1.191-.229-1.91-.116-.406-.283-.824-.432-1.234-2.018-5.707-4.882-11.177-7.456-16.895-.3-.683-.632-1.881-1.158-1.714-.4.131.072,1.231.323,1.819,1.793,4.157,1.869,8.313,4.338,12.332a8.25,8.25,0,0,1,.4,1.467c-.672-1.209-1.042-1.921-1.448-2.589-.215-.352-.505-.733-.716-.563-.167.139-.04.567.113.843,1.3,2.363,1.143,4.922,2.824,7.26a10.912,10.912,0,0,1,.937,2.647,8.031,8.031,0,0,0,.86,2.145c1.837,2.8,2.821,6.016,4.226,8.971.577,1.216,1.147,2.973,1.888,2.828.686-.131-.178-1.906-.5-3.024a2.962,2.962,0,0,0-.272-.7c-1.891-3.093-2.937-6.651-4.585-9.969C1105.494,479.532,1104.826,477.855,1105.229,476.588Z"/><path class="cls-1" d="M1247.111,492.467a49.777,49.777,0,0,0,4.676-15.3C1249.71,481.7,1248.712,487.533,1247.111,492.467Z"/><path class="cls-1" d="M1211.371,504.6c.087.44.523.981.592.792.334-.966,1.219-.385,1.561-1.416.729-2.218,1.579-4.291,2.428-6.553.091.436.149.661.178.879.479,3.721,1.812,6.189,3.841,7.061.653.279.907,1.016,1.194,2.018.893,3.13,1.837,6.2,2.792,9.388a3.14,3.14,0,0,0-.113-2.523c-.635-2.352-1.419-4.64-1.974-7.1-.371-1.623-.069-1.837.544-1.783a2.468,2.468,0,0,1,2.087,1.6c.752,2,1.634,2.106,2.825,2.709-1.238-2.037-2.124-4.077-3.463-5.1a1.632,1.632,0,0,1-.683-1.536c.022-.323.076-.817.2-.842.392-.073.694.53.944,1.121.77,1.819,1.717,2.868,2.832,3.253.432.149.755.055.918-.682.548-2.483-1.292-7.86-2.962-8.749-1.009-.541-1.423.443-1.946,1.542a17.188,17.188,0,0,0-1.659-4.251c-2.124-3.154-2.578-4.4-3.351-8.509-.014-.076-.043-.152-.058-.232a13.151,13.151,0,0,0-1.427-3.583c-.432-.846-.653.352-1.081.218-.8-.251-1.576-.861-2.382-.265s-.951,1.909-1.394,2.875a4.168,4.168,0,0,0,.537,4.545,5.992,5.992,0,0,1,.955,4.875c-.356,1.943-.141,2.454,1.118,2.887-1.009,1.684-1.938,3.423-2.984,4.911C1210.953,502.82,1211.189,503.684,1211.371,504.6Z"/><path class="cls-1" d="M1231.838,450.8a64.25,64.25,0,0,1-2.392-9.86c-.254-1.586-1.144-2.222-1.819-1.517-.7.726-.759,2.084-.218,3.771A21.961,21.961,0,0,0,1231.838,450.8Z"/><path class="cls-1" d="M1182.841,508.774c.98-.476,1.43-1.768,1.433-3.638a5.782,5.782,0,0,0-.74-3.365c-.639-.9-.933.116-1.311.283-.969.643-1.375,2.966-.911,5.014C1181.628,508.462,1182.162,509.1,1182.841,508.774Z"/><path class="cls-1" d="M1214.878,527.288c-.4.871-.029,2.738.806,4.023a6.971,6.971,0,0,0,.522.686,8.375,8.375,0,0,1,2.1,3.815c.127.574.4.933.758.951.4.026.563-.305.563-.969a10.827,10.827,0,0,0-.65-3.5,22.1,22.1,0,0,0-1.764-4.153C1216.322,526.791,1215.284,526.41,1214.878,527.288Z"/><path class="cls-1" d="M1103.635,481.191c-.813-4.658-3.009-9.2-4.973-13.835-.338-.8-.853-1.641-1.264-1.492-.541.192-.036,1.278.327,2.066.919,1.989,1.525,4.033,2.312,5.942A36.408,36.408,0,0,0,1103.635,481.191Z"/><path class="cls-1" d="M1225.551,452.254a15.018,15.018,0,0,1-2.113-4.549c-.512-1.822-1.354-1.83-2.062-2.047-.632-.193-.723,1.067-.788,1.967-.094,1.286-.327,2.451-.4,3.7-.108,2.015.81,4.73,1.478,5.293,1.173.991,2.606,2.12,3.7,1.826,1.125-.305,2.008-.661,3.079,1.445.243.471.6.577.827.17.262-.475.026-.994-.181-1.561-1.271-3.5-3.028-6.574-3.7-10.786-.054-.362-.254-.6-.446-.588-.229.011-.2.4-.178.748A26.645,26.645,0,0,0,1225.551,452.254Z"/><path class="cls-1" d="M1223.71,443.752c.236.468.6.683.8.084a1.911,1.911,0,0,0-.094-1.424c-.915-2.566-2.033-4.882-3-7.452-.49-1.289-1.529-3.682-2.465-2.07-.708,1.209-.269,4.607.755,6.023C1221.009,440.71,1222.523,441.374,1223.71,443.752Z"/><path class="cls-1" d="M1217.738,463.922c.425,1.013.207,1.775-.308,1.982-1.285.515-.737,2.944-.744,4.723a3.914,3.914,0,0,0,1.4,3.049c.849.857,1.6,2.255,2.519,2.741-2.977.091-2.984,2.661-2.436,7.362.345,2.992,2.534,5.747,3.525,4.694.345-.37.951-5.507.607-6.226-1.144-2.377-.647-3.437.261-4.305a1.185,1.185,0,0,0,.069-1.2c-.2-.563-.45-.625-.643-.294-.308.526-.755.21-1.169.12.9.1.549-3.442,2.015-1.739a.874.874,0,0,0,.145-.476c-.388-2.621.745-4.476-.021-7.337a4.193,4.193,0,0,1-.091-1.662c.279-2.011,0-2.534-1.282-3.456-.392-.28-.951.261-1.278-1.14-.646-2.766-2.345-5.475-3.684-5.9-.334-.109-.465.323-.3.911C1217.078,458.483,1216.617,461.25,1217.738,463.922Z"/><path class="cls-1" d="M1529.909,456.578c1.169-.167,1.057-1.235,1.579-1.863-.221.015-1.067-.53-1.412,0,.316-.066.476.185.632.425.044.769-.682.918-1.071,1.376l-.646-.443c.054-.8.991-.084.766-.97-1.024-.657-1.47.8-2.244,1.22C1527.757,457.761,1529.271,457.053,1529.909,456.578Z"/><path class="cls-1" d="M1626.453,466.975l-.269-.077c-.348-.933.708-1.226,1.024-1.822a2.564,2.564,0,0,1-1.311-1.212c-.954-.28-2.679-.509-3.361.6a3.147,3.147,0,0,0-1.006,2.374C1623.055,468.59,1624.848,466.917,1626.453,466.975Z"/><polygon class="cls-1" points="1527.492 484.524 1527.379 484.357 1526.784 484.687 1526.893 484.854 1527.492 484.524"/><path class="cls-1" d="M1626.66,476.058l-.465-.759c-.693,1.238-4.316,1.2-3.7,3.641.559,1.8,2.425,1.173,3.8,1.234.108-.922,1.031-.515,1.622-.813-.011-.2-.239-.207-.428-.334,1.056-.646-.065-.827.751-1.688l-.272-.076.592-.853C1627.31,476.94,1627.782,475.157,1626.66,476.058Z"/><path class="cls-1" d="M1631.7,449.484c2.124.418,3.431-.98,4.752-2.008.944-.689-.239-2.686,1.285-3-1.931-.584-1.009-2.519-2.559-3.456-1.942-1.3-3.47-1.169-5.569-.511-.929,1.227-2.628,2.072-2.592,4.033C1626.493,447.026,1629.771,448.362,1631.7,449.484Z"/><path class="cls-1" d="M1644.379,459.406l1.253-1.122-.53-.16c.776-.479-.632-.6-.422-1-.78.167-2.276.3-2.25,1.514C1643,459.881,1643.577,459.083,1644.379,459.406Z"/><path class="cls-1" d="M1518.115,468.441c.148.585.824.545,1.081.759-.925.723-1.517,2.28.026,3.006,4.222-.345,5.547-4.324,6.571-6.106l-.977-.251.581-.871c-2.607-.918-4.974-.966-7.094.443C1517.548,466.394,1517.374,468.064,1518.115,468.441Z"/><path class="cls-1" d="M1405.522,509.968c5.024-3.459,9.035-8.676,14.513-11.363-2.178-4.581-7.2-7.812-6.759-13.627-5.228-3.994-9.5-4.64-16.99-5.983-3.347,1.648-6.512,3.6-10.121,4.792C1377.122,497.952,1389.363,511.068,1405.522,509.968Z"/><path class="cls-1" d="M1631.067,455.754c-1.3.726-1.082,1.971-.752,3.278,1.318.918,3.315,1.938,3.972.82C1634.675,458.781,1633.891,455.231,1631.067,455.754Z"/><path class="cls-1" d="M1464.143,477.59c1.71.319,1.547-1.576,3.155-1.746-.882.316-.174-1.053.018-1.63l.65-.636c-1.289-.239-1-1.354-.726-2.327-.414.6-.882-.029-1.325-.1.112-.189.044-.6.356-.693l-1.6-.153c-.273-2.029-2.335.051-3.042-.9a5.355,5.355,0,0,0-3.239,4.008c.625,1.827,1.129,1.51,1.826,3.26C1461.617,476.05,1462.332,479.652,1464.143,477.59Z"/><path class="cls-1" d="M1467.407,510.1c-.12-.41-.937-.671-1.162-.181.338,1.419-.827,2.2-.693,3.572l-.614-.479c-.029,1.147.657,2.5.937,3.746-1.746-.592.436,2.1-.937,2.135,1.155.461,1.968,1.336,1.5,1.964,1.281,1.223,3.4,2.694,5.3,2.287,1.227.348,1.147-.508,2.414-.962L1473.8,522c.425-.181.679-.864,1.267-.45a3.47,3.47,0,0,1,.033-.594,5.071,5.071,0,0,0,6.029.9c1.819-3.292.5-5.1-1.031-6.807a3.253,3.253,0,0,0-2.508.038,8.842,8.842,0,0,1,.414-3.552l-.683-.152,1.057-1.728c-.737.33-1.1,1.561-2.037,1.241-.693-.479-.258-1.187-.341-1.778l-.269.671c-.864-.421.051-1.688-.882-2.36a1.463,1.463,0,0,1-.957.676,7.94,7.94,0,0,0-.92-2.313,11.891,11.891,0,0,0-1.172.4l-.284-.947a2.388,2.388,0,0,1,.065,1.033,7.418,7.418,0,0,0-2.04,1.249c-.157-.391-.208-.953-.551-1.11-.246.405.451.874.317,1.325-.108.106-.207.218-.3.331a1.582,1.582,0,0,1-.958-1.707l-.055-.181C1467.494,507.26,1469,509.22,1467.407,510.1Z"/><path class="cls-1" d="M1449.974,533.431c1.79.689.868-.008,3.032.555l1.071.109c-.592-1.5,2.091.624,1.669-1.129.694-.345,1.471-.145,2.052-.784a.831.831,0,0,1-.665-.385c.076-.66.828-.809,1.166-1.136l-.6-.44.653-1.038c-.29.084-.479-.148-.672-.392l.5-.566c-.33-1.2-2.029.061-1.586-1.554.374-.6-1.147.417-.784-.672-.875.6-1.452-.432-2.215-.163l.044-.258c-.926,1.467-2.592-1.223-3.823,1.395-1.822-.429-.933,2.05-2.113,2.268C1447.636,531.441,1448.112,532.185,1449.974,533.431Z"/><path class="cls-1" d="M1419.9,421.636c-.123-.664.443-1.22.327-1.906-.167.033-1.449.411-1.289-.573.65.631.835-.632.744-1.22l-.25.664c-.744-.265-.49-.94-1.1-1.416l-.254.672-.831-.606c-.033,1.412-.643,2.77.207,4.324A1.55,1.55,0,0,0,1419.9,421.636Z"/><path class="cls-1" d="M1512.869,484.97a1.014,1.014,0,0,1,.334.011A.558.558,0,0,0,1512.869,484.97Z"/><path class="cls-1" d="M1512.822,485.979a.568.568,0,0,1,.047-1.009c-.418.047-.879.309-.577.752A.922.922,0,0,0,1512.822,485.979Z"/><path class="cls-1" d="M1478.291,510.894a5.051,5.051,0,0,0-.287.635l.109.026Z"/><path class="cls-1" d="M1502.1,498.467l2.095-.689c-.312-.273-.025-.676.291-.741l.813-.487c-1.369-.791.875-1.077.773-2.061l-.247.145c-.693-1.311,1.086-1.441.908-2.716l.483-.631c-.3-.617-1.079-.381-1.616-.65l0-.334c.246-.145-1.285.2-1.26-.617-3.1,0-1.038,4.385-4.73,3.383-.345,1.819-2.567,2.356-1.707,4.353C1498.816,498.842,1500.66,498.772,1502.1,498.467Z"/><path class="cls-1" d="M1050.335,542.684c-1.2-.86-2.958-2.944-3.557-2.824-1.434.294-1.95-2.222-2.923-2.752a2.929,2.929,0,0,1-.316-.251,49.878,49.878,0,0,1-4.886-4.679c-1.216-1.3-.41.919-1.263.458-.265-.146-.015.86.414,1.67.7.49,1.532,1.234,2.105,1.118.69-.145,1.412.871,2.135,1.513-.229,1.282.958,1.776,1.564,2.3,1.238,1.082,2.93,1.75,3.609,2.737,1.379,2.015,2.694,2.3,3.957,3.747.726.835,1.34.276.991-.233C1051.555,544.587,1051.381,543.432,1050.335,542.684Z"/><path class="cls-1" d="M1595.879,470.743l-1-.022c0,.153.175.16.178.465C1595.389,471.2,1595.545,470.892,1595.879,470.743Z"/><path class="cls-1" d="M1596.826,468.478l-.178-.022C1596.717,468.54,1596.786,468.561,1596.826,468.478Z"/><path class="cls-1" d="M1593.073,443.912l1.027-1.834c-3.736.258-7.976,2.65-9.617,5.707l.087,1.053C1588.179,449.626,1591.174,446.21,1593.073,443.912Z"/><path class="cls-1" d="M1596.507,467.541a.3.3,0,0,0,.138-.279A.8.8,0,0,0,1596.507,467.541Z"/><path class="cls-1" d="M1595.97,468.365l.678.091a1.12,1.12,0,0,1-.141-.915c-.178.138-.476.178-.621.327C1596.068,467.988,1595.955,468.158,1595.97,468.365Z"/><path class="cls-1" d="M1528.258,515c-.011.458,0,1.256.66,1.434,3.968,1.467,4.869-5.206,9.49-1.735a8.117,8.117,0,0,0,5.707-2.966l1.72-.335c-1,.015-.78-1.4-1.4-1.745l1.176-.65-1.336-.265.61-1.666c-.585.319-1.957,1.187-3.152.606l.218-1.227c-.283-.418-2.49,3.154-3.1.374-1.6,2.236-5.257,3.492-4.9,6.556-.315.062-.566.534-.947.316l.388-1.133C1531.63,513.218,1529.082,513.185,1528.258,515Z"/><path class="cls-1" d="M1557.645,493.857c.715-.294,1.568.134,2.312-.156-.112-.16-1.005-1.35.178-1.445-.483.813,1.02.675,1.666.443l-.856-.087c.032-.813.9-.73,1.223-1.456l-.857-.083.389-.988c-1.634.323-3.409.058-4.879,1.307C1555.924,492.307,1556.719,493.342,1557.645,493.857Z"/><path class="cls-1" d="M1638.585,471.317c-.087.6-1.321.878-1.023,1.535.922.893,2.512,1.783,1.528,3.082a1.687,1.687,0,0,1,.955-.011,2.253,2.253,0,0,1,1.281,1.863c.425-.614.821-.719,1.2-.6a3.122,3.122,0,0,1,.9.563,3.045,3.045,0,0,0,.907.57c.385.12.788.029,1.235-.53a1.37,1.37,0,0,0,.359.17c.49.153.8-.13,1.1-.421s.6-.577,1.075-.428a.407.407,0,0,1,.072.025c.436-2,3.42-1.611,2.868-4.149,1.166-2.494-2.552-2.4-1.644-4.941-.059-.018-.124-.036-.185-.058a13.328,13.328,0,0,1-2.135-.969A14.26,14.26,0,0,0,1644.8,466a4.466,4.466,0,0,0-4.044.559c-2.306.334-.371,3.369-3.159,2.519A3.011,3.011,0,0,1,1638.585,471.317Z"/><path class="cls-1" d="M1621.578,497.9a1.237,1.237,0,0,0-.828-.1,1.476,1.476,0,0,1-.857-.106,1.718,1.718,0,0,0,.022,2.436,2.1,2.1,0,0,0,2.458-.279A1.786,1.786,0,0,0,1621.578,497.9Z"/><path class="cls-1" d="M1659.118,487.671l3.2-3.815-.425.061c.407-2.16.89-3.714.388-6.117-.493.356-.591,1.064-1.335,1.028-.567-.225-.432-.6-.545-.893-1.684-.5-1.042.9-.868,1.343-2.508,1.826-6.338,3.394-4.875,7.275A5.035,5.035,0,0,0,1659.118,487.671Z"/><path class="cls-1" d="M1528.487,643.638c21.939-30.69,10.448-39.417-3.866-68.693-4.577,1.649-17.857,12.42-22.274,11.875-8.242-1.018-14.61,4.879-21.228,9.111a30.89,30.89,0,0,1-5.784,3.019c-2.857,1.055-6.262-.148-8.79.769,1.695-6.784,12.412-15.057,15.143-21.469,2.095-.77,5.333.421,7.261-.635,1.543-10.633,10.437-14.082,15.327-24.087-6.458.334-10.459,4.886-14.111,10.049-9.094,4.541-16.95,11.217-28.12,12.194-2.324,1.723-4.45,3.782-7.08,4.976a5.844,5.844,0,0,0-1.1-2.7c-1.1-1.318-4.095-2.381-5.82-1.67a5.875,5.875,0,0,0-1.154.628c.262-.9.63-1.992.926-3.474-4.451-.621-3.769-6.723-4.513-10.76-4.164-1.561-7.108-2.752-9.921-5.961.232-4.414,3.114-10.081-.832-12.521-6.2-2.232-7.736,3.525-9.2,9.417-5.006-5.111,3.616-16.681-.12-22.388-2.018,8.847-4.36,17.574-5.812,26.312-4.265,4.444-10.008,6.339-14.826,9.831-5.834-4.53-2.258-13.519-8.607-17.806-2.233,6.356,5.924,10.567,2.16,15.81-6.48-4.636-3.322-16.707-9.631-19.564-.559,3.445,1.241,5.765,2.055,8.564-7.116-1.961-6.909-10.168-9.733-16.714-3.587-8.306-9.824-15.835-12.4-23.295a21.682,21.682,0,0,0-11.664-2.89c-4.333,7.376-1.873,14.445,2.4,21.183-4.787-3.955-9.414-8.521-13.616-6.339,1.089,4.709-2.048,7.228-6.408,7.01a7.31,7.31,0,0,1-1.707-1.268l.6-2.395c-.831.156-1.241-.824-1.038-1.394l0-1.913c-2.886,1.2-1.027-2.744-2.875-3.79v.581c-3.1-.534-1.445-3.525-3.924-4.8l-.617-1.562c-1.441-.261-1.859,1.257-2.9,1.783l-.617-.414c0-.57-1.028,2.262-2.476,1.234-2.617,3.833,3.159,6.011,2.819,9-7.89,9.525-13.159,2.418-24.913,11.836-6.644-2.1-7.845-11.352-10.252-17.789-3.561,1.924,1.619,4.3.929,6.7-13.032-13.723-16.3-33.388-28.218-48.944,1.173,3.718-5.808,5.6-6.255,5.014l15.178,35.217a85.29,85.29,0,0,1-32.87,32.161,5.408,5.408,0,0,1-.423-3.123,45.018,45.018,0,0,1,1.688-7.928c.454-1.2.755-1.637,1.558-.312a.532.532,0,0,0,.842.218,2.05,2.05,0,0,1,2.033-.047c.82.392,1.118-.574,1.125-1.671.018-2.327-2.236-7.7-3.645-8.592-.41-.262-.657-.167-.671-1.126-.015-.773-.461-1.049-.792-.991-.395.073-.076.711-.058,1.122a16.832,16.832,0,0,0,.661,2.4c-.722-.131-1.147.6-1.586,1.165-.218.28-.908.2-.592,1.253s.236,2.239.813,3.162a1.634,1.634,0,0,1,.283,1.4c-.414,1.045-.864,2.033-1.339,3.143a2.285,2.285,0,0,1,.134-1.568,9.728,9.728,0,0,0-1.031-6.2c-1.042-1.76-1.775-.512-2.578-.192-.635.258-.74,1-.4,2.352.465,1.87.048,4.124,1.576,5.438a.37.37,0,0,1,.033.178c-.469,2.175.7,1.721,1.267,2.244.221.207.664,0,.642.588a5.257,5.257,0,0,1-.475,1.833c-.225.519-.53-.127-.784-.377-1.111-1.1-2.219-1.485-3.246-.951-.766.4-1.14,1.561-2.407-.36-.994-1.506-2.708-1.568-4.3-2.374.367,1.078.694,1.26,1.089,1.4a2.562,2.562,0,0,1,1.688,1.336c.487,1.288.973,1.866,1.819,1.753-.3,1.26-.573,2.269-.787,3.322-.211,1.027-.807,1.358-1.355,1.369-.435.01-.25-1.173-.551-1.74-.1-.188-.127-.627-.2-.664-1.343-.675-2.581-2.715-4-2.53-.734.094-1.717-1.18-1.87-2.414-.054-.461-.062-.937.174-1.108.309-.221.458.219.607.705s.439.82.657.508c.29-.417-.142-.773-.309-1.064-.5-.863-1.27-1.513-.937-2.9.066-.28-.279-.792-.5-.777-.806.05-1.358-.959-2.011-1.8-.49-.632-1.017-1.419-1.634-1.612-.25-.076-.686-.359-.439.45.334,1.118-.163,1.024-.447,1.14a6.943,6.943,0,0,0-3.39,2.512c-.461-2.025-1.823-3.514-2.175-2.435-.632,1.949-1.782,2.791-2.806,3.934-.592.662-1.078,1.228-2.073.458-.944-.729-1.7-.221-2,.988a4.9,4.9,0,0,0,.592,3.858,5.2,5.2,0,0,1,.639,2.9,14.527,14.527,0,0,0,.065,3.293,7.356,7.356,0,0,1-.969-2.937c0-1.292-1.031-1.238-1.165-2.269a7.249,7.249,0,0,1-.069-.736c-.1-3.489-.973-4.93-3.057-4.538-1.993.37-3.885-.545-5.936-3.213.2-.523,1.064-1.1-.156-1.877-.8-.5-1.564-1.307-2.334-1.743a11.922,11.922,0,0,1-3.714-4.175c-.577-.911-.66-1.535-.236-2.134a9.12,9.12,0,0,1,2.084-2.258c.316-.218.8.033.047-1.34-.562-1.023-1.379-1.256-1.688-2.378-.871-3.169-3.223-5.285-3.532-8.963a.988.988,0,0,0-.261.7c.265,2.219-.324,2.153-1.3.621-1.136-1.771-2.476-2.846-3.626-4.588-.226-.341-.509-.824-.719-.693-.915.584-1.968.754-2.9,1.273a19.656,19.656,0,0,1-3.892,1.3.282.282,0,0,1-.254-.106c-1.267-1.336-2.011-.987-2.4.8-.142-2.269-.93-2.585-1.913-3.057a13.293,13.293,0,0,1-3.478-2,5.624,5.624,0,0,0-4.97-1.594,18.332,18.332,0,0,1-4.792.479,1.618,1.618,0,0,0-1.88,1.173,8.135,8.135,0,0,1-.478,1.048,44.269,44.269,0,0,1-4.267-8.592,1.481,1.481,0,0,0-1.891-.947,1.338,1.338,0,0,0-.853,1.884c1.684,3.4,1.9,7.163,2.529,10.835-.2.365-.538.512-.78.8-.276.327-.878-.043-1.049.621-.2.773-.607,1.061-1.1,1.117-.221-.5-.441-1.011-.656-1.523-2.237-5.308-7.482-8.659-9.228-14.271-.538-1.717-1.471-3.746-3.384-2.959-2.349.973-1.2,3.387-.207,4.7,1.848,2.443,2.567,5.261,3.587,8.008a49.479,49.479,0,0,0,2.172,4.985,2.569,2.569,0,0,0,.071.395,1.435,1.435,0,0,0,.646.988,42.1,42.1,0,0,0,6.187,8.633,5.423,5.423,0,0,0,1.391,1.175c.382.819.223,1.393-.226,1.486-1.144.236-.962,2.679-2.338,2.338a20.972,20.972,0,0,0-4.008-7.421c-.458-.555-.988-1.042-1.144-.381-.214.922-.461.164-.787-.414-.5-.885-1.253-2.4-1.638-1.964-.642.726-1.673.378-2.309,1.006-.148.149-.17.385-.12.762.287,2.1.542,4.179.836,6.5-1.01-1.118-1.718-3.158-2.821-3.075-.929.069-1.249,1.144-1.736,2.494-.265-2.41-1.43-3.8-2.4-5.492.131,1.118-.49,1.4-.352,2.447.065.486.475,1.277.011,1.285-.48.007-.741-.712-.988-1.369-.181-.486-.4-1.038-.788-1.085-.326-.037-.432.312-.424.755.011.609.12,1.292.087,1.858-.018.367-.076.886-.468.628a1.644,1.644,0,0,1-.549-1.3,4.465,4.465,0,0,0-.744-2.4,7.589,7.589,0,0,1-1.1-4.535,3.57,3.57,0,0,0-.864-2.762,4.153,4.153,0,0,1-1.147-1.964c-.16-.541-.545-.962-.842-.763-.258.171-.3.686.021,1.177,1.264,1.909.694,2.936.676,4.189-.007.6.091,1.55-.588,1.234a3.3,3.3,0,0,1-1.3-2.138,3.125,3.125,0,0,0-1.031-1.862c-.283-.189-.435-.076-.468.228a3.262,3.262,0,0,0,.516,2.041c1.993,3.045,2.138,5.808,2.563,8.574.079.516.315,1.336-.222,1.238a1.084,1.084,0,0,1-.537-.483c-.526-1.013.243-.486.3-.824a2.809,2.809,0,0,0-.607-2.276c-.758-.8-.406.508-.53.882-.149.447-.029,1.292-.276,1.529-.8.769-.678,1.713.57,3.441.679.937.748,1.845.073,2.051-1.263.381-1.292,2.207-.174,4.534.4.835,1.2,2.295-.225,1.525-.338-.181-.334.265-.186.708.505,1.506,1.921,1.989,2.3,3.634.08.015.16.025.239.047.273.073-.109-1.361.509-.3.464.8-.215.639-.432.846-.186.177-.353.388-.53.581-.5.537-.955,1.154-2.062-.251-.393-.493-.933-.588-.864-.156.334,2.1-1.024,1.307-1.725,1.59-.319.127-.577.2-.6.737-.018.457.106,1.136-.548.683a1.959,1.959,0,0,1-1-1.5,1.387,1.387,0,0,0-1.024-1.183c-.62-.048-.116.707.1,1.259.425,1.1.729,2.091.3,2.752a.751.751,0,0,0-.1.29c-6.2-8.567-12.5-17.072-16.8-26.878-.512-1.166-1.568-2.214-2.969-1.336-1.376.868-.846,2.182-.145,3.278a21.162,21.162,0,0,0,1.731,2.189c5.4,6.386,8.716,13.85,11.544,21.626a69.743,69.743,0,0,0,4.858,10.476,4.486,4.486,0,0,1-1.315-1.219c-.414-.537-.987-1.056-1.205-.617-.3.606.388,1.06.78,1.477.334.356.472.654.338.937s-.407.163-.657-.236a10.293,10.293,0,0,0-1.772-2.094c.719-.429.661-1.159-.446-2.19-.991-.922-2-1.786-3.01-2.635s-1.619-.991-.864.878c.621,1.536.167,1.51-.7,1.017a9.937,9.937,0,0,1-3.151-2.483c-.926-1.144-1.855-2.68-2.465-1.318-.084.181-.962-.5-1.459-.944a3.928,3.928,0,0,0-1.387-.973c-.719-.16-1.3-.81-2-1.746-1.3-1.745-2.64-3.6-4.214-4.458a8.878,8.878,0,0,0-1.46-2.661c-1.3-1.874-2.871-3.01-4.156-4.836-2.349-3.343-4.542-6.941-7.072-10.263-2.3-3.023-4.324-6.744-7.17-8.549-1.71-1.085-3.205-3.528-4.846-5.253-3.268-3.427-6.357-7.729-9.747-11.159-.378-.381-.85-.988-1.032-.636s.291,1.057.621,1.449c1.9,2.251,3.772,4.723,5.674,6.545a28.633,28.633,0,0,1,5.184,6.981c.6,1.068.65,1.808.255,2.11-.436.334-1.362-.037-.639,1.728.2.479-.284.293-.629-.1-2.374-2.679-4.773-5.384-7.191-8.142a3.744,3.744,0,0,1-.639-1.075,14.391,14.391,0,0,0-3.314-5.09c-7.649-8.552-15.592-17.4-23.837-26.617a22.037,22.037,0,0,1-1.51-2.018,10.923,10.923,0,0,0-1.728-2.149c-2.312-1.925-4.458-4.92-6.712-7.424-.567-.628-1.235-1.638-1.456-1.144-.236.519.6,1.434,1.078,2.091a18,18,0,0,0,1.623,1.975c2.374,2.447,4.581,5.423,6.908,7.947,2.57,2.788,4.937,6.287,7.6,8.93,2.036,2.022,3.663,5.173,5.917,7.286,1.67,1.568,3.423,3.885,5.155,5.74a26.475,26.475,0,0,1,3.627,4.567,83.079,83.079,0,0,0,7.2,10.948,23.112,23.112,0,0,1-4.135-5.027c-.712-1.22-1.616-2.015-2.012-1.558-.428.494.291,1.8,1.024,2.81.334.461.784.769,1.107,1.23,1.2,1.71,2.8,3.177,3.482,5.148a3.74,3.74,0,0,0,1.721,2.24c1.2.694-.712-1.5.058-1.325a8.986,8.986,0,0,1,1.753,2.164c-.094.421-1.049-.588-.755.41a4.3,4.3,0,0,0,1.144,2.026c.424.388.846.816,1.267,1.147.689.541,1.713,2.483,1.935,1.753.268-.871-1.206-1.608-1.754-2.592-.054-.094-.069-.207-.051-.156a44.749,44.749,0,0,1,8.724,9.726,15.744,15.744,0,0,0,1.575,1.9c.741.777,1.619,1.993,1.917.82.1-.41.534.193.752.483,1.593,2.127,3.325,3.917,4.908,5.9,4.541,5.667,8.948,11.258,13.5,16.242.3.331.729,1.093.976.712.178-.273-.047-.911-.341-1.383a43.269,43.269,0,0,1-2.28-4.546,6,6,0,0,0-1.092-1.542c-2.7-2.956-5.58-5.526-8.172-8.985a34.741,34.741,0,0,0-4.32-5.028c-3.369-2.992-6.034-7.083-8.742-11.294-1.583-2.454-1.478-4.418.113-4.284a4.728,4.728,0,0,1,2.21,1.071,26.266,26.266,0,0,1,5.831,6.063c3,4.331,6.153,8.2,9.17,12.19.878,1.158,1.76,2.393,2.78,2.738,2.041,3.521,3.653,5.231,7.722,8.237a1.292,1.292,0,0,1,.323.508c.741,2.309,2.458,3.387,3.62,5.137.471.711,1.118,1.049,1.176.341.072-.915.417-.668,1.063.018a2.115,2.115,0,0,0,1.453.759c1.063.047,2.327,1.731,3.4,1.84.182.018.381.454.541.777a10.721,10.721,0,0,1,1.481,4.349,5.826,5.826,0,0,0,1,2.843c.418.66.882,1.6,1.376,1.343.381-.2.054-1-.28-1.706a21.714,21.714,0,0,1-1.666-5.743,34.767,34.767,0,0,1,4.291,6.164c-1.1-.842-1.619-1.053-1.572-.683.116.959.8.937,1.187,1.442a2.539,2.539,0,0,0,.389.348c1.663,1.419,2.145,2.476,2.051,4.407a2.834,2.834,0,0,0,.047,1.358,8.475,8.475,0,0,1,.932,4.182c-4.253-6.66-9.338-12.825-13.627-19.465-.471-.727-1.4-1.5-2.377-.886-1.474.925-.824,2.309-.106,3.241,2.461,3.212,3.547,7,4.939,10.671a17.616,17.616,0,0,0-4.612-4.815c-.465-.309-1.158-.914-1.246-.294-.072.534.614,1.082.984,1.6,1.318,1.834,2.741,3.544,3.968,5.613-2.36.308-4.944-3.173-7.362-4.24a2.953,2.953,0,0,0,.28.628,53.126,53.126,0,0,0,5.9,5.743c.461.359.936.21,1.408.813a13.907,13.907,0,0,0,4.456,3.5,66.716,66.716,0,0,0,9.587,14.528l.16.181c.273,1.26.332,2.36,0,2.7-.708.726-.508,1.816-.178,3.126a1.614,1.614,0,0,1-.051,1.169c-1.125,2.1-1.02,5.09-.65,8.208.28,2.378.109,1.812-1.543.653-2.123-1.492-4.269-3.35-6.432-4.24a46.657,46.657,0,0,0-7.159-6.461c-.57-.436-1.645-1.475-1.645-.861,0,.73,1.118,1.753,1.761,2.022,1.688.7,2.643,2.9,4.011,4.222.581.556,1,1.006,1.514,1.082s1.017.08,1.521.116a4.18,4.18,0,0,0,2.153,2.443c1.013.523,1.931,2.015,2.959,2.135.145.014.287.319.29.516.011,1.368.89,1.651,1.634,2.054.4.218.791.305,1.183.556a2.845,2.845,0,0,1,1.169,2.4c.1.98-.668.076-1.042-.149-3.194-1.924-6.422-3.943-9.678-5.91a20.693,20.693,0,0,1-7.126-7.032,8.974,8.974,0,0,0-1.137-1.314c-2.377-2.519-4.929-3.772-7.424-5.856a18.855,18.855,0,0,1-3.659-3.626,3.513,3.513,0,0,0-1.448-1.155c-1.543-.846-3-.922-4.651-2.548a1.881,1.881,0,0,0-.649-.469c-.3-.076-.817-.518-.814-.014,0,.4.425.733.712,1.027.864.893,1.732,1.772,2.6,2.625a3.671,3.671,0,0,1,1.369,2.523c-.091.839.406,1.144.911,1.586,2.156,1.877,4.3,3.692,6.407,5.573,5.5,4.9,10.692,10.437,16.152,14.31a8.614,8.614,0,0,1,1.15,1.108,1.532,1.532,0,0,1,.527.962c-.022.359-.371.17-.625.1a18.409,18.409,0,0,1-4.8-2.537,20.992,20.992,0,0,0-2.8-1.507c-.233-.1-.538-.239-.53.091s.315.555.544.773a8.882,8.882,0,0,0,1.946,1.376c4.788,2.581,9.518,5.478,14.18,8.509.6.389,1.495.654,1.227,1.78a1.5,1.5,0,0,0,.385.653,8.087,8.087,0,0,1,1.913,3.906c.337,1.143.025,1.6-.893,1.082-.726-.414-1.409-.559-2.139-1.013-2.494-1.554-5-3.107-7.54-4.429a68.423,68.423,0,0,0-8.516-4.037c-.97-.341-1.993-.889-2.963-1.22-.671-.225-1.212-1.234-1.895-1.339a13.994,13.994,0,0,1-4.784-2.186,91.5,91.5,0,0,0-10.183-5.427,27.876,27.876,0,0,0-3.213-1.521c-.319-.094-.726-.269-.628.243.091.468.472.6.755.748,2.229,1.187,4.447,2.458,6.665,3.765a100.927,100.927,0,0,0,9.657,4.766c3.311,1.518,6.6,3.689,9.845,5.486,2.639,1.466,5.249,2.846,7.841,4.214.505.265,1.093.683,1.133-.177.022-.407.559-.062.886.228,1.742,1.54,3.467,2.087,5.184,3.09a3.239,3.239,0,0,1,2.026,3.056c.032.414,0,.8.025,1.209.051.846-.236,1.126-1.024.969-2.556-.5-4.933-.508-7.83-1.942-2.015-1-3.932-.966-6.077-2.1-.962-.508-1.819-.414-2.807-.882-.628-.3-1.7-.911-1.575-.149.123.73,1.158,1.06,1.775,1.267a52.3,52.3,0,0,1,5.409,1.895c.349.16.607.083.821.849.123.443.816,1.768,1.506,1.1a1.079,1.079,0,0,1,1.06-.019,11.337,11.337,0,0,0,3.064.585,5.562,5.562,0,0,1,2.1.8c.563.356.98.509,1.4.327a1.409,1.409,0,0,1,1.641.7c.82,1.369,1.826,2.774,1.695,4.215a2.008,2.008,0,0,0,1.416,2.117,3.157,3.157,0,0,0,1.648.333,3.644,3.644,0,0,1,1.819.276c25.531,10.975,44.309,42.006,71.032,56.67a235.257,235.257,0,0,0,89.747,27.405c56.583,5.593,114-7.831,165.414-32.12C1482.821,686.485,1510.5,668.793,1528.487,643.638Z"/><path class="cls-1" d="M1651.077,445.662c.712-.153.4-1.1,1.274-1.115l-.232-.094c-.218-.5-.773-2.77-2.055-1.957-.65.831-2.338.951-1.782,2.61C1649.022,446.663,1650.046,445.259,1651.077,445.662Z"/><path class="cls-1" d="M1646.416,517.538c-.978,1.839-4.86-.34-6.919-1.08.3-.787,1.57-1.531-.53-1.727l.047-1.081a1.752,1.752,0,0,1-2.171-.828,4.881,4.881,0,0,0-4.687,2.907c-.443,1.06-.236,2.284,1.325,3.5a5.149,5.149,0,0,0,4.514.6l-.016.012c-1.238,1.6-2.563,3.761-1.931,6.037.9,1.7-3.475,7.562,3.935,4.407.251,4.32,4.44,0,6.683,2.621,2.153-.81,6.912-.16,1.7-6.618C1653.11,526.1,1651.037,519.5,1646.416,517.538Z"/><path class="cls-1" d="M1619.421,494.158a.7.7,0,0,0,.085-.1l.006,0c1.441.621,2.515,1.666,1.713,3.2a2.261,2.261,0,0,1,1.627-.153c1.216.374,1.982,1.9,2.831,2.956a1.51,1.51,0,0,0,.193.087c.875.268,1.572-1.115,2.468-1.086a3.106,3.106,0,0,1,.864.142,6.459,6.459,0,0,1,2.429,1.728c-.657-3.943,3.627-.614,4.716-3.616,4.323-3.99.21-8.379-.236-11.958a3.708,3.708,0,0,1-1.641-.084,4.053,4.053,0,0,1-1.975-1.677,3.976,3.976,0,0,0-1.9-1.655,3.506,3.506,0,0,0-1.83,0c-.069-.018-.138-.047-.211-.068-3.652-1.129-3.819,2.82-7.01,2.908.418,1.615-2.65,1.354-1.655,3.339-3.26,1.529,1.645,3.714-.207,5.232l0,0a1.09,1.09,0,0,0-1.782-.885c-.643.3-.185.875-.189,1.343A1.841,1.841,0,0,0,1619.421,494.158Z"/><path class="cls-1" d="M1643.16,494.532c-1.747.763-4.306.207-5.33,2.146.026.962,1.855,1.575,2.836,1.194,1.506-.439,2.3-1.5,3.281-2.418l-1.267.1c-.243-.225.073-.6.066-.813Z"/><path class="cls-1" d="M1051.073,469.269c.831-.479.73-1.3.5-2.051a18.312,18.312,0,0,0-4-7.293c11.213-2.973,10.422-14.594,4.541-20.435a9.219,9.219,0,0,0-9.446-2.512c-3.293,1.075-3.823,4.207-4.374,7.144-1.986,10.615,7.8,16.169,10.705,24.693A1.482,1.482,0,0,0,1051.073,469.269Z"/><path class="cls-1" d="M1025.584,517.269c2.367,2.639,4.767,4.145,7.112,6.4.323.312.715.53.708.1a2.492,2.492,0,0,0-.614-1.228,6.081,6.081,0,0,0-1.445-1.223c-.929-.726-2.138-1.071-2.537-3.046-.084-.4-.563-.773-.9-1.067-1.122-.987-2.251-1.989-3.38-2.959-.439-.377-1.089-1.089-1.259-.816-.28.449.6,1.154.9,1.753A9.543,9.543,0,0,0,1025.584,517.269Z"/><path class="cls-1" d="M1028.1,506.755c.334.244.719.5.745.084a1.606,1.606,0,0,0-.389-.893c-2.029-2.777-4.175-4.516-6.208-6.8-.817-.919-.824-.055-.747.591s.036,1.529,1.045,2.023a3.719,3.719,0,0,1,1.1,1.045A26.836,26.836,0,0,0,1028.1,506.755Z"/><path class="cls-1" d="M1046.077,473.477c-.465-.527-1.085-1.645-1.3-.973-.174.522.588,1.387.878,2.08.959,2.276,2.85,2.893,3.776,5.38.628.853,1.354,1.888,2.1,2.843.85,1.078,1.518,1.2,1.757.566.262-.7-.566-1.641-1.114-2.371C1050.208,478.381,1048.179,475.855,1046.077,473.477Z"/><path class="cls-1" d="M1055.414,485.947c-.446-.149-.436.287-.367.813.135,1.063.113,2.113,1.442,2.893.508.3.929,1.151,1.383,1.7,1.79,2.164,3.6,4.207,5.376,6.273-.664-1.982-1.238-3.928-2.853-4.538-.886-2.6-2.868-3.866-4.073-6.113C1056.039,486.451,1055.77,486.07,1055.414,485.947Z"/><path class="cls-1" d="M1077.5,507.311a49.033,49.033,0,0,1,3.238,4.422,64.981,64.981,0,0,0,7.813,10.07c.417.435.835.809,1.005.381.16-.4-.279-.879-.53-1.35a92.059,92.059,0,0,0-6.988-10.321c-1.841-2.549-3.961-4.353-5.776-7.072-2.225-3.333-4.835-5.3-7.2-8.339-.065-.08-.174-.04-.352-.072a6.212,6.212,0,0,0,1.347,2.327C1072.712,500.431,1074.985,504.163,1077.5,507.311Z"/><path class="cls-1" d="M1037.328,512.481c3.707,3.143,7.181,7.263,10.746,10.335.552.475,1.307,1.651,1.4.806.1-.875-.784-1.54-1.413-2.044a33.922,33.922,0,0,1-6.033-6.2,10.384,10.384,0,0,0-2.077-2.229c-2.9-1.891-5.659-5.213-8.436-8.244-2.3-2.513-4.578-5.17-6.989-7.33s-4.817-4.7-7.238-7.282a20.026,20.026,0,0,0-4.934-4.248c3.347,4.3,6.389,7.228,9.275,10.437,1.954,2.168,4.037,3.515,5.954,6.248a21.812,21.812,0,0,0,3.329,3.169C1033.124,508.022,1035.284,510.741,1037.328,512.481Z"/><path class="cls-1" d="M1110.54,460.673c-5.471-9.537-11.842-18.083-17.981-27.816C1094.407,437.689,1108.471,459.249,1110.54,460.673Z"/><path class="cls-1" d="M1034.413,528.7c-4.375-3.957-8.814-7.181-13.33-11.28-.879-.794-2.549-2.475-2.5-1.448.065,1.245,1.7,2.356,2.748,3.325.7.654,1.478.926,2,1.881.312.657.526,1.456.926,1.3.769-.294,1.833.817,2.642,1.685,2.556,2.733,5.043,4.015,7.526,6.287.73.668,1.615,1.3,1.637.443C1036.086,529.869,1035,529.227,1034.413,528.7Z"/><path class="cls-1" d="M1189.3,705.393a.936.936,0,0,0-.236,1.416c.338.574.832.824,1.271.584.461-.254.584-.78.225-1.444C1190.224,705.342,1189.76,705.132,1189.3,705.393Z"/><path class="cls-1" d="M1084.711,578.914a1.19,1.19,0,0,0-.476-1.078c-.8-.53-1.434-1.546-2.236-2.123-3.449-2.476-6.854-6.019-10.452-8.4a70.163,70.163,0,0,1-6.44-5.467,67.854,67.854,0,0,0-6.553-5.126c-.341-.233-.715-.541-.918-.331-.116.124-.011.371.214.7a3.786,3.786,0,0,0,.381.377c1.278.933,2.56,2.2,3.794,3.1,3.852,2.792,7.6,6.255,11.33,9.195,1.724,1.355,3.445,2.948,5.111,4.31a63.269,63.269,0,0,0,5.468,4.545C1084.242,578.813,1084.591,579.27,1084.711,578.914Z"/><path class="cls-1" d="M1099.065,582.32a6.664,6.664,0,0,1-.774-.382c-1.564-.794-2.882-1.085-3.274.552-.055.218-.1.588-.49.117a34.873,34.873,0,0,0-4.048-3.635,125.685,125.685,0,0,0-10.771-9.391c4.425,4.908,8.891,9.333,13.483,13.868-.512-.066-1.129-.73-1.187-.149a1.07,1.07,0,0,0,.432.762c1.706,1.5,3.351,3.561,5.122,4.124.606.2,1.666,1.39,1.739.458.065-.861-1-1.518-1.6-2.244-.509-.617-.755-.973-.142-1.173,1.122-.362,2.316.817,3.55,1.895.276.24.69.683.8.353.12-.363-.316-.836-.592-1.224-.319-.454-.675-.508-1.016-.718a3.856,3.856,0,0,1-1.623-2.164c.686.5,1.184,1.016,1.529,1.074,1.6.276,3.263,1.59,4.835,3.1a20.012,20.012,0,0,0,5.228,3.888c.315.146.729.574.838.16.087-.33-.207-.708-.479-1.053-1.554-1.982-2.694-4.556-4.661-6.069a2.47,2.47,0,0,1-.676-.828,9.47,9.47,0,0,0-2.78-3.555c-.835-.744-1.9-1.8-1.8-2.984a4.479,4.479,0,0,0-1.085-2.748c-1.209-1.945-2.5-1.837-3.754-2.907-.392-.338-.886-.581-.977-.117-.1.519.327,1.02.763,1.583,1.263,1.637,2.483,3.311,3.677,4.985.352.493.806,1.179.563,1.579s-.69-.312-1.057-.617a6.278,6.278,0,0,0-2.486-1.634,18.685,18.685,0,0,0,2.719,3.311c.57.664,1.532,1.35,1.459,2.174C1100.48,583.34,1099.58,582.49,1099.065,582.32Z"/></svg>