<svg id="splash2" xmlns="http://www.w3.org/2000/svg" viewBox="0 0 2916.555 2444.698"><defs><style>.cls-1{fill:#45a3f8;}</style></defs><path class="cls-1" d="M1927.72,1139.218c.109.2.215.393.327.6-.08.264-.432.453-.806.631-.225-.355-.421-.7-.337-.965A1.075,1.075,0,0,1,1927.72,1139.218Zm82.114-102c.229.291.457.581.729.875A7.574,7.574,0,0,0,2009.834,1037.222Zm-53.362,101.561c3.681,1.466,10.811-3.024,8.085-7.126C1960.85,1132.1,1954.8,1134.535,1956.472,1138.783Zm-27.125-5.086c.508-.121.349-.452.552-.668a14.428,14.428,0,0,0,9.889-.966c.459-.212,1.182.946,1.8.192.055.026.1.059.158.084,5.068-1.572,8.3-7.645,6.051-11.225-1.412-2.218-5.195-1.917-7.177-.726a5.792,5.792,0,0,0-.982.769,9.829,9.829,0,0,0-4.67-3.927c-.584-.193-1.183-.233-1.387.465-.326,1.132-.715,2.218-2.243,1.949-2.255-.4.109-2.49-1.231-3.361-1.464,1.22-3.037,2.435-1.864,4.3a.517.517,0,0,0-.2.107c.233.4-.079.436.324.592a.439.439,0,0,0,.246-.175c.882,1.2-.1,2.019-.566,2.789-.236.389-.486.771-.734,1.154-.943-1.6-1.333-3.627-2.395-4.777,1.648-2.443,3.43-5.507,2.955-8.375a18.707,18.707,0,0,0-1.126-3.833c-.243-.389-1.3-.788-1.8-1.529-.363-.53-.352-1.223-.664-1.568a1.9,1.9,0,0,0-.463-.36,8.767,8.767,0,0,0,.935-1.4c2.134-4.121,3.808-7.98,8.843-9.929,3.242-1.257,3.22-4.6,1.554-7.13-1.7-2.585-5.133-3.794-7.381-1.557a6.77,6.77,0,0,1-6.884,2.068c1.3-1.934,1.793-4.7,1.073-6.117-1.068-2.1-3.587-2.13-5.079-3.993-1.071-1.328-.781-2.984-2.578-4a2.327,2.327,0,0,0-1.648.512c-1.376,1.2.265,7.2.857,9,.3.911.688,2.119,1.181,3.258a11.025,11.025,0,0,0-9.7,4.968c-3.826,6.378-3.6,11.944.65,15.872a10.019,10.019,0,0,0,3.259,1.971,8.106,8.106,0,0,0-1.255,2.45c-.991,3.253.432,7.911,3.416,10.5,2.349,2.033,5.721,1.615,8.281,2.429.475,1.648-1.068,2.642-.523,4.349.428,1.343,2.33,3.554,3.779,3.732a5.3,5.3,0,0,0,2.249-.5,25.219,25.219,0,0,0,4.09,1.674c-.025.015-.047.018-.073.035A.844.844,0,0,0,1929.347,1133.7Zm-31.171-50.942a4.678,4.678,0,0,0,.357,3.52c-2.7-2.738-6.306-2.429-9.417-3.388-.581-.181-1.347.353-1.728-.588-1.739-4.272-2.632-2.036-4.211.374-1.612,2.469-2.512,4.669-.846,7.493-.91-.675-1.632-1.474-2.423-2.139a3.072,3.072,0,0,1-2.55,1.794,2.682,2.682,0,0,1-1.379-3.122c-.209.017-.427.044-.654.084-2.894.5-5.555.359-7.384,3a2.063,2.063,0,0,1-1.086.653c-5.707,1.532-9.159,5.268-11.275,10.535-.541-2.665,1.546-4.342,2.338-6.495.464-1.273.98-2.657-.755-3.009a5.56,5.56,0,0,1-4.662-5.133c-.239-1.928-3.655-1.172-2.534-2.665,1.612-2.145,2.741-4.817,5.671-6.073,1.63-.7,4.534-.9,3.626-4.073-.178-.625,1.111-.882,1.721-.589,1.83.89,2.817-1.038,4.378-.943-.029-1.514-1.252-1.87-2.007-2.585-.657-.628-2.084-.287-2.237-1.913,2.534-.084,4.564,1.2,6.778,1.848,1.38.4,3.032.805,3.471-1.158.348-1.565-.977-2.03-2.342-2.3-1.652-.323-3.282-.748-5.173-1.191,1.285-2.987,3.082-3.888,6.052-2.984,2.878.879,3.815-2.1,5.543-3.3,1.122-.781-1.332-1.3-1.586-2.545,1.561-1.22,7.943,7.155,4.146-5.09.9,1.514,1.687,2.882,2.395,3.906.125-.454.26-.9.407-1.325.483-.377.817-.217,1.2-.268a6.455,6.455,0,0,1,.575,3.437c.726-.033,1.415-.927,2.148-3.064,1.474,1.406.712,5.025,4.216,3.62a.832.832,0,0,1-.369-.824c.67-.468,1.222.194.858.643.469-.083,2.554,1.739,2.649,2.784.146,1.552,1.32,2.631,2.261,3.8a21.184,21.184,0,0,1,2.8-3.272c.661-2.963-2.73-5.487-.538-8.663,1.223-1.775.777-3.568-.058-5.739-.755-1.968-2.5-4.622-.44-7.192,1.285-1.6-.827-2.305-1.256-3.873,4.015.454,5.823-.828,3.482-4.694,2.457.076,4.668,4.934,6.531-.32.228-.642.94-.573,1.47-.319,2.189,1.056,3.645.149,4.472-1.8.734-1.732,2.516.105,3.29-1.1.326-1.826-2.538-2.382-1.689-4.422,1.964-.494,3.26,2.283,6.037.581-2.828-.4-3.419-3.507-6.563-2.951-.82.145-2.218-1.34-1.721-2.385.527-1.093,2.3.087,2.465.032,3.463-1.126,5.266,1.868,7.738,3.078a20.159,20.159,0,0,1,1.385-3.553c.857-1.983.552-5.627,2.919-5.268.74,1.169-.265,2.265-.636,3.442-.333,1.073-.526,2.227-.8,3.349,2.8,3.508,7.594,2.992,11.157,3.272,2.014.16,5.271-1.532,8.277-1.245,1.042.1.969-1.224,1.1-2,.994-6,2.283-6.437,8.386-5.413,1.927.323,3.543.429,4.962,1.677.428.374,1.394.647,1.391.033-.011-2.095,3.245-2.312,2.733-4.458-.141-.584-1.056-1.078-.022-1.615,2.984-1.547,2.992-1.521.614-4.193a12.773,12.773,0,0,1-1.285-1.627,1.105,1.105,0,0,1,.174-1.521.905.905,0,0,1,1.456.254c1.3,2.356,3.619,1.373,5.467,1.191.846,1.877-2.276,1.674-1.26,3.605,1.071-.69,2.516-1.184,3.166-2.149.809-1.2,1.209-1.576,2.015-.283,1.161,1.866,2.937,1.423,4.614.965,5.659-1.546,9.144-6.4,14.165-8.966.839-.429.069-1.231-.363-1.732-.9-1.035-1.837-2.037-3.358-3.71,2.759.4,4.672.686,6.593.954.845.117,2.16.574,2.472.229,3.775-4.131,6.175-.864,8.883,1.046,2.2,1.55,9.192,1.056,11.588-.748,1.074-.81,6.244-.494,6.923.472,1.989,2.81,3.87,5.7,5.954,8.447.86,1.133.671,2.618-.008,3.057-2.839,1.844-3.143,5.776-6.647,6.978-1.361.464-.573,1.321-.345,2.058a.973.973,0,0,1-.588,1.369,17.231,17.231,0,0,1-4.117-2.023c-.221-.853-1.078-.758-1.677-1.074-1.931-1.009-4.508-.835-5.71-3.257-.628-1.259-3.256-.62-3.547-.235-2.831,3.731-7.943,2.207-11.05,4.879-1.805,1.55-3.554,3.481-1.456,5.837.715.8,1.844,2.6,2.988.076.21-.471.57-.5,1.023-.359,4.814,1.557,9.214,3.619,11.672,8.2a1.755,1.755,0,0,1-.189,1.931c-2.029,3.177-1.852,5.994.443,8.9a5.584,5.584,0,0,0-2.314-1.486,1.052,1.052,0,0,1,.15.1c2.128,2.168-2.824,7.377-4.817,5.34-1.126-1.157.087-3.626.9-4.356a4.643,4.643,0,0,1,2.954-1.3c-2.429-.432-5.079.567-7.514.559a2.856,2.856,0,0,0-2.853,1.659c-1.093,2.709-3.409,3.594-6.03,4.4a9,9,0,0,1-11-5.315c-.352-.973-1.165-1.339.189-2.16a1.62,1.62,0,0,0-.036-3.017c-2.48-1.154-.792,1.2-1.351,1.7-2.97,2.642-3.637,7.489-8.771,8.117-1.267.156-2.345,1.125-3.216-.534a1.344,1.344,0,0,0-1.888-.414c-.762.44-1.154,1.874-2.432.86,1.779-1.9-3.943-2.287-.9-4.871.609-.516-.505-4.582-1.612-4.938-2.734-.882-4.531-2.577-6.575-4.189a1.738,1.738,0,0,0-2.639.526c-.548,1.166-.646,2.262.929,3.108,6.825,3.67,6.931,3.986,5.028,11.334-.388,1.492-.33,2.98.922,3.786,3.271,2.1,2.963,5.224,1.616,7.805-1.22,2.334-1.692,4.959-4.738,6.934-3.14,2.033-7,3.67-9.518,3.442-6.284-.563-13.8,1.049-18.235-6-1.307,5.983-6.836,6.832-10.833,10.521.75-2.465.608-3.946-.37-5.358a2.939,2.939,0,0,1-.77-.113,3.854,3.854,0,0,1-1.429-2.161l-.1-.09c-3.517-3.01-4.48-2.113-7.58-.465a3.494,3.494,0,0,1-.727.27,14.606,14.606,0,0,1-2.409,3.724,35.981,35.981,0,0,1-4.509,3.43l-.4.3c4.19,1.621,6.381,4.815,6.556,9.476.044,1.184-.8.748-1.281,1.064-.69.446-1.4.888-2.038,1.371a3.934,3.934,0,0,1-.9,1.6A4.54,4.54,0,0,1,1898.176,1082.755Zm24.171-61.85a4.18,4.18,0,0,0,.658-.052.932.932,0,0,0-.1-1.269A8.533,8.533,0,0,1,1922.347,1020.905Zm-58.69,86.643a2.544,2.544,0,0,1,1.445,1.92c1.964,2.28,6.687-.686,3.873-3.859-.878-.246-1.194-.638-1.844-.544C1865.037,1105.348,1864.7,1107.65,1863.657,1107.548Zm167.094-115.043c.839-1.427-2.054-1.649-1.139.051C2029.975,992.621,2030.268,992.875,2030.751,992.505Zm-149.1,106.947a1.886,1.886,0,0,0,.273-3.038A1.822,1.822,0,0,0,1881.652,1099.452Zm-9.99,4.691a.813.813,0,0,1,.679.207C1874.432,1102.8,1870.148,1101.543,1871.662,1104.143Zm104.272,4.487c3.18.679,7-2.981,5.732-5.061-1.27-2.116-5.942-1-7.62.882-.33-.2-.29-.809-.936-.653-.1.352-.541.6-.189,1.074.131.244.458-.137.61.051C1972.061,1106.771,1974.442,1108.314,1975.934,1108.63Zm54.745-28.542c.065.226-.055.4.167.672.2-.113.406-.222.6-.323C2031.281,1080.03,2031.042,1079.827,2030.679,1080.088Zm-57.529,41.469c-.022-.338.2-.606-.2-1.056C1972.086,1120.849,1972.467,1121.652,1973.15,1121.557Zm10.753-25.582a1.776,1.776,0,0,0,.951-2.839C1983.3,1093.234,1982.4,1095.314,1983.9,1095.975Zm-13.741,48.072c.4.936,1.009,1.111,1.848.544a1.82,1.82,0,0,0-.512-1.655C1970.7,1143.226,1970.438,1143.4,1970.162,1144.047Zm8.074-3.623c-1.942-1.5-4.687-.218-7.41.951.113.2.218.4.327.6C1973.059,1142.406,1976.722,1142.823,1978.236,1140.424Zm-111.613-43c-1.006,1.2-1.358,2.6-.065,4.483A2.775,2.775,0,0,0,1866.623,1097.42Zm135.152-.2a1.16,1.16,0,0,0-.487-.889l-.741.407a1.162,1.162,0,0,0,.487.885Zm16.786-14.194c-.065.272-.272.5.112.911C2019.469,1083.722,2019.058,1083,2018.561,1083.029Zm-23.88-5.9c-1.009-1-3.289.727-2.2,2.371C1994.191,1080.4,1995.821,1078.321,1994.681,1077.133Zm-8.567,8.742c1.869-1.3,4.458-1.917,3.031-4.36a3.863,3.863,0,0,0-3.536.966c-.991.849-2.356,4.8-1.612,5.522C1985.035,1087.745,1985.181,1086.525,1986.114,1085.875Zm-56.988-159.467a7.815,7.815,0,0,0-5.4.5c2.846,1.745,5.627,1,8.836.961-.221,1.231-.087,2.378-.61,3.086-2.581,3.482-2.417,6.389.824,9.25,1.434,1.267,1.736,3.906,4.778,2.723.352-.138,1.26.617,1.623,1.151,2.319,3.387,5.256,2.214,7.721.337,2.973-2.269,5.3-3.318,7.526,1.14-1.826-4.062-.657-6.8,2.378-9.431,2.566-2.233-.6-4.386-.7-6.684-.153-3.213-1.551-6.244-5.119-7.583,1.223-.962,2.555.853,3.67-.429.308-2.316-4.273-1.8-2.817-4.814.359-.74.308-1.913-.864-1.931-1.111-.018-2.759.407-2.857,1.529-.512,5.732-4.124,3.518-7.377,3.4-1.612-.058-5.1-2.959-5.344,2.33C1935.279,924.357,1933.032,927.105,1929.126,926.408Zm-68.562,175.484c-.243-.552-.584-.846-1.005-.8C1859.417,1101.678,1860.1,1102.048,1860.564,1101.892ZM1982.2,947.148c-1.016-1.848-4.882,1.9-5.245,3.441a5.454,5.454,0,0,0,.156,2.425C1980.044,953.853,1983.431,949.359,1982.2,947.148Zm-30.857,46.42c1.2,2.338,5.264-.141,3-2.991C1952.508,989.793,1950.544,992.036,1951.339,993.568ZM1973.2,948c-.135-.247-.273-.494-.4-.737-1.471.6-.5,1.935-.966,2.839A15.217,15.217,0,0,1,1973.2,948Zm-.835,16.518c.751.639,1.4,2.105,3.143.29s4.782,1.017,6.059-.846c1.427-2.076,2.814-4.792,1.925-7.4-1.217-3.565-5.141-2.992-8.013-3.761-3.223-.861-2.6,2.352-3.231,3.782C1971.16,959.052,1969.944,961.781,1972.366,964.519Zm-35.054-54.3c.145.664.149,1.536.668,1.949,1.5-.6,1.917-1.513.965-2.838C1938.237,909.121,1937.853,909.742,1937.312,910.217Zm-1.775,53.724c1.009-1.252,2.134-2.461,1.361-4.225C1934.916,960.108,1935.079,962.82,1935.537,963.941Zm62.84-1.822c-2.233,1.053-4.437,2.16-7.221,3.522,1.634.747,3.093.562,2.49,2.762a4.031,4.031,0,0,0,3.576,4.886c2.625.4,5.783,1.115,7.667-2.218,1.213-2.149,2.777-4.871,1.122-6.465C2004.265,962.918,2001.825,960.489,1998.377,962.119Zm-12.616,328.968c2.178-1.782-2.8-6.338-4.218-5.608C1978.846,1287.49,1983.59,1292.863,1985.761,1291.087ZM2015.41,948.56c2.316-.744,3.343-6.48,2.113-8.709-1.834-3.315-5.486-4.81-8.742-3.118a33.441,33.441,0,0,1-5.5,1.822c1.426,1.056,2.153,1.913,1.506,3.757-1.14,3.249,4.008,4.295,3.4,7.671C2010.516,948.9,2013.152,949.286,2015.41,948.56Zm-83.758,17.109c1.735-.29,2.588-1.785,1.706-3.252A1.957,1.957,0,0,0,1931.652,965.669Zm50.995-89.878-.327-.6a.7.7,0,0,0-.345,1.155A1.132,1.132,0,0,0,1982.647,875.791ZM1958,986.159c4.487,3.463,9.849,1.009,11.033-2.868.842-2.752.747-6.615-1.307-7.33-2.131-.744-5.388-1.6-7.827-.8-3.195,1.046-4.022-.141-5.013-2.48-1.3-3.067-4.567-3.132-7.323-2.987-2.269.116-6.255,6.171-5.83,7.961.831,3.525,7.536,6.644,11.414,5.627,1.045-.276,4.105-2.2,3.354,1.67C1956.443,985.269,1957.481,985.752,1958,986.159Zm-55.292-6.615c.1-.058.2-.112.3-.167.083-.424-.12-.174-.327-.595-.094.051-.2.109-.3.163C1902.617,979.356,1902.305,979.385,1902.712,979.544Zm-6.989,20.8c-.036,1.187-2.831.679-2.29,2.748.5,1.946,1.274,3.815.384,5.99-.247.6.592,1.993,2.2,1.761a13.481,13.481,0,0,1,3.822.014c4.11.6,6.3-.947,8.328-4.726,2.777-5.159-1.851-6.2-4.5-7.711C1901.252,997.042,1897.88,996.534,1895.723,1000.346Zm14.256-92.02c-.2-.545-.5-.828-1-.418a1.155,1.155,0,0,0,.258.824C1909.493,908.591,1909.736,908.46,1909.979,908.326Zm-50.13,150.859c-.011-.334.214-.606-.189-1.052-1.013,1.1-1.917.374-2.908,1.394.2.581.567.628.864.882C1858.542,1059.708,1858.7,1059.345,1859.849,1059.185Zm23.876-19.607c-.806,2.512-1.481,5.064-.839,7.994,1.213-2.439,2.7-5.442,1.515-8.171C1884.136,1039.593,1883.976,1039.411,1883.725,1039.578Zm-6.81-24.108c-1.783.486-3.355-.262-5.039-.294-4.106-.084-4.959.918-3.648,4.744a12.214,12.214,0,0,0,1.03,3.032c.581.842.4,2.752,3.068,1.172,1.576-.933,3.917-2.835,5.83-2.519,3.3.544,3.42-.585,2.781-2.937-.207-.759.338-1.848.828-1.412,2.432,2.174,4.991.628,7.511.395.534-.05.784.175.494.672-.313.541-1.242,1.231.119,1.4.5.061,1.659-.784,1.616-1.06-.53-3.3,2.323-4,4.81-5.591-3.118.425-5.409-1.238-4.443-3.187,1.735-3.5-1.376-3.213-2.625-4.233-1.681-1.365-3.478-1.311-5.384.283-2.443,2.044-4.69,4.93-8.847,4.069a18.828,18.828,0,0,0,2.654,1.039c1.6.373,2.5.987,2.149,2.831C1879.456,1015.735,1878.073,1015.15,1876.915,1015.47Zm46.319-18.671c.468-.9.78-1.51,1.114-2.113.657-1.187,1.3-2.254,2.962-1.194,2.512,1.612.127,1.405-.722,2-.788.556-.167,1.3.348,1.7,1.351,1.031,1.118,2.229.294,3.54,4.919-.127,8.68-3.264,13.236-4.2,2.407-.5,3.529-3.6,1.747-5.917a103.459,103.459,0,0,1-7.3-10.8c-1.332,2.585,1.507,3.783.94,6.215-3.826-2.116-8.037-2.312-12-3.027-5.1-.919-5.235,5.449-10.009,7.634C1919.719,989.931,1919.966,994.69,1923.234,996.8Zm45.7-164.143a1.082,1.082,0,0,0,.255.821c.2-.109.4-.218.591-.32C1969.574,832.714,1969.363,832.33,1968.931,832.656Zm-26.472,38.227c-5.427,1.783-8.93,11.962-6.69,16.794,1.732,3.732,3.184,7.58,4.952,11.319A22.467,22.467,0,0,0,1958.73,911.1c7.849.421,13.639-2.581,19.052-8,10.423-10.43,10.622-21.85-.436-31.579-1.833-1.961-4.138-4.066-7.87-4.266A73.487,73.487,0,0,0,1942.459,870.883Zm30.114-48.526a3.432,3.432,0,0,0-1.264,4.36A3.121,3.121,0,0,0,1972.573,822.357Zm-58.008,165.8c3.278-2.146,3.7-5.144,5.027-7.776.774-1.543,2.56-3.013,1.786-4.847-2.3-.7-2.483,2.407-3.412,3.994C1916.419,982.18,1913.414,985.592,1914.565,988.152Zm6.788-28.258c-1.786.49-2.331,2.388-.984,4.211A2.572,2.572,0,0,0,1921.353,959.894Zm44.362,134.614c.777-.926,2.254-1.06,1.957-2.421C1966.147,1091.785,1966.078,1093.677,1965.715,1094.508Zm155.358,111.086a.818.818,0,0,0,1.038-.566c-.134-.247-.269-.493-.407-.744A.752.752,0,0,0,2121.073,1205.594Zm-35.515-161.663a36.3,36.3,0,0,1-5.3-7.413c-3.816-6.836-9.149-12.129-17.462-13.087-3.576-.411-7.773-4.64-11.417.53-3.823-.977-5.235,1.47-6.655,4.164-.272.515-1.586.842-2.367.791-2.443-.167-3.289,1.133-4.011,3.086-1.619,4.374-4.073,5.757-8.789,4.679-3.111-.711-5.954-.148-9.025.371-6.356,1.074-11.41,5.3-17.647,6.494-5.67,1.089-6.923,2.893-6.1,8.433.425,2.846-.327,4.389-3.8,3.525-2.949-.735-5.531-.18-7.511,2.145-1.18-.5-3.053.628-4.658,1.936a8.655,8.655,0,0,0-.848.808c-6.318-.637-10.539,3.031-14.816,6.728a15.6,15.6,0,0,1-11.065,3.8,7.4,7.4,0,0,0-2.553.258,10.475,10.475,0,0,0-7.315,10.749,9.148,9.148,0,0,0,7.98,7.885c5.409.624,8.683-1.419,10.93-6.858.356-.86.625-2.526,1.689-1.931,3.8,2.135,7.728-.323,11.435.374.374.071.738.115,1.1.153a6.607,6.607,0,0,0-1.382,3.1,10.853,10.853,0,0,0,4.545-2.295,14.3,14.3,0,0,0,1.387-1.216,17.129,17.129,0,0,0,3.859-1.681c2.755-1.59,5.688-2.9,8.571-4.28,6.244-2.995,6.618-2.9,10.582,2.472,3.565,4.829,4.153,4.868,9.689,1.489,4.821-2.948,9.878-4.193,15.382-2.051a11.937,11.937,0,0,0,4.686.715c2.5-.109,4.193-1.078,3.573-4.008-.295-1.38-2.237-3.859,1.542-3.816,2.629.029,1.511-4.015,4.255-3.321,3.979,1.005,8.067,1.771,11.341,4.454,2.719,2.233.552,5.224,1.434,7.838,1.154,3.43,2.81,5.1,6.487,4.139,2.683-.7,4.709-.291,6.687,2.588.262-2.792-.533-5.511,2.422-5.78,3.586-.323,5.648-2.777,8.364-4.41C2091.58,1069,2096.02,1054.949,2085.558,1043.931Zm20.155,17.7a5.468,5.468,0,0,0,4.335-2.589c.972-1.735,1.684-4.97,5.278-2.624.719.468,2.142-.625,3.042-1.46,1.463-1.35,1.028-6.4,5.224-2.606a10.3,10.3,0,0,0,1.144-1.249c.573-.875,1.256-1.968,2.323-1.786,5.8.98,6.948-2.552,7.319-6.688.119-1.335.689-1.644,1.858-1.847,3.1-.545,5.137-2.592,6.963-4.828,1.343-1.648-1.485-6.618-3.55-7.2-2.9-.817-6.56,1.6-8.887-1.634a1,1,0,0,0-1.645.668c0,1.231-.167,2.745-.145,3.547.142,4.767-2.723,4.225-5.3,3.18-2.526-1.024-3.841,1.688-5.946,1.191,2.193,5.707-3.318,1.808-4.483,3.143-.349,2.545,3.844,4.564.653,7.007a4.258,4.258,0,0,1-5.326-.584c-2.588-2.629.167-5.036,1.144-6.92-4.611-4.556-9.544-3.2-14.383-.316,1.049,3.17,2.741,6.419.414,10.71a17.778,17.778,0,0,0-1.12,2.4,3.936,3.936,0,0,0-.826,1.234,1.785,1.785,0,0,1,.5-.129c-.461,2.078-.019,4.267,3.033,5.952,2.029,1.121,5.358,2.828,4.221,6.712C2102.961,1063.513,2103.542,1061.981,2105.713,1061.629Zm-90.583,202.213c.291-.61-.512-1.7-1.052-1.931C2014.589,1262.546,2014.15,1263.853,2015.13,1263.842Zm122.344-68.565c.138.378.029.784.491.9.718-.312.5-.886.094-1.216Zm6.085-92.459c-3.834.559-5.577.359-5.852-2.64-.294-3.187-5.638-1.72-6.226-5.082-.273.272-.654.821-.8.773-3.061-1.009-6.564,3.1-9.53-.7.784,3.293-2.715,3.725-3.844,5.761-1.9,3.424-4.171-1.481-6.549-.33.442,1.688,2.167,1.459,3.085,2.251.585.505,1.594.889.948,1.967-1.376,2.3-1.2,5.166-1.078,7.25a7.1,7.1,0,0,0,.493,2.2,2.825,2.825,0,0,0-.791,1.6,3.981,3.981,0,0,0,1.843.182,9.655,9.655,0,0,0,6.067,3.144c2.229.37,4.143,2.279,6.844,1.71.243-.051.707.439.9.769,1.441,2.461,1.917,2.483,2.007,1.187.291-4.084,1.986-.592,2.995-.755a1.039,1.039,0,0,0,.755-1.626,2.049,2.049,0,0,1-.127-1.173c.066-.4.214-1.009.5-1.125,3.583-1.452,3.238-4.974,4.846-7.308C2141.776,1108.35,2139.769,1105.5,2143.559,1102.818Zm-88.819,94.173c-.061.167.091,1.1.552.661C2055.59,1197.415,2054.987,1196.758,2054.74,1196.991Zm16.177-78.6a2.411,2.411,0,0,0-1.9,1.826C2069.875,1120.225,2071.694,1119.528,2070.917,1118.388Zm83.859,28.988c.182.377.363.737.635.82a.685.685,0,0,0,.2-1.078A1.137,1.137,0,0,0,2154.776,1147.376Zm-119.628,44.569c4.316,1.931,6.643-.436,8.258-3.645,1.166-2.316,3.972.116,4.6-1.695.515-1.489-2.97-1.471-2.153-4.2.428-1.442-.338-5.155-2.636-5.646a20.011,20.011,0,0,1-8.5-3.419c.334,4.338-1.016,4.574-4.715,3.227-8.2-2.984-17.023.919-17.872,9.686-.218,2.265,2.211,4.581-.374,6.821-.41.352.159.523.624.61s1.394-1.4,1.26.1c-.08.9.047,2.312-1.383,2.8-4.854,1.666-5.289,5.387-4.48,9.21a6.487,6.487,0,0,1-.784,5.086,4.558,4.558,0,0,1,5.246,0c3.078,1.7,10.974-.918,11.268-3.742.41-3.939,2.541-6.833,4.523-10.06,1.714-2.788,3.115-3.95,5.874-1.357.432-1.674-1.928-1.9-1.125-3.1A2.656,2.656,0,0,1,2035.148,1191.945Zm49.8-23.815c-1.155-.559-2.781.889-3.889,1.728C2082.265,1169.767,2085.075,1169.989,2084.952,1168.13Zm2.606-97.469c.083.149.163.3.247.45.559-.258,1.042-.53.573-1.082C2087.994,1070.21,2087.641,1070.4,2087.558,1070.661ZM2063.2,1157c-1.786,2.363-.842,4.683.715,6.861,2.882,1.866,5.54.835,7.693-1.285,2.192-2.156.784-4.432-.665-6.2C2069.385,1154.48,2064.8,1154.869,2063.2,1157ZM1980,1168.05c1.239.509,6.088.011,6.081-1.96-1.793-.164-4.218-.392-6.175,1.441C1980,1167.731,1979.822,1167.839,1980,1168.05Zm315.653-254.308a4.733,4.733,0,0,1,.991.824c2.186,2.425,10.027,2.6,12.427.08,2.5-2.636,5.017-2.759,7.83-1.086,1.064.636,1.728,2.033,4.175,1.267-2.037-1.256-3.71-2.283-5.369-3.321-.716-.447-2.15-1.1-1.5-1.739,3.507-3.413-.171-8.767,4.839-11.66-5.75-1.507-8.556-4.749-8.389-8.753-4.941,1.938-9.951.428-15.026.907-.516,1.569,1.757,3.257-.893,4.949-3.964,2.537-5.057,6.309-4.415,10.476A12.736,12.736,0,0,0,2295.649,913.742Zm-80-27.271c3.459,1.765,12.27-2.78,12.379-6.846a17.072,17.072,0,0,1,2.309-8.365c-2.6.081-5.344,1.914-5.794-2.185-.109-.969-6.012-2.04-6.074-1.906-2.722,6.008-4.454.163-7.158-.167,1.07,2.226,1.441,3.805.17,6.139C2209.118,877.483,2211.724,884.471,2215.649,886.471Zm-19.288,100.123c-3.089.022-6.219.284-9.065-1.219-.708,1.448,1.2,1.354.331,2.922-1.155,2.087-.955,4.763-1.58,7.141-.867,3.3,2.89,4.933,2.7,7.939,3.067-.374,5.587,1.409,8.444,1.637,2.632.211,6.208-1.256,6.894-2.741,1.289-2.78,2.131-6.062.849-9.5C2203.095,987.84,2201.963,986.554,2196.361,986.594Zm244.074-215.162c6.168.174,9.98-2.945,13.265-7.936,1.648-2.509-1.11-3.315-.243-5.642,1.978-5.3-3.663-7.54-6.578-10.477-1.267-1.274-5.569,1.63-7.849-.954-1.546,1.673-4.1,1.353-5.728,2.809a13.543,13.543,0,0,0-.32,20.3C2434.155,771.3,2437.343,771.344,2440.435,771.432Zm-98.638,86.4c4.135-2.621,8.263-.864,12.267-.744a14.928,14.928,0,0,0,12.158-5.554c2.131-2.621,3.463-4.945,7.667-4.484-1.536-2.265-7.718-1.749-3.108-6.128a4.648,4.648,0,0,0-.512-.642c-2.276-2.694.494-8.063-5-9.065-.079-.014-.054-.291-.148-.385-2.048-2.062-5.333-3.808-7.551-3.51a6.374,6.374,0,0,1-5.406-1.456c-1.764,4.6-2.134,4.694-6.836,1.47,1.217,3.5-3.18,3.333-3.536,5.692-.461,3.083-1.615,5.1-6.636,3.2,2.273,2.389,4.963,3,3.877,5.653-1.619,3.96-5.441.479-7.982,2.777C2339.354,846.992,2343.387,851.926,2341.8,857.832Zm-183.184,142.321c2.327-3,2.433-5.7-.112-8.327a43.737,43.737,0,0,0-4.542-4.375c-1.434-1.1-1.829-1.764-.871-3.725,1.677-3.43,3.177-7.362-.3-10.488a57.656,57.656,0,0,0-7-4.875c-.573-.377-1.666-1.467-2.007-.083-1.035,4.193-3.435,2.236-5.663,1.328-1,1.776,2.33,1.979.519,3.518-2.887,2.447-2.9,2.429-2.28,5.786,1.521,8.191,3.031,9.32,11.541,8.615a2.065,2.065,0,0,1,2,.592c.7.977-.294,1.4-.868,2.048-1.47,1.673-3.906,3.477-3.946,5.187-.065,2.926.977,6.23,4.418,7.413S2156.127,1003.355,2158.613,1000.153Zm10.321,196.115c-.076-.229.051-.406-.189-.675l-.442.243C2168.444,1196.2,2168.644,1196.373,2168.934,1196.268Zm-7.765-2.53c.722.109,1.587.995,2.207.149C2163.108,1192.537,2161.4,1193.81,2161.169,1193.738Zm13.29-251.081c4.691-3.746,5.475-7.209,2-11.537-.864-1.078-1.524-2.312-2.737-4.171-.116,2.044-.526,3.743-2.146,3.881-5.3.439-5.252,3.67-4.784,7.238.036.324.072.647.1.966,1.38,1.158,2.588,2.679,4.215,3.307C2171.8,942.606,2172.724,944.044,2174.459,942.657Zm-24.62-2.541a1.573,1.573,0,0,0-.279,1.891c.954,2.923-.233,3.754-3.344,3.435-3.075-.32-8.168,5.753-6.709,8.266a6.935,6.935,0,0,0,5.253,3.307c2.6.174,5.144-.2,6.8-2.552,1.626-2.316,1.59-2.367,3.184-.458a1.028,1.028,0,0,0,1.013.44,13.527,13.527,0,0,0,12.5-9.109c1.023-2.773-1.971-3.986-1.358-6.3-.033-.323-.069-.646-.1-.97a6.84,6.84,0,0,1-2.186-.287C2159.289,935.074,2153.6,935.985,2149.839,940.116Zm-23.945,187.293c-.323.229-.552.494-.494.85.356-.117,1-.105.817-.643C2126.068,1127.645,2125.963,1127.591,2125.894,1127.409ZM1954,1279.645c.635-4.139-3.794.791,0,0Zm10.462-2.429c-.043-.675-.689-1.132-1.19-1.474C1959.8,1276.207,1963.642,1280.175,1964.462,1277.216Zm-19.65-4.146c.475,4.527,7.653,2.509,4.371-.835C1948.355,1271.39,1945.788,1271.517,1944.812,1273.07Zm7.177-53c-1.169-.911-2.08.4-3.38.882-2.32.846-6.349.218-6.709,3.278,1.91,1.6,4.818-1.1,7.359-2.087C1950.533,1221.64,1952.74,1221.655,1951.989,1220.072Zm17.8,25.7a17.106,17.106,0,0,1,2.1-4.447c5.053-6.364,4.186-9.253-4-11.087-1.3-.29-2-3.176-3.5-1.1a3.521,3.521,0,0,1-2.941,1.659c-2.94.425-5.165.871-7.18,4.306-2.734,4.654-4.934,7.213-2.607,11.6.5.933-.98,2.128.966,2.865,3.162,1.2,3.234,3.321.632,5.623a12.535,12.535,0,0,0-1.943,3.126c1.158.918,2.157-1.416,3.061-.142.617.871-.287,1.8-.621,2.668-.65,1.71-2.367,3.1-1.895,5.163a1.255,1.255,0,0,0,1.347-.893c3.209-6.883,6.3-13.843,14.757-16.671C1969.08,1248.065,1969.374,1246.809,1969.788,1245.767Zm-8.56,15.632c-1.162-1.532-3.558-1.8-5.057-1.488-1.459,3.024,3.5,7.344,5.594,5.641C1962.651,1264.822,1962.175,1262.641,1961.228,1261.4Zm-8.971-44.369c-1.081,2.73,1.9,5.326,3.507,6.77,1.09.988,1.652,2.084,2.709,1.423,1.248-.773-.559-4.313-1.34-5.641C1956.12,1217.847,1954,1216.569,1952.257,1217.03Zm31.04,54.349c.4-1.235-.973-1.514-1.892-2.051-2.556-1.54-5.808-3.776-8.593-2.654a1.16,1.16,0,0,1-.058.6c1.877,2.593,5,2.828,7.275,3.758C1981.125,1271.495,1982.356,1272.893,1983.3,1271.379Zm-22.058-55.587a2.488,2.488,0,0,0-.893-1.634,5.464,5.464,0,0,0-1.732.36C1958.814,1215.814,1959.965,1216.83,1961.239,1215.792Zm16.1,81.449c-.78-4.426-5.471-6.988-8.589-4.4C1969.157,1296.13,1976.123,1299.648,1977.339,1297.241Zm-.225-131.278c.886-.741,2.6-1.238,2.421-2.291C1978.406,1163.487,1977.648,1165.175,1977.114,1165.963Zm-6.3,116.873a5.461,5.461,0,0,0,5.99,3.873c.845-1.553-1.6-2.247-2.335-3.557-1.158-.04-2.065-.915-3.351-.48C1971.019,1282.727,1970.921,1282.778,1970.816,1282.836Zm5.5-17.887c-.4-.475-.842-.827-1.525-.319C1974.569,1265.752,1976.225,1266,1976.312,1264.949Zm36.952-4.527c.189.342.378.69.567,1.039C2014.4,1261.4,2013.617,1259.976,2013.264,1260.422Zm34.575-142.172c-1.536-1.975-3.957-.969-6.429.232C2043.189,1119.2,2046.14,1120.072,2047.839,1118.25Zm-2.418-21.088c-.036.472-.174.45.244.824C2046.292,1097.833,2045.868,1096.929,2045.421,1097.162Zm.113,9.395c.439.105,1.416-.407.795-1.009C2045.726,1105.791,2045.425,1106.121,2045.534,1106.557Zm-16.58,24.134c-.109-.2-.217-.4-.323-.592C2027.76,1130.317,2028.334,1131.2,2028.954,1130.691Zm-13.7-3.155c-.922-.49-1.245,1.293-1.394,1.347C2014.771,1128.4,2015.377,1128.44,2015.254,1127.536Zm-3.358,39.138c1.071,1.478,5.111,2.364,6.527-.087-.454-1.158-1.267-1.1-1.815-1.906C2015.246,1165.2,2012.411,1164.91,2011.9,1166.674Zm-14.256,108.654a.878.878,0,0,0,.926-1.477A.878.878,0,0,0,1997.64,1275.328Zm-1.155-12.7a2.054,2.054,0,0,0-.435-1.51C1993.94,1260.528,1994.485,1264.263,1996.485,1262.63Zm-5.191-86.637c.378-.178.613.029.737-.4a.463.463,0,0,0-.537-.291C1991.635,1175.6,1991.058,1175.681,1991.294,1175.993Zm11.573,3.151c.911,1.521,2.571,2.425,3.906,1.151C2005.862,1178.582,2004.363,1178.872,2002.867,1179.144Zm-11.351.788c1.858,2.981,5.815,3.035,8.24,1.3C1998.747,1178.582,1994.02,1178.658,1991.516,1179.932Zm61.453-84.31c-2.327-2.007-2.781-3.684-1.953-6.338,1.132-3.648-2.084-6.76-6.241-6.589-3.006.12-6.277.08-8.753,2.232-1.212,1.054-3.2.327-3.88,1.529-1.812,3.216-1.63,3.474-4.843,4.248-1.612.388-.908,1.539-1.463,2.094-2.777,2.788-1.848,7.319-5.728,9.74-1.834,1.144-3.9,1.06-5.6,2.2-1.935,1.3-1.706,4.847-5.191,4.469.062.12.123.243.189.363,1.412,2.476-.556,4.509-1.859,5.939-1.913,2.1-.893,2.385.643,3.787.452.412.985.815,1.518,1.227a14.993,14.993,0,0,0-4.074,1.975c-1.253.871-2.7,2.41-4.044,3.557-.216.185-.452.382-.691.587-.072-.081-.018-.266-.043-.4-.983-5.315-6.716-9.145-12.143-8.281-2.817.447-5.518,1.637-8.444,1.369-.6-.058-1.376.207-1.067.853,1.771,3.7.061,5.718-3.921,6.614,4.1,3.569,3.892,4.811-.744,6.386-1.056.359-2.08.9-1.75,1.989.4,1.293,1.67,1.456,2.8.723,2.185-1.412,4.073-.93,5.071,1.023a12.133,12.133,0,0,0,2.429,2.785c2.287,2.418,1.829,3.819-1.518,5.006-2.388.85-4.694,2.051-6.24,1.543-2.49,2.879.991,6.063-1.9,8.883,3.855.5,5.565,3.351,4.879,7.918,2.991,1.713,3.837-6.578,7.674-1.369,2.316-4.2,6.611-6.592,9.8-9.961,2.083-2.2,2.962-3.089.9-5.377-2.853-3.173-3.191-5.884.675-9.417,2.154-1.964,6.48-4.236,5.18-7.832a31.481,31.481,0,0,1,4.172-2.158,20.193,20.193,0,0,0,5.725-2.958c.114.971-.3,2.107-1.616,3.509,2.981.622,3.4-2.355,4.814-2.591,1.608.029-.323,3.877,2.378,1.346,2.868-2.686,3.721-.871,4.741,1.659.356-4.947,4.313-7.95,6.789-11.152a16.3,16.3,0,0,0,3.6-6.992c.186-.918-.01-2.029,1.347-2.363,3.387-.824,4.956-3.376,6.121-6.436,1.644,2.123-.149,4.341,1.2,6.618.879-2.57,1.568-4.821.973-6.88-.759-2.624-.149-4.149,2.607-4.959,1.441.962.453,3.05,2.007,4.389a8.179,8.179,0,0,0-.123-5.935C2049.288,1093.778,2050.511,1095.354,2052.969,1095.622Zm119.574-200.779c1.775-2,2.69-4.458.352-6.575a6.089,6.089,0,0,0-7.823-.588c-2.571,1.964-1.569,5.108-.487,7.406C2165.474,896.966,2170.51,896.7,2172.543,894.843Zm-264.981,580.016c-.037-.152-.472-.25-.734-.334-2.4-.788-4.879-.8-6.814.737a6.746,6.746,0,0,0-2.479,7.148c.606,2.389,1.978,4.941,4.527,5.587,2.338.6,4.81.276,5.3,2.973,2.1,2.012,4.393,2.092,6.3.683,2.4-1.779,3.489-4.752,1.645-7.007C1912.662,1481.426,1908.556,1479.259,1907.562,1474.859Zm18.391-73.607a.7.7,0,0,0,.33-1.155C1925.76,1400.366,1925.488,1400.7,1925.953,1401.252Zm-11.566,22.344c.061-.6-.658-.929-.915-.265C1913.653,1423.832,1913.958,1423.923,1914.387,1423.6Zm-17.7,30.923c-.37.174-.726.366-.81.639.3.722.752.853,1.38.406A1.386,1.386,0,0,0,1896.689,1454.519Zm-10.513,2.861c-2.752,1.187-3.4,3.474-3.573,5.739-.228,3.06.36,7.217,3.318,7.921,4.186,1,3.133,2.886,2.836,5.239a11.194,11.194,0,0,0,.279,2.635,24.988,24.988,0,0,1,5.841-10.68c2.734-2.93,1.609-6.324-.515-9.072C1892.387,1456.61,1889.523,1455.938,1886.176,1457.38Zm7.514,18.884c-.145.08-.3.16-.439.24-.044,1.093-.864,2.77-.4,3.884.792,1.906,1.514,5.569,2.767,5.057,1.121-.454.112-2.134.05-2.726C1895.433,1480.646,1896.054,1477.124,1893.69,1476.264Zm66.892-109.583c-.606-.792-1.91.1-.94,1.1C1960.3,1367.959,1961,1367.443,1960.582,1366.681Zm1.808,20.271c-.2-.9-1.245-.555-.9.109C1961.682,1387.381,1962.027,1387.177,1962.39,1386.952ZM1862.4,1454.7c-2.3.7-1.826,5,.715,5.213C1866.107,1459.053,1864.517,1454.058,1862.4,1454.7Zm92.155-74.305c-.981,1.151.232,5.3,1.942,7.446.483.606,1.1.8,1.492,1.314,1.02,1.354,1.819,4.56,3.7,3.587,1.63-.853.3-2.559-.469-4.378C1959.769,1384.89,1957.638,1380.537,1954.556,1380.4Zm-26.625,89.919c.109.2.214.392.323.588.505-.185.592-.494.273-.911C1928.33,1470.1,1928.131,1470.209,1927.931,1470.318Zm31.845-46.773c-.37.363.149,1.351.78.734C1960.705,1423.789,1960.175,1423.444,1959.776,1423.545Zm-24.218-208.8c-.831-.937-3.438,1-3.2,1.935C1933.558,1216.8,1934.843,1215.519,1935.558,1214.75Zm28.066-52.247c.069.229-.051.4.181.675l.6-.327C1964.23,1162.445,1964,1162.245,1963.624,1162.5Zm.53,258.458a.867.867,0,0,0,.686.21,5.394,5.394,0,0,0-.145-2.054C1964.905,1419.853,1963.853,1420.209,1964.154,1420.961Zm-37.272-206.89c-.073.7,1.1.766,1.419,1.547,1.315-.018,4.433-1.231,3.841-2.872C1930.505,1212.75,1928.069,1213.08,1926.882,1214.071ZM1896,1137.026c-.135-.247-.269-.494-.407-.741a.753.753,0,0,0-.639,1.314A.831.831,0,0,0,1896,1137.026Zm73.353,22.156c-1.129-1.613-6.037.932-4.984,2.911C1965.98,1163.861,1970.689,1161.069,1969.356,1159.182Zm-36.571,58.625c-.167-.418-.479-.381-.846-.124.109.2.214.4.327.6A.939.939,0,0,0,1932.785,1217.807Zm6.324,29.979c.74,3.1,3.721,4.57,6.836,2.247C1946.714,1246.489,1941.221,1244.152,1939.109,1247.786Zm-27.518,52.9c-.254-.7-.715-.682-1.165-.712C1910.72,1300.519,1911.05,1300.955,1911.591,1300.686Zm-3.942,10.466c-.254-1.91-2.8-2.85-4.026-4.186C1904.952,1308.4,1906.12,1310.364,1907.649,1311.152Zm15.447-44.576c-2.545,1.622-3.148,4.806-.741,6.785a5.8,5.8,0,0,0,3.674.7C1931.4,1272.442,1927.76,1263.6,1923.1,1266.576Zm9.043,23.277c-3.21,2.861,2.548,8.981,5.939,6.607,1.336-.936,1.358-4.044-.371-5.982C1936.517,1289.16,1933.366,1288.764,1932.139,1289.853Zm61.8,121.607c.846.944,1.314,3.177,2.6,2.639C1996.278,1412.763,1994.725,1412.349,1993.937,1411.46Zm190.76-159.467a4.141,4.141,0,0,1,2.614.9c.345-.185.686-.374,1.034-.562C2187.583,1250.984,2185.477,1251.891,2184.7,1251.993Zm-32.807,37.254c-3.293-2.2-10.807-5.9-11.069.25-.406.49-1.179.1-1.194.654.842.127,1.6.548,2.443.6,2.748,2.6,5.467,2.178,8.927,3.231.748.236,1.547.937,2.087.995,1.961.2,3.242-1.452,2.313-3.191C2154.99,1290.986,2153.226,1290.132,2151.89,1289.247Zm29.852,2.628c.163.418.348.777.773.359-.112-.2-.221-.406-.33-.6Zm-33.257,49.47c-.127.356.239.973.7.584C2149.3,1341.585,2148.939,1340.964,2148.485,1341.345ZM2135.83,1289.9c.323-.1.5.283.911-.1C2136.632,1289.367,2135.753,1289.505,2135.83,1289.9Zm9.725,14.985a1.168,1.168,0,0,0,.258.821c.2-.113.4-.218.595-.327C2146.241,1304.8,2145.915,1304.8,2145.555,1304.882Zm58.72-54.875a.462.462,0,0,0-.6.327c1.626,1.027,3.761,2.392,5.648,1.162C2208.127,1249.383,2205.9,1250.69,2204.275,1250.007Zm-8.005,40.507c-3.579-1.071-7.2-4.222-11.156-3.765q-.218.116-.435.236c3.3,3.035,8.034,2,11.471,4.749,1.5,1.205,2.7,2.189,4.607,1.739C2200.685,1290.819,2198,1291.04,2196.27,1290.514Zm-211.383,82.792c-.113.352.243.973.7.588C1985.707,1373.538,1985.344,1372.928,1984.887,1373.306Zm229.618-457.687c-1.278,3.191-.407,3.249,2.52,3.63,4.61.6,8.959,2.883,13.827.167.828-.461,2.378-1.673,2.977.043a1.876,1.876,0,0,1-1.732,2.527c-.577.062-1.441-.246-1.579.44-.842,4.131-3.8,7.855-2.6,12.43.766,2.922,3.536,2.919,5.326,4.207,4.007,2.879,10.872,2.861,12.942-.116,2.363-3.4,4.243-4.222,7.042-1.049a1.094,1.094,0,0,0,1.608-.218c.28-1.554-1.172-1.695-2.1-2.265-1.982-1.213-2.969-2.61-2.591-5.239.936-6.48-7.512-12.408-13.661-10.263-1.416-4.85.5-10.016-1.046-15.1-1.045-3.448-4.763-4.186-5.946-6.658-1.656-3.46-4.85-3.114-7.09-2.675-2.632.512-4.948,2.9-7.867,3.539.708,3.4-2.9,6.117-2.28,9.363.429,2.218-.218,3.466-2.544,4.407C2212.036,913.365,2215.111,914.094,2214.505,915.619Zm-191.624,504.96c.185.378-.029.614.407.748C2023.966,1421.146,2023.4,1420.107,2022.881,1420.579Zm-126.875-275.055c.9-.116.265-1.47-.337-.969C1895.611,1144.885,1895.509,1145.386,1896.006,1145.524Zm96.116,264.023a3.078,3.078,0,0,0,1.731,1.764A3.667,3.667,0,0,0,1992.122,1409.547Zm35.3-41.992a3.986,3.986,0,0,0-.722-.471A3.075,3.075,0,0,0,2027.422,1367.555Zm-40.259,35.044c.3-.124.236-.349.515-.472C1987.283,1400.707,1986.084,1402.257,1987.163,1402.6Zm82.581-93.614c.429.715.276,1.231,1.028,1.183C2070.87,1309.616,2070.154,1309.112,2069.744,1308.985Zm5.1,60.985c.171.377.371.737.632.813a.692.692,0,0,0,.338-1.144C2075.328,1369.657,2075.193,1369.552,2074.848,1369.97Zm27.271-63.592c.069.222-.051.4.178.672.2-.105.407-.218.6-.327C2102.725,1306.309,2102.489,1306.117,2102.119,1306.378Zm-47.644,39.748c.276.446.505,1.14.879,1.26.486-.116.272-.428.664-.559C2055.7,1345.9,2055.089,1346,2054.475,1346.126Zm55.188-12.172a4.451,4.451,0,0,0,5.714,2.682C2114.952,1333.961,2111.87,1333.333,2109.663,1333.954Zm-82.241,33.6c1.093.854,2.034,2.19,3.384,2.121C2030.29,1368.274,2028.664,1368.173,2027.422,1367.555Zm-301.236-367.34c-.062-.232.058-.406-.174-.682l-.451.247C1725.707,1000.143,1725.906,1000.317,1726.186,1000.215Zm397.606,88.339c-2.044.966-4.063,3.489-5.994,4.23-.907.352-2.258-.044-2.926.642.094.966,1.456-.072,2.8-.17,1.154-.1,1.757.286,2.356.054.192-.069.86-.853,1.325-1.107,1.5-.831,8.277-2.69,7.191-4.5C2127.985,1086.746,2124.561,1088.191,2123.792,1088.554Zm-6.226-64.154c2.45-.417,4.087-.283,5.336.73,3.413,2.762,6.538.915,8.985-1.307,3.609-3.271,3.264-4.821-.05-8.382-2.055-2.208-4.052-3.736-7.526-2.364-1.412.556-3.126.356-5.525.574,4.948,5.412-1.736,2.243-2.574,3.891C2118.651,1019.027,2122.427,1020.378,2117.566,1024.4ZM2062.32,901.054c-2.918,2-2.16,7.079.919,9.958,3.2,3,8.259,2.432,11.911-1.336,1-1.027-.813-8.121-2.832-9.784-1.5-1.23-3.685-1.7-5.485-2.305C2065.406,897.108,2064,899.911,2062.32,901.054Zm53.834,9.127c-2.89,1.731-3.692,5.18-3.442,7.62.287,2.784,3.1,4.2,6.749,4.32,3.8.123,5.111-1.808,6.208-4.44,1.1-2.654.668-4.879-1.9-6.607-2-1.347-3.71-3.057-6.226-5.173C2118.325,908.083,2117.874,909.146,2116.154,910.181Zm-45.568-91.276c4.876,4.051,16.322,2.828,20.624-2.926,7.068-9.454,5.794-17.11-3.971-25.1-3.282-2.686-14.7.861-18.958,5.66C2061.525,804.144,2062.342,812.051,2070.586,818.905ZM1786.63,915.6c-.222-.24-.287-1-.7-.581C1785.806,915.376,1786.169,915.993,1786.63,915.6Zm169.53-98.192c.058.225-.054.4.174.675C1957.129,817.885,1956.734,817.1,1956.16,817.409Zm-74.6,35.33c-.106-.2-.218-.4-.327-.6-.156.083-.3.163-.454.246C1880.952,852.808,1881.184,853,1881.562,852.739Zm-84.9,61.061c-.4-.229-1.351.185-.875.864C1796.134,914.4,1796.555,914.145,1796.657,913.8Zm156.131,226.028c-1.99-1.945-4.934.2-4.832,2.825C1950.127,1148.356,1956.142,1143.092,1952.788,1139.828Zm-3.493-35.391a.637.637,0,0,0-.562,1.085C1949.437,1105.315,1949.353,1104.869,1949.3,1104.437Zm149.433-117.85c3.1.323,6.379-1.8,8.441-3.223,2-1.376,2.058-5.762,4.283-8.328-3.445-4.128,2.106-3.159,3.122-4.76a1.412,1.412,0,0,0,.055-.628c-1.256-1.557-6.85,3.224-4.955-2.94-3.362-.323-.861-1.761-.505-2.846.82-2.5-1.27-2.694-2.726-2.407-2.269.45-4.288,1.049-5.645-1.278-.327-.559-.933-.81-1.347-.123-2.436,4.054-3.514-.262-5.155-.7-1.877,3.8-8.622,7.148-14.539,6.611,6.948-3.8,2.631-11.679,9.042-15.316-3.419,1.016-3.419,1.016-4.842-.563-4.262-4.723-4.262-4.723-.559-10.931,2.276-3.815.385-7.4-3.409-9.551-2.912-1.648-6.531.947-8.546-2.247-.849,1.833,1.55,3.841.537,3.866-4.3.12-1.713,3.2-1.735,3.939-.112,3.75-.49,5.71-4.774,2.98-1.68-1.07-8.033,2.048-7.249,2.89,2.425,2.6-.821,6.727,3.18,8.622-3.467,1.154-5.348,4.632-9.374,3.463-.653-.188-4.683-.954-5.59,3.42-.527,2.545-2.189,7.021-6.567,8.843a6.092,6.092,0,0,1,2.418,3.322c1.089,2.785.01,7.377,4.657,7.965,3.162.4,3.449,2.116,2.806,4.948,3.9-3.968,9-3.9,13.048-6.153,1.27-.708,1.927.7,1.571,2.065a4.731,4.731,0,0,1-2.857,3.137c-2.671.9-5.568,1.042-2.748,4.723.636.828-2.04.228-1.866,2.163,1.209.356,2.8.491,3.235,2.662.61,3.067,3.862,4.421,6.7,3.717,4.327-1.071,5.4.984,5.9,4.781,2.588-2.6,4.207-6.571,7.485-5.692,4.7,1.256,6.23-2.044,8.84-4.052a14.778,14.778,0,0,1,2.327-1.176c-.61,2.382-2.592,3.717-3.794,5.576a7.376,7.376,0,0,0,2.973-1.877C2092.731,988.961,2094.412,986.137,2098.728,986.587Zm-160.7,110.284c-.291.882-1.086,1.619-1.351,2.487a10.859,10.859,0,0,0-.025,5.613c2.523-1.667,2.2-4.647,2.774-6.927.414-1.652,2.3-3.412.954-5.347C1938.06,1092.62,1938.484,1095.455,1938.027,1096.871Zm102.769-91.116c2.923,4.225,2.407,6.077-2.319,9.308,6.592.494,7.188.911,7.373,5.2,1.278-.109,2.214-.8,3.87-.552,7.95,1.169,13.49-3.935,13.308-11.9-.047-1.978,1.256-3.314,1.8-4.911-1.151-.912-2.995,1.187-3.46-.828-.225-.962-1.161-2.244.186-3.046.976-.581,2.127-.846.86-1.975-1.241-1.111-2.033-.123-2.828.842-.69.839-.926,2.491-2.381,2.186-1.728-.367-1.013-2.015-1.111-3.191-.066-.781.218-1.746-1.068-1.881a3.98,3.98,0,0,1-.53.665c-1.23,1.024,1,3.147-1.107,3.579-1.949.4-1.648-1.917-2.574-2.857a21.651,21.651,0,0,1-1.851-2.752c-1.071-1.5-1.369-3.637-3.569-4.251a51.654,51.654,0,0,0,3.8,7.319c.5.886,1.362,2.726.508,2.872-2.428.421-3.583,3.92-7.58,1.531C2044.125,1004.216,2045.066,1006.3,2040.8,1005.755Zm-137.91,105.681c.414-1.2,1.924-2.5.7-3.678-1.688-.479-1.506,1.725-2.105,2.89-.5.984-1.634,1.75-2.023,2.658a6.447,6.447,0,0,0-.159,3.949C1902.062,1116.21,1902.211,1113.327,1902.886,1111.436Zm211.692-141.163c.185.918-1.423,1.474-.722,2.577,1.768-.6,2.711-2.541,5.195-1.9,3.989,1.032,7.482-.2,9.656-4.037.636-1.118,1.22-2.482,2.734-2.675,3.445-.443,3-2.9,2.592-4.748-.472-2.146-1.583-4.128-4.836-3.409a17.243,17.243,0,0,1-5.079.018c-2.777-.236-6.687-1.586-8.538,1.391-1.387,2.232-3.049,2.185-5.119,2.406.879,1.431,2.963,2.124,2.244,3.634-1.351,2.836.973,4.193,1.924,6.117A1.453,1.453,0,0,1,2114.578,970.273Zm-43.556,42.557c.926-.392.664-.94.189-1.455-.392.185-.719.363-.81.642C2070.532,1012.54,2070.841,1012.478,2071.022,1012.83Zm-31.547-1.9c.61-.559,1.659-1.01,1.3-1.859C2039.733,1008.735,2039.42,1010.188,2039.475,1010.932Zm-1.452-39.781c.871-.747,2.566-1.252,1.5-2.563C2038.016,968.675,2038.883,970.469,2038.023,971.151Zm.08.145a7.6,7.6,0,0,0-2.222,3.729C2037.057,973.9,2037.2,972.476,2038.1,971.3Zm-279.321-28.5c.062.228-.062.4.174.671.153-.08.3-.159.45-.243C1759.261,942.868,1759.058,942.69,1758.782,942.8Zm-52.407,161.569a7.6,7.6,0,0,0-3.928-3.652c-1.521-.6-6.875-.41-5.238,2.087C1698.951,1105.45,1704.139,1106.749,1706.375,1104.368ZM1668.6,988.185c-.607-.846-.559-1.5-1.068-2.317-.315.095-.5-.276-.9.109C1666.4,987.19,1667.952,987.389,1668.6,988.185Zm-3.431,28.733c-.41-.435-.708-1.263-1.318-1.013C1664.13,1016.766,1664.7,1016.686,1665.168,1016.918Zm13.218-47.607-.65-1.191C1674.534,967.833,1677.435,972.3,1678.386,969.311Zm-19.1,27.633c.472-.279.472-.693.106-1.216a1.418,1.418,0,0,0-.97.338l.487.893C1659.04,996.933,1659.2,996.8,1659.283,996.944Zm38.187,46.2a.831.831,0,0,1-.1-.526c-.222.061-.4-.062-.668.178C1696.868,1043.2,1697.1,1043.4,1697.47,1043.143ZM1671.194,980.2c.12-.352-.243-.973-.7-.581C1670.563,980.147,1670.708,980.216,1671.194,980.2Zm74.363,126.918c-.3-1.554-2.2-.82-1.587.294A1.034,1.034,0,0,0,1745.557,1107.116Zm5.391,2.08c-.3.164-.6.327-.9.49,1.238,3.649,4.48,6.582,7.827,6.549C1756.851,1112.819,1753.242,1111.109,1750.948,1109.2Zm-93.433,21.273c5.275.03,5.656.382,6.07,5.468.385,4.661,2.291,6.727,7.007,7.957,3.318.864,5.761-.777,8.731-1.717,4.487-1.423,5.91-4.1,6.407-7.536a31.284,31.284,0,0,1,4.117-11.156,16.077,16.077,0,0,1,1.267,1.038c2.069,2.088,4.4,3.409,7.387,1.783,2.944-1.609,3.271-4.135,2.385-7.021-.428-1.4-.344-2.789,1.413-3.311,3.107-.926,2.512-3.06,2.054-5.373-3.031.7-6.908.508-8.7,2.283-2.163,2.15-3.5,5.225-6.288,7.065a1.569,1.569,0,0,0-.515,2.443c-1.514-.113-3.122-.606-4.527-.272-4.868,1.151-9.569,3.017-14.666,3.075-.835.01-.806.465-.606,1.092.613,1.943-.571,1.489-1.772,1.322-3.307-.458-6.607.087-9.885.465-.832.094-2.189.257-1.935,1.6C1655.649,1130.676,1656.677,1130.462,1657.515,1130.469Zm541.38,81.271c-2.7,2.883.192,8.706-5.711,9.729-4.661.806-4.461,3.918-4.882,6.938-.076.534-.215,1.064-.374,1.822-6.092-2.733-4.255,1.957-4.832,4.4-2.734-1.673-5.729-.033-5.7,3.017.007,1.158,1.223,2.207.337,3.51-3.786-3.474-8.832-1.67-10.749,3.772-.944,2.683-.86,5.74-4.069,8.611.414-4.171,3.742-7.042,2.308-10.963-1.728,3.728-2.308,7.594-5.089,10.556-.9.962-.374,2.222.236,3.086,3.685,5.242,1.321,11.185,2.145,16.761-1.579-6.019-3.753-11.853-4.509-18.042-.424-3.485-.9-7.1-4.022-9.642-1.652-1.343-3.438-2.03-5.641-1.194-2.142.816-2.237,2.5-1.5,4.958-4.951-3.067-10.077-2.174-14.767-3.467,3.288,4.19,9.231,4.168,13.7,7.214-2.567,1.358-3.783.08-5.261-.668-4.2-2.131-8.208-.538-10.622,3.474-1.223,2.029.12,3.017,1.06,4.941-6.208-2.832-5.413,2.911-6.952,4.973-1.325,1.775-1.238,1.431-2.439.429-2.658-2.229-4.03-.621-4.426,1.789-.475,2.894-.439,5.852-.675,9.61-2.487-2.926-.955-5.838-2.026-8.267-.922-2.094-2.011-2.755-3.761-1.383-1.906,1.5-2.987,1.5-3.844-1.521a24.91,24.91,0,0,1-2.138,11.04c-1.264-1.957-.077-3.594-.411-5.108-.239-1.1.708-3.2-1.909-2.719-1.841.341-2.559,1.619-2.483,3.373.051,1.212,1.583,2,.973,3.383-3.329-1.564-5.794-.374-5.326,2.65.236,1.539,1.314,2.945.908,4.607a1.392,1.392,0,0,1-1.819-.788c-.585-1-.131-2.9-1.743-2.922-2.25-.029-.483,2.4-1.76,3.206-1.841.087-1.522-1.714-2.422-2.447-.853-.7-1.6-1.855-2.886-.821a1.951,1.951,0,0,0-.59,2.471c1.682.318,3.52.5,3.948,1.973a3.386,3.386,0,0,1-1.568.675c.783.766,1.58,1.521,2.342,2.305.49.5.914,1.184.315,1.819-.661.693-1.285.12-1.869-.247-3.605-2.244-7.94-3.365-11.022-6.451-.976-.977-2.813-1.467-3.256.723-.45,2.221-3.994,3.049-2.973,5.891.072.2-.824,1.046-1.2,1.013-4.85-.461-3.935,2.541-3.2,5.867-2.106-1.332-3.369-6.6-5.493-.966-4.243-2.57-9.406,4.008-13.562-1.02-.69-.835-3.01-1.732-3.954.359-.65,1.442-.058,2.683,1.972,2.749a4.589,4.589,0,0,1,.884.1,1.637,1.637,0,0,1-.01-.955,6.731,6.731,0,0,1,5.642.78c1.267.806,4.342,4.15,3.158,5.424-1.7,1.833-6.785-1.87-7.946-3.576-.14-.2-.269-.41-.386-.616-1.637,3.535,1.533,4.017,3.715,5.063a32.913,32.913,0,0,1,8.941,6.476c-4.607-2.581-9.116-5.165-14.855-2.929-.843,1.394,2.519,1.848,1.027,3.191-1.379,1.245-2.625-.21-3.906-.632a14.461,14.461,0,0,0-1.7-.3c-1.649-.327-3.631-1.674-4.879-.49-1.438,1.365,1.208,2.734,1.005,4.712-4.106-2.218-6.854.341-9.689,2.57-.577.454-1.184,1.013-1.888.639-2.984-1.6-5.431-.976-7.551,1.478-.824.954-1.078.159-1.488-.414-1.637-2.3-3.485-1.133-5.126-.011-1.191.813-1.83,3.137-3.507,2.331-1.728-.828-3.006-2.607-4.218-4.154-.4-.511.733-2.174-1.166-1.655a1.534,1.534,0,0,0-.813,2.4,23.007,23.007,0,0,0,3.786,4.836,9.036,9.036,0,0,1,2.9,4.766c-1.921-.076-4.756,2.817-4.313,4.531.214.838,1.39,1.666-.1,2.316-1.089.479-1.793-.178-2.461-1.031-2.062-2.646-5.094-1.721-8.071-.4-3.049,1.358-4.639,3.834-6.73,5.66-1.652-1,.083-3.217-1.844-3.122-1.881.094-1.572,1.931-1.681,3.227-.116,1.383.969,2.806-.352,4.629-1.049-2.066-1.848-3.856-2.864-5.533-.461-.766-1.224-1.688-2.389-1.336-1.358.41-1.02,1.55-.661,2.382,1.474,3.387-.973,5.024-3.293,6.788-.936.712-1.176-.109-1.63-.493-.791-.672-1.317-2.146-2.679-1.413-1.412.759-.708,2.16-.464,3.3.3,1.416.693,2.814,1.2,4.843-2.454-1.34-2.527-3.249-3.166-4.854-.366-.922-.112-2.494-1.681-2.4-1.277.073-1.5,1.478-1.945,2.425a20.536,20.536,0,0,0-.817,2.451c-2.36.973-.037-3.409-3.333-1.993-2.683,1.151-1.554,2.693-1.717,4.218-.381,3.641,1.783,6.821,2.411,11.061-2.636-2.062-4.019-4.723-8.041-4.592,3.514,3.017,6.875,5.573,8.97,9.824-2.981-1.267-4.541-3.337-6.208-5.13-1.83-1.971-3.732-1.837-5.63-.61-2.066,1.336-3.725,3.169-6.306,3.841-1.238.32-.675,1.55-.654,2.454.03,1.136,1.3,2.182.269,3.42a2.151,2.151,0,0,1-2.465-1.7c-.432-1.158-.6-2.577-2.193-2.472-1.3.083-1.452,1.536-1.862,2.483-.813,1.895-1.43,3.707-4.251,3.761-1.626.029-.185,2.5-1.721,2.792-3.151.606-3.372.635-1.713,3.568.763,1.35.21,2.229-.306,3.138a3.648,3.648,0,0,1-.387.763c-.042.1-.081.207-.113.314-.039-.008-.071-.024-.108-.034-.079.093-.138.2-.226.285a4.008,4.008,0,0,1-2.622-3.861,2.412,2.412,0,0,0-1.811-.565c-.424,2.589.973,5.3-.414,7.961-.526,1.006.5,1.427,1.772,1.943a9.628,9.628,0,0,1,6.193,6.556c-4.563-2.207-6.36-6.839-11.555-7.072,1.739,3.587,4.68,6.226,7.188,10.02-3.256-1.049-4.857-2.781-6.567-4.4-.766-.722-1.561-1.847-2.839-1.183-1.176.61-.962,1.964-.77,2.919a31.012,31.012,0,0,0,1.547,4.425c-.733,1.706-2.567-3.638-2.952.49-.014.149-.559.428-.628.378-2.7-1.99-4.258-1.191-5,1.764-.777,3.079-.679,6.248,2.57,7.729,6.237,2.839,4.49,9.025,7.652,13.072-.4.225-.8.451-1.2.672-1.916-2.9-3.88-5.779-5.725-8.724-.642-1.023-.954-2.479-2.454-2.414-1.92.087-1.252,1.826-1.441,2.839-.86,4.574-1.419,9.152.784,13.6a1.971,1.971,0,0,1-.236,2.44c-1.662-.388-1.76-2.094-2.8-3.133-1.735.915-2.632,2.541-3.5,4.2-1.22-.8-.541-1.7-.218-2.2,2.578-4.045,2.857-8.47,2.886-13.022.018-2.894-.054-5.831,1.06-8.662a3.631,3.631,0,0,0-1.615-4.582c-1.855-.991-1.972,1.256-2.8,2.153-1.444,1.576-2.385.352-2.824-.7-1.351-3.235-2.763-2.868-4.462-.29a1.552,1.552,0,0,1-2.744.2c-1.6-1.746-3.064-1.532-4.585.069-1.75,1.837-4.378,1.3-6.542,1.891-4.581,1.264-4.734,1.107-2.4,4.89.45.726,1.6,1.165,1.212,2.3-.867.381-1.277-.323-1.84-.643-5.024-2.864-8.023-2.087-10.669,2.767-.843,1.546-.008,2.7.838,4.007,1.928,2.992,4.516,5.838,2.494,9.838-.8,1.579.574,1.583,1.859,1.489,5.594-.4,6.466.41,5.4,5.616-.3,1.459-1.067,2.479.766,3.579,1.238.744,1.056,2.091-.138,3.039a1.658,1.658,0,0,1-2.759-.6c-.512-1.281-1.082-1.267-2.4-1.2-4.791.218-6.614-1.859-5.434-6.364.744-2.824-.141-3.728-2.723-2.425-2.319,1.169-2.646-1.568-4.548-1.467-2.752.142-2.07-1.7-1.7-3.536.458-2.236-.519-4.232-3.448-3.416-1.939.538-3.475,1.551-4.93-.707-.392-.61-1.329.047-1.638.639-7.869,15.131-5.747,30.477-20.388,42.27-13.338,10.744-32.353,14.23-49.06,13.021-22.294-1.615-44.424-10.09-60.531-25.589-14.628-14.077-20.079-33.575-27.308-51.992-7.7-19.614-13.679-39.972-23.468-58.71-5.4-10.337-11.911-20.079-16.983-30.581a120.287,120.287,0,0,1-10.66-33.25c-1.579-10.011-6.975-18.975-9.518-28.919-3.038-11.885-5.641-27.686-1.976-39.741,3.929-12.923,14.551-10.458,19.418-18.3l.2-.316.345-.156c.929-.428,1.746-.911,1.227-2.12-.574-1.318.308-2.12,1.292-2.567,1.43-.649,1.187.9,1.761,1.42,1.212,1.1,2.726.787,4.174.065,1.612-.8,3.417-1.626,3.863-3.322.32-1.2-1.369-1.216-2.352-1.637-3.776-1.6-7.588.105-10.782.97-4.843,1.314-5.932-1.634-7.9-4.023-.5-.61-1.779-1.187-1.038-2.323a2.293,2.293,0,0,1,2.6-.777c3.63,1.9,5.478-1.151,7.819-2.57,1.739-1.06,3.351-2.669,5.439-1.423,2.232,1.328,5.107,2.562,3.546,6.138-.94,2.146.694,2.113,2.146,2.171,4.614.174,7.994-2.515,11.591-4.716-2.007-1.169-4.08-2.247-5.979-3.561-.613-.421-2.555-.519-1.593-1.594.777-.871,0-2.279,2.16-2.965,3.281-1.035,6.93-2.988,6.716-7.631a4.09,4.09,0,0,1,2.08-3.358c1.252-.806,3.971-.327,2.875-3.231-.16-.425,1.02-.784,1.735-.679,2.371.355,3.765.011,3.329-2.922-.221-1.482.915-2.418,2.77-1.725a6.16,6.16,0,0,0,6.854-1.495,6.321,6.321,0,0,1,3.739-1.638c1.856-.041,3.7.231,4.9-.586.8-.545,1.305-1.573,1.334-3.5.029-1.873,3.271-1.622,4.694-3.023,1.162-1.151,3.986-1.3,3.02-3.616-.864-2.091.418-6.085-5.021-4.843,1.758-2.527,7.177-3.082,2.182-6.861a9.077,9.077,0,0,0,1.692.362,3.568,3.568,0,0,1-.181-.631c1.1-1.814,2.462-.618,3.764.326,3.519-1.047,6.376-3.873,10.041-4.174,1.282-.1,2.473-.817,3.235.508,1.361,2.36,3.725,2.527,5.856,2.062,3.514-.769,7.616.585,10.524-2.643a1.292,1.292,0,0,1,1.862-.308c1.783,1.5,2.9,1.8,3.65,1.436a4,4,0,0,1,1.56-4.446c.05-.036.1-.062.15-.1.039-.521-.032-1.058-.041-1.578,7.34,1.416,13.907.893,19.625-4.422,2.961-2.752,4.735-3.364,7.4-2.512-.786-1.183-.134-2.143,1.069-2.356a3.172,3.172,0,0,1,1.488,1.311,4.212,4.212,0,0,1,.765-.107c.074-1.56-.892-2.9-2.5-4.105,1.649-1.514,3.968.2,5.3-1.819a.761.761,0,0,0-.321-.221,4.117,4.117,0,0,1-.039.443,4.217,4.217,0,0,1-4.351-1.328c-1.489,1.145-4.3.324-5.16,2.286-.465,1.057-.955,1.667-2.138,1.365-1.256-.319-1.282-1.176-.977-2.243.611-2.144.179-3.4-1.467-3.758a5.086,5.086,0,0,1-.054,2.894c-1.7,3.63-7.526,2.254-8.575-2.262-.124-4.286,4.789-5.538,7.305-3.164,1.83-2.8,2.683-5.76,6.8-5.679.683.011,1.7-.156,1.99.2,2.835,3.507,5.485.976,8.694-.113-.177-.109-.354-.209-.531-.3a5.113,5.113,0,0,1-3.191-1c-1.618-.227-3.2-.138-4.744-.284-.994-.1-2.577.079-2.715-1.344a2.213,2.213,0,0,1,2.055-2.283c4.156-.294,1.234-4.349,3.782-5.4-3.354-2-6.527-2.276-9.083.265-2.181,2.174-2.661,5,.353,7.823-2.614-.025-2.487-2.014-3.848-2.1-.6-.04-1.565-.668-1.7.385-.53,4.126-2.926,6.722-5.944,8.827a2.134,2.134,0,0,0,.034.325,9.829,9.829,0,0,1-1.456.609c-.674.419-1.365.825-2.066,1.224a7.659,7.659,0,0,0-2.352,1.7c-1.445,1.876-2.135,4.156-5.692,2.617a4.019,4.019,0,0,0-5.417,3.177c-.6,2.977-3.761,4.182-5.2,6.719-1.049,1.855-9.875.7-11.018-1.212-1.176-1.964.584-2.258,1.946-2.6,2.882-.719,2.737-2.066.679-4.051,2.65-.4,5.572,1.191,7.434-1.518.371-.541.8-1.049,1.206-1.572-4.643-2.192-.479-3.859.5-5.648,1.655-3.024,4.313-3.605,7.032-1.63.534.384.49,1.935,1.666.94.86-.73.723-1.692-.221-2.447-1.078-.86-1.993-1.572-3.7-1.1-2.08.574-5.159.9-5.78-1.252-.6-2.058-1.9-5.01.951-7.083,2.789-2.025,5.377-1.506,7.907.3.327.232.516.639.817.918.886.817,2.048,1.285,3,.411,1.064-.98.385-1.9-.595-2.7-1.18-.969-2.425-2.185-1.51-3.793,1-1.758,2.882-1.562,4.527-1.049,3.125.969,4.879.177,4.661-3.228-.08-1.314-.029-2.4,1.445-2.977,3.953-1.561,6.3-4.65,8.629-7.957,1.361-1.928,3.42-3.613,6.237-3.3-.05-.744-.264-1.091-.559-1.244a2.34,2.34,0,0,1-1.43.011c-.548.072-1.056.043-1.289-.655.023-.027.047-.046.071-.072-.1-.089-.193-.183-.289-.287-2.109-2.291-2.16-5.761-.643-7.188,1.307-1.238,3.837-.7,4.956.577a5.139,5.139,0,0,1,.564,5.869,7.514,7.514,0,0,0,2.884.128c1.238-.283-.127,2.876,2.081,1.224,1.738-1.3,3.456-2.168,2.541-4.835-1.187-3.464.1-5.878,4.127-6.437-.036-1.685-2.4-.969-2.475-2.483,1.012-1.463,4.657-.091,4.087-3.409-1.459-.483-1.593,1.082-2.534,1.3-2.073.479-4.1.49-5.209-1.492-1.162-2.077-.222-3.659,1.957-4.64.787-.355,2.312-.156,1.735-1.662a1.549,1.549,0,0,0-2.135-.781c-1.561.6-1.339-.337-1.946-1.383a8.811,8.811,0,0,0-7.79-4.788c-1.561-.018-3.358.308-5.249-1,3.013-1.891,5.935-2.429,8.629-1.343,2.9,1.169,6.6.8,8.647,3.888a2.627,2.627,0,0,0,3.017.947c1.426-.609,1.078-1.866,1.158-3.125a17.73,17.73,0,0,0-2.919-10.608c-3.093-5.115-5.932-10.379-9.363-16.434,3.965,1.3,4.466,4.225,5.548,6.367a34.575,34.575,0,0,0,6.229,9.119c1.794,1.79,3.736,3.838,6.811.756.569-.57,2.759,4.055,6.051,3a1.728,1.728,0,0,0,.385-.185c2.422-1.5,6.538-1.013,7.137-4.524.592-3.456-3.525-3.278-5.351-4.926-.5-.454-1.223-.675-1.292-1.67,1.8-1.1,3.046.588,4.552.842,1.579.265,2.7,2.218,4.985.915-.549-1.194-2.6-.109-2.781-1.634,1.063-1.688,3.009-1.009,4.556-1.5-1.365-1.125-1.365-.933-6.615-.784-2.33.065-4.646,1.423-7.278.41,1.081-1.906,2.759-2.185,4.414-2.156,7.05.123,13.414-3.558,20.478-3.841a2.223,2.223,0,0,0,1.257-.406,13.249,13.249,0,0,1-.019-2.012c.427-.323.7-.113,1.047-.184a11.406,11.406,0,0,0-.121-2.789c-.537-3.587-1.289-7.028,2.385-9.82,1.231-.936,1.347-2.334-.2-3.474-1.453-1.071-2.658-2.69-4.749-1.136-.672.5-1.089,1.314-1.721,1.88-3.481,3.107-8.367,3.449-10.789.795-2.788-3.057-2.036-8.7,1.6-12,3.42-3.112,7.428-3.115,10.59.054.958.962,1.539,2.4,3.365,1.961.868-.211,2.465.061,1.245-1.6-.453-.621-.7-.988.113-1.645,3.6-2.893,3.572-2.926.74-6.56,2.063-.526,3.987,2.607,5.671.211.859-1.224.058-2.136-.714-3.154l-.556.3a1.537,1.537,0,0,1-.024-1.149,3.506,3.506,0,0,1-.285-.612c.166-.067.329-.136.491-.205a1.422,1.422,0,0,0-.208-.92.738.738,0,0,1,.825.663,3.491,3.491,0,0,1,3.629.092c.9.61,2.008.81,2.716-.1.824-1.048.254-2.138-.574-2.976a41.559,41.559,0,0,1-3.964-4.295c5.2,1.569,10.571-.359,15.726.89,1.964.475,2.48-2.269,3.718-3.434,1.492-1.413,1.84-3.4,4.759-3.863,1.732-.269,1.151-3.874,1.928-5.914.617-1.623-.912-1.986-2.11-2.5-5.438-2.367-10.937-4.618-15.86-7.91-1.013-.679-2.578-.781-2.745-2.291-.105-.966.777-1.013,1.507-1.063,1.732-.124,3.111-.149,4,1.916,1.006,2.331,3.395,3.463,6.056,3.812.668.087,1.477.566,1.946-.214.544-.915-.08-1.663-.821-2.084-1.314-.751-2.726-1.35-4.922-2.41,2.381-.639,4.781.3,5.481-1.685a3.894,3.894,0,0,0-1.543-4.545c-1.415-1.133,1.7-1.267,1.01-2.5,3.906-.762,1.956-2.7.929-4.722,4.189,3.88,9.852,2.639,14.47,4.443,2.6,1.02,2.832-.581,3.761-2.334,1.253-2.371-.062-3.159-1.688-3.765a42.581,42.581,0,0,0-5.627-1.216c2.948-1.6,3.812-2.944,1.274-5.2-2.57-2.28,1.169-4.454,1.329-6.887.12-1.895,1.427.49,1.964.145,3.22-2.094,7.874-1.8,10.012-5.6,1.2-2.135,1.736-4.135-.308-6.47-3.253-3.713-2.821-11.283.232-14.778.777-.89,1.616-.258,2.353-.022,1.778.566,3.586,1.216,5.463.566,1.5-.512,4.32-.25,1.99-3.928,5.107,3.95,6.055,4.092,6.066,1.467.011-1.768-1.176-3.42-.3-5.58,2.19,1.913.966,5.551,2.981,6.625a3.85,3.85,0,0,0,5.583-2.842c.7,3.263.639,6.68,5.66,4.734.581-.226,3.136,4.407,4.541,6.915.45.806.585,1.569,1.707,1.195,5.085-1.7,14.143.755,17.149,5.235,1.539,2.3,1.074,5.514,2.331,8.2.646,1.387-1.5,1.812-2.752,1.1-2.2-1.238-3.87-.279-5.515,1.115-2.893,2.457-5.612,4.417-10.041,3.946-1.782-.189-5.921.678-6.8,4.454-.268,1.162-1.8,2.131-2.831,3.107-1.776,1.681-4.016,3.184-.759,5.421.991.678.345,1.873-.247,2.661-1.122,1.5-2.363,3.027-4.295,3.532-3.6.936-6.85,4.095-11.028,1.281-2.077-1.4-4.219,1.434-6.539,1.481.433,3.373,2.171,4.894,6.31,3.674-3.623,2.1-3.485,4.026-1.38,6.575.712.86,3.322,2.657-.021,4.537-.654.367-.048,4.353,2.163,5.195,3.093,1.18,6.23,3.638,9.94.857a1.48,1.48,0,0,1,2.447.686c.544,1.278-.77,1.274-1.449,1.572-3.467,1.525-6.719.189-9.99-.512-1.093-.236-2.033-1.031-3.126-1.285-2.36-.552-4.77-1.343-7.159-1.252-3.194.116-1.434,3.764-3.325,5.184-1.2.907-1.391,3.009-3.032,3.488-5.605,1.627-7.278,6.677-10.237,10.586-1.695,2.233-1.35,3.867.893,5.257,3.1,1.924,1.7,2.77,1.314,5.206-.363,2.291-4.719,4.846-.878,7.427.483.323.813,1.2.69,1.18-3.848-.552-.861,4.618-4.153,4.7.664.156,1.706.66,1.935.424,4.145-4.261,7.982-.112,11.95-.036a2.471,2.471,0,0,1,2.676,2.109c1.187,5.493-4.618,12-10.644,11.737-2.069-.087-2.309,1.554-2.73,2.414-1.761,3.605-3.652,5.892-8.328,4.135-2.174-.817-1.644,3.039-3.779,3.238.218,2.785-2.7,3.144-4.1,4.956.022-1.707.584-3.1-1.728-4.041-2.589-1.056-4.585-3.256-2.919-6.665.3-.617-.054-1.525-.116-2.378-2.077.534-1.775,1.924-1.888,3.1-.1.976-.141,2.283-1.162,2.475-.925.174-2.388-.047-2.388-1.619,0-.955-.443-1.27-1.307-.82-.6.308-.57.889-.349,1.445,1.7,4.269,2.984,8.527.164,12.988a1.22,1.22,0,0,0,.987,1.878c1.764.148,3.783.936,5.173-.923,1.006-1.354,1.743-2.915,5.079-3.692-2.592,2.651-2.817,5.5-5.474,6.9-2.023,1.063-2.6,2.512-1.765,4.457.273.632,1.525,1.191,1.572.879.559-3.681,7.01-3.561,5.257-9.032,3.194,2.509,6.636,2.178,9.395,4.008,1.434.951,3.627-1.492,5.845-1.376,1.314.069,1.7-.712,2.483,1.452,1.623,4.462.69,7.62-2.066,11.174-1.629,2.1-3.3,1.768-5.165,1.379-.114.364-.237.714-.367,1.032-.108-.368-.224-.768-.336-1.184-2.64-.622-.093-2.428-.888-4-5.924,3.583-12.847,5.555-17.044,11.555-.548.785-1.6,1.47-1.093,2.523.563,1.173,1.856.879,2.966,1.068,4.219.715,6.814-2,9.214-4.469,1.078-1.111,1.445-.959,2.636-.719,6.385,1.3,9.707,3.855,9.9,9.214.1,2.631-1.51,5.358,1.064,7.892a8.475,8.475,0,0,0-6.651-.581,8.837,8.837,0,0,1-2.625.38c.05,1.207.913,2.733-.254,3.388a11.178,11.178,0,0,1-2.26-3.667,57.035,57.035,0,0,0-6.111-1.386c-1.659-.156-1.089-1.351-.969-2.178.45-3.18-1.543-3.975-4.226-4.237-5.54-.534-8.647,1.419-9.254,7.145-.225,2.141-5.575,5.7,1.238,6.585-1.143,1.51-2.247,1.089-3.172,1.307-2.237.522-2.712,2.265-1.013,3.042,2.258,1.031,1.67,3.216,3.18,4.226-.726.831-1.18.384-1.674.232-1.568-.479-2.686-2.8-4.385-1.83-1.928,1.093-.3,2.955-.062,4.484.08.512.138,1.361-.591,1.209-3.867-.8-.966,1.382-1.006,2.12-.033.566.926,1.081.189,1.8-.567.548-2.523-.494-1.884,1.245a.993.993,0,0,0,.4.51,6.583,6.583,0,0,1,1.429-.837c2.105-.86,3.986-.218,5.906-.138.057.051.113.091.17.139a12.347,12.347,0,0,1,3.747-.825c5.547-.109,8.041,3.8,11.207,6.749.323.3-.846,3.677-.821,5.561.008.559-.009,1.121-.034,1.685a3.341,3.341,0,0,1,3.36-.516c3.764,3.776-2.084,7.511-.363,11.018.889,1.8,3.042,2.846,4.552,4.091a.987.987,0,0,0,1.133-.054c.835,1.26,4.331,2.443,5.921,1.993.842-.247,1.6-1.046,2.679-1.463,2.32.831,3.645,2.309,5.492,5.115,2.16,3.256,5.805,5.482,7.976,8.578.755,1.071,1.213,2.814,2.167,3.264,2.549-.588.726-3.416,2.262-4.7.748-.41,1.5-.817,2.233-1.22,3.83.868,8,.814,12.266,1.227,4.589.45,8.045,1.05,12.064,4.03,1.753,1.318,5.271,3.8,4.469,6.073-.6,1.663-2.777,3.148-4.807,3.584-3.438.744-9.725-2.81-13.926,1.034-1.06.984-1.132,2.178-1.546,3.55-1.456,1.493-4,3.05-2.3,5.322.955,1.286,2.984.3,4.426.672,1.688.428,2.864,2.578,4.683,3.62a5.567,5.567,0,0,0,4.94.21c.28-.21.077-.563.356-.777-.791-2.022-2.483-1.975-3.7-3.583-2.294-3.013-2.8-7.231-.316-8.716,3.3-1.979,6.267,1.249,8.913,2.86-.051,1.482.537,2.487.53,4.153-.015,2.611-1.478,4.691,2.109,6,1.369-.531,2.52-.306,3.685-1.046.617-.4.838-1.144,1.459-1.576.679-.457,1.677-.446,2.4-.914,1.728-1.151,1.543-4.477,3.728-3.787.218,1.376-1.129,2.923.153,4.171a2.744,2.744,0,0,0,2.74.432c2.03-1.2-.562-5.169,2.69-5.329,1.587,2.338-1.949,3.173-1.168,5.275,2.86-.388,4.654-2.578,7.086-3.286-.073-.649-.577-1.43-.3-1.967a1.523,1.523,0,0,1,1.815-.222,1.36,1.36,0,0,1-.983,2.088c1.009,2.243-2.509,3.666-1.162,5.659.591.879,3.111.9,4.962.959a18.973,18.973,0,0,0,5.446-.65,7.379,7.379,0,0,0,1.869-.831c.941-.766.48-2.157,1.659-2.262,1.05.719.69,2.007-.6,2.454,1.761.214,3.961-2.026,4.926-.181.912,1.735-2.486,3.467-4.675,4.882a4.22,4.22,0,0,0,.684.715,5.539,5.539,0,0,1,4.9,1.579c-2.792-4.465,1.528-7.325,2.523-10.759.424-1.46,8.709-1.3,10.241.221a3.365,3.365,0,0,0,.518.41c1.183-1.118,3.007-1.891,4.172-1.285.536,1.1-.268,2.467-1.4,3.432a2.645,2.645,0,0,1-.285,2.188c-.325.66-.038.922.415,1.086a9.441,9.441,0,0,1,5.651-1.166c1.088,3.9-3.929,4.955-6.847,4.446-2.063,1.63-4.267,3.073-6.395,4.58a3.286,3.286,0,0,1-1.46,2.275,1.258,1.258,0,0,1-1.371-.134c-.288.235-.582.464-.862.708-.376.328-.742.682-1.1,1.047a4.292,4.292,0,0,0,3.863.041c1.3-.613,2.534-1.753,3.485.026-.138.076-.011.236.018.37-2.091,2.327-4.788-.345-7.671,1.881.1,1.492,1.986,3.147,3.173,3.666a13.169,13.169,0,0,1,2.752-1.31c1.241-.218,4.883.189,5.267.8.712,1.129-.678,2.734-2.316,3.192-1.67.471-3.728-1.286-5.26-.8-.573,1.206.138,2.792-1.231,3.769,1.594,5.14,7.308-.247,9.759,3.361a2.59,2.59,0,0,1-4.117,1.285c-.628-.442-.817-1.2-1.423-1.542-1.394-.752-2.647-.011-4.037-.3-2.135,3.816,3.543,5.609,6.113,5.163,2.309-1.594,5.213-1.652,6.836.508a4.989,4.989,0,0,1-3.725,1.652c-.976-.015-1.749-1.061-2.86-1.337-1.953-.471-4.052.2-5.486-.482-.693.8.639,3.764,1.238,4.737,1.877,3.053,6.433,1.972,8.3,4.93.069,2.175-3.554,1.779-5.438.661-1.521-.911-3.529-2.617-5.449-1.471-1.409.839-1.4,3.007-2.643,4.339-.762.813-1.811.737-2.356,2.062,1.372.6,3.972-.715,4.523,1.2-.715,2.051-3.089.091-4.468.312a27.392,27.392,0,0,0,4.127,6.825c.98.9,2.465.091,3.373,1.249a7.235,7.235,0,0,0-.716,1.158c-.929.207-1.586-.53-2.512-.356-2.479,2.683-4.8,5.42-5.3,8.691a2.924,2.924,0,0,1-1.47-.933c-5.02,2.472-8.894,1.042-12.423-1.528-.533-.207-.762.588-1.125.428-.588-.243-.338-.846-.8-1.118-.643-.2-1.612.668-2.262.461-.425-1.332,1.089-2.1,1.79-3.093-.574-1.325-.175-2.777-1.358-3.9-2.436,1.088-2.625,3.891-5.652,5.22-.385.388-.018,1-.407,1.376-.857.374-1.869,1.227-2.614,1.23.447-1.161,2.313-1.9,2.08-3.263,1.856-1.619,3.282-3.365,4.981-5.028-1.072-.848-2.911-.812-4.649-.928a7.064,7.064,0,0,1-.695,2.434,35.492,35.492,0,0,1-4.045,6.338c.784,1.461,2.523,3.031,3.479,5.043,1.038,2.15.32,4.349,1.906,6.3.537.658,1.714.756,2.7,1.424,1.575,1.045,2.225,2.886,4.1,2.192.287-2.094-2.018-2.4-3.191-2.309-.352-.559-.1-.936-.2-1.43,1.971-.7,3.521-1.332,3.285-3.532-1.895.363-4.251,2.269-5.8,1.423-.668-1.027-.93-1.942-.469-2.639.665-.432,1.1-.069,1.6.094.421.621-.4.879-.635,1.311,3.111-.352,5.372-3.936,6.991-5.95,1.122.279,1.017,1.619,1.464,2.682a5.464,5.464,0,0,1-2.262,2.592c1.031.792,1.111,2.2,2.156,2.875-.519,1.224.04,2.76-.076,4.107.838.5,1.419-.037,2.2.141,1.986.454,2.607,2.69,4.32,4.026.541-.065,1.238-.926,2.015-.911-.141,1.575,1.151,1.2,1.826,2.283-.141.247-.352.483-.123.839-2.469.965-5.224.312-7.784,2.712.563,1.739,3.115,3.753,1.554,5.332-2.258-.065-4.886-.853-5.968-3.5.363-.937,1.815-1.55,2.113-2.5-.98-1.216-2.657-.051-4.222.759-1.2,1.51-.915,3.623-2.019,5.155-.446.613-1.226.795-1.767,1.354-1.108,1.14-1.674,3.082-2.491,4.647a15.753,15.753,0,0,0-1.877,4.7c-2.16,1.949-3.307,4.193-5.307,6.19,1.358-.12,2.781-.418,3.946.152.185-.125.356-.254.527-.383-.228-.2-.479-.408-.759-.637a8.711,8.711,0,0,0,1.359.157c2.927-2.49,3.978-5.532,8.355-7.6a3.413,3.413,0,0,1,.945,3.012c.2-.125.4-.247.605-.362,3.01-1.673,6.4.28,9.348,1.623a19.908,19.908,0,0,1,3.518,2.722c-.744.9-2.483,0-2.283,2.389a7.428,7.428,0,0,1-1.57,5.339c1.784,1.01,2.968,3.185,1.21,4.361-1.581,1.054-3.312-.184-4.432-1.921a10.549,10.549,0,0,1-4.985.807c-1.18-.086-2.476.009-3.683-.088a1.172,1.172,0,0,1-.368.24,1.385,1.385,0,0,1-1.681-.718,3.994,3.994,0,0,1-2.185-2.981c-.058-.239-.411-.41-.472-.65-.84-3.27-1.209-4.168-2.784-5.57a4.511,4.511,0,0,0-.582.412c-1.223,1.016-1.045,3.463-3.753,3.4a7.057,7.057,0,0,1-1.4-1.166c-2.015.32-3.983,3.137-6.212,4.549.385.839,1.169.305,1.558,1.078.719,1.895-1.986,3.326-3.681,3.177a6.432,6.432,0,0,1-2.39,2.29,35.61,35.61,0,0,0,6.557.059c3.493-.411,7.123,2.867,7.2,6.022.091,3.663-1.364,7.46.723,11.17-1-1.121-2.008-2.239-3.285-3.666-.752,3.638-3.867,4.218-6.575,4.668-1.986.331-4.5,1.787-6.288-1.038-.067-.106-.126-.223-.188-.336-.836-.215-1.7-.408-2.062-1.029a1.982,1.982,0,0,1,.584-2.447,1.351,1.351,0,0,1,.436-.14,11.921,11.921,0,0,1,1.133-6.482,1.5,1.5,0,0,0-.83-.546c-6.683-1.132-.523,18.562-.1,20.445a34.241,34.241,0,0,0,9.787,17.1c2.14,2.041,13.184,11.411,15.414,8.069.515-.773,3.633,1.307,4.327,2.28a6.9,6.9,0,0,1,1.075,4.194,1.559,1.559,0,0,0,2.21.144c1.347-1.038.439-2.562-.425-3.6-1.317-1.579-1.042-4.672-4.708-4.215-.813.1-1.365-1.713-1.623-3.126,2.237.062,3.707,1.1,5.308,1.852.857.4,1.924.9,2.708-.116.9-1.173.134-2.138-.839-2.727-2.363-1.43-4.828-2.708-8.317-4.636,4.32.334,6.9,1.79,9.537,3.043,2.951,1.4,5.917.366,6.959-2.6.211-.6.374-1.822.763-1.513,4.073,3.227,6.117-4.829,10.695-.356-2.157-4.288-.353-3.351-8.608-7.072,4.182.8,8.346-3.118,12.575.16,1.238.962,2.041.065,2.709-.966a3.234,3.234,0,0,1,2.664-1.833c5.079-.091,3.892-2.251,1.859-4.745-.222-.269-.222-.7-.425-1.387,2.6.657,5.435,2.981,7.108,1.532,3.278-2.835,8.317-2.541,11.214-6.375.439,2.963,3.688,3.58,5.148,5.831.653,1,2.752,1.728,3.641.185.853-1.481,4.091-2.879,1.307-5.061-1.906-1.5-1.445-2.113.664-2.414a3.115,3.115,0,0,0,2.5-1.2c3.906-5.3,8.636-9.587,15.777-10.727,3-.479,5.064-1.782,4.741-5.141-.225-2.367,2.726-1.274,3.851-2.926,1.954-2.867,3.95-6.222,8.59-7.358-.94,2.741-1.3,5.522-2.774,7.634-1.626,2.338-.744,3.791.018,5.961,1.227,3.507,2.578,2.367,4.484.755a6.92,6.92,0,0,0,2.069-3.539c2.12-7.1,9.283-12.321,16.935-13.65,2.832-.494,4.9,1.343,7.664.541-1.351-2.149-2.767-3.95-5.736-3.721.334-1.735,1.583-1.445,2.458-1.449,4.487-.01,7.707-1.383,9.66-5.706.287-.639,2.221-3.794,5.674-3.874,2.454-.058,4.854-3.169,8.15-1.927.809-2.567,5.075.061,5.761-3.493.131-.668,3.732,1.057,5.783,1.652.824-1.5-1.437-1.467-1.336-2.559.7-1.5,5.776.054,3.05-4.016-.941-1.4,1.009-1.227,1.844-1.1,3.086.468,4.124-.672,3.449-3.463-.175-.712-.106-2.277.805-1.714,1.576.969,2.353-3.725,3.7-.319.3.762.875,1.644,1.928.915,2.669-1.848,5.308-.516,7.9-.157,3.648.5,6.854.6,8.73-3.321a4.585,4.585,0,0,1,3.936-2.611,10.4,10.4,0,0,1-3.772,6.009c-1.169,1.052-.948,1.542-.193,2.28a1.514,1.514,0,0,0,2.56-.385c2.3-4.687,9.155-8.092,5.191-14.6,3.013-6.4-2.944-6.643-6.545-8.433a74.333,74.333,0,0,1-6.785-3.4c3.568.472,6.679,1.967,9.907,3.238,1.568.617,3.292,2.214,5.173-.643,1.521-2.312,2.258.276,2.4,1.271.291,1.942.374,4.668,2.853,4.1,2.433-.563,5.417,1.031,7.679-2.494,1.825-2.843,5.565-5.086,9.758-5.787,2.338-.392,5.038.065,7.006-1.92.349-.352,1.325-.683,1.608-.5,6.31,4.153,10.8-.664,15.719-3.191a4.084,4.084,0,0,1,3.286-.287c2.178.581,4.418.661,5.674-1.793,1.633.9-.494,3.478,2.135,3.573,5.924.221,4.889,5.583,7.126,8.523C2199.607,1210.75,2199.3,1211.3,2198.9,1211.74Zm-279.844,49.895a1.573,1.573,0,0,0,.763-1.772C1919.226,1260.361,1918.688,1260.869,1919.051,1261.635Zm-12.415,13.349c.875.569,1.053,1.154,2.109,1.749a2.608,2.608,0,0,0,.287.139c.839-1.224,1.137-2.469-.849-3.577A4.421,4.421,0,0,0,1906.636,1274.984Zm-74.686-104.516c.356.392.142.628.341.965C1833.348,1173.906,1832.517,1170.174,1831.95,1170.468Zm-112.277,30.4c-.022-.483.084-.628-.341-.973C1718.384,1200.294,1718.943,1201.125,1719.673,1200.868Zm57.271-91.276c.448.188.921.4,1.431.654A4.786,4.786,0,0,0,1776.944,1109.592Zm249.567-79.209c-1.361,1.082-1.793,2.686-.533,3.953,1.194,1.209,3.721-.472,4.116-1.659C2030.933,1030.19,2028.374,1028.909,2026.511,1030.383Zm-341.42-77.409c4.157,1,6.567,3.565,9.424,5.969,2.8,2.363,6.121,4.105,8.128,7.409a5.646,5.646,0,0,0,4.571,2.247c-8.382-11.37-20.537-16.953-31.529-23.989C1678.186,948.124,1680.927,951.972,1685.091,952.974Zm59.918,64.006.327.6C1745.971,1017.383,1745.524,1016.562,1745.009,1016.98Zm29.568-13.44c-.109-.195-.221-.406-.323-.591-.156.083-.3.163-.45.243C1773.971,1003.6,1774.16,1003.965,1774.577,1003.54Zm-5.848,77.391c-.171,1.5,1.815.417.45-.243C1769.034,1080.768,1768.889,1080.847,1768.729,1080.931Zm-41.294-52.61c1.114-.077,1.688-1.093.755-2.153A1.143,1.143,0,0,0,1727.435,1028.321Zm23.883-31.976c.047-.283-.156-.631-.105-.915a1.059,1.059,0,0,0-1.274.509c.105.192.214.4.323.591C1750.617,996.443,1750.886,996.669,1751.318,996.345Zm-35.05,6.578c.109.2.218.4.327.6C1717.462,1003.3,1716.889,1002.411,1716.268,1002.923Zm51.14-89.682c1.916-.015,3.354-.036,4.537,1.946,1.191,2,3.58,2.069,5.613.682,1.917-1.307,2.479-3.412,1.19-5.107s-1.19-3.01-.577-4.887c1.652-5.053-.072-9.1-4.585-11.537-5.111-2.763-9.486-2.167-13.889,2.236-3.347,2.549-3.532,6.455-2.077,10.2A9.791,9.791,0,0,0,1767.408,913.241ZM1712,1101.583c1.478-.268,1.539.628,1.111,1.42-1.968,3.674,2.157,3.815,3.518,5.1,1.572,1.482,1.459-1.586,2.556-2.109.617-.29,1.423-.261,1.967-.624,2.331-1.55,4.923-3.115,3.551-6.455-.883-2.145-5.047-2.857-7.867-1.626-.726.319-1.362,2.871-2.618.022-.406-.923-1.764,1.51-2.722,2.348C1710.6,1100.451,1710.554,1101.318,1712,1101.583Zm13.508-15.592a.873.873,0,0,0-1.078-.569C1724.643,1086.126,1725.082,1086.042,1725.51,1085.991Zm-5.227-89.511c-.4-2.966-3.1-8.223-5.652-9.283-.5.185-.461.53-.73.788C1715.462,991.121,1717.734,995.307,1720.283,996.48Zm-522.646,413.909c-.976.142-1.579.9-1.677,2.531a8.606,8.606,0,0,1-3.139.647c-.263.349-.765.42-1.464.235a2.97,2.97,0,0,1-.73-.3c-4.42-.4-9.683-2.19-14.049-2.462-4.578,6.259-10.317,10.669-12.695,20.784,2.538,5.075,12.111,10.65,8.048,17.2-1.858-7.682-14.771-11.9-22.5-7.925-1.485,5.031-3.463,9.257-5.26,13.813-9.755,2.451-18.8,10.666-29.663,5.841-4.211,3.968-4.7,14.245-9.991,16.529-7.587-.414-3.133-10.474-11.021-10.677-3.95,3.95-2.316,17.367-9.915,15.244-4.853-2.68-.225-12.877-3.038-17.157-10.194-4.861-17.349-2.305-27.525-4.091-2.055,1.982-3.013,5.812-5.652,6.825-.189-2.76,5.278-5.577,1.677-7.41-5.616-.613-7.348,5.362-14.325,2.494,1.579-6.342,5.162-10.477,3.743-16.3-25.34-5.584-21.339-33.134-31.017-50.4-15.68-5.961-29.395,2.625-39.472-.428,5.659-2.306,13.421-1,17.251-6.277-1.874-4.345-8.56-7.134-3.848-12.735,8.749.936,9.965,7.2,14.052,11.414,5.054-2.382,13.229.566,16.511-4.72,4.131-10.422-1.234-14.063-3.442-19.941,2.738-6.734,8-9.174,9.791-17.393.461-5.735-8.934-4.6-6.806-11.482,1.749-5.606,9.311-1.39,13.167-3.377a32.274,32.274,0,0,0,2.66-9.349,9.271,9.271,0,0,1-3.749-3.81c-1.115-2.291-.371-4.316,1.833-4.781a19.2,19.2,0,0,1,2.247-.174c.122-.01.218-.031.33-.045.107-.849.236-1.752.414-2.762q.786-.077,1.562-.169c-.051-.249-.109-.507-.19-.8-.555-1.99.5-3.213,2.549-2.912a5.931,5.931,0,0,1,3.893,2.529c5.64-1.63,10.181-5.056,11.907-13.16a4.6,4.6,0,0,1-1.2-.456,3.321,3.321,0,0,1-1.953-2.5c-.105-1.129.563-1.637,1.735-1.423a7.622,7.622,0,0,1,3.6,1.038,2.9,2.9,0,0,1-.243,1.926c6.116.151,11.752-.461,15.566-4.089a3.787,3.787,0,0,1-.276-.534c-.4-1.093.534-1.862,1.863-1.561.048.015.09.041.137.057a18.8,18.8,0,0,0,2.807-7.728c3.042-2.868,8.832-1.1,11.482-4.559-.02-.011-.04-.034-.06-.047-.051.163-.226.3-.609.322-.1-.127-.2-.25-.291-.37.1-.322.241-.469.389-.51-1.118-1.7-1.916-6.043.84-6.224.94,8.546,16.467,5.594,21.194,3.071,2.6,1.134,3.266,3.616,4.548,5.666,1.828-.452,4.108.152,6.455,1.125a6.54,6.54,0,0,0,2.371-3.995c-4.1-4.576-11.636-6.8-18.762-9.324a4.2,4.2,0,0,1-2.652,1.446,2.572,2.572,0,0,1-.774-2.713,38.334,38.334,0,0,1-7.476-3.719,4.943,4.943,0,0,1-3.708,6.9c-4.134-.588-6.12-5.507-2.831-7.9a5.349,5.349,0,0,1,4.045-1.054c.42-1.774.937-3.52,1.511-5.25-.692-.457-1.4-.858-2.109-1.248a2.993,2.993,0,0,1-.369.357c-1.314,1.035-3.717,1.213-4.585.233-.847-.955-.709-2.488.129-3.811a5.088,5.088,0,0,0-2.813-.749,46.128,46.128,0,0,1-4.782-.269,9.789,9.789,0,0,0-6.36.966c-3.14,1.858-5.18,1.227-9.943-2.516-.726-.57-1.391-1.263-2.055-.929s-.722,1.038-.363,1.953a2.921,2.921,0,0,0,1.888,1.659c1.485.49,2.955.889,4.454,1.332.407,1.133-1.194.436-1.2,1.449a9.646,9.646,0,0,1,2.617.17c1.6.512,2.951.806,3.547-.381a.93.93,0,0,1,.744-.366,2.7,2.7,0,0,1,2.614,1.611,1.89,1.89,0,0,1,.249.684,3.653,3.653,0,0,1,.6.032c3.5.519,4.313,4.8,1.361,7.282a4.484,4.484,0,0,1-5.122.058c-2.965-2.2-1.55-5.236.757-6.624a14.139,14.139,0,0,0-1.4-.332q-2.308-.321-4.556-.479c-.8-.058-1.837-.091-1.372,1.006.526,1.241,1.507.9,2.305,1.14a11.67,11.67,0,0,1,1.365.867c-2.788-.635-1.209,2.106-2.563,2.571a21.448,21.448,0,0,0-3.5,1.738c-.729.4-.711,1.249-.207,2.317a14.95,14.95,0,0,0,4.97,6.4c1.329.929,2.639,1.917,3.924,2.929a15.361,15.361,0,0,1,4.763,6.03c1.863,4.375-.257,7.064-4.759,5.536-2.617-.889-4.89-1.459-6.535-.287-.7.5-1.894.182-3.056-.3-1.6-.664-3.2-1.39-5.017-2.185.334-2.556-.672-5.7,1.14-7.468.787-.769.352-2.385-.882-3.928-.919-1.147-1.979-2.443-3.326-2.8-1.572-.413-1.39.973-1.615,1.9-.2.846.072,1.957-.443,2.643a.981.981,0,0,0,.348,1.292c2.186,1.688,1.053,2.138.414,2.846-.192.211.429.951-.091,1.086-1.339-1.18-1.038-2.36-1.924-3.757-.791,3.329-1.245,6.759-3.4,9.489-1.695-2.708-2.774-5.267-5.888-5.721a3.061,3.061,0,0,1-1.837-1.768,12.585,12.585,0,0,0-2.843-4.081,36.764,36.764,0,0,1-3.064-4.559c-.352-.559-.759-1.391-1.488-1.416-.824-.033-.781.715-.479,1.485.286.722.726,1.463,1.06,2.192,1.4,3.1,1.277,5.253-.73,5.9-2.117.675-4.749-.105-7.515-2.116a19.974,19.974,0,0,1-5.1-5.613c-.47-.741-.832-1.3-1.153-1.749a5.709,5.709,0,0,1-2.234-.545c-1.6-.665-3.2-1.391-5.017-2.182l0-.033a3.141,3.141,0,0,1-2.661-.428c-1.753-1.289-.987-2.505-1.564-3.772-.042-.091-.088-.164-.131-.251a.282.282,0,0,1-.1.055,3.874,3.874,0,0,1-1.179-1.949,3.849,3.849,0,0,0-.988-.741c-.664,2.985-1.235,5.98-3.158,8.422-1.7-2.712-2.777-5.267-5.889-5.721a2.97,2.97,0,0,1-1.675-1.428,1.559,1.559,0,0,1-1.436-.877c-.3-.567.08-.788.429-.948.023-.011.049-.02.073-.031a16.319,16.319,0,0,0-1.411-1.816,2.413,2.413,0,0,1-.441-.211.99.99,0,0,1-.421-.8,19.711,19.711,0,0,1-1.383-1.921,9.991,9.991,0,0,0-1.238.207l-.976.1c1.2,2.86,1.009,4.853-.9,5.461-2.113.676-4.745-.105-7.511-2.116a19.946,19.946,0,0,1-5.1-5.609c-2.033-3.209-2.088-3.191-5.275-3.822a10.081,10.081,0,0,1-1.892-.512c-1.466-.6-2.356.533-3.9-.6-1.749-1.292-.983-2.509-1.564-3.772-1.242-2.726-2.966-3.757-5.094-2.984a25.114,25.114,0,0,1-7.757,1.372,1.643,1.643,0,0,1-1.7-.878c-.3-.566.08-.791.428-.948.6-.279,1.238-.515,2-.824-1.579-1.3-2.523-.464-3.782-1.238-1.071-.943.355-1.415-.654-2.243s-1.648-.341-2.389-.261a52.991,52.991,0,0,1-11.656.33c.718-1.274,2.018-1.173,3.093-1.314,3.107-.407,6.262-.734,9.358-1.148,1.017-.137,2.353-.014,1.253-1.985-.763-1.365.308-1.5,1.318-1.351,2.5.378,3.5-.653,3.848-2.639a4.5,4.5,0,0,1,1.55-3.238c1.274-.886.581-2.425-1.6-3.928-2.516-1.735-5.137-3.213-7.718-4.81-.9-.559-1.822-1.089-2.7-1.714a2.632,2.632,0,0,1-1.263-1.717c-.033-.871.853-.642,1.615-.395a15.548,15.548,0,0,1,2.36,1.012c1.724.886,2.879.908,2.966-.577.094-1.615,1.6-1.412,3.046-1.249a19.618,19.618,0,0,1,2.312.679c.922.24,1.837.37,1.95-.49.119-.94-.843-1.674-1.75-2.287a38.791,38.791,0,0,1-8.633-8.488c-1.278-1.619-2-3.031-.951-3.935,1.016-.871,2.675-.348,4.185.984,3.253,2.875,7.04,5.707,6.825,9.591-.09,1.612,1.554,2.8,3.188,4.469.366-2.893,2.8-1.9,5.561-.5a13.539,13.539,0,0,0-4.37-3.75,11.163,11.163,0,0,1-3.736-3.413c-1.652-2.283-2.908-4.588-1.808-6.222.786-1.164,2.23-1.353,4.06-.82a1.732,1.732,0,0,1,1.534-.058,3.092,3.092,0,0,1,2.03,1.925,12.226,12.226,0,0,1,3.521,4.213,8.711,8.711,0,0,1,.6,1.841,4.856,4.856,0,0,0,2.414,3.409,6.881,6.881,0,0,1,2.646,2.951c.788,1.456,1.736,2.465,2.937,1.532.922-.718,1.8.893,2.69,1.507s1.775,1.336,2.538,1c.708-.305.065-1.162-.193-1.881a6.15,6.15,0,0,1-.573-2.145,5.645,5.645,0,0,0-1.594-4.24,7.306,7.306,0,0,1-1.183-2.222c-.545-1.55-.676-2.94.693-3.333,1.282-.366,2.636.636,3.993,1.841,1.06.94,2.12,2.57,3.38,2.047a1.1,1.1,0,0,0,.7-1.071,3.982,3.982,0,0,1-.864-1.8,1.406,1.406,0,0,1,.117-.811,7.062,7.062,0,0,0-.39-1.135c-.715-1.416-1.811-2.255-2.77-1.681a14.862,14.862,0,0,1-3.993,1.256c-1.546.385-3.209-.573-4.57-2.327s-1.674-3.688-.766-4.618c.925-.947,2.145-.762,4.334,1.122,1.975,1.7,3.028,1.99,4.622,1.289,1.128-.492,2.286-.761,3.028-1.622-.036-.018-.067-.028-.1-.048-2.8-1.528-7.958-7.874-8.5-10.462-.443-2.135.737-2.632,3.085-1.3,3.2,1.8,7.33,7.076,8.245,10.5.008.029.006.05.013.079a6.114,6.114,0,0,1,1.835,1.664c.356.471.555,1,.86,1.495,1.543,2.512,1.666,2.658,3.322,1.859,1.633-.788,4.218.461,5.946-.116.665-.222,1.743.8,2.48,1.63,1.63,1.844,2.617,1.535,3.387.715a4.5,4.5,0,0,0,.915-3.075c.036-2.065.1-4.124.036-6.24-.036-1.213.352-1.888,1.488-2.142a6.935,6.935,0,0,1,2.588-.288.553.553,0,0,1,.434-.155.353.353,0,0,1,.151.337,13.349,13.349,0,0,1,3.2,2.7c2.07,2.051,4.331,3.916,5.852,6.4,1.579,2.574,2.741,5.028,2.266,7.122-.483,2.146.787,4.415,2.741,6.684.918,1.065,1.9,2.1,2.735,3.167.022-.009.042-.014.063-.023,1.453-.636,2.97-.886,3.558-2.534.5-1.394,2.556-.594,3.991,1.265,2.555-.466,4.705-1.576,7.7-1.36l.181.016c-.02-.068-.048-.133-.065-.2-.49-1.9.475-3.158,2.113-2.748a5.625,5.625,0,0,1,3.5,3.6,2.843,2.843,0,0,1,.1,1.142,6.373,6.373,0,0,1,3.047,4.371,6.038,6.038,0,0,0,.4-2.238c.036-2.07.1-4.128.04-6.244-.037-1.213.348-1.888,1.488-2.139.44-.1.813-.176,1.149-.235,1.26-1.063,3.041-1.169,4.306-1.42.087-.017.177-.047.266-.073a4.945,4.945,0,0,1-1.72-2.512c-.3-1.332.609-2.2,1.982-1.869a2.89,2.89,0,0,1,.544.194,2.02,2.02,0,0,0,.329-.016c.027.087.056.159.084.234a5.453,5.453,0,0,1,2.285,2.818c.435,1.4-.322,2.328-1.67,2.08a10.847,10.847,0,0,1-2.728,1.9c.431.395.932.886,1.541,1.489,2.069,2.055,4.331,3.921,5.852,6.4,1.579,2.57,2.74,5.024,2.268,7.123a4.972,4.972,0,0,0,.308,2.9c10.691-3.641,20.432-9.6,21.975-26.546,3.685-.04,4.834,2.425,5.535,4.994a35.012,35.012,0,0,1,4.047.775c-2.521-7.688-10.183-12.043-12.689-19.717a42.432,42.432,0,0,0-11.541-4.554,3.2,3.2,0,0,1-1.92,2.554,3.044,3.044,0,0,1-3.711-.7,9.931,9.931,0,0,1-1.478-1.654,1.642,1.642,0,0,1-.383-.622,5,5,0,0,1-.321-.711c-1.495-.1-2.987-.132-4.478-.119a2.326,2.326,0,0,1,.2,2.231c-.443.966-1.379,1.42-2.882.077l-.028-.024a14.774,14.774,0,0,1-8.785.924c-.417-.381-.323-.708-.428-1.049,1.169-1.118,4.832-1.292,6.585-1.224a9.221,9.221,0,0,1,1.05.108,8.283,8.283,0,0,0-1.47-.786c-4.333.335-8.653.933-12.963,1.47.573.15,1.133.318,1.665.479a13.619,13.619,0,0,1-7.392.461.474.474,0,0,1-.117-.278c-10.86,1.047-21.665.755-32.473-6.144.482-22.572,23.3-23.019,42.838-25.517-.249-1.008.185-2.127,1.8-2.991,1.546-.819,3.771.353,4.6,2.04a55.93,55.93,0,0,0,8.413-2.068,7.464,7.464,0,0,1-.38-1.882c-.378-3.612-.806-7.083.657-9.533a5.662,5.662,0,0,1,2.389-2.305c2.37-1.144,5.924.758,7.946,4.309.169.3.318.594.458.894a14.5,14.5,0,0,0,.773-1.805c.114-.331.208-.644.3-.958a3.509,3.509,0,0,1-.373-.64,1.935,1.935,0,0,1,.675-.472c3.031-12.517-10.628-11.768-18.81-17.984,5.388-8.814,17.868,2.247,23.88-2.864,3.115-10.336-7.159-12.754-12.038-18.37,4.865-11.021-4.287-14.35-6.89-23.273,4.48-5.362,15.047-.527,18.471-7.482-4.124-10.931-8.393-32.927-26.164-27.028-5.456-7.22-11.646-3.045-18.093-.043a8.554,8.554,0,0,0-2.811-3.571c-.35.56-1.11.747-2.072.394a5.864,5.864,0,0,1-2.464-1.953c-2.38-.293-5.124-.178-8.154-.414-5.34-12.281-22.951-25.474-11.051-40.39.89-4.665-3.576-6.607-1.949-11.628,10.68-3.819,15.548-17.1,29.143-15.647l1.228-4.432c7.14-.007,5.881.468,11.206,5.747,5.25-1.772,7.744,1.532,12.616.218.7,5.343,3.1,9.8,12.223,10.785,1.216,7.6,6.591,15.022,8.129,23.127a2.571,2.571,0,0,1,.959,1.577,2.653,2.653,0,0,1-.735-.2,19.784,19.784,0,0,1-.429,7.7c-1.644,6.269-10.084,10.575-6.973,17.374a25.344,25.344,0,0,1,8.935-3.093,2.5,2.5,0,0,1,.661-2.243,3.2,3.2,0,0,1,1.331,2c24.084-2.124,56.445,22.584,77.3,22.412-.926-9.421-3.554-17.821-4.52-27.133-3.87-2.291-7.725-8.473-3.042-12.528,13.661,9.344,8.792,29.311,23.143,38.237,7.369-4.955,14.358-4.918,22.867-9.652,4.106-15.621,13.171-21.1,20.736-29.09,3.1-3.282,3.373-9.115,9.257-7.231a6.255,6.255,0,0,0,2.494,4.1c-.4,6.338-4.436,6.716-4.85,13.091,9.606,9.192,29.111,7.046,41.814,4.831.029,6.887-3.83,7.417-4.6,13.055,9.667,8.8,17.839,2.686,27.122,10.317,6.2-2.011,9.54-8.611,17.214-8.037,7.6-3.87,10.5-15.295,19.372-16.79-.908,7.053-4.3,6.835-7.915,10.484-4.138,4.186-8.828,12.245-13.05,15.694-5.562,4.519-11.777,4.77-12.4,10.7-.875,8.175,7.972,11.2,13.955,17.466,1.339,31.6,34.9,31.253,57.329,29.822-13.7,3.573-30.879,1.805-43.512,7.863,5.954,7.895,11.448,16.107,14.754,25.864a1.02,1.02,0,0,0-.717,1.107c1.482,10.965,3.148,22.02,4.083,33.105-4.32,10.246-7.422,20.808-4.075,32.994.643.766,1.934,1.037,3.525,1.232a76.928,76.928,0,0,1-3.373,13.557,65.032,65.032,0,0,1-12.8,21.6,74.579,74.579,0,0,1-5.4,5.445,41.635,41.635,0,0,1-.6-4.146c-15.785-3.685-19.088,13.5-30.375,17.748,0,1.559.016,3.1.044,4.638-3.046.931-6.146,1.691-9.273,2.365a34.139,34.139,0,0,0-4.769-3.866c-2.931,2.157-7.1,2.3-8.823,6.51a106.581,106.581,0,0,0-17.4,4.573,61.365,61.365,0,0,0-14.5,7.464,42.228,42.228,0,0,0-7.23,6.741,3.081,3.081,0,0,0-2.407-1.619c-10.138,5.252-18.207,30.128-18.619,46.676a3.176,3.176,0,0,1,.308.884,1.12,1.12,0,0,1-.323.931,33.71,33.71,0,0,0,.57,6.161c-1.169,4.806-2.236,9.642-3.154,14.5-.267-.831-.511-1.726-.723-2.708-14.83,10.012-12.681,41.922-2.407,52.236C1193.089,1402.439,1197.583,1404.628,1197.637,1410.389ZM980.283,1247.727c-.113-.183-.227-.369-.339-.548-.348-.559-.755-1.386-1.484-1.416-.824-.029-.785.719-.48,1.485.1.24.209.481.328.723C978.967,1247.891,979.627,1247.812,980.283,1247.727Zm27.99-21.107c-.488-.38-.956-.655-1.425-.42a.989.989,0,0,0-.471.47,1.3,1.3,0,0,0,1.8.013A1.025,1.025,0,0,1,1008.273,1226.62Zm9.309-11.965c-.029-.071-.054-.142-.09-.214a3.955,3.955,0,0,0-1.372-1.629,6.067,6.067,0,0,1,.16.6,1.849,1.849,0,0,0,1.147,1.205A1.594,1.594,0,0,0,1017.582,1214.655Zm1,2.942c-.32.015-.54.2-.569.682a1.2,1.2,0,0,0,.254.768A1.44,1.44,0,0,0,1018.577,1217.6Zm62.473,9.665c2.788,1.672,4.164,4.314,3.185,6.531,1.317.173,2.609.661,3.429.637a28.97,28.97,0,0,0,1.252-10.532c-.348-.693-1.129-1-1.158-1.474.516-1.539.218-2.806.447-4.723a9.084,9.084,0,0,1,.359-1.606,9.193,9.193,0,0,1-3.835.5,6.588,6.588,0,0,1,.72,1.89C1086.061,1221.376,1084.022,1224.811,1081.05,1227.262Zm-15.693,9.366c-.6-.241-1.093-.257-1.237.272Q1064.753,1236.747,1065.357,1236.628Zm2.422-9.5c1.642-.276,3.107-.835,4.717-1.164a6.035,6.035,0,0,1-.933-1.12,6.409,6.409,0,0,1-.871-3.033,56,56,0,0,1-12.534,4.014c.179.2.357.4.536.605a9.2,9.2,0,0,1,1.951.527,3.941,3.941,0,0,1,2.444,2.2c.464,1.111.265,2.041-.643,2.008-.146,0-.28,0-.419.005a6.448,6.448,0,0,1,.325,1.113,1.829,1.829,0,0,0,1.143,1.2c.781.283,1.006-.124,1.028-.693.018-.425-.055-.893-.044-1.326C1064.53,1229.108,1065.361,1227.532,1067.779,1227.126Zm23.441,11.081a3.809,3.809,0,0,0-.776-1c-3.049-2.774-5.494,2.889-8.784,1.554-.128,1.882-.627,2-3.157,1.427l-.349-.078c-1.188,1.51-3.225,2.468-4.892,1.276a2.57,2.57,0,0,1-.978-1.234c-.219-.093-.447-.207-.683-.335-1.309-.7-2.616-1.045-3.946-1.819a3.34,3.34,0,0,0-.539.883,3.67,3.67,0,0,0-.187.713,57.593,57.593,0,0,0,12.122,3.512,4.185,4.185,0,0,0,3.267-.591c2.04-1.561,4.716-1.78,7.774-1.058C1090.486,1240.373,1090.866,1239.292,1091.22,1238.207Zm-103.808,47.566c2.407.729,4.059-.647,3.6-3a7.756,7.756,0,0,0-5.427-5.471c-2.5-.7-4.287.632-3.783,2.836C982.293,1282.3,985.041,1285.054,987.412,1285.773ZM932.638,916.3c1.5.486,2.364-.436,2.011-2.142a7.6,7.6,0,0,0-4.047-4.847c-1.54-.584-2.56.233-2.306,1.845A7.8,7.8,0,0,0,932.638,916.3Zm24.817,221.624c2.171.6,3.343-.461,2.755-2.486a9.636,9.636,0,0,0-5.336-5.387c-1.935-.56-3.148.664-2.661,2.682A7.945,7.945,0,0,0,957.455,1137.922Zm-14.63-84.106a8.536,8.536,0,0,0,4.97,4.887c2.014.555,3.321-.7,2.824-2.712a8.018,8.018,0,0,0-4.719-5.032C943.809,1050.309,942.255,1051.754,942.825,1053.816ZM536.15,597.825c-1.5-.469-2.156.137-1.59,1.746a6.106,6.106,0,0,0,3.8,3.8c1.463.464,1.971-.3,1.629-1.786A6.321,6.321,0,0,0,536.15,597.825Zm309.394,413.532c1.663.62,2.3-.048,2.236-1.4a4.617,4.617,0,0,0-2.842-3.177c-1.681-.657-2.407.008-2.164,1.474A4.179,4.179,0,0,0,845.544,1011.357ZM906.95,1045c1.485.65,2.545-.043,2.269-1.361a4.918,4.918,0,0,0-2.813-3.126c-1.434-.566-2.57.087-2.28,1.394A4.574,4.574,0,0,0,906.95,1045ZM858.29,790.167c1.968.679,3.09-.664,2.509-3a9.428,9.428,0,0,0-4.6-5.754c-1.942-.831-3.336.813-2.722,3.209A9.136,9.136,0,0,0,858.29,790.167ZM693.2,1099.688c-1.521-.4-2.193.117-1.913,1.434a4.209,4.209,0,0,0,2.675,2.788c1.568.618,2.469.178,2.258-1.1A4.588,4.588,0,0,0,693.2,1099.688ZM552.363,589.678c-1.7-.464-2.3.244-1.819,1.942a7.68,7.68,0,0,0,4.219,4.3c1.6.537,2.628-.563,2.033-2.182A7.713,7.713,0,0,0,552.363,589.678Zm348.8,610.308c1.376.413,2.48-.454,2.225-1.754a5.06,5.06,0,0,0-3.339-3.361c-1.4-.342-2.567.5-2.335,1.695A5.863,5.863,0,0,0,901.16,1199.986ZM881.567,924.455c1.365.276,1.95-.32,1.714-1.706a5.048,5.048,0,0,0-3.155-3.079c-1.4-.432-2.218-.043-1.967,1.4A5.321,5.321,0,0,0,881.567,924.455Zm-8.473,212.887c2.966.98,4.593.2,4.066-1.964-.515-2.1-3.4-4.876-6.015-5.787-2.175-.755-3.264.1-2.795,2.2A7.415,7.415,0,0,0,873.094,1137.342ZM625.952,965.056c-2.178-.777-3.419.348-2.849,2.585a8.358,8.358,0,0,0,4.592,4.984c2.262.929,3.63-.08,3.082-2.273A8.065,8.065,0,0,0,625.952,965.056Zm696.433,77.851c1.06.519,1.662.24,1.749-.791a3.762,3.762,0,0,0-2.091-2.861c-1.081-.5-1.611-.011-1.488,1.1A3.2,3.2,0,0,0,1322.385,1042.907Zm16.772,27.514a1.655,1.655,0,0,0,2.258-1.895,2.643,2.643,0,0,0-2-2.105c-1.39-.374-2.138.192-2.077,1.626A2.6,2.6,0,0,0,1339.157,1070.421Zm-10.637-15.076c1.18.312,1.546-.429,1.459-1.681a3.219,3.219,0,0,0-1.964-2.335c-1.27-.395-1.525.458-1.357,1.645A2.653,2.653,0,0,0,1328.52,1055.345ZM992.512,938.965c1.365.294,1.95-.305,1.561-1.761A4.153,4.153,0,0,0,991.5,934.4c-1.332-.319-1.928.247-1.764,1.572A4.011,4.011,0,0,0,992.512,938.965Zm54.11,10.829c1.488.574,2.588-.472,2.345-2.055a5.459,5.459,0,0,0-3.032-3.877c-1.5-.522-2.7.752-2.25,2.524A4.776,4.776,0,0,0,1046.622,949.794Zm140.673,72.384c1.637.2,3.22-1.7,2.857-3.434a3.123,3.123,0,0,0-2.57-2.468c-1.776-.127-2.959,2.29-2.12,4.349A2.24,2.24,0,0,0,1187.3,1022.178Zm179.724,82.382c1.165.439,1.837.127,1.869-1.024a3.978,3.978,0,0,0-2.533-2.94c-1.013-.33-1.663-.091-1.688.955A3.827,3.827,0,0,0,1367.019,1104.56Zm-402.1-.929c1.564.584,2.592-.1,2.363-1.576a5.454,5.454,0,0,0-3.126-3.739c-1.768-.741-2.889.007-2.534,1.685A5.5,5.5,0,0,0,964.919,1103.631Zm384.489-49.365c1.042.356,1.561-.058,1.485-1.278a3.617,3.617,0,0,0-2.029-2.337c-1.075-.393-1.6.134-1.438,1.219A2.988,2.988,0,0,0,1349.408,1054.266ZM987.292,1157.58c1.329.61,2.345-.029,2.2-1.259a5.057,5.057,0,0,0-3.031-3.529c-1.543-.461-2.164.182-1.928,1.554A4.5,4.5,0,0,0,987.292,1157.58Zm370.764-145.9c1.042.3,1.528-.157,1.448-1.267a3.192,3.192,0,0,0-2.084-2.407c-1.034-.3-1.571.2-1.4,1.336A2.809,2.809,0,0,0,1358.056,1011.68ZM986.835,1164.507c1.448.519,2.25-.447,1.9-2.291a6.34,6.34,0,0,0-3.416-4.374c-1.47-.592-2.545.33-2.284,1.96A7.328,7.328,0,0,0,986.835,1164.507Zm-67.542,12.786c1.111.37,2.153.563,2.367-.392.185-.81-.537-1.714-1.368-2.552a16.135,16.135,0,0,0-6.281-4.052c-1.692-.559-2.2.487-.965,2.033C914.763,1174.483,916.705,1176.469,919.293,1177.293Zm-39.421,11.116c-1.989-.487-3.663.668-3.26,2.251.418,1.637,2.65,3.728,4.574,4.287,2.1.61,3.482-.432,3.086-2.327A6.322,6.322,0,0,0,879.872,1188.409Zm111.235,248.362c-.428-.407-1.118-.512-1.292-.2-.715,1.278-1.92,2.291-1.51,4.219.356,1.673,2.305,3.427,4.244,3.938,2.094.559,3.55-.708,2.929-2.683C994.839,1440.005,992.835,1438.419,991.107,1436.771Zm-145.363,10.651a5.93,5.93,0,0,0-3.943-3.573c-1.818-.428-2.882.378-2.563,1.939a5.073,5.073,0,0,0,3.656,3.648C844.753,1449.941,846.14,1448.961,845.744,1447.422ZM891.569,1176.7a5.78,5.78,0,0,0-3.863-3.627c-1.728-.439-2.646.516-2.025,2.193a5.653,5.653,0,0,0,3.6,3.394C890.988,1179.253,892.026,1178.284,891.569,1176.7Zm-150.936-90.942a23.936,23.936,0,0,0-2.16-1.608,121.621,121.621,0,0,0-23.55-11.839c-.889-.279-1.8-.624-2.664-.82-1.369-.309-2.549-.279-2.444,1.049.1,1.307,1.362,2.469,2.749,3.474a10.367,10.367,0,0,0,1.811,1.1c4.763,2.08,9.4,5.347,14.1,7.8a82.235,82.235,0,0,0,11.729,5.359c1.6.526,4.027,1.514,4.2-.1C744.593,1088.482,742.237,1087.1,740.633,1085.759ZM703.074,886.533c-1.557-.588-2.665.334-2.345,1.957a7.713,7.713,0,0,0,4.153,4.632c1.728.7,2.937-.018,2.661-1.576C707.223,889.746,705.016,887.27,703.074,886.533Zm127.241,205.325c-1.789-.679-3.053.007-2.828,1.539.294,1.993,3.032,4.8,5.5,5.638,2.026.686,3.536-.022,3.22-1.514C835.873,1095.938,832.479,1092.675,830.315,1091.858Zm-1.891-124.7c1.652.628,2.654.41,2.508-1.009a7.45,7.45,0,0,0-4.458-4.8c-1.63-.556-2.617-.243-2.486,1.278C824.118,964.188,826.209,966.316,828.424,967.158Zm76.355,387.06c-2.493-.556-4.164.81-3.666,3,.5,2.208,2.762,4.219,5.46,4.869,2.871.693,4.559-.654,3.823-3.046A7.731,7.731,0,0,0,904.779,1354.218Zm55.05-62.143c-1.666-.5-2.861.435-2.545,2a5.4,5.4,0,0,0,3.467,3.546c1.815.621,3.049-.127,2.8-1.691A5.8,5.8,0,0,0,959.829,1292.075ZM693.251,969.688c-2.287-.693-3.38.374-2.7,2.639a8.847,8.847,0,0,0,5.384,5.421c2.41.725,3.8-.545,3.013-2.745A9.81,9.81,0,0,0,693.251,969.688Zm281.092,289.856a7.227,7.227,0,0,0-5.032-4.9c-2.563-.7-4.247.5-3.648,2.6a8.844,8.844,0,0,0,5.616,5.126C973.551,1262.927,974.88,1261.7,974.343,1259.544Zm-21.052,63.116c-2.109-.6-3.71.447-3.387,2.222.334,1.837,2.457,3.964,4.643,4.654,2.055.649,3.46-.305,3.057-2.08A6.574,6.574,0,0,0,953.291,1322.66Zm-24.446,21.749a4.841,4.841,0,0,0-4-4.113c-2.933-.774-5.086.911-4.523,3.543a5.861,5.861,0,0,0,4.552,4.422C927.973,1349.07,929.5,1347.589,928.845,1344.409Zm-5.453-115.552c.77-.138,1.252-.577.9-1.572a4.319,4.319,0,0,0-2.2-2.2c-2.229-1.173-4.455-2.237-7.206-1.717,2.606,1.506,4.33,2.28,5.587,4.084A3.182,3.182,0,0,0,923.392,1228.857Zm3.6,149.339c-1.92-.584-3.474.367-3.227,1.975a6.245,6.245,0,0,0,3.812,4.113c2,.679,3.717-.378,3.4-2.1A6.315,6.315,0,0,0,926.993,1378.2Zm2.632-95.4c-1.652-.483-2.97.377-2.766,1.8.2,1.449,2,3.329,3.695,3.874,1.649.526,2.894-.327,2.68-1.841A5.4,5.4,0,0,0,929.625,1282.8ZM830.842,885.618c1.76.665,2.944-.214,2.428-1.822a6.1,6.1,0,0,0-3.477-3.725c-1.692-.741-2.8.167-2.277,1.859A5.94,5.94,0,0,0,830.842,885.618Zm203.451,405.154c1.765.152,2.244-1.434.766-2.926-1.706-1.721-3.8-2.625-5.434-3.725-1.961-.552-2.6.668-1.583,2.32C1028.928,1287.889,1032.917,1290.652,1034.293,1290.772Zm-20.681-95.785c1.107.094,1.764-.312,1.321-1.681a3.233,3.233,0,0,0-2.069-2.131c-1.423-.461-1.913.211-1.692,1.4A3.371,3.371,0,0,0,1013.612,1194.987Zm47.313,95.6c1.387.324,2.272-.432,2.011-1.713a5,5,0,0,0-3.322-3.365c-1.521-.472-2.392.112-2.192,1.47A5.013,5.013,0,0,0,1060.925,1290.586Zm-30.36-97.011c-.468-2.4-2.305-4.854-4.062-5.588-1.786-.744-3.053-.046-2.988,2.281a59.993,59.993,0,0,0,.922,7.975,4.959,4.959,0,0,0,3,3.529c1.314.591,3.79.007,3.5-1.006C1030.122,1197.985,1030.7,1195.847,1030.565,1193.575Zm-15.088,108.338a3.575,3.575,0,0,0-2.312-2.28c-1.438-.494-2.585.3-2.156,1.521a3.351,3.351,0,0,0,2.435,2.1C1014.871,1303.634,1015.568,1303.169,1015.477,1301.913Zm-7.267-15.763c.054,1.416,2.127,4.1,4.008,5.319a6.289,6.289,0,0,0,3.013,1.129c2.566.087,5.416,1.169,8.059,1.626a5.337,5.337,0,0,1,4.57,3.26c1.921,3.492,4.894,5.26,7.889,5.242,2.977-.018,4.178-2.254,2.948-5.474a11.529,11.529,0,0,0-7.918-7.007c-3.333-.773-4.316-1.608-5.692-4.821a10.923,10.923,0,0,1-.755-4.418c-.018-1.071.13-2.073.138-3.136a1.73,1.73,0,0,0-1.02-1.939c-1.293.12-.077,2.04-1.064,2.371a3.214,3.214,0,0,1-.595-.5c-1.166-1.6-2.5-2.665-4.077-2.509-1.431.138-1.761,1.017-1.413,2.675.792,3.776-1.266,6-5.213,6.023C1009.375,1284,1008.137,1284.412,1008.21,1286.15Zm13.893-179.386a7.718,7.718,0,0,0,4.716,5.144c2.218.777,3.662-.243,3.336-2.353a7.628,7.628,0,0,0-4.509-5.289C1023.362,1103.4,1021.682,1104.578,1022.1,1106.764Zm280.963-113.007c-1.194.682-1.038,2.171-1.408,3.391C1302.267,996.033,1303.335,994.973,1303.066,993.757Zm-36.9,30.625c-2.61.29-4.723,4.066-3.859,6.208C1264.614,1030.662,1267.341,1026.063,1266.161,1024.382Zm35.181-26.505a2.859,2.859,0,0,0,.316-.729A3.514,3.514,0,0,0,1301.342,997.877Zm30.022,88.858c-1.826-1.368-5.05-.468-6.015,1.957C1327.015,1090.954,1331.1,1089.368,1331.364,1086.735Zm-326.441,253.158c2.613-1.9,6.066-4.6,6.741-7.094-2.636.817-7,4.066-7.566,6.549C1004.342,1339.777,1004.65,1339.689,1004.923,1339.893Zm-59.817-198.155c.657,1.743,3.1,1.176,4.045.588C947.862,1141.6,946.588,1140.765,945.106,1141.738Zm44.842-60.942a3.243,3.243,0,0,0,2.5,2.411,5.648,5.648,0,0,0,1.692-1.133,4.477,4.477,0,0,0-1.111-1.909A2.847,2.847,0,0,0,989.948,1080.8ZM948.1,1144.537a1.8,1.8,0,0,0,3.217,1.056C950.788,1144.061,949.3,1143.517,948.1,1144.537Zm-123.3-12.445a1.023,1.023,0,0,0,.708-.359c-.127-.164-.261-.331-.381-.487C824.755,1131.5,824.44,1131.747,824.8,1132.092Zm135.936-79.561c0-.341.192-.646-.218-1.027C959.09,1050.959,959.333,1053.62,960.735,1052.531Zm11.432-40.013c.453-.2.352-.472.642-.69-.5-.78-.955-.457-1.35.055C971.687,1012.206,971.9,1012.478,972.167,1012.518Zm1.473,110.931c1.939-1.449-.933-4.76-3.176-2.273C970.032,1122.966,972.373,1124.4,973.64,1123.449Zm.712,34.218c-2.45-2.65-5.238-2.57-7.834-3.376-1.518-.464-3.126-1.862-4.672-.882-.291,2.2,2.566,1.888,4.149,2.49C968.641,1156.894,972.206,1159.1,974.352,1157.667Zm1.565-116.9c-.6-.468-1.173-1.35-1.888-.893C973.88,1040.867,975.249,1040.929,975.917,1040.765Zm-8.256,129.122c.062.076.127.163.2.247.334-.272.411,0,.49-.389-.065-.083-.134-.166-.2-.246C967.752,1169.484,968.01,1169.633,967.661,1169.887Zm-27.655-121.716c-.81-.679-1.529-2.142-2.556-.969C937.759,1048.552,939.254,1047.492,940.006,1048.171Zm11.617,107.9a2.372,2.372,0,0,0-3.975-.251C948.366,1157.374,950.174,1157.577,951.623,1156.074Zm-95.4,53.035c.352-.215.493-.458.2-.763-.16.127-.327.258-.494.389C856.03,1208.865,856.121,1208.985,856.223,1209.109Zm6.266-95.546a1.049,1.049,0,0,0-.61-.526c-.167.13-.331.258-.5.392A.656.656,0,0,0,862.489,1113.563Zm-49.579,32.455c.192-.087.367-.011.584-.262C813.189,1145.063,812.536,1145.542,812.91,1146.018Zm1.978-15.658a3.163,3.163,0,0,0,4.157.476A2.878,2.878,0,0,0,814.888,1130.36Zm115.8-23.593a5,5,0,0,0,2.178-.511c.309-2.8-4.291-5.185-6.11-3.725C925.234,1103.736,929.231,1106.673,930.687,1106.767ZM889.4,1121.985a1.1,1.1,0,0,0-.577-.733c-.2.16-.407.32-.617.483a1,1,0,0,0,.363.7C888.823,1122.476,889.106,1122.24,889.4,1121.985Zm10.376,67.956c.2-.1.366-.015.584-.269-.131-.167-.258-.327-.385-.49C899.619,1189.4,899.474,1189.643,899.772,1189.941Zm28.526-78.893c.77,1.241,1.834.152,2.727.442a14.211,14.211,0,0,1-2.117-.922Zm-2.189,29.546c-.356-.7-.8-.751-1.314-.163A.662.662,0,0,0,926.109,1140.594Zm-26.022,8.339c.581-.232,1.369-.367,1.667-.9-.777-1.27-1.67-1.51-2.727-.439C898.951,1148.262,899.572,1148.516,900.087,1148.933Zm2.948,25.717q-.245-.311-.479-.61c-.468.269-.679.577-.229.973A1.068,1.068,0,0,0,903.035,1174.65Zm37.094-126.577a6.983,6.983,0,0,0,3.725,1.449C942.652,1048.625,941.338,1048.716,940.129,1048.073Zm202.435-49.633c.16.029.981-.25.516-.6C1142.819,997.605,1142.314,998.255,1142.564,998.44Zm-133.572,70.95c1.546-2.12-3.946-5.819-5.587-3.557-.472.682.033,2.232,1.492,3.408C1005.685,1069.866,1008.11,1070.592,1008.992,1069.39Zm-13.12,77.059c-.437.216-.576.75-.423,1.54a4.285,4.285,0,0,0,2.973,2.966c1.362.312,1.83-.327,1.63-1.532a4.546,4.546,0,0,0-2.729-2.872,10.469,10.469,0,0,1,2.016.193c1.746.421,4.113,1.321,5.66.12-2.139-2.12-5.072-1.561-7.671-1.913-1.122-.157-2.273-.9-3.22-.051C994.125,1145.952,994.88,1146.309,995.872,1146.449Zm42.391-189.322c.457.77.305,2.055,1.031,2.556.864-.232-.291-1.311-.581-2.516-.269-1.034-.011-1.641-.312-2.145-.094-.167-.908-.653-1.209-1.035-.984-1.23-3.71-7.108-5.191-5.841-.781.654,1.056,3.543,1.5,4.186C1034.694,954.042,1037.294,955.487,1038.263,957.127Zm-36.909,127.812c-.156-.2-.316-.4-.479-.61-.269.13-.519-.029-.81.243C999.292,1085.69,1001.256,1086.289,1001.354,1084.939Zm-2.117-35.5c.915-1.267-1-3.307-2.138-3.481-2.385-.381-3.155,2.138-1.535,3.6C996.758,1050.633,998.279,1050.778,999.237,1049.438Zm48.915-105.263c-.153-.2-.32-.411-.487-.621a1.362,1.362,0,0,0-.82.465A.66.66,0,0,0,1048.152,944.175Zm2.116-.091c.683-.4.672-.882.941-1.332C1049.386,938.809,1046.867,944.276,1050.268,944.084Zm32.564-29.587a.631.631,0,0,0-1.009-.011,1.031,1.031,0,0,0,.363.712C1082.5,914.976,1082.8,914.755,1082.832,914.5Zm-13.512,30.3c-.163-.308-.251-.893-.712-.646.051.134.015.236-.137.326A.826.826,0,0,0,1069.32,944.8Zm-9.424,12.775c.461-2.556-2.146-4.9-3.819-7.126-.723-.959-1.55-4.306-3.075-3.144-1.122.868.838,2.57,1.659,3.87C1055.939,953.211,1057.017,957.668,1059.9,957.574Zm253.5,77.321c.338.051.85-.37.429-.729C1313.481,1034.115,1312.98,1034.536,1313.394,1034.9Zm-252.852,27.51c-.16-.2-.327-.41-.483-.609a1.066,1.066,0,0,0-.73.577l.48.61A1.079,1.079,0,0,0,1060.542,1062.405Zm-14.314,42.66c.875,1.43,1.891,1.579,3.046.588C1049.622,1103.74,1046.377,1102.883,1046.228,1105.065Zm264.868-47.089c-.624.672.385,1.721,1.144.687C1312.3,1058.035,1311.728,1057.483,1311.1,1057.976Zm-256.689,21.372c-.392-.9-1.521-.846-2.255-1.6-1.466-1.495-2.421-3.753-4.425-2.083a3.554,3.554,0,0,0,1.419,3.06C1050.069,1079.5,1053.862,1080.136,1054.407,1079.348Zm-97.1,226.072c-.3.188-.436.4-.294.632.2-.088.374,0,.584-.262C957.5,1305.667,957.406,1305.547,957.308,1305.42Zm52.454-23-.487.385c.1.127.193.247.291.37C1009.911,1282.959,1010.212,1282.734,1009.762,1282.418Zm.58,100.7c1.133.018,1.079-1.415,1.7-2.127-.672.679-1.275.74-1.939,1.321C1010.237,1382.592,1009.932,1382.813,1010.342,1383.122Zm-3.71-77.168c.16-.128.327-.255.487-.382-.134-.312.029-.592-.331-.933-.264,0-.548.236-.813.236A.976.976,0,0,0,1006.632,1305.954Zm7.221,21.549c.308-.193.436-.4.3-.636-.2.091-.378.011-.592.262C1013.657,1327.256,1013.755,1327.376,1013.853,1327.5Zm-9.882,53.085c.472-.145.512-.29.422-.726C1004.055,1379.808,1003.547,1380.229,1003.971,1380.588Zm22.526-73.379c.167-.13.331-.261.49-.388C1026.715,1306.276,1026.036,1306.806,1026.5,1307.209ZM833.363,1172.254c-.3.254-.617.512-.323.846C833.457,1173.147,833.889,1172.635,833.363,1172.254Zm92.43,104.508c-.29-.279-.588-.624-.918-.66C924.73,1276.494,925.252,1277.3,925.793,1276.762Zm400.87-88.949c.2-.09.374-.011.6-.268-.1-.124-.2-.243-.29-.367C1326.768,1187.385,1326.253,1187.537,1326.663,1187.813ZM993.4,1374.994c-.324.258-.654.516-.981.773C992.652,1378.719,996.261,1375.4,993.4,1374.994Zm30.164-313.089a4.268,4.268,0,0,0,3.209,1.038C1025.644,1063.081,1024.816,1060.739,1023.568,1061.905Zm-7.3,51.052a1.512,1.512,0,0,0,.727,1.412c2.072,1.147,5.953,2.422,8,1.852-.33-2.077-3.22-3.017-4.766-3.8C1018.863,1112.928,1017.741,1111.458,1016.263,1112.957Zm24.007-75.531c-.344.21-.49.457-.2.747.2-.094.374-.011.588-.254C1040.525,1037.749,1040.394,1037.582,1040.27,1037.426Zm4.513,44.343c1.612,2.847,5.1,5.518,7.812,5.373a9.987,9.987,0,0,0-2.777-3.779C1048.384,1082.045,1046.275,1080.538,1044.783,1081.769Zm23.437,168.358c-.069-.3.094-.573-.341-.929C1066.539,1249.2,1067.124,1251.3,1068.22,1250.127Zm-22.813-201.644c-.319-.689-.915-.2-.809.244C1044.855,1048.741,1045.1,1048.893,1045.407,1048.483Zm-2.508,22.827c-.755,1.068,1.165,2.876,2.494,1.638C1045.945,1071.256,1043.8,1070.091,1042.9,1071.31Zm-46.824,109.406c-.221-.356-.486-.268-.787.015a.949.949,0,0,0,.508.4A.768.768,0,0,0,996.075,1180.716Zm22.639,21.934c2.076,1.235,5.057-.217,7.032-1.172C1023.618,1200.995,1020.362,1200.915,1018.714,1202.65Zm13.374-89.043c-.007.134.167.817.486.614C1033.667,1114.391,1032.821,1112.511,1032.088,1113.607Zm4.356-26.276c.977-1.18-1.074-3.884-2.523-4.963s-5.794-1.978-7.1-.178c-.846,1.173.632,2.956,2.266,4.386a5.854,5.854,0,0,0,2.715,1.434C1032.683,1088.162,1035.635,1088.3,1036.444,1087.331Z"/></svg>