<svg id="slpash3" xmlns="http://www.w3.org/2000/svg" viewBox="0 0 2916.555 2444.698"><defs><style>.cls-1{fill:#863293;}</style></defs><path class="cls-1" d="M1252.91,885.578c-2.113,1-4.218,1.714-6.349-.1a2.1,2.1,0,0,0-.98-.349,63.844,63.844,0,0,1-9.8-3.144,55.57,55.57,0,0,1-9.235-4.487,11.8,11.8,0,0,0-6.288-1.445c-1.031.04-1.717,1.057-2.367,2.291a18.093,18.093,0,0,1,2.429-.617c1.187-.051,1.666.827,1.612,1.8a26,26,0,0,0,.693,5.736c.24,1.426.875,2.766.784,4.269-.065,1.133.788,1.075,1.445,1.035a29.7,29.7,0,0,0,6.749-1.362,10.49,10.49,0,0,1,3.478-.715c-.156.563-.537.574-.846.668-2.142.642-4.3,1.267-6.444,1.913-1.292.392-2.646.116-3.964.251-.436.043-1-.095-1.129.508-.646,2.955-2.8,4.672-4.385,6.825a4.527,4.527,0,0,0-1.235,2.737c0,.632-.493.806-.922,1.056-1.227.719-2.693.716-4.309,1.384l6.894,2.846c-.447.414-.781.163-1.082.065-.643-.2-1.285-.417-1.913-.686a27.983,27.983,0,0,0-20.616-.32,2.6,2.6,0,0,1-1.471.048,4.693,4.693,0,0,0-4.509,1.993c-.711.9-.548,1.8.574,2.864-1.681-.2-1.572.748-1.419,1.761a29.547,29.547,0,0,0,1.321,4.28c.171.548.65,1.256-.131,1.586-.682.29-1.223,0-1.771-.7a15.3,15.3,0,0,0-5.308-4.709c-.914-.435-2.178-1.056-2.606-.392-.548.846-1.5,1.761-1.075,3.122a8.048,8.048,0,0,0,.7,1.917c1.982,3.111,2.679,6.556,3.863,9.812.352.959.857,1.867,1.238,2.81a10.947,10.947,0,0,1,.5,1.707.929.929,0,0,1-.4,1.147c-.519.268-.962,0-1.351-.37a6.29,6.29,0,0,1-1.546-2.146c-.726-1.786-1.263-3.587-2.908-5.079-.995-.9-1.151-2.621-1.83-3.946-.638-1.249-.9-2.657-1.655-3.892-.581-.944-.893-2.207-2.519-1.749-.679.192-1.137-.85-1.67-1.369-.218-.207-.418-.5-.741-.421-.348.083-.269.428-.261.7a8.181,8.181,0,0,0,.232,3.115c.374.959-.505,1.6-1.151,1.84a21.451,21.451,0,0,0-2.726,1.453,4.758,4.758,0,0,1-2.694.8c-.229-.015-.559.014-.65.16-1,1.575-2.846,1.655-4.483,2.174a20.713,20.713,0,0,0-4.955,2.222c-.178.116-.451.269-.632.207-1.971-.672-2.639,1.285-4.375,1.169.65,1.169,1.754.563,2.313,1.274-.065.1-.113.236-.152.229-2.455-.407-3.137,1.448-4.252,2.74-.2.233-.355.5-.551.734a.867.867,0,0,1-1,.287,1,1,0,0,1-.77-.977,2.172,2.172,0,0,0-.4-1.2,3.068,3.068,0,0,0-1.253,2.066c-.178,1.133-.29,2.276-.544,3.391a2.241,2.241,0,0,0,1.056,2.777c.32.185.679.559.534.944a.353.353,0,0,1-.3.247,82.312,82.312,0,0,0,16.22,15.207c2.145-.356-2.07-2.8.083-3.162,3.739,3.343-.3,5.7,1.122,10.47-.773.45-2.051.737-1.779,1.535-8.491,1.01-13.443-6.926-18.583-14.39a4.258,4.258,0,0,0-.055,1.746c.131.523-.265.824-.508,1.256-.552-.6-.276-1.089-.287-1.583-.014-.813.167-1.6.153-2.425a41.031,41.031,0,0,0-6.756-7.972,4.447,4.447,0,0,1-2.215.89,2.015,2.015,0,0,1-.091.951l-.541.21a.351.351,0,0,1,.171.323c-.025.4-.494.3-.824.258a5.023,5.023,0,0,1-.573-.109c-.186.073-.367.138-.538.2a1.609,1.609,0,0,0,.367.711,23.857,23.857,0,0,0,1.47,2.037,2.684,2.684,0,0,1,.65,2.047c-.015.258-.3.345-.541.211a2.864,2.864,0,0,1-1.379-1.637c-.385-1.068-1.42-1.859-2.1-2.825a13.566,13.566,0,0,1-2.1.53,13.812,13.812,0,0,0-.752,4.287c.051.726-.45,1.126-1.219,1.1a2.251,2.251,0,0,0-1.7.726,2.407,2.407,0,0,1-1.87.879c-2.138,6.389-6.16,12.161-6.647,19.1-2.142-.733-1.238-5.947-4.723-5.8a20.1,20.1,0,0,0-2.846,4.988c-.127.973-.254,1.942-.45,2.886a39.341,39.341,0,0,1-.984,4.2,13.525,13.525,0,0,0-.733,3.964c-.029,1.71-.127,3.383-1.373,4.755-.668.73-.555,1.83-.693,2.785a3.229,3.229,0,0,1-.653,1.7,1.506,1.506,0,0,1-.113.113c.36,3.9.53,7.74-.744,11.1-2.262-8.89-3.718-22.482-2.077-31.7a2,2,0,0,0-1.161-.065,5.235,5.235,0,0,0-1.2.362c-.668.276-1.06.164-1.024-.559.026-.493-.018-1.07-.7-1.179-.628-.1-.759.5-.868.933a5.235,5.235,0,0,0,.748,3.877,47.749,47.749,0,0,1,2.893,6.563,1.94,1.94,0,0,1,.164,1.67,2.087,2.087,0,0,1-1.3-1.143q-2.455-4.722-4.991-9.566c-.044-.083-.1-.163-.142-.247a1.087,1.087,0,0,0-1.713-.508,3.654,3.654,0,0,1-2.886.581c-.657-.131-.926.312-1.071.773a3.438,3.438,0,0,1-1.122,1.742c-2.255,1.729-3.079,4.193-4.24,6.466-.3.577-.5,1.314-1.638.868-1.081-.429-.871-1.213-.66-1.775a18.822,18.822,0,0,1,1.459-2.908,2.843,2.843,0,0,0,.37-2.382c-.228-.715-.751-1.024-1.473-.519-1.057.744-1.337,1.917-2.008,2.868-1.739,2.472-2.824,5.246-4.266,7.827-.708,1.267-.493,2.8-1.161,4.062-3.3,6.212-4.832,12.92-7.29,19.179-.181.461-.181,1.034-1.194.98-1.471-.073-1.587-.309-1.351-1.336a36.794,36.794,0,0,1,2.654-6.415c1.467-3.307,2.567-6.777,3.794-10.215,1.39-3.892,3.3-7.6,5.013-11.418,2.334-5.191,2.3-11.134,3.823-16.721a2.188,2.188,0,0,0,.054-.511c.011-.52.182-1.231-.395-1.529-.77-.4-.846.45-1.275.7-1.993,1.194-2.712,3.2-3.971,4.853-.175.229-.156.625-.686.443-.581-.2-.527-.581-.44-.918a5.678,5.678,0,0,1,1.267-2.164,6.723,6.723,0,0,0,1.38-2.407,1.854,1.854,0,0,1,.842-1.085c1.844-1.22,1.841-3.471-.24-5.224-2.584-2.186-5.489-4.015-9.083-4.175a24.924,24.924,0,0,0-2.831-.109c-4.832.367-9.628.9-14.627,1.046-.471,1.492-.893,2.987-1.281,4.454-3.162,11.9-4.89,26.457-19.894,29.6a18.538,18.538,0,0,1-6.012-9.943c4.437-6.763,6.281-16.086,10.7-24.112a47.424,47.424,0,0,1,3.493-5.159,2.084,2.084,0,0,0-.9.418,2.5,2.5,0,0,1-2.109.406,8.543,8.543,0,0,0-3.231.214,19.755,19.755,0,0,1-4.553,1.046,2.057,2.057,0,0,0-1.521.632c-.809,1.23-2.16-.011-2.454-.49-.512-.828-.86-.585-1.408-.581a82.854,82.854,0,0,0-8.274.769c-.94.1-2.516.283-2.886-.548-.388-.871,1.318-.733,2.3-.726,1.543.015,2.748-.6,4.262-.526,3.387.167,6.131-.977,9.29-.9,4.545.108,7.957-1.253,11.765-2.106,1.169-.261,1.507-.777,1.209-1.793-.145-.5-.207-.992-.363-1.489a3.7,3.7,0,0,0-1.006-1.757,9.242,9.242,0,0,1-2.29,1.862,4.7,4.7,0,0,1-.1-2.69c-.113-.014-.211-.029-.331-.04-2.733-.25-5.358.062-8.273-.842-.548-.17-1.412-.29-1.329.229.171,1.089-.784.911-1.582.871-4.088-.2-8.205-.406-12.387-.7-5.133-.363-10.444-1.154-15.606-1.129a145.27,145.27,0,0,1-15.139-.341c-3.536-.341-7.061-.639-10.582-.828-.446-.026-1.027.036-1.285-.494-.276-.577.356-.6.842-.661a39.414,39.414,0,0,1,5.021.033,127.16,127.16,0,0,1,16.071.864,20.615,20.615,0,0,0,7.453-.051c1.013-.264,2.055.675,3.082.57,1.481-.152,3.1-.061,4.581-.2a99.336,99.336,0,0,1,13.3.1c4,.171,8.016.654,12.017,1.144,1.169.141,2.185-.069,3.339.025,1.46.12,1.783-.635.992-1.858a18.315,18.315,0,0,0-1.434-2.07,8.885,8.885,0,0,1-.9.429,7.111,7.111,0,0,1-.058-1.325,5.628,5.628,0,0,0-1.4-.777c-.276-.109-.733-.461-.726-.592.087-1.55-1.278-1.361-2.24-1.5-7.5-1.071-15.069-1.939-22.635-2.382a11.223,11.223,0,0,1-3.165-.581c-.385-.138-.89-.254-.988-.649s.378-.41.733-.414a28.85,28.85,0,0,1,4.426.25,25.882,25.882,0,0,0,7.576.381c.385-.065.933-.029.868-.486-.062-.425-.57-.7-1.013-.893a9.822,9.822,0,0,0-1.949-.708,76.8,76.8,0,0,1-8.223-2.084c-2.636,1.307-5.275,2.618-7.907,3.954.65-1.957,2.607-3.486,5.024-4.862-5.242-1.724-10.531-3.746-15.915-5.448-3.532-1.119-7.1-2.138-10.694-3.224-.846-.254-1.641-.345-1.732-1.438-.087-1-1.281-1.833-2.643-2.345-1.477-.555-2.955-1.147-4.436-1.757-.487-.2-1.184-.37-1.3-.864-.138-.624.722-.377,1.173-.454a2.448,2.448,0,0,1,1.056.211c2.813,1.06,4.919.319,7.358.475a4.292,4.292,0,0,1,2.393.6,21.239,21.239,0,0,0,6.222,2.392c4.142,1.144,8.139,1.23,12.231,2.98a9.449,9.449,0,0,1,1.982.977,23,23,0,0,0,11.079,4.479,19.275,19.275,0,0,0,5.649-3.862c-.015,0-.026,0-.04,0a5.019,5.019,0,0,1-2.911-.937c-4.408,1.8-8.317,2.356-10.289-2-.8-4.342,6.077-6.161,9.98-8.952.668-4.081-.458-6.9-2.16-10.8,2.055-2.3,5.511-4.807,6.342-7.311a4.371,4.371,0,0,0-.526-1.119c-.113-.094-.251-.167-.374-.25-.966,1.833-2.128-1.042-2.785-.864-2.33.639-5.049-1.071-7.525-1.579-3-.614-5.943-.193-9.2-2.048-.839-.479-1.481-.018-2.24-.2a60.034,60.034,0,0,1-10-3.724c-.171-.077-.308-.331-.57-.621,3.754-.066,8.4,2.766,11.7,1.016a75.777,75.777,0,0,0-7.2-4.675c-.671-.425-1.8-.712-1.84-1.416-.044-.817,1.114-.469,1.866-.352a20.05,20.05,0,0,1,8.509,3.717,49.41,49.41,0,0,0,13.748,6.487c.966.305,2.643,1.521,2.835.33.163-1.023-1.477-1.84-2.6-2.541-.334-.207-.7-.348-1.027-.566-.454-.3-1.053-.657-.748-1.1s.886-.008,1.267.345c1.078,1,2.53,1.161,3.583,2.185a1.17,1.17,0,0,0,1.336.312c.465-.2.407-.668.116-1.071-1.4-1.931-1.23-3.96-2.276-5.953-1.648-.218-3.329-.353-4.973-.585-8.924-7.017-20.261-7.939-30.694-11.145-7.01.951-13.759,1.252-18.725-2.962,7.961-2.215,14.764-1.3,21.389-2.193a7.269,7.269,0,0,1-2.762-2.309,1.334,1.334,0,0,0-.6-.442c-6.651-1.384-9.421-2.574-13.294-5.769-.022-.1-.04-.2-.055-.3,2.487.149,4.912,1.678,7.247,3.1,1.256.762,2.265,1.231,3.339,1.013a5.1,5.1,0,0,1,2.255.41c.831.254,2.276.6,2.345.33.512-2.043,2.258-.671,3.895.211a12.169,12.169,0,0,0,5.184,1.263,4.559,4.559,0,0,0,.839.007c.189-.094.377-.206.566-.308.094-.251-.076-.672-.664-1.369-1.583-1.884-.686-2.062,1.009-1.586,1.674.472,3.354.965,5.024,1.535,1.87.643,2.146,1.511,1.227,2.458a10.914,10.914,0,0,1,3.108,1.576c.461.352.893.334,1-.084s-.163-.719-.737-.965c-.671-.294-1.778-.465-1.513-1.387.192-.672,1.154-.356,1.891.072,2.912,1.7,4.36.08,6.476.015.4-.011.3-.537-.261-.955a1.529,1.529,0,0,1-.494-2.291c.407-.784,1.126.367,1.746.806,1.257.9,2.393.287,2.879-1.481-.668-.439-.9-.054-1.22.138-.853.519-1.633,1.089-2.435-.98-.378-.973-1.086-.9-1.819-.8-1.078.141-1.725-.153-1.343-1.365a4.011,4.011,0,0,0-.647-3.344,2.654,2.654,0,0,1-.562-2.036c.443-1.067-.262-2.128-1.162-3.246-.454-.563-1.379-1.209-.475-1.507a1.545,1.545,0,0,1,1.786.879,2.031,2.031,0,0,0,1.84,1.282c1.06.185.7-.589.606-1.162-.116-.679.236-.922.661-1.263.93-.752,3.093-.56,2.051-2.966-.214-.5.588-.694,1.282-.305,1.964,1.1,2.457.072,3.027-.879.2-.341.385-.7.607-1.031.257-.381,1.277-.57.395-1.292-1.172-.962-.239.6-.653.664-.124.018-.236.051-.356.076-.98-1.822-3.14-1.6-4.265-3.183-.334-.465-.458-1.013.076-.984,2.251.13.715-1.22-.084-2.026-2.232-2.24-2.682-4.52-.965-5.728.911-.639.57-1.729-.654-2.5-2.258-1.423-2.686-2.523-1.742-3.939.29-.439-.109-1.415-.015-2.054.076-.537-.777-1.953.527-1.405a2.757,2.757,0,0,1,1.477,2.475c.014.451-1.234.244-.2,1.2a1.268,1.268,0,0,0,.9.29c.8-.188.244-1.071-.01-1.666-1.355-3.187-2.3-6.531-5.979-9.159a3.172,3.172,0,0,1-1.286-2.236c-.036-.4.156-.625.61-.552.962.156,1.46.907,1.982,1.713.618.952,1.376,1.9,2.44,1.9s.668-1.122.515-1.873c-.312-1.562.236-3.166-2.091-4.811a.991.991,0,0,1-.348-1.444c.374-.418,1.042-.121,1.412.461a4.081,4.081,0,0,0,2.178,1.775,3.469,3.469,0,0,1,1.979,2.929,7.364,7.364,0,0,0,2.8,5,4.263,4.263,0,0,1,1.71,2.552,1.6,1.6,0,0,0,1.136,1.3c.632.094.577-.585.5-1.053-.105-.723-.447-1.507-.621-2.251-.131-.548-.073-1.045.407-1.183.57-.171,1.027.4,1.423.893.53.668,1.1,1.412,1.778,1.125s-.134-1.02-.355-1.59c-.479-1.216.334-1.924-.153-3.234,1.844,1.531,3.888,2.591,4.919,5.43.334-1.96.5-3.477,1.823-4.1a1.881,1.881,0,0,1,1.713.134c-1.231-3.7-1.953-7.09.937-8.981,5.623-3.689,11.21,3.615,17.458,6.164a3.37,3.37,0,0,1,1.172-2.3c.777-.472.723-1.612-.806-2.566-.217-.139-.439-.269-.649-.425-.973-.708-2.494-1.529-2.269-2.578.261-1.209,1.731.236,2.683.563.137.047.268.058.562.12a3.724,3.724,0,0,0-1.688-1.932c-3.561-2.065-7.035-3.314-10.346-3.042-.683.058-1.576.414-2.262-.766-.7-1.22.065-1.416.835-1.746.93-.4,1.336-1.292-.519-2.65-.581-.425-1.957-.77-1.587-1.732.287-.748,1.5.189,2.07.715,3.281,3.05,5.935,2.647,8.567,2.306,1.514-.2,2.937-.639,3.071-2.513.069-.922,1.035-.805,1.344-1.372.381-.7,1.139-1.161.969-2.261-.316-2.07.762-2.963,2.232-3.028,2.567-.116,3.279-2.149,3.692-4.259a3.09,3.09,0,0,1,2.386-2.541,36.177,36.177,0,0,0,6.752-3.358,9,9,0,0,1,7.562-.889,18.181,18.181,0,0,0,5.532.476c1.536.018,2.752-.048,3.562,2.69.076-2.436,1.049-3.3,3.227-2.374a.434.434,0,0,0,.392-.015,40.843,40.843,0,0,0,5.242-3.852c1.2-1.191,2.672-2.007,3.826-3.256.265-.29.8.149,1.217.443,2.12,1.5,4.334,2.058,6.436,3.6,1.822,1.332,2.683,1.078,1.71-1.521a1.334,1.334,0,0,1,.181-1.024c1.431,4.382,5.373,5.656,7.475,9.083.748,1.216,1.979,1.031,3.06,1.978,1.449,1.271.687,1.239.3,1.692a11.52,11.52,0,0,0-1.242,1.765l2.534,4.893c-.073.512-.153,1.035-.229,1.561a9.377,9.377,0,0,0,3.91,1.336c1.22.1,2.538.65,3.819.813,1.957.258.875,1.478.726,2.24,3.656,2.127,6.618,2.175,9.384.559,2.887-1.684,4.527-.4,5.6,3.874a7.082,7.082,0,0,0,.294.875c.472,1.2,1.946.537,2.28,2.142.221,1.045.987,1.826,2.185,3.085a15.162,15.162,0,0,1-.98-4.047,5.034,5.034,0,0,0-1.692-3.228,4.923,4.923,0,0,1-1.884-4.447c.113-1.673,1.064-2.744,2.614-2.381,1.634.377,2.182-.6,2.853-1.765,1.162-2.011,2.589-3.721,2.974-6.5.214-1.543,2.57-.48,3.771,1.767a13.6,13.6,0,0,1,4.2-5.075c.374-.3,1.118-.475.334-1.67-.566-.864.134-.762.516-.813a5.008,5.008,0,0,1,2.773,1.057c1.165.668,2.225,1.6,3.373,1.074.315-.145.951.287.929.675-.109,1.906,1.165,2.273,2.12,3.053.323.262,1.035.454.73,1.144-.225.512-.734.269-1.082-.254s-.672-.98-1.053-.526c-.294.348-.156.936.047,1.473.545,1.449,2.3,2.462,3.329,1.921,1.993-1.049,4.313.766,6.422.831.116,0,.28.534.472.708.581.53.628,2.106,1.256,1.841a2.571,2.571,0,0,0,1.576-2.48c.025-1.43.145-2.839.243-4.577-1.187.628-2.044.192-3.086-1.126-.631-.8-1.862-.759-2.781-.686-.606.051-1.121.014-1.934-1.115,2.5.08,4.977-.827,6.81.465,2.334,1.648,2.556-.007,3.55-.94a4.412,4.412,0,0,1,4.916-.694c.428.164,1.042.788,1.223.015a6.547,6.547,0,0,0,.193-2.545c-.124-.744-.7-.232-1.082-.363-.944-.323-2.509.915-2.418-2.051a.361.361,0,0,0-.094-.207c-2.545-.744-2.552-3.783-3.718-5.834-.849-1.488-.9-2.468-.051-3.155,1.064-.86,1.783-2.831,3.75-1.248a9.606,9.606,0,0,1,3.141,7.108,2.633,2.633,0,0,0,.228,2.022c.389-1.656.77-3.141,1.082-4.676a1.62,1.62,0,0,0-.78-1.576c-1.075-.813-1.289-2.338-2.019-3.452s.28-1.426.516-1.895c.479-.955.9-2.109,1.967-2.367-.519-1.049-1.317-1.564-1.593-2.588-.135-.5-.763-1.111-.215-1.427.454-.265,1.177-.178,1.4.773.276,1.18.606.919,1.267,1.006,2.258.3,6.937,5.667,7.533,8.564.283,1.365.112,2.733-1.166,2.723a3.868,3.868,0,0,0-2.908,1.234c-.341.341-.737.624-1.267.214-1.506-1.184-1.826-.468-2.156,1.285-.657,3.493-.345,7.2-.3,10.815a5.353,5.353,0,0,0,1.656,3.869,18.014,18.014,0,0,1,4.566,7.871c1.289,3.906,3.881,7.137,6.295,10.219a28.589,28.589,0,0,1,3.547,4.832c.654,1.314,1.151,2.77.454,3.863-.632.991-1.666,1.387-2.991.41a3.327,3.327,0,0,0,.257.483c.589.638,1.91,1.089,1.58,1.942-.425,1.085-1.282-.487-1.975-.752a4.17,4.17,0,0,0-2.138-.635c.5.977.911,1.917,1.441,2.745.392.609.78,1.092.464,1.8a1.32,1.32,0,0,1-1.68.926c-.788-.211-1.91-1.2-2.266-.222-.359,1,.832,1.889,1.434,2.683a36.33,36.33,0,0,0,6.19,6.611,10.75,10.75,0,0,1,3.928,6.64c.094.479-.029,1.165.446,1.39.574.273.734-.457,1.01-.824,1.07-1.43,2.087-2.929,3.18-4.345,1.728-2.24,5.4-2.741,7.275-.715a10.015,10.015,0,0,1,2.512,6.218c.138,2.055-.574,3.841-.163,6.052.268,1.438-.752,3.038-1.209,4.552-.265.868-.643,1.674.029,2.687.5.751-.222,1.07-.323,1.608-.363,1.957-.57,3.968-1.561,5.579a1.04,1.04,0,0,0-.153.647c.32,2.123-.363,3.289-2.156,3.449-.218.018-.312.156-.291.446.389,5.115.037,9.678-1.891,13.955a59.114,59.114,0,0,0-3.024,9.007c-.232.864-.127,1.245.835,1.619,2.665,1.038,5.337,1.027,7.983,1.441.8.127,1.183-.711,1.848-.919.875-.275.918-.976.617-1.887a.939.939,0,0,1,.232-.679c1.017-1.293,4.553-.933,5.565.555.512.748.541,1.4-.257,1.8a7.24,7.24,0,0,0-1.594.937c2.2.1,4.327.711,6.516.889,2.734.221,5.217-.374,7.8-.577,1.02-.077,2.054-.117,3.067-.291,2.745-.475,5.5.342,8.227.276.922-.018,1.869.087,2.8.087.443,0,1.009-.036,1,.69-.007.621-.523.8-.984.755-1.59-.16-2.581.8-3.332,2.233-.182.348-.429.236-.694.138-1.608-.592-1.913-.37-1.829,1.5-.723-.6-1.086-1.753-2.146-1.514a5.326,5.326,0,0,1-2.476.469c-.511-.12-.566.272-.316.78a4.019,4.019,0,0,0,2.306,2.106c3.855,1.317,7.511,3.245,11.377,4.12a11.934,11.934,0,0,0,5.028-.211,3.5,3.5,0,0,1,2.821.625C1253.625,884.819,1253.651,885.23,1252.91,885.578ZM1700.48,694.2c-2.948,4.24-7.472,6.8-9.951,11.435-.853,1.6-2.037.45-3.1-.09-.806-.411-1.71-.65-2.349.1-.908,1.071-.131,2,.417,2.712,1.866,1.964,2.578,4.469-.377,4.214-8.535-.729-13.174,6.041-18.221,10.619-3.906,3.543-7.271,5.743-12.321,6.052-6.48.395-10.524,13.236-6.367,19.233a5.5,5.5,0,0,0,1.9,1.648c6.622,3.456,13.741.432,16.039-6.738,1.046-3.26,1.873-6.832,6.509-5.688,1.935.479,3.231-1.02,4.338-2.679a80.288,80.288,0,0,1,6.328-8.579c3.637-4.113,6.581-9.46,13.159-9.308,1.681.044,1.794-1.953,1.946-3.369.723-6.622,3.816-11.007,9.777-13.345,3.1-1.216,5.572-4.2,3.659-7.885s-5.551-2.628-8.469-1.278A8.379,8.379,0,0,0,1700.48,694.2Zm9.645,78.225c-2.654,1.068-3.278,3.271-2.127,6.095,1.441,3.544,5.6,5.032,9.435,3.5,3.184-1.274,5.061-4.029,4.251-6.255C1720.809,773.363,1713.3,771.156,1710.125,772.426Zm-101.963-39.105a24.266,24.266,0,0,1-7.054,8.923c-4.2,3.565-4.378,10.295-.668,15.585,2.356,3.369,8.629,3.423,12.024-.2,2.308-2.461,4.9-3.837,8.3-3.51a4.153,4.153,0,0,0,3.427-.7c5.245-4.665,10.916-8.938,13.954-16.253a59.451,59.451,0,0,1,4.651-9.312c4.618-7.192,6.7-16.91,15.327-20.6.9-.388,1.216-1.572,1.18-2.719-.091-2.77,1.557-4.073,3.4-5.278a58.713,58.713,0,0,0,16.829-17.6c3.391-5.231,8.165-8.5,12.888-12.031.922-.693,2.167-1.783,3.267-.766,1.431,1.325.222,2.843-.4,4.015-3.452,6.447-6.981,12.731-14.793,13.439a8.3,8.3,0,0,0-3.663,1.587c-2.919,1.982-3.772,10.023-1.158,13.472,2.93,3.873,6.092,1.779,8.949-.011,2.519-1.579,3.6-4.545,5.224-7.057,5.2-8.067,7.22-18.769,15.926-24.4,1.314-.85,1.579-2.433,1-4.03-.722-1.986-2.287-2.131-3.942-2.047-1.525.076-3.322,2.1-4.393.657-4.458-6.016-7.5-.759-10.905,1.06-1.416.758-2.367,2.726-4.777,1.517.751-2.82,3.176-3.4,4.243-5.667,2.571-5.467,4.647-11.486,9.552-15.374a10.708,10.708,0,0,0,3.586-4.788c.694-1.95.251-4.015-1.953-3.079-3.924,1.667-7.819,3.079-9.983,8.081-4.988,11.537-11.116,21.862-22.969,25.75-6.258,2.054-8.683,9.667-5.95,16.881.414,1.092.853,2.49.058,3.024-3.488,2.334-4.647,7.075-7.7,9.453a119.9,119.9,0,0,0-9.979,9.228c-7.562,7.409-14.986,14.616-25.089,17.128C1613.364,728.493,1609.788,729.571,1608.162,733.321ZM1722.08,634.7c4.167-2.171,7.431-9.435,6-13-.991-2.469-2.624-2.926-4.835-1.648-3.878,2.247-8.212,10.117-6.913,12.945C1717.687,635.931,1720.054,635.383,1722.08,634.7ZM1604.35,717.82a15.9,15.9,0,0,0,5.384-6.713,3.871,3.871,0,0,0-.168-3.9c-.962-1.354-2.232-1.1-3.332-.682a16.643,16.643,0,0,0-6.469,4.759c-1.311,1.488-2.963,3.187-1.245,5.587C1600.081,719.054,1602.215,718.956,1604.35,717.82Zm352.7-206.955c4.033-2.062,10.477-17.378,8.85-21.15-1.1-2.552-3.332-2.476-5.445-.842-5.914,4.57-10.561,10.066-12.093,16.931C1947.324,510.433,1952.468,513.2,1957.046,510.865Zm64.659-69.491c4.305.058,6.24-3.423,8.356-6.407a37.751,37.751,0,0,0,5.969-15.012c1.139-5.761.054-11.856,6.146-17.127,1.448-1.253.864-2.995-.1-4.567-1.76-2.4-4.759-3.26-8.313-1.518-3.888,1.907-1.459,3.954-.683,5.773,1.489,3.481.269,6.9-2.167,10.371a75.128,75.128,0,0,1-12.974,13.824c-3.355,2.868-4.716,6.415-3.849,9.936C2014.93,440.034,2018.089,441.327,2021.705,441.374Zm-376.787,674.767c-2.08.464-3.928.308-6.375-1.848-2.287-2.007-3.67-.595-4.4,1.158a3.819,3.819,0,0,0,1.368,4.574c2,1.659,3.569,1.638,4.462-.181a4.251,4.251,0,0,1,.857-.948c1.67,1.053,1.7,2.759,2.773,3.87,1.54,1.594,3.086,2.048,4.349,1.321,1.758-1.016,2.07-3.132,1.068-5.63A3.434,3.434,0,0,0,1644.918,1116.141Zm87.9-353.959c3.278-1.721,8.288-11.243,7.21-14.536-.519-.86-1.779-1.329-3.511.319-3.837,3.663-6.549,7.78-7.369,12.267C1728.705,762.632,1730,763.659,1732.818,762.182Zm207.888-328.628c3.5-2.617,3.035-6.254,2.962-9.794-.083-3.917-1.975-7.714,1.725-11.849,1.045-1.165,1.978-2.886.628-3.935-1.758-1.358-3.326.37-4.419,1.775a44.8,44.8,0,0,0-8.934,20.841C1932.048,434.524,1936.466,436.165,1940.706,433.554ZM1833.725,590.106c3.71-1.419,7.025-14.081,4.945-18.322-1.5-3.074-3.983-2.359-6.48-1.139-5.631,2.744-9.011,10.222-6.716,15.5C1827.285,588.68,1829.343,591.784,1833.725,590.106Zm-50.45-126.478c3.235.1,6.328-3.6,7.014-7.835.356-2.225.279-4.6,2.545-5.909,4.908-2.832,4.654-6.56,3.394-10.822-.926-3.133-1.22-6.6,2.414-8.989,6.731-4.425,10.513-13.523,19.052-15.5.577-.134,1.14-1.416,1.615-2.219,4.132-6.915,3.95-16.673-.334-18.441-4.813-1.982-10.68,2.523-14.47,11.054-.1.214-.181.436-.276.65-4.479,10.23-9.377,12.517-17.324,7.856-3.2-1.877-6.233-2.186-9.347.37-3.685,2.363-6.851,5.5-6.553,9.344.711,9.265-4.306,14.743-10.477,20.283-5.286,4.748-5.282,8.313-1.14,13.014C1765.592,463.53,1774.613,463.367,1783.275,463.628Zm46.5,470.407c-2.646-2.022-6.106-2.149-6.941.559-1.714,5.573-5.754,3.035-9.613,1.772-2.512-.821-4.56-5.377-7.438-2.443-1.79,1.826-2.451,4.5-2.5,7.257-.087,5.26,5.264,9.5,11.628,7.95,3.107-4.073,9.518-5.747,14.88-8.938C1831.827,938.983,1832.731,936.29,1829.779,934.035ZM1855.99,808.1c4.276-1.2,6.077-6.944,3.245-12.873-1.4-2.773-4.879-4.167-9.1-2.864-3.931,1.209-5.913,7.983-3.717,12.158C1848.555,808.591,1852.251,809.15,1855.99,808.1Zm327.694,91.882c-8.089-.275-16.1-.442-24.025-.453-6.611-.008-8.96,3.234-8.267,8.026.741,5.13,4.727,7.562,11.1,7.126,3.735-.253,7.406-.834,11.126-1.27,5.547-1.409,11.356-2.6,14.424-6.741C2190.389,903.49,2190.763,900.226,2183.684,899.979Zm-346.39-95.312c-3.533,1.056-4.6,4.022-2.948,7.449,1.634,3.4,4.694,5.667,8.448,4.614,3.862-1.085,4.247-4.45,3.3-7.986C1844.082,804.954,1840.873,803.6,1837.294,804.667Zm431.327,19.977c-14.107-2.36-22.609.661-27.325,10.593-2.672,5.638-6.966,9.729-13.689,12.289-10.263,3.91-20.635,7.62-31.751,9.253-17.549,2.585-35,4.36-50.5,10.122a263.128,263.128,0,0,1-61.577,14.535c-15.447,1.783-30.745,3.605-46.344-1.314a14.886,14.886,0,0,0-12.942,1.761c-12.47,8.556-28.436,10.676-42.5,15.308-10.024,3.3-21.731,2.9-31.166,7.312a9,9,0,0,1-6.041.007c-9.6-3.474-18.605-1.408-27.619-1.572-13.77-.25-24.922,4.966-34.738,11.519-6.23,4.16-6.76,13.094-1.086,17.219,6.691,4.86,13.3,11.075,22.69,10.175,4.788-.457,9.957.283,14.836-.105,10.3-.82,20.188-2.222,29.235-7.217,7.957-4.389,17.113-8.353,29-8.593-.17,1.285-.2,2.073-.384,2.814-.5,2.007-1.068,4.3,1.807,5.547,4.012,1.735,7.584.352,10.655-1.184,2.824-1.412.817-3.485-.926-5.271-3.125-3.205-1.658-4.766,2.033-4.915,7.682-.3,13.465-2.89,19.284-6.989,4.8-3.376,11.922-6.676,20.025.091,3.649,3.05,8.684,1.06,8.07-3.22-.628-4.407,1.848-5.54,5.74-6.429,16.728-3.83,33.547-8.412,51.292-11.712,25.35-4.712,53.321-4.831,79.009-13.366,2.142-.708,4.847-1.162,5.994,1.554,1.005,2.37,1.71,5.02,5.834,4.686,4.094-.334,4.926-3.227,5.028-5.75.239-5.968,5.031-9.6,10.919-11.486,12.187-3.9,23.517-8.985,34.884-14.438a47.255,47.255,0,0,1,27.895-4.309c12.532,1.764,18.525-2.029,20.141-11.661C2285.684,832.231,2279.734,826.5,2268.621,824.644ZM1661.312,1132.9c-3.437.62-1.15,3.986-.374,6.291.814,2.425,4.372,5.743,4.941,4.687,1.2-2.222,6.353.185,4.927-4.248C1669.593,1135.868,1664.267,1132.368,1661.312,1132.9ZM1842.242,917.1c.584-1.561.682-3.347-1.282-4.68-1.808-1.223-4-2.319-5.34-.5-1.539,2.087-3.5,2.037-6.048,1.452-3.532-.813-6.672-.436-8.353,2.621a3.99,3.99,0,0,0,.766,4.752c2.628,3.02,5.914,3.5,9.3,3.267a14.551,14.551,0,0,0,2.265-.439C1837.806,922.5,1840.891,920.719,1842.242,917.1Zm16.717,183.281c-5.754-5.195-14.332-10.843-13.944-16.666,1.946-.469,3.921-.893,5.969-1.213,2.773-.435,5.43-1.5,6.966-3.772,1.155-1.706.889-3.579-1.078-5.529-.16-.159-.327-.3-.494-.435,20.94-15.973-4.24-26.614-20.119-37.933-8.139-5.808-24.922-3.848-30.418-16.492,26.592-.828,33.522-5.348,32.092-11.258a2.223,2.223,0,0,0,1.023-2.272c-.261-1.768-1.876-1.961-3.256-2.117a.16.16,0,0,1-.043-.011,44.463,44.463,0,0,0-4.88-5.358c-1.662-2.073-3.336-4.135-5.075-6.142a3.251,3.251,0,0,0-3.187-1.264c-4.908-4.341-9.156-8.411-9.486-11.544-1.456-13.8-23.531,1.031-37.054,3.271-3.943.661-8.978,2.937-14.042,4.955a6.882,6.882,0,0,0-1.176-1.6c-2.93-3.031-5.322-1.071-6.8.973a27.74,27.74,0,0,1-3.561,4c-6.959.683-11.94-2.9-10.869-17.944.49-6.774-7-8.927-14.721-9.13-19.69-.523-38.934.062-51.56,11.751-6.894,6.364-7.443,12.165-4.72,17.788a45.433,45.433,0,0,1-11.032,1.954c1.47-8.35,2.374-16.78.381-25.533,4.186-3.012,8-.428,12.314-5.662a3.9,3.9,0,0,0-1.8-1.743,4.792,4.792,0,0,0-3.42.388,4.782,4.782,0,0,1-3.434.392.153.153,0,0,1-.069-.036c8.237-11.283,20.278-5.271,29.848-16.957a1.846,1.846,0,0,0,.559.356,3.527,3.527,0,0,0,1.027.207,3.565,3.565,0,0,1,1.035.207,2.04,2.04,0,0,1,.41.232c2.512,2.215.766,3.914,2.665,6.048a17,17,0,0,1,6.934,1.151,11.461,11.461,0,0,1,5.547,4.759c4.389-1.136,8.72-1.652,12.894.087a16.684,16.684,0,0,1,5.62,3.968c3.63-2.087-1.2-5.165,2.919-7.188a10.854,10.854,0,0,0,1.811,1.017c4.585,1.92,5.275-3.522,11.069-5.108-.072-1.681-1.445-3.518-.835-5.115,8.215-4.2,3.746-9.994,6.458-14.881,5.693-1.935,10.706.138,14.111-6.313a2.9,2.9,0,0,0-1.053-.824c-1.39-.61-2.9.389-4.418,1.391s-3.027,2-4.425,1.39a2.8,2.8,0,0,1-.312-.16c-2.763-8.542-6.756-17.283-8.3-25.72a8.687,8.687,0,0,1-4.338-.752,11.524,11.524,0,0,1-5.2-4.832,14.483,14.483,0,0,0,1.978-5.837c.022-.221.047-.428.073-.639.018,0,.032,0,.051,0,2.944-.374,5.26-1.219,3.75-5.289-.178-.472.395-1.263.82-1.706.156-.164.316-.327.472-.494a25.151,25.151,0,0,1,4-.744c4.346-.512,9.327-1.895,10.361-5.471,1.855-6.418,12.452-9.838,10.3-17.364-.094-.33.668-1.081,1.184-1.488,2.955-2.316,4.977-5.888,10.023-5.333,2.011.222,5.747-1.572,3.311-3.964-2.389-2.349-6.212-3.463-9.9-4.284-1.844-.414-3.656.741-4.73,2.476-.853,1.38-1.561,2.81-2.491,4.15-4.559,6.566-7.638,14.107-17.08,16.873-1.049.309-1.311,1.351-1.979,1.989a36.147,36.147,0,0,0-5.365,6.716,17.767,17.767,0,0,0-2.447.113c-1.695.134-3.344.476-4.041.581-7.122,2.142-8.211,4.7-5.057,9.344a9.545,9.545,0,0,0,2.89,2.864,12.754,12.754,0,0,1-5.935,3.369,41.789,41.789,0,0,1-8.793-2.624,23.077,23.077,0,0,1-3.086-1.634c-2.759,1.535-1.278,3.67-3.434,5.3a15.221,15.221,0,0,1-6.977-.853,9.925,9.925,0,0,1-2.734-1.808c-3.409,9.177-10.851,14.818-16.43,22.242-.331,1.885,3.042,4.266,2.711,6.15a21.176,21.176,0,0,0-4.135,5.9c-.958,2.338,3.435,2.984,2.215,4.135-6.582,4.109-14.434,11.25-22.577,15.636a24.47,24.47,0,0,0-6.2,1.3,23.372,23.372,0,0,0-4.037,1.22,4.641,4.641,0,0,0-1.641,1.249c-.486.022-.969.032-1.452.014-8.5-5.954-16.424-12.376-19.1-23.143.439-1.888,4.977-3.209,7.486-6.237a2.406,2.406,0,0,1,1.88.127,10.2,10.2,0,0,1,.984.487c.323.17.65.348.973.483a2.244,2.244,0,0,0,2.537-.283c9.857-12.086,12.895-25.068,7.715-39.237a7.812,7.812,0,0,1,2.642.033,6.186,6.186,0,0,0,6.571-2.672c2.044-2.882,4.4-3.692,8.248-2.076,4.066,1.695,7.076.555,8.332-3.7.864-2.9,2.94-4.853,5.064-6.806,5.609-5.166,13.167-7.853,18.612-13.534.668-.694,1.54-1.637,3.061-.933.45,1.575-.6,2.392-1.271,3.4-.791,1.183-1.768,2.472-.784,4.091,1.565,2.581.192,3.471-1.347,4.785-4.138,3.543-3.089,11.265,1.863,15.182a24.461,24.461,0,0,0,7.841,4.189c8.495,2.708,10.078-4.265,13.294-8.8,1.913-2.7-.428-5.652-2.251-8.034-3-3.924-3.517-7.62-1.909-11.631,1.1-2.734,1.038-6.106-1.18-8.357-2.338-2.378-1.561-3.485-.171-4.992,4.8-5.195,9.646-10.451,14.59-15.719,2.636-2.806,5.3-5.663,6.546-9.49,1.06-3.259,3.151-5.6,6.244-6.262,10.136-2.182,12.815-9.638,12.9-19.175.018-2.127.262-4.135,2.367-5.032,5.576-2.374,11.145-5.016,15.276-9.554,3.536-3.884,8.964-4.709,12.634-8.132,3.321-3.093,5.754-3.09,8.248,1,1.023,1.677,2.069,3.347,3.027,5.057,3.489,6.222,4.956,13.4,10.1,18.826,1.191,1.26,2.346,2.959,4.411,2.385,1.706-.475,1.979-2.167,2.247-3.634,1.877-10.2,3.195-20.416-2.7-30.538a28.743,28.743,0,0,1-1.788-3.28c1.593.182,3.195.326,4.8.556,2.714.388,5.628-.522,8.183.986,1.419.836,2.473.418,3.237-.967,1.065-1.937-.9-2.18-1.833-2.582a18.524,18.524,0,0,1-4.9-2.7c-.566-.486-.91-1.209-.292-1.837.783-.794,1.4-.062,1.745.473,2.192,3.391,6.348,1.654,9.271,3.219a28.371,28.371,0,0,0-5.731-3.786c-4.393-2.181-2.75-6.259-2.479-9.321.25-2.841,3.666-1,5.648-1.4.211-.042.366-.342.766-.743-3.057-.668-4.965-1.954-4.25-5.4.705-3.377-.525-6.275-3.147-8.743-1-.943-2.122-2.47-.74-4.146.458-.55,1.066-1.166.264-1.8-.68-.534-1.371-.2-1.949.337-.882.814-1.86,1.1-2.626.056-.945-1.289.1-2.078,1.134-2.718q8.049-4.978,16.145-9.929c2-1.222,3.42-.7,5.527.406,3.3,1.725,6.345,4.287,11.16,3.2,3.65-.827,7.911-5.538,11.956,1.165-1.555-7.331-1.555-7.331,2.988-6.943-2.788-3.846-2.043-6.022,2.626-7.483.856-.268,1.812-.287,2.055-1.339s-.486-1.463-1.322-1.877a20.315,20.315,0,0,1-2.171-1.424c6.129-3.42,6.555-6.285,1.465-9.926-1.25-.893-.986-1.375-.286-2.323s2.386-1.228,2.379-2.807c-2.484-.478-3.162,1.46-4.286,2.644a4.4,4.4,0,0,1-6.7.06c-.8-.921.625-2.3-.665-2.92-1.833.056-1.266,3.171-3.247,2.343-1.4-.588-1.111-2.456-1.345-3.8-.259-1.511-.283-3.069-.493-4.594-.122-.893-.639-1.677-1.671-1.637-1.2.042-1.278,1.087-1.33,1.9-.09,1.479-.042,2.96-.057,5.2-1.927-4.413-1.52-8.6-2.979-13.493a31.11,31.11,0,0,0-.783,10.225,3.587,3.587,0,0,1-2.454,3.67c-2.045.541-1.486-1.4-1.7-2.539-.141-.711-.614-1.347-1.547-.837a2.809,2.809,0,0,0-1.663,1.9c-.168.943,1.856,1.242.676,2.525-2.885-.367-2-4.241-5.025-4.826a5.184,5.184,0,0,0,.5,1.661c4.651,5.669-5.821,5.392-4.495,9.818.165.551-.749,1.232-1.572,1.234a15.954,15.954,0,0,1-2.17-.289c-.957-.131-1.924-.731-2.908.127.4,1.594,2.245,1.049,3.119,1.9.893.876,2.55,1.442,2.337,2.82-.3,1.955-2.266.55-3.321,1.14a2.766,2.766,0,0,0-.556.562c.287,1.279,2.31.454,2.522,1.814-.624.792-2.322-.322-2.4,1.6,3.894.317,3.332,4.638,6.113,6.254,2.08,1.205,1.287,2.587-.4,3.989-3.422,2.845-7.714,4.372-11.183,7.054-8.284,6.4-9.232,4.276-9.861-4.345-.058-.8.469-1.9-1.008-1.674-1.2.185-1.037,1.283-.877,2.066.376,1.832,1.335,3.658-.233,5.5-1.793-.335-.212-4.76-2.79-2.584-3.2,2.707-4.645.129-6.727-.726-.91-.378-1.806-2.262-2.635-.391-1.318,2.986-2.626,1.254-3.936.375-1.692-1.134-3.221-1.925-4.826.232-2.349,3.161-3.882,3.121-6.26.06-1.211-1.559-1.533-3.79-3.432-4.856-.806.546-.511,1.638-.043,2.79-3.333-3.789-5.714-8.421-7.979-13.227a40.255,40.255,0,0,0-10.891-13.828c-.889-.74-1.9-1.582-3.093-.867-1.5.9-1.111,2.363-.628,3.681,1.016,2.77,2.4,5.395,1.383,8.549-1.086,3.395.316,6.135,2.774,8.444,2.127,2,4.359,3.918,6.345,6.074,2.645,2.866,5.75,5.681,7.647,9.027a17.2,17.2,0,0,0,1.756,8.574c-.1,3.819-.354,7.61,2.574,11.245-3.4.319-4.378-1.768-5.889-2.846-2.058-1.467-4.48-2.425-6.385-1.024a9.97,9.97,0,0,1-7.635,1.859c-2.127-.222-4.56.686-4.643,3.681-.073,2.73,1.612,4.211,4.015,4.919,1.082.316,2.215.421,3.322.642,1.43.287,3.314-.032,3.884,1.786.625,1.993-.966,3.148-2.276,4.1-3.554,2.57-7.122,5.086-10.771,7.416-7.126,4.545-12.1,10.532-12.768,19.462-.359,4.817-2.751,7.119-7.34,7.181-1.859.021-3.554.337-4.309,2.225-1.343,3.358-3.99,5.547-6.4,7.881a10.916,10.916,0,0,0-3.584,9.327c.61,5.064.451,8.8-5.815,8.034-.7-.088-1.391.794-2.113,1.176-12.622,6.654-23.978,14.662-35,22.623-6.451,4.662-12.525,9.392-21.953,6.274-4.153-1.373-5.972,2.519-7.522,5.677a11.355,11.355,0,0,0-2.385-1.677c-1.684-.918-2.185-1.935-1.183-3.543.784-1.263.857-3.017,2.044-4.073a1.55,1.55,0,0,0-.113-2.545c-.6-.454-2-.835-2.08-.639-1.561,3.6-6.121,2.287-7.9,4.945s-3.939,3.056-6.836,2.312c-2.923-.751-5.358-.345-6.418,2.85a7.541,7.541,0,0,0,1.673,7.457,7.171,7.171,0,0,0,7.947,2.479c2.24-.621,3.165-2.806,4.883-4.7.471.871.737,1.314.962,1.775,1.187,2.44,2.454,4.72,5.343,4.353,2.222-.283,4.248-.933,5.188-3a12.5,12.5,0,0,0,1.39,1.322c2.248,1.826,1.819,2.947-.265,3.724-3.815,1.42-7.536,2.992-11.362,4.255-2.037.675-4.19,2.2-6.419-1.212-.805-1.231-1.949-.679-2.653.145-.737.86-1.391,2.047-2.832,1.219-2.759-1.575-5.242-1.056-7.82-.795s-3.764-1.056-3.87-4.08c-.246-6.977-1.375-8.647-7.808-9.816-29.236-5.313-66.09,19.932-82.893,42.7-22.626,30.66-21.825,79.478-28.786,115.834-2.539,13.255-5.087,26.613-5.009,40.109.156,27.351,11.829,54.705,32.371,72.764s49.82,26.133,76.448,19.886c5.555-1.3,11.133-3.284,15.374-7.1,2.95-2.657,5.1-6.066,7.165-9.457,8.125-13.354,23.848-66.461,40.79-68.8,4.527-.626,8.856,1.473,13.37.687a10.835,10.835,0,0,0,3.351-1.176,18.744,18.744,0,0,1,6.534,1.408c1.053.392,2.1.835,3.148,1.271s2.087.878,3.136,1.271a22.18,22.18,0,0,0,4.567,1.245,64.463,64.463,0,0,1-10.615,8.012c-15.861,9.852-23,28.693-5.151,43.774,9.456,7.986,21.927,9.576,33.6,7.641,1.554.9,3.154,1.2,4.131.153a1.135,1.135,0,0,0,.309-1.064,61.559,61.559,0,0,0,14.354-5.478q4.2-2.249,8.364-4.193c1.387-.036,2.806-.022,4.131-.189,2.269-.286,4.317-1.314,4.309-3.441,28.015-10.938,55.485-10.19,85.41,12.593,8.063,6.135,20.388,6.367,29.133.937C1872.152,1110.92,1864.92,1105.751,1858.959,1100.385Zm-119.7-254.744c-4.818,1.093-1.863,5.363-1.271,8.438s2.672,3.205,4.89,2.53c3.55-1.147,7-6.636,5.438-9.276C1745.687,842.9,1742.032,845.014,1739.255,845.641Zm119.759,183.511a7.309,7.309,0,0,0-4.331,7.388c.134,2,10.593,5.859,14.016,5.238,3.329-.6,4.1-2.86,3.158-5.834C1870.609,1032.9,1861.765,1027.947,1859.014,1029.152Zm25.764-170.144c6.081-4.639,12.154-9.413,18.115-14.365,2.12-1.764,3.572-4.037,2.508-6.135s-3.819-2.439-6.708-2.156a78.854,78.854,0,0,0-8.365,1.437c-2.225.469-3.343.665-3.191-1.681.309-4.682-3.129-6.189-9.086-4.167-3.322,1.125-6.426,2.937-11.051,5.108,7.068-5.653,6.684-11.073,7.936-16.4.741-3.147-1.016-4.059-4.647-3.231-8.012,1.823-15.762,4.458-20.467,10.7-3.572,4.745-9.156,7.675-13.6,11.4-3.9,3.275-7.558,6.346-10.015,10.2-2.135,3.34-3.634,6.8-.334,9.3,3.525,2.665,8.1,1.678,12.68-.471,4.923-2.313,9.119-5.555,14.017-9.3-.828,8.056,1.085,9.2,10.291,6.208,3.983-1.3,4.952-.468,5.137,2.381.345,5.42,4.092,6.738,11.163,4.1A22.15,22.15,0,0,0,1884.778,859.008Zm199.264-71.462c1.758,1.242,2.8-.918,4.193-.157.062,1.433-2.421,1.331-2.1,3.145,2.5.44,5.026-2.154,7.694-.169,2.952,2.191-1.075,4.766.6,6.907,4.98-7.055,5.9-7.5,9.774-4.77.8-1.079-.086-3.487,1.186-3.407,4.013.25,3.136-2.985,4.386-4.6,1.961-2.539.2-6.16,2.892-8.625.3-.277-.45-.947-1.137-.991-4.632-.3-1.716-2.43-.988-3.975.957-2.026,3.911-2.5,5.167-5.66-3.166,2.154-5.292,4.548-7.849,5.137-4.987,1.146-2.436-4.1-4.911-6.257-.2,4.3-2.927,4.4-5.779,3.652-2.128-.556-3.426-.523-4.29,1.76-.42,1.113-1.882,1.407-3.193.832-2.68-1.18-1.784,3.125-4.161,2.416,2.443,3.311-1.257,7.213.367,10.069C2087.458,785.6,2086.375,786.476,2084.042,787.546Zm-140.2-206.441c-.958,2.2-3.112,4.344-.442,7.028-2.461-.547-2.948-4.317-4.9-2.614-1.632,1.417,2.247,1.944,2.479,3.64a6.649,6.649,0,0,1-.012.891c-3.162-.655-3.808.431-2.617,3.108,2.274,5.1,2.559,10.247-.606,15.37-1.123,1.819-2.147,3.688-3.275,5.634,2.291,1.061,5.281-1.361,6.7,1.5,1.513,3.052-3.361,2.786-3.355,5.286,1.822.272,3.962-1.446,5.3.74-1.493,1.387-4.463,1.591-3.456,4.436,5.622-2.555,5.635-2.577,11.145.476,1.532.848,3.481,1.695,1.148,3.8-.856.772-1.317,1.742-.161,2.535a1.879,1.879,0,0,0,2.749-.586c1.205-1.648,2.849-2.656,4.512-1.24,1.979,1.681,3.558,1.114,5.7.234,5.363-2.208,8.264-1.149,9.536,3.593,1.871-4.371,5.084-6.418,9.417-7.747,6.3-1.935,6.213-2.266,6.779,4.14.093,1.088.38,1.968,1.624,2.221s1.912-.52,2.677-1.3c1.052-1.072.679-1.63-.407-2.306-1.914-1.194-1.476-3.343-1.57-5.047a4.492,4.492,0,0,1,2.92-4.121,2.716,2.716,0,0,1,3.542.947c.656.795,1.245,2.474,2.676,1.1,1.445-1.392.013-2.251-1.135-2.973-2.485-1.561-2.126-2.1.377-4.123,2.806-2.266,5.991-2.645,9.1-3.736-.939-1.75-5.073-.364-3.546-2.993,2-3.442,3.209-7.542,7.02-9.918.105-1.675-2.7.079-2.354-1.668.265-1.32,1.738-1.01,2.7-1.174,4.154-.7,8.177-2.134,12.553-.622,2.975,1.03,6.04-.306,8.2-2.766,2.1-2.379,2.992-4.924,1.736-7.994-2.564-6.281-9.882-7.255-16.049-2-.635.537-.957,1.744-2.141,1.18-1.313-.628-.609-1.688-.373-2.658.256-1.044,1.833-2.044.739-3.1-1.825-1.764-1.969-1.689-.726-3.45.953-1.347,2.638-2.483,1.6-4.247-2.111,1.109-2.693,7.284-6.305.987-1.2-2.1-4.1-7.359-8.7-1.9a1.589,1.589,0,0,1-2.105.217c-.988-.8-.014-1.555.432-2.214.831-1.229,1.931-2.311,2.189-3.813a24.885,24.885,0,0,0,9.858,3.454c.693.065,1.062,1.6,2.151.641,1.036-.915-.149-1.794-.214-2.721,2.617,1.092,3.515,3.586,4.861,5.643,1.375-.892.523-2.769,2.182-2.932,1.311-.124,1.6,1.046,2.069,1.934.564,1.06.925,3.057,2.62,2.1,1.637-.924.554-2.629-.182-3.839-2.024-3.331-1.446-4.642,2.747-5.335,2.263-.37,4.57-.383,6.64-2.2.241,3.592-4.222,3.8-4.426,6.684,2.11.2,2.9-1.406,4.134-2.415.826-.678,2.313-2.111,2.89-.47.677,1.928,2.379.8,2.976,1.323,2.015,1.773,4.662-.673,6.8,1.255,2.032,1.835,2.43,1.415,3.775-1.236a1.415,1.415,0,0,1,1.1-.56c3.522.416,5.81-1.713,8.458-3.472,4.465-2.968,8.167-13.05,5.281-16.87-1.922-2.545-1.007-4.314.38-7.048-3.1,1.185-5.112.922-6.221-1.557a4.2,4.2,0,0,0-4.89-2.332c-4.81.863-5.732-1.468-5.282-5.2.158-1.3.23-2.6.387-3.891.023-.17.342-.322.525-.488.909.844-.1,2.826,2.341,2.972-.027-2.336.356-4.563,3.81-4.146.393.048,1.162-.569,1.352-1.015,1.485-3.455,2.412-2.52,3.151.175.224.811.208,1.941,1.535,1.513a1.635,1.635,0,0,0,.985-2.187,13.933,13.933,0,0,1-.49-2.516c-.178-2.519,1.825-2.959,3.789-3.42,1.179-.279,2.423-.335,2.225,1.153-.2,1.458,1.225,3.58-1.9,4.152-2.373.431-3.627,3.346-3.32,4.254,1.357,4.044.28,8.859,4.03,12.2,2.958,2.629,11.494,3.446,13.771.541,3.99-5.087,8.125-9.835,14.489-12.452.764-.315,1.2-1.385,1.727-2.027,2.106,2.249,1.624,3.9-1.119,5.326-1.176.607-2.866,1.889-1.85,3.065,1.457,1.7,2.592-.35,3.672-1.219,2.12-1.708,4.6-3.1,4.937-6.161.174-1.539,1.779-2.05,3.249-2.8,4.286-2.2,7.8-4.837,9.3-9.893a19.822,19.822,0,0,1,11.953-13.044c3.866-1.622,8.9-.18,11.744-4.4.352-.515,1.186-.3,1.511.308,1,1.883,1.826.634,2.782-.19,2.294-1.981,4.872-3.732,5.216-6.984.1-.921,1.661-1.89.591-2.739-1.15-.915-2.359.2-3.36.851a21.028,21.028,0,0,0-2.455,2.107c-2.088,1.886-9.892,3.522-12.243,2.591a1.123,1.123,0,0,1-.695-1.425c.336-1.868.419-3.912,2.352-5.133,3.149-1.989,5.405-5.307,9.484-5.952.055-.008.075-.269.11-.414-.4-.808-1.164-.832-1.93-.608-4.174,1.21-8.392,2.29-12.472,3.743-2.415.859-2.725.217-2.459-1.8.2-1.525,1.168-2.169,2.446-2.974a7.66,7.66,0,0,0,3.889-7.826c-1.671.587-2.3,2.768-3.877,1.9-1.419-.777-.546-2.46-.253-3.645.564-2.3,1.489-4.532,2.457-7.344-3.806,1.424-4.511,4.832-7.173,6.388-1.473-1.858,1.7-3.725-.185-5.579-2.444,1.644-2.065,5.126-4.627,6.423-5.419,2.741-2.991-3.013-5.064-4.415-1.921,1.712-5.589,4.45-6.085,1.32-.835-5.28-2.624-3.532-5.6-1.149.6-1.54,1.275-2.726-.249-3.095-1.461-.356-1.932.777-1.857,1.891.191,2.7-1.918,3.448-3.96,4.328a29.027,29.027,0,0,0-4.653,2.152c-6.475,4.305-6.455,4.355-12.046-.407-.587-.5-1.148-1.106-1.9-.481-.319.268-.333,1.069-.22,1.561.534,2.382,1.5,4.66,1.366,7.194-.066,1.223-.2,2.79-1.71,2.682-3.328-.245-7.518.029-9.667-1.72-3.15-2.572-6.071-1.749-9.329-1.731.073,2.191.163,4.041.187,5.895.046,3.465-2.671,5.781-5.184,7.215-2.068,1.177-3.979-1.267-5.286-3.032a5.655,5.655,0,0,0-3.066-2.38c-.87-.232-1.933-.571-2.534.343-.63.97.3,1.555.991,2.079,2.331,1.77,4.655,3.551,7.028,5.276.857.631,1.878,1.1.7,2.508-1.79-.684-2.423-3.118-4.821-3.07.117,1.7,2.5,1.841,2.267,3.633-.912.065-2.312.5-2.595.135-1.863-2.413-2.679-1.789-3.528.806-.385,1.164-1.892,1.318-3.137,1.606-3.678.846-7.3,1.7-9.818-2.549-.882,2.913.921,3.48,1.652,4.614,1.3,2.01.266,4.7-1.451,4.629-4.878-.195-5.184,3.619-7.168,5.976-.936,1.114-1.427,2.659-3.47,2.445-1.7-.179-2.551,1.172-1.765,2.167a2.574,2.574,0,0,1-1.172,4.257c-1.973.679-4.745.651-6.043-1.2-2.6-3.725-5.294-7.524-6.953-11.678s-3.952-7.936-5.73-11.994c-.542-1.234-2.169-2.446-3.668-1.023-1.367,1.3-.529,2.9.891,3.619,2.822,1.424,3.6,3.944,4.48,6.551a20.176,20.176,0,0,0,4.181,7.415c4.094,4.5,3.914,9.027-.034,14.365-.923-1.44-2.441-2.371-2.961-4.114a1.558,1.558,0,0,0-2.33-.572c-1.14.711-.457,1.614.224,2.089,3.888,2.7,1.839,4.983-.755,7.331a11,11,0,0,0-3.687,7.76c-.121,4.51.558,9-.939,13.474-.189.554-.436,1.24.665.985,3.067-.708,1.787,1.558,2.262,2.793.727,1.907-2.432,3.162-.923,5.04-1.623,1.5-2.7,3.052-2.04,5.359.557,1.94-.829,3.265-2.541,4.2a1.95,1.95,0,0,1-2.452-.484c-1.382-1.409.09-2.663.465-3.972.558-1.94,2.866-3.537,1.476-6.369-2.942,2.184-2.186,6.469-5.6,7.986-1.158-1.94,2.231-4.155.286-4.85-2.683-.955-2.1,2.458-3.337,3.668-.106.1-.175.262-.3.33-1.324.737-2.365,3.18-4.093,1.626-1.6-1.441-1.38-3.633.254-5.422.94-1.03,2.883-.993,3.408-2.991-3.836-.155-5.748,1.466-6.149,4.872-.439,3.682-1.239,6.793-6.048,7.923-5.058,1.188-4.979,1.551-5.073-3.226-2.235.1-2.6,1.774-3.018,3.275-.823,2.963-4.032,3.513-6.088,4.588-2.693,1.4-4,1.614-5.852,4.493-.8,1.237-2.406,4.4-4.074,2.089C1944.936,577.812,1944.568,579.446,1943.844,581.105Zm-72.15,81.835c-1.354,3.163,1.2,4.332,2.507,6.34.956,1.473.031,4,2.793,4.6,3.425.751,5.576,3.65,9.639,4.007,2.819.252,7.963-1.135,8.674,4.051,1.793-.976-.26-3.409,2.461-3.736,4.374-.525,6.439-4.114,8.926-6.934.674-.767.5-2.219,2.137-2.14a3.073,3.073,0,0,1,2.7,1.9c.566,1.105.448,2.9,2.7,2.463.558-2.252-3.106-3.416-1.781-5.245,1.184-1.635,3.54-2.54,5.411-3.724a9.037,9.037,0,0,1,4.2-.93c2.76-.177,4.655-.506,5.618-3.345a2.8,2.8,0,0,1,3.081-1.41c6.347,2.559,3.185-1.661,2.9-3.421,1.182-1.586,3.044.545,3.71-1.036.449-1.064-1.041-1.465-1.72-2.119,1.11-.989,5.428.612,3.329-2.464-2.365-3.463-.273-4.953,2.783-7.907-4.827,1.843-3.686-1.167-4.395-2.708-.583-1.267.226-2.754-1-3.994-3.153-3.181-3.972-6.581.1-10.017.077-.062-.142-.44-.36-1.061-1.117,1.175-2.044,2.269-3.107,3.229-1.559,1.41-3.291,1.791-4.53-.129-1.727-2.669-3.35-5.093-7.1-2.144-.238.188-.844,0-1.267-.067-3.982-.607-9.431,1.131-9.8-5.3-.007-.156-.455-.283-.7-.429.025,4.516-1.453,6.455-4.35,5.311-3.612-1.429-7.9-1.751-10.512-5.045a1.658,1.658,0,0,0-2.589-.352c.738,1.73,2.575,1.956,3.813,2.876,6.656,4.956,6.809,6.244.931,12.466-.622.657-1.5,1.248-1.154,2.146,2.122,5.415-2.256,4.11-5,4.362-1.1.1-2.385-.921-3.291.363-2.457,3.485-4.231,1.217-5.938-.482-1.1-1.1-1.608-2.919-3.858-2.388.462,2.272,3.085,4.271,1.648,6.308-1.581,2.238-2.837-1.718-4.71-1.06a1.217,1.217,0,0,0,.2,1.6c1.78,2.1,2.944,3.7-1.68,3.411-1.438-.087-3.516,1.365-1.757,3.547.666.831,1.315,2.173.089,2.474-4.3,1.043-1.648,2.968-1.014,4.651C1870.851,660.649,1872.064,662.073,1871.694,662.94Zm90.212,16.667c-2.226,1.3-3.578,7.842-2.1,10.156,1.9,2.987,6.056,3.665,9.794,1.592a6.36,6.36,0,0,0,2.221-8.853C1970.625,680.511,1963.772,678.511,1961.906,679.607Zm14.962-32.587c-2.425,1.4-3.713,6.619-2.238,9.063,1.666,2.755,6.666,4.1,9.451,2.541,3-1.676,4.559-6.547,2.926-9.146Q1983.179,643.375,1976.868,647.02ZM2375.731,485.2c-2.348,1.416-4.821,2.608-6.707.766-1.912-1.869,1.9-2.686,1.743-4.993-2.542.756-4.352,3.919-7.339,1.2-.426-.383-4.246-2.132-5.185-1.406-4.268,3.29-10.527,2.349-14.2,7.6-4.125,5.891-5.866,13.248-1.653,18.707,3.876,5.02,8.985,7.338,16.289,6.747,5.628-.455,13.539-3.992,15.019-8.748.833-2.684,2.09-4.469,5.335-5.177C2373.1,495.965,2374.42,490.844,2375.731,485.2Zm-46.365,45.011a8.184,8.184,0,0,0,.523.657c-4.868,2.9-1.146,8.873-5.836,12.01-2.193,1.467-1.93,1.927.692,2.5,2.229.487,2.372,2.691,3.75,4.166-1.728-.685-3.449-1.372-5.179-2.045-3.81-1.484-5.3-.59-4.907,3.091.1.961-.057,2.295-.873,1.949-3.216-1.375-5.576.84-8.212,1.228-4.284.626-9.521,1.971-13.361-1.544a4.632,4.632,0,0,0-1.22-.562c-.756,4.555-3.673,7.121-9.015,7.867-2.412.34-2.1,2-2.785,3.483-1.369,2.964,2.3.946,2.287,2.474-.2.175-.6.731-.8.683-3.251-.758-5.241-1.95-8.369,2.386-3.547,4.922,3.337,3.149,2.181,5.476-2.555.842-5-1.452-7.38-.638-2.255.773-4.475,2.413-4.047,5.287-.673-.089-1.056-.037-1.233-.184-1.982-1.666-3.445-4.22-6.969-3.2-3.867,1.114-3.941,4.623-4.475,7.076-1.308,6.007-6.74,10.574-15.95,10-4.48-.28-6.959,2.119-6.264,6.7.179,1.189,2.38,3.014-1.5,2.49-1.378-.189-1.311,1.717-1.817,2.724-.732,1.464.527,1.7,1.438,2.157a16.142,16.142,0,0,1,4.926,3.244c-3.507-.852-7.008-1.721-10.526-2.545-2.026-.472-4.056-.806-5.222,1.537-.234.467-.81,1.054-.674,1.376.932,2.2.891,2.012-1.39,3.053-3.119,1.423-5.72,3.94-9.517,3.859-1.332,4.78-3.618,1.072-5.758.974a6.924,6.924,0,0,0-6.918,4.126c1.6-.653,3.182-1.259,4.723-1.954,1.046-.472,1.924-.386,2.281.584.427,1.154-.613,1.543-1.576,1.594-2.366.133-4.457-.055-5.024,3.159-.336,1.916-2.159-.623-3.621.012-.625,1.691,2.548,4.435-1.684,5.456-.792.191.126,1.2.444,1.788.641,1.174,2.309,1.95,1.486,4.036-3.014-1.476-2.748-5.662-7-6.475,1.758,2.934-1.869,4.913-.684,8.569-3.16-4.327-6.354-7.076-11.51-6.631-.866.076-3.08-.019-2.135,1.239,3.151,4.2-3.958,6-2.669,9.64.263.752-.665.554-1.3.6-2.621.181-1.559,1.248-.635,2.238,2.917,3.116,6.6,3.8,10.846,2.423,2.144-.694,4.17-1.146,6.239.789a36.3,36.3,0,0,1-8.85,1.384c-5.072.257-5.074.3-2.831,4.724-4.235-3.778-9.44-6.746-14.8-3.445-4.922,3.027-3.343,7.8.819,12.874-6.17-1.914-11.034-2.685-15.363,1,.825.989,3.313.03,4.367,1.491.4.551.938,1.3.791,1.83-.227.833-1.178.684-1.933.443a3.5,3.5,0,0,1-.44-.122,30.2,30.2,0,0,0-16.308-2.768c-.261,8.039-.261,8.039-2.177,10.037-1.411-1.543,1.356-3.9-1.213-5.284-2.105-1.135-3.841.192-5.739.275-3.248.141-3.106,1.435-2.086,3.539.908,1.868,2.708,4.28-2.28,3.381-1.024-.186-3.377,1.862-3.852,3.219-1.621,4.617-4.9,7.552-10.107,7.571-2.262.006-3.407,1.877-6.107,1.714-4.677-.277-9.005.088-12.832-3.126-2.343-1.965-7.141.24-7.562,3.214-.4,2.813,3.1,1.454,4.375,3.213-1.917.522-4.544.764-2.953,3.581a1.975,1.975,0,0,1-.881,2.649c-5.4,2.11-3.622,4.446-.287,6.817-1.587.843-2.562-.05-3.64-.271-3.492-.722-4.648.216-3.927,3.375.341,1.5,1.211,3.048-.868,4.009-.862.4-1.356-.65-1.607-3.534-3.127,2.054,1.591,3.843.2,5.829-1.645.019-1.376-1.394-2.079-2a9.035,9.035,0,0,0-2.022-1.56,2.248,2.248,0,0,0-1.583.336c-.233,3.561-8.005.031-6.191,5.623.343,1.053.94,2.693-.537,3.827-1.209-.4-.769-1.433-1.124-2.119-.8-1.535.253-4.57-3.748-3.6-2.924.71-7.163-.686-5.729,4.71.607,2.273-2.152.365-2.977,1.416-.43,1.483,1.981,1.476,1.927,2.825-3.824-.562-7.4,3.879-10.938.189-1.481,1.666.447,2.92-1.05,4.3-1.806-.218-3.766-3.689-6.019-.76-1.318,1.716-1.88,3.919-3.09,6.572-.953-2.878.3-7.9-5.237-3.936-1.375.98-1.571-.521-1.548-1.559.029-1.086,1.651-2.608-.534-3.124a3.142,3.142,0,0,0-3.663,1.944c-.883,2.239-1.26,4.882-3.7.846-.368-.6-1.745.348-1.272.9,1.323,1.538,2.063,2.248-1,2.527-1.727.159-.945,1.805-.565,2.768.6,1.512,1.736,2.858,1.577,4.692-2.294-.224-1.811-2.118-2.635-3.125-.527-.647-.895-1.677-1.9-1.526-1.427.215-1.31,1.572-1.193,2.4.319,2.3.938,4.556,1.48,7.023-2.362-.966-2.467-2.925-3.051-4.578a4.017,4.017,0,0,0-.967-1.6q-2.236,1.155-4.53,2.257a9.817,9.817,0,0,1-2.337.675,4.234,4.234,0,0,0,.507,1.2c.6,1.008,1.068,2.207-.15,3.015-.947.633-2.02.065-2.8-.643-.989-.895-2.35-2.1-3.3-.61a1.592,1.592,0,0,1-.256.293,4.242,4.242,0,0,0,.215,1.414c1.3,4.135,4.6,8.619,11.937,6.669,5.3-1.408,7.993.795,6.832,5.965a14.87,14.87,0,0,0-.309,5.166c.3,2.2,1.329,4.3,4.059,4.919,2.548.573,4.146-.97,5.518-2.622,4.559-5.5,9.856-10.7,11.566-17.708,1.06-4.349,3.95-5.7,8.945-5.1,4.81.578,7.431,2.567,7.856,6.684.45,4.385-3.017,5.954-7.065,6.6-5.587.885-8.389,4.893-12.118,7.761-2.588,1.986-1.513,4.349.011,6.531,2.106,3.006.773,5.4-2.033,7.42-2.741,1.972-5.38,2.1-7.783-.41-.98-1.027-1.7-1.869-3.445-.472a142.443,142.443,0,0,0-28.483,30.821c-7.842,11.337-13.153,25.06-30.342,28.665a77.236,77.236,0,0,0-17.1,5.249c-5.111,2.407-12.009-1.379-14.092-6.258a10.083,10.083,0,0,1,5.583-13.32c1.812-.755,3.892-1.256,3.757-3.478-.156-2.544-2.61-3.154-4.715-3.731-3.213-.875-6.412-1.51-8.641-4.237-1.88-2.3-3.848-.715-5.8,0-9.388,3.445-13.57,1.677-17.6-7.322-.664-1.485-1.151-3.035-1.841-4.509-1.56-3.329-3.495-4.661-6.447-1.336-1.452,1.637-3.162,3.441-5.834,1.957-2.646-1.467-1.677-3.808-1.321-5.9.3-1.739.759-3.452,1.053-5.2.653-3.9,1.1-7-5.413-5.91a5.7,5.7,0,0,1-3.071-.389,3.93,3.93,0,0,1-2.1-.827,6.086,6.086,0,0,1-1.873-2.229c-2.4-2.857-3.921-6.978-3.325-10.506a12.319,12.319,0,0,1,1.818-5c3.289-4.65,5.192-8.357-1.866-12.43-4.015-2.316-3.674-7.428-1.72-11.664,2.682-5.823,8.52-9.726,14.27-9.414,2.255.12,4.731,1.463,6.331-1.285,1.678-2.875-.537-4.636-2.091-6.556a9.752,9.752,0,0,1-1.535-2.556,5.726,5.726,0,0,0-1.924,3.21c-.9,3.713-3.551,5.347-8.375,5.794,2.61-7.058,2.813-14.711,11.823-16.827a1.642,1.642,0,0,0-.722-1.666,1.974,1.974,0,0,0-1.179-.41,26.144,26.144,0,0,1,7.065-5.509c2.563-1.252,5.388-1.773,8.02-2.841a13.864,13.864,0,0,0,1.339-.638c-.1.172-.2.335-.3.511,4.643-3.747,10.44-6.281,14-11.258,2.548-3.564,6.041-3.394,8.026-1.122,9.363,10.7,20.969,10.757,34.245,6.415,4.857-1.586,8.68.821,11.882,4a58.746,58.746,0,0,0,11.233,8.922,15.945,15.945,0,0,1,.778-5.123,3.483,3.483,0,0,1,.7,3.752,3.111,3.111,0,0,0,.015,2.217,12.972,12.972,0,0,0,6.7,1.544,2.544,2.544,0,0,0,.2-2.533c-.739-2.372-3.106-4.116-2.915-7.127,2.787,1.214,3.5,3.627,4.38,5.806.631,1.557,1.334,2.632,3.19,1.533,2.686-1.591,7.034,1.757,8.687-2.713,1,.358,4.008-2.326,2.756,1.66-.271.868,4.725.04,5.626-1.6,3.533-6.421,8.638-11.1,16.556-12.512,1.506-.272,3.109-.072,3.591-1.925.064-.245.349-.447.531-.669,2.69,2.628,6.047.374,8.918.9,2.274.416,4.553.975,7.082,1.554-1.186-4.3-2.71-8-7.4-9.6a1.923,1.923,0,0,1,2.532-.538c4.421,1.409,8.733,2.872,10.649-3.358.167-.545,2-1.506,3.533-1.56,1.562-.05,3.559.05,3.459-2.346-.018-.4.517-1.042.842-.674,3.9,4.413,4.914-1.074,7.236-1.957a12.261,12.261,0,0,0,2.2-1.408c.367.344.763.556.735.713-.967,5.306-.749,4.228,5.724,5.214,4.731.72,6.863-1.323,9.72-3.242,2.335-1.568,3.648-3.362.052-5-1.179-.532-2.312-1.582-.47-2.415,4.683-2.123,6.132-5.315,4.371-9.8,2.474.08.942,2.8,2.9,2.867,1.178-2.127,9.084-5.88,11.49-4.946,2.08.8,2.663-.14,3.7-1.3,2.165-2.4,4.632-4.33,8.35-3.3.567.153,1.513.357,1.367-.405-.57-3.006,2.2-2.065,3.577-2.752,2.13-1.065,6.993.938,5.553-4.211-.032-.106.707-.506,1.129-.627,3.951-1.148,3.266-3.6,1.651-7.528,2.777,3.587,4.77,1.087,5.282.292,1.606-2.5,3.494-2.63,6.273-2.655,4.12-.037,4.128-.4,4.351-4.07,2.221.257,1.708,2.381,2.682,3.482,16.9-11.557,20.293-12.844,26.455-9.408-1.634-3.03,2.5-6.5-3.01-8.58,2.784-.51,4.521-.457,5.48-2.557,1.121-2.447,3.829-3.74,6.49-4.622,3.836-1.263,7.577-2.526,9.408-6.468q-.531,2.226-1.062,4.455c1.371-1.96,2.359-3.337,4.692-.752.951,1.051,3.2.617,3.619-1.678.811-4.487,2.1-8.522,7.355-10.882,3.394-1.527,2.89-4.738,1.592-7.957,2.958,2.511,4.966,1.2,7.358-.413,4.886-3.3,10.108-4.668,15.646-1.575,2.366,1.321,3.958.109,3.341-2.045-1.593-5.571,2.889-9.21,5.987-12.516,1.74-1.86,7.05-1.459,10.518-.618,4.033.979,4.476-.115,4.328-3.532-.217-5,.075-10.153,5.278-13.767,2.69-1.868,5.13-4.082,8.953-3.611a6,6,0,0,0,5.574-2.411c1.839.736.385,3.315,2.719,3.251a4.285,4.285,0,0,0,3.99-2.758c1.094-2.75,4.086-3.12,6.242-4.386,1.64-.962,2.329-1.711,2.116-3.353-1.392-10.621,5.717-20.117,16.995-23.639a25.161,25.161,0,0,1,12.454-.854c3.882.7,8.483-2.035,11.412-6.813.892-1.458,1.551-2.9,3.455-3.5a5.665,5.665,0,0,1,.49.591c-3.881,3.457-2.837,9.931-10.105,11.808,3.1,1.939,4.805,3.914,7.814,3.881.79-.007,1.62.048,1.489,1.14C2324.613,524.474,2327.4,527.181,2329.366,530.211Zm-429.4,186.9c1.154-4.919,2.4-8.593,7.057-11.685-4.883-2.382-7.308.1-8.76,3-2.109,4.2-3.536,8.672-5.206,13.007-.9,2.352-1.074,5.467-3.5,6.567-8.872,4.033-7.242,11.693-8.211,19.309,4.6-1.524,6.814-3.71,6.854-7.533.036-3.456,2.2-5.252,5.467-6.069,2.77-.69,5.8-2.266,5.3-4.763C1898.126,724.67,1898.987,721.3,1899.967,717.115Zm35.359,72.631c-3-2.908-6.317-3.423-8.858-5.021-4.73-2.987,2.334-4.338,1.39-6.966a3.677,3.677,0,0,0-.622-.315c-.673-.026-1.361-.034-2.039-.058a8.839,8.839,0,0,0-2.2,1.208c-3.173,2.1-8.433-1.964-9.711,1.478-1.38,3.724,5.169,4.174,6.571,7.344,2.007,4.57,4.4,6.244,8.6,1.742C1930.2,787.289,1932.538,789.656,1935.326,789.746Z"/></svg>