<svg id="drip" xmlns="http://www.w3.org/2000/svg" viewBox="0 0 2916.555 2444.698"><defs><style>.cls-1{fill:#fce600;}</style></defs><path class="cls-1" d="M1870.088,1632.515c5.024-8.756-5.195-13.882-10.615-17.208,4.476-.925,10.357-.729,9.689-5.931-6.04-3.26-11.239,3.3-16.895,3.423-5.344.141-11-3.808-16.888-4.059-1.438-2.889,1.862-6.109.305-8.135-2.559.25-1.568,4.058-4.371,4.077-3.532-2.051-.3-5.163,0-8.448-1.423-.276-3.405,2.567-5.326.305-1.212-5.231,1.739-10.767-.312-15.32a6.108,6.108,0,0,1-1.869,2.491c.218,1.673.954,2.806,1.256,4.388-.552,1.75-2.164,2.433-1.9,5-1.361.054-1.808,2.6-3.126,3.757-.395.363-1.339.3-1.876.628-1.721,1.028-2.28,2.581-3.431,2.8-1.652.345-4.306.185-4.7-2.185-1.187-.254-.363,1.5-1.565,1.256-1.456.6-.29-.857-1.245-1.874-.338-.362-1.779-.4-2.193-.947-1.136-1.547-.621-4.429-3.133-4.694-1.107-.116-3.144,1.249-3.757,2.821-2.4-.432-3.442.523-4.69,1.256.323-1.663,1.586-2.4,2.505-3.456-1.3-.657-2.317-1.638-4.066-1.866-.752.962,2.189,2.261.947,3.757-1.143,1.485-3.891,1.583-4.694-.33a17.836,17.836,0,0,1-4.694,1.267c.008,1.15,2.015,2.976,2.5,4.694.417.363,1.9-1.354,3.133-.316.3,1.855-1.035,2.084-1.884,2.81.878,2.686-.672,4.665-.937,7.823-3.855-.323-5.975-4-9.7-3.438.842,2.712,4.022,3.068,6.578,4.077-1.6,3.082-6.146,3.224-9.7,4.363,1.274,5.518-7.893,6.818-8.455,1.884-.28-2.6,2.029-4.341,5.013-4.694-4.756-12.756-12.121-24.264-12.521-40.364-1.165,2.5-1.982-1.576-5.307-.305-.592.965-.127,3-.94,3.76-1.369-.736-1.852-2.316-2.821-3.455-1.808-.022-1.416,2.138-3.438,1.891-.37-3.086,2.211-3.22,4.382-3.757a4.6,4.6,0,0,0-5.329-1.884c-1.685.4-.3,3.88-1.867,4.385-2.167-.029-1.706-2.69-3.129-3.449-4.933-1.274-4.069,4.2-8.135,2.814-1.547.537-1.7,2.49-2.189,4.073-1.641-4.411,2.483-7.577,4.679-8.76-2.795-3.111-5.732,1.1-9.061,1.256.378-3.1,7.576-1.866,5.01-5.95h-2.2c-1.22.715-3.841,1.351-5,.316v-.316h-8.458c-11.627-19.984-38.113-4.016-50.345-13.3-2.654-2.051-6.183-12.423-9.109-13.588-.485-.2-7.57-.763-15.884-1.4.1-58.907.049-118.253,1.236-175.971,7.852-1.848,17.026-2.36,24.722-4.367-1.325-1.071-2.283.363-4.077.617-6.487.929-15.2.6-20.645,2.5.229-7.529-.385-14.216-.308-21.589.417.719,1.423,1.859,2.505.94-.266-5.057-2.974-10.361-2.505-17.2h-4.694c.263,71.893.659,143.188.945,214.859-11.035-.838-23.133-1.749-24.662-2.132-4.211-1.1-9.8-6.854-12.564-7.188-7.813-.965-16.609,7.373-24.468,7.039-5.547-.217-7.148-7.118-17.52-5.754-1.108.144-2.25.307-3.417.486-.836-2.117-.6-5.3-2.493-6.338-2.774.451-2.73,3.707-3.122,6.557-6.244,3.953-11.6-3.042-15.186-4.839-.406-6.063.055-12.173.254-18.021-.533.018-1.049.076-1.593.076a38.566,38.566,0,0,1-20.49-5.423c.033.773,1.18,1.6.414,2.646-3.619-.192-6.52-2.519-9.66-.341-.548,1.75.109,2.78-1.387,3.8-1.444.363-3.4.508-4.149-.693-9.341,6.657-10.052-7.994-14.844-11.389,1.6-4.258-2.712-8.015-2.069-11.751.432-2.516,2.77-2.588,3.8-5.18.392-2-1.866-3.184-.694-4.825,1.532-1.1,2.48.813,3.1,1.728a31.461,31.461,0,0,0,7.929-5.776,44.257,44.257,0,0,1,3.122-18.351,43.82,43.82,0,0,1-9.305.981c-12.724,0-22.264-4.941-28.621-12.343-1.4,1.4-1.964,3.372-.395,6.825-1.627,1.825-3.014,3.884-6.568,3.8-.787,4.94-5.746,3.768-4.487,9.664.741,3.474,6.88,3.474,3.453,7.6-1.4.614-3.718.342-5.184,0,.8,1.424,2.686,2.451,1.049,4.48.693,1.035,2.537.908,3.441,1.728-.047,4.7.313,5.369.694,10.031-2.12.061-3.561.8-5.533,1.027-1.292-1.779-2.283-4.073-4.49-5.874a18.8,18.8,0,0,0-5.863-3.1c-.559-2.479.261-3.387-2.414-4.145-.156,1.532-1.053,3.739-.352,5.863-2.651.214-2.3,3.445-3.453,5.18-2.254.94-4.618.142-5.525,2.774-2.734-2.149-4.781.283-7.243,0-5.873-.694-7.707-7.751-10.023-13.124.092-.146.181-.293.273-.44,1.53-.373,2.98-.689,2.926-2.181a1.569,1.569,0,0,0-.718-1.367,21.418,21.418,0,0,1,6.5-7.062c-.854-2.393-2.157-4.288-2.763-6.92-1.213,5.126-4.218,8.452-7.947,11.047-2.439-.885-6.03.432-7.249.694-1.652-.487-1.238-1.855-3.115-.694-1.307-2.5-4.03-3.561-5.17-6.215-4.744,1.375.118,4.668.323,7.068h-10.18a5.2,5.2,0,0,1-2.58-1.877c-.857-1.241-.417-3.125-1.035-4.5-.776-1.75-2.047-1.768-2.759-3.46.654-.73,1.983-.77,2.407-1.724-.57-.545-2.225.74-3.793.352a17.423,17.423,0,0,1-3.446-5.867c1.2-2.723,5.7-2.12,6.2-5.532-3.23-1.1-5.423,6.117-7.59,6.225-.3.011-5.272-3.895-5.526-5.191-.457-2.283,1.532-2.49,1.728-4.483-2.167.508-3.543,4.211-6.912,4.483-3.986.323-8.669-2.556-9.275-7.2-.512,5.315-7.649,5.508-10.067,1.674-.21,4.4-3.4,8.382-7.58,7.605-2.581-.49-2.385-2.726-4.512-4.16-.294,1.942,3.2,3.028,2.77,6.226-1.387,2.04-3.725,1.045-5.874.352-1.445,1.71,1.924,3.017.7,4.48-.722,2.189-3.242,2.537-5.184,3.452-1.144,1.322.8,1.993,0,3.115-1.22,1.2-3.833,1.006-4.487,2.774-.31,1.572.256,2.269.544,3.252h-48.888a72.277,72.277,0,0,1-18.141,3.449c-.777,1.314-.61,2.051-1.256,3.118-.581.984-.258-.254-.936.32-4.023,3.427,2.236,8.132,5.322,9.689,8.309-2.458,17.08-3.775,22.827,1.892q-.366,9.391-.574,18.929a8.353,8.353,0,0,0-1.031-.255c-1.027,1.158.33,4.694-.686,5.866-2.516,1.561-2.058-1.826-3.8-2.069-.665,1.815,1.07,3.231.693,4.832-.89,3.706-6.1,2.174-8.981,4.146-2.291-2.048-4.949-5.33-8.978-4.5-1.053,1.267,1.18,2.977,0,4.5-.675-.636-1.961.334-2.08.344-2.194.389-5.73-.587-9.152-1.5a3.537,3.537,0,0,0,.809-2.136c-.475-6.505-17.276.755-17.512-6.894-.069-1.928,1.964-2.4,2.81-4.058-.8-1.333-2.051-.3-3.13-1.264.106-11.846,1.609-22.784.32-34.408h-6.578c-.294,7.816-1.195,16.257,0,23.782-1.877-4.846-5.467-6.284-11.574-6.578-1.23-.258-1.281-2.033-2.809-2.8-1.355-.683-3.387-.037-5.635-.32-.776-.105-1.132-.839-1.553-.936-4.778-1.238-6.564,2.733-7.519,5.322-3.448-.432-4.251,1.793-5.009,4.058-4.752-.664-6.484-4.36-9.7-6.56v-15.966h-.941V1478.9c-1.935.2-6.364-4.128-10.626-2.5-3.5-2.828-4.385-9.689-11.58-7.823-.57,6.778,3.677,9.381,9.068,12.209,4.113,2.149,12.165,4.262,13.138,8.124.7,2.77-.864,8.379-3.122,10.645-1.818,1.826-4.492,2.177-7.052,2.978a123.213,123.213,0,0,0-18.455-12.978c-.016-9.078.084-17.991.168-25.672h-.944c.157,8.248.129,16.714.072,25.273-6.732-3.743-12.739-6.032-16.975-6.519-13.893-1.582-31.129,12.155-45.4,7.758-2.792-.838-2.883-9.958-5.471-11.4-4.411-2.432-8.873,3.329-14.184-.25-14.739-9.9-21.092-32.255-47.676-26.243,4.814,27.444,51.818,28.221,50.21,46.1.066-.621-16.655,14.532-14.415,13.907-2.72.781-16.507.465-28.273-.464-9.751-.8-21.281.105-28.316-.465a6.476,6.476,0,0,1-1.354-.3,42.181,42.181,0,0,1,12.56,8.967c-1.691-1.731-7.068,14.354-5.953,16.881,3.692,8.248,30.574,19.749,30.8,20.344,3.013,7.507-6.364,30.041-6.168,31.014,2.036,10.669,15.929,10.887,8.208,17.113-8.738,7.028-25.234-15.208-34,2.261,16.554,31.551,33.209-15.991,53.641,9.381-8.528,8.27-31.707-5.369-28.527,13.679,20.014,13.563,12.4-17.839,42.681-13.465,9.733,1.445,12.946,25.6,19.36,25.782,7.308.269,15.487-9.8,22.8-10.938,2.461-.366,13.527,6.669,16.895,5.943,20.069-4.218,29.594-16.852,39.912-19.142,3.337-.729,29.722.066,41.105-.987a31.847,31.847,0,0,1,3.558,3.876,14.093,14.093,0,0,1,6.56-.766c.944,1.14,1.768,2.4,2.81,3.449.45,11.316.406,22.766.432,34.477,1.1-.087,2.2-.163,3.361-.163a36.373,36.373,0,0,1,14.776,2.94c1.412-2.429,2.541-5.485,5.205-5.667,3.616-.247,5.645,5.62,7.827,8.143,1.354-1.928-1.583-2.592-1.884-4.694-.149-1.133.842-2.36.628-3.761-.461-2.908-4.8-5.794-.628-8.749-4.748,3.06-6.266-4.215-10.956-1.884,1.274-5.09,1.982-10.742,6.262-12.826.857-1.55,4.712-10.074,7.823-9.388,2.259.5,1.22,4.215,3.761,5.01,1.924-.062,2.941-1.017,4.371-1.565,1.764.741,2.639,2.371,3.442,4.066,4.008.654,3.793-2.889,5.63-4.374,2.77,1.412,4.945.8,7.2.308.948,2.582-1.122,1.67-2.5,2.505-1.009,3.108,1.209,3.975,2.81,5.311-.126,6.952-.175,14.4-.178,22.1-2.1.33-3.744,1.278-4.375,2.732a9.276,9.276,0,0,0,2.527,10.495c.642.494,1.637.661,1.372,2.12a43.241,43.241,0,0,0-4.269-2.276c-2.026-.813-3.042-1.608-2.374-4.378.973-4.026-.61-5.66-4.614-6.015-2.487-.218-5.083-.225-4.273-4.066.127-.592.283-2.139-1.238-1.62a1.678,1.678,0,0,0-1.209,2.368c.207.522.94,1.056-.025,1.655-6.48,3.99-4.756,10.183-4.571,15.831.091,2.734,2.919,3.722,5.366,2.157a8.6,8.6,0,0,1,4.356-1.565c1.754-.054,3.158-.385,3.979-2.367.653-1.59,1.877-1.448,3.278-.668a33.07,33.07,0,0,1,6.14,4.574c.106,14.707.3,29.725.427,43.7-1.064-1.768-3.43-2.211-4.385-4.077-6.466-1.387-10.347,2.044-12.514,5.943-.218,1.379.53,1.768.312,3.122-3.042.283-5.692,3.855-2.5,5.957,1.307-1.1,3.209-1.6,4.073-3.129,1.946,2.189,4.331,5.685,8.437,5.006.85-.145.937-.824,2.512-1.569,1.837-.874,4.052-.246,3.747-2.809a51.493,51.493,0,0,1-.617,22.515c-1.293,5.075-4.466,10.709-3.758,15.022,1.035,6.269,10.811,5.525,11.878.628.825-3.714-1.728-8.375-2.809-11.573-2.984-8.92-2.748-18.718-2.189-30.967.654-14.424.21-29.941.039-45.259.933.9,1.863,1.814,2.814,2.7a7.867,7.867,0,0,1,2.349,8.673c-1.089,3.87-1.155,7.743,1.361,11.13.94,1.267.958,2.9,1.035,4.469.326,6.582.577,13.163-.512,19.8a16.5,16.5,0,0,0-.033,4.356c.251,2.433,1.053,4.861,3.558,5.4a5.239,5.239,0,0,0,5.779-2.919c-.109.8-.428,1.416-.541,2.058-.17.988-1.317,2.4.244,2.846,1.245.356,1.394-1.187,1.749-2.08a10.931,10.931,0,0,1,3.268-4.81,22.854,22.854,0,0,1,.965,5.177c-.04,2.388,2.266,3.528,4.291,2.145a9.508,9.508,0,0,0,1.772-2.029c.7-.886,1.368-2.167,2.57-1.895,1.412.316.857,1.822.875,2.853a51.535,51.535,0,0,1-2.414,16.7c-1.786,5.532-1.688,10.408,1.416,15.04,1.045,1.561.682,2.265-1.213,2.059-2.715-.3-5.453-.523-8.143-.966-4.959-.817-9.435-.258-13.773,3.3-4.52,3.7-5.59,12.245-1.176,15.886,4.687,3.866,8.263,9.091,14.086,11.6,2.352,1.013,5.361,1.681,5.474,5.318.011.276.592.606.973.737,4.222,1.474,7.449,4.9,11.907,5.914a2.88,2.88,0,0,1,1.67,1.488c1.253,1.993,2.919,2.356,5.1,1.191.893-.479,1.855-1.22,2.82-.977.864,1.235-.689,3.355,1.249,3.616,2.781.378,4.945,2.508,6.215,4.069,3.364,4.139,7.675,6.369,12.185,8.206q.149,13.308-.072,26.752a2.576,2.576,0,0,0-1.356-.35c-3.569-.084-9.192,5.322-9.388,9.043-.124,2.28.711,3.5,3.158,2.766,1.332-.4,2.57-1.292,4.222-1.209-4.9,6.872-11.279,11.853-17.069,17.455a11.742,11.742,0,0,1-3.525,2.073c-2.19.936-4.7,2.178-6.009,3.7-4.105,4.759-10.208,6.2-14.372,11.33-3.721,4.585-8.742,8.618-13.613,12.383-.9.693-2.164,1.6-1.246,2.806.937,1.223,2.291.487,3.235-.457,2.893-2.89,6.121-2.727,9.435-1.812.839.232,1.227-.178,1.648-.788,2.639-3.819,3.05-3.888,6.059-1.027-1-3.957,1.082-5.8,4.2-6.919a5.134,5.134,0,0,0,2.287-1.438c.523-.6,1.085-1.437,1.924-1.209.947.255.613,1.329.711,2.066.371,2.8-.834,5.231-2.261,7.529-2.777,4.465-5.99,8.694-8.444,13.338-4.545,8.607-10.375,15.82-18.783,20.652a10.779,10.779,0,0,0-4.749,5.856c-.675,1.8-.5,2.908,1.674,2.167,5.776-1.971,11.192-4.421,13.022-11.373a3.833,3.833,0,0,1,.813-1.54c4.854-5.314,8.553-11.479,12.459-17.461,4.777-7.319,10.3-14.434,12.982-22.653,2.338-7.174,7.217-11.955,11.461-17.429,1.8-2.32,5.55-2.509,8.3-.828-.918.374-1.761.65-2.541,1.06a13.842,13.842,0,0,0-2.295,1.474,3.817,3.817,0,0,0-.6,5.747,42.411,42.411,0,0,1,7.95,12.786c.16.43.329.846.509,1.251.235,3.163.47,6.305.624,9.423a102.721,102.721,0,0,1-15.276,9c-2.327,1.169-4.854,2.091-6.411,4.646,7.137-4.151,15.164-6.358,21.777-11.514.1,2.717.12,5.416,0,8.091-.2,4.48-.566,8.745-.352,13.127-1.906.418-2.091-.9-3.093-1.387-.08,3.885-4.854,5.457-6.571,2.066.312,1.321,1.8,1.449,1.387,3.467a3.323,3.323,0,0,1-3.115-.352c-.81,1.038,1.263,1.855.341,3.1-2.719.381-2.585,3.63-5.169,4.149.82,2.77-.207,3.95-2.07,4.839.011,1.017,1.619.44,2.07,1.017-1.972,2.349-1.053,5.623-2.752,7.613,2.41.878,4.614,3.154,3.783,6.207,2.751-.871,5.71,3.845,3.125,6.226,1.1-.1,1.6-2.254,3.093-2.418,2.647-.294,4.03,4.426,7.254,2.418.41.537,1.012,2.636,1.717,1.728.3,17.556,1.913,34.139,1.045,53.18-.617,13.566-.936,27.521-.345,41.1.294,6.626.628,13.3.345,20.018-.987,23.335,3.736,48.435-.693,69.407-1.445,6.843-6.988,18.79,1.735,20.38a6.822,6.822,0,0,0,8.277-5.877c.312-3.122-1.71-8.361-2.752-13.116a139.894,139.894,0,0,1-2.773-35.232c1.369-31.053,2.131-69.1.693-100.835-.751-16.728,2-32.8,1.376-49.709,1.093-1.55,5.518-4.857,8.647-6.574,1.9-.051,1.866,1.822,3.446,2.076-.273-1.706-3.25-1.677-2.066-3.808-1.165-1.209,1.608-1.852,2.066-2.741.305-.563-.476-1.9-.342-2.428.334-1.329,2.618-2.284,1.035-3.457.744-.777,1.183.283,2.421,0,.294-1.445-1.542-.758-2.069-1.386.138-1.754-.04-3.18-1.045-3.787a2.993,2.993,0,0,1,2.766-1.728c-1.234-.838-2.854-1.285-3.8-2.428.926-2.556-3.495-3.845-.344-4.48-4.7.247-3.961-4.912-.349-6.208-2.639,0-2.686,2.6-4.832,3.1-.733-1.325-3.659-2.636-1.728-4.5-.566-.646-2.359,2.225-3.1,1.394a223.516,223.516,0,0,1-.755-26.816c1.005-.044,2.026.464,3.086,1.869a1.748,1.748,0,0,0,1.136.519c5.188.563,10.376,1.089,15.56,1.634,1.644.174,3.557.221,4.625,1.386,2.446,2.669,4.9,1.293,7.5.233,2.4-.98,4.374-3.049,7.373-3.685-2.512,5.874-6.124,10.72-7.921,16.474a52.663,52.663,0,0,0,6.164-9.87c2.562-5.984,6.572-10.487,10.995-14.557a5.768,5.768,0,0,0,4.521-1.878c.007.527,0,1.057.011,1.586.076-.653.17-1.288.3-1.894.233-1.086,1.3-2.215,1.739-3.517,1.95-1.654,3.887-3.319,5.729-5.076a15.247,15.247,0,0,1,5.336-3.307c4.447-1.579,8.575-3.489,12.26-7.069,5.122-4.969,12.041-3.528,13.671,2.073,2.687-1.59,2.839-1.561,4.68.828,2.163,2.81,3.256,6.248,4.81,9.417.621,1.26.911,3.423,3.1,2.41,1.724-.8,1.989-2.265,1.826-4.262-.491-5.993-.222-11.99,2.493-17.65.843-1.764,1.968-3.8,3.979-3.489,4.549.715,7.667,3.3,8.706,8.314a38.313,38.313,0,0,0,3.568,10.368c3.006,5.619,6,11.25,8.005,17.432a20.115,20.115,0,0,0,2.091,4.121c.7,1.158,1.626,2.163,3.187,1.539,1.369-.552,1.583-1.84,1.623-3.122a15,15,0,0,0-1.143-6.585c-1.75-4.008-4.342-7.766-3.064-12.728a2.4,2.4,0,0,0-.421-1.587c-2.367-3.83-2.956-8.52-5.163-12.448a18.23,18.23,0,0,1-2.309-7.609c-.054-.766-.054-2.163.2-2.251,3.652-1.245,2.523-4.247,2.671-6.8.062-1.059.6-2.051,1.6-1.078,1.681,1.638,4.2,2.5,4.915,5.028.763,2.694,3.478,2.291,4.455,1.808,1.615-.8,4.214-1.426,4.508-3.757.389-3.068.088-6.233-3.031-7.754a2.876,2.876,0,0,1-1.692-3.2,3.576,3.576,0,0,1,2.251-3.121,4.811,4.811,0,0,1,4.062.286,17.517,17.517,0,0,1,4.342,3.286c1.358,1.249,3.464,1.662,4.763.755,1.587-1.1.468-3.032-.163-4.553a6.7,6.7,0,0,0-2.487-3.292,1.726,1.726,0,0,1-.653-2.07,1.217,1.217,0,0,1,1.6-.8,18.772,18.772,0,0,0,5.04.981c-.313,11.477-1.3,23.057-1.3,34.393,0,42.39,1.837,85.812,1.837,128.54,0,29.714-.7,58.561-.439,86.445-20.16,8.447-26.247,44.216-8.713,58.545,3.035,2.465,6.875,2.962,9.624,5.932.693,67.483-.922,138.3.468,208.131.388,19.919,1.452,38.071-4.135,53.507-2.686,1.43-6.131,2.116-7.772,4.574,2.4.127,4.911-2.069,6.85-.9.338,3.826-3.431,8.28-2.287,13.715,1.891,9.036,15.966,8.31,18.315,1.833,2.247-6.1-2.494-16.053-4.117-21.948-4.342-15.865-3.659-32.23-3.648-52.589,0-65.591.675-141.58.439-205.843,24.41,3.394,47.146-9.552,47.636-32.47.44-20.558-19.211-41.276-46.714-34.335-1.441-52.926.446-112.557.446-166.931,0-9.253-.417-18.391,0-27.445.811-16.891.979-34.292.974-51.878a9.6,9.6,0,0,1,2.569,1.548c.476.4.933.527,1.394.029,2.433-2.625,3.671-.875,4.854,1.238a34.083,34.083,0,0,0,2.048,3.315c1.524,2.1,3.725,1.833,4.784-.647.658-1.531,1.238-3.2.378-4.846-1-1.9.011-2.222,1.474-1.931a11.181,11.181,0,0,1,2.625,1.092c2.983,1.488,5.794,3.447,8.933,4.478-5.009.491-9.7,4.834-12.2,7.876a8.469,8.469,0,0,0,10.008,8.455c2.454-.414,6.215-3.554,8.136-5,2.287-1.754,6.451-4.792,6.571-6.891.078-1.518-1.208-3.108-2.892-4a2.453,2.453,0,0,0,.768-.981c1-2.117-1.071-2.923-1.931-4.11-.788-1.1-2.186-1.673-3.22-2.6-.559-.5-1.54-.893-1.093-2.065,6.49.83,11.09,5.288,16.013,8.9.078,30.082.16,60.3.16,91.716,0,5.242.054,11.359.319,17.215s.81,13.25-.319,17.2c-.32,1.147-1.43,1.822-2.178,2.8-.44.592-.124,1.344-.628,1.892-.676.733-2.092-.3-1.253,1.245a11.321,11.321,0,0,0,1.253,4.059c.588,1.085,2.9.442,2.806,2.192-1.961,2.661-7.2,4-7.5,8.76-.2,3.2,1.673,4.937,3.132,6.571,1.485,1.67,4.157,3.031,4.687,4.694.864,2.661-.319,9.141-.319,14.075,0,14.2.319,28.537.319,42.862,0,7.359.163,14.558.323,21.5.037-26.348.182-53.564-.007-79.078,10.644,5.547,15.345-11.922,7.82-16.565-2.549-1.572-5.751-.258-7.5-3.133,3.642-1.517,8.227-4.868,6.252-9.693-.962-2.345-4.041-2.141-6.252-2.824q-.063-62.076.058-124.658c.073.051.145.1.218.154,7.138,4.879,14.54,9.486,20.853,15.61a1.372,1.372,0,0,0,.911.167c3.59-.134,6.015,2.2,8.4,4.415a5.735,5.735,0,0,0,3.848,1.695c.051-1.227-.751-1.685-1.412-2.138-3.634-2.505-7.3-4.956-9.522-9.094-.2-.381-.465-.929-.788-1-3.351-.7-5.387-3.841-8.193-5.057-5.639-2.447-9.378-7.488-14.3-10.86q.078-42.57.215-85.222a38.913,38.913,0,0,1,3.921,5.507c3.042,5.089-2.446,28.537,18.235,27.151-5.943-27.086-21.48-25.416-11.207-39.981,3.143-4.5,35.061-2.529,58.8-3.746-.032,19.648-.076,39.308-.081,58.727,0,10.833.683,21.723.752,32.505-.011-13.377.816-26.911.816-40.321,0-16.776-.1-33.834-.168-50.982,6.934-.4,13.093-1.087,17.514-2.325,8.963-2.487,9.45-9.413,18.162-10.608,7.193-1,13.738.549,20.158,2.211-.005,18.173.053,36.343.3,54.483-.922,1.169-2.712,1.471-3.133,3.14.211,1.663,1.982,1.758,3.133,2.494-.105,47.695.04,94.489,0,142.645-7.061,1.053-13.3,5.169-14.078,12.818-.9,8.728,4.244,16.613,14.078,16.587v118.256c0,3.09.077,6.219.167,9.359.084-3.238.145-6.473.145-9.681V1970.036c10.572-.911,21.633-6.854,19.7-17.512-1.34-7.457-9.152-12.96-19.7-11.893V1798.313c3.442-.719,4.055-5.02,0-5.641.176-18.3.2-36.465.19-54.6,5.787,1.5,11.489,3.014,17.49,2.727-.6.025.613-1.417,2.658-3.172a15.346,15.346,0,0,0,4.686,4.675c4.247-2.174,6.76.832,9.388,2.825-.969,29.6,1.724,62.861.316,95.088-.432,9.743.613,20.7-.944,29.4-1.518,8.487-6.488,17.973-5.936,25.031.665,8.581,14.895,9.406,15.64.305.294-3.58-1.779-8.557-2.825-12.51-1.1-4.172-2.058-8.459-2.81-12.518-1.67-9.035-.21-19.2-.613-29.086-.763-17.733-1.438-35.017-.323-52.239,2.345,2.617,7.235.407,8.44-1.866,1.507-6.556-5.707-7.675-8.117-5.021-.614-10.509.722-21.306.305-30.657-.091-1.884-.733-3.779-.305-5.627.548-2.527,3.485-4.752,4.051-7.817.394-2.141.472-4.283.744-6.221,11.945,1.1,25.894,5.577,28.828,10.3,1.543,2.589-7.609,12.7-6.992,12.823,11.479,2.2,18.809.138,24.472-7.04,2.552-3.23-4.541-10.085,2.113-11.417-1.939.4,17.084,7.893,23.76,9.363.342.076.682.162,1.021.25-1.677,6.761-7.906,20.576,1.139,21.034,8.546.436,5.594-10.47,4.07-16.579-.255-1.01-.531-2.014-.8-3.016,2.8,1.074,5.426,2.331,7.813,3.339.046,1.659.1,3.324.176,5,1.227,27.063-1.6,53.956.948,80.7.831,8.741-.037,18.873-.313,28.791-.254,9.232.131,18.576.621,27.514.439,8.154-.294,16.26-.621,23.466-.384,8.433.516,18.246-1.256,25.957-.733,3.234-1.771,7.035-2.82,10.952-1.079,4.11-2.567,8.746-2.182,11.261.991,6.64,13.33,8.8,14.706.941.661-3.848-1.412-9.49-2.5-13.766a128.219,128.219,0,0,1-2.813-13.127c-1.3-8.985-.821-21.706-1.253-30.97-.421-9,.32-18.732.948-28.476.577-9.294-.327-18.743-.327-28.149,0-9.367.479-18.852.94-28.461,1.017-21.488-.606-41.273.312-61.636.128-2.79.2-5.579.247-8.366,4.1.831,6.939-.775,7.842-8.678.357-3.332-3.253-6.676-7.988-9.576-.427-15.722-1.416-31.308-1.353-46.573,22.878-1.245,41.157-12.554,46.918-32.854C1873.7,1647.214,1873.039,1640.425,1870.088,1632.515Zm-469.413,255.074a89.746,89.746,0,0,1-1.782-10.718,4.163,4.163,0,0,0,2.121-.182A78.829,78.829,0,0,1,1400.675,1887.589ZM1370.09,1643.2c.871,2.613,3.59,4.733,1.271,7.99-.116.167.414.726.526,1.14a6.65,6.65,0,0,1-.043,4.243,24.987,24.987,0,0,0-3.286-4.509,4.89,4.89,0,0,1-1.147-4.6c.944-2.847-.29-4.858-2.247-6.219-2.249-1.57-4.739-1.251-6.93.589-.917-4.372-2.26-8.837-2.284-13.72-.036-9.381,1.042-20.678.625-30.04-.362-7.946-.177-15.72.006-23.532,6.533.4,13.842,4.358,17.68.374-5.267-1.292-10.513-2.6-12.775-6.912-.791,1.042,1.336,2.1.694,4.146a9.237,9.237,0,0,1-5.547-.018q.058-2.609.1-5.229a4.847,4.847,0,0,1,1.3.063,5.8,5.8,0,0,0-1.266-2.948c.039-4.34.01-8.716-.193-13.171-.305-6.658,2.682-12.194-.305-17.2v-3.277q.841.03,1.628.113c.183.431.349.881.553,1.291a5.767,5.767,0,0,0,3.425-.428c4.523,1.584,7.268,4.95,8.933,9.391.33,1.895-3.162,2.763-2.755,5.867a8.846,8.846,0,0,0-4.84,7.594c2.244,2.226,4.8.088,7.243.36,1.267.116,1.641.987,3.122,1.717,1.143.566,2.791.588,3.445,1.024a5.009,5.009,0,0,1,1.3,1.418c-.015,2.269-.063,4.545-.164,6.826-.129,2.95-.189,5.917-.225,8.891a27.42,27.42,0,0,1-5.058,3.256c-.287,3.5,3.292,5.624,5.052,8.061q.036,3.618.088,7.251a4.931,4.931,0,0,1-1.683,2.632c-3.747-2.479-7.359,2.24-11.047,2.774-3.086.432-7.773-1.354-7.25,3.452,5.627,2.168,12.568-2.359,19.683-2.073.125.113.253.223.38.334q.029,3.284.028,6.573c-2.531,2.208-4.044,5.435-8.354,5.876,4.363,5.006-3.805,8.959-2.77,13.116.41,1.582,1.815.856,3.115,2.073,1.143,1.06,2,4.864,4.145,5.18a22.018,22.018,0,0,1,.514,3.792q-.49.163-.971.346C1371.078,1638.1,1369.266,1640.73,1370.09,1643.2Zm-21.065,224.208c.769-.27,1.548-.523,2.344-.74a6.636,6.636,0,0,1,2.28-.323c1.67.16,3.485.549,3.953,2.378.417,1.627-1.122,2.69-2.258,3.561a30.222,30.222,0,0,1-6.311,3.643c0-.423.009-.845.009-1.268C1349.042,1872.277,1349.032,1869.85,1349.025,1867.411Zm2.024-12.614a14.025,14.025,0,0,1-2,1.583c.063-5.825.239-11.567.7-16.939a58.309,58.309,0,0,0,.122-6.923c4.044,1.8,7.843,4.042,11.774,6.037,1.6.806,1.823,1.626.647,3.387A73.248,73.248,0,0,1,1351.049,1854.8Zm-41.708-261.925-1.057.157c-.241-.977-.453-1.984-.644-3.011A5.486,5.486,0,0,1,1309.341,1592.872Zm41.444,78.384q-.075-.965-.141-1.927A4.425,4.425,0,0,1,1350.785,1671.256Zm.6-28.381c.184-4.066.266-8.134.077-12.35-.2-4.548-.664-9.554-.686-14.513a274.217,274.217,0,0,1,3.46-41.44c.224-.023.451-.039.679-.049-.087,8.542-.192,17.405-.222,26.372-.036,11.156,1.714,26.276-.621,36.927-.363,1.646-.906,3.473-1.321,5.186C1352.3,1642.952,1351.843,1642.909,1351.386,1642.875Zm2.5-71.418a8.688,8.688,0,0,1,1.1-3.629q-.016,1.925-.035,3.874C1354.6,1571.617,1354.247,1571.533,1353.881,1571.457Zm-.686-8.967a112.472,112.472,0,0,1-.187-13.1,21.336,21.336,0,0,0,2.006-1.05c.038,4.672.031,9.561,0,14.607A11.727,11.727,0,0,0,1353.2,1562.49Zm1.819-30.414a8.979,8.979,0,0,0-1.158-.862c.007-.28.02-.552.025-.833.389-.021.759-.021,1.133-.026Zm24.438,69.27a5.4,5.4,0,0,1,1.721,3.608,7.46,7.46,0,0,0-1.655.722Q1379.465,1603.5,1379.452,1601.346Zm-4.272,60.545c-.472-.65-1.26-1.136-.026-2.1a9.161,9.161,0,0,0,2.589-2.82q.03,3.2.038,6.4C1376.169,1662.853,1375.625,1662.5,1375.18,1661.891Zm5.115.845a13.045,13.045,0,0,0,.33,1.486l-.326-.093C1380.3,1663.665,1380.3,1663.2,1380.3,1662.736Zm18.068,7.422c-.015-.434-.037-.875-.05-1.306.864.578,1.45,1.726,2.351.51.014-.018.021-.036.034-.054q0,1.926,0,3.855C1399.855,1672.079,1399.1,1671.108,1398.363,1670.158Zm3.249,1.761c.011.816.322,1.792.4,2.936l-.41-.526Q1401.61,1673.125,1401.612,1671.919Zm1.452-2a1.976,1.976,0,0,0-1.452,1.958q.007-2.418.018-4.834c.24.282.488.564.73.853C1402.85,1668.476,1404.153,1669.438,1403.064,1669.918Zm-3.8-11.9a8.275,8.275,0,0,1,1.412,1.61l.006,1.8a3.8,3.8,0,0,0,.014,4.408c0,.75,0,1.5,0,2.252-.347-.587-1.058-1.137-1.394-1.717a.709.709,0,0,0-.2-.25c-.843-.551-.708-1.917-.91-2.8q-.033-2.529-.029-5.019C1398.532,1658.2,1398.9,1658.111,1399.264,1658.018Zm-4.79,7.05a.722.722,0,0,0-.275-.164c-4.222-1.114-6.462-4.636-9.247-7.511-.548-.563-.864-.835-2-.156a5.009,5.009,0,0,0-2.663,3.407q-.015-4.17-.043-8.334c2.1.585,2.4,3.124,4.721,3.754,2.138.585,2.549-.66,5.514-1.031a19.241,19.241,0,0,0,3.887,3.08Q1394.418,1661.587,1394.474,1665.068Zm-13.3-102.578c1.018,4.116.454,7.055-.938,9.3a104.02,104.02,0,0,1-.792-11.187A4.828,4.828,0,0,0,1381.173,1562.49Zm21.023,94.039a.984.984,0,0,1-.522.267v-.088c.247-.154.5-.305.753-.449A1.318,1.318,0,0,1,1402.2,1656.529Zm5.562-3.917a13.369,13.369,0,0,0,1.6.373c-.886.165-1.371.009-1.6-.369Zm-124.7-164.321c-.487,1.122-2.378,4.93,0,6.567,7.219.008,9.918,5.962,9.107,13.09-.6,1.152-1.152,2.349-1.822,3.428-1.346-2.672-.588-7.464-1.031-11.043-.766,3.725-.784,8.193-1.049,12.423-10.035,2.134-10.877-4.946-14.653-9.091-.19-7-.4-13.986-.568-21.015C1276.817,1483.728,1280.764,1484.984,1283.062,1488.291Zm-64.137,35.018c-.283-1.514,1.311-1.18,1.249-2.487.291-1.96-1.637-1.713-1.249-3.761,1.028-1.154,2.687-1.691,3.758-2.817,2.234.009,4.5.055,6.645-.027-.6,4.72,3.362,9.131,6.794,10.62.254,3.707,1.249,7.994.352,11.762-5.046-.344-13.439-1.641-14.844,2.749.2,2.217,2.741,2.1,3.445,3.808-.508,2.553,1.158,3.658,2.269,4.833-3.543-2.517-7.059-6.516-7.794-8.714C1217.88,1534.3,1219.782,1528.159,1218.925,1523.309Zm-26.276,79.779c3.439,1.09,5.209,5.81,5.737,10.974-9.475-.876-15.444-2.367-18.936-4.385a36,36,0,0,1,10.43,2.192,5.475,5.475,0,0,0,.257-.649C1190.907,1608.428,1189.8,1604.743,1192.649,1603.088Zm-17.212,1.735c2.029-4.587,5.266-8.037,9.7-6.429-.991,2.879-2.3,6.258-4.687,8.767a26.445,26.445,0,0,1-2.156,1.768A6.825,6.825,0,0,1,1175.437,1604.823Zm49.747,43.625c-1.43.167-1.953-.548-3.445-.309-.933.886.784.534.635,1.565-1,.567-3.2-.08-3.129,1.554-1.151-7.475-1.118-16.823-.639-25.016,8.063,2.265,8.506,12.136,11.265,19.694A5.167,5.167,0,0,0,1225.184,1648.448Zm96.805,26.388c-3.02-.874-5.478,1.2-8.212,1.8-.61.134-1.583.74-1.742.058-.639-2.734-1.26-1.765-2.411-.178-.606.831-1.082.421-1.329-.719-.45-2.069-.486-3.6,1.87-4.574a13.33,13.33,0,0,0,2.839-2.236c.559.936-.327,1.622-.16,2.381a1.647,1.647,0,0,0,1.293,1.3c.755.167.8-.577,1.005-1.056.5-1.129,1.028-2.244,1.467-3.394s1.093-1.594,2.276-1.133c1.107.428,2.759-.043,2.912,1.877.032.417.308.853-.215,1.162-2.4,1.419-1.535,2.011.49,2.189.857.076,1.111.562,1.115,1.277C1323.19,1674.365,1322.719,1675.047,1321.989,1674.836Zm3.347-29.4c-.835.1-2.36.138-2.436-.141-1.107-4.179-2.632-.6-3.311.112-2.218,2.324-2.523,6.233-6.084,7.548a1.5,1.5,0,0,0-.327,1.158c2.338,1.757.578,3.648.04,5.5-.17.581-.82,1.38.109,1.685.911.3,1.492-.44,1.5-1.3.011-.824-.123-1.739.926-1.757,1.136-.015,1.572.966,1.786,2,.454,2.207-.882,4.309-2.414,4.664-3.761.875-5.307,4.048-7.805,6.274-1.59,1.419-2.6,2.664-1.775,4.679.726,1.79.152,1.892-1.561,1.953-4.182.153-5.9-3.423-9.769-5.362,2.094-.591,3.873-.733,3.855-2.312-.04-3.26,2.276-4.556,4.425-6.085.806-.577,1.58-1.194.977-2.61-3.289,2.353-6.455,4.571-9.566,6.88-.6.443-1.412,1.3-1.35,1.837.294,2.574-1.184,2.4-2.759,2.083-4.56-.907-8.121.948-11.16,4.418-.584.668-.831,2.175-2.2,1.394-1.017-.584-2.353-1.176-2.752-2.134-.588-1.409,1.292-1.471,2.029-2.167,1.307-1.231,3.736-2.084.952-4.1a.635.635,0,0,1-.077-.617c2.284-3.06,1.914-5.816-.53-8.361-.05-.054,0-.218.015-.326.359-1.972.181-3.543-2.222-3.885-.23-.033-.453-.041-.679-.062.046-1.724.1-3.44.175-5.14a237.972,237.972,0,0,0,0-24.087c3.434-1.717,9.072-1.815,10.956.635,1.071,1.369.777,4.793,1.248,6.248a19.127,19.127,0,0,0,3,5.354c-.063,2.019-.151,4.013-.285,5.962-4.9-.607-11.827-1.293-11.388,4.479.857,1.464,3.26,1.344,4.839,2.081,1.779.642,2.4-2.589,5.173-2.081-1.971,2.208.1,9.243,3.8,6.215,2.842-2.308-.654-8.93-1.035-12.774-.086-.888-.155-1.8-.211-2.726,1.833,2.33,3.727,4.487,4.564,6.639,3.695-9.337-9.682-18.547-1.256-25.975a3.885,3.885,0,0,1,2.82-.617c-2.871-5.369,2.008-8.339,4.7-10.956-2.48-3.518-4.512-6.168-3.452-10.644.842-3.536,5.605-6.081,2.512-10.938a7,7,0,0,0,.5-1.14,6.892,6.892,0,0,0,1.918-.621c.249.2.513.376.783.55-.414,2.84-.917,5.575-1.522,8.188-2.167,1.239-3.558,3.254-3.407,6.807a4.393,4.393,0,0,0,1.79.428c-.379,3.195.152,6.17,3.688,7.054,3.985,1.007,7.242-2.479,8.357-5.462a23.536,23.536,0,0,0,1.7,2.805c3.136-2,3.67-5.29,2.766-10.005,2.708,1.016,4.846-.694,7.943-1.046,1.913,1.086,1.753,4.237,4.139,4.843,2.439-.323,1.328-4.218,3.8-4.491,1.249-.9,1.931,1.126,3.445,1.035-.018,2.051-1.862,2.265-3.1,3.115a22.63,22.63,0,0,1-1.728,7.6c1.623,1.642,2.982,3.927,5.592,5.147q.123,9.462.249,18.979c-.911-4.182-9.166-5.554-9.7-.929-.53,4.69,6.774,6.977,9.392,3.441.243,3.834.345,7.605.382,11.364A29.257,29.257,0,0,0,1325.336,1645.431Zm12.013,230.933c-.443-1.419,1.2-1.728,1.9-2.541.418-.484.851-.938,1.3-1.368-.058,1.833-.131,3.68-.2,5.521h-.007C1339.088,1877.911,1337.748,1877.646,1337.349,1876.364Zm2.428,12.612c.068-.1.146-.192.216-.29-.007,1.3,0,2.593.037,3.887C1339.326,1891.392,1338.936,1890.22,1339.777,1888.976Zm51.521,17.207c-3.383,2.933-6.908,4.226-10.931,2.011-.708-.391-1.637-.983-2.446-.2-.97.94-.077,1.891.094,2.846.2,1.1,1.906,2.033.635,3.2-1.219,1.122-2.447-.145-3.619-.617-2.549-1.02-4-2.363-1.147-5,.457-.424.8-.9.12-1.35-.367-.243-.97-.4-1.177.08-2.221,5.206-6.447,3.365-10.517,3.775.886-1.949,2.832-3.895.451-4.984-1.983-.9-3.8.406-4.694,2.716-.334.871-.683,1.114-1.383.181-2.219-2.949-4.42-5.124-8.474-5.562.279-7.656.64-15.31.774-22.949a52.758,52.758,0,0,1,21.84-10.729,33.107,33.107,0,0,1,11.482-.914,23.511,23.511,0,0,0,6.15.225,4.3,4.3,0,0,1,4.588,3.851c.006,2.3,1.093,2.8,2.3,3.127.011.043.016.091.028.133-1.5,1.532-1.612,4.447-2.5,6.586.221,1.858,3.3.856,2.81,3.419-.538,1.453-2.672,1.3-4.375,1.565-.57,2.955-2.3,5.111-.621,7.816-1.448.548-2.21,1.009-2.508,2.2-.828,3.362,1.535,6.086,4.551,7.359C1392.246,1905.372,1391.77,1905.774,1391.3,1906.183Zm45.077-43.578c-.457,3.38-1.354,7.021-4,9.475a33.681,33.681,0,0,0-4.073,3.939c-.672.864-1.3,2.745-3.028,1.369-.33-.265-.9.181-1,.654-.868,4.338-4.737,5.173-7.62,7.093-1.96,1.307-4.138,2.247-6.208,3.38-1.826,1-4.545.584-4.207,4.516.124,1.44-1.578,2.371-3.164,3.345-.446-2.223-1.466-4.521-1.77-7.219a82.918,82.918,0,0,1-.017-12.583,4.885,4.885,0,0,0,1.807-1.571,5.192,5.192,0,0,1,3.245-2.295,1.468,1.468,0,0,0,1.278-1.415c-.6-5.141,3.409-4.978,6.3-6.048,5.228-1.942,10.052-5.13,15.541-6.175C1433.217,1858.351,1436.731,1860,1436.375,1862.605Zm.842-202.152c-1.713-.21-2.069.3-1.324,2.008a3.758,3.758,0,0,1-1.819,4.7c-1.895,1.042-1.536-1.419-2.153-2.316-.806-1.173-1.347-2.686-2.469-.174-.693,1.546-1.677,1.143-2.523.243a29.132,29.132,0,0,1-1.978-2.527,13.279,13.279,0,0,0-3.736-3.141,10.924,10.924,0,0,0,4.5-5.252c-1.049-2.193-2.516-6.9-6.9-6.9.418-2.919,2.142-4.527,4.146-5.888-1.55-2.157.828-2.887,1.728-4.477-1.924-3.8-1.953-7.4.683-10.364-1.347-1.75-1.311-4.89-1.717-7.606-1.776-1.677-3.849-3.045-3.1-7.231a13.993,13.993,0,0,1,9.66-2.077c.686-1.049.548-2.9,1.035-4.149,1.641-.243,2.374.392,3.8.341,1.259-4.712,2.7-7.827,6.912-10.016.7-2.457-2.258-3.528-2.411-6.2-.247-3.721,3.511-5.133,4.821-8.3.9-1.51-.116-3.666-.33-5.169a6.969,6.969,0,0,0,2.058-2.081c2.977.9,5.083.618,6.568,2.763.936-1.554-1.307-1.266-1.384-2.763-.275-1.774,1.667-1.549.679-3.1a11.964,11.964,0,0,1-5.863-2.092c-1.161.519-.414,1.631-.33,2.77-5.489-1.971-.693-8.509-1.049-13.457,1.869.4,4.53,1.173,5.525,1.376.178-2.5-.857-5.406,1.387-6.208,2.81-1.017,6.1,6.908,8.629,8.288.846-1.1-.744-1.819-1.387-2.774-1.659-2.457-3.572-5.111-5.855-6.218.272-3.053.272-6.4,3.452-6.556.236-2.908.414-4.633,1.721-5.856a6.5,6.5,0,0,1-1.387-6.578c4.022-.334,4.752-4.077,8.636-2.748-1.314-2.131-4.418-.433-5.866-2.436-4.313-5.922,8.589-8.234,13.116-5.181-.955-1.22-2.142-2.225-3.111-3.441-2.156,1.169-2.607,1.169-5.173,1.372-2.7-1.187-3.4-2.81-4.832-6.2-1.209-2.853-2.614-3.645-1.383-7.947,3.085-.207,2.635,3.115,4.49,4.139,4.331,1.695,9.991.058,14.5-1.728v10.023c.12,1.387-1.794.74-2.418,1.387.566,1.151,1.786.624,2.418,1.023V1551.1c-.505,1.67-1.325-1.757-2.418-1.725-1.329-.4-1.8-1.659-2.752-2.421-4.109-.846-5.311-4.607-9.33-5.525.167,1.455,2.411,3.793,5.181,3.793,1.452,4.19,6.89,4.4,9.319,7.606-.135,2.247-3,6.861,0,7.935,3.318-.577.628-5.115.355-7.249-.166-.744.483-.668,1.032-.686-.03-.9-1.485-.382-1.032-1.728v-29.714a7.643,7.643,0,0,1,3.1-.675c-1.053-.922-1.59-.236-3.1-.694V1509.3c5.773,0,12.024,1.307,10.35,7.6.93-.2,2.248.872,1.732,3.115-.352,1.267-2.138,1.082-3.8,1.024.867,1.328,1.724,2.646,3.8,2.774,3.9-1.631.214-9.254,3.1-11.4,1.463-.744,2.2.926,3.809,1.035,5.093-2.606,6.97-10.687,13.813-8.97,2.036.508,2.308,2.792,4.145,3.793,4.705,2.607,10.035.8,13.469-1.383.272,9.261-.665,16.932-.7,24.174-2.643,1.837-6.52-.791-10.365-1.376-5.013-.78-11.185-.145-14.151-2.421-4.45,3.768.135,9.351,3.805,11.058a4.551,4.551,0,0,1-.191.769,83.149,83.149,0,0,0-8.751,4.015,6.212,6.212,0,0,0-2.368,2.7c-1.689-.632-3.276-1.13-4.932-.252-.777.483-.113,2.418-.338,3.452a13.418,13.418,0,0,0,3.413,1.481c-.542,1.6-1.113,3.309-1.83,5a3.432,3.432,0,0,0-2.276,2.842,7.584,7.584,0,0,0,.371.831,16.6,16.6,0,0,1-2.553,3.173c-8.324,7.95-14.361,5.6-17.61,9.907,2.12-1.869,3.583,7.144,2.254,10.713a10.7,10.7,0,0,1-1.659,2.825c-1.926-2.241-3.259-5.075-6.357-6.72a2.82,2.82,0,0,0-.682,2.065c-.7-.446-.781-1.532-1.035-2.4-1.042.214-.236,2.305-1.386,2.4,1.223,1.322,2.7,2.367,3.448,4.153.828-.715.85-2.17-.345-2.421,1.093-.853,2.556,2.349,2.073,3.111-.588.926-3.459.947-4.49.341-.712,1.689-2.821.857-4.139,1.387a9.183,9.183,0,0,0-4.138,3.445,51.715,51.715,0,0,0-5.878,3.453c-.613.483-.889,1.455-1.372,1.742-1.826,1.02-3.692.824-4.854,3.1-.468.937.04,2.052-.341,3.094a30.193,30.193,0,0,0-2.058,3.114c-.977,2.861-1.013,5.9-1.739,7.613-1.129,2.675-5.525,6.393,0,7.932-.392,4.5,4.9,6.1,6.556,9.664-.145,1.775-1.557-1.67-2.418-.331-1.423,2.36,2.48,3.551,2.08,4.829-1.455,1.786-3.463-1.006-4.149,1.034,1.677,2.462,6.219,2.022,5.874,6.9-2.723.813-5.787-.407-7.591,2.421a13.376,13.376,0,0,0-3.532-.821c-.1-.024-.193-.052-.294-.076,0,.01,0,.017,0,.026-.34-.052-.681-.105-1.009-.171-.7,2.465-3.184,6.233-1.387,8.985-1.583,2.207-3.478,4.109-4.483,6.912,1.935.439,3.427-2.57,5.184-3.456,3.036.723,5.446.57,7.135-.367.083.175.17.348.252.523C1439.781,1658.969,1440.394,1660.838,1437.217,1660.453Zm14.133,215.762c-.983,3.112-.566,6.15-.889,9.232-.94-.149-1.049-.689-1.089-1.274-.4-5.463-3.533-9.058-7.326-12.2-.643-.533-1.173-1.2-2.225-1.027-1.224.2-1.565-.759-1.859-1.815-.385-1.383,1.869-1.329,1.332-2.749-.1-.268.116-.192.33-.145,1.783.4,3.021-.871,3.144-3.1.029-.5-1.169-1.47.523-1.477.966,0,.94.395.828,1.245-.385,2.86,1.361,4.066,3.55,5.013C1452.182,1869.866,1452.966,1871.1,1451.35,1876.215Zm3.442-214.31c-.835,1.013.247,2.8-1.267,3.642-.291-.222-.7-.363-.766-.61-.763-2.792-3.3-3.518-5.4-3.816-1.884-.272-.574,2.723-1.924,3.616a1.947,1.947,0,0,1-.675.116c-.258-1.045-.2-2.392-.824-3.078-1.9-2.1,2.78-7-2.865-7.341-.013-.109-.052-.2-.074-.308a10.351,10.351,0,0,0,.259-5.641c5.66-.022,8.521,2.751,12.786,4.127.973,3.064,2.966,5.086,3.1,9a4.25,4.25,0,0,0,1.127.793,11.673,11.673,0,0,1-.815,1.98C1456.011,1663.946,1456.415,1661.957,1454.792,1661.905Zm5.369,2.513c-.653-.25-.49-.848-.342-1.389.56.188,1.13.366,1.674.57-.02.024-.034.05-.054.074C1461.087,1664.091,1460.785,1664.657,1460.161,1664.418Zm72.246,161.253c-.421,1.488,1.39,1.732,1.507,3.147-1.845-.417-3.268-.715-3.671-2.98-.279-1.565-1.336-2.937-1.884-4.462-.33-.925-.414-2.011.9-2.439,1.136-.367,1.532.312,1.691,1.307.135.82.5,1.6,1.314,1.633,3.747.178,3.431,3.972,5.907,6.284C1535.427,1827.805,1534.422,1825.856,1532.407,1825.671Zm-1.267-44.63c.011-1.2,1.053-1.257,1.852-1.5,3.216-.992,6.374-1.881,9.721-.56a2.962,2.962,0,0,1,1.786,2.411c.305,1.147-.78,1.017-1.448,1.1-3.336-.632-6.629,1.8-9.958.276C1532.225,1782.366,1531.129,1782.34,1531.14,1781.041Zm19.6,70.176a2.961,2.961,0,0,1,.412-.022,2.453,2.453,0,0,1-.622.741,9.38,9.38,0,0,0-1.179-.617A12.1,12.1,0,0,0,1550.736,1851.217Zm14.187-84.454c0,26.193.06,51.783.126,77.423a19.764,19.764,0,0,0-1.828-.984c-4.084-1.9-7.312-5.932-11.646-6.952-9.214-2.167-17.625-15.857-18.682-23.818-.341-2.553.175-4.222,3.264-3.508,1.035.24,2.861.1,1.91-1.847-1.173-2.4.312-2.607,1.822-3.043,1.031-.3,2.066-.587,3.086-.925,1.307-.432,3.463-.944,3.031-2.342-.639-2.065-2.472-.257-3.79.011-.515.105-1.064.614-1.5.523-1.909-.4-4.5,1.147-5.605-1.463a7.311,7.311,0,0,0-2.247-3c-1.376-1.118-1.921-2,.592-2.668,2.69-.708,5.666-1.8,6.458-4.952.8-3.187,2.265-2.672,4.472-2.171,2.937.668,5.446,2.658,9.355,2.945-3-3.4-6.991-3.126-10.128-5.221,3.917-2.686,8.44-3.684,11.236-7.754-1.51.926-2.857,1.387-4.284.192a8.458,8.458,0,0,0,.991-.918c.69-.875,2.621-1.166,1.968-2.57-.541-1.158-2.109-.421-3.22-.182-5.983,1.3-12.056,2.16-17.938,4.091-.769.251-1.539.327-1.956-.5a2.685,2.685,0,0,1,.374-2.828c.653-.933,1.114-.508,1.749.134.756.763,1.667.759,1.54-.711-.124-1.441.907-1.3,1.622-1.55a28.608,28.608,0,0,0,3.638-2.117c2.726-1.43,1.492-5.173,3.957-6.69.476-.3,1.118-.941.679-1.659-.381-.629-1.147-.389-1.757-.338-2.011.174-4.023.417-6.041.573a3.037,3.037,0,0,1-2.835-1.1c-.392-.515-.033-1.082.385-1.456a2.375,2.375,0,0,1,3.18-.316c2.12,1.322,4.512.763,6.828.508a1.194,1.194,0,0,0,1.206-1.284c-.073-.835-.763-.937-1.435-.883-1.477.124-2.994.472-4.41-.069-.806-.308-2.425-.857-1.659-1.818,1.976-2.474,2.326-6.238,5.394-7.725a31.932,31.932,0,0,1,22.1,10.229Q1564.922,1762.4,1564.923,1766.763ZM1816.3,1622.815a1.734,1.734,0,0,0,.309-1.256,9.13,9.13,0,0,1,3.43.319C1820.353,1624.14,1817.275,1623.461,1816.3,1622.815Zm3.119-16.569c.755,3.921-3.954,4.625-5.315,2.186C1813.3,1604.9,1818.073,1603.948,1819.417,1606.246Zm-13.447-5.957c1.318.414.124,1.978-1.249,1.565C1804.58,1600.783,1805.654,1600.917,1805.97,1600.289Zm-2.813,2.828v1.238a2.1,2.1,0,0,1-1.561.327C1801.512,1603.56,1802.035,1603.041,1803.157,1603.117Zm-3.126,26.269c.65,2.236-.548,5.285-2.2,6.255C1797.159,1633.343,1799.134,1631.153,1800.031,1629.386Zm-9.08-30.662c.8.044.738,1.166.313,1.565C1789.986,1600.456,1790.218,1598.935,1790.951,1598.724Zm0,41.611c-.9,2.051-2.932-.131-3.76-.944C1788.53,1638.392,1790.28,1639.656,1790.951,1640.335Zm-40.354-60.379c.814,1.06.055,3.162-1.248,3.126C1748.419,1581.785,1749.744,1580.5,1750.6,1579.956Zm-2.813-2.806c-.6.972-1.924,1.2-3.137,1.568C1745.17,1577.658,1746.39,1577.313,1747.784,1577.15Zm-4.385,1.248c.955.055.653,1.689-.316,1.558A2.073,2.073,0,0,1,1743.4,1578.4Zm-5.939,11.886c1.147-.363,4.178-.889,4.065.933-1.582.737-2.41,2.123-4.385.947C1736.908,1591.2,1737.467,1591.025,1737.46,1590.284Zm-7.2-3.442c2.149.7.686,3.358-.305,4.375C1728.043,1590.643,1729.375,1587.478,1730.261,1586.842Zm-10.009-8.752c.516.308.494,1.227.94,1.565.28.185.97-.211,1.256,0,2.814,2.156,3.671,4.719,4.375,9.071a15.132,15.132,0,0,1-5.315,8.76c-1.837-1.183-2.247,1.412-4.066,1.238,1.289,3.289,5.544,3.642,9.072,4.694,1.293-.061.962-1.731,2.5-1.564.657-2.68-1.9-6.3.316-7.5-.65,2.312.461,4.727.933,6.868,1.619-.351,1.695-2.261,3.441-2.5.352-1.292-.664-1.212-.628-2.185,2.781-.316.265,1.408,1.253,2.512,1.452-1.158,4.432-.795,4.7-3.129.363.043.265.566.305.936,3.837-.6,4.592,1.885,7.508,2.193a11.647,11.647,0,0,1,3.14,12.5,10.709,10.709,0,0,0-2.821,4.379c-2.392.218-3.318,1.895-5.631,2.2-1.582,4.9-6.89,4.527-8.146,9.377-1.3.374-.544-1.318-1.234-1.561-2.3.385-.832,3.7-1.561,5-.839-1.786.3-2.385,0-4.694-1.416-.138-1.579.947-1.572,2.192-1.242.3-.138-1.749-1.256-1.564-1.075-.247-1.365.3-1.561.936-2.531-2.711-8.593-.087-8.455-5.637-1.166.3-1.431,1.492-2.81,1.571-.672-.972.991-1.778,1.256-2.8-.831-3.314-2.6-5.271-6.887-3.758a7.314,7.314,0,0,1,4.375-1.259c1-1.031-1.2-.625-.937-1.866,2.563.334,2.03-4.487,2.814-6.89a2.5,2.5,0,0,0,2.831-2.494c1.2.159,1.522-.574,2.81-.327-2.051-1.786-3.717-5.3-6.578-5.932-2.16-.5-4.378,1.238-6.563,1.249-.244-1.176.384-1.5.315-2.512-.762-1.318-2.806-1.362-4.069-2.182.838-3.267-1.659-5-1.568-8.444.78-1,2.65-.886,2.817-2.512.065-.991-1.122-.745-1.561-1.238.2-1.129,2.105-.519,2.81-.327.461-.6,1.59-2.131,1.256-2.5-.545-.363,2.548-.08,3.441.316a15.573,15.573,0,0,1,2.81-2.81C1716.618,1578.108,1718.684,1577.142,1720.252,1578.09Zm11.428,89.664q.056-1.431.106-2.862C1733.8,1666.768,1733.354,1667.593,1731.68,1667.754Zm-3.9-.311a40.87,40.87,0,0,1-11.239-3.693c-10.454-6.109-9.038-13.248-4.922-19.486-.241,3.214-.259,6.629-.436,10.457,1.117-3.117.855-7.619,1.178-11.534a57.1,57.1,0,0,1,4.121-4.995c1.8,1.859,1.081,5.98.643,9.022,2.581-2.207.567-9.025,4.382-10,2,.247.091,3.685,1.877,4.694,1.129-.233.425-2.291.621-3.449,2.788.886,2.2-3.961,3.445-5.623.828,1.877-1.144,3.652-1.256,5.623-.3,1.354,1.543.555,1.561,1.575-.387,6.4-.408,12.771-.257,19.132-1.84.067-3.249.516-1.2,1.783.452.281.872.55,1.273.812Q1727.66,1664.6,1727.781,1667.443Zm-36-79.036c-.886.247-.817-.443-1.562-.309,1.4-2.867,4.854-3.695,8.132-4.694C1697.113,1586.022,1693.3,1586.055,1691.784,1588.407Zm14.963,115.98c-2.976-6.153,3.6-28.124,2.8-27.811,1.939-.784,7.236,11.616,9.12,13.591a60.655,60.655,0,0,0,10.37,8.574c.071,6.175-.073,12.346-.582,18.518l-.88-.408a.99.99,0,0,0-.446-.491,9.512,9.512,0,0,0-1.1-.234C1715.9,1711.334,1707.927,1706.813,1706.747,1704.387Zm79.761,20.282c-1.568.382-4.207,10.419-13.305,9.239-6.44-.851-25.753-8.068-41.935-15.365-.54-6.24-.721-12.5-.689-18.788,15.466,9.924,36.332,16.407,40.533,7.74-1.023,2.094-11.083-3.983-15.4-17.193-3.293-10.016,3.1-20.813-2.124-26.4-1.227-1.3-16.765-4.834-21.623-5.15.135-6.022.142-12.055-.137-18.1,5.09.471,8.738,1.394,14.075.628,1.194,3.18,1.793,6.963,3.449,9.689,1.023-3.652-1.075-6.854-1.565-10.02,9.341-1.379,25.078-3.234,25.971-11.882.312-3.136-1.819-4.116-.94-6.258,4.309,1.307,6.549,4.7,8.444,8.462-1.184,1.909-.116,3.986.617,5.6-.436,1.325-1.851-1.351-2.193-2.182-4.135,2.015-4.763,8.876,0,10.644-.236,1.423-1.122,3.528-.305,5.006,2.916,2.439,7.435.562,9.7,3.438,1.539,1.971.326,4.958,2.508,6.886,3.035.538,2.777-2.457,5.319-1.564,3.394,6.1,5.118,11.6,9.387,17.193,1.366,1.815,3.6,3.024,4.059,4.705.741,2.668-.214,6.948-.319,10.625-.294,10.485.319,22.112.319,32.226,0,.948.006,1.916.014,2.894C1802.575,1724.93,1791.085,1723.567,1786.508,1724.669Zm25.361,2.451c-.112-.029-.235-.057-.35-.086.018-15.131,1.624-30.673.394-44.156,1.31-.291,3.129,2.142,5.315,3.122,1.771.806,3.655.867,5.322,1.564.03,14.645-.819,29-1.132,43.7C1818.08,1729.594,1814.642,1728.171,1811.869,1727.12Zm49.158-86.785a5.069,5.069,0,0,1,1.565-3.456C1863.492,1638.222,1862.123,1639.968,1861.027,1640.335Z"/></svg>