<?xml version="1.0" encoding="utf-8"?>
<!-- Generator: Adobe Illustrator 26.0.2, SVG Export Plug-In . SVG Version: 6.00 Build 0)  -->
<svg version="1.1" id="planes" xmlns="http://www.w3.org/2000/svg" xmlns:xlink="http://www.w3.org/1999/xlink" x="0px" y="0px"
	 viewBox="0 0 2916.6 2444.7" style="enable-background:new 0 0 2916.6 2444.7;" xml:space="preserve">
<style type="text/css">
	.st0{fill:#F58235;}
</style>
<path class="st0" d="M1356.3,722.8c-18.1-23-32.1-42.2-50.9-65.3c-0.1,0.2-0.9-0.6-1.9-1.8c-3.1-4.4-8.6-10.6-13.8-17.5
	c-1-1.3-3.7-5.3-3.9-5.3c0.9,1.5,2.9,3.9,2.9,4.4c-4.5-5.4-10.3-12.7-16.4-20.6c-1.2-1.6-3.4-5.1-4.8-6.3c0.6,0.7,1.1,1.4,1.5,2.2
	c-2-2.1-2.7-3.6-5.7-7.2c-4.1-4.5-11.4-14.1-16.6-20.4c-7.5-9.9-18.3-23.2-30.1-38.2c-4.8-6.3-14-18.8-18.6-23.8
	c-0.8-1.4-4.1-5.5-5.5-7.4c-2.6-3-5-6.1-7.2-9.4c0.6,0.2,4.2,5.2,5.2,6c-5.6-7.2-10.1-13-13-16.5c-1.5-1.8-1.8-1.4-3.4-4
	c0.1-0.1,1.5,1.8,1.8,1.9c-3.5-4.4-5.3-6.9-8-10.4c-7.1-8.7-15.2-19-20.8-25.4c-10.3-12.9-18.5-22.9-27.5-34.2l0.4-0.1l9.7,9.5
	c0-0.1,0.3-0.1-1.1-1.8l-7.6-8l3-0.6c0.5-0.1,0.5-0.3,0.1-0.7l-0.5-0.4c-0.5-0.2-1-0.3-1.6-0.3l-2.6,0.1l-0.1-0.1l-8.2-8.7
	c0.4-1,0.3-1.5,0.1-1.7l-0.8-1.1l30.1-15.9c0,0-1.7-3.9-5.8-4.2l-22.6,2.8c-4.5,0.7-6.5,0.5-10.5-1.9l-7.8-4.6l-2.4-3.2l1-0.3
	l-0.4-0.6l-1.1,0.3c-11.4-14.6-22.9-29.1-34.3-43.4c-2.1-2.6-4.4-5.3-7-8l6.6-4.4c-0.1-0.1-0.2-0.2-0.3-0.3l-0.1-0.1
	c-0.1-0.1-0.2-0.1-0.3-0.2l-0.1-0.1c-0.1-0.1-0.3-0.1-0.4-0.2h-0.1c-0.1,0-0.3,0-0.4,0l-7.8,3c-1.6-1.3-5.8-3.4-7.2-3.5h-2.1
	c-0.7-0.2-1.4-0.3-2.1-0.3h-0.1l-0.6-0.1h-1.5c-0.2,0-0.3,0-0.5,0.1c-0.1,0-0.1,0-0.1,0c-0.1,0.1-0.3,0.1-0.4,0.2l-0.1,0.1
	c-0.1,0.1-0.2,0.2-0.3,0.4l-0.1,0.1c-0.2,0.3-0.3,0.7-0.4,1c-0.9,3.1,0.2,7.3,1.7,10.1c0.8,1.4,1.8,2.7,2.9,3.9
	c0.3,0.3,3.2,4.1,3.2,4.2c0,0,0,0,0,0.1l-0.2,0.3v0.1c-0.1,0.2-0.1,0.3-0.2,0.5v0.2c0,0.1-0.1,0.3-0.1,0.4c0,0.1,0,0.1,0,0.2v1.1
	c0,0.1,0.1,0.3,0.1,0.4c0,0.1,0,0.1,0,0.2c0,0.1,0.1,0.3,0.2,0.4l0.1,0.2c0.1,0.2,0.2,0.4,0.3,0.6c0.9,1.5,1.9,2.9,2.9,4.4
	s2.1,2.8,3.2,4.1s3.3,2.5,4.9,1.5c1.5,1.6,2.9,3.2,4.1,5l1.3,1.7c2.9,3.9,5.8,7.8,8.8,11.7c3.1,4.1,6.3,8.2,9.5,12.2
	c1.9,2.3,3.9,4.5,6,6.6c-0.1,0.2-0.1,0.5,0,0.7c0.1,0,0.3-0.1,0.5-0.2c2.1,2,4.3,3.9,6.7,5.6c0.1,0.8,0.3,1.6,0.6,2.4l0.4-0.2
	c-0.1-0.5-0.2-1,0.1-1.3c1.6,1.1,3.2,2.2,4.8,3.1l1,0.6c0.1,0.1,0.2,0.2,0.3,0.3l0.1,0.1v0.1l0.3,0.3l0.1,0.1
	c0.1,0.1,0.1,0.2,0.2,0.3c0,0,0.1,0.1,0.1,0.2c0.1,0.2,0.1,0.4,0.2,0.6c0.1,0.1,0.2,0.3,0.3,0.4c0.1,0,0.1,0.1,0.2,0.1
	c0.1,0,0.1,0,0.2-0.1c0.1-0.1,0.2-0.1,0.2-0.2c1,0.6,2.1,0.9,3.2,1l7.3,8.3l0.1-0.1c30.1,37.9,60.6,78.1,88.8,114.5
	c1.4,1.8,1.5,2.3,3.7,5.4c6.2,8.1,11.5,14.8,18.6,23.8c3.3,4.7,5.3,7,9.6,12.5c1.9,2.6,2.1,2.8,5.6,7.3c0.1,0.6,3.7,4.7,2,3.4
	c-2.4-2.9-1.9-2.8-3.9-5.2c-0.2,0-0.5-0.1-1.8-1.9c-7.6-9.6-17.4-22.6-22.9-28.8c3.8,5,11,13.6,11.9,15.7c-5.1-6-9.8-12.5-13.2-16.3
	c6.1,7.9,11.3,14.3,16.4,20.5c4.7,5.8,10.5,13.7,12.9,16.6c-0.8-1-1.6-2.1-2.3-3.2c2.1,2.7,4.1,5.2,2.9,4.4
	c2.7,3.3,7.4,9.5,12.1,15.5c1.2,2,0.9,1.4,3.9,5.3c0.1,0.4,1.7,2.4,2.2,3.3c-0.2-0.1-1.7-1.7-0.3,0.2c2.8,3.4,5.4,6.9,7.8,10.6
	c5.7,7.1,8,10.6,12.7,16.7c-0.9-0.5,2,3,1.1,2.5c7.9,11,18.5,24.7,24.8,34c-3.7-4.1-10.2-13-14-17.4c-3.4-4.2-7.4-10.5-8.8-11.5
	c4.4,5.9,7.7,10.7,10.6,15.1l4.8,6.2c1.7,2.7,4.3,6.2,7.7,10.7c0.7,1.7,5.7,8.1,7.4,10.9c0.7,1.8-2.1-2-2.2-1.6
	c5.9,7.6,10.6,13.9,16.8,21.9c0.8,1.3,2.9,4,3.7,5.4c12.9,16.9,21.9,29.7,34.6,46.4l5.7,7.2c1,1.3,1,1.5,2.3,3.2l11.2,14.4
	c4.4-3.2,8.9-6.4,13.2-9.7c-0.6-0.8-1.2-1.3-1.3-1.2c-0.9-1.1-0.4-0.9-1.4-2.2c1.1,1,2.1,2.1,3,3.3l1.5-1.1
	c-4.6-5.7-10.1-13.4-16.3-21.3c-1.1-1.4-2.1-2.8-3-4.3c-5.1-6.1-11-14.4-17.8-22.8c-0.1-0.9,6.3,7.2,7.5,9.2c3.8,4.6,5.4,6.9,8,10.4
	c1.5,1,5,6.6,5.3,5.9c2,2.6-0.1,0.6-0.4,0.3c2.9,3.2,5.1,6.8,5.9,7.1c0.8,1,0.5,0.9,0.6,1.2c0.8,1,0.7,0.7,1,0.9
	c2.6,3.5,6.3,8.4,9.9,13l1.4-1.1c-11.9-15-23.8-30.5-36.9-46.9C1358.5,725.5,1357.4,724.1,1356.3,722.8z"/>
<path class="st0" d="M1402.9,718.2c-0.4-0.6-0.6-0.5-1.1-1.2l-7.2-9.2c-4.8-5.5-7-9.1-12.1-15.1c-6-7.7-15-19.1-22.2-28.3
	c-5-6.5-12.6-16-18.6-23.4c-3.8-5-10.1-12.7-12.3-15.7c-9.2-11.4-15.7-20-24.8-31.2c-10-12.9-21.4-26.5-32.1-40.2
	c-0.4-0.6-0.6-0.5-1.1-1.2c-6.1-7.9-10.3-12.4-17-21.2c-0.4-0.5-0.6-0.5-1.1-1.2c-7.9-10.3-16.4-20.7-23.2-29.6
	c-1.4-1.7-5-5.9-6.8-8.7c-4.2-5-9.4-12-14-17.8c-5.3-6.3-12.7-15.7-17.4-22.2c-3.7-4.7-4.5-5.6-7.5-9.6
	c-9.3-11.4-18.7-23.4-27.6-34.6c-0.5-0.7-1-1.5-1.6-2.2s-1.3-1.5-1.8-2.1l-5.9-7.6l0,0l-1.4-1.8l-1.3-1.7l0,0l-6.7-8.6
	c-1-1.2-1.9-2.3-2.8-3.4c-7.7-10-17.8-22.7-28.2-35.5c-0.8-1-0.9-1.4-2-2.7c-6.7-7.6-14.8-18.2-21-25c0.2,0.3,0.7,0.9,0.6,0.9
	c-7.3-8.4-15.3-18.6-22.3-26.8c-5.5-7.4-12.7-15.3-18.1-22.4c-1.2-1.4-2.4-2.9-3.6-4.3c-1.4-1.7-2.8-3.3-4.4-4.8
	c-0.4-0.8-2.4-2.7-3.8-4.7c-0.8-0.8-2-2.4-2.9-3.3c-6.4-8.7-13.7-16.4-20.4-25.3c0.5,0.4,0.9,0.6,0.9,0.6c0.5,0.2,1,0.5,0.9,0.1
	c-0.2-0.3-0.3-0.7-0.3-1c0-0.2,0-0.3,0.2-0.3c0.7,0.4,1.7,1,1.7,1l6.1,0.1c1.3-0.1,0-2.2,0-2.2c-0.8-1.7-2.7-2.9-4.5-3.6
	c1.2-2.1,2.3-4.3,2.6-4.9c0.6-1.3-1.3-3.3-1.3-3.3c-0.2-0.2-0.3-0.4-0.5-0.6c-2.2-2.4-3.4-1.5-6.4-0.8c-3.2,0.7-4,1.1-5.2,0.4
	s-4.7-4.6-5.2-5.1c-0.5-0.5-5.9-7-7.3-8.8l1-0.3c7.2-2,21.5-5.7,21.5-5.7c0.1,0,0.2,0,0.3-0.1c1.7-0.4,2.7-2.1,2.3-3.7
	c-0.3-1.1-1-2.1-2.1-2.6c-1.1-0.5-2.3-0.9-3.5-0.9c0-0.1-21.5-0.6-32.5-0.8c-0.7-0.7-1.4-1.5-2.2-2.4c-0.3-0.4-0.7-0.9-1.1-1.2
	l0.2,0.2c-2.1-2.2-4.2-4.5-5.4-5.6c0.3-0.4,0.5-0.8,0.8-1.2c0.2-0.2,0.3-0.5,0.2-0.8c-0.1-0.7-1.3,0-2.5,0.7c-2-1.8-4.8-4.2-8-4.5
	l-0.2,0.1l-1,0.3c-1.4-0.6-2.8-1.1-4.3-1.4c-1.1-0.2-2.2,0.5-2.4,1.6c0,1.2,0.2,2.3,0.6,3.4c1,2,2.2,3.8,3.7,5.5l0.2,0.2
	c-0.4,0.3-0.7,0.5-0.8,0.6c-0.3,0.2-0.6,0.5-0.9,0.8h0.1c0.5-0.4,1.1-0.9,1.6-1.3l1.5,1.4l-0.6,0.6c-0.2-0.2-0.5-0.3-0.7-0.4h-0.1
	c-0.5,0.2-1,0.5-1.4,0.9l-0.7-0.6c-0.4-0.4-0.8,0.1-0.6,0.4c0.1,0.2,0.3,0.5,0.5,0.8c-0.4,0.3-0.7,0.7-0.9,1.1c0,0.1,0,0.2,0,0.2
	c0,0.2,0.1,0.4,0.2,0.6c0,0,0.1,0.1,0.1,0.1l-0.1,0.1c0,0,0,0.1,0,0.1l0.2-0.2c0.4,0.5,1.2,1.7,1.5,2.2l0.2,0.2
	c0.2,0.2,0.4,0.3,0.5,0.5c0,0,0,0.1,0,0.1c0,0-0.6,0.5-0.5,1.1c0.3,0.5,0.7,1,1.1,1.3c0.4-0.2,0.7-0.3,1.1-0.5
	c-0.4,0.8-0.3,1.7,0.2,2.5c-1.2,2.3-2.4,4.6-3.6,6.8v0.2c0.2,0.7,0.5,1.3,1,1.8c0.8,0.7,1.9,1.5,1.9,1.5s0.7,0.6,2.9,0.4
	s7.9-0.1,9.1-0.3c0.4-0.1,1-0.1,1.8-0.2c1.3,0,2.5-0.2,3.7-0.4c0,0,6.1,3.4,7,4c0,0,0.4,0.2,0.8,0.4c4.3,3.9,11.2,9.2,17.1,13.5
	l-1,1.6c0,0-0.6,0.7,0.3,1.9l-0.2,0.3l0.9,0.5c0.8,1.1,1.9,1.9,3.2,2.3c1,0.2,2.1,0.3,3.1,0.3c0.8,1.1,1.6,2.2,2.8,3.7
	c0.9,1.2-0.1,0.7,1.1,2c1.1,1.6,1.5,1.6,2.5,3c3.7,4.8,7.3,9.4,10.4,12.9c3.8,5,5,6.1,8.6,10.8c1.2,1.4,3.8,4.6,4.5,5.6
	c2.6,2.6,5,5.4,7.2,8.4c1.4,1.5,3.6,4.6,4.7,5.5c1.3,1.9,2.4,3.1,4.4,5.7c4.4,6.1,7.9,9.4,13.6,17.4c-0.1,0.5,0.7,1.5,1,2
	c1.7,2.4,4.1,4.7,4.3,5.7c-2.2-2.4-5.2-6.4-7.2-8.4c5,6.4,8.3,10.3,13,16.5c1.4,1.4,2.7,3,3.8,4.7c1.5,1.7,3,3.4,4.4,5
	c4.2,5.2,6.9,8.4,10.6,13.5c3.1,4,6.9,8.2,10.6,12.8c2.1,2.6,4.1,5.2,6.1,7.8l1.6,2l25.7,34.8c0,0,0,0,0,0l37.6,50.5
	c-0.7-0.6-1.3-1.2-1.9-1.8c-4-5.2-7.5-9.3-11.7-14.8c-2.2-2.4-4.7-5.4-6.9-7.9c4.5,5.9,9.9,12.8,13.9,17.9
	c10.9,14.1,21.3,26.7,31.5,40.7l5.8,7.4c1.2,1.8,3.3,4.3,4.2,5.9c2.1,2.5,6.1,7.8,9.1,11.8c1.3,1.6,2.6,3.3,4,5.1l41,55
	c-0.7-1-1.5-1.9-2.4-2.7c0.8,1,1.6,2,2.3,3.1c0.2-0.1,1.2,1.2,1.8,1.9l8.3,11.3c0.3,0.5,0.6,1,0.8,1.4c2.3,2.7,4.6,6.1,8.1,10.5
	c0.1,0.2,0.3,0.4,0.4,0.5l6.6,8.9l-0.1-0.1c-1.9-2.5-3.9-5-5.8-7.4c-4.1-4.7-5.7-7.4-8.8-10.7c6.1,8.2,13.1,17,18.7,24
	c0.1-0.1,0.1-0.2,0-0.3l4.5,6.1c0.9,1.4,1.9,2.7,2.9,3.9l0.1,0.2l31.8,42.7c-3.5-4.4-6.8-8.8-9-11.4c2.4,3.2,3.4,4.4,5.3,7.1
	c1,1.4,1.1,1.2,2.1,2.5c1.2,1.6,3.1,3.8,3.7,4.9c0.2,0.1,0.6,0.4,1.2,1.2c1.5,2,3.2,4.3,5,6.5l2,2.6c0.9,1.3,2.4,3.1,3,4.1
	c0.2,0.1,0.3,0.3,0.5,0.5l4,5.2c0.5,0.6,0.9,1.2,1.3,1.8l0.2,0.2l44.3,57.4l14.6-11L1402.9,718.2z M1068.4,302.3
	c0.1-0.2-0.4-0.9-1.2-1.9l-5.8-7.4c-1.8-1.9-4.4-5.4-6.4-7.6c-1.8-2.5-5.3-6.4-4.8-6.8c2,2.4,4,4.8,5.9,7.1l13.3,17.9
	C1069.2,303,1068.8,302.6,1068.4,302.3z M1081.6,320.1l1.7,1.8l4,5.4C1085.2,325,1083.4,322.6,1081.6,320.1z M1105.8,346.2l1,1.1
	c0,0.1,0,0.2,0.1,0.4L1105.8,346.2z M1149.7,401.3c0.1,0.1,0.2,0.2,0.2,0.2c0.4,0.5,0.8,1.1,1.1,1.5L1149.7,401.3z M1157.7,411.5
	c0.3,0.3,0.5,0.6,0.8,0.9c0.6,0.8,1.3,1.8,2.1,2.7L1157.7,411.5z M1169.2,425.8c1.5,1.7,2.9,3.4,4.4,5.5c1.6,1.8,4.6,5.6,6.3,7.9
	L1169.2,425.8z M1182.9,443c0.2,0.1,0.3,0.3,0.5,0.5c1.3,1.6,2,2.7,2.7,3.5L1182.9,443z M1187.3,448.5c0.4,0.5,0.9,1.1,1.6,1.8
	c2.9,3.8,5.4,6.9,7.8,10L1187.3,448.5z M950,185.2c0.7-1,1.6-1.9,2.5-2.6l0.7-0.6h0.1c-0.9,0.7-1.7,1.4-2.4,2.2
	c-0.3,0.3-0.6,0.7-0.9,1.1c-0.1,0.2-0.3,0.5-0.2,0.7s0.7,0,0.9-0.1c0.3-0.1,0.7-0.3,1-0.4c0,0,0,0.1,0,0.1c-0.3,0.2-0.7,0.3-1,0.4
	c-0.3,0.1-0.5,0.2-0.8,0.1C949.5,186.1,949.8,185.5,950,185.2z"/>
<path class="st0" d="M1337.5,777.1L1337.5,777.1c-3.5-4.6-5.2-6.6-8.3-10.5c-3.5-4.8-5.5-7.2-11.2-14.4
	c-4.8-6.3-10.1-13.2-16.3-21.2c-14.8-19.2-31.3-40.1-43.2-55.8c-9.4-11.9-17.8-22.7-25.6-32.9c-14.6-19-27.5-35.9-42-54.7
	l-29.9-38.4c-1.8-2.3-1.5-2.2-3.7-4.8l-9.7-12.5c-1.8-2.3-1.5-2.2-3.7-4.8l-24.7-31.6l-57.3-74c-13.6-17.4-26-33.7-36.6-47
	c-10-13.1-14.9-19.3-27.6-35.5c-2.7-3.7-4.8-6-6.6-8.7c-6.9-8.6-13.7-17.5-21.7-27.8l-7-8.9c-1.8-0.1-63.4-81.1-63.4-81.1
	c-1.8-2.3-1.7-2-3.8-4.8c-9-11.6-14.7-18.9-20.8-26.3l-8.3-10.6l-1.3-2.1l0.8,1.2l4.6-3.8l9.2-7.6l-1.8-2.1l-0.6-0.7l-1.6-2.6h-0.1
	c-0.1-0.1-0.2-0.2-0.2-0.4h0.1l1.8,1.9l21.2,3v-0.1l0.1,0.1c0.1,0.6,0.2,1.2,0.4,1.8c0.1,0,0.2,0,0.3,0.1l0.6-1.9l1.3-0.5l-0.3-0.2
	l-2.8-0.6c0,0,0-0.1-0.1-0.1c-0.3-0.4-0.6-0.7-1-1c-0.9-0.6-1.8-1-2.8-1.4l-54.9-16.1c-7.7-8.3-15.1-16.2-17-18.2
	c-2.4-2.4-7.8-5.4-9.5-5.4c-1.1,0-2.2,0.1-3.3,0.2c0,0-2.4-0.3-3.1,0.5c-0.4,0.4-1.2,1.8-0.4,4.4c0.8,1.6,1.7,3,2.9,4.3
	c3.4,4.1,8.4,9.4,8.4,9.4s0.6,1,1.4,2.4l-2.8,5.2l-9.2,11.9c0.1,0.5,0.2,0.9,0.4,1.3c0.4,0.6,0.9,1.1,1.4,1.5l-0.1-0.1
	c0.3,0.5,0.6,1,0.7,1.5c0.1,0.6-0.1,1.1,0,1.1l0.3,0.3l0.8-1.6l6.1-1.9c0.3,0.5,0.5,0.8,0.7,1.1c0.2,0.4,1.3,1.8,1.3,1.8l0.2-0.2
	c0,0-0.1-1.5-0.2-2.3l1.1-0.2l0.1,0.2c0.2,0.4,1.5,2.1,1.5,2.1l0.4-0.2c-0.1-0.8-0.2-1.6-0.4-2.4l0.9-0.2l0.4,0.6
	c0.2,0.4,1.4,1.8,1.4,1.8l0.4-0.2c0-0.8-0.2-1.7-0.4-2.5l0.9-0.1l0.8,1.1l0.6-0.6c0,0,0-0.3-0.1-0.7l1-0.2c0.6,0.6,1.3,1.3,1.3,1.3
	l0.7-0.6l-0.1-0.5l3.5,0.5l-0.2-0.5c1.2,0.7,2.3,1.6,3.4,2.5c1.6,1.5,7.8,4.9,8.1,5.2c0.1,0.1,0.6,0.7,1.4,1.4l0.5,0.4l0.1,0.1
	c0,0,0.1,0.1,0.1,0.1l0.2,0.2l0.1,0.1l0.3,0.2h0.1l0.3,0.3c0.3,0.3,0.7,0.5,1,0.8c0.7,0.4,3.3,2.1,6.1,3.8c-0.6,0.6-1.5,1.8-1.8,2
	c-0.4,0.3-0.5,0.8-0.4,1.3c0,0.7,2.2,3.1,2.2,3.1l4.5-0.6c16.2,21.1,37.5,48.6,54.3,70.4c0,0,42.7,54.8,43.9,56.4
	c-1.5-1.8-3.9-4.9-6.4-8c-4.4-5.7-37.8-48.3-42.1-53.9c-0.7-0.3,4.8,6.4,6.5,8.8c2.4,3.1,32.9,42.3,35.3,45.4
	c3.2,4.2,6.5,8.7,10.1,13.1c1.4,1.8,2.6,3.6,4.4,5.8c3.9,5,7.5,9.6,10.4,13.5l24.7,31.6c10.1,13.1,19.3,24.8,28.1,36.7
	c4.5,5.7,9.2,11.6,13.8,17.6l32.7,42.7c-0.7-0.7-2-2.4-2.8-3.4c-1.1-1.1,1.4,2.4-0.3,0.2c-2.7-3.8-5.3-6.6-6.8-8.6
	c-1.9-2.6-6.4-8.2-8.1-10.6c-0.9-0.7,2.4,3.2,2.8,4l6,7.7c1,1.3,1.3,1.9,2.9,3.9l21.7,27.8c1.4,1.9,1.8,2.5,3.6,4.9l9,11.5
	c1.1,1.6,5.3,6.8,6.6,8.8c-1-1.6,4,4.8,3.8,4.7c-1.8-2.4-2.4-2.7-0.9-0.8c0.2,0.1,0.4,0.2,1.6,1.8c3.7,4.8,3.6,4.8,6.7,8.6
	c1.9,2.5,2.1,3,4.3,5.9c5.2,6.6,7.4,9.9,11.9,15.4c3.2,4.4,5.1,6.8,8.9,11.5c2.2,2.9,6.3,8.5,8.9,11.6c3.2,4.6,11.2,14.6,15.4,20.3
	c1.8,2.2,2.3,2.7,4.6,5.7c4,5.5,12.7,16.5,17.7,23.2c2.6,3,4.8,6.1,7.6,9.5c5.1,7.3,18.1,23.5,27.3,35.5l3,4c1.1,1.8,2.1,3.4,4.9,7
	c4.1,5.4,5.2,6.4,8.4,10.4c14.5,18.9,24.9,32.2,40.9,52.9c3.9,5.2,6.6,8.5,11.2,14.4c6,7.9,12.9,16.4,17.2,22
	c6.7,8.5,13.9,17.9,21.1,27.3l10.1-7.1C1341.2,782.1,1339.1,779.4,1337.5,777.1z M817.1,152.5l-0.1-0.2l1-0.4l0.1,0.3L817.1,152.5z
	 M819.6,151.6l-0.2-0.3l0.8-0.3c0.1,0.1,0.1,0.2,0.1,0.3L819.6,151.6z M822,150.6l-0.2-0.3l0.5-0.2c0,0.1,0,0.2,0.1,0.3L822,150.6z
	 M824.1,149.7l-0.2-0.2l0.2-0.1c0,0,0,0.1,0.1,0.2L824.1,149.7z M826.7,149.3c-0.1-0.1-0.1-0.2-0.2-0.3l1.9,0.5l0.2,0.2L826.7,149.3
	z M870.3,155.5v-0.2l-0.1-0.3l1.5,0.2L870.3,155.5z M872.9,152.3c0.1,0.1,0.1,0.2,0.2,0.3l-4.5-0.7l-0.2-0.3L872.9,152.3z
	 M859.4,150.3l0.2,0.3l-4.7-0.6l-0.3-0.4L859.4,150.3z M858.1,158.8L858.1,158.8c-0.5-0.7-2.3-2.6-4.7-5.3h0.3l-2.2-3.9l-1.6,0.1
	l-0.3-0.3l2.2-0.2l1,0.1c0.1,0.2,0.1,0.3,0.2,0.5l-1-0.1l2.1,4l1,0.1c0.4,0.5,0.9,0.9,1.4,1.4l0.4-0.7l-0.2-0.5l5,0.4
	c0.3,0.5,0.5,0.9,0.7,1.1c0.5,0.7,1,1.3,1.7,1.8l0.2-0.3l-0.5-2.1c0,0-0.1-0.1-0.1-0.3l2.5,0.2l-1.6-3.3l-2.7-0.4l-0.2-0.3l4.7,0.7
	c0,0.1,0.1,0.2,0.1,0.3l-1.5-0.2l1.7,3.3l1.7,0.2c0.3,0.5,0.5,0.8,0.7,1.1L858.1,158.8z M891.4,216.8c0.4,0.6,2.9,3.7,2.9,3.9
	c-6.1-7.6-13.7-17.4-17.9-23c1.9,2.4,3.1,3.9,3.9,4.7c-4.6-5.9-7-9.2-11.9-15.4c-1.4-1.3,3.2,4.2,2.8,4c-4-5-9.6-12.4-12.8-16.4
	l0.7-0.1c10.3,13,19.3,24.9,31.3,40.1c2.6,3.4,6.3,8.2,10.2,13.2l14.2,18.5C907.1,236.8,899.5,227.1,891.4,216.8z"/>
<g>
	<path class="st0" d="M925.9,322.8l0.7-0.4c-0.6,0.3-0.9-0.7-1.6,0.5c-0.2,0.1-0.3,0.2-0.5,0.3c-0.7,0.6-0.8,1.6-0.3,2.3
		c0,0,0,0,0,0.1c0.6,0.6,1.6,0.7,2.2,0.1c0,0,0.1,0,0.1-0.1c0.7-0.5,0.8-1.6,0.3-2.3C926.6,323,926.2,322.8,925.9,322.8z"/>
	<path class="st0" d="M1293,774.7l-62.5-79.7c-8.6-11.5-17.2-22.8-25.7-33.8l0.4,1.5l-6.6-8.5c1.4,1.3,2.7,2.8,3.8,4.4
		c-1.1-2.3-4.1-5.5-6.4-7.7l-5.9-7.5c1.5,1,7.2,7.3,5.2,4.7l-4.2-5.2l0.8,1.2c-1.7-1.6-2.8-2.6-4-3.7l-8.8-11.2
		c-0.3-0.9,0.3-0.6-0.6-1.8c0.1-0.1-0.4-0.8-2.3-3l-8.8-11.5l1.6,3.5l-72.3-92.1c-1.2-1.7-2.3-3.6-3.2-5.5c0.7,1.9-3.9-3.9-7.9-8.6
		l-5.8-7.4c-0.2-0.7-0.6-1.4-1-2.1c-12.6-14.1-24.9-33.2-39.6-51.3c-0.3,0,0.3,1.4-0.1,1.5l-3.9-5l-4.1-7.5c-3-3.5-4.5-1.9-8.5-9.4
		c0.2,0.5,0.4,0.9,0.5,1.4l-10.3-13.1c-21.8-29-46.2-57.3-67.3-87.3c0.9-0.2,0.5-2.7-2.1-5.9c-0.7-0.9-1.6-2-2.7-3.2
		c5.2-5.5,5.4-10.1,2.7-13.3c-0.8-1.2-2.3-1.7-3.7-1.4c-1.5-3.1-3.3-6-4.5-7c-0.2-0.2-0.9-0.7-1.8-1.3l8.7-11.3c0,0,12.6,8.3,13.9,9
		c6.4,3.7,2-16.9-1.8-19.3c-0.7-0.4-30.9-17-30.9-17l-23-12.6c0.7-0.8,1.5-1.5,2.1-2c2-1.7,4.4-3.8,3.1-5c-0.3-0.3-0.7-0.5-1.2-0.6
		c0-0.3-0.1-0.6-0.4-0.7c-0.6-0.3-1.4-0.2-1.8,0.3c-0.6-0.1-1.2-0.2-1.8-0.3c0.2-0.9,0-1.5-0.7-1.5c-0.9,0-1.7,0.5-2,1.3
		c-0.6-0.1-1.2,0-1.8,0c-0.2-0.7-0.6-1.2-1.3-0.9c-0.7,0.2-1.3,0.8-1.5,1.5c-1.5,0.6-2.9,1.4-4.2,2.4c-0.5-0.4-1.3-0.4-1.8,0.1
		c-0.7,0.7-0.8,1.3-0.6,1.8c-1.1,1-2.1,2.2-2.8,3.5l0.2-0.1l-0.2,0.3l5-1.7l1.9,1.3c-1.7,1.3-3.1,3.1-4,5.1l0.2-0.1l-0.1,0.3
		l5.5-2.9c0.2,0.6,0.5,1.3,0.7,1.8l-1.2,1.9c-2,2-5.8,5.7-7.1,6.8c-0.4,0.3-0.7,0.7-1.1,1.1l-1.7-1.4c-1.5-1.2-2.2-0.7-1.5,1.2
		c0.5,1.2,3.4,6.2,5.8,10l-1,0.4c-0.1-0.1-0.2-0.2-0.3-0.4c-0.9-1-2.1-1.7-3.4-1.7c-2.7-0.2-5,1.9-5.2,4.6c-0.2,2.7,1.9,5,4.6,5.2
		s5-1.9,5.2-4.6l1.9-0.5c0.3,0.4,0.5,0.8,0.7,1.1l4.5,4.1l-0.3,0.4c-1.2-0.2-2.4,0-3.4,0.6c-2.3,1.4-3.1,4.4-1.7,6.7
		c1.4,2.3,4.4,3.1,6.7,1.7s3.1-4.4,1.7-6.7l10.6,9.8l0.1,0.1c5.7,9.4,12,18.4,18.8,27.1c0.9,0.9,1.1,2.2,0.6,3.3
		c0.7,0.5,1.2,1,1.7,1.7c1.3-0.3,1.6,0.1,2.8,1.9c0.4,0.6,1,1.1,1.7,1.4c1.7,2.1,3.6,4,5.6,5.8c1.7,2.9-2.3-1.8-1.6-0.1
		c3.1,2.4,6.1,5.9,11,12.9l-0.8-0.6c14.9,18.7,20.5,27.4,36.5,48.9l-0.3-2.2c1.9,2.6,3.7,5.3,5.3,8.1c5.4,4.2-9.9-12.8-4.7-9.2
		c2.9,7.4,25,32.1,26.2,37.7c5.5,7-0.6-2.8,4.9,4.2l1,2.2l1.6,0.9l2.7,3.5c1.7,2.8,2.2,4.4,2,4.8c-0.8-1.2-2.6-3.1-3.6-4.2
		c3.7,6,12,15.2,14.3,18.2l-4.5-6.4c13.7,16.6,29.1,37.3,43.2,54.1l35.7,46.1c-0.4-0.3-0.7-0.6-1.1-1l2.6,3l83,107.1
		c-0.2-0.1-0.4-0.2-0.6-0.3c0.3,0.2,0.5,0.3,0.8,0.5l18.6,24l-1.3-1.1c6.6,6.4,9.9,14.4,15.8,20.9c-5.6-7.1-6-8.2-5.5-8.2l11.7,15.1
		c1.4,2.7,3.7,6.4,9,13c-1.9-2.4-4.6-6.6-4.2-6.7l4.7,6.1c1.5,2.2,2.9,4.4,4.2,6.8c5.6,6.9,5,5.7,4,3.8l39.1,50.5
		c3.3,5.2,9.1,11.8,11.7,15.1l1.2,0.3l8,8.5c0.2,0.3,0.3,0.5,0.3,0.7l7.6-5.3C1307.1,791.8,1298.8,779.1,1293,774.7z M891.7,256.2
		c-0.1,0.4-0.1,0.7,0,1.1c-0.3,0.9-0.7,1.9-1,2.7l-2.2,1.1C889.3,259.8,890.6,257.9,891.7,256.2z M892,263.8c-0.1,0.8-0.1,1.5,0,2.3
		c-0.2,0.4-0.4,0.7-0.6,1.1c-1.8-1.3-3.4-2.6-4.8-3.7l0.5-0.5l3-1.6l-0.2,0.6c-0.8,2-1.1,3.8,0,3.8c0.9,0,1.6-1,2.2-2.4
		C892.1,263.5,892.1,263.6,892,263.8z M893,268.4l-0.3-0.5l-0.3,0.1l-0.3-0.2l0.3-0.5C892.6,267.6,892.8,268,893,268.4L893,268.4z
		 M894.8,269.6c-0.3-0.2-0.5-0.5-0.7-0.7l0.1,0.1l0.1,0.1l0.3,0.2L894.8,269.6l0.1,0l0.3,0.2C895.1,269.8,894.9,269.7,894.8,269.6z
		 M896,243.8h-0.4v-0.7l0.5-0.2l0,0C896.2,243.1,896.1,243.4,896,243.8z M898.4,244l-0.3-0.1c0.2-0.7,0.5-1.3,0.7-1.8
		c0-0.1,0.1-0.1,0.1-0.2l1-0.3L898.4,244z M939.2,284.9c-3.8,2-9.2,4.8-12.6,6.6l7.6-9.7L939.2,284.9z M916,266
		c0.4,0.1,0.8,0.3,1.2,0.6c2.5,1.6,4.3,2.9,5.7,3.9l-7.9-0.3l1.1-1l-0.8-0.5h0C914.8,267.3,914.5,265.7,916,266z M912.6,270.1
		c-0.3-1.3-0.5-2.6-0.8-3.6l0.2,0.1l0.9,3.5H912.6z M915.2,273c-0.1,0.1-0.3,0.3-0.4,0.4c0,0.1-0.1,0.2-0.2,0.4
		c-0.2,0-0.8-0.2-0.9-0.2c0.1,0.1,0.1,0.2,0,0.2c-0.1,0-0.1,0.1-0.2,0.1v-0.1c-0.2-0.6-0.4-1.2-0.5-1.8l3.4,0
		c-0.1,0-0.2,0.1-0.4,0.2c-0.1,0-0.2,0-0.2,0c0,0-0.1,0-0.1,0.1C915.4,272.4,915,272.8,915.2,273z M924.5,291.8l-1.5-1.1
		c-0.9-2.5-1.6-4.3-1.6-4.3c0-0.1-0.1-0.2-0.2-0.3c-0.1-0.1-0.2-0.2-0.3-0.3c-0.5-0.4-1-0.7-1.5-0.2v-0.1c0.3-0.6,0.3-1.3-0.2-1.8
		c0.1-0.1,0.3-0.2,0.3-0.3h0.1c0.1,0.1,0.7-0.2,1.1-0.7s0.9-1,0.3-1.6c0,0,0,0,0-0.1c-0.4-0.4-1-0.4-1.4-0.1c-0.1,0-0.2,0-0.2,0
		c0,0-0.1,0-0.1,0c-0.2,0.2-0.6,0.6-0.4,0.7c0,0.1-0.3,0.3-0.4,0.4c0,0.1-0.1,0.2-0.2,0.4h-0.1c-0.1-0.4-0.2-0.7-0.3-1l1.4-2.8
		l-2.9-2.2c-0.1-0.2-0.3-0.4-0.5-0.6c-0.1-0.1-0.1-0.1-0.2-0.2c0-0.3-0.2-0.6-0.3-0.8c0.1-0.1,0.4-0.2,0.3-0.3h0.2
		c0.1,0.1,0.7-0.2,1.2-0.7s0.9-1.1,0.4-1.7c-0.1-0.1-0.2-0.2-0.4-0.3l7.2-0.1c0.3,0.4,0.6,0.8,0.9,1.2l0.1,0.2v-0.2
		c0.9,1.2,1.5,2.5,1.8,3.9c1.8,1.2,3.8,2.5,5.9,3.9L924.5,291.8z M926.4,293.2l14-7.5l0.5,0.3c-2.4,3-5.9,7.6-8.8,11.2
		C930.6,296.1,928.7,294.8,926.4,293.2z"/>
</g>
</svg>
