<svg id="Layer_14" data-name="Layer 14" xmlns="http://www.w3.org/2000/svg" viewBox="0 0 2916.56 2444.7"><defs><style>.cls-1{fill:#F7931E;}</style></defs><path class="cls-1" d="M1356.3,722.8c-18.1-23-32.1-42.2-50.9-65.3-.1.2-.9-.6-1.9-1.8-3.1-4.4-8.6-10.6-13.8-17.5-1-1.3-3.7-5.3-3.9-5.3.9,1.5,2.9,3.9,2.9,4.4-4.5-5.4-10.3-12.7-16.4-20.6-1.2-1.6-3.4-5.1-4.8-6.3a10.71,10.71,0,0,1,1.5,2.2c-2-2.1-2.7-3.6-5.7-7.2-4.1-4.5-11.4-14.1-16.6-20.4-7.5-9.9-18.3-23.2-30.1-38.2-4.8-6.3-14-18.8-18.6-23.8-.8-1.4-4.1-5.5-5.5-7.4a93.57,93.57,0,0,1-7.2-9.4c.6.2,4.2,5.2,5.2,6-5.6-7.2-10.1-13-13-16.5-1.5-1.8-1.8-1.4-3.4-4,.1-.1,1.5,1.8,1.8,1.9-3.5-4.4-5.3-6.9-8-10.4-7.1-8.7-15.2-19-20.8-25.4-10.3-12.9-18.5-22.9-27.5-34.2l.4-.1,9.7,9.5c0-.1.3-.1-1.1-1.8l-7.6-8,3-.6c.5-.1.5-.3.1-.7l-.5-.4a4.15,4.15,0,0,0-1.6-.3l-2.6.1-.1-.1-8.2-8.7c.4-1,.3-1.5.1-1.7l-.8-1.1,30.1-15.9s-1.7-3.9-5.8-4.2l-22.6,2.8c-4.5.7-6.5.5-10.5-1.9l-7.8-4.6-2.4-3.2,1-.3-.4-.6-1.1.3c-11.4-14.6-22.9-29.1-34.3-43.4-2.1-2.6-4.4-5.3-7-8l6.6-4.4-.3-.3-.1-.1c-.1-.1-.2-.1-.3-.2l-.1-.1c-.1-.1-.3-.1-.4-.2h-.5l-7.8,3c-1.6-1.3-5.8-3.4-7.2-3.5h-2.1a7.61,7.61,0,0,0-2.1-.3h-.1l-.6-.1h-1.5a.9.9,0,0,0-.5.1h-.1c-.1.1-.3.1-.4.2l-.1.1a1.38,1.38,0,0,0-.3.4l-.1.1a4.18,4.18,0,0,0-.4,1c-.9,3.1.2,7.3,1.7,10.1a21.93,21.93,0,0,0,2.9,3.9c.3.3,3.2,4.1,3.2,4.2v.1l-.2.3v.1c-.1.2-.1.3-.2.5v.2c0,.1-.1.3-.1.4v1.3c0,.1.1.3.1.4v.2a.76.76,0,0,0,.2.4l.1.2.3.6c.9,1.5,1.9,2.9,2.9,4.4a44.69,44.69,0,0,0,3.2,4.1c1.1,1.3,3.3,2.5,4.9,1.5a38.91,38.91,0,0,1,4.1,5l1.3,1.7c2.9,3.9,5.8,7.8,8.8,11.7,3.1,4.1,6.3,8.2,9.5,12.2q2.85,3.45,6,6.6a.85.85,0,0,0,0,.7,1.69,1.69,0,0,0,.5-.2,60.23,60.23,0,0,0,6.7,5.6,10.55,10.55,0,0,0,.6,2.4l.4-.2c-.1-.5-.2-1,.1-1.3,1.6,1.1,3.2,2.2,4.8,3.1l1,.6.3.3.1.1v.1l.3.3.1.1c.1.1.1.2.2.3a.35.35,0,0,1,.1.2c.1.2.1.4.2.6s.2.3.3.4.1.1.2.1.1,0,.2-.1.2-.1.2-.2a7.48,7.48,0,0,0,3.2,1l7.3,8.3.1-.1c30.1,37.9,60.6,78.1,88.8,114.5,1.4,1.8,1.5,2.3,3.7,5.4,6.2,8.1,11.5,14.8,18.6,23.8,3.3,4.7,5.3,7,9.6,12.5,1.9,2.6,2.1,2.8,5.6,7.3.1.6,3.7,4.7,2,3.4-2.4-2.9-1.9-2.8-3.9-5.2-.2,0-.5-.1-1.8-1.9-7.6-9.6-17.4-22.6-22.9-28.8,3.8,5,11,13.6,11.9,15.7-5.1-6-9.8-12.5-13.2-16.3,6.1,7.9,11.3,14.3,16.4,20.5,4.7,5.8,10.5,13.7,12.9,16.6a37.12,37.12,0,0,1-2.3-3.2c2.1,2.7,4.1,5.2,2.9,4.4,2.7,3.3,7.4,9.5,12.1,15.5,1.2,2,.9,1.4,3.9,5.3.1.4,1.7,2.4,2.2,3.3-.2-.1-1.7-1.7-.3.2a115.57,115.57,0,0,1,7.8,10.6c5.7,7.1,8,10.6,12.7,16.7-.9-.5,2,3,1.1,2.5,7.9,11,18.5,24.7,24.8,34-3.7-4.1-10.2-13-14-17.4-3.4-4.2-7.4-10.5-8.8-11.5,4.4,5.9,7.7,10.7,10.6,15.1l4.8,6.2c1.7,2.7,4.3,6.2,7.7,10.7.7,1.7,5.7,8.1,7.4,10.9.7,1.8-2.1-2-2.2-1.6,5.9,7.6,10.6,13.9,16.8,21.9.8,1.3,2.9,4,3.7,5.4,12.9,16.9,21.9,29.7,34.6,46.4l5.7,7.2c1,1.3,1,1.5,2.3,3.2l11.2,14.4c4.4-3.2,8.9-6.4,13.2-9.7-.6-.8-1.2-1.3-1.3-1.2-.9-1.1-.4-.9-1.4-2.2a23.52,23.52,0,0,1,3,3.3l1.5-1.1c-4.6-5.7-10.1-13.4-16.3-21.3a41.46,41.46,0,0,1-3-4.3c-5.1-6.1-11-14.4-17.8-22.8-.1-.9,6.3,7.2,7.5,9.2,3.8,4.6,5.4,6.9,8,10.4,1.5,1,5,6.6,5.3,5.9,2,2.6-.1.6-.4.3,2.9,3.2,5.1,6.8,5.9,7.1.8,1,.5.9.6,1.2.8,1,.7.7,1,.9,2.6,3.5,6.3,8.4,9.9,13l1.4-1.1c-11.9-15-23.8-30.5-36.9-46.9A32.53,32.53,0,0,0,1356.3,722.8Z"/></svg>