<svg id="city" xmlns="http://www.w3.org/2000/svg" viewBox="0 0 2916.555 2444.698"><defs><style>.cls-1{fill:#f7931e;}</style></defs><path class="cls-1" d="M1376.606,1819.676q0-8.89,0-17.78c0-.247,0-.493-.01-.735-.049-1.452-.294-2.754-1.44-3.1a2.265,2.265,0,0,0-.651-.09c-2.053-.01-1.965,2.1-1.972,3.986-.011,2.891,0,5.782,0,8.673s0,5.782,0,8.673h0q0,9.108,0,18.214c0,1.955.04,3.953,2.043,3.925a2.219,2.219,0,0,0,.658-.1c.957-.309,1.248-1.3,1.337-2.452.036-.462.04-.95.04-1.433h0Q1376.617,1828.566,1376.606,1819.676Z"/><path class="cls-1" d="M1574.775,1773.125q-.008-.3-.023-.6a12.4,12.4,0,0,0-.189-1.683,5.013,5.013,0,0,0-1.318-2.707,4.655,4.655,0,0,0-1.363-.925c-.388-.177-.43-1.134-.619-1.845a1.646,1.646,0,0,0-.256-.589.526.526,0,0,0-.685-.135,1.276,1.276,0,0,0-.42.277,1.39,1.39,0,0,0-.276.4,3.952,3.952,0,0,0-.243,1.668c0,.414.028.842.033,1.247,0,.2,0,.4-.011.587-.032.5-.035,1-.03,1.5s.018,1.006.019,1.508c0,.574-.012,1.149-.016,1.722s0,1.148.026,1.719c.012.237.015.483.016.729,0,.124,0,.247,0,.371.011,1.6.093,3.14,2.066,2.974a3.159,3.159,0,0,0,2.6-1.287,5.536,5.536,0,0,0,.692-3.059q0-.321,0-.637C1574.787,1773.942,1574.785,1773.528,1574.775,1773.125Z"/><path class="cls-1" d="M1636.344,1530.717c-1.7-1.108-96.412-3.2-119.669.1-31.732,4.5-59.861,22.1-86.914,39.284-3.389,2.153-65.6,37.343-66.256,33.732.251,1.427.265,3-1.289,3.8-1.451.751-2.693-.269-3.764-1.151-.145-.116-.265-.243-.4-.366-11.273-10.093-49.971,38.3-64.578,26.629-2.535-2.025-49.907,57.629-53.041,63.126-1.886,3.309-3.692,7.141-2.608,10.792,3.179.893,6.382,1.695,9.6,2.456h-1.783c.073,10.936.613,12.736,6.346,13.88.818.163,1.743.314,2.788.475,6.495,1.005,10.043,3.962,14.241,9.793,3.947,5.484,6.957,11.572,10.425,17.169,7.287,11.764,11.56,20.211,15.685,34.748.146.515,1.108.836,1.692.842,6.03.061,12.062.122,18.091,0,2.4-.049,2.914-2.114,1.857-4.729a9.947,9.947,0,0,1-1.022-3.967q.024-30.5.01-61h.044c.222,14.3.232,28.6.232,42.9,0,5.5-.043,11.007.037,16.509.02,1.382-.511,3.721,1.266,3.635,1.527-.075,1.377-2.237,1.418-3.783.072-2.749.076-5.5.077-8.253q.008-25.5,0-51h.025c.241,16.795.222,33.591.3,50.386.009,1.932-.875,5.436,1.1,5.469,2.043.034,1.164-3.472,1.172-5.387.073-16.825.05-33.651.047-50.477h.032c.213,16.963.217,33.925.224,50.886,0,5.34,1.3,6.371,4.729,4.029,1.8-1.232,1.382-3.365,1.385-5.283q.046-24.837.019-49.674h.023c.377,31.36-.231,62.736,1.554,94.06.4,7.082.066,7.1,5.4,8.024,1.356.233,2.7.592,4.053.893-2.408,1.154-1.648,3.921-1.629,6.226.021,2.454,1.4,2.9,2.83,3.269,2.281.586,4.539,1.343,6.822,1.9,2.372.584,4.2-1.342,4.368-4.456.278-5.143-.149-5.836-3.543-5.8-1.549.018-3.1,0-4.648,0a52.615,52.615,0,0,1,11.08-.738c3.136.031,4.289-1.752,4.246-6.3-.185-19.4-.085-38.811-.061-58.217,0-1.18-.325-2.507.513-3.89.642,3.745,3.1,6.431,2.039,10.479-.043-.275-.083-.549-.131-.822-.267-1.512.518-4.185-1.232-4.107-1.269.058-.908,2.614-.919,4.126-.046,6.516-.022,13.033-.023,19.55,0,8.721,0,8.721,6.242,9.433-1.367.118-2.736.083-4.1.127-1.684.053-2.154,1.625-2.09,3.537.072,2.181-.763,5.451,1.324,6.04a29.55,29.55,0,0,0,10.728,1.024c.666-.061,1.252-.465,1.216-1.586-.041-1.261-1.1-.895-1.524-1.619h8.3c-1.845.637-1.811,2.6-1.809,4.587.01,7.966-.078,15.933.024,23.895.09,7.056-.437,14.124.739,21.166.707,4.23,2.963,7.669,2.9,12.26-.038,2.948.359,5.9.561,8.859.683-6.55.417-13.087,2.822-19.358a28.066,28.066,0,0,0,1.736-9.894c-.181-16.36-.152-32.725-.222-49.088-.007-1.631-.316-3.429,1.92-2.585-1.822,1.015-1.477,3.045-1.485,4.827-.034,7.821-.018,15.641-.018,23.461,0,6.953.064,13.9-.021,20.854-.045,3.731.894,4.12,3.239,2.681,2.536-1.556,3.607-3.608,3.556-7.6-.182-14.16-.071-28.327-.071-42.491.32,7.044.294,14.089.344,21.133.009,1.32-.249,3.3,1.345,3.221,1.418-.071,1.426-1.847,1.425-3.3,0-6.806-.05-13.611-.043-20.416,0-.6-.87-1.751.353-1.807,0,11.108.4,22.228-.128,33.265-.408,8.6,4.121,12.816,7.135,18.478a2.25,2.25,0,0,0,1.738.849c3.861.438,7.648.648,10.138-4.712a20.532,20.532,0,0,1,2.7-3.639,145.79,145.79,0,0,1,2.863,19.589c1.728-4.837.894-9.983,2.725-13.9,4.742-10.131,4.331-21.4,4.379-32.646.017-3.575-1.372-3.749-3.431-3.847-2.272-.11-3.4.739-3.324,4.031.1,4.621.226,9.253.1,13.868-.084,3.05.677,6.379-1.105,9.071,1.477-7.956.479-16.053.75-24.077.084-2.462-1.036-3.042-2.533-3.32,5.764.484,11.479-.668,17.161.662,2.055.481,3.57-.434,3.551-3.842a35.815,35.815,0,0,1,.978-9.356,6.77,6.77,0,0,0,.213-3.054,9.107,9.107,0,0,0,.025-1.845c-.034-.191-.1-.368-.142-.551a36.027,36.027,0,0,0,6.264-.291c4.87-.727,4.884-.582,4.885-7.065q0-30.252,0-60.5h.2c.059.873.066,1.745.07,2.618.023,5.725.1,5.844,4.259,5.856,5.819.017,11.638.041,17.458-.005,7.295-.058,7.236.788,7.226-6.63l.4.032c0,19.236,0,37.793,0,56.34,0,2.178-.309,5.08,1.2,5.98,3.192,1.9,2.656,5.373,2.682,8.767.022,2.9,0,5.794.048,8.689.025,1.482.3,2.623,1.513,3.4,3.337,2.126,6.618-.425,6.7-5.586.093-5.645.014-11.3.033-16.945.005-1.439.044-1.439,1.122-2.2h0c-1.045,1.583-.768,3.546-.769,5.387-.016,32.42.048,64.841-.081,97.26-.018,4.546,2.979,7.445,2.738,11.9a1.142,1.142,0,0,0,.693.793c2.491.462,5,1.947,7.314,0,1.054,8.289.869,16.811,1.34,25.309.089-9.109.808-18.142,1.261-27.26.263,1.1.3,2.195,1.372,2.593,4.684,1.742,7.791-1.318,7.8-7.813.005-4.776-.124-9.559.022-14.327.875-28.486-2.154-57.169,2.165-85.971a7.8,7.8,0,0,0,.365,1.733c.506.84,1.989.96.216,2.725-1,1-.935,4.4.062,6.069.636,1.065,1.059.749,1.45.143.156,19.07,1.115,38.125.39,57.474-.087,2.309-.1,4.578-.08,6.829-1.162.025-1.921.936-2.225,3.053a7.277,7.277,0,0,0,2.53,7.064c.425,8.971,1.056,17.763.541,27.013-.421,7.457.189,14.982.189,22.424,0,16.9-.7,34.651.384,50.908-1.042.439-2.653.185-3.256,1.118.054,1.826-.541,3.967,0,5.616.788,1.376,3.158-.646,3.441.228.443,9.268-.736,18.558-.569,28.255-4.509,1.706-6.978,5.725-8.049,12.321-.675,4.24-1.122,10.165,0,13.472,1.7,4.963,5.671,6.9,8.049,9.867.166,25.956.569,54.218.569,80.741,0,9.025.367,18.126,0,26.686a61.014,61.014,0,0,1-1.72,10.31c-.545,2.472-2.371,7.264-1.721,9.875.984,3.949,6.854,3.539,7.845-.451.672-2.675-.722-7.039-1.336-9.87a66.372,66.372,0,0,1-1.728-9.639c-.236-4.3.2-8.974.2-13.457,0-30.291-.087-62.764.189-93.073,6.251,4.429,15.178,3.431,19.727-1.58,4.461-4.9,6.044-13.326,6.324-21.973-3.816-2.288-4.139-9.265-8.43-11.439-1.056-.523-2.4-.432-4.022-1.122-1.892-.8-2.781-3.188-4.4-2.912s-1.648,2.9-3.256,3.365c-2.443.7-3.416-.849-5.743-1.343-1.274-18.42,0-36.927,0-55.394,0-9.268-.2-18.765-.2-28.037,0-9.235,1-18.173.385-27.143-.534-7.718-.066-15.247.356-22.94a15.324,15.324,0,0,0,2.185.4c-.142-1.855-.225-3.7-.432-5.529a9.024,9.024,0,0,0-1.354-4.24c.425-17.135-.984-33.918.2-50,.493-6.734.333-13.442.162-20.153a1.308,1.308,0,0,0,.187-1.189,5.934,5.934,0,0,1-.254-1.534l-.006-.234c-.014-1.548.448-3.015.442-4.544-.039-9.408-.068-18.816.009-28.222.024-2.986-.761-4.021-2.977-3.992-8.034.1-16.07.034-24.1-.127-2.34-.046-3.215,1.215-3.166,4.349q.132,8.465-.027,16.931c-.02,1.167.817,3.063-.931,3.469.955-1.644.661-3.6.663-5.441q.03-26.232.031-52.466c.287,0,.573.005.86.005.043,9.209.127,18.42-.036,27.624-.072,4.043,1.017,5.3,3.871,5.237,7.826-.182,15.657.007,23.485-.113,2.026-.031,2.68.7,2.67,3.666-.093,25.63.079,51.264-.136,76.892-.047,5.546.961,9.873,3.891,13.469.656.806,1.052,2.6,2.192,1.924.89-.53.54-2.063.54-3.164q.023-60.169.057-120.339c.008-4.124-1.191-5.24-3.988-5.068-4.079.249-8.172.063-12.259.063,0-.1,0-.2,0-.3h21.563c-2.191.636-5.162-1.164-5.144,4.793.123,40.4.062,80.8.072,121.207,0,1.278-.164,2.655.516,3.747,1.878,3.015,4.826,3.827,7.086,6.171.793.823,3.228-1.794,4.987-2.136,2.66-.517,4.6-3.894,6.867-4.042,3.788-.247,3.9-2.766,3.9-6.663q-.086-61.254-.035-122.51v-2.294h.025c.281,21.806.276,43.607.3,65.407,0,4.555.978,5.607,3.937,4.841,2.506-.649,1.977-3.328,1.98-5.486q.057-32.505.024-65.012l.608-.025v67.383c1.525-1.108,1.225-3.923,3.139-3.3,2.837.93,3.51-1.254,3.342-4.626-.108-2.161-.1-4.347,0-6.512.124-2.932-.443-4.823-2.942-4.581-1.408.135-2.165-.8-2.164-2.83q.015-22.8.006-45.6h.033q.4,21.56.222,43.114c-.027,3.77.911,5.293,3.686,5.031,1.26-.118,3.145-.95,3.642,1.361.627,2.915,2.049,3.088,3.65,2.833,3.2-.507,3.965,1.575,3.883,5.564q-.249,12.154-.02,24.325c.226,12.044.136,9.074,7.522,11.034.1.027.212.009.316.034,1.759.426,2.6-.51,2.486-3.023-.063-1.442,0-2.894,0-4.342v-87.224l.28-.017v3.33q0,42.792.022,85.583c0,1.962-.45,4.092.655,5.84.24.379.709.4.057,1.115-1.972,2.178-.469,2.653.933,3.108a19.726,19.726,0,0,0,9.776.429c.809-.146,2.076-.356,1.977-1.673-.386-5.115,2.366-3.929,4.333-4.28,5.793-1.033,6.016-1.341,6.031-9.384q.021-10.862.005-21.722v-63.279l.682,0v74.5l.97-.008v-73.5c.545,33.885.547,67.766.538,101.646,0,.863.139,2.093-.206,2.53-3.384,4.28-.14,4.611,1.75,6.01a6.264,6.264,0,0,0,3.039.854c2.271.431,4.823.3,6.723,1.732,3.736,2.821,7.447.661,11.142.937.67.051,1.779-.977,2.019-1.851.92-3.342,2.928-3.31,4.947-3.572a46.52,46.52,0,0,0,5.025-.934c1.8-.44,2.953-1.693,1.382-4.055-.96-1.444-.78-2.888-.781-4.423-.013-16.8.055-33.6-.073-50.393-.023-3.147.427-4.659,2.9-4.344,1,.128,2.36.3,2.654-1.547.679-4.247,2.611-7.912,2.259-12.714-.44-6.022.029-168.628-.168-174.7C1658.3,1569.351,1648,1538.317,1636.344,1530.717Zm-204.2,252.3c-1.694,0-3.388.006-5.082.006a30.079,30.079,0,0,1,4.861-.4C1432,1782.757,1432.072,1782.889,1432.148,1783.018Z"/><path class="cls-1" d="M1480.1,1726.474a5.358,5.358,0,0,0-.111-.949,1.81,1.81,0,0,0-.977-1.361,5.467,5.467,0,0,0-.858-.316,3.293,3.293,0,0,0-.873-.121,2.216,2.216,0,0,0-1.629.7,2.462,2.462,0,0,0-.368.48,2.878,2.878,0,0,0-.248.541,5.937,5.937,0,0,0-.251,1.866c0,.22,0,.44,0,.662s.009.441.011.66,0,.435-.007.647c-.609,16.907.9,33.941-.321,50.6.08-17.367.008-34.734.062-52.1h0a8.546,8.546,0,0,0-.178-1.931c-.367-1.571-1.306-2.111-2.884-2.053q-1.228.045-2.458.078c-2.46.062-4.922.064-7.375-.105a4.03,4.03,0,0,0-1.663.177,2.344,2.344,0,0,0-1.414,1.505,6.85,6.85,0,0,0-.354,1.892q-.041.567-.035,1.229h0q.068,13.245.054,26.492t-.006,26.491c0,.483-.031,1-.03,1.5,0,.168,0,.335.015.5a2.847,2.847,0,0,0,.566,1.718,6.508,6.508,0,0,1,1.418,4.491c0,.6-.034,1.2-.07,1.8q-.018.3-.035.6c-.023.4-.04.8-.043,1.2,0,.2,0,.4.008.594s.019.394.038.589a9.12,9.12,0,0,1-.114-1.467c0-.168,0-.337.005-.506.018-.848.084-1.71.078-2.528a9.554,9.554,0,0,0-.048-.955,3.96,3.96,0,0,0-.722-2.047,6.34,6.34,0,0,1-.5-.753,7.012,7.012,0,0,1-.829-3.106c-.033-.532-.033-1.071-.029-1.619,0-.274,0-.551,0-.829h0q-.019-13.029-.024-26.058t.032-26.058h0c.009-3.044-.4-4.86-3.1-4.9-2.209-.035-3.259.7-3.585,3.053-.05.362-.083.762-.1,1.2-.009.22-.013.451-.014.692q-.045,9.6-.007,19.187.075,19.185.465,38.36.193,9.59.46,19.176c.032,1.156.1,2.332.121,3.5a21.557,21.557,0,0,1-.167,3.436c-.489,3.4.772,6.172,1.6,9.086.15.53.286,1.064.394,1.608a12.359,12.359,0,0,1,.257,2.523,1.335,1.335,0,0,0,.343.9,1.352,1.352,0,0,0,.77.434c1.31.218,1.746,1.192,1.78,2.684,0,.213,0,.437-.009.67s-.011.479,0,.715a10.861,10.861,0,0,0,.295,2.059c.209.892.5,1.757.794,2.61a6.973,6.973,0,0,0,2.721,3.763,5,5,0,0,0,1.92.723,5.769,5.769,0,0,0,2.17-.093,3.953,3.953,0,0,0,2.489-1.675,6.389,6.389,0,0,0,.928-2.439q.051-.276.088-.561a14.126,14.126,0,0,0,.107-1.766c0-.2,0-.4-.008-.605q-.064-2.166-.086-4.325a168.105,168.105,0,0,1,.662-17.154c.4-4.258.98-8.491,1.792-12.7-.025.359-.035.73-.034,1.109,0,1.514.175,3.143.16,4.587a6.665,6.665,0,0,1-.493,2.807,18.876,18.876,0,0,0-1.649,8.53c0,.863.013,1.727.029,2.592,0,.289.01.577.014.866s.007.576.007.865,0,.577,0,.865c-.014,1.031-.024,1.933-.021,2.72,0,.393.007.758.017,1.1.1,3.371.7,4.005,3.175,3.456.743-.164,1.656-.435,2.775-.77,1.166-.349,3.1-.245,3.047-2.339a26.04,26.04,0,0,1,.782-6.111c.105-.5.21-.992.309-1.49a22.29,22.29,0,0,0,.513-4.625h0c-.078-7.165-.191-14.337-.214-21.506s.043-14.332.322-21.478c.277-7.094.306-14.18.295-21.263-.006-3.542-.022-7.083-.022-10.624,0-.885.005-1.77.008-2.656.007-2.655.022-5.311.066-7.967,0-.16,0-.323,0-.487S1480.107,1726.638,1480.1,1726.474Zm-5.67,56.289c-.013.138-.034.275-.053.412-.013.088-.021.177-.036.265-.032.194-.072.386-.115.578-.006.026-.01.054-.016.08-.05.218-.106.434-.166.649h0c-.008.031-.015.063-.024.094-.358,3.269-.825,6.523-1.47,9.755l0,.013a6.018,6.018,0,0,0,.037-.834,2.334,2.334,0,0,0-.053-.4,8.076,8.076,0,0,1-.183-1.195c-.012-.157,0-.307,0-.461,0-.227-.017-.457,0-.679.012-.2.046-.4.071-.6.021-.164.032-.331.06-.492.044-.244.1-.483.161-.723.027-.11.046-.223.075-.332.089-.333.189-.662.294-.989l.009-.028c.331-1.02.718-2.018,1.01-3.037l0-.021c.007-.025.016-.049.023-.074q.255-2.358.428-4.727c0,.681,0,1.362-.007,2.043C1474.465,1782.3,1474.452,1782.532,1474.431,1782.763Z"/><path class="cls-1" d="M1399.176,1900.44c-.239-8.56-.036-48.475-.036-57.5l-.9,5.391c0,4.483.218,48.032.065,52.338-.112,2.984-.653,6.364-1.118,9.638-.4,2.828-1.3,7.192-.868,9.867.643,3.99,4.451,4.4,5.09.451.421-2.611-.766-7.4-1.118-9.875A91.554,91.554,0,0,1,1399.176,1900.44Z"/></svg>