<svg id="planes" xmlns="http://www.w3.org/2000/svg" viewBox="0 0 2916.56 2444.7"><defs><style>.cls-1{fill:#f58235;}</style></defs><path class="cls-1" d="M926.78,323.34a1.61,1.61,0,0,1-.38,2.32,1.58,1.58,0,0,1-2.28-.18,1.71,1.71,0,0,1,.35-2.29,2.06,2.06,0,0,1,.49-.32c.66-1.25,1-.28,1.57-.54l-.66.43A1.59,1.59,0,0,1,926.78,323.34ZM950,186.21a1.52,1.52,0,0,0,.81-.14,6.81,6.81,0,0,0,1-.42.29.29,0,0,1,0-.09,7.71,7.71,0,0,1-1,.45c-.19.07-.71.27-.89.08s.07-.56.16-.73a7.9,7.9,0,0,1,.87-1.13,22.15,22.15,0,0,1,2.39-2.25l-.14,0-.7.61A13.52,13.52,0,0,0,950,185.2C949.81,185.48,949.47,186.09,950,186.21Zm385.91,474.9h0l-32-42.9-.11-.15a40.93,40.93,0,0,1-2.93-3.94l-4.52-6.07c.06.16.08.28,0,.35-5.64-7-12.62-15.82-18.73-24,3.12,3.3,4.64,6,8.78,10.7q2.89,3.69,5.79,7.41l.1.12-6.62-8.88c-.15-.18-.31-.36-.45-.54-3.5-4.45-5.74-7.85-8.09-10.53-.2-.42-.46-.9-.77-1.42L1268.07,570c-.66-.75-1.6-2-1.81-1.9A28.47,28.47,0,0,0,1264,565a27,27,0,0,1,2.41,2.73l-41-55c-1.36-1.74-2.71-3.45-4-5.07-3-4.09-7-9.31-9.11-11.84-.88-1.53-3-4.1-4.16-5.87l-5.79-7.41c-10.23-14-20.62-26.62-31.49-40.68-4-5.14-9.39-12-13.88-17.94,2.25,2.54,4.72,5.51,6.92,7.94,4.16,5.46,7.64,9.57,11.66,14.75a15.65,15.65,0,0,0,1.93,1.85l-39.26-52.71-27.55,14,.75,1.07c.27.29.34.77-.08,1.74h0l0,0,8.18,8.72h0l.1.1,2.63-.08a2.64,2.64,0,0,1,1.57.27l.47.38c.42.33.42.58-.11.67l-3,.6,7.55,8c1.39,1.68,1.13,1.6,1.1,1.75l-9.74-9.48-.41.07c9,11.22,17.19,21.23,27.47,34.16,5.64,6.4,13.74,16.69,20.84,25.4,2.71,3.53,4.48,6.07,8,10.43-.32-.16-1.68-2-1.83-1.91,1.65,2.63,1.93,2.23,3.44,4,2.91,3.52,7.45,9.29,13,16.49-1-.77-4.6-5.82-5.16-6a106,106,0,0,0,7.17,9.4c1.32,1.95,4.69,6,5.46,7.41,4.63,5,13.85,17.47,18.6,23.81,11.87,15,22.6,28.24,30.14,38.15,5.18,6.25,12.48,15.84,16.59,20.38,3,3.65,3.68,5.19,5.66,7.25a14.34,14.34,0,0,0-1.51-2.15c1.37,1.15,3.52,4.67,4.75,6.29,6.07,7.81,11.85,15.17,16.38,20.55,0-.46-2-2.93-2.92-4.39.27,0,2.93,3.93,3.94,5.26,5.21,6.94,10.77,13.14,13.85,17.52,1,1.24,1.79,2,1.93,1.83,18.72,23.08,32.75,42.27,50.86,65.31a37.46,37.46,0,0,1,3,4.3c13.17,16.39,25,31.87,36.92,46.88l-1.39,1.06c-3.56-4.62-7.3-9.49-9.87-13-.26-.17-.23.13-1-.87-.1-.3.18-.19-.6-1.2-.82-.25-3-3.86-5.87-7.09.3.26,2.41,2.27.42-.32-.32.75-3.81-4.93-5.27-5.89-2.58-3.52-4.18-5.8-8-10.43-1.17-1.92-7.58-10.06-7.48-9.16,6.76,8.38,12.65,16.71,17.79,22.78a38.38,38.38,0,0,0,3,4.3c6.19,7.84,11.69,15.61,16.28,21.28l-1.5,1.14a22.44,22.44,0,0,0-3-3.29c1.07,1.37.56,1.09,1.42,2.24.16-.07.69.46,1.33,1.24q-6.56,4.92-13.23,9.68L1368.12,772c-1.33-1.65-1.29-1.86-2.32-3.19l-5.66-7.24c-12.7-16.69-21.67-29.48-34.56-46.37-.84-1.38-2.93-4.07-3.74-5.42-6.22-8-10.87-14.27-16.78-21.9.15-.41,2.94,3.34,2.24,1.59-1.64-2.79-6.72-9.18-7.37-10.92q-5.1-6.66-7.68-10.67l-4.85-6.22c-2.88-4.33-6.21-9.14-10.6-15.06,1.4,1,5.44,7.26,8.79,11.47,3.78,4.43,10.35,13.29,14,17.44-6.29-9.28-16.86-23-24.75-34,.92.52-2-3-1.1-2.48-4.77-6.12-7-9.64-12.74-16.73a125.34,125.34,0,0,0-7.78-10.59c-1.36-1.9.07-.3.31-.24-.56-.91-2.15-2.88-2.22-3.27-3-3.85-2.76-3.22-3.94-5.26-4.77-6-9.4-12.23-12.13-15.53,1.15.78-.79-1.7-2.93-4.38a28,28,0,0,0,2.32,3.19c-2.45-2.83-8.27-10.79-12.94-16.57-5.1-6.27-10.27-12.67-16.38-20.54,3.49,3.82,8.14,10.29,13.25,16.32-.94-2.05-8.13-10.65-11.93-15.69,5.46,6.19,15.26,19.24,22.86,28.83,1.34,1.79,1.6,1.89,1.82,1.91,2,2.46,1.57,2.39,3.94,5.25,1.68,1.32-1.88-2.85-2-3.42-3.48-4.54-3.71-4.78-5.56-7.33-4.33-5.5-6.25-7.79-9.6-12.51-7.06-9-12.41-15.69-18.61-23.81-2.26-3.11-2.3-3.61-3.73-5.42-28.12-36.42-58.62-76.62-88.76-114.52l-.07.07-7.26-8.32a8,8,0,0,1-3.22-1,.76.76,0,0,1-.23.24l0,0a.34.34,0,0,1-.21.06h0a.4.4,0,0,1-.2-.09l0,0a1.75,1.75,0,0,1-.32-.4,2.55,2.55,0,0,0-.18-.59,1,1,0,0,0-.07-.15,4,4,0,0,0-.2-.35l-.09-.14-.3-.32,0-.06-.13-.1a3.88,3.88,0,0,0-.31-.26l-1-.56h0c-1.57-.93-3.17-2-4.81-3.14-.22.26-.12.8-.07,1.29l-.38.25a6.56,6.56,0,0,1-.64-2.36,54.22,54.22,0,0,1-6.66-5.61c-.23.16-.42.25-.52.22a.87.87,0,0,1,0-.7,68.5,68.5,0,0,1-6-6.6c-3.16-4.08-6.34-8.14-9.47-12.23-3-3.9-5.9-7.81-8.82-11.74l-1.28-1.73a41.31,41.31,0,0,0-4.14-5c-1.55,1-3.8-.18-4.9-1.47s-2.17-2.71-3.17-4.13-1.94-2.88-2.86-4.35c-.12-.21-.22-.41-.31-.61l-.06-.16a3.89,3.89,0,0,1-.16-.44,1.05,1.05,0,0,1,0-.19c0-.13-.07-.26-.1-.39l0-.19,0-.37c0-.07,0-.13,0-.2s0-.24,0-.36,0-.12,0-.19.05-.25.08-.37l0-.16a5.17,5.17,0,0,1,.18-.51l0-.1.18-.35h0a.25.25,0,0,1,0-.07c0-.08-2.88-3.85-3.17-4.2a23.23,23.23,0,0,1-2.87-3.87c-1.44-2.77-2.55-7-1.65-10.09a4.16,4.16,0,0,1,.41-1l.05-.08a2.12,2.12,0,0,1,.33-.39l.07-.07a1.63,1.63,0,0,1,.4-.24s0,0,.07,0a1.65,1.65,0,0,1,.5-.11c.43,0,.94,0,1.49,0l.56.05h.06a15.47,15.47,0,0,1,2.09.34h1.9l.16,0c1.42.09,5.56,2.13,7.18,3.47l7.83-3a1.64,1.64,0,0,1,.45,0h.12a1.44,1.44,0,0,1,.41.15l.11.06a1.94,1.94,0,0,1,.29.21l.08.07a3.47,3.47,0,0,1,.32.34l-6.64,4.37h0l0,0c2.58,2.72,4.9,5.38,7,8q17.15,21.47,34.29,43.42l1.14-.28.41.56-1,.31,2.41,3.22,7.85,4.58c4,2.37,6,2.54,10.47,1.85l21.83-2.33-20.11-27-1.6-2c-2.07-2.6-4-5.27-6.13-7.85-3.69-4.56-7.42-8.76-10.57-12.8-3.69-5.14-6.4-8.35-10.56-13.51-1.45-1.63-2.93-3.27-4.44-5a29.83,29.83,0,0,0-3.83-4.72c-4.68-6.2-8-10.08-13-16.5,2,2.08,5,6.07,7.16,8.44-.21-1-2.67-3.32-4.34-5.73-.34-.53-1.07-1.51-1-2-5.76-8-9.19-11.39-13.63-17.44-2-2.52-3.14-3.71-4.42-5.66-1.11-.91-3.29-4-4.7-5.46a72.55,72.55,0,0,0-7.16-8.44c-.68-1.05-3.3-4.25-4.52-5.6-3.61-4.7-4.78-5.85-8.6-10.83-3.1-3.58-6.71-8.19-10.39-12.94-1-1.41-1.36-1.41-2.47-3-1.17-1.34-.18-.82-1.1-2-1.23-1.49-2-2.58-2.82-3.72a29,29,0,0,1-3.1-.32,6.55,6.55,0,0,1-3.17-2.28l-.86-.48.16-.34c-.92-1.19-.35-1.87-.35-1.87l1-1.6c-5.86-4.34-12.82-9.68-17.1-13.54-.4-.25-.77-.44-.77-.44-.86-.62-7-4-7-4a24.12,24.12,0,0,1-3.74.44h0c-.74.06-1.4.12-1.79.18-1.15.2-6.94.08-9.1.3s-2.87-.41-2.87-.41-1.07-.81-1.92-1.54a3.58,3.58,0,0,1-1-1.77l0-.16c1.2-2.28,2.41-4.55,3.62-6.83a2.52,2.52,0,0,1-.23-2.47,8.21,8.21,0,0,0-1.09.47,3.26,3.26,0,0,1-1.14-1.28c-.1-.54.53-1.06.53-1.06a.13.13,0,0,0,0-.1,6.13,6.13,0,0,0-.51-.51l-.16-.21c-.36-.47-1.17-1.61-1.52-2.15l-.19.15s0-.08,0-.12l.14-.11a.63.63,0,0,0-.07-.12,1.56,1.56,0,0,1-.19-.64,1.66,1.66,0,0,1,0-.25,6.51,6.51,0,0,1,.93-1.15c-.18-.29-.39-.61-.5-.81-.23-.39.15-.86.58-.45l.68.55a3.33,3.33,0,0,1,1.44-.86h.07a3.62,3.62,0,0,1,.7.39l.56-.6L956.51,179c-.55.41-1.09.84-1.61,1.29h-.14c.31-.26.62-.53.94-.78.07-.05.35-.28.75-.57l-.19-.23a26.65,26.65,0,0,1-3.7-5.5,7.9,7.9,0,0,1-.62-3.36,2.09,2.09,0,0,1,2.44-1.61,23.1,23.1,0,0,1,4.26,1.37l1-.32h0l.19-.07c3.19.27,5.95,2.7,8,4.51,1.14-.74,2.36-1.36,2.48-.7a1.4,1.4,0,0,1-.24.85,9.63,9.63,0,0,1-.76,1.16c1.19,1.12,3.35,3.39,5.43,5.63l-.16-.23a9.91,9.91,0,0,1,1.08,1.23c.79.84,1.54,1.66,2.19,2.38,11,.21,32.5.7,32.46.76a9.57,9.57,0,0,1,3.55.95,3.76,3.76,0,0,1,2.11,2.6,3.11,3.11,0,0,1-2.63,3.81s-14.26,3.7-21.46,5.67h0l-1,.26c1.47,1.74,6.88,8.26,7.35,8.78s4,4.42,5.15,5.08,2,.34,5.19-.4c3-.68,4.17-1.52,6.36.84.16.17.32.36.49.56,0,0,1.91,2,1.29,3.3-.3.62-1.46,2.78-2.64,4.89,1.8.78,3.76,1.92,4.51,3.64,0,0,1.26,2.13,0,2.22l-6.12-.08s-1-.59-1.69-1c-.12,0-.17.09-.17.28a3.36,3.36,0,0,0,.32,1c.12.38-.43.07-.89-.08,0,0-.37-.24-.9-.61,6.77,8.9,14,16.57,20.43,25.3.87.93,2.11,2.59,2.9,3.35,1.44,2.07,3.4,3.88,3.83,4.73a51.66,51.66,0,0,1,4.41,4.84l0,0,0,0c1.19,1.43,2.42,2.93,3.59,4.31,5.36,7.11,12.59,15,18.06,22.39,7,8.12,15.08,18.38,22.34,26.77.08-.08-.34-.59-.59-.94,6.21,6.77,14.35,17.43,21,25,1.1,1.28,1.15,1.66,2,2.68,10.38,12.85,20.51,25.52,28.19,35.54.88,1.14,1.84,2.16,2.81,3.41l15.33,19.62c.51.65,1.21,1.37,1.79,2.11s1.08,1.58,1.61,2.25c8.9,11.16,18.34,23.2,27.6,34.59,3,4,3.82,4.88,7.49,9.59,4.64,6.5,12.08,15.89,17.37,22.23,4.62,5.81,9.84,12.81,14,17.8,1.86,2.79,5.39,7,6.81,8.72,6.81,8.86,15.3,19.23,23.25,29.57.52.72.67.69,1.11,1.24,6.7,8.73,10.88,13.24,17,21.15.53.72.67.68,1.11,1.24,10.7,13.68,22.11,27.33,32.11,40.19,9.14,11.21,15.54,19.78,24.79,31.17,2.16,3,8.49,10.72,12.26,15.7,5.93,7.42,13.56,16.92,18.56,23.39,7.27,9.19,16.27,20.59,22.23,28.27,5.07,6,7.28,9.56,12.09,15.11l7.15,9.16c.53.72.67.68,1.11,1.24l11.07,14.17-14.64,11L1355,686l-.23-.23c-.41-.54-.86-1.15-1.33-1.79l-4-5.16a6.6,6.6,0,0,0-.49-.46c-.6-1-2.12-2.83-3-4.12l-2-2.62c-1.76-2.17-3.52-4.46-5-6.47-.58-.75-1-1.08-1.2-1.17-.56-1.07-2.43-3.24-3.65-4.87-1-1.38-1.16-1.16-2.13-2.54-1.88-2.75-2.86-3.87-5.28-7.11C1329,652.13,1332.4,656.68,1335.92,661.11ZM1069.51,303.44l-13.32-17.87c-1.92-2.26-3.93-4.61-5.94-7.05-.57.43,2.9,4.32,4.75,6.82,2,2.21,4.57,5.7,6.4,7.64l5.79,7.41c.8,1,1.26,1.65,1.18,1.88A11.78,11.78,0,0,1,1069.51,303.44Zm17.76,23.85-4-5.42-1.68-1.82A84.47,84.47,0,0,0,1087.27,327.29Zm19.63,20.45c-.11-.17-.17-.3-.14-.35l-1-1.15ZM1151,403c-.29-.43-.71-1-1.12-1.52,0,0-.12-.06-.23-.17Zm9.55,12c-.72-.92-1.42-1.82-2.07-2.67q-.37-.4-.75-.87Zm19.37,24.28c-1.72-2.32-4.67-6.08-6.28-7.91-1.58-2.15-2.94-3.79-4.43-5.52Zm6.13,7.67c-.67-.86-1.44-1.9-2.7-3.51a5.3,5.3,0,0,0-.49-.48Zm10.65,13.35c-2.42-3.11-4.9-6.18-7.81-10-.64-.7-1.12-1.25-1.55-1.77Zm140.77,316.82c1.66,2.25,3.72,5,5.81,7.7l-10.14,7.13c-7.25-9.4-14.47-18.84-21.12-27.35-4.35-5.58-11.22-14.11-17.21-22-4.6-5.87-7.29-9.19-11.17-14.41-16-20.7-26.35-34-40.88-52.93-3.18-4-4.27-5-8.41-10.4-2.78-3.64-3.75-5.21-4.89-7l-3-4c-9.23-12-22.27-28.24-27.34-35.52-2.85-3.38-5-6.47-7.6-9.49-5-6.7-13.73-17.68-17.68-23.22-2.24-3-2.78-3.45-4.55-5.7-4.25-5.78-12.24-15.78-15.42-20.35-2.64-3.09-6.74-8.62-8.93-11.55-3.81-4.72-5.69-7.15-8.92-11.54-4.5-5.49-6.66-8.74-11.91-15.38-2.24-2.86-2.4-3.37-4.32-5.88-3.12-3.87-3-3.88-6.74-8.63-1.25-1.64-1.46-1.77-1.61-1.82-1.48-1.84-.83-1.61.92.82.23.09-4.77-6.36-3.8-4.74-1.24-2-5.42-7.14-6.56-8.77l-9-11.49c-1.87-2.38-2.23-3-3.63-4.89l-21.65-27.83c-1.59-2-1.94-2.57-2.93-3.88l-6-7.66c-.46-.78-3.68-4.68-2.82-4,1.71,2.42,6.25,8,8.12,10.63,1.5,2,4.14,4.8,6.79,8.57,1.68,2.14-.82-1.35.3-.23.84,1,2.19,2.69,2.85,3.41L1041.29,412c-4.61-5.94-9.29-11.9-13.84-17.58-8.82-11.85-18-23.54-28.09-36.68l-24.71-31.62c-2.95-3.9-6.49-8.47-10.42-13.46-1.73-2.26-3-4-4.37-5.85-4.77-5.9-9.06-11.82-13.25-17.17l-4.6-2.92L933.34,298c.89.64,1.51,1.1,1.76,1.31,1.19,1,3,3.93,4.5,7a3.52,3.52,0,0,1,3.7,1.37c2.68,3.19,2.43,7.79-2.74,13.33,1.09,1.24,2.05,2.37,2.74,3.22,2.59,3.2,3,5.67,2.12,5.87,21.11,30.08,45.55,58.31,67.31,87.34L1023,430.5a7.77,7.77,0,0,0-.48-1.44c4,7.5,5.53,5.88,8.52,9.38l4.09,7.52,3.94,5c.42-.09-.23-1.49.12-1.47,14.65,18.1,27,37.19,39.59,51.29a8.57,8.57,0,0,1,1,2.1l5.79,7.39c3.92,4.7,8.54,10.54,7.87,8.62a40.66,40.66,0,0,0,3.18,5.46l72.26,92.12-1.61-3.47,8.8,11.5c1.92,2.25,2.39,2.94,2.28,3,.92,1.25.3.93.61,1.82l8.8,11.21c1.19,1.13,2.3,2.06,4,3.7L1191,643l4.22,5.19c2,2.55-3.64-3.7-5.19-4.74l5.9,7.52c2.34,2.2,5.29,5.36,6.4,7.71a30.59,30.59,0,0,0-3.81-4.41l6.63,8.45-.36-1.46c8.54,11,17.07,22.31,25.71,33.78L1293,774.7c5.85,4.42,14.11,17.12,23,29.29l-7.6,5.34c-.09-.17-.2-.39-.35-.66l-8-8.52-1.21-.29c-2.56-3.27-8.39-9.85-11.68-15.09l-39.07-50.47c1,1.87,1.55,3.09-4-3.82a74.46,74.46,0,0,0-4.17-6.75l-4.74-6.13c-.46.09,2.28,4.3,4.16,6.73-5.33-6.6-7.61-10.26-9-13l-11.69-15.11c-.51.06-.1,1.11,5.46,8.21-5.87-6.44-9.24-14.48-15.79-20.87l1.35,1.06-18.56-24c-.26-.18-.51-.36-.78-.52a5.18,5.18,0,0,0,.6.29L1107.9,553.25l-2.58-3a10.78,10.78,0,0,0,1.07,1L1070.7,505.2c-14.15-16.75-29.5-37.45-43.21-54.07l4.51,6.41c-2.26-3-10.58-12.23-14.31-18.23,1,1.16,2.76,3.06,3.58,4.22.24-.4-.32-2.08-2-4.84l-2.73-3.52-1.57-.92L1014,432c-5.45-7,.6,2.84-4.86-4.16-1.17-5.66-23.26-30.33-26.2-37.75-5.17-3.62,10.13,13.4,4.73,9.22a78.5,78.5,0,0,0-5.35-8.12l.35,2.25c-16-21.55-21.61-30.21-36.51-48.91l.78.61c-4.91-7-7.89-10.47-11-12.87-.68-1.72,3.31,2.95,1.63.06a54,54,0,0,1-5.58-5.75,3.07,3.07,0,0,1-1.66-1.37c-1.23-1.74-1.51-2.23-2.79-1.88a6,6,0,0,0-1.69-1.72,3.11,3.11,0,0,0-.63-3.34,260,260,0,0,1-18.83-27.05l-.06-.1-10.61-9.75a4.89,4.89,0,1,1-3.31-2.31l.35-.41-4.47-4.11c-.18-.26-.41-.62-.7-1.07l-1.92.51a4.89,4.89,0,1,1-1.13-3.45,3.07,3.07,0,0,1,.27.36l.95-.36c-2.32-3.78-5.29-8.8-5.76-10-.7-1.84,0-2.43,1.54-1.18l1.74,1.42a12.25,12.25,0,0,1,1.09-1.06c1.31-1.16,5.1-4.87,7.13-6.82l1.25-1.87c-.21-.56-.45-1.18-.7-1.82l-5.46,2.93.13-.33-.19.11a12.71,12.71,0,0,1,4-5.08l-1.94-1.34-5,1.69.16-.3-.23.08a15,15,0,0,1,2.81-3.48c-.25-.57-.12-1.17.58-1.85a1.3,1.3,0,0,1,1.78-.11,19.61,19.61,0,0,1,4.15-2.38,2,2,0,0,1,1.48-1.5c.73-.25,1.1.17,1.29.91.58,0,1.19-.06,1.81,0a2.09,2.09,0,0,1,2-1.31c.71,0,.84.61.67,1.48.65.07,1.27.16,1.84.27a1.63,1.63,0,0,1,1.85-.31.63.63,0,0,1,.38.67,1.87,1.87,0,0,1,1.2.55c1.32,1.19-1.13,3.3-3.09,5-.6.52-1.34,1.23-2.08,2l23,12.56c-3.07-4-5.53-7.08-8.76-11.13-1.67-2.38-7.19-9.1-6.5-8.8,5.16,6.56,10.4,13.37,15.61,20.12l.64.36L912.54,245c-16.87-21.82-38.18-49.27-54.35-70.4l-4.51.62s-2.12-2.47-2.17-3.13a1.32,1.32,0,0,1,.43-1.28c.26-.25,1.23-1.37,1.78-2-2.78-1.74-5.38-3.37-6.12-3.82a11.09,11.09,0,0,1-1.05-.75l0,0-.33-.27-.06,0-.29-.25-.1-.09-.24-.22a.86.86,0,0,1-.14-.13l-.14-.12-.46-.43h0c-.76-.73-1.34-1.34-1.41-1.42h0l0,0c-.36-.21-6.54-3.68-8.13-5.15a28.83,28.83,0,0,0-3.41-2.5l.2.48-3.45-.55.1.51-.69.57s-.69-.66-1.31-1.3l-1,.15c.09.4.14.73.14.73l-.62.55-.81-1.08-.92.14h0a13.93,13.93,0,0,1,.36,2.48l-.44.23s-1.14-1.43-1.39-1.84l-.38-.59-.92.2,0,0a14.58,14.58,0,0,1,.37,2.38l-.36.23s-1.24-1.7-1.47-2.08l-.12-.23-1.1.23c.1.82.24,2.31.24,2.31l-.24.18s-1.08-1.41-1.3-1.79-.43-.63-.73-1.14l-6.11,1.95L809.1,158l-.34-.32c-.06,0,.08-.44,0-1.07a4.13,4.13,0,0,0-.67-1.53l.11.06a7.12,7.12,0,0,1-1.41-1.54,5.49,5.49,0,0,1-.4-1.31l9.15-11.87,2.81-5.17c-.79-1.36-1.38-2.41-1.38-2.41s-5.06-5.24-8.43-9.39h0l0,0a18.44,18.44,0,0,1-2.89-4.27c-.82-2.65-.06-4,.38-4.4.73-.73,3.08-.46,3.08-.46a20.72,20.72,0,0,1,3.29-.21c1.72,0,7.1,3,9.52,5.44,1.94,1.92,9.35,9.88,17,18.16l54.94,16.06a15.1,15.1,0,0,1,2.78,1.38,4.68,4.68,0,0,1,1,1,.86.86,0,0,1,.07.1l2.79.61.33.23-1.31.48-.58,1.88a1.08,1.08,0,0,0-.3-.09,13.41,13.41,0,0,1-.42-1.83l-.06-.13,0,.15-21.19-3-1.81-1.91-.12,0a3.72,3.72,0,0,1,.24.35l.13,0,1.59,2.6.62.69,1.84,2.07L870.25,166h0l-4.59,3.79-.83-1.18,1.31,2.08,8.27,10.64c6.05,7.43,11.76,14.74,20.79,26.32,2.07,2.75,2,2.42,3.81,4.75l46.22,59.16c1.86,1.05,3.23,1.84,3.92,2.26a20.39,20.39,0,0,1,8.5,10.13,28.46,28.46,0,0,1,1.54,5.48l10.18,13c8,10.33,14.77,19.21,21.65,27.83,1.82,2.71,3.94,5.05,6.62,8.72,12.69,16.25,17.6,22.49,27.58,35.54,10.6,13.31,23,29.61,36.62,47l57.34,74,24.71,31.62c2.16,2.67,1.85,2.54,3.68,4.83l9.73,12.46c2.16,2.67,1.86,2.54,3.68,4.83l29.89,38.38c14.51,18.74,27.36,35.7,42,54.68h0c7.85,10.19,16.21,21,25.61,32.92,11.92,15.66,28.38,36.58,43.18,55.75,6.28,8,11.58,14.89,16.35,21.17,5.63,7.2,7.66,9.62,11.17,14.42C1332.24,770.54,1334,772.5,1337.45,777.07ZM818.07,152.16l-.12-.27-1,.4h0l.12.24Zm2.25-.87c0-.11,0-.22-.07-.34l-.78.32.18.28Zm2.17-.91a2.63,2.63,0,0,1-.08-.3l-.53.21.17.28Zm1.84-.79c-.08-.15-.12-.24-.12-.24h0l-.25.1.15.23Zm4.25.11-.2-.24-1.93-.48c.07.11.15.21.22.33Zm43.09,5.46L870.2,155l.14.31,0,.18Zm-3.38-3.55.23.3,4.53.71a3.24,3.24,0,0,0-.17-.32Zm-13.65-2,.29.45,4.67.62-.18-.35Zm3.42,9.19h0l10.83-2.87c-.17-.23-.41-.61-.69-1.08l-1.72-.17-1.66-3.31,1.55.24c0-.09-.1-.18-.14-.27l-4.69-.7.22.33,2.71.36,1.63,3.29-2.54-.21c.08.2.14.33.14.33l.45,2.09-.19.33a8.85,8.85,0,0,1-1.68-1.8c-.16-.22-.41-.61-.7-1.11l-5-.41.18.53-.37.72a16.71,16.71,0,0,1-1.41-1.38l-1-.08-2.08-4,1,.13c-.07-.16-.14-.31-.2-.47l-1-.14-2.15.2.32.34,1.62-.1,2.17,3.91-.31,0C855.79,156.18,857.51,158.1,858.06,158.76Zm58.67,90.45-16.38-21.4c-3.86-4.94-7.59-9.72-10.19-13.16-11.93-15.2-21-27.14-31.27-40.15l-.65.09c3.28,4,8.85,11.34,12.85,16.38.4.19-4.25-5.32-2.82-4,4.88,6.14,7.29,9.51,11.92,15.38-.72-.75-2-2.31-3.86-4.7,4.21,5.62,11.83,15.45,17.91,23,0-.23-2.5-3.27-2.88-3.92C900.33,228.11,908.63,238.77,916.73,249.21ZM888.51,261l2.17-1.07c.31-.81.66-1.74,1-2.67a3.43,3.43,0,0,1,0-1.08C890.56,257.9,889.3,259.8,888.51,261Zm3.57,2.35c-.59,1.36-1.38,2.43-2.24,2.4-1.13,0-.78-1.84,0-3.82l.24-.58-3,1.58-.45.49c1.41,1.12,3,2.4,4.77,3.74.2-.36.41-.72.63-1.1a13.81,13.81,0,0,1,0-2.29C892.07,263.61,892.07,263.47,892.08,263.32Zm1,5.11c-.26-.47-.46-.86-.62-1.16l-.28.48.3.22.27-.1.28.53Zm2.86,1.95-.27-.18-.08-.06-.29-.21-.07-.06-.28-.23-.05,0-.28-.24-.07-.06-.28-.25-.08-.07-.28-.25-.35-.33a6.4,6.4,0,0,1-1.07-1.19l0,0a19.14,19.14,0,0,0,2.32,2.35A8.62,8.62,0,0,0,896,270.38Zm.3-27.55-.55.19c0,.22,0,.46,0,.7l.36,0C896.14,243.39,896.19,243.11,896.25,242.83Zm3.61-1.21-1,.33c0,.06-.05.12-.07.17-.22.51-.46,1.13-.7,1.79l.33.1ZM914,275.31Zm10.49,16.48L933.08,281c-2.14-1.39-4.17-2.71-5.94-3.9a10.34,10.34,0,0,0-1.79-3.87l0,.17-.07-.23c-.29-.42-.59-.81-.89-1.17l-7.24.06a1,1,0,0,1,.4.31c.54.64.09,1.24-.37,1.69s-1.07.76-1.18.69l-.07,0h-.09c.07.1-.19.19-.29.3a1.46,1.46,0,0,1,.35.77c.07.07.14.13.2.2a4.15,4.15,0,0,1,.48.57l2.9,2.16-1.4,2.84c.07.31.17.63.28,1l.07,0c.06-.14.13-.28.18-.37s.31-.26.36-.4c-.19-.16.18-.51.43-.72a.24.24,0,0,1,.1-.05.39.39,0,0,1,.24,0,1,1,0,0,1,1.46.12c.51.61.08,1.19-.35,1.61s-1,.72-1.13.66l-.06,0h-.08c.06.09-.19.18-.28.29a1.65,1.65,0,0,1,.15,1.81l0,.05c.5-.43,1-.21,1.47.22a1.6,1.6,0,0,1,.26.26,1.08,1.08,0,0,1,.16.34s.67,1.79,1.61,4.32Zm2.14-.35c3.39-1.76,8.8-4.56,12.6-6.55l-5-3.19Zm-3.75-20.94v0h0Zm-7.53-1.79.76.48-1.12,1,7.89.32v0c-1.42-1-3.14-2.34-5.68-3.91a4.68,4.68,0,0,0-1.23-.57v.06l0-.06C914.52,265.68,914.75,267.32,915.32,268.71ZM913,272a16.62,16.62,0,0,0,.55,1.85l0,.12a.75.75,0,0,1,.21-.12c.09,0,.09-.19,0-.25.13,0,.67.12.88.16.06-.14.13-.29.18-.38s.33-.28.39-.42c-.21-.18.19-.54.45-.76a.24.24,0,0,1,.11-.06.43.43,0,0,1,.25,0,2,2,0,0,1,.36-.17Zm-1.2-5.47c.22.93.48,2.25.76,3.56h.35l-.91-3.45ZM940.9,286l-.46-.29-14,7.52c2.21,1.53,4.18,2.92,5.7,4C935,293.56,938.52,289,940.9,286Zm15.69,15.65c-1.48-2.09-5.36-7.16-8.45-11.06l-.55-.34C950.8,294.32,954.57,299.24,956.59,301.62Z"/></svg>