<svg id="Layer_14" data-name="Layer 14" xmlns="http://www.w3.org/2000/svg" viewBox="0 0 2916.56 2444.7"><defs><style>.cls-1{fill:#F7931E;}</style></defs><path class="cls-1" d="M1402.9,718.2c-.4-.6-.6-.5-1.1-1.2l-7.2-9.2c-4.8-5.5-7-9.1-12.1-15.1-6-7.7-15-19.1-22.2-28.3-5-6.5-12.6-16-18.6-23.4-3.8-5-10.1-12.7-12.3-15.7-9.2-11.4-15.7-20-24.8-31.2-10-12.9-21.4-26.5-32.1-40.2-.4-.6-.6-.5-1.1-1.2-6.1-7.9-10.3-12.4-17-21.2a14.25,14.25,0,0,1-1.1-1.2c-7.9-10.3-16.4-20.7-23.2-29.6-1.4-1.7-5-5.9-6.8-8.7-4.2-5-9.4-12-14-17.8-5.3-6.3-12.7-15.7-17.4-22.2-3.7-4.7-4.5-5.6-7.5-9.6-9.3-11.4-18.7-23.4-27.6-34.6-.5-.7-1-1.5-1.6-2.2s-1.3-1.5-1.8-2.1l-5.9-7.6h0l-1.4-1.8-1.3-1.7h0l-6.7-8.6c-1-1.2-1.9-2.3-2.8-3.4-7.7-10-17.8-22.7-28.2-35.5-.8-1-.9-1.4-2-2.7-6.7-7.6-14.8-18.2-21-25,.2.3.7.9.6.9-7.3-8.4-15.3-18.6-22.3-26.8-5.5-7.4-12.7-15.3-18.1-22.4-1.2-1.4-2.4-2.9-3.6-4.3a50.07,50.07,0,0,0-4.4-4.8c-.4-.8-2.4-2.7-3.8-4.7-.8-.8-2-2.4-2.9-3.3-6.4-8.7-13.7-16.4-20.4-25.3a5.67,5.67,0,0,0,.9.6c.5.2,1,.5.9.1a1.93,1.93,0,0,1-.3-1c0-.2,0-.3.2-.3.7.4,1.7,1,1.7,1l6.1.1c1.3-.1,0-2.2,0-2.2a8.14,8.14,0,0,0-4.5-3.6c1.2-2.1,2.3-4.3,2.6-4.9.6-1.3-1.3-3.3-1.3-3.3-.2-.2-.3-.4-.5-.6-2.2-2.4-3.4-1.5-6.4-.8-3.2.7-4,1.1-5.2.4s-4.7-4.6-5.2-5.1-5.9-7-7.3-8.8l1-.3c7.2-2,21.5-5.7,21.5-5.7a.37.37,0,0,0,.3-.1,3.07,3.07,0,0,0,2.3-3.7,3.91,3.91,0,0,0-2.1-2.6,8.65,8.65,0,0,0-3.5-.9c0-.1-21.5-.6-32.5-.8-.7-.7-1.4-1.5-2.2-2.4a6.28,6.28,0,0,0-1.1-1.2l.2.2c-2.1-2.2-4.2-4.5-5.4-5.6.3-.4.5-.8.8-1.2a.78.78,0,0,0,.2-.8c-.1-.7-1.3,0-2.5.7-2-1.8-4.8-4.2-8-4.5l-.2.1-1,.3a21.62,21.62,0,0,0-4.3-1.4,2.05,2.05,0,0,0-2.4,1.6,9.74,9.74,0,0,0,.6,3.4,25.26,25.26,0,0,0,3.7,5.5l.2.2c-.4.3-.7.5-.8.6a6.47,6.47,0,0,0-.9.8h.1l1.6-1.3,1.5,1.4-.6.6a2.51,2.51,0,0,0-.7-.4h-.1a4.19,4.19,0,0,0-1.4.9l-.7-.6a.36.36,0,0,0-.6.4,9.22,9.22,0,0,0,.5.8,3.13,3.13,0,0,0-.9,1.1v.2a1.42,1.42,0,0,0,.2.6l.1.1-.1.1v.1l.2-.2c.4.5,1.2,1.7,1.5,2.2l.2.2c.2.2.4.3.5.5v.1a1.37,1.37,0,0,0-.5,1.1,4.73,4.73,0,0,0,1.1,1.3c.4-.2.7-.3,1.1-.5a2.5,2.5,0,0,0,.2,2.5c-1.2,2.3-2.4,4.6-3.6,6.8v.2a4,4,0,0,0,1,1.8c.8.7,1.9,1.5,1.9,1.5s.7.6,2.9.4,7.9-.1,9.1-.3c.4-.1,1-.1,1.8-.2a22.06,22.06,0,0,0,3.7-.4s6.1,3.4,7,4l.8.4c4.3,3.9,11.2,9.2,17.1,13.5l-1,1.6s-.6.7.3,1.9l-.2.3.9.5a6.18,6.18,0,0,0,3.2,2.3,16.28,16.28,0,0,0,3.1.3c.8,1.1,1.6,2.2,2.8,3.7.9,1.2-.1.7,1.1,2,1.1,1.6,1.5,1.6,2.5,3,3.7,4.8,7.3,9.4,10.4,12.9,3.8,5,5,6.1,8.6,10.8,1.2,1.4,3.8,4.6,4.5,5.6a72.44,72.44,0,0,1,7.2,8.4c1.4,1.5,3.6,4.6,4.7,5.5,1.3,1.9,2.4,3.1,4.4,5.7,4.4,6.1,7.9,9.4,13.6,17.4-.1.5.7,1.5,1,2,1.7,2.4,4.1,4.7,4.3,5.7-2.2-2.4-5.2-6.4-7.2-8.4,5,6.4,8.3,10.3,13,16.5a28.94,28.94,0,0,1,3.8,4.7l4.4,5c4.2,5.2,6.9,8.4,10.6,13.5,3.1,4,6.9,8.2,10.6,12.8,2.1,2.6,4.1,5.2,6.1,7.8l1.6,2,25.7,34.8h0l37.6,50.5c-.7-.6-1.3-1.2-1.9-1.8-4-5.2-7.5-9.3-11.7-14.8-2.2-2.4-4.7-5.4-6.9-7.9,4.5,5.9,9.9,12.8,13.9,17.9,10.9,14.1,21.3,26.7,31.5,40.7l5.8,7.4c1.2,1.8,3.3,4.3,4.2,5.9,2.1,2.5,6.1,7.8,9.1,11.8,1.3,1.6,2.6,3.3,4,5.1l41,55a15.46,15.46,0,0,0-2.4-2.7,35.53,35.53,0,0,1,2.3,3.1c.2-.1,1.2,1.2,1.8,1.9l8.3,11.3c.3.5.6,1,.8,1.4,2.3,2.7,4.6,6.1,8.1,10.5a2.18,2.18,0,0,0,.4.5l6.6,8.9-.1-.1c-1.9-2.5-3.9-5-5.8-7.4-4.1-4.7-5.7-7.4-8.8-10.7,6.1,8.2,13.1,17,18.7,24a.19.19,0,0,0,0-.3l4.5,6.1a39.48,39.48,0,0,0,2.9,3.9l.1.2,31.8,42.7c-3.5-4.4-6.8-8.8-9-11.4,2.4,3.2,3.4,4.4,5.3,7.1,1,1.4,1.1,1.2,2.1,2.5,1.2,1.6,3.1,3.8,3.7,4.9a4,4,0,0,1,1.2,1.2c1.5,2,3.2,4.3,5,6.5l2,2.6c.9,1.3,2.4,3.1,3,4.1.2.1.3.3.5.5l4,5.2a20.28,20.28,0,0,1,1.3,1.8l.2.2,44.3,57.4,14.6-11ZM1068.4,302.3c.1-.2-.4-.9-1.2-1.9l-5.8-7.4c-1.8-1.9-4.4-5.4-6.4-7.6-1.8-2.5-5.3-6.4-4.8-6.8,2,2.4,4,4.8,5.9,7.1l13.3,17.9A2.68,2.68,0,0,0,1068.4,302.3Zm13.2,17.8,1.7,1.8,4,5.4A78.29,78.29,0,0,1,1081.6,320.1Zm24.2,26.1,1,1.1a.76.76,0,0,0,.1.4Zm43.9,55.1.2.2c.4.5.8,1.1,1.1,1.5Zm8,10.2c.3.3.5.6.8.9.6.8,1.3,1.8,2.1,2.7Zm11.5,14.3a66.15,66.15,0,0,1,4.4,5.5c1.6,1.8,4.6,5.6,6.3,7.9Zm13.7,17.2c.2.1.3.3.5.5,1.3,1.6,2,2.7,2.7,3.5Zm4.4,5.5a20.93,20.93,0,0,0,1.6,1.8c2.9,3.8,5.4,6.9,7.8,10ZM950,185.2a12.38,12.38,0,0,1,2.5-2.6l.7-.6h.1a17,17,0,0,0-2.4,2.2,10.63,10.63,0,0,0-.9,1.1c-.1.2-.3.5-.2.7s.7,0,.9-.1.7-.3,1-.4v.1a4.18,4.18,0,0,1-1,.4,1.13,1.13,0,0,1-.8.1C949.5,186.1,949.8,185.5,950,185.2Z"/></svg>