<svg xmlns="http://www.w3.org/2000/svg" viewBox="0 0 4386.8 3171.6" style="enable-background:new 0 0 4386.8 3171.6" xml:space="preserve"><radialGradient id="a" cx="8934.16" cy="2126.98" r="3320.68" gradientTransform="matrix(0 -1 1.0016 0 -1152.075 9941.04)" gradientUnits="userSpaceOnUse"><stop offset=".33" style="stop-color:#ffcb05"/><stop offset="1" style="stop-color:#faa819"/></radialGradient><path d="M.1 0h4386.8v3171.6H.1V0z" style="opacity:.6;fill:url(#a);enable-background:new"/><path d="M4386.8 1047.1 3121.8 0h-38.1l1303.1 1078.6v-31.5zm0-46L3177.4 0h-38.1l1247.5 1032.7v-31.6zm0 92L3066.3 0h-38.1l1358.6 1124.6v-31.5zm0-321.8L3455 0h-38.1l969.9 802.8v-31.5zm0 46L3399.5 0h-38.1l1025.4 848.8v-31.5zm0 321.8L3010.8 0h-38.1l1414.1 1170.6v-31.5zm0-198.4v-31.5L3288.4 0h-38.1l1136.5 940.7zm0 612-113-93.6L2511 0h-38l1913.9 1584.3v-31.6h-.1zm0-657.9v-31.5L3344 0h-38.1l1080.9 894.8zm0 505.6v-31.5L2733.1 0H2695l1691.8 1400.4zm0-215.4L2955.3 0h-38.1l1469.7 1216.5V1185h-.1zm0 307.3v-31.5l-2-1.6L2622.1 0H2584l1802.8 1492.3zm0 14.5L2566.6 0h-38.1l1858.4 1538.3v-31.5h-.1zm0-91.9L2677.6 0h-38.1l1747.3 1446.4v-31.5zm0-183.9L2899.7 0h-38.1l1525.2 1262.4V1231zm0 92L2788.7 0h-38.1l1636.2 1354.5V1323zm0-46L2844.2 0h-38.1l1580.7 1308.5V1277zm0-321.8L3232.9 0h-38.1l1192 986.7v-31.5zm0-749.9v-31.5L4176.9 0h-38.1l248 205.3zm0-46v-31.5L4232.4 0h-38.1l192.5 159.3zm0 92v-31.6L4121.4 0h-38.1l303.5 251.3zm0 91.9v-31.6L4010.3 0h-38.1l414.6 343.2zm0-46v-31.6L4065.8-.1h-38.1l359.1 297.3zm0-297.3h-25.9l25.9 21.5V-.1zm0 81.9L4288-.1h-38.1l137 113.4-.1-31.5zm0-46L4343.5-.1h-38.1l81.4 67.4V35.8zm0 597.5L3621.6 0h-38.1l803.3 665v-31.7zm0-91.9L3732.7 0h-38.1l692.2 573v-31.6zm0-183.9L3954.8-.1h-38.1l470.1 389.2v-31.6zm0 229.9L3677.1 0H3639l747.8 619v-31.6zm0 123.5v-31.6L3566.1 0H3528l858.8 710.9zm0 46v-31.6L3510.5 0h-38.1l914.4 756.9zm0-261.4L3788.2 0h-38.1l636.7 527v-31.5zm0-92L3899.3-.1h-38.1l525.7 435.2v-31.6h-.1zm0 46L3843.7 0h-38.1l581.2 481.1v-31.6zM2940.5 1674.1l1446.3 1197.2v-31.5L2719 1459.2 956.2 0h-38.1l2022.4 1674.1zm222.2 0 1224.1 1013.3v-31.5L2941.1 1459.2 1178.3 0h-38.1l2022.5 1674.1zm-111.1 0 1335.2 1105.2v-31.5L2830 1459.2 1067.3 0h-38.1l2022.4 1674.1zm166.6 0 1168.6 967.3v-31.5L2996.6 1459.2 1233.8 0h-38.1l2022.5 1674.1zm-111.1 0 1279.7 1059.3v-31.5L2885.6 1459.2 1122.8 0h-38.1l2022.4 1674.1zm388.8 0 890.9 737.5v-31.5l-1112.6-920.9L1511.5 0h-38.1l2022.5 1674.1zm890.9-75.4-168.6-139.5L2455.5 0h-38.1l1969.4 1630.2v-31.5zm0 950.8V2518L3107.7 1459.2 1344.9 0h-38.1l2022.4 1674.1 1057.6 875.4zm0-46V2472L3163.2 1459.2 1400.4 0h-38.1l2022.5 1674.1 1002 829.4zm0 92V2564L3052.1 1459.2 1289.4 0h-38.1l2022.4 1674.1 1113.1 921.4zm-1779.3-921.3L4386.8 3147v-31.5l-2001-1656.3L623 0h-38l2022.5 1674.2zm55.5 0L4386.8 3101v-31.6L2441.4 1459.2 678.6 0h-38.1L2663 1674.2zm1723.8 1151.2v-31.5L2774.5 1459.2 1011.7 0h-38.1l2022.5 1674.2 1390.7 1151.2zM2718.5 1674.2l1668.3 1380.9v-31.5l-1890-1564.4L734.1 0H696l2022.5 1674.2zM12.1 0H0v21.5l1996.7 1652.7 1786.2 1478.5-8.7 7.2-2054.8-1700.7h.1L0 35.9v31.5l1941.1 1606.7 1786.2 1478.5-8.7 7.2-2054.7-1700.6L0 81.9v31.5l1885.6 1560.8 1786.2 1478.5-8.7 7.2-2054.7-1700.7L0 127.8v31.5l1830.1 1514.8 1786.2 1478.5-8.7 7.2-2054.8-1700.6L0 173.8v31.5l1774.5 1468.8h-.1l1786.2 1478.5-8.7 7.2-2054.6-1700.6L0 219.7v31.5l1719 1422.9 1786.2 1478.5-8.7 7.2-2054.7-1700.6L0 265.7v31.5l1663.5 1376.9 1786.2 1478.5-8.7 7.2-2054.7-1700.6L0 311.7v31.5l1607.9 1331 1786.2 1478.5-8.7 7.2-2054.7-1700.7L0 357.6v31.5l1552.4 1285 1786.2 1478.5-8.7 7.2-2054.7-1700.6L0 403.6v31.5l1496.9 1239 1786.2 1478.6-8.7 7.2-2054.7-1700.7L0 449.6v31.5l1441.3 1193.1 1786.2 1478.5-8.7 7.2-2054.7-1700.7L0 495.5V527l1385.8 1147.1L3172 3152.7l-8.7 7.2-2054.7-1700.7L0 541.5V573l1330.3 1101.1 1786.2 1478.5-8.7 7.2-2054.7-1700.6L0 587.5V619l1274.7 1055.2 1786.2 1478.5-8.7 7.2L997.6 1459.2 0 633.5V665l1219.2 1009.1 1786.2 1478.5-8.7 7.2L942 1459.2 0 679.4v31.5l1163.7 963.2 1786.2 1478.5-8.7 7.2L886.5 1459.2 0 725.4v31.5l1108.2 917.3 1786.2 1478.5-8.7 7.2L831 1459.2 0 771.3v31.5l1052.6 871.3 1786.2 1478.5-8.7 7.2L775.4 1459.2 0 817.3v31.5l997.1 825.3 1786.2 1478.5-8.7 7.2L719.9 1459.2 0 863.2v31.5l941.5 779.4 1786.2 1478.6-8.7 7.2L664.4 1459.2 0 909.2v31.5l886 733.4 1786.2 1478.5-8.7 7.2L608.9 1459.2 0 955.2v31.5l830.5 687.4 1786.2 1478.5-8.7 7.2L553.3 1459.2 0 1001.2v31.5l775 641.5 1786.2 1478.5-8.7 7.2L497.8 1459.2 0 1047.1v31.5l719.4 595.5 1786.2 1478.5-8.7 7.2L442.3 1459.2 0 1093.1v31.5l663.9 549.5 1786.2 1478.6-8.7 7.2L386.7 1459.2 0 1139v31.5l608.4 503.6 1786.2 1478.5-8.7 7.2L331.2 1459.2 0 1185v31.5l552.8 457.6L2339 3152.7l-8.7 7.2L275.7 1459.2 0 1231v31.5l497.3 411.6 1786.2 1478.6-8.7 7.2L220.1 1459.2 0 1276.9v31.5l441.8 365.7L2228 3152.7l-8.7 7.2L164.6 1459.2 0 1322.9v31.6l386.2 319.7 1786.2 1478.5-8.7 7.2L109.1 1459.2 0 1368.9v31.5l330.7 273.7 1786.2 1478.5-8.7 7.2L53.6 1459.2 0 1414.8v31.5l275.2 227.8 1786.2 1478.5-8.7 7.2L0 1460.8v31.5l219.6 181.8 1786.2 1478.5-8.7 7.2L0 1506.8v31.5l164.1 135.8 1786.2 1478.5-8.7 7.2L0 1552.8v31.5l108.6 89.9 1786.2 1478.5-8.7 7.2L0 1598.7v31.5l53 43.9 1786.2 1478.5-8.7 7.2L0 1644.7v31.5l1783.7 1476.5-8.7 7.2L0 1690.6v31.5l1728.2 1430.5-8.7 7.2L0 1736.6v31.5l1672.6 1384.5-8.7 7.2L0 1782.6v31.5l1617.1 1338.6-8.7 7.2L0 1828.5v31.5l1561.6 1292.6-8.7 7.2L0 1874.5v31.5l1506.1 1246.7-8.7 7.2L0 1920.5v31.5l1450.5 1200.7-8.7 7.2L0 1966.5v31.5l1395 1154.7-8.7 7.2L0 2012.4v31.5l1339.5 1108.8-8.7 7.2L0 2058.4v31.5l1283.9 1062.8-8.7 7.2L0 2104.3v31.5l1228.4 1016.8-8.7 7.2L0 2150.3v31.5l1172.9 970.9-8.7 7.2L0 2196.3v31.5l1117.3 924.9-8.7 7.2L0 2242.2v31.5l1061.8 878.9-8.7 7.2L0 2288.2v31.5l1006.3 833-8.7 7.2L0 2334.2v31.5l950.8 787-8.7 7.2L0 2380.2v31.5l895.2 741-8.7 7.2L0 2426.1v31.5l839.7 695.1-8.7 7.2L0 2472.1v31.5l784.1 649.1-8.7 7.2L0 2518v31.5l728.7 603.1-8.7 7.2L0 2564v31.5l673.1 557.2-8.7 7.2L0 2609.9v31.6l617.6 511.2-8.7 7.2L0 2655.9v31.6l562 465.2-8.7 7.2L0 2701.9v31.5l506.5 419.3-8.7 7.2L0 2747.9v31.5l451 373.3-8.7 7.2L0 2793.9v31.5l395.5 327.4-8.7 7.2L0 2839.8v31.5l340 281.4-8.7 7.2L0 2885.8v31.5l284.4 235.4-8.7 7.2L0 2931.8v31.5l228.9 189.4-8.7 7.2L0 2977.7v31.5l173.3 143.5-8.7 7.2L0 3023.7v31.5l117.8 97.5-8.7 7.2L0 3069.7v31.5l62.3 51.6-8.7 7.2L0 3115.6v31.5l6.8 5.6-6.8 5.6v13.4h4386.8v-13.3l-1.8 1.5-2054.7-1700.7L567.5 0h-38.1L2552 1674.1h-.1l1786.2 1478.5-8.7 7.2-2054.6-1700.6h.1L512 0h-38.1l2022.6 1674.1 1786.2 1478.5-8.7 7.2-2054.8-1700.6h.1L456.4 0h-38.1l2022.6 1674.1h-.1l1786.3 1478.5-8.7 7.2-2054.7-1700.6L400.9 0h-38.1l2022.6 1674.1 1786.2 1478.5-8.7 7.2-2054.8-1700.6L345.4 0h-38.1l2022.6 1674.1h-.1L4116 3152.7l-8.7 7.2-2054.7-1700.7L289.8 0h-38.1l2022.6 1674.1 1786.2 1478.5-8.7 7.2-2054.7-1700.6L234.3 0h-38.1l2022.6 1674.1h-.1L4005 3152.7l-8.7 7.2-2054.7-1700.7L178.8 0h-38.1l2022.6 1674.1 1786.2 1478.5-8.7 7.2L1886 1459.2 123.2 0H85.1l2022.6 1674.1h-.1l1786.3 1478.5-8.7 7.2-2054.7-1700.6h.1L67.7 0H29.6l2022.6 1674.1h-.1l1786.2 1478.5-8.7 7.2L1775 1459.2 12.1 0zm2762 1674.1-.1.1 1612.8 1334.9v-31.5L2552.4 1459.2 789.6 0h-38.1l2022.6 1674.1zm1612.7 1243.1v-31.4L2663.5 1459.2 900.7 0h-38l2022.4 1674.2 1501.7 1243zm-.1 46v-31.5L2608 1459.2 845.1 0h-38l2022.4 1674.2 1557.2 1289zm-946.4-1289 946.5 783.5v-31.5l-1168.1-966.9L1456 0h-38.1l2022.4 1674.2zm666.3-.1 280.2 231.9v-31.6l-501.6-415.3L2122.3 0h-38.1l2022.4 1674.1zm111.1 0 169.1 140v-31.5l-390.6-323.4L2233.4 0h-38.1l2022.4 1674.1zm-55.4 0 224.5 186v-31.5l-446.2-369.4L2177.9 0h-38.1l2022.5 1674.1zm-111.2 0 335.7 278v-31.6l-557.2-461.3L2066.8 0h-38.1l2022.4 1674.1zm333.2 0 2.5 2.2v-31.6l-224.1-185.5L2400 0h-38.1l2022.4 1674.1zm-388.7 0 391.2 323.9v-31.6L3774 1459.2 2011.3 0h-38.1l2022.4 1674.1zm333.1 0 58.1 48.1v-31.5l-279.6-231.5L2344.4 0h-38.1l2022.4 1674.1zm-55.5 0 113.6 94.1v-31.5l-335.1-277.4L2288.9 0h-38.1l2022.4 1674.1zm-721.9 0 835.5 691.7v-31.5l-1057-875L1567 0h-38.1l2022.4 1674.1zm111.2 0 724.3 599.8v-31.5l-946-783L1678.1 0H1640l2022.5 1674.1zm55.5 0 668.8 553.8v-31.5l-890.4-737.1L1733.6 0h-38.1L3718 1674.1zm-111 0 779.8 645.7v-31.5l-1001.5-829L1622.6 0h-38.1L3607 1674.1zm333.1 0 446.7 369.9v-31.5l-668.3-553.2L1955.7 0h-38.1l2022.5 1674.1zm-55.6 0 502.3 415.9v-31.5L3663 1459.3 1900.2 0h-38.1l2022.4 1674.1zm-111.1 0 613.4 507.8v-31.5l-834.9-691.1L1789.1 0H1751l2022.4 1674.1zm55.6 0 557.8 461.8v-31.5l-779.4-645.1L1844.7 0h-38.1L3829 1674.1z" style="fill:#fce600"/></svg>