<svg id="Layer_14" data-name="Layer 14" xmlns="http://www.w3.org/2000/svg" viewBox="0 0 2916.56 2444.7"><defs><style>.cls-1{fill:#F7931E;}</style></defs><path class="cls-1" d="M1337.5,777.1h0c-3.5-4.6-5.2-6.6-8.3-10.5-3.5-4.8-5.5-7.2-11.2-14.4-4.8-6.3-10.1-13.2-16.3-21.2-14.8-19.2-31.3-40.1-43.2-55.8-9.4-11.9-17.8-22.7-25.6-32.9-14.6-19-27.5-35.9-42-54.7L1161,549.2c-1.8-2.3-1.5-2.2-3.7-4.8l-9.7-12.5c-1.8-2.3-1.5-2.2-3.7-4.8l-24.7-31.6-57.3-74c-13.6-17.4-26-33.7-36.6-47-10-13.1-14.9-19.3-27.6-35.5-2.7-3.7-4.8-6-6.6-8.7-6.9-8.6-13.7-17.5-21.7-27.8l-7-8.9c-1.8-.1-63.4-81.1-63.4-81.1-1.8-2.3-1.7-2-3.8-4.8-9-11.6-14.7-18.9-20.8-26.3l-8.3-10.6-1.3-2.1.8,1.2,4.6-3.8,9.2-7.6-1.8-2.1-.6-.7-1.6-2.6h-.1a.52.52,0,0,1-.2-.4h.1l1.8,1.9,21.2,3v-.1l.1.1a11.63,11.63,0,0,0,.4,1.8.37.37,0,0,1,.3.1l.6-1.9,1.3-.5-.3-.2-2.8-.6a.1.1,0,0,0-.1-.1,4.74,4.74,0,0,0-1-1,14.65,14.65,0,0,0-2.8-1.4L839,137.7c-7.7-8.3-15.1-16.2-17-18.2-2.4-2.4-7.8-5.4-9.5-5.4-1.1,0-2.2.1-3.3.2,0,0-2.4-.3-3.1.5-.4.4-1.2,1.8-.4,4.4a18,18,0,0,0,2.9,4.3c3.4,4.1,8.4,9.4,8.4,9.4s.6,1,1.4,2.4l-2.8,5.2-9.2,11.9a5,5,0,0,0,.4,1.3,6.73,6.73,0,0,0,1.4,1.5l-.1-.1a5.07,5.07,0,0,1,.7,1.5c.1.6-.1,1.1,0,1.1l.3.3.8-1.6,6.1-1.9c.3.5.5.8.7,1.1s1.3,1.8,1.3,1.8l.2-.2s-.1-1.5-.2-2.3l1.1-.2.1.2c.2.4,1.5,2.1,1.5,2.1l.4-.2a20,20,0,0,0-.4-2.4l.9-.2.4.6a19.37,19.37,0,0,0,1.4,1.8l.4-.2a10.86,10.86,0,0,0-.4-2.5l.9-.1.8,1.1.6-.6a3.2,3.2,0,0,0-.1-.7l1-.2,1.3,1.3.7-.6-.1-.5,3.5.5-.2-.5a27,27,0,0,1,3.4,2.5c1.6,1.5,7.8,4.9,8.1,5.2a16.26,16.26,0,0,0,1.4,1.4l.5.4.1.1.1.1.2.2.1.1.3.2h.1l.3.3c.3.3.7.5,1,.8.7.4,3.3,2.1,6.1,3.8-.6.6-1.5,1.8-1.8,2a1.25,1.25,0,0,0-.4,1.3c0,.7,2.2,3.1,2.2,3.1l4.5-.6c16.2,21.1,37.5,48.6,54.3,70.4,0,0,42.7,54.8,43.9,56.4-1.5-1.8-3.9-4.9-6.4-8-4.4-5.7-37.8-48.3-42.1-53.9-.7-.3,4.8,6.4,6.5,8.8,2.4,3.1,32.9,42.3,35.3,45.4,3.2,4.2,6.5,8.7,10.1,13.1,1.4,1.8,2.6,3.6,4.4,5.8,3.9,5,7.5,9.6,10.4,13.5l24.7,31.6c10.1,13.1,19.3,24.8,28.1,36.7,4.5,5.7,9.2,11.6,13.8,17.6l32.7,42.7c-.7-.7-2-2.4-2.8-3.4-1.1-1.1,1.4,2.4-.3.2-2.7-3.8-5.3-6.6-6.8-8.6-1.9-2.6-6.4-8.2-8.1-10.6-.9-.7,2.4,3.2,2.8,4l6,7.7c1,1.3,1.3,1.9,2.9,3.9l21.7,27.8c1.4,1.9,1.8,2.5,3.6,4.9l9,11.5c1.1,1.6,5.3,6.8,6.6,8.8-1-1.6,4,4.8,3.8,4.7-1.8-2.4-2.4-2.7-.9-.8.2.1.4.2,1.6,1.8,3.7,4.8,3.6,4.8,6.7,8.6,1.9,2.5,2.1,3,4.3,5.9,5.2,6.6,7.4,9.9,11.9,15.4,3.2,4.4,5.1,6.8,8.9,11.5,2.2,2.9,6.3,8.5,8.9,11.6,3.2,4.6,11.2,14.6,15.4,20.3,1.8,2.2,2.3,2.7,4.6,5.7,4,5.5,12.7,16.5,17.7,23.2,2.6,3,4.8,6.1,7.6,9.5,5.1,7.3,18.1,23.5,27.3,35.5l3,4a64.47,64.47,0,0,0,4.9,7c4.1,5.4,5.2,6.4,8.4,10.4,14.5,18.9,24.9,32.2,40.9,52.9,3.9,5.2,6.6,8.5,11.2,14.4,6,7.9,12.9,16.4,17.2,22,6.7,8.5,13.9,17.9,21.1,27.3l10.1-7.1C1341.2,782.1,1339.1,779.4,1337.5,777.1ZM817.1,152.5l-.1-.2,1-.4.1.3Zm2.5-.9-.2-.3.8-.3a.37.37,0,0,1,.1.3Zm2.4-1-.2-.3.5-.2a.37.37,0,0,0,.1.3Zm2.1-.9-.2-.2.2-.1a.31.31,0,0,0,.1.2Zm2.6-.4c-.1-.1-.1-.2-.2-.3l1.9.5.2.2Zm43.6,6.2v-.2l-.1-.3,1.5.2Zm2.6-3.2c.1.1.1.2.2.3l-4.5-.7-.2-.3Zm-13.5-2,.2.3-4.7-.6-.3-.4Zm-1.3,8.5h0c-.5-.7-2.3-2.6-4.7-5.3h.3l-2.2-3.9-1.6.1-.3-.3,2.2-.2,1,.1c.1.2.1.3.2.5l-1-.1,2.1,4,1,.1a18.48,18.48,0,0,0,1.4,1.4l.4-.7-.2-.5,5,.4a7.17,7.17,0,0,0,.7,1.1,7.28,7.28,0,0,0,1.7,1.8l.2-.3-.5-2.1a.44.44,0,0,1-.1-.3l2.5.2-1.6-3.3-2.7-.4-.2-.3,4.7.7c0,.1.1.2.1.3l-1.5-.2,1.7,3.3,1.7.2c.3.5.5.8.7,1.1Zm33.3,58c.4.6,2.9,3.7,2.9,3.9-6.1-7.6-13.7-17.4-17.9-23,1.9,2.4,3.1,3.9,3.9,4.7-4.6-5.9-7-9.2-11.9-15.4-1.4-1.3,3.2,4.2,2.8,4-4-5-9.6-12.4-12.8-16.4l.7-.1c10.3,13,19.3,24.9,31.3,40.1,2.6,3.4,6.3,8.2,10.2,13.2l14.2,18.5C907.1,236.8,899.5,227.1,891.4,216.8Z"/></svg>