<svg id="Layer_14" data-name="Layer 14" xmlns="http://www.w3.org/2000/svg" viewBox="0 0 2916.56 2444.7"><defs><style>.cls-1{fill:#F7931E;}</style></defs><path class="cls-1" d="M925.9,322.8l.7-.4c-.6.3-.9-.7-1.6.5-.2.1-.3.2-.5.3a1.72,1.72,0,0,0-.3,2.3v.1a1.57,1.57,0,0,0,2.2.1.1.1,0,0,0,.1-.1,1.7,1.7,0,0,0,.3-2.3A1.19,1.19,0,0,0,925.9,322.8ZM1293,774.7,1230.5,695c-8.6-11.5-17.2-22.8-25.7-33.8l.4,1.5-6.6-8.5a26.71,26.71,0,0,1,3.8,4.4c-1.1-2.3-4.1-5.5-6.4-7.7l-5.9-7.5c1.5,1,7.2,7.3,5.2,4.7l-4.2-5.2.8,1.2c-1.7-1.6-2.8-2.6-4-3.7l-8.8-11.2c-.3-.9.3-.6-.6-1.8.1-.1-.4-.8-2.3-3l-8.8-11.5,1.6,3.5-72.3-92.1a37.57,37.57,0,0,1-3.2-5.5c.7,1.9-3.9-3.9-7.9-8.6l-5.8-7.4a10,10,0,0,0-1-2.1c-12.6-14.1-24.9-33.2-39.6-51.3-.3,0,.3,1.4-.1,1.5l-3.9-5-4.1-7.5c-3-3.5-4.5-1.9-8.5-9.4a7.84,7.84,0,0,1,.5,1.4l-10.3-13.1c-21.8-29-46.2-57.3-67.3-87.3.9-.2.5-2.7-2.1-5.9-.7-.9-1.6-2-2.7-3.2,5.2-5.5,5.4-10.1,2.7-13.3a3.53,3.53,0,0,0-3.7-1.4c-1.5-3.1-3.3-6-4.5-7a17.81,17.81,0,0,0-1.8-1.3l8.7-11.3s12.6,8.3,13.9,9c6.4,3.7,2-16.9-1.8-19.3-.7-.4-30.9-17-30.9-17l-23-12.6a18.84,18.84,0,0,1,2.1-2c2-1.7,4.4-3.8,3.1-5a2.28,2.28,0,0,0-1.2-.6.67.67,0,0,0-.4-.7,1.5,1.5,0,0,0-1.8.3l-1.8-.3c.2-.9,0-1.5-.7-1.5a2.09,2.09,0,0,0-2,1.3,10.82,10.82,0,0,0-1.8,0c-.2-.7-.6-1.2-1.3-.9a2.25,2.25,0,0,0-1.5,1.5,17.55,17.55,0,0,0-4.2,2.4,1.37,1.37,0,0,0-1.8.1c-.7.7-.8,1.3-.6,1.8a13.49,13.49,0,0,0-2.8,3.5l.2-.1-.2.3,5-1.7,1.9,1.3a13.39,13.39,0,0,0-4,5.1l.2-.1-.1.3,5.5-2.9c.2.6.5,1.3.7,1.8l-1.2,1.9c-2,2-5.8,5.7-7.1,6.8a11.41,11.41,0,0,0-1.1,1.1l-1.7-1.4c-1.5-1.2-2.2-.7-1.5,1.2.5,1.2,3.4,6.2,5.8,10l-1,.4a1.38,1.38,0,0,1-.3-.4,4.69,4.69,0,0,0-3.4-1.7,4.91,4.91,0,1,0,4.6,5.2l1.9-.5c.3.4.5.8.7,1.1l4.5,4.1-.3.4a5,5,0,0,0-3.4.6,4.89,4.89,0,1,0,6.7,1.7l10.6,9.8.1.1a278.58,278.58,0,0,0,18.8,27.1,2.92,2.92,0,0,1,.6,3.3,6.86,6.86,0,0,1,1.7,1.7c1.3-.3,1.6.1,2.8,1.9a3.91,3.91,0,0,0,1.7,1.4,51.16,51.16,0,0,0,5.6,5.8c1.7,2.9-2.3-1.8-1.6-.1,3.1,2.4,6.1,5.9,11,12.9l-.8-.6c14.9,18.7,20.5,27.4,36.5,48.9l-.3-2.2a86.7,86.7,0,0,1,5.3,8.1c5.4,4.2-9.9-12.8-4.7-9.2,2.9,7.4,25,32.1,26.2,37.7,5.5,7-.6-2.8,4.9,4.2l1,2.2,1.6.9,2.7,3.5c1.7,2.8,2.2,4.4,2,4.8a47.06,47.06,0,0,0-3.6-4.2c3.7,6,12,15.2,14.3,18.2l-4.5-6.4c13.7,16.6,29.1,37.3,43.2,54.1l35.7,46.1a10,10,0,0,1-1.1-1l2.6,3,83,107.1-.6-.3c.3.2.5.3.8.5l18.6,24-1.3-1.1c6.6,6.4,9.9,14.4,15.8,20.9-5.6-7.1-6-8.2-5.5-8.2l11.7,15.1c1.4,2.7,3.7,6.4,9,13-1.9-2.4-4.6-6.6-4.2-6.7l4.7,6.1a77.41,77.41,0,0,1,4.2,6.8c5.6,6.9,5,5.7,4,3.8l39.1,50.5c3.3,5.2,9.1,11.8,11.7,15.1l1.2.3,8,8.5a1.33,1.33,0,0,1,.3.7l7.6-5.3C1307.1,791.8,1298.8,779.1,1293,774.7ZM891.7,256.2a2.05,2.05,0,0,0,0,1.1c-.3.9-.7,1.9-1,2.7l-2.2,1.1C889.3,259.8,890.6,257.9,891.7,256.2Zm.3,7.6a8.85,8.85,0,0,0,0,2.3c-.2.4-.4.7-.6,1.1-1.8-1.3-3.4-2.6-4.8-3.7l.5-.5,3-1.6-.2.6c-.8,2-1.1,3.8,0,3.8.9,0,1.6-1,2.2-2.4A.76.76,0,0,1,892,263.8Zm1,4.6-.3-.5-.3.1-.3-.2.3-.5a10.91,10.91,0,0,1,.6,1.1Zm1.8,1.2a4.62,4.62,0,0,1-.7-.7l.1.1.1.1.3.2.2.3h.1l.3.2A.76.76,0,0,1,894.8,269.6Zm1.2-25.8h-.4v-.7l.5-.2h0C896.2,243.1,896.1,243.4,896,243.8Zm2.4.2-.3-.1a17.08,17.08,0,0,1,.7-1.8c0-.1.1-.1.1-.2l1-.3Zm40.8,40.9c-3.8,2-9.2,4.8-12.6,6.6l7.6-9.7ZM916,266a3.38,3.38,0,0,1,1.2.6c2.5,1.6,4.3,2.9,5.7,3.9l-7.9-.3,1.1-1-.8-.5h0C914.8,267.3,914.5,265.7,916,266Zm-3.4,4.1c-.3-1.3-.5-2.6-.8-3.6l.2.1.9,3.5Zm2.6,2.9-.4.4c0,.1-.1.2-.2.4-.2,0-.8-.2-.9-.2.1.1.1.2,0,.2s-.1.1-.2.1v-.1a12.09,12.09,0,0,1-.5-1.8h3.4c-.1,0-.2.1-.4.2h-.2a.1.1,0,0,0-.1.1C915.4,272.4,915,272.8,915.2,273Zm9.3,18.8-1.5-1.1c-.9-2.5-1.6-4.3-1.6-4.3s-.1-.2-.2-.3l-.3-.3c-.5-.4-1-.7-1.5-.2v-.1a1.51,1.51,0,0,0-.2-1.8c.1-.1.3-.2.3-.3h.1c.1.1.7-.2,1.1-.7s.9-1,.3-1.6V281a1.07,1.07,0,0,0-1.4-.1h-.3c-.2.2-.6.6-.4.7,0,.1-.3.3-.4.4s-.1.2-.2.4h-.1c-.1-.4-.2-.7-.3-1l1.4-2.8-2.9-2.2a2.65,2.65,0,0,0-.5-.6l-.2-.2a1.91,1.91,0,0,0-.3-.8c.1-.1.4-.2.3-.3h.2c.1.1.7-.2,1.2-.7s.9-1.1.4-1.7a1.38,1.38,0,0,0-.4-.3l7.2-.1.9,1.2.1.2v-.2a9.9,9.9,0,0,1,1.8,3.9c1.8,1.2,3.8,2.5,5.9,3.9Zm1.9,1.4,14-7.5.5.3c-2.4,3-5.9,7.6-8.8,11.2C930.6,296.1,928.7,294.8,926.4,293.2Z"/></svg>