<?xml version="1.0" encoding="UTF-8"?>
<svg id="Layer_1" xmlns="http://www.w3.org/2000/svg" version="1.1" viewBox="0 0 1000 1000">
  <!-- Generator: Adobe Illustrator 30.2.1, SVG Export Plug-In . SVG Version: 2.1.1 Build 1)  -->
  <path d="M0,1000v-253c0-10.4-.2-66.1-.2-66.1,0,0,.9-5.3,5.6-10.9,2.2-2.6,8.3-3.7,11.4-4.6s8.1-3.3,11.1-2.2c-.3-2.5,0-4.6.9-6.9,7.5,1.5,15.5.5,23.2.6,1.4,0,2.9,0,4.2-.6,1.6-.8,2.6-2.5,3.6-4,2.2-3.8,4.4-7.5,6.6-11.3,4.6-7.9,16.6.9,24.7-5.5,1.8-1.4,3.4-3.3,5.7-3.9,1.7-.4,3.4,0,5.1,0,8.3.8,14-3.4,19.6-8.9s11.7-11.9,21.7-16.2c2.5-1.1,5.2-2.2,6.6-4.5,4.1-6.4-4.5-14.6-2.8-22,1.7-7.3,11.4-8.5,17.5-12.8,15.8-11.1-.5-34.5,10.8-44.4,6.9-6,18.9,5.8,28.8.3s0,0,0,0c.9-.5,2.5-1.1,2.5-1.8s.2-1.8.3-2.4l3.9-7.1-6.8,2.8c-.6-.3-.8-2.4-.2-3l2.3-2.1h-2.8c-2.4-.1,4.3-1.8-7.8-3.7l-8.9-1.3c-.4-1.3,3.1-3.9,1.7-4.6s-2.8.6-4.4,1.2c.8-2.7-8.2-7.8-10.1-6.3l-12.8-2.3c-2.8-.9.6-3.4-3-4.4s-3.4-1-3.5-1.8l-.2-3.8c-3.2-2-12.8-6.7-14.9-10l3.2-.6c.5,0-.4-1.8-.8-2.5-.6-.9.5-3.3.5-4.5,0-5.4-6-11.2-6.6-16.5s-1.6-6.4-4-8.5c2.7-3.5,2.4-8.5,1-12.7s-1.6-4.1-2.6-6.1c-1.9-4.1-3.8-8.1-5.8-12.2,1.7-.8,3.1-2,4.2-3.5-4.3-.7-5.8-6.9-10-7.9.5-1.3,1.1-2.7,1.6-4-1.5-.3-3-.4-4.5,0,1.2-5.6,2.7-11.1,4.4-16.5.3-1,.7-2.1,1.5-2.9.5-.6,1.3-.9,1.7-1.5.6-.8.7-1.8.8-2.7.3-3.1.5-6.3.8-9.4,0-1.6,0-3.5-1.3-4.3-.6-.3-1.4-.5-1.6-1.1s.2-1.2.6-1.8c3.7-6.2-2.9-12.8.5-18.8.2-.4.5-.8.5-1.3s-.4-.9-.7-1.3c-.9-1.2-1.2-2.9-1-4.4s.8-3,1.4-4.4c.8-1.8,1.6-3.5,2.5-5.2-4.1,2.3-11,2.9-14.4-1.1-4.2-4.9-19.8,2.1-23.2-3.5-.8-1.3-.4-2.5-.8-3.8s-1.7-2.3-1.5-3.9c0-.8.5-1.5.8-2.2s.4-1.7-.2-2.2c-.2-.2-.5-.4-.7-.6-.6-.5-.9-1.1-1.2-1.8-1.1-2.5-2.3-4.9-3.4-7.4-.8-1.8-.9-3.5-1.5-5.2s-2.1-3.1-1.9-3.9c2.2-9-4.7-24.5-3.9-33.2l-1.7-16.8c3.1-3.3,2.3-6.3,2.6-9.9.6-7.1,2.4-8.2,1.6-13.2,1.8-.7,5.7-1.9,7-3.3,2.6-3,10.2-.3,13.2-12.6l13.2-13.5c4.8-6.9,14.3-13.6,23.1-12.9,13.4,1,45.8-1.1,43.7,15.4,21.1,1.3,22.6,3.3,25.6,16.4s-1.4,10.1,1,7.4,5.3-5.3,7.3-8.1,5.3-6.9,8.9-9.8l4.9-4c11.7-9.7,16.4-8.9,24.8-16.1l6.4-5.4c8.9-7.6,18.7-13,29.8-17.1s9.3-4.2,13.9-5.2l9.1-2c21.1-4.7,50.7-9.4,71.9-5.5s10.1.8,14.5,2.2,8.1,2.3,12.4,3.5l8.4,2.2c5.1,1.3,10.2,3.4,15.5,3.7s12,2.4,18,5.6l11.3,6.2,22,9.5,13.4,8.9c12.3,8.2,32.7,24.8,33.7,40.6l-5.4-4.1c-8.4,2-19.4-6-28.6-6.6l-1.6,2.6c-2-1.4-5.5-2.3-7.1-.9s-.8,2.6-.3,2.6h2.7c.4,2.1-2.9,3.8-5.5,3.7,8.5,7.6,6.6,10.5,11.2,14-.6.8-1.1,3.1-1.9,2.8s-3.6-1.1-3.1-1c1.2-1.6,1.8-2.2,1.4-2.4-2.2-1-2.8-.2-7.3,1.9,15.8,5.7,2,2.3,12.7,6.1l-4.5,1c-.1.4-.2,1.5-.6,1.4l-2.4-.2c2.2,2.4,4.8,3,8.5,1.1.3.4.9,2.7.3,3.1l-2.9,2.2,2.8,1.6-5,6.7,4.5-1.5c.9,1.6,3.1,2.6,3.9,3.6l4.7,6.1,4.8-2-4,4.1,3.2,2.2-4.2,2.9,7,2.5c-1.1,1.8-1.5,4.2-.7,5.8l-1.1,6.2c-1.2,1.7-5.1,3.2-7.7,3.9l1.3,1.5c.2.3-1.6.4-1.8.7l-6,6.6c-5.3,5.7-8.9.4-13.2,9.5s-3.5,1.2-4.6.3l-6.4,6.9c-2.8,3-5.2,5.2-4.7,9.7l-2.4,1.1.5,13.3c1.2-2.3,2.1-5.3,2.2-7.2l.2-7.4c3.5,2.5,2,5,2.4,7.6l1.2,7.9-2.4-5-2.7,7.1v4.6c-1.6-2-1.9-2.2-1.1-.5,0,4,0,6.6-.7,9.8l-3.6,14.3c-1.2,4.7,3.8,9,.6,14.3l-3-15.6-.9,3.1c-.1.5-.2.3-1.9.5-1.1,1.7-1.7,5.7-.2,6.7l2.7-3.3-5.1,14.2c-.4,1-.2,3.8-.3,4.4.5.5,2.1,1.5,1.8,2l-.9,1.9c-.2.4,1.2,1.8.7,1.8l-2.5.2,1.3,6.7h4.5l-1.4,5.4-3.8.2,4.5,4.3c1.8-.9-.3-5.7,1.8-6.5s3.1-1,3.1-.9c1.2,3.6,2.2,5.4,3.8,7.1.1.6-.2,3.2.5,3.2l2.3.3,1.4,4.1c.3.9,3.1.8,4.3,1.2l3.6,9.2c-.9,3.7-.2,6.7,1.8,9,.8-1.8,1.3-2.9,1.1-2.4,3.6,9.3-2.7,3,.8,13.9l-1.5,2.9c-.3.7.8,2.5,1.2,2.6,1.7-2.6,1.8-2.4,1.5-.4l-1.8,3.6c-.4.8,2.2,1.8,2.6,2.6l3.4,6.5-3.4-2.1-.7,1.7c-.3.6,5.2,1,8.4,5.7v-4.5l8.3,4c1.2,3.2,2.8,6.3,5.3,8.6v-4.6l7.1,2.5c-2.7,2-2.2,7.4-.2,10,.9-1.9,1.2-2.7,1.1-2.5l1.6,5.1.2-5.5c-.3-.2,2.4.7,2.6,1.4l.6,3.2,2.6-2.3,1.6,4.7,1.3-6.8,2.1,11.5c.4,2.1-2.4,6.8-.3,7.4s2.5.5,2.5.3l-.2-2.1-1.5-.2c3.6-7.1-1.7-13.2,2.2-13,0,4,.7,6.8,3.2,10.8l1.3-7.6c1.6,3.4.5,5.7.3,9.9l3.3-5.9c.4.7,1.7,3.4,2.6,3.4s2.3-1.8,4-2.7c2.7,1.1-5.3,6.3-2.1,5.9l2.1-.3c.4,0,1.5,0,1.9-.1s.4-1.5.7-3.5l5.9,3.9c4.2,2.8,5.8-6.8,15.9,0-2.1-5,6.5-10.8,10-13l-1.6-2.2c-.4-.5,2.4-1.6,2.5-2.1l2.3-11.6,3.8.3c-2.8-1.9-1.6-1.6.5-1.1.7.2,2.3,1.3,2.8,1l2.2-1.8-4.3-4.1,3.3.2c0-.8,0-2,.5-2.2l2.7-.7-10-11c-3.7-4.1-3.4-9.1-3.7-14.2s-1.2-11.7-1.7-16.3,1.4-3.6,2-3.1l2.3,2.2c.5.4-1.6,2.2-1.7,2.8,2.2,2.2,5.7,4.6,4.5,8l5.2,2.2c-3.2.7-3.8,1.9-1,2.4l3.3-1.2c.7-.2,2,2.2,1.5,2.7l-1.8,2c-.3.4-2.2,1.5-1.7,1.7l2.6,1.5c-3.8,7.1,2.6,8.7,1.7,15,1.7.3,4.7,1.1,6.5,1.8l-1.8,2.2c-.6.8,9.4,3.6,6.6,13l1.7,6.2-2.6-2.2c-2.5-2.1,1,4.2-4.1,7.8l-1.3,7.9-3.2-3.8-2.1,9.4c-.5,2.5-2.3,4.8-2.4,7.8-.2,4.9-1.7,9.9-1.4,14.5.3,5.6-.6,8.6-2.6,12.4v-2.8c0-.5-1.5-1.8-1.9-1.6-2.3,1.3-4.3,9.9-1.5,11.8,1.6-1.6,2.1-2.2,2.7-2.3-2.3,7.7-5.9,14.7,0,21.6l2.1-6.1c3.9,2.4-1.2,9.3,1.3,8.9l3.5-.5c4.1,9.8,5.5,4.6,4.4,12.5l-2.2-2.6c-3,11.5,7.9,5.7,3.7,14.1l4.1-.6c.7,0,1,2.2,1.3,2.8l1.1,2.4c.2.5,1.6,0,2.7-.5l-1.6,12.8c-.2,2-1.2,3.6-2.5,5.3-.7,1.4.4,4.9,1.1,6.9l3.2-3.6c.4,6.6-4.4,13.8-10.6,14.5s-6.3,4.9-7.5,9.6c-.7,2.6-5.5,4.3-7.2,6l-3.5,4.1-2.1-1.7c-.3-.3-.8.4-1.9,1.4l-5.5-6.1c-.5,1.3-1.1,4.5-2.3,4.3l-4.7-.4c-1,0-4.2,2.1-5,1.5l-1.9-1.5c-2.2,1.9-3.8,3.1-5.7,3.3s-4.4-1.2-4.1-2.5l.5-2.8c0-.3-.5-.2-.9,0l-1.6.5c.7-1.7,1.3-3.5,1.4-4.7s-3.4-2.4-4.1-1.6c-1.6,1.6-3.6,4.3-4.9,6.2l-9.4-2.6-7.8,2.4c-1.1-.6-3.9-2.1-4.7-1.4l-3.5,2.7c-.9-.7-2.2-2-2.5-1.4-3.3,6.1,7.9,20.1,12.4,24.2s7.1,7.8,10.9,11.8c10.4,10.9,18.9,8.8,15.1,28.1l-9.5,8.4c-3.4,3-9.1,4.9-13.5,5.6-10.6,1.9-5,8.8-17.7,18.5s-5.5,3.3-6.7,5.5c2.9,11.1,7.6,24.3,13.4,33.6l8.4,13.2c9,14.2-1,12.4,16.4,28.4s2.8,6.2,5.1,8.9l6,7.4c6.8,8.4,6.2,17.1,6.9,26.1,4.4,6.3,10.3,10.8,13.9,17.3l7.7,13.7c1.6,2.9,2.1,8.1,3.3,11.3-5.1,8.3-.9,16.5,1.6,24.9l4.6,15c.8,2.7,2.9,4.4,3.3,7.3l1.8,13.4,2.1,17.4c.5,4.3.4,8.8.4,12.7H-.1v.3-.3ZM442.8,682.6c-.4-11.7,4.6-22.2,16-26.7,1.1-1.1,3.5-3,4.5-3.9-6.3-1.6-8.8-7.7-9-14.1l-2.1,3.5-5.8,1.1c-2.2.4-6.3-1.1-9-2.6l12.4-1c-.7-3.6-9.7.5-5.4-2.6l2-1.5h-4.8v2.7c0,.5-1.8,1.1-2.3,1.2l-4.4,1.2c-1,.3-2.6-2.8-3.6-2.9l-8.5-1.6c.9-1.6,2-2.7,3.2-3.8l-4.7-.5c1.1-.6,2.7-1.2,3-1.8l.9-2.3,1.9-3.5c-2.4,1.1-3.9,2.4-4.7,1.8s-1.5-2.5-1.9-4.1l-3.7-.8-.5-5,2.1-1.2c.5-.3-.1-2.2-.7-2.2l-2,.2c-1.3.2-3.2.5-3.3-.3l-.3-3-3.9-5.5c-.5.5-2.9,1.9-3.1,1.5l-.5-7.4-7.4-6.1c4.2-.9,6.6-.7,10.2-.5l-.2-5.9c-2-1.4-4.3-3.6-5.7-5.9l-1.1-4.1,3.9,4.2,4.1-1.6-3.6-1.9c-.6-.3-.5-1.6-.9-3.6l4.2-.4c-1.2-2.7-3.4-3.7-5.8-3.5l-1.7-1.5c-.3-.3-.5-.5,0-.5h5.4c1,0,.4-.3-.1-1.6l-.2-3.6c0-.8-1.4-1.5-2-2,1.3-.9,2.7-2.2,2-2.6l-3.1-2.1,1.5-1.7c.3-.3-.3-1.6-.4-2.1,1.4.4,2.3.9,2.9.7l3.1-.9-4-5.9c-.6-.9-.6-3.3.3-4.3,3,10.3,5.1,4.2,9.5,10.1l.7-4.2-5.6-2.5v-5.6c1.5,2.2,2.3,3.6,3.1,4.3s2.9-.7,3.7-1,.2-3.1-.5-3.6c-5.8-4.9,2.8-4.9-8.6-12.3l3.6.3c.6,0,1.3-2.3.7-2.4l-1.9-.6-6.8-9.7c1.8-3,2.6-5,2.9-7.5l-3.6-.3c1.1-1.7,2.9-4,2.2-4.9l-3.4-4c1.6-.7,4,2.3,4.8,4.2,1-7.1,1.7-.5,5.7-7s-.6-3.3-1.2-4.4c2,.4,3.4.7,4.4-1.1s.2-2.3-.3-4.3c-1.6-6,3.9-6.2-1.3-16.6,1.2-.7,3.4-1.6,3.4-2.4v-3.9c2.5.7,5.7,2.1,8.3,3.6l6.4,3.7c6.1-8.5.6-7.5,7.3-14l-3-5c-.9-.8-3.3-1.7-3-2.6s.8-2.8,1.1-3.6l.5-7.6,3.8,5.7c.1-9.1-7.6-12.4-4.9-26l-1.2-3.6,2.5,2.4c.4.4,1.7-1,1.3-1.3l-1.5-1.3c-.8-.7-1.5-3-1.6-4.5s1.5-.9,3.1-1.2c-5-5.7-.4-15.7-3.4-15.6h-2.2v-2.5c0-.4,1.5-.6,1.4-.6l-2.8-14.8c-.9-4.5-1.1-9-.1-13.2-.6-.2-1.4-.2-1.4-.6-.8-4-2.8-8.4-5.4-12.2l-4.9-7.1c-1.3-1.9-3.4-2.9-6.1-3.5l-.8,6.4-6.1-4.7-2-4.9-1.8,2.6c-.3.4-2.3-.4-2.7-.7l2.9-2.6c-3.7-1.8-5.7-.7-9.1,1.5l1.1-2.1c.2-.4.2-1.4,0-1.3l-3,1.1c-.8.3-2.7-5-4.8-4l-3,1.4c-.7.3.2-2.5.3-3.2.4-4.2-4.8-6.5-8.3-5.6,0-1.9.2-2.8-.5-3.1-13.2-5.3-2.5-3.1-14.3-3.7-4.2-.2,0-2.3-15.8-.4-.5,1-1.8,3.6-2.8,3.6l-3.9.2c-.5,1.8-.9,2.9-1.6,3.9s-2.7,1-4.7.3l-8.2,10.1.3,4.2c-2.2,5.2-3.2,10.7-3.7,15.9s-2.1,3.2-1.7,4.2,1.5,2.8,1.4,3.7c-.5,5.4-5.9,3.8,1.3,17.5.6,1.1,1.3,2.2,1.8,3.3.6,1.4.8,2.3,2.2,3.2s2.5.9,2.7,1.9c.3,1.6.4,4.1.9,5.3,2.4,6.6,6.4,14,11.1,19.5l6.7,8,7.9,7.5,3.6,4.5,3.4,2.5c3.2,10,9,18.5,18.5,23.5-8.1,2.4-7.1-4.2-18.5-8.7-.6-.2-1-2.6-1.7-2.5h-2.4l1.2-3c-1.2-1.4-2.6-3.6-3.1-4.8-3-.2-5.6-2-6.9-4.7-1.4-2-6.5-2.1-9.2-1.9,0-.6,0-2.1-.4-1.9s-1,.4-1.2.7-.5.7-1.4,2.1c6.4,2.3,7.4,7.5,14,3.5l-.3,4c-1.8.5-3.1,3-2.8,4.6s1.5,2,2.7,2.5c-.2,1.5-.2,5.8,1,6l6.1-.8-5.2,4.4-2.3-1.5c1.2,4,4.6,5.8,9,7.6-.7.7-2.1,2-2.7,1.7l-2-1.1c-.8-.4-2.7-1.3-3.3-.8-2.2,2-.3,8.5-.2,8.8,1.2,3,5.1,7.1,5.6,10.5-3.9-3-5.4-7.1-9.5-7.7s-3.1,0-3.4.9c-1.1,2.8,1.1,3.3,7.1,8.7l5.2,4.7-8.5-2,1.4,4.9-5-1.6c-.9-1.4-2.1-3.6-3.2-4s-3.3-.2-3.8,0l1.3,2c.2.3.8,0,1.9-.2.9,6.2,6,7.3,12.4,9.1l-10.2.7c-1.8,2.1-2.4,7.5-1.6,9.9l5.8,1.9-6.2,7.7c.7,1.8,2.5,5.7,2.7,7.7l1.2,8.9-4.2-3.6c-1.4.2-4.5,2.6-4.2,3.8,1.7,1.7,4.5,4.5,3.3,5.5l-5.6,4.3c1.3,1.2,3.3,2.7,2.8,2.9l-3,1.2,4.9,6.5-2.8,2.8c-3.4,10.4,0-3-2.4-4.1-4.4-2-2.1.9-11.4-.5-.5,2.2-1.5,5.1-3.3,6s-4.4.9-6.5,0v-2.3c.1-.5-1.8-.4-2,0l-.7,1.6c-.3.7-1.4,1.7-1,2.1l2.1,1.9-4.8-1.4-1.8.6c-.4,0-1.9-1.2-2.4-1.2-4,0-8,6.2-9.2,9.7s-3.2,1.9-3.1,2.8.8,2.5,1.4,3.8c5.3,11,5.3,12.4,16.8,16.2-1,13.9,7.4,6.5,8.8,17.8s.9,1.6,1.2,1.9.8-.5,1.6-1.1l3.9,3.9c-.8,0-1.6,0-2-.3l-1.5-1c.4,1,1.6,3,2.4,2.7l3.9-1.6c1.3-.5.7,4.6,0,5,1.6.4,5.1,1.4,6.1,2.7s-1.4,3.3-1.7,3.2c-.9-1.6-1.6-3.9-2.7-3.9h-3.8l20.6,23.4c13.6,15.4,11.9,8.5,26.5,26.1,5.7,6.9,11.7,12.8,18.3,18.8s3.2,6.1,5.2,7.4c4.6,2.9,9.4,6.1,12.9,10.6,6.3,8,9.5,5.2,14.2,14.7s1.4,3.7,2.3,4,1.6.3,3.6.6c0,.3-.4,1.3-.8,1.5l-1.8,1c4,.4,11.5,6.8,15.4,10.3,5.7-15.1.8-23.3,2.1-38.9l2.4.7c.3,0,.6-.9.4-1.2-3.9-4.6-1.3-8.8,0-15.5l-.2.2h0Z"/>
  <path d="M575.7,326.7c-1.9,1.2,0,0,.2-.1,1.3-.9-2.1-5.1-8.9-4.7-1.2-1.1-3.5-3.7-5.1-3.9l-3.1-6.4c-.5-1-1-2.8-1.6-4.3l4.8.5,2.4-5.4.7,2.2c.2.6,1.8.5,3,.5l7.8,4.8c.2,1.1.6,3,1,4.4s3,1.4,4.2,1.9c6,8.2,2,10.9,2.3,18s-2.1,1-2.3.5l-1.2-2.4c-1-1.9-2.2-3.4-4.2-5.5h0Z"/>
  <path d="M565.5,366.1l-13.9-3.3c-.7-.2-3.2.1-3.9.2s-.5-2.6.3-3.2c4.2-3.1,14.3-3.4,20.4-4.1l13.8-1.5c-3.2,3.7-5.4,4.9-6.5,7.4s-.2,5.8.6,9.3l-3.7-3c-.8-.6-2.8.1-3.4.4-1.1-.9-2.4-1.8-3.7-2.2h0ZM573.6,364.8l.9-3.9c.2-.6-.2-2.4-.3-2.9s-2.1.1-2.3.7l-.6,1.5-3.7,1,6,3.6h0Z"/>
  <path d="M605,446.1c-1.9,2.3-1.6,3.5-2.7,3.9s-4.7.7-5.5.3c1.9-4.4,4.7-6.1,8.9-8.1,0,.7-.3,3.1-.7,4h0Z"/>
  <path d="M397.2,411.7c-6.4,1.6-9.8-10-19-13-4.4-1.4-9.8-1.2-12.9-4.9s5.6-9.7,9.3-11.6c7.5-3.9,11.8-10.1,15.2-9.6s8.4,12,4.7,19c1.9,7,6.8,5.7,7.6,15.5s-3.1,4.2-4.8,4.6h-.1Z"/>
  <path d="M369.7,372.4c2-5.9,2.1-13.1-1.9-16l10-9.8c-6.6-4.2-13.4-.9-14.9-7.7s.9-4.9,4.3-7.1l2.7-9.1c7.8,2,10.7,9.3,10.8,16.9s.8,37.2-11.1,32.8h.1Z"/>
  <path d="M342.6,386.3l-3.4-.5,2.1,5.8c.6,1,1.6,2.5,1.9,3.7-8.1-4.9-10.8-13.6-14.4-21.8s-3.3-4.5-2.5-5.8l2.2-3.7c1.4-2.3-2.4-3.9-1.5-6.9s1.1-.9,1.4-.6l2.4,2.8v-5.8c-.4-.9-1.2-1.9-.7-2.4l2.9-2.5-1.5-5c3.9,3,4.6,5.7,2.4,9.9l2.8.7c.7.2,1.9,2.2,1.7,2.2l-2.8,1.4c-.5.2.2,1.5.6,3l-1.8,1.6c3.5,1.5,4.8,6,2.6,9.2.5,2.4,1,4.7,1.3,7.1s.8,2.7,1.7,4,2.7,2.9,2.7,3.7h0Z"/>
  <path d="M330.2,336.3l-7.5,14.6,2.7-12.7c.1-.5,1.3-1.7,1-2.1l-1.3-2,4.5-4.3c.3-.3,2.4.9,2.1,1.3l-2.4,3.3,5.2-.4c.2.8-1.8,2-4.2,2.3h-.1Z"/>
</svg>